<?xml version="1.0" encoding="utf-8"?>
<!-- Generator: Adobe Illustrator 25.1.0, SVG Export Plug-In . SVG Version: 6.00 Build 0)  -->
<svg version="1.1" id="Layer_1" xmlns="http://www.w3.org/2000/svg" xmlns:xlink="http://www.w3.org/1999/xlink" x="0px" y="0px"
	 viewBox="0 0 600 600" style="enable-background:new 0 0 600 600;" xml:space="preserve">
<path d="M578.7,362.4l12.1,1.9l5.7-35l-3.8-0.6c-1.3,2.5-1.9,5.1-2.5,7.6l-34.4-5.7c0-2.5,0-5.1,0-7.6l-4.5-0.6l-5.7,35l12.7,1.9
	l1.3-5.7c-1.9-0.6-4.5-1.9-6.4-2.5l1.9-12.7l15.3,2.5l-2.5,8.9c-1.9,0-3.2,0-5.1,0l-0.6,5.1l15.3,2.5l0.6-5.1
	c-1.3-0.6-3.2-1.3-4.5-1.9l1.3-8.3l14,2.5l-1.9,12.7h-7.6L578.7,362.4z M581.3,214.8c0,2.5,0.6,5.1,1.3,7.6l-15.3,5.1
	c-5.1,1.3-9.5,3.2-14.6,5.1l0,0c2.5-2.5,5.7-5.7,7.6-8.3l20.4-24.8l-5.7-17.8l-4.5,1.3c0,2.5,0.6,5.1,1.3,7.6l-33.1,10.8
	c-1.3-2.5-1.9-5.1-3.8-7.6l-4.5,1.3l7.6,21.6l4.5-1.3c0-2.5-0.6-5.1-1.3-7.6l18.5-6.4c3.8-1.3,7.6-2.5,11.5-3.8l0,0
	c-2.5,2.5-5.1,5.1-7.6,8.3l-21,25.5l3.2,10.2l38.8-12.7c0.6,1.9,1.9,3.8,3.2,5.7l4.5-1.3l-7-20.4L581.3,214.8z M559.6,413.9
	l12.7,4.5c1.9-3.2,3.8-6.4,5.1-10.2c5.1-11.5,0.6-24.8-10.8-30.5c-1.3-0.6-2.5-1.3-3.8-1.3c-10.2-5.1-22.9-0.6-28,9.5
	c-0.6,1.3-1.3,2.5-1.3,4.5c-1.9,4.5-2.5,8.9-2.5,14l7.6,1.9c0-3.8,0.6-7.6,1.9-11.5c1.9-7.6,9.5-12.7,17.8-10.8
	c1.3,0,2.5,0.6,3.8,1.3c9.5,3.2,14.6,10.2,10.8,19.7c-0.6,1.9-1.9,3.8-2.5,5.7c-2.5-0.6-5.1-1.3-7.6-1.9L559.6,413.9z M522.1,417.7
	L510,438.1l3.8,2.5c1.9-1.9,3.2-3.8,5.1-6.4l29.9,17.2l-5.1,8.9c-1.9-1.3-4.5-1.9-8.3-3.2l-2.5,5.1l12.7,7.6l21.6-36.9l-12.7-7.6
	l-2.5,4.5c2.5,2.5,4.5,3.8,7,5.1l-6.4,10.2l-29.9-17.2c1.3-2.5,1.9-5.1,2.5-7.6L522.1,417.7z M500.5,286.7c-0.6-2.5,1.3-5.1,3.8-5.7
	c0.6,0,0.6,0,1.3,0l10.8-0.6c0,1.3,0.6,1.9,0.6,3.2h1.9l0-10.2H517c0,1.3,0,1.9,0,3.2l-11.5,0.6c-5.1,0-7.6,3.8-7.6,9.5
	c0,5.1,3.2,8.9,8.3,8.9c0.6,0,0.6,0,1.3,0l10.8-0.6c0,1.3,0.6,1.9,0.6,3.2h1.9l-0.6-10.2h-1.9c0,1.3,0,1.9,0,3.2l-10.2,0.6
	c-2.5,0.6-5.7-1.3-6.4-3.8C501.1,288,501.1,287.3,500.5,286.7 M513.8,229.4c0,1.3,0,1.9,0.6,3.2l-7.6-0.6c-1.9,0-3.8-0.6-5.7-0.6
	l0,0c1.3-1.3,2.5-2.5,3.8-3.2l5.7-5.7c0.6,0.6,0.6,1.9,1.3,2.5l1.9-0.6l-3.2-9.5l-1.9,0.6v2.5l-12.1,12.1l-7,2.5
	c-0.6-1.3-1.3-2.5-1.9-3.2l-1.9,0.6l3.8,10.2l1.9-0.6c0-1.3,0-2.5-0.6-3.8l7-2.5l17.2,2.5c0.6,0.6,0.6,1.3,1.3,2.5l1.9-0.6l-2.5-8.9
	L513.8,229.4z M489.6,191.9c0,1.3,0.6,1.9,1.3,3.2l-5.7,3.2l-5.7-9.5l5.7-3.2c0.6,0.6,1.3,1.9,1.9,2.5l1.9-1.3l-5.7-8.9l-1.9,1.3
	c0.6,1.3,0.6,2.5,1.3,3.2l-14,8.3c-0.6-1.3-1.3-1.9-2.5-2.5l-1.9,1.3l5.7,8.9l1.9-1.3c0-1.3-0.6-1.9-1.3-3.2l6.4-3.8l5.7,9.5
	l-6.4,3.8c-0.6-0.6-1.3-1.9-1.9-2.5l-1.9,1.3l5.1,9.5l1.9-1.3c-0.6-1.3-0.6-2.5-1.3-3.2l14-8.3c0.6,1.3,1.3,1.9,2.5,2.5l1.9-1.3
	l-5.1-8.9L489.6,191.9z M478.2,424.7l-13.4-9.5c0.6-1.3,1.3-1.9,1.9-3.2l-1.9-1.3l-6.4,8.9l1.9,1.3c0.6-0.6,1.9-1.9,2.5-2.5
	l13.4,9.5c-0.6,1.3-1.3,1.9-1.9,3.2l1.9,1.3l6.4-8.9l-1.9-1.3C479.5,422.8,478.8,424.1,478.2,424.7 M466.7,438.7l-12.1-10.8
	c0.6-1.3,1.3-1.9,1.9-3.2l-1.9-1.3l-10.8,12.7l4.5,3.8l1.9-1.9c-0.6-1.3-1.3-1.9-1.9-2.5l3.8-4.5l5.7,4.5l-2.5,3.2
	c-0.6-0.6-1.3-0.6-1.9-1.3l-1.3,1.9l5.7,4.5l1.3-1.9c-0.6-0.6-0.6-1.3-1.3-1.9l2.5-3.2l5.1,4.5l-3.8,4.5l-2.5-1.9l-1.9,1.9l4.5,3.8
	l10.8-12.7l-1.9-1.3C468.7,437.5,468,438.1,466.7,438.7 M449.6,457.8l-10.8-12.1c0.6-0.6,1.9-1.9,2.5-2.5l-1.9-1.9l-8.3,7l1.3,1.9
	c1.3-0.6,1.9-1.3,2.5-1.9l5.7,7.6c1.3,1.9,2.5,3.2,3.8,3.8l0,0c-1.3-0.6-3.2-1.3-5.1-1.9l-14.6-4.5l-3.8,3.2l12.1,14.6
	c-0.6,0.6-1.3,1.3-1.9,2.5l1.3,1.9l7.6-6.4l0-2.5c-1.3,0.6-1.9,1.3-2.5,1.9l-4.5-5.7c-1.9-2.5-3.8-4.5-5.1-5.7l0,0l5.1,1.9l14.6,4.5
	l6.4-5.7l-1.3-1.9C451.5,456.6,450.2,457.2,449.6,457.8 M420.3,480.7l-8.9-13.4c1.3-0.6,1.9-1.3,2.5-2.5l-0.6-1.9l-9.5,5.7l1.3,1.9
	c1.3-0.6,2.5-1.3,3.2-1.3l8.9,13.4l-3.8,2.5c-0.6-1.3-1.9-1.9-2.5-3.2l-2.5,1.3l3.8,5.7l16.5-10.8l-3.8-5.7l-1.9,1.3
	c0.6,1.3,1.3,2.5,1.9,3.8L420.3,480.7z M401.8,492.2l-7.6-14.6c1.3-0.6,1.9-1.3,3.2-1.9l-1.3-1.9l-9.5,5.1l1.3,1.9
	c1.3,0,2.5-0.6,3.2-1.3l7.6,14.6c-1.3,0.6-1.9,1.3-3.2,1.9l1.3,1.9l9.5-5.1l-1.3-1.9C404.4,490.9,403.1,491.6,401.8,492.2
	 M373.8,490.9c-1.3-2.5,1.3-4.5,3.2-5.1c0.6-0.6,1.9-0.6,3.2-0.6l1.9,3.2l2.5-0.6l-2.5-5.7c-1.9,0-3.8,0.6-5.7,1.3
	c-4.5,1.9-7.6,5.7-5.7,10.2c2.5,6.4,12.1,0,14,4.5c0.6,1.9,0,3.8-3.2,4.5c-1.9,0-2.5,0-3.2,0c-0.6-1.3-1.3-1.9-1.9-3.2l-2.5,0.6
	l2.5,5.7c1.9-0.6,3.2-0.6,5.1-1.9c5.1-1.9,7.6-5.7,5.7-9.5C384.7,488.4,375.1,495.4,373.8,490.9 M470.6,400.6
	c-1.3,1.9-1.9,3.8-2.5,6.4l3.2,1.3c0-1.9,0.6-3.8,1.9-5.1c1.3-3.8,5.7-5.1,8.9-3.8c0.6,0,1.3,0.6,1.9,1.3c3.8,2.5,5.7,5.7,3.2,10.2
	c-0.6,0.6-1.3,1.3-1.9,1.9l-3.8-1.3l-1.3,1.9l5.7,3.2c1.3-1.3,2.5-2.5,3.2-4.5c3.2-5.1,2.5-11.5-2.5-15.3c-0.6-0.6-1.3-0.6-1.9-0.6
	c-4.5-3.2-10.2-2.5-13.4,1.9C471.2,399.3,470.6,399.9,470.6,400.6 M503,382.8c2.5,1.3,3.2,3.8,1.9,7.6c-0.6,0.6-0.6,1.3-1.3,1.9
	c-1.3-0.6-2.5-0.6-3.8-1.3l-0.6,3.2l5.7,2.5c1.3-1.3,1.9-3.2,2.5-4.5c2.5-5.7,1.3-10.2-3.2-12.1c-8.3-3.8-11.5,8.9-17.2,6.4
	c-3.2-1.3-3.2-4.5-1.9-7.6c0.6-1.3,1.3-1.9,1.9-2.5c1.3,0.6,2.5,0.6,3.8,1.3l1.3-2.5l-6.4-2.5c-1.3,1.3-2.5,3.2-3.2,5.1
	c-2.5,4.5-0.6,10.2,3.8,12.1l0,0C494.1,392.9,497.3,380.2,503,382.8 M501.1,324.2L501.1,324.2c1.3-0.6,3.2-1.3,5.1-1.9l13.4-7
	l0.6-8.9h-1.9c-0.6,1.3-0.6,2.5-0.6,3.8l-16.5-1.9c0-1.3,0-2.5,0-3.8h-1.9l-1.3,10.2h1.9c0.6-1.3,0.6-1.9,0.6-3.2l8.9,0.6h5.7
	l-4.5,1.9l-13.4,7.6v5.1l19.1,1.9v3.2h1.9l1.3-9.5h-1.9c-1.3,0.6-1.3,1.9-1.9,2.5l-7-0.6C506.2,324.2,503.6,324.2,501.1,324.2
	 M497.3,258.7c-0.6-4.5,1.9-7.6,7-8.3c3.8-1.3,7.6,1.3,8.9,5.1l0,0c0.6,3.8-1.9,7.6-7,8.3C502.4,265,498.6,262.5,497.3,258.7
	L497.3,258.7 M494.1,258.7c0.6,5.7,6.4,10.2,12.1,8.9c0.6,0,0.6,0,1.3,0c5.1,0,9.5-5.1,8.9-10.2c0-0.6,0-1.3,0-1.9
	c-1.3-5.7-6.4-10.2-12.7-8.9H503c-5.1,0.6-9.5,5.1-8.9,10.2C493.5,257.4,494.1,258,494.1,258.7 M514.5,351.6c1.9-5.7-1.3-12.1-7-14
	c-0.6,0-1.3,0-1.3-0.6c-5.1-1.9-11.5,1.3-12.7,7c0,0.6,0,1.3-0.6,1.3c-0.6,2.5-0.6,5.1-0.6,8.3l7.6,1.9c0,0.6,0,1.9,0,2.5l1.9,0.6
	l2.5-9.5l-1.9-0.6c-0.6,0.6-0.6,1.9-1.3,3.2l-5.1-1.3c0-1.3,0-2.5,0-3.8c1.3-4.5,6.4-7,10.8-5.7s7,5.7,5.7,10.2
	c-0.6,1.3-0.6,1.9-1.3,3.2h-3.8l-0.6,2.5l6.4,1.3c1.3-1.9,1.9-3.8,2.5-5.7 M500.5,458.5c2.5,1.9,5.7,1.3,7.6-1.3l0,0
	c1.9-2.5,1.3-5.7-1.3-7.6c-2.5-1.9-5.7-1.3-7.6,1.3C497.9,453.4,497.9,456.6,500.5,458.5L500.5,458.5 M484.6,530.4
	c-1.9,1.9-3.8,3.8-5.7,5.7l3.2,3.8l17.8-14l-3.2-3.8c-1.9,1.3-3.8,1.9-5.7,3.2l-25.5-32.4l-5.1,3.2l-7,10.2l5.1,4.5l4.5-7.6
	L484.6,530.4z M426,518.9l12.7,20.4c1.3-0.6,2.5-1.9,3.2-2.5c7.6-4.5,12.1-4.5,14.6,0s0.6,10.8-3.8,13.4h-0.6
	c-1.9,1.3-3.8,1.9-6.4,2.5l2.5,6.4c2.5-0.6,4.5-1.9,6.4-3.2c9.5-5.7,12.7-15.9,7.6-24.2c-4.5-7.6-12.1-8.3-22.3-1.9l-4.5-8.3
	l13.4-8.3l-3.8-6.4L426,518.9z M412,552c-3.8,1.9-8.9,0.6-10.8-3.8c0-0.6-0.6-0.6-0.6-1.3c-1.9-4.5,0.6-9.5,5.1-10.8
	c4.5-1.9,9.5,0.6,10.8,5.1C418.4,545,416.5,550.1,412,552 M421.6,553.9c2.5,7-1.3,14-8.3,16.5c-1.9,1.3-4.5,1.9-6.4,1.9l2.5,6.4
	c1.9-0.6,3.8-1.3,5.7-1.9c13.4-5.7,18.5-17.8,10.2-36.3c-5.7-12.7-14.6-15.3-22.9-11.5c-8.3,3.2-12.1,12.7-8.9,21
	c0,0.6,0.6,0.6,0.6,1.3c2.5,7,10.2,10.8,17.2,8.3c0.6,0,1.3-0.6,1.9-0.6c3.8-1.3,6.4-4.5,7.6-8.3l0,0
	C420.9,550.7,420.9,552,421.6,553.9 M371.3,540.5l-10.2,7.6l3.2,6.4l7.6-5.7l9.5,32.4c-2.5,0.6-5.1,1.9-7.6,3.2l1.3,4.5l21.6-6.4
	l-1.3-4.5c-1.9,0-4.5,0.6-6.4,1.3l-11.5-40.1L371.3,540.5z M350.9,506.8l-2.5,0.6l1.9,6.4l19.1-5.1l-1.9-6.4l-2.5,0.6
	c0,1.3,0,2.5,0.6,3.8l-4.5,1.3l-4.5-15.3l3.2-1.3l-0.6-1.9l-10.8,3.2l0.6,1.9l3.8-0.6l3.8,15.9l-4.5,1.3
	C352.2,509.4,351.6,508.1,350.9,506.8 M329.3,517.6c1.9,0,3.8,0,5.1-0.6c5.7-1.3,8.3-3.8,7.6-7.6c-1.3-7-12.1-2.5-12.7-7.6
	c-0.6-2.5,1.9-3.8,4.5-4.5c1.3,0,1.9,0,3.2,0c0,1.3,0.6,1.9,1.3,3.2l2.5-0.6l-1.3-5.7c-1.9,0-3.8,0-5.7,0c-5.1,0.6-8.9,3.8-8.3,8.3
	c1.3,7.6,12.1,3.2,12.7,7.6c0,1.9-1.3,3.2-3.8,3.8h-2.5c0-1.3-0.6-2.5-1.3-3.2H328L329.3,517.6z M329.3,550.1l-35.6,1.9v4.5
	c2.5,0.6,5.1,0.6,7.6,0.6l1.9,35c-2.5,0.6-5.1,0.6-7.6,1.9v4.5l35.6-1.9l-0.6-12.7h-5.7c-0.6,2.5-0.6,5.1-0.6,7.6l-12.7,0.6
	l-0.6-15.3l8.3-0.6c0,1.9,0.6,3.2,1.3,5.1h5.1l-0.6-15.3h-5.1c-0.6,0.6-0.6,2.5-0.6,4.5l-8.3,0.6l-0.6-14l12.7-0.6
	c0,2.5,0.6,4.5,1.9,7h5.7L329.3,550.1z M305.8,503c1.3,0,2.5-1.3,2.5-2.5l0,0c0-1.3-1.3-2.5-2.5-1.9c-1.3,0.6-2.5,1.3-1.9,2.5
	C303.2,501.7,304.5,502.4,305.8,503 M247.9,570.5c-2.5,11.5,4.5,22.3,15.3,24.8c1.3,0.6,3.2,0.6,4.5,0.6c4.5,0.6,9.5,0.6,14-0.6v-7
	c-3.8,1.3-7.6,1.3-11.5,1.3c-8.3,0-14.6-7-14-15.3c0-1.3,0-1.9,0.6-3.2c1.3-10.2,7-16.5,16.5-15.3c1.9,0,3.8,0.6,5.7,1.3
	c0,2.5,0,5.1,0,7.6l5.7,0.6l1.9-14c-3.8-1.3-7-2.5-10.8-2.5c-12.7-2.5-24.8,5.7-27.4,17.8C247.9,567.9,247.9,569.8,247.9,570.5
	 M268.2,499.2l7.6,0.6l-2.5,22.3c-1.3,0-2.5,0-3.8,0v1.9l10.8,1.3v-1.9c-1.3-0.6-2.5-0.6-3.8-1.3l2.5-22.3c1.3,0,2.5,0,3.8,0v-1.9
	L265,496l-0.6,7.6h2.5C267,501.7,267,500.5,268.2,499.2 M246,511.3l-0.6,1.9l10.8,2.5l0.6-1.9c-1.3-0.6-2.5-0.6-3.2-1.3l3.8-15.9
	c1.3,0,2.5,0,3.8,0l0.6-1.9l-10.2-2.5l-0.6,1.9c1.3,0.6,2.5,1.3,3.2,1.3l-3.8,15.9C249.1,511.3,247.9,511.3,246,511.3 M234.5,489
	c0.6,0.6,1.9,1.3,2.5,1.9l-3.2,8.9c-0.6,1.9-1.3,3.8-1.9,5.7l0,0c0-1.9-0.6-3.2-0.6-5.1l-3.8-14.6l-3.8-2.5l-6.4,17.8l-3.2-0.6
	l-0.6,1.9l9.5,3.2l0.6-1.9c-0.6-0.6-1.9-1.3-3.2-1.9l2.5-7.6c1.3-3.2,1.9-5.7,1.9-7.6l0,0c0,1.9,0.6,3.8,1.3,5.1l3.8,14.6l8.3,3.2
	l0.6-1.9c-1.3-0.6-1.9-1.3-3.2-1.9l5.7-15.3c1.3,0,2.5,0.6,3.8,0.6l0.6-1.9l-10.2-3.8L234.5,489z M183,469.9l-5.7,3.8l-3.2,2.5l0,0
	c0.6-1.3,0.6-2.5,1.3-3.8l1.9-7L183,469.9z M185.5,464.2c0.6,0.6,1.3,1.3,2.5,2.5l-2.5,1.9l-7.6-5.7l0.6-3.2
	c0.6,0.6,1.9,1.3,3.2,1.3l1.3-1.9l-8.3-5.7l-1.9,1.9c0.6,0.6,1.3,1.3,1.9,1.9l-4.5,20.4l3.8,2.5l17.2-11.5c0.6,0.6,1.3,0.6,2.5,1.3
	l1.3-1.9l-7.6-5.7L185.5,464.2z M205.9,477.6l2.5,1.3l-7.6,14l-3.2-0.6c-3.8-1.9-5.7-7-3.8-10.8C196.3,476.9,200.8,475,205.9,477.6
	C205.2,476.9,205.2,477.6,205.9,477.6 M191.2,478.8c-3.2,4.5-1.3,10.8,3.2,14c0.6,0.6,1.3,0.6,1.9,0.6l6.4,3.2l3.2,1.9l1.3-1.9
	c-0.6-0.6-1.9-1.3-3.2-1.9l7.6-14.6c1.3,0.6,2.5,0.6,3.2,1.3l1.3-1.9l-3.2-1.9c-1.3-0.6-3.2-1.9-5.7-3.2c-4.5-3.8-11.5-2.5-15.3,2.5
	C191.9,476.9,191.2,477.6,191.2,478.8 M179.2,567.3l-1.3,4.5l21.6,7.6l1.3-4.5c-1.9-1.3-3.8-2.5-6.4-3.2l6.4-18.5
	c1.9-4.5,2.5-8.3,3.2-11.5l0,0c0.6,3.2,1.3,7.6,1.9,10.8l8.3,31.8l10.2,3.8l12.7-38.2c1.9,0.6,4.5,0.6,6.4,0.6l1.3-4.5l-19.7-7
	l-1.3,3.8c1.9,1.3,3.8,2.5,6.4,3.2l-5.1,14.6c-2.5,6.4-3.8,12.1-4.5,15.3l0,0c-0.6-3.8-1.3-7.6-2.5-11.5l-7.6-31.2l-17.8-5.7
	l-1.3,4.5c1.9,1.9,4.5,3.2,7,4.5l-10.8,32.4C184.2,567.9,181.7,567.3,179.2,567.3 M146.1,547.5l-1.9,3.8l21,11.5l1.9-3.8
	c-1.9-1.9-3.8-3.2-6.4-4.5l17.2-30.5c2.5,1.3,5.1,1.9,7.6,2.5l1.9-3.8l-21-11.5l-1.9,3.8c1.9,1.9,3.8,3.2,6.4,4.5l-17.2,31.2
	C151.2,549.5,148.6,548.2,146.1,547.5 M148.6,456.6c-0.6-0.6-1.3-1.9-1.9-2.5l7.6-7.6c1.3-2.5,4.5-3.2,7-1.3c0.6,0,0.6,0.6,1.3,1.3
	c1.9,1.9,2.5,4.5,1.3,7c0,0.6-0.6,0.6-1.3,1.3l-7.6,7.6c-0.6-0.6-1.9-1.3-2.5-1.9l-1.3,1.3l7.6,7l1.3-1.3c-0.6-0.6-1.3-1.9-1.9-2.5
	l8.3-8.3c3.2-3.8,3.2-7.6-1.3-12.1c-2.5-3.8-8.3-4.5-11.5-1.3c-0.6,0.6-0.6,0.6-1.3,1.3l-8.3,7c-0.6-0.6-1.9-1.3-2.5-1.9l-1.3,1.9
	l7,6.4L148.6,456.6z M114.3,512.6l-8.3,10.2c2.5,3.2,5.7,5.7,8.3,8.3c8.9,7,19.1,7.6,24.8,0.6c9.5-12.1-12.7-22.9-6.4-30.5
	c2.5-3.2,7-3.2,12.1,0.6c1.3,1.3,2.5,2.5,3.8,3.8c-1.3,1.9-2.5,4.5-3.8,6.4l3.8,3.2l7.6-10.2c-2.5-3.2-5.1-5.7-8.3-7.6
	c-8.3-7.6-17.2-7.6-22.3-1.3c-9.5,12.1,12.7,22.9,6.4,30.5c-3.8,4.5-8.9,2.5-12.7,0c-1.9-1.3-3.2-3.2-4.5-4.5
	c1.3-1.9,2.5-3.8,3.8-6.4L114.3,512.6z M107.3,415.2l-1.9,1.3l5.7,8.3l1.9-1.3c-0.6-1.3-0.6-1.9-1.3-3.2c7.6-5.1,13.4-8.9,17.2-12.1
	c-1.3,1.9-1.9,3.8-3.2,6.4l-8.3,19.1l5.1,7.6l1.9-1.3c-0.6-1.3-1.3-2.5-1.9-3.2l18.5-12.7c0.6,0.6,1.9,1.9,2.5,2.5l1.9-1.3l-6.4-8.9
	l-1.9,1.3c0.6,1.3,0.6,1.9,1.3,3.2c-7.6,5.1-13.4,8.9-17.2,12.1c1.3-1.9,1.9-3.8,3.2-6.4l8.3-19.1l-3.2-4.5l-20.4,14.6
	C108.5,417.1,107.9,416.5,107.3,415.2 M140.3,168.3l-3.2-6.4c-0.6-1.3-1.3-2.5-1.9-3.2l0,0c1.3,0.6,2.5,1.3,3.8,1.3l6.4,2.5
	L140.3,168.3z M143.5,173.4l-1.3-2.5l6.4-7.6l3.2,1.3c-0.6,0.6-1.3,1.9-1.9,2.5l1.3,1.3l6.4-7.6l-1.9-1.3l-1.9,1.9l-19.1-7l-3.2,3.8
	l9.5,18.5c-0.6,0.6-0.6,1.3-1.3,1.9l1.3,1.3l6.4-7.6l-1.3-0.6C144.8,172.2,144.2,172.8,143.5,173.4 M151.2,141.6l10.8,11.5
	c-0.6,0.6-1.3,1.9-2.5,2.5l1.3,1.3l8.3-7l-1.3-1.3c-1.3,0.6-1.9,1.3-3.2,1.9l-10.8-12.1l3.8-3.2c0.6,0.6,1.9,1.3,3.2,2.5l1.9-1.9
	l-4.5-5.1l-14.6,13.4l4.5,5.1l1.9-1.9c-1.3-1.3-1.9-2.5-2.5-3.2L151.2,141.6z M167.1,127l9.5,13.4c-1.3,0.6-1.9,1.9-2.5,2.5l1.3,1.9
	l13.4-10.2l-3.2-5.1l-1.9,1.9c0.6,1.3,0.6,1.9,1.3,3.2l-5.1,3.8l-3.8-5.7l3.2-2.5c0.6,0.6,1.3,1.3,1.9,1.3l1.9-1.3l-4.5-5.7
	l-1.9,1.3c0,0.6,0.6,1.3,1.3,1.9l-3.2,2.5l-3.8-5.1l4.5-3.2l2.5,1.9l1.9-1.3l-3.2-4.5l-13.4,8.9l1.3,1.9
	C165.8,128.3,166.4,127.6,167.1,127 M111.1,206.5l-1.3,2.5l-6.4-3.2l1.3-2.5c1.3-2.5,3.2-3.8,5.1-2.5S112.3,203.3,111.1,206.5
	 M116.8,204h-2.5c1.3-2.5,0-5.7-2.5-7.6c-3.8-1.9-7,0-8.9,4.5c-1.3,2.5-2.5,5.1-3.2,6.4l-1.3,3.2l1.9,1.3c0.6-0.6,1.3-1.9,1.9-3.2
	l14.6,7.6c-0.6,1.3-0.6,2.5-1.3,3.8l1.9,0.6l4.5-8.9l-1.9-1.3c-0.6,0.6-1.3,1.3-1.9,2.5l-5.7-3.2l0.6-1.3l10.8-1.3l2.5-5.1l-1.9-1.3
	c-0.6,0.6-1.3,1.3-1.9,1.9L116.8,204z M106.6,225l-10.2-3.2c0-1.3,0.6-1.9,0.6-3.2l-1.9-0.6l-3.2,9.5l1.9,0.6
	c0.6-0.6,1.3-1.9,1.3-2.5l10.2,3.2c2.5,0.6,4.5,3.2,4.5,5.7c0,0.6,0,1.3-0.6,1.3c-0.6,2.5-3.2,4.5-5.7,3.8c-0.6,0-0.6,0-1.3-0.6
	L92,235.1c0-1.3,0.6-1.9,0.6-3.2l-2.5,0l-3.2,9.5l1.9,0.6c0.6-0.6,1.3-1.9,1.3-2.5l10.8,3.8c4.5,1.3,8.3-0.6,10.2-6.4
	c1.9-3.8,0.6-8.9-3.8-11.5C107.9,225,107.3,225,106.6,225 M88.2,352.2c0-1.3,0-2.5,0-3.8l15.9-3.2c0.6,1.3,0.6,2.5,1.3,3.2h1.9
	l-3.2-16.5l-5.7,1.3l0.6,2.5h3.2l1.3,5.7l-7.6,1.9l-0.6-3.8c0.6,0,1.3-0.6,1.9-1.3l-0.6-1.9l-7,1.3l0.6,2.5c0.6,0,1.3,0,2.5,0
	l0.6,3.8l-6.4,1.3l-1.3-5.7c1.3-0.6,1.9-0.6,3.2-1.3l-0.6-2.5l-5.7,1.3l3.2,15.9L88.2,352.2z M81.8,328h1.9c0-1.3,0-2.5,0-3.8
	l16.5-1.3c0,1.3,0.6,2.5,0.6,3.8h1.9l-1.9-17.2l-7,0.6v2.5c1.3,0,2.5,0.6,3.8,0.6l0.6,5.7l-15.9,1.3c0-1.3-0.6-2.5-0.6-3.8h-1.9
	L81.8,328z M76.1,289.2l22.3,1.9c0,1.3,0,2.5,0,3.8h2.5l1.9-17.8l-7.6-0.6v2.5c1.3,0.6,3.2,0.6,4.5,0.6l-0.6,7.6l-22.3-1.9
	c0-1.3,0-2.5,0-3.8h-2.5l-1.3,10.8h1.9C76.1,291.8,76.1,290.5,76.1,289.2 M86.9,258.7L86.9,258.7c1.3,0,2.5,0,3.8-0.6l7-1.3
	l-1.3,7.6l-6.4-3.8C88.8,260,88.2,259.3,86.9,258.7 M84.3,255.5l-0.6,4.5l17.2,11.5c0,0.6,0,1.9,0,2.5h1.9l1.9-8.9h-1.9
	c-0.6,1.3-0.6,1.9-1.3,3.2l-2.5-1.9l1.9-9.5l3.2-0.6c0,1.3,0,1.9,0,3.2l1.9,0.6l1.3-9.5l-1.9-0.6c-0.6,0.6-0.6,1.3-1.3,2.5
	L84.3,255.5z M109.2,384.7c3.2-1.9,8.3-0.6,10.2,2.5l0,0c1.9,3.8,0,7.6-4.5,9.5c-3.2,1.9-8.3,0.6-10.2-2.5l0,0
	C102.8,390.4,104.7,387.2,109.2,384.7 M102.2,395.5c2.5,5.7,8.9,7.6,14.6,5.1c0,0,0.6,0,0.6-0.6c5.1-1.9,7.6-7,6.4-12.1
	c0-0.6-0.6-1.3-0.6-1.9c-2.5-5.1-8.9-7.6-14.6-5.1c-0.6,0-0.6,0.6-1.3,0.6c-5.1,1.9-7.6,7-6.4,12.1
	C100.9,394.8,100.9,395.5,102.2,395.5 M95.2,363.7c2.5-0.6,3.8,0.6,5.1,3.8l0.6,1.9l-6.4,1.9c0-0.6-0.6-1.9-0.6-2.5
	C92.6,364.9,93.9,364.3,95.2,363.7 M104.1,359.8c1.9-0.6,3.8,0,5.1,3.8c0,0.6,0.6,1.9,0.6,2.5l-7,2.5c0-0.6-0.6-1.3-0.6-1.9
	C101.5,363.7,101.5,361.1,104.1,359.8 M93.3,375.8l1.3,3.2l1.9-0.6c0-1.3,0-2.5-0.6-3.8l15.3-5.1c0.6,1.3,1.3,2.5,1.9,3.2l1.9-0.6
	l-1.3-3.2c-0.6-2.5-1.3-5.1-1.9-6.4c-1.9-7-6.4-7.6-8.9-6.4c-2.5,0.6-3.8,3.2-3.2,5.7l0,0c-1.3-1.9-3.8-2.5-5.7-1.9
	c-3.2,1.3-4.5,3.8-2.5,8.9C91.3,371.3,92.6,373.8,93.3,375.8 M46.2,430.5l-10.8,6.4l17.8,30.5l3.8-2.5c-0.6-2.5-1.9-5.1-3.2-7.6
	l29.9-17.8c1.3,1.9,3.2,4.5,5.1,6.4l3.8-2.5l-17.8-30.5L64,419l3.2,5.1c2.5-0.6,4.5-1.9,6.4-2.5l6.4,10.8l-13.4,8.3l-4.5-7.6
	c1.3-0.6,2.5-1.9,3.8-3.2l-2.5-4.5L50,433l2.5,4.5c1.9,0,3.2-0.6,4.5-1.3l4.5,7.6l-12.1,7.6L43,440.7c1.3-1.3,3.8-2.5,5.1-4.5
	L46.2,430.5z M34.7,372.6c8.3-3.8,17.2,0,21,8.3c0.6,1.3,0.6,2.5,1.3,3.2c0.6,1.9,1.3,4.5,1.9,5.7l-32.4,10.8
	c-0.6-1.9-1.9-3.8-2.5-6.4c-3.8-7.6-1.3-16.5,6.4-20.4C31.5,373.2,32.8,372.6,34.7,372.6 M17.5,394.8c1.9,5.1,3.8,11.5,5.1,14.6
	l2.5,7.6l4.5-1.3c0-2.5-0.6-5.1-1.3-7.6l33.1-10.8c1.3,2.5,1.9,5.1,3.8,7.6l4.5-1.3l-2.5-7.6c-1.3-3.8-2.5-7.6-3.8-12.7
	c-5.1-14.6-15.9-23.5-31.2-18.5S13.1,380.8,17.5,394.8 M5.5,300H1l1.9,21h4.5c0.6-2.5,0.6-5.1,0.6-7.6l22.3-1.9
	c5.7-1.9,11.5,1.3,13.4,7c0.6,1.3,0.6,2.5,0.6,3.8c1.3,5.7-1.9,11.5-7.6,12.7c-1.3,0-2.5,0.6-3.2,0l-22.9,1.9
	c-0.6-2.5-1.3-4.5-1.9-7l-4.5,0.6l1.9,21l4.5-0.6c0.6-1.9,0.6-4.5,0.6-6.4l24.8-1.9c10.8-0.6,15.9-8.3,15.3-21
	C50,307,41.1,302,30.9,302.6l-23.5,3.2C7.4,303.9,6.7,302,5.5,300 M20.7,248.5l-13.4-1.9c-1.3,3.8-2.5,7-2.5,10.8
	c-2.5,12.7,5.7,24.2,17.8,26.7c1.3,0,2.5,0.6,3.8,0.6c11.5,2.5,22.3-4.5,24.8-15.9c0-1.3,0.6-3.2,0.6-4.5c0-4.5,0-8.9-1.3-13.4h-7
	c1.3,3.8,1.3,7.6,1.3,11.5c0,8.3-6.4,14.6-14.6,14.6c-1.3,0-2.5,0-3.8-0.6c-10.2-1.3-16.5-6.4-15.3-16.5c0-1.9,0.6-3.8,1.3-5.7
	c2.5,0,5.1,0,7.6,0L20.7,248.5z M46.8,207.8l-5.1,15.9l-12.1-9.5c-2.5-1.9-4.5-3.8-7-5.1h8.3L46.8,207.8z M62.1,198.2l-43.9,3.2
	L15,211l33.7,28c0,1.9-0.6,3.8-0.6,5.7l4.5,1.3l6.4-19.1l-4.5-1.3c-1.3,1.9-2.5,3.8-3.2,6.4l-5.7-4.5l6.4-19.7h7
	c-0.6,1.9-0.6,4.5-0.6,6.4l4.5,1.3l6.4-20.4l-4.5-1.3C64,195.1,63.4,196.3,62.1,198.2 M62.1,143.5l-12.7-7.6L29,173.4l12.7,7.6
	l2.5-5.1c-1.9-1.9-4.5-3.8-7-5.1l5.1-8.9l30.5,16.5c-1.3,2.5-1.9,5.1-2.5,7.6l3.8,1.9l11.5-21l-3.8-1.9c-1.9,1.9-3.2,3.8-4.5,6.4
	l-30.5-15.9l5.1-9.5c2.5,1.3,4.5,1.9,8.3,3.2L62.1,143.5z M93.9,153.7l22.9-27.4l-10.2-7.6l-3.8,4.5c1.3,1.9,3.2,3.8,4.5,5.7
	L99,139.1l-12.1-10.2l5.1-6.4c1.3,1.3,2.5,1.9,4.5,2.5l3.2-3.8l-11.5-9.5l-2.5,2.5c0.6,1.3,1.9,2.5,3.2,3.8l-5.1,6.4l-10.8-8.9
	l8.3-9.5l6.4,3.2l3.8-4.5l-9.5-8.3l-23.5,27.4l3.8,2.5c1.9-1.3,3.8-3.2,5.7-5.1l26.7,22.3c-1.3,1.9-3.2,4.5-3.8,6.4L93.9,153.7z
	 M125.1,175.3l-5.1-3.2l-9.5,14l1.9,1.3c0.6-0.6,1.9-1.9,2.5-2.5l13.4,8.9c-0.6,1.3-1.3,1.9-1.3,3.2l1.9,1.3l9.5-14l-5.1-3.2
	l-1.3,1.9l2.5,2.5l-3.2,5.1l-6.4-3.8l1.9-3.2c0.6,0.6,1.3,0.6,1.9,0.6l1.3-1.9l-5.7-4.5l-1.3,1.9c0.6,0.6,1.3,1.3,1.9,1.9l-1.9,3.2
	l-5.7-3.8l3.2-5.1l3.2,1.3L125.1,175.3z M123.2,106c-2.5,1.9-3.2,5.1-1.9,7.6c1.9,2.5,5.1,3.2,7.6,1.9c2.5-1.9,3.2-5.1,1.9-7.6
	l-0.6-0.6C128.3,105.3,125.1,104.7,123.2,106 M141,53.8c1.9-1.3,3.8-3.2,5.7-5.1l-2.5-3.2l-19.1,12.7l2.5,3.8
	c2.5-1.3,5.1-1.9,7.6-3.2L155,88.2c-1.9,1.9-3.8,3.2-5.7,5.1l2.5,3.8l19.7-13.4l-2.5-3.8c-2.5,0.6-5.1,1.9-7.6,3.2L141,53.8z
	 M223.1,58.9l-15.9-37.5c1.9-1.3,3.8-2.5,5.1-3.8l-1.3-3.8L191.2,22l1.9,4.5c2.5,0,5.1-0.6,7.6-1.3l6.4,14.6
	c2.5,6.4,5.1,11.5,6.4,14.6l0,0c-2.5-1.9-6.4-5.1-9.5-7.6l-26.7-18.5L160.1,36l1.9,4.5c1.9-1.9,4.5-2.5,7-3.2l13.4,32.4
	c-2.5,1.3-4.5,2.5-6.4,4.5l1.9,4.5l20.4-8.9l-1.9-4.5c-2.5,0-5.1,0.6-7.6,1.3l-7.6-18.5c-1.9-4.5-3.8-8.3-5.1-10.8l0,0
	c3.2,2.5,6.4,5.1,9.5,7l27.4,18.5L223.1,58.9z M221.8,89.4c1.3-0.6,1.9-1.3,3.2-1.9l-1.3-2.5l-8.3,3.8l1.3,18.5
	c0,1.9,0.6,3.8,0.6,5.7l0,0c-1.3-1.3-2.5-3.2-3.8-4.5l-12.1-13.4l-8.3,3.8l0.6,1.9l3.8-0.6l5.7,22.3c-0.6,0.6-1.3,0.6-1.9,1.3
	l0.6,1.9l8.9-3.8l-0.6-1.9c-1.3,0-1.9,0.6-3.2,0.6l-3.8-14c-0.6-2.5-1.3-5.1-1.9-7l0,0c1.3,1.9,2.5,3.2,3.8,4.5l13.4,14.6l3.2-1.3
	l-1.3-21c0-1.9-0.6-3.2-0.6-5.1l0,0c0.6,1.3,1.9,3.2,3.8,6.4l7.6,12.7c-1.3,0.6-1.9,1.3-2.5,1.9l0.6,1.9l8.9-3.8l-1.9-2.5
	c-0.6,0-1.9,0.6-2.5,0.6L221.8,89.4z M239.6,90.1l4.5,15.9c-1.3,0.6-2.5,0.6-3.2,1.3l0.6,1.9l15.9-4.5l-1.9-5.1l-2.5,0.6v3.2
	l-5.7,1.3l-1.9-7l3.8-1.3c0,0.6,0.6,1.3,1.3,1.9l2.5-0.6l-1.9-7l-2.5,0.6c0,0.6,0,1.3,0,2.5l-3.8,1.3l-1.3-6.4l5.7-1.3l1.3,3.2
	l2.5-0.6l-1.3-5.7l-15.9,5.1l0.6,1.9C237.1,91.3,238.3,91.3,239.6,90.1 M267.6,35.4c-2.5-14.6-26.1-6.4-27.4-15.9
	c-0.6-3.8,2.5-7,8.9-8.3c1.9,0,3.8-0.6,5.7-0.6c0.6,2.5,1.3,5.1,2.5,7.6l4.5-1.3L260,4.2c-3.8,0-7.6,0.6-11.5,1.3
	c-12.1,1.9-17.8,8.9-16.5,17.2c2.5,14.6,25.5,5.7,27.4,15.9c1.3,5.7-3.8,8.3-8.9,9.5c-1.9,0.6-4.5,0.6-6.4,0.6
	c-0.6-1.9-1.3-4.5-2.5-7l-5.1,0l2.5,12.7c3.8,0,8.3,0,12.1-0.6C261.9,51.9,269.5,44.9,267.6,35.4 M263.8,104.1l16.5-2.5l-0.6-5.7
	l-2.5,0.6v3.2l-5.7,0.6l-1.3-7.6L274,92c0,0.6,0.6,1.3,0.6,1.9l2.5-0.6l-1.3-7.6h-2.5c0,0.6,0,1.9,0,2.5l-3.8,0.6l-0.6-6.4l5.7,0
	c0,1.3,0.6,1.9,1.3,3.2l2.5-0.6l-0.6-5.7l-16.5,2.5v1.9c1.3,0,2.5,0,3.8,0l2.5,15.9l-3.8,1.3L263.8,104.1z M311.5,15.6
	c0,6.4-3.8,9.5-10.8,9.5c-1.9,0-3.2,0-5.1-0.6V7.4h5.1C308.3,7.4,311.5,10.5,311.5,15.6 M320.4,15c0-8.9-7-14-17.8-14h-22.3v4.5
	c2.5,0.6,5.1,1.3,7.6,1.3v35c-2.5,0-5.1,0.6-7.6,1.3v4.5h23.5V43c-2.5-0.6-5.1-1.3-7.6-1.3V30.3c1.3,0,3.2,0,4.5,0
	c12.1,0,19.7-6.4,19.7-15.9 M293,82.4v15.9c-1.3,0-2.5,0-3.8,0.6v1.9H300V99c-1.3,0-2.5-0.6-3.8-0.6l0.6-15.9h5.1
	c0,1.3,0,2.5,0.6,3.8h2.5v-7l-19.7,0.6v7h1.9c0-1.9,0.6-2.5,0.6-3.8L293,82.4z M321.7,82.4v-1.9l-10.8-0.6v1.9l3.8,0.6L313.4,99
	c-1.3,0-2.5,0-3.8,0v1.9l10.8,0.6v-1.9l-3.8-0.6l1.3-16.5C319.8,82.4,320.4,82.4,321.7,82.4 M322.3,219.2c0-0.6,0.6-1.3,0.6-1.9
	c3.2,1.3,6.4,1.3,9.5,0.6c1.9-0.6,3.2-0.6,5.1-1.3c0.6,0,1.3-0.6,1.3-0.6c5.7-4.5,8.9-11.5,8.3-19.1c3.2,1.3,6.4,1.9,9.5,1.3
	c5.1-1.3,9.5-4.5,11.5-8.9c1.3,3.8,4.5,7,7.6,9.5c3.2,1.9,7,2.5,10.8,1.9c-2.5,8.3,1.9,16.5,10.2,19.1c3.2,1.3,7,0.6,10.2-0.6
	c-2.5,6.4-1.3,13.4,2.5,18.5c3.8,3.2,9.5,4.5,14.6,3.2c-1.9,4.5-1.3,10.2,1.3,14c2.5,3.2,5.7,5.1,9.5,5.7c2.5,0.6,5.1,0.6,7.6,0
	c-1.3,4.5-0.6,8.9,0.6,13.4c1.3,3.8,4.5,6.4,8.3,8.3c2.5,0.6,5.1,1.3,7.6,1.3l0,0c-2.5,4.5-3.8,9.5-4.5,14.6c0,3.2,1.3,6.4,3.8,8.9
	c-4.5,3.8-7.6,8.9-8.9,14.6c-0.6,4.5,0,9.5,1.9,14c-3.8-0.6-8.3,0.6-12.1,2.5c-2.5,1.9-5.1,4.5-5.7,7.6c0,1.3,0,3.8,0.6,5.7
	c-3.2,0.6-6.4,1.3-9.5,2.5l0,0c-5.1,1.9-10.2,3.2-15.3,3.2c-8.3-0.6-16.5-3.2-23.5-8.9l-7.6-5.1l-1.3,9.5
	c-0.6,14.6-1.3,28.6-0.6,43.3l-6.4,1.3c-0.6-13.4,0-27.4,0.6-40.7l1.3-13.4l-10.2,8.9c-5.1,4.5-11.5,7.6-18.5,7.6
	c-2.5,0-4.5,0-7-0.6c-2.5-3.8-3.8-8.3-3.2-12.7c0.6-3.8,2.5-7,5.1-9.5c1.3-1.9,3.2-3.2,5.1-4.5l4.5-3.2l-5.1-1.9l0,0
	c-1.9-0.6-3.8-1.9-3.8-5.7c0.6-5.7,2.5-11.5,5.7-16.5l2.5-5.1l-5.7,1.3c-3.2,0.6-6.4,0.6-9.5-0.6c-2.5-0.6-3.8-2.5-5.1-5.1
	c-0.6-5.1-0.6-10.2,0.6-14.6l1.3-5.7l-5.1,1.9c-2.5,1.3-5.7,1.9-8.9,1.9c-2.5-0.6-4.5-1.9-5.7-3.8c-2.5-3.2-0.6-8.9,0.6-12.7
	c1.9-1.3,3.8-2.5,5.1-3.8l0.6-1.3c3.8-7-0.6-16.5-5.7-24.8C316.6,230.7,321.7,225.6,322.3,219.2 M317.9,212.9c0,1.3,0,3.2,0,4.5
	c-1.3,5.7-6.4,9.5-12.1,9.5l-5.1,0.6l2.5,3.8c7.6,10.2,10.2,18.5,7.6,22.9l0,0c-1.9,1.9-3.8,3.2-6.4,3.2c-3.8,0-7.6-0.6-10.8-2.5
	c-0.6-0.6-0.6-0.6-1.3-1.3c-2.5-3.2-2.5-8.3,0-15.3l1.9-5.1l-5.7,1.9c-7.6,2.5-12.7,1.9-15.9-0.6c-2.5-3.8-3.2-8.3-1.3-12.7l1.3-5.7
	l-5.1,2.5c-3.2,1.9-7,1.9-10.8,0.6c-4.5-1.9-7.6-5.7-8.9-10.8l-2.5-8.9l-2.5,8.9c-1.9,7-5.1,12.1-9.5,12.7c-3.2,0.6-7,0.6-10.2-1.3
	l-6.4-3.2l2.5,7c1.3,3.2,1.9,7,1.3,10.8c-0.6,2.5-1.9,3.8-3.8,5.1c-3.8,1.9-8.3,1.9-12.1,0c0-1.3-0.6-2.5-0.6-3.2
	c-1.3-3.2-2.5-5.7-4.5-8.3c4.5-1.3,7.6-3.8,10.2-7.6c2.5-5.1,3.2-11.5,0.6-16.5c3.8,0.6,7.6,0.6,11.5-1.3c4.5-1.9,7-6.4,7.6-11.5
	c0-1.9,0-3.2-0.6-5.1c3.2,1.9,7,2.5,10.2,2.5h2.5c3.8-0.6,7-2.5,9.5-5.7c1.9-3.2,3.2-6.4,3.2-10.2c3.2,1.9,7,1.9,10.8,1.3
	c5.1-1.3,9.5-4.5,12.1-8.9c1.3,3.8,4.5,7,7.6,9.5c3.2,1.9,7,2.5,10.8,1.9c-2.5,8.3,2.5,16.5,10.2,19.1c3.2,1.3,7,0.6,10.2-0.6
	C314,201.4,314.7,207.8,317.9,212.9 M204.6,252.3c0.6-1.9,1.3-4.5,1.9-6.4l0,0c4.5,1.3,9.5,1.3,14-1.3c3.2-1.9,5.7-5.1,7-8.9
	c0.6-2.5,0.6-5.7,0-8.9c3.2,0.6,6.4,0.6,8.9,0c4.5-1.9,8.3-5.7,10.2-10.2c1.9,3.2,4.5,5.7,8.3,7.6c3.2,1.3,7,1.3,10.2,0.6
	c-0.6,4.5,0.6,9.5,3.8,13.4c4.5,3.8,10.8,5.1,16.5,3.8c-0.6,2.5-0.6,5.7-0.6,8.3c0,2.5,1.3,5.1,3.2,7.6c1.3,1.9,3.2,3.2,5.1,3.8
	c3.2,1.3,7,1.9,10.2,1.9c-1.9,5.1-1.3,10.2,1.3,14.6c2.5,3.2,5.7,5.1,9.5,5.7c2.5,0.6,5.1,0,7.6-0.6c-0.6,4.5-0.6,8.9,0.6,12.7
	c1.3,3.8,4.5,6.4,8.3,8.3c2.5,0.6,5.1,1.3,7.6,1.3c-2.5,4.5-3.8,9.5-4.5,14.6c0,3.2,1.3,6.4,3.2,8.9l-1.3,1.3
	c-2.5,2.5-4.5,5.1-5.7,8.3c-0.6,1.9-1.3,3.2-1.9,5.1c-0.6,4.5,0,8.3,1.3,12.7c0,0.6,0.6,0.6,0.6,1.3c-3.2,0-6.4,0.6-8.9,1.3
	l-2.5,1.3c-2.5,1.9-5.1,4.5-5.7,7.6c-0.6,2.5-0.6,5.1,0.6,7.6c-3.2,0.6-6.4,1.3-9.5,2.5l0,0l-3.2,1.3c-1.9,0.6-3.8,1.3-5.7,1.9
	c-1.9,0.6-3.2,0.6-5.1,0.6h-2.5c-1.3,0-1.9,0-3.2,0c-7-0.6-13.4-3.2-19.1-6.4l-11.5-5.7l3.2,12.1c3.8,15.3,5.7,30.5,5.1,45.8h-6.4
	c0.6-16.5-1.9-33.7-6.4-49.6l-2.5-7.6l-6.4,5.7c-8.9,7-19.7,10.8-31.2,10.8c-5.1,0-9.5-1.3-14-3.2l0,0c-3.8-1.9-8.3-3.2-12.1-3.2
	h-3.8c1.9-3.8,2.5-8.3,1.3-12.7c-0.6-3.8-3.8-7.6-7.6-8.9c-3.8-1.9-7.6-2.5-11.5-3.2c1.3-1.3,1.9-3.2,2.5-4.5
	c2.5-7.6,0-15.3-6.4-20.4l1.9-1.3h0.6c3.2-2.5,5.7-6.4,5.7-10.8c0-5.1-2.5-10.8-5.7-14.6c4.5-1.9,7.6-4.5,10.2-8.9
	c2.5-5.1,3.2-10.2,1.3-15.9c5.7,0,10.8-2.5,14-7.6c1.9-3.8,2.5-7.6,1.9-11.5c3.2,0.6,7,0.6,10.2-0.6
	C200.1,258.7,203.3,255.5,204.6,252.3 M289.9,387.8c1.9,0,4.5-0.6,6.4-1.3c0,8.9,0.6,14,0.6,16.5l-6.4,1.3
	C289.9,393.6,290.5,402.5,289.9,387.8 M322.9,191.9l1.9-5.1l-5.7,1.9c-7.6,1.9-12.7,1.9-15.9-1.3c-2.5-3.8-3.2-9.5-1.3-14l1.3-5.1
	l-5.1,1.9c-3.2,1.3-7,1.3-10.8-0.6c-4.5-3.2-7-7.6-7.6-12.7l-1.9-9.5l-3.2,8.9c-3.2,7.6-7,11.5-10.8,12.1c-3.8,0.6-7.6-0.6-10.8-3.2
	l-5.1-3.8v6.4c0.6,3.8,0,8.3-1.9,12.1c-1.3,1.9-3.2,3.2-5.7,3.2c-5.1,0-10.8-1.3-14.6-5.1l-6.4-4.5l2.5,7.6c1.3,3.2,1.9,6.4,1.9,9.5
	s-1.3,5.7-3.8,7c-4.5,1.3-8.9,1.3-12.7-0.6l-6.4-2.5l3.2,6.4c3.2,5.1,3.8,10.8,1.9,16.5c-3.2,3.2-7,5.7-11.5,5.7l-7,0.6l5.7,4.5
	c3.2,2.5,5.7,5.7,7.6,9.5c0.6,1.9,0.6,3.2,1.3,5.1c0,1.9-0.6,4.5-1.3,6.4c-1.3,3.2-3.8,5.7-7.6,6.4c-2.5,0.6-5.7,0-7.6-1.3l-6.4-1.9
	l1.3,5.7c1.3,3.8,0.6,8.3-0.6,12.1c-1.9,3.2-5.1,4.5-8.9,4.5c-1.3,0-2.5,0-3.8,0l-4.5-1.3l1.9,4.5c2.5,4.5,2.5,10.2,0.6,14.6
	c-2.5,3.8-6.4,6.4-10.8,7.6l-5.1,1.3l3.2,3.8c3.8,3.8,6.4,8.3,7.6,14c0,2.5-1.3,4.5-3.2,6.4c-1.9,1.3-3.8,1.9-5.7,1.9l-5.7,1.9
	l4.5,3.2c5.1,3.8,10.8,9.5,8.3,16.5c-1.3,2.5-2.5,5.1-4.5,7l-4.5,4.5l5.7,0.6c5.1,0,10.2,1.3,14.6,2.5l0,0c2.5,0.6,3.8,2.5,4.5,5.1
	c0.6,4.5-0.6,8.3-3.2,12.1l-1.9,3.8l4.5,0.6l7.6,0.6h1.3c3.8,0.6,7,1.3,10.8,2.5c5.1,2.5,10.8,4.5,16.5,3.8c12.7,0,24.8-4.5,35-12.1
	c4.5,17.2,7,35,5.7,52.8l17.8,0.6c0.6-17.8-1.3-35.6-5.1-52.8c7,3.8,14,6.4,22.3,7.6c1.3,15.9,1.3,22.9,1.3,22.9l16.5-2.5
	c0,0-1.3-12.1-1.3-22.3c1.9-0.6,3.2-1.3,5.1-1.9c3.8-1.3,8.3-1.9,12.1-2.5l4.5-0.6l-1.9-3.8c-1.3-1.9-1.9-5.1-1.3-7.6
	c0.6-1.9,1.3-3.2,3.2-4.5c3.8-1.9,8.3-2.5,12.7-1.3h1.3c2.5,0.6,5.1,0.6,7.6,0.6c8.3,0,15.9-3.2,22.3-8.9
	c-1.3,15.9-1.3,31.8-0.6,47.1l17.8-2.5c-1.9-15.9-1.3-31.8,0.6-47.1c7.6,5.7,17.2,9.5,26.7,9.5c5.7,0,12.1-1.3,17.2-3.8
	c3.8-1.3,8.3-1.9,12.1-1.9l4.5-0.6l-1.9-3.8c-1.3-1.9-1.9-5.1-1.3-7.6c0.6-1.9,1.3-3.2,3.2-4.5c3.8-1.9,8.3-2.5,12.7-1.3l6.4,0.6
	L461,335c-3.2-4.5-4.5-9.5-3.8-14.6c1.3-5.7,5.1-10.8,10.2-14l4.5-3.2l-5.1-1.9c-1.9-0.6-3.8-1.9-3.8-6.4c0.6-5.7,2.5-11.5,5.7-15.9
	l2.5-5.1l-5.7,1.3c-3.2,0.6-6.4,0.6-9.5,0c-2.5-0.6-3.8-2.5-5.1-5.1c-1.3-5.1-0.6-10.2,0.6-14.6l1.3-5.7l-5.1,1.9
	c-4.5,2.5-7.6,2.5-10.8,2.5c-2.5-0.6-4.5-1.9-5.7-3.8c-2.5-3.8-0.6-10.2,1.3-13.4l2.5-5.7l-5.7,1.9c-4.5,1.9-10.2,1.9-14-1.3
	c-3.2-2.5-2.5-8.9,0-17.2l1.9-5.1l-5.7,1.9c-7.6,2.5-13.4,2.5-15.9-0.6c-2.5-3.8-3.2-9.5-1.3-14l1.3-5.1l-5.1,1.9
	c-3.8,1.3-7.6,1.3-10.8-0.6c-4.5-3.2-7-7.6-7.6-12.7l-1.9-9.5l-3.8,8.9c-3.2,7.6-6.4,11.5-10.8,12.1c-3.8,0.6-7-0.6-9.5-2.5
	l-5.1-3.8l1.3,6.4c1.3,7,0.6,15.9-5.7,19.1l-1.9,0.6c-3.8,1.3-7.6,0.6-11.5-1.9C319.8,206.5,319.8,200.8,322.9,191.9 M441.9,134
	c0.6,0.6,1.3,1.3,1.9,2.5l-8.9,6.4l-3.2,3.2l0,0c0.6-1.3,1.3-3.2,1.9-4.5l4.5-12.7l-3.2-2.5l-11.5,7c-1.3,0.6-2.5,1.9-3.8,3.2l0,0
	c0.6-1.3,1.3-3.2,1.9-4.5l3.8-10.2c0.6,0.6,1.9,1.3,2.5,1.3l1.3-1.9l-7.6-6.4l-0.6,1.9c0.6,0.6,1.3,1.3,1.9,1.9l-7.6,18.5l3.8,2.5
	l10.8-7.6l4.5-3.2l0,0c-0.6,1.3-1.3,3.2-1.9,4.5l-3.8,12.7l3.8,3.2l16.5-11.5c0.6,0.6,1.3,0.6,2.5,1.3l1.3-1.9l-7.6-5.7L441.9,134z
	 M394.2,118.1c-1.3,2.5-3.8,1.9-5.7,1.3c-0.6-0.6-1.9-1.3-2.5-1.9c0.6-1.3,0.6-1.9,1.3-3.2l-1.9-1.3l-2.5,5.7
	c1.3,1.3,3.2,1.9,4.5,3.2c4.5,2.5,9.5,1.9,11.5-1.9c3.2-6.4-8.3-9.5-5.7-13.4c0.6-1.9,2.5-1.9,5.7-0.6l1.9,1.3
	c-0.6,1.3-0.6,1.9-1.3,3.2l1.9,1.3l2.5-5.1c-1.3-1.3-3.2-1.9-4.5-2.5c-5.1-2.5-8.9-1.3-10.8,1.9
	C384.7,111.1,396.1,113.6,394.2,118.1 M329.9,100.3c-1.3,0-2.5,0-3.8,0l-0.6,2.5l10.2,1.9v-1.9c-1.3-0.6-1.9-0.6-3.2-1.3l1.9-8.9
	c0.6-2.5,0.6-3.8,0.6-5.7l0,0c0.6,1.9,1.3,3.2,1.9,5.1l5.7,14.6l5.1,1.3l3.8-18.5c1.3,0,1.9,0,3.2,0v-1.9L344.6,85v1.9
	c1.3,0.6,1.9,0.6,3.2,1.3l-1.9,7c-0.6,3.2-1.3,5.7-1.3,7.6l0,0c-0.6-1.3-1.3-3.8-1.9-5.1l-5.7-14l-8.3-1.9l-0.6,1.9
	c1.3,0.6,2.5,0.6,3.2,1.3L329.9,100.3z M357.9,11.8l0.6-4.5L335,3.5L334.4,8c2.5,1.3,5.1,1.9,7.6,2.5l-6.4,33.7c-2.5,0-5.1,0-7.6,0
	l-0.6,4.5l23.5,3.8l0.6-4.5c-2.5-1.3-5.1-1.9-7.6-2.5l5.7-34.4C352.2,11.8,354.8,11.8,357.9,11.8 M359.2,99.6
	c-1.9,5.1,0.6,11.5,5.7,13.4c0.6,0,1.3,0.6,1.9,0.6c2.5,0.6,5.1,1.3,7.6,1.3l2.5-7.6l2.5,0.6l0.6-1.9l-8.9-3.2l-0.6,1.9
	c0.6,0.6,1.9,1.3,3.2,1.3l-1.9,5.1c-1.3,0-2.5,0-3.8-0.6c-4.5-1.3-6.4-5.7-5.1-10.2c1.3-4.5,5.7-6.4,10.2-5.1c0,0,0,0,0.6,0
	c1.3,0.6,1.9,0.6,3.2,1.3c0,1.3-0.6,2.5-0.6,3.8l2.5,0.6l1.9-5.7c-1.9-1.3-3.8-1.9-5.7-2.5c-5.7-2.5-12.1,0-14.6,5.1
	C359.8,98.3,359.8,99,359.2,99.6 M400.6,32.8c-1.3,4.5-5.7,6.4-12.1,3.8l-5.1-1.9l5.1-14l5.1,1.9C399.3,24.5,401.8,27.7,400.6,32.8
	 M408.8,34.7c2.5-8.3-1.9-14-12.1-17.8c-5.7-1.9-12.1-3.8-14.6-5.1l-7.6-2.5l-1.3,4.5c2.5,1.3,5.1,2.5,7.6,3.8l-11.5,33.1
	c-2.5-0.6-5.1-1.3-7.6-1.3l-1.3,4.5l21,7.6l1.3-4.5c-1.9-1.3-3.8-1.9-5.7-3.2l4.5-13.4l3.2,1.3l5.1,22.9l11.5,3.8l1.3-4.5
	c-1.3-1.3-3.2-1.9-5.1-3.2l-3.2-12.7c-0.6-1.3-1.3-3.8-1.3-5.1C399.9,44.9,406.9,41.1,408.8,34.7 M456.6,60.2l6.4-10.8l-30.5-17.8
	l-2.5,3.8c1.9,1.9,3.8,3.2,6.4,5.1l-17.8,29.9c-2.5-1.3-5.1-1.9-7.6-3.2l-2.5,3.8l30.5,17.8l6.4-10.8l-5.1-2.5
	c-1.9,1.9-3.2,3.8-4.5,5.1l-10.8-6.4l7.6-13.4l7.6,4.5c-0.6,1.3-1.3,3.2-1.3,4.5l4.5,2.5l7.6-13.4L447,57c-1.3,1.3-2.5,2.5-3.2,3.8
	l-7.6-4.5l7.6-12.1l10.8,6.4c-0.6,1.9-1.9,4.5-2.5,6.4L456.6,60.2z M452.7,93.3c-1.9,2.5-1.3,5.7,1.3,7.6c2.5,1.9,5.7,1.3,7.6-1.3
	s1.3-5.7-1.3-7.6C457.8,90.1,454.7,90.7,452.7,93.3 M461.7,153.7l1.9-1.3l-7-8.3l-1.3,1.3c0.6,1.3,1.3,1.9,1.9,3.2l-12.1,11.5
	c-0.6-0.6-1.9-1.3-2.5-2.5l-2.5,1.3l7.6,8.3l1.3-1.3c-0.6-1.3-1.3-1.9-1.9-3.2l12.1-11.5L461.7,153.7 M474.4,176.6l5.7-4.5
	L468,156.2l-5.7,4.5l1.3,1.9c1.3-0.6,2.5-1.3,3.8-1.9l3.2,3.8l-12.7,9.5c-0.6-0.6-1.9-1.9-2.5-2.5l-1.9,1.3l7,8.9l1.9-1.3
	c-0.6-1.3-1.3-1.9-1.9-3.2l12.7-9.5l3.2,3.8c-1.3,0.6-1.9,1.9-2.5,2.5L474.4,176.6z M520.2,120l10.2-9.5c-1.9-3.2-3.8-6.4-6.4-9.5
	c-7.6-10.2-22.3-11.5-32.4-3.8c-0.6,0.6-1.9,1.3-2.5,2.5c-8.9,7-11.5,19.7-4.5,29.3c0.6,1.3,1.9,2.5,3.2,3.2
	c3.2,3.2,6.4,6.4,10.8,8.3l5.1-5.1c-3.8-1.3-7-3.8-9.5-6.4c-6.4-5.1-7-14.6-1.3-20.4c0.6-0.6,1.9-1.9,2.5-2.5
	c7.6-7,15.9-8.3,22.3-0.6c1.3,1.3,2.5,3.2,3.8,4.5c-1.3,1.9-3.2,3.8-5.1,6.4L520.2,120z M541.8,168.3c-6.4,5.1-15.3,4.5-20.4-1.9
	c-0.6-0.6-1.3-1.3-1.3-1.9c-4.5-7.6-1.3-15.9,7.6-21c6.4-5.1,15.3-4.5,20.4,1.9c0.6,0.6,1.3,1.3,1.3,1.9
	C553.9,155,550.7,163.2,541.8,168.3 M555.8,144.8c-6.4-10.8-20.4-14.6-31.8-8.3c-0.6,0-1.3,0.6-1.3,1.3
	c-12.7,7.6-15.9,19.1-8.9,31.2c6.4,10.8,20.4,15.3,31.8,8.9c0.6-0.6,1.3-0.6,1.9-1.3C559.6,169,563.5,156.9,555.8,144.8
	 M594.6,311.5h4.5l-1.3-21h-4.5c-0.6,1.9-0.6,4.5-0.6,7l-15.9,0.6c-5.1,0-10.2,0.6-15.9,1.3l0,0c3.2-1.9,7-4.5,9.5-6.4l26.7-18.5
	l-0.6-18.5h-4.5c-0.6,2.5-0.6,5.1-0.6,7.6l-35,1.3c-0.6-2.5-0.6-5.1-1.9-7.6h-5.1l1.3,22.3h4.5c0.6-2.5,0.6-5.1,1.3-7.6l19.7-1.3
	c3.8,0,8.3-0.6,12.1-1.3l0,0c-3.2,1.9-6.4,3.8-9.5,5.7L552,294.3l0.6,10.8l40.7-1.9c0,1.9,0.6,4.5,1.3,6.4"/>
</svg>
