<?xml version="1.0" encoding="utf-8"?>
<!-- Generator: Adobe Illustrator 25.1.0, SVG Export Plug-In . SVG Version: 6.00 Build 0)  -->
<svg version="1.1" id="Layer_1" xmlns="http://www.w3.org/2000/svg" xmlns:xlink="http://www.w3.org/1999/xlink" x="0px" y="0px"
	 viewBox="0 0 600 600" style="enable-background:new 0 0 600 600;" xml:space="preserve">
<g transform="translate(0.000000,300.000000) scale(0.100000,-0.100000)">
	<path d="M2698.6,2966.3C1598.5,2876.6,602,2107.3,197.4,1041C6.1,530.8-33.8-162.7,97.7-708.8
		c233.2-956.6,930.7-1741.9,1859.5-2094.7c510.2-191.3,1203.8-231.2,1749.9-99.7c956.6,233.2,1741.9,930.7,2094.7,1859.5
		c191.3,510.2,231.2,1203.8,99.7,1749.9c-302.9,1243.6-1367.2,2156.4-2634.8,2262.1C3003.5,2990.2,2973.6,2990.2,2698.6,2966.3z
		 M3567.6,2848.7c902.8-189.3,1644.2-765.3,2042.8-1584.4c113.6-233.2,183.4-436.5,243.1-715.5c61.8-287,61.8-813.1,0-1100.1
		c-63.8-297-131.5-490.3-263.1-755.4c-705.5-1415-2437.4-2001-3856.5-1305.4C902.9-2205.6,346.9-1482.1,145.6-551.4
		c-61.8,287-61.8,811.2,0,1100.1C344.9,1479.5,906.9,2208.9,1734,2611.5c304.9,147.5,572,223.2,996.5,285
		C2874,2916.5,3376.2,2888.6,3567.6,2848.7z"/>
	<path d="M2620.9,2599.6c-556-83.7-1076.2-346.8-1474.8-747.4C641.8,1350,380.7,718.2,380.7,8.7c0-446.4,69.8-747.4,269.1-1159.9
		c135.5-277,302.9-504.2,542.1-737.4c163.4-157.4,446.4-384.7,480.3-384.7c4,0,14,14,19.9,31.9c8,19.9-15.9,63.8-67.8,121.6
		c-135.5,153.5-189.3,289-189.3,474.3c0,129.5,8,177.4,47.8,255.1c27.9,51.8,53.8,93.7,57.8,93.7c23.9,0,273-235.2,304.9-289
		c21.9-33.9,37.9-97.7,37.9-143.5c0-73.7-14-99.7-99.7-195.3c-111.6-123.6-121.6-171.4-49.8-235.2c49.8-43.8,77.7-71.7,173.4-171.4
		c29.9-31.9,79.7-63.8,109.6-69.8c31.9-8,97.7-35.9,149.5-61.8c67.8-35.9,125.6-49.8,209.3-47.8c410.6,2,1425-19.9,1498.7-31.9
		c85.7-15.9,87.7-14,75.7,31.9c-6,25.9-33.9,101.6-61.8,167.4c-41.9,99.7-49.8,149.5-49.8,289c2,273,0,269.1,199.3,273
		c277,4,506.2,109.6,568,259.1c17.9,41.9,27.9,119.6,23.9,215.2c-6,139.5-2,149.5,53.8,209.3c47.8,49.8,53.8,67.8,37.9,95.7
		c-15.9,23.9-15.9,43.8-2,67.8c15.9,21.9,12,59.8-12,135.5c-43.8,135.5-25.9,165.4,135.5,219.2c99.7,33.9,137.5,55.8,159.4,99.7
		c35.9,67.8,27.9,89.7-139.5,458.4c-83.7,179.4-119.6,285-129.5,378.7c-8,71.7-39.9,185.3-69.8,255.1
		c-47.8,109.6-51.8,131.5-29.9,173.4c14,27.9,19.9,69.8,12,103.6c-17.9,75.7-17.9,91.7-4,125.6c8,19.9-25.9,81.7-97.7,175.4
		c-109.6,139.5-111.6,143.5-77.7,193.3c27.9,41.9,27.9,59.8,8,109.6c-43.8,107.6-105.6,117.6-225.2,33.9
		c-29.9-19.9-69.8-31.9-87.7-25.9c-27.9,12-27.9,15.9,4,51.8c55.8,61.8,17.9,85.7-117.6,75.7c-167.4-14-169.4-12-139.5,103.6
		c19.9,77.7,63.8,141.5,211.3,308.9c101.6,117.6,187.3,219.2,191.3,227.2c6,19.9-265.1,147.5-454.4,211.3
		C3479.9,2609.5,2997.6,2655.4,2620.9,2599.6z M3268.6,2527.8c285-33.9,566-111.6,813.1-227.2l115.6-53.8l-95.7-101.6
		c-53.8-57.8-121.6-133.5-151.5-171.4l-55.8-65.8l-93.7,39.9c-291,125.6-691.6,183.4-1010.5,145.5
		c-512.2-59.8-932.7-259.1-1279.5-611.9C1179.9,1148.7,986.6,762,914.9,291.7c-63.8-410.6,14-878.9,209.3-1265.6
		c53.8-105.6,227.2-358.7,263.1-382.7c10-6,4-47.8-12-89.7c-51.8-147.5-35.9-295,59.8-538.1c23.9-61.8-338.8,302.9-456.4,458.4
		C221.3-525.5,295,819.8,1156,1748.6C1678.2,2310.6,2511.3,2619.5,3268.6,2527.8z M3414.1,1979.7
		c163.4-33.9,422.5-123.6,422.5-147.5c0-8-23.9-23.9-51.8-37.9c-41.9-17.9-77.7-14-205.3,25.9c-544.1,171.4-1140,91.7-1622.3-219.2
		c-187.3-119.6-460.4-396.6-576-585.9c-105.6-171.4-199.3-390.6-249.1-589.9c-51.8-213.3-47.8-661.7,10-894.9
		c47.8-189.3,173.4-470.3,287-639.8c55.8-81.7,63.8-109.6,49.8-143.5c-12-23.9-25.9-43.8-33.9-43.8c-19.9,0-189.3,255.1-257.1,392.6
		c-326.9,645.7-273,1431,137.5,2040.8c111.6,163.4,372.7,424.5,536.1,536.1C2319.9,1979.7,2876,2091.4,3414.1,1979.7z
		 M3248.7,1810.3c117.6-15.9,408.6-89.7,408.6-103.6c0-2-27.9-57.8-59.8-123.6c-55.8-111.6-59.8-115.6-53.8-49.8
		c6,97.7-39.9,97.7-151.5-2c-119.6-103.6-135.5-133.5-173.4-324.9c-17.9-87.7-41.9-161.4-55.8-167.4c-15.9-4-14,14,6,63.8
		c29.9,71.7,41.9,271,15.9,271c-10,0-43.8-17.9-77.7-37.9c-75.7-45.8-153.5-147.5-185.3-239.2c-25.9-79.7-29.9-289-4-273
		c10,6,21.9,0,27.9-15.9c6-15.9-4-31.9-21.9-37.9c-17.9-6-49.8-15.9-67.8-23.9c-33.9-14-33.9-10-6,57.8c31.9,77.7,39.9,245.1,12,289
		c-14,23.9-27.9,19.9-71.7-14c-107.6-83.7-189.3-223.2-191.3-326.9v-65.8l-35.9,77.7l-33.9,77.7l-93.7-103.6
		c-85.7-97.7-131.5-195.3-135.5-291c0-37.9-2-37.9-17.9,2c-27.9,71.7-53.8,71.7-119.6-6c-81.7-93.7-119.6-181.4-119.6-289l-2-85.7
		l-29.9,55.8c-37.9,69.8-55.8,67.8-115.6-12c-71.7-93.7-115.6-229.2-103.6-312.9l10-69.8l-41.9,55.8l-39.9,55.8l-47.8-63.8
		c-69.8-95.7-113.6-225.2-103.6-314.9c8-89.7,2-97.7-33.9-47.8c-14,17.9-33.9,25.9-47.8,17.9c-27.9-17.9-101.6-159.4-101.6-199.3
		c0-77.7-41.9-37.9-87.7,81.7c-91.7,245.1-119.6,394.6-119.6,683.6c0,215.2,8,302.9,43.8,438.5
		c215.2,815.1,926.7,1379.2,1757.8,1393.1C3051.4,1830.3,3170.9,1822.3,3248.7,1810.3z M3866.5,1738.6
		c-25.9-107.6-73.7-183.4-169.4-273c-121.6-113.6-145.5-115.6-109.6-14c45.8,133.5,85.7,195.3,173.4,269.1
		C3860.5,1806.4,3884.4,1810.3,3866.5,1738.6z M4135.6,1577.2c0-61.8-215.2-175.4-372.7-197.3l-95.7-12l39.9,45.8
		c57.8,63.8,143.5,121.6,227.2,151.5C4016,1595.1,4135.6,1601.1,4135.6,1577.2z M3469.9,1387.8c-51.8-107.6-201.3-271-225.2-247.1
		c-6,8,4,65.8,21.9,129.5c27.9,85.7,61.8,137.5,137.5,213.3c95.7,93.7,103.6,97.7,109.6,53.8
		C3517.7,1511.4,3497.8,1443.6,3469.9,1387.8z M4410.6,1489.5c35.9-35.9,29.9-85.7-15.9-125.6c-43.8-39.9-59.8-14,173.4-275
		c59.8-63.8,49.8-107.6-27.9-123.6c-229.2-47.8-406.6-105.6-603.9-203.3c-205.3-99.7-247.1-129.5-400.6-285
		C3430,369.4,3294.5,196,3180.9,26.6c-249.1-370.7-235.2-356.7-293-300.9c-25.9,23.9-47.8,49.8-47.8,59.8
		c0,19.9,149.5,259.1,247.1,392.6c233.2,316.9,562,695.6,831.1,952.7c147.5,141.5,434.5,380.7,458.4,382.7
		C4382.7,1513.4,4396.6,1503.4,4410.6,1489.5z M4139.6,1443.6c4-6-145.5-165.4-332.8-352.8c-374.7-378.7-605.9-657.7-853-1026.4
		c-131.5-195.3-173.4-243.1-209.3-245.1c-97.7,0-179.4-59.8-233.2-165.4c-55.8-113.6-61.8-205.3-19.9-320.9
		c25.9-75.7,25.9-75.7-53.8-163.4c-59.8-63.8-71.7-87.7-47.8-87.7c19.9,0,61.8,27.9,95.7,59.8c59.8,59.8,95.7,75.7,95.7,41.9
		c0-29.9-177.4-177.4-306.9-257.1c-77.7-47.8-107.6-75.7-85.7-79.7c47.8-10,243.1,93.7,342.8,181.4c47.8,39.9,91.7,73.7,97.7,73.7
		c29.9,0,57.8-101.6,53.8-201.3c-2-63.8,15.9-213.3,37.9-332.8c47.8-249.1,39.9-291-61.8-310.9c-33.9-6-129.5-12-211.3-12
		c-143.5,0-316.9-29.9-352.8-59.8c-35.9-33.9,8-57.8,63.8-35.9c29.9,12,173.4,27.9,320.9,33.9c261.1,12,267.1,14,306.9,65.8
		c39.9,53.8,39.9,57.8,6,259.1c-19.9,113.6-39.9,253.1-45.8,310.9l-12,105.6l53.8-23.9c29.9-14,57.8-45.8,63.8-75.7
		c6-27.9,27.9-105.6,49.8-171.4c85.7-277,97.7-510.2,23.9-570c-25.9-21.9-139.5-27.9-518.2-27.9c-476.3,0-486.3,0-474.3,39.9
		c49.8,157.4,49.8,191.3,10,285c-25.9,59.8-95.7,149.5-193.3,243.1L1598.5-1227l111.6,12c59.8,6,139.5,29.9,177.4,51.8
		c77.7,45.8,195.3,193.3,195.3,247.1c0,61.8-221.2,53.8-350.8-12c-53.8-27.9-97.7-49.8-97.7-49.8s0,47.8,0,107.6
		c0,83.7,6,103.6,25.9,87.7c12-12,23.9-33.9,23.9-47.8c0-19.9,29.9-27.9,115.6-27.9c201.3,0,380.7,121.6,432.5,295
		c12,39.9,6,43.8-73.7,43.8l-85.7,2l73.7,25.9c41.9,15.9,97.7,41.9,123.6,59.8c61.8,39.9,145.5,149.5,155.5,201.3
		c4,33.9-8,41.9-73.7,49.8c-77.7,10-79.7,10-19.9,23.9c83.7,17.9,189.3,93.7,243.1,173.4c77.7,115.6,65.8,127.6-97.7,117.6
		c-79.7-6-161.4-17.9-181.4-25.9c-29.9-12-31.9-8-14,39.9c10,27.9,19.9,81.7,19.9,115.6c2,53.8,4,57.8,21.9,27.9
		c12-19.9,15.9-59.8,8-87.7l-12-51.8l137.5,10c221.2,15.9,386.6,119.6,432.5,271c12,39.9,6,43.8-53.8,45.8c-39.9,2-49.8,6-25.9,12
		c149.5,33.9,197.3,53.8,261.1,109.6c83.7,73.7,141.5,175.4,109.6,193.3c-12,8,15.9,23.9,63.8,35.9
		c103.6,29.9,217.2,121.6,259.1,211.3c23.9,47.8,53.8,73.7,107.6,89.7c79.7,25.9,155.5,83.7,209.3,161.4
		C3872.5,1365.9,4105.7,1477.5,4139.6,1443.6z M3796.8,1332c0-71.7-269.1-217.2-402.6-217.2h-63.8l69.8,71.7
		c89.7,93.7,165.4,133.5,287,149.5c55.8,6,101.6,14,105.6,15.9C3794.8,1351.9,3796.8,1344,3796.8,1332z M3169,1294.2
		c25.9-43.8-49.8-233.2-131.5-324.9c-101.6-117.6-125.6-119.6-107.6-8c19.9,119.6,55.8,195.3,129.5,279
		C3125.1,1318.1,3149,1328,3169,1294.2z M3457.9,1047c0-73.7-189.3-181.4-392.6-221.2c-85.7-17.9-83.7,6,10,93.7
		c87.7,83.7,147.5,117.6,243.1,137.5C3430,1078.9,3457.9,1076.9,3457.9,1047z M2822.2,835.8c-12-39.9-53.8-109.6-93.7-157.4
		c-59.8-67.8-77.7-79.7-91.7-55.8c-41.9,77.7,67.8,358.7,161.4,412.6c25.9,14,33.9,4,37.9-55.8
		C2840.1,939.4,2834.1,873.6,2822.2,835.8z M4520.2,825.8c-14-37.9-109.6-89.7-165.4-89.7c-69.8,0-43.8,85.7,29.9,101.6
		C4496.3,861.7,4534.2,857.7,4520.2,825.8z M4235.2,764c0-57.8-125.6-167.4-205.3-181.4l-75.7-12l14,77.7c6,41.9,14,79.7,15.9,79.7
		c12,14,225.2,79.7,237.2,73.7C4229.2,797.9,4235.2,780,4235.2,764z M2541.2,652.4c0-109.6-43.8-225.2-117.6-314.9
		c-35.9-41.9-43.8-45.8-61.8-19.9c-47.8,71.7-6,265.1,81.7,376.7C2515.2,783.9,2541.2,774,2541.2,652.4z M3139.1,738.1
		c0-41.9-165.4-161.4-261.1-189.3c-113.6-33.9-197.3-41.9-197.3-15.9c0,29.9,149.5,161.4,219.2,191.3
		C2975.6,758,3139.1,766,3139.1,738.1z M4621.9,572.7c39.9-101.6,71.7-219.2,71.7-261.1c0-49.8,39.9-165.4,111.6-328.8
		c167.4-378.7,181.4-416.5,155.5-456.4c-12-19.9-73.7-55.8-137.5-79.7c-187.3-71.7-203.3-97.7-159.4-239.2c10-33.9,6-45.8-14-45.8
		c-15.9,0-65.8-31.9-109.6-69.8c-47.8-39.9-103.6-69.8-133.5-69.8c-27.9,0-51.8-8-51.8-19.9c0-43.8,101.6-15.9,179.4,49.8
		c111.6,91.7,209.3,97.7,125.6,6c-29.9-33.9-29.9-37.9,4-63.8c79.7-57.8-21.9-89.7-133.5-41.9c-21.9,8-35.9,6-35.9-8
		c0-12,27.9-27.9,59.8-33.9c57.8-12,79.7-53.8,39.9-77.7c-10-6-19.9-81.7-19.9-167.4c0-127.6-8-165.4-41.9-209.3
		c-45.8-59.8-191.3-139.5-293-161.4c-131.5-27.9-338.8-14-474.3,29.9c-171.4,57.8-442.4,239.2-651.7,438.5
		c-153.5,145.5-165.4,161.4-157.4,223.2l10,65.8l-51.8-53.8c-27.9-31.9-57.8-55.8-63.8-55.8c-39.9,0-95.7,51.8-131.5,125.6
		c-23.9,45.8-67.8,113.6-99.7,147.5c-173.4,199.3-101.6,544.1,113.6,550.1c93.7,2,171.4-79.7,207.3-221.2
		c29.9-109.6,59.8-129.5,163.4-109.6c43.8,8,65.8,2,87.7-29.9c39.9-57.8,147.5-89.7,215.2-63.8c59.8,21.9,129.5,153.5,131.5,243.1
		c0,27.9,21.9,79.7,49.8,111.6c109.6,131.5,135.5,279,71.7,402.6c-33.9,61.8-33.9,75.7-10,123.6c15.9,29.9,49.8,57.8,83.7,65.8
		c59.8,12,141.5,85.7,179.4,161.4c15.9,29.9,47.8,45.8,103.6,53.8c91.7,12,213.3,85.7,231.2,139.5c8,23.9,31.9,33.9,83.7,33.9
		c39.9,0,101.6,17.9,133.5,37.9c33.9,21.9,65.8,39.9,71.7,39.9C4542.1,756,4582,672.3,4621.9,572.7z M2614.9,556.7
		c6-15.9,10-37.9,8-45.8c0-8,12-19.9,29.9-27.9c21.9-8,10-19.9-45.8-37.9c-41.9-15.9-77.7-27.9-79.7-27.9c-2,0,10,31.9,25.9,69.8
		c14,37.9,29.9,93.7,29.9,123.6c2,39.9,6,43.8,12,15.9C2599,604.6,2608.9,572.7,2614.9,556.7z M3868.5,524.9
		c-19.9-75.7-129.5-187.3-183.4-187.3c-31.9,0-55.8-15.9-71.7-49.8c-12-25.9-37.9-53.8-59.8-59.8c-47.8-15.9-115.6,6-115.6,39.9
		c0,35.9,239.2,255.1,340.8,312.9C3872.5,632.5,3892.4,620.5,3868.5,524.9z M2260.1,385.3c27.9-101.6-6-245.1-81.7-350.8
		c-55.8-75.7-63.8-79.7-77.7-45.8c-21.9,59.8-19.9,219.2,4,283c19.9,53.8,111.6,185.3,127.6,185.3
		C2236.2,457.1,2250.2,425.2,2260.1,385.3z M2840.1,417.2c0-10-29.9-49.8-67.8-87.7c-77.7-75.7-237.2-137.5-334.8-127.6l-63.8,6
		l67.8,77.7c37.9,43.8,105.6,93.7,149.5,113.6C2674.7,439.2,2840.1,451.1,2840.1,417.2z M3438,100.3c33.9-65.8,21.9-99.7-67.8-197.3
		c-89.7-95.7-147.5-203.3-111.6-203.3c10,0,29.9,14,43.8,31.9s67.8,71.7,121.6,121.6c83.7,81.7,93.7,101.6,93.7,177.4
		c0,111.6,47.8,119.6,91.7,15.9c39.9-95.7,21.9-163.4-73.7-285c-65.8-83.7-81.7-117.6-85.7-199.3c-2-53.8-15.9-113.6-31.9-131.5
		c-37.9-45.8-131.5-25.9-191.3,41.9c-33.9,35.9-59.8,45.8-87.7,37.9c-47.8-14-49.8,4-8,59.8c19.9,25.9,27.9,79.7,25.9,163.4
		c-4,137.5,12,171.4,147.5,318.9C3394.2,148.2,3408.1,154.2,3438,100.3z M2001.1,56.5c35.9-103.6,25.9-203.3-31.9-316.9
		c-31.9-57.8-63.8-107.6-75.7-107.6c-33.9-4-73.7,151.5-59.8,237.2c12,83.7,97.7,249.1,127.6,249.1
		C1971.2,118.3,1989.1,90.4,2001.1,56.5z M2571.1,98.3c6-10-27.9-57.8-73.7-105.6c-93.7-93.7-217.2-141.5-336.8-129.5l-67.8,6
		l85.7,93.7c81.7,87.7,143.5,121.6,263.1,141.5C2531.2,120.3,2559.1,118.3,2571.1,98.3z M2184.4-202.6c-47.8-8-99.7-27.9-113.6-39.9
		c-35.9-29.9-53.8-14-35.9,29.9c10,23.9,37.9,31.9,125.6,29.9l111.6-2L2184.4-202.6z M2381.7-240.5c0-39.9-131.5-167.4-209.3-201.3
		c-43.8-19.9-123.6-37.9-175.4-37.9h-95.7l55.8,77.7c83.7,117.6,197.3,175.4,350.8,179.4C2347.8-220.5,2381.7-228.5,2381.7-240.5z
		 M1775.8-332.1c29.9-79.7,31.9-107.6,12-201.3c-12-59.8-39.9-137.5-61.8-169.4l-37.9-61.8l-33.9,53.8
		c-69.8,105.6-57.8,297,25.9,426.5C1722-220.5,1736-228.5,1775.8-332.1z M3069.3-431.8c-35.9-55.8-59.8-61.8-77.7-14
		c-8,19.9,8,63.8,41.9,113.6l55.8,81.7l6-65.8C3099.2-354.1,3087.2-403.9,3069.3-431.8z M1875.5-471.7c-12-41.9-4-45.8,65.8-51.8
		l77.7-6l-93.7-29.9l-93.7-29.9v101.6c2,83.7,8,99.7,27.9,81.7C1875.5-417.8,1881.5-445.7,1875.5-471.7z M2182.4-571.3
		c0-37.9-89.7-151.5-149.5-187.3c-73.7-45.8-253.1-81.7-289-59.8c-53.8,33.9,107.6,203.3,219.2,235.2
		C2042.9-559.3,2182.4-553.4,2182.4-571.3z M1564.6-698.9c23.9-45.8,39.9-115.6,39.9-173.4c0-99.7-61.8-265.1-97.7-265.1
		c-23.9,0-77.7,97.7-103.6,183.4c-21.9,81.7,53.8,334.8,101.6,334.8C1514.8-619.1,1542.7-655,1564.6-698.9z M2015-973.9
		c-63.8-123.6-207.3-203.3-360.7-203.3h-91.7l43.8,79.7c57.8,101.6,149.5,159.4,283,177.4C2030.9-900.2,2048.9-908.1,2015-973.9z
		 M3089.2-1290.8c245.1-233.2,472.3-386.6,679.6-458.4l63.8-21.9l-37.9-157.4c-45.8-189.3-45.8-227.2-6-364.7
		c57.8-205.3,57.8-207.3,19.9-193.3c-107.6,41.9-320.9,53.8-629.8,37.9c-181.4-10-330.8-17.9-334.8-14c-2,2,2,37.9,12,79.7
		c12,65.8,25.9,79.7,77.7,93.7c117.6,29.9,161.4,167.4,95.7,297c-23.9,45.8-25.9,67.8-8,101.6c33.9,63.8,10,316.9-49.8,512.2
		c-45.8,147.5-63.8,241.2-45.8,241.2C2927.8-1137.3,3001.5-1207.1,3089.2-1290.8z M2577-2014.2c31.9,0,43.8-12,43.8-41.9
		c0-73.7,59.8-171.4,129.5-209.3c79.7-41.9,79.7-87.7-2-161.4c-39.9-35.9-73.7-45.8-157.4-45.8c-93.7,0-113.6,6-141.5,49.8
		c-59.8,89.7-81.7,185.3-67.8,291c14,107.6,45.8,143.5,109.6,127.6C2513.3-2008.3,2551.1-2014.2,2577-2014.2z M1851.6-2090
		c-17.9-69.8-17.9-69.8-65.8-53.8c-53.8,15.9-53.8,59.8,2,97.7C1843.6-2006.3,1867.5-2024.2,1851.6-2090z M2308-2068.1
		c-21.9-85.7-15.9-271,12-322.9c33.9-61.8,4-89.7-65.8-61.8c-69.8,25.9-111.6,127.6-111.6,267.1c0,153.5,10,171.4,101.6,171.4
		C2319.9-2014.2,2321.9-2016.2,2308-2068.1z M2975.6-2092c8-77.7-41.9-141.5-109.6-141.5c-61.8,0-145.5,83.7-145.5,147.5
		c0,45.8,8,49.8,105.6,57.8C2969.7-2020.2,2969.7-2018.2,2975.6-2092z M2072.8-2193.6c0-131.5-6-159.4-31.9-159.4
		c-107.6,0-181.4,279-79.7,304.9C2068.8-2018.2,2072.8-2024.2,2072.8-2193.6z"/>
	<path d="M3029.4,2396.3c-6-51.8-14-125.6-19.9-159.4c-6-53.8,0-65.8,31.9-65.8c31.9,0,37.9,15.9,41.9,109.6c2,59.8,4,129.5,4,153.5
		c2,23.9-8,45.8-21.9,49.8C3051.4,2490,3037.4,2458.1,3029.4,2396.3z"/>
	<path d="M2581,2446.1c0-23.9,57.8-299,63.8-304.9c4-4,17.9-2,31.9,6c15.9,12,17.9,35.9,6,83.7c-10,37.9-23.9,103.6-31.9,145.5
		c-6,45.8-21.9,73.7-39.9,73.7C2595,2450.1,2581,2448.1,2581,2446.1z"/>
	<path d="M3452,2292.6c-61.8-157.4-61.8-161.4-27.9-161.4c15.9,0,51.8,59.8,79.7,135.5c61.8,155.5,63.8,163.4,27.9,163.4
		C3517.7,2430.2,3481.9,2368.4,3452,2292.6z"/>
	<path d="M2152.5,2332.5c-15.9-27.9,113.6-281,143.5-281c37.9,0,31.9,25.9-37.9,169.4C2194.4,2348.5,2176.4,2368.4,2152.5,2332.5z"
		/>
	<path d="M3800.7,2183c-57.8-71.7-93.7-135.5-83.7-141.5c29.9-17.9,49.8,0,147.5,127.6c79.7,103.6,93.7,141.5,51.8,141.5
		C3910.4,2310.6,3856.5,2252.8,3800.7,2183z"/>
	<path d="M1734,2131.2c-15.9-23.9,169.4-239.2,205.3-239.2c39.9,0,21.9,33.9-75.7,151.5C1769.9,2153.1,1753.9,2165.1,1734,2131.2z"
		/>
	<path d="M1355.3,1850.2c-8-12-10-21.9-8-25.9c4-2,53.8-35.9,107.6-75.7c133.5-93.7,137.5-95.7,167.4-77.7
		c17.9,12-15.9,43.8-107.6,109.6C1369.3,1882.1,1373.3,1880.1,1355.3,1850.2z"/>
	<path d="M1018.5,1495.4c-6-10,55.8-43.8,137.5-75.7c113.6-45.8,153.5-55.8,169.4-35.9c14,17.9-14,37.9-115.6,75.7
		C1064.3,1517.4,1034.4,1523.3,1018.5,1495.4z"/>
	<path d="M767.4,1086.9c0-29.9,77.7-47.8,247.1-57.8c113.6-6,113.6,37.9-2,53.8c-51.8,8-129.5,17.9-169.4,23.9
		C783.3,1116.8,767.4,1110.8,767.4,1086.9z"/>
	<path d="M757.4,678.3c-123.6-12-169.4-29.9-169.4-63.8c0-17.9,97.7-14,273,14c65.8,10,113.6,69.8,49.8,63.8
		C892.9,692.3,823.2,684.3,757.4,678.3z"/>
	<path d="M673.7,239.9c-103.6-35.9-145.5-61.8-145.5-85.7c0-29.9,17.9-25.9,155.5,23.9c93.7,33.9,155.5,67.8,159.4,87.7
		C851.1,305.6,851.1,305.6,673.7,239.9z"/>
	<path d="M663.7-214.6c-83.7-55.8-129.5-99.7-121.6-117.6c12-31.9,285,143.5,285,183.4C827.2-106.9,809.2-114.9,663.7-214.6z"/>
	<path d="M759.4-651c-71.7-81.7-111.6-139.5-103.6-159.4c8-21.9,43.8,6,131.5,103.6c65.8,71.7,119.6,139.5,119.6,147.5
		C906.9-507.5,863-535.4,759.4-651z"/>
	<path d="M934.8-1077.5c-47.8-93.7-73.7-167.4-65.8-183.4c19.9-29.9,15.9-33.9,103.6,133.5c69.8,131.5,91.7,209.3,59.8,209.3
		C1022.5-918.1,980.6-989.8,934.8-1077.5z"/>
	<path d="M1168-1426.3c-33.9-139.5-39.9-199.3-23.9-215.2c29.9-29.9,29.9-25.9,75.7,171.4c29.9,133.5,33.9,181.4,17.9,205.3
		C1217.8-1241,1205.8-1270.8,1168-1426.3z"/>
	<path d="M4297,397.3c-45.8-21.9-117.6-65.8-159.4-95.7c-39.9-31.9-89.7-63.8-111.6-73.7c-25.9-10-31.9-17.9-14-23.9
		c14-6,87.7,31.9,167.4,81.7c137.5,89.7,243.1,117.6,259.1,69.8c4-14,19.9-19.9,35.9-14c19.9,6,17.9,17.9-15.9,51.8
		C4404.6,447.1,4406.6,447.1,4297,397.3z"/>
	<path d="M4408.6,257.8c-6-25.9-27.9-39.9-57.8-39.9c-25.9,0-105.6-39.9-179.4-89.7c-71.7-47.8-155.5-93.7-185.3-101.6
		c-85.7-21.9-21.9-41.9,179.4-55.8c239.2-17.9,249.1-14,249.1,119.6c0,59.8,10,107.6,19.9,107.6c23.9,0,25.9,73.7,2,87.7
		C4426.5,291.7,4414.6,279.7,4408.6,257.8z M4370.7,82.4l6-63.8h-129.5c-71.7,0-131.5,8-131.5,15.9c0,19.9,203.3,123.6,229.2,115.6
		C4356.8,148.2,4366.8,116.3,4370.7,82.4z"/>
	<path d="M2650.8-328.2c-103.6-103.6-79.7-322.9,43.8-400.6c35.9-21.9,71.7-63.8,83.7-93.7c21.9-59.8,75.7-73.7,95.7-25.9
		c14,41.9-12,65.8-33.9,31.9c-12-21.9-23.9-12-47.8,33.9c-17.9,33.9-49.8,65.8-71.7,73.7c-127.6,39.9-131.5,366.7-6,384.7
		c63.8,10,89.7-53.8,67.8-157.4c-21.9-93.7,0-157.4,47.8-157.4c33.9,0,39.9,31.9,10,49.8c-10,6-19.9,69.8-19.9,139.5
		c0,105.6-6,131.5-37.9,149.5C2724.5-270.4,2704.6-274.3,2650.8-328.2z"/>
	<path d="M4506.3-384c-21.9-81.7-12-169.4,19.9-197.3c25.9-21.9,51.8-15.9,159.4,37.9c69.8,35.9,127.6,71.7,127.6,83.7
		c0,23.9-81.7-6-175.4-63.8c-87.7-53.8-125.6-25.9-101.6,79.7c21.9,93.7,21.9,103.6,0,103.6C4526.2-340.1,4514.2-360,4506.3-384z"/>
</g>
</svg>
