<?xml version="1.0" encoding="utf-8"?>
<!-- Generator: Adobe Illustrator 25.1.0, SVG Export Plug-In . SVG Version: 6.00 Build 0)  -->
<svg version="1.1" id="svg2" xmlns="http://www.w3.org/2000/svg" xmlns:xlink="http://www.w3.org/1999/xlink" x="0px" y="0px"
	 viewBox="0 0 600 600" style="enable-background:new 0 0 600 600;" xml:space="preserve">
<style type="text/css">
	.st0{fill:#B1CAE0;}
	.st1{fill:#92B2D2;}
	.st2{fill:#6DA8D6;}
	.st3{fill:#568AB9;}
	.st4{fill:#4379B0;}
	.st5{fill:#2D70A9;}
	.st6{fill:#025397;}
</style>
<g id="layer1" transform="translate(-212.635 -630.383)">
	<g id="g3030">
		<path id="path3044" class="st0" d="M505.9,1227.6c-2.2-1.5-13.4-8.7-24.9-15.9c-64.6-41-112.7-79.5-128.2-102.9
			c-8.3-12.2-10.7-20.5-12.4-38.3c-0.6-6.6-2.5-20.1-4.2-30c-1.6-10-3.7-25.9-4.3-35.6c-1.6-21.5,0.2-26.7,17.6-49.3
			c6.8-8.9,13.9-19.5,15.5-23.6c3.6-8.3,4.2-38.1,1.2-60.5c-1.9-14.3-0.4-21.5,4.6-24.6c5.2-3.3,10.6,3.6,15.9,20.5
			c5.6,17.4,11.8,26.1,21.5,30.9c3.9,1.9,25.2,6,47.4,9.3c26.7,3.9,42.2,7,45.8,9.5c6.2,3.9,11.6,15.3,18.2,37.9l4.3,15.1l-4.6,14.1
			c-4.9,15.1-5.8,31.3-2.5,37.9c2.9,5.2,11.2,5.2,36.7-0.4c24-5.2,29.6-7.9,36.8-17.4c3.1-3.9,6.8-7.3,8.5-7.3
			c1.6,0,4.6,3.9,6.6,8.9c4.9,11.8,9.1,14.7,20.5,14.9c9.3,0.2,9.5,0,20.1-14.3l10.6-14.3v-37.7l-12-20.9c-6.6-11.4-12-22.4-12-24.2
			c0-1.9,4.3-6.2,9.5-10c5.2-3.6,10.3-8.7,11.4-11.4c2.7-7.3-0.8-14.9-8.7-18c-6.4-2.5-6.6-3.3-6.2-12.2c0.4-6.6-0.4-10.3-2.9-12.8
			c-4.2-4.2-17.4-4.6-22.5-0.6c-3.6,2.7-3.6,3.1,0.6,11.2c4.8,9.1,11.4,14.9,17.2,14.9c4.6,0,4.8,3.3,0.4,4.9
			c-6.4,2.5-16.8,1.2-20.1-2.2c-5.2-6-16.1-29-16.1-34.1c0-10.7,12.4-20.3,26.7-20.3c13.7,0,27.1,14.5,27.1,29c0,8.5,4.3,7,6.8-2.1
			c2.5-9.5,0.8-14.5-8.9-25.5l-8.3-9.5l5.4-10.6c10.1-19.5,8.5-43.5-3.7-56.5c-5.4-5.8-6.8-6.2-14.5-4.9c-4.6,0.8-15.9,4.8-24.9,8.9
			c-14.7,6.8-16.4,8.1-15.3,12.2c1.6,6.8-1.5,7.6-12,2.9c-20.3-8.7-63.5-15.1-105.2-15.5l-30.4-0.4l-13.7-15.9
			c-14.7-17.2-18.6-20.1-26.9-20.1c-6.6,0-27.1,18.6-31.3,28.3c-3.7,8.9-3.6,38.1,0.2,53.2c1.6,6.6,2.7,12.8,1.9,13.9
			c-1.9,2.9-5.4,2.2-8.3-1.6c-2.5-3.3-2.9-3.3-7.3,0.4c-6.8,6.2-32.3,44.9-41.4,63.4c-4.6,8.9-9.7,21.8-11.6,28.6
			c-3.3,11.8-3.3,13.9,0.2,36.2c4.2,26.9,3.3,33.4-7,55.7c-3.3,7-7.3,17.2-8.7,22.5c-1.5,5.4-3.1,10-3.9,10
			c-2.7,0-19.2-36.7-26.1-57.8c-13.7-41.4-14.1-48.4-14.1-175.2v-114l23.8-7.9c43.7-14.5,95.7-25.5,153.2-31.9
			c44.1-4.9,143.3-4.9,188,0c55.7,6.2,98.8,15.1,149.1,30.9l27.6,8.5l-0.8,119.3c-0.8,111.8-1,120.3-5.2,138.5
			c-18.5,82.2-65.4,151.3-148.6,219.1c-18,14.5-19.2,15.3-25,13.3c-9.1-3.6-15.3-10.1-21.8-23.8c-3.3-6.8-6-11.4-6-10.3
			c0,1-0.8,8.1-2.1,15.5c-1.2,8.5-1.2,18.6,0,27.7c1.5,10,1.2,15.1-0.2,17c-2.1,2.5-61.1,40.4-62.5,40.2
			C510.4,1230.2,508.2,1229,505.9,1227.6L505.9,1227.6z M601.6,1055.9c6.6-3.3,17.4-14.7,17.4-18.2c0-4.3-12.8-8.1-26.9-8.1
			c-23.2,0-58.4,8.5-62.5,14.9c-3.6,5.6,4.9,12.2,18.8,14.7C559.9,1061.5,594.9,1059.3,601.6,1055.9z M598.7,983.7
			c4.2-18.5,4.2-17.6-1-21.2c-2.9-1.9-10.1-3.9-16.1-4.8c-13.4-1.6-19.5-6.8-17.8-15.3c1.2-6-3.1-20.5-15.1-50.7
			c-7.9-19.5-11.4-24.2-18.6-23.6c-8.5,0.6-8.9,0.2-4.3-5.6c5.6-7,5.4-11.6-0.4-18.5c-8.9-10.3-29.8-8.9-38.9,2.5
			c-3.6,4.6-3.7,5.6-1,10.7c1.6,3.1,6.6,7.3,11.4,9.5c11.2,4.9,9.5,8.5-3.9,8.1c-7.6-0.2-12.8-1.6-17-4.8c-4.8-3.6-7.6-4.3-13.4-3.1
			c-13.9,2.7-16.4-4.9-7.9-21.9c10.6-20.9,27.3-30.7,52.4-30.7c15.1,0,17,0.4,24.4,6.2c4.3,3.6,10.1,8.9,12.8,12
			c11.8,13.9,42.6,85.9,41.4,96.7l-0.8,6.6l11.4-1.9c13.3-2.1,36.8-0.6,44.6,3.1c4.8,2.1,5.2,3.6,4.8,10.7c-0.6,8.3-0.8,8.5-12,11.6
			c-10,2.9-11.8,4.3-15.1,11.4c-4.9,10.7-11.4,17.6-16.4,17.6C598.5,988.2,597.9,987.1,598.7,983.7L598.7,983.7z M390.1,807.6
			c-7.6-11.8-12-25.7-13-41.9c-0.8-14.3-0.4-18,3.3-25.5c5.6-10.7,12-15.5,17.2-12.8c2.1,1,6.2,6.8,9.3,12.8
			c3.1,6,9.5,17.4,14.5,25.7c4.9,8.1,9.1,16.6,9.1,18.6c0,2.1-2.7,5.4-5.8,7.3c-3.3,1.9-9.7,7.3-14.5,11.8
			C400.3,813.3,394.7,814.3,390.1,807.6L390.1,807.6z M619.4,793.3c-6-4.6-10.7-9.1-10.7-10.1c0-2.2,14.5-20.3,21.3-26.7
			c4.6-4.2,6-4.6,8.5-2.2c4.8,3.9,6.8,14.3,4.8,24.6c-1.9,9.5-7.5,21.2-11,22.2C631.2,801.4,625.3,798.1,619.4,793.3L619.4,793.3z"
			/>
		<path id="path3042" class="st1" d="M497.6,1221.8c-61.7-38.9-99.1-66.5-125.5-92.7c-23.8-23.6-28.6-32.5-31-59
			c-1-10.3-2.7-22.8-3.9-28c-1-5.2-2.7-20.9-3.6-35.2l-1.5-25.9l9.1-12.8c4.9-7,12.7-17.8,16.8-23.8c11-15.3,12.7-26.7,9.7-62.1
			c-2.7-30.7-1.6-35.6,7-34.4c3.1,0.4,5.6,4.3,9.5,16.1c12,34.4,15.3,36.4,71.8,44.3c38.1,5.4,48.4,8.5,51.3,15.1
			c6,14.9,13.4,39.8,13.4,45.2c0,3.7-1.5,10.6-3.1,15.3c-3.7,10.6-4.2,35.4-0.6,38.9c3.9,3.9,17.8,2.9,41.2-2.5
			c19.8-4.8,21.9-5.6,30.4-14.5c4.9-5.2,10-9.5,11-9.5s3.7,4.6,6.2,10.1c4.3,10.1,7.9,12.8,20.9,15.8c4.6,1,6.6-0.2,13-7.6
			c14.9-17.2,18.8-26.1,18.6-42c0-15.3-0.8-17.2-18-49.3c-4.2-7.6-7-15.1-6.6-16.6c0.4-1.5,5.2-5.2,10.1-8.1
			c14.5-8.7,14.9-24,1-29.2c-6-2.2-6.2-2.9-4.9-11c1-7.5,0.6-9.5-3.9-14.1c-6.2-6.2-15.3-7-21.9-1.6c-4.2,3.3-4.3,4.3-1.9,10
			c3.7,8.5,12.2,17.6,16.8,17.6c2.1,0,3.7,0.8,3.7,2.1c0,2.5-13.3,5.2-17.4,3.6c-3.7-1.5-19.7-30-19.8-35.2c0-11,13-22.2,26.1-22.2
			c7.3,0,18,6.4,22.5,13.3c1.9,2.9,3.9,8.9,4.6,13.7c1.2,9.7,4.8,10,7.5,0.4c2.5-8.9,0.6-14.9-8.7-26.5c-8.1-10-8.1-10.1-4.6-15.3
			c12.4-17.8,11.2-47-2.5-61.5c-5.4-5.8-11.8-5.8-27.6-0.4c-19.5,6.6-29,12.8-28.2,18.2c0.8,5.8-0.2,5.6-18.6-0.4
			c-21.8-7.3-55.7-11.8-94.4-12.7l-33.7-0.8l-4.3-5.8c-2.5-3.1-9.5-11.2-15.8-17.6c-9.1-9.5-12.4-12-17.8-12
			c-8.3,0-21.2,9.3-29.2,20.9c-5.2,7.6-6.2,11-6.8,26.3c-0.4,9.7,0.4,24.4,1.9,32.9c2.9,16.6,2.1,19.7-3.9,14.5
			c-2.1-1.9-4.8-3.6-5.8-3.6c-6.2,0-44.9,62.3-53.7,86.2c-5.2,14.3-5.6,16.8-3.9,31.5c1,8.7,1.9,24.4,1.9,34.6
			c0,17.2-0.4,19.8-7.9,35.8c-4.3,9.5-8.5,20.3-9.1,24.4c-0.6,4.2-1.9,7.3-2.7,7.3c-2.5,0-19.7-38.9-25.9-58
			c-13.4-42-13.9-48.3-14.9-172.7c-0.8-93.2-0.4-113.9,1.9-115.5c4.2-2.7,45.2-15.3,69-21.2c145.9-36.2,324.1-29.8,458.7,17
			l11.4,3.9v115.7c0,112.7-0.2,116.4-4.8,137.9c-14.7,68.6-46.8,124.9-103.5,181.4c-23.6,23.4-60.8,54.4-65.4,54.4
			c-4.8,0-13.9-4.9-18.5-10c-2.1-2.2-6-9.5-8.5-15.9c-4.2-10.1-4.9-11-6-6.8c-2.9,10.3-3.7,34.4-1.6,45.2
			c2.1,10.6,1.9,11.6-2.2,14.7c-8.9,7-55.3,35.2-58.8,36.1C509.8,1227.8,503.4,1225.3,497.6,1221.8z M603.9,1054.9
			c9.7-5.2,16.1-13.3,14.3-18c-3.1-8.3-29.4-10.1-58.2-4.2c-28.6,6-36.4,11.4-29,19.7c5.4,5.8,18,8.1,42.5,7.5
			C591,1059.7,596.6,1058.6,603.9,1054.9L603.9,1054.9z M599.3,986.4c-0.6-1-0.2-4.6,0.8-7.5c5.6-14.5,1.6-18.8-19.2-21.9
			c-6.8-1-13.3-2.9-14.3-4.6c-1-1.5-1.6-6.6-1.6-11.2c0-11.8-21.5-69-27.3-72.5c-1.5-0.8-5.4-1.5-8.5-1.2c-6.4,0.4-7-0.8-2.5-6.8
			c4.3-5.8,3.7-12.2-1.9-17.4c-11-10.3-26.9-9.5-37.7,1.9c-5.8,6-5.8,6.6-2.9,12c1.6,3.1,6.6,7.3,10.7,9.3c8.1,3.9,9.5,6.4,4.9,8.3
			c-4.3,1.6-19.5-1.6-25.7-5.8c-3.7-2.5-8.7-3.6-14.5-3.3c-11.2,0.6-13-3.9-6.8-18c5.2-12,13.9-20.9,27.7-28.2
			c8.3-4.3,13-5.4,24.9-5.2c8.1,0,16.8,1.2,19.2,2.7c16.8,9.3,29.6,29.8,49.1,79.3c12.2,30.4,12.8,33.7,8.9,37.9
			c-2.1,2.2-1.2,2.5,4.6,1.2c3.9-0.8,15.8-1.5,26.3-1.5c22.5,0,30.4,2.9,31.5,11.4c0.8,7.9-2.1,10.7-13.3,13.7
			c-7,1.9-10.1,3.9-12.8,8.7C609.4,985.8,602.8,991.9,599.3,986.4L599.3,986.4z M390.1,805.8c-7.5-8.9-12.4-27.1-12.7-45.6
			c0-13.7,0.6-16.8,5.6-24.4c8.3-12.4,14.3-12,21.8,1.9c3.1,5.8,10.1,18,15.5,27.3c5.4,9.1,10,17.8,10,19.2c0,1.5-4.3,5.8-10,9.7
			c-5.6,3.9-12,9.7-14.9,12.7C399.3,813.9,396.8,813.6,390.1,805.8z M619.4,793.2c-10.6-8.1-10.7-8.5-7.9-13.9
			c1.6-3.1,7.6-10.6,13.4-16.8l10.6-11.2l3.9,4.9c5.6,6.8,5.2,21.3-1,35c-2.7,6-5.8,10.7-6.6,10.7S625.3,797.7,619.4,793.2
			L619.4,793.2z"/>
		<path id="path3040" class="st2" d="M484,1212.2c-75.1-47-124-88-135.6-113.4c-3.1-6.6-5.6-17.8-6.8-30c-1-10.7-2.9-24.4-4.2-30.7
			c-3.6-20.1-4.9-51.1-2.5-58c1.2-3.6,7.6-13.7,14.5-22.5c18.8-24.9,20.1-27.6,20.1-50.3c0-10.7-0.6-27.1-1.6-36.2
			c-1.5-13.4-1-17.4,1.5-20.7c4.9-6.6,10-1.6,16.1,16.4c11,32.3,13.7,33.7,83.5,43.7c13.4,1.9,26.9,4.3,29.4,5.4
			c6.6,2.5,12.2,12.4,18.2,32.3c6,19.5,6.2,24.4,2.1,34.6c-1.6,4.2-3.7,12.4-4.3,18.8c-1.6,13.9,1.6,23.2,8.7,24.9
			c5.8,1.5,50.1-7.6,58.8-12.2c3.3-1.6,7.6-5.8,9.7-9.3c6.6-11,8.7-10.1,17.4,7c2.2,4.6,5.6,6.8,12.2,8.7c4.9,1.5,10.7,2.2,12.4,1.6
			c1.7-0.6,6.8-5.8,11.2-11.6c21.2-28.2,20.9-45.6-0.8-82.9c-9.7-16.6-10.1-21.3-2.5-26.1c11.4-7,14.9-11.6,14.9-18.6
			c0-7.9-6-15.1-12.4-15.1c-3.7,0-3.9-1-2.9-9.1c1-8.1,0.6-10-4.2-14.5c-6.4-6.4-15.5-7-22.4-1.2l-4.9,4.2l5.4,10
			c3.9,7.3,7,10.6,12,11.8c9.5,2.9,8.1,5.2-3.7,5.2h-10.1l-7.5-14.1c-10.7-20.1-11-23.2-3.1-32.3c6.8-7.9,16.6-11.2,25.9-8.9
			c9.1,2.2,19.2,14.5,20.9,25c1.5,10.1,3.7,11.8,7,5.4c4.3-8.1,2.5-17-6.2-28.6l-8.5-11.2l5.6-11.4c7.9-15.9,7.9-33.4,0.2-48
			c-3.9-7.6-7.3-11.2-11-12.2c-7.9-1.9-24.9,2.5-39.1,10.1c-10,5.4-12.4,7.6-12,11.4c0.6,5.8,0.8,5.8-17-0.4
			c-21.2-7.3-55.3-12-94.4-12.8l-34.1-0.8l-15.3-16.8c-16.6-18-22.2-21.5-30-18.5c-7.9,2.9-21.8,16.6-26.5,25.9
			c-4.9,10-5.8,37.1-1.6,54.9c1.5,5.8,1.9,12,1.2,13.9c-1.2,2.9-1.9,2.9-6.2-1.2l-4.9-4.6l-11.5,15C323.5,843.7,308,871,301,892.2
			c-2.9,8.7-3.3,14.5-2.2,25.9c4.3,47.6,4.6,46.8-3.9,65.6c-4.3,9.5-8.7,21.3-10,26.1c-1.2,4.8-2.9,8.7-3.7,8.7
			c-2.2,0-17.2-32.3-23.4-50.5c-15.1-44.1-17.6-72-17.6-200.5V675l25.2-8.3c63.4-20.5,129.4-31.9,205.2-35.4
			c107.5-4.8,221.8,10.3,303.2,40.4l8.7,3.3v102.5c0,129.8-2.5,153-20.9,200.6c-17.6,45.3-41.6,81.6-80.5,121.9
			c-27.6,28.6-68.3,63.4-74.1,63.4c-10.3,0-22.4-13.4-27.6-30.7c-4.3-15.1-7-5.2-7.3,27.3c0,26.1-0.4,29-4.2,31.7
			c-6.6,4.8-52.4,33.7-55.5,35C511.1,1228,498.2,1221.1,484,1212.2L484,1212.2z M597,1058.4c8.9-2.5,21.8-13.9,21.8-19.2
			c0-1.9-2.5-4.8-5.4-6.8c-10.3-6.8-62.5-1.9-78.5,7.3c-10.6,6.2-8.9,13.3,4.3,17.8C549.2,1061.1,585.4,1061.5,597,1058.4z
			 M599.9,987.1c-0.6-0.6,0-5.8,1-11.4c2.7-13.4,0.2-16.1-17.2-18.6c-16.4-2.2-18.8-4.3-18.8-16.4c0-10.6-17.6-59.5-24.4-68.6
			c-2.9-3.9-5.6-5.2-10.3-4.8c-7,0.6-8.3-1.6-3.3-5.8s3.7-14.1-2.1-19.5c-10.6-10-27.1-8.3-38.1,3.9c-4.8,5.2-4.9,5.8-2.1,11.2
			c1.6,3.1,6.6,7.5,10.7,9.7c4.2,2.2,7.6,4.9,7.6,6c0,3.3-21.9,0-28.2-4.2c-4.3-3.1-8.3-3.9-14.7-3.3c-11.6,1.2-13.3-3.6-5.8-19.1
			c9.3-19.5,29.2-32.3,50.7-32.3c15.8,0,23.8,3.3,33.4,13.9c11.2,12.4,17,23.4,33.1,62.8c11.6,28.3,14.1,36.7,12.7,40
			c-1.9,4.3-1.6,4.3,26.5,4.3c31.9,0,35.8,1.5,34.7,12c-0.6,6.8-3.1,8.7-15.3,11.8c-7.5,1.9-9.1,3.3-13.4,12.7
			C611.1,983.7,603.4,990.7,599.9,987.1L599.9,987.1z M392.6,808.7c-8.7-10-16.1-33.7-16.1-51.7c0-8.7,9.5-26.7,14.9-28.6
			c2.1-0.6,5.2-0.2,6.8,1.2c2.5,2.1,13.4,20.3,28.8,48.3l4.3,7.9l-6,4.6c-3.3,2.5-10.6,8.5-16.1,13.3
			C397.8,813.5,397,813.6,392.6,808.7L392.6,808.7z M626,797.5c-2.1-2.2-6.4-5.8-9.7-7.6c-3.3-1.9-5.8-4.8-5.8-6.6
			c0-4.9,20.5-29,24.6-29c9.3,0,10.7,22.8,2.2,39.3C632.6,803.1,631.4,803.5,626,797.5z"/>
		<path id="path3038" class="st3" d="M480.6,1210c-35.6-22.5-59.2-39.1-86.6-61.5c-41.2-33.7-50.3-48-52.2-82.4
			c-1.5-26.7,1.5-38.7,12.7-55.3c20.9-30.9,21.3-31.9,24-51.7c1.2-10.6,2.9-19.8,3.6-20.7c2.1-3.3,5.4,0.8,11.2,13.9
			c4.2,9.1,7.6,14.1,12,16.1c9.1,4.8,48.4,17.8,53.7,17.8c5.8,0,7.3-2.5,10-17.6c1.5-8.3,3.3-12.7,5.4-13c2.7-0.4,3.6,2.5,4.3,15.9
			c1.2,18.8,5.8,28.6,20.1,42.9c13,13,23,14.7,50.1,8.9c28.6-6.2,35.2-9.1,43.1-18.8c7.5-9.1,8.1-8.9,15.1,4.3
			c3.7,7,6.4,9.7,12.8,11.8c11.6,3.9,15.3,2.2,24.4-10c15.5-20.7,19.2-37.1,12.8-55.5c-2.7-7.6-2.5-10.1,1-25.2
			c5.2-21.3,4.9-28.8-0.6-45.6c-3.9-11.8-5.4-13.7-11.2-15.3c-6.4-1.9-6.6-2.2-5.4-11.6c1-8.7,0.6-10.1-4.6-14.1
			c-7-5.6-15.5-5.8-21.9-0.4l-4.9,4.2l5.4,10c3.9,7.3,7,10.6,12,11.8c9.7,2.9,7.9,5.2-3.7,5.2h-10.3l-8.4-16.8
			c-9.5-18.8-9.3-23.8,0.2-32.1c8.5-7,18.2-8.5,27.7-4.2c8.3,3.9,15.5,13.7,15.5,20.9c0,10.7,6.6,15.3,9.1,6.4
			c2.9-11.2,1.2-17.8-7-28.3l-8.5-10.6l5.2-10.7c7.5-15.5,8.5-26.3,4.3-39.8c-2.1-6.2-5.8-13.9-8.7-16.8c-4.3-4.8-6.2-5.4-15.3-4.3
			c-6.2,0.6-16.6,4.2-26.3,9.1c-13.4,6.8-15.9,8.9-15.5,12.7c0.2,2.5,0,4.6-0.4,4.6c-0.6,0-7.9-2.2-16.1-5.2
			c-22.2-7.5-53.4-11.8-93.4-12.8l-35-0.8l-18-18.8c-16.6-17.4-18.5-18.8-24-17.4c-14.3,3.6-30.9,22.2-34,38.3
			c-2.1,10.6-0.6,33.4,3.3,51.6c1.6,7.6-1.5,8.9-7.5,3.6c-3.3-2.9-4.3-2.2-13,9.1c-13.3,17.4-29.4,43.7-39.3,64.4l-8.5,17.6
			l0.8,21.8c1.9,54.7,1.9,55.1-7.6,75.7c-4.8,10.3-8.7,20.3-8.7,22.2c0,8.7-4.3,3.6-12.8-14.7c-11-23.6-18.6-46.2-23.8-70.8
			c-3.3-15.8-3.7-30-3.7-135.4v-118l17.6-6c58.6-19.8,135.8-33.4,210.8-36.7c107-4.8,218.7,10.1,302.3,40.8l8.9,3.3L782.3,790
			c-1,127.6-1.2,131-15.9,175.4c-18.5,55.3-47.4,99.1-98.8,149.1c-24.6,24-55.9,49.5-60.5,49.5c-1.6,0-6.2-2.1-10.1-4.6
			c-7.5-4.8-18-23.2-20.5-36.4c-0.6-3.7-2.5-6.6-3.7-6.6s-12.4,10.1-24.6,22.5c-29.2,30-34.4,40.4-34.4,69c0,11.2-0.8,20.3-1.6,20.3
			C511.1,1228.2,496.6,1220.1,480.6,1210L480.6,1210z M597,1058.4c8.9-2.5,21.8-13.9,21.8-19.2c0-1.9-2.5-4.9-5.6-6.8
			c-14.7-9.7-85.5,2.2-85.5,14.5c0.2,9.3,13.3,13.9,40.4,13.9C579.4,1060.7,592.5,1059.7,597,1058.4L597,1058.4z M601.2,976.2
			c1.6-14.7,0.2-16.4-17.8-19.2c-7.3-1.2-13.9-2.9-14.9-3.7c-3.1-3.1,9.5-14.7,18.2-16.8c13.3-3.1,43.7-2.5,52,1
			c6.4,2.7,7.3,3.7,6.6,9.5c-0.8,7.3-2.9,9.1-15.5,12.2c-7.5,1.9-9.3,3.6-12.7,11.2c-4.2,9.5-11.2,17.8-14.9,17.8
			C600.6,988.2,600.3,984.4,601.2,976.2L601.2,976.2z M479,871c-3.3-1.9-7-3.9-7.9-4.9c-0.8-1-5.2-1.2-9.3-0.6
			c-5.4,0.8-8.5,0-10.3-2.2c-2.2-2.7-1.6-5.4,3.6-16.6c10.1-21.8,30.4-33.5,55.1-31.9c11.2,0.6,14.7,1.9,21.2,7
			c12.8,10.3,15.9,15.9,14.3,24.9c-1.6,8.5-12.8,21.5-18.8,21.5c-3.3,0-3.3-0.4-0.2-5.2c4.9-7.5,4.2-15.1-2.1-20.7
			c-10.6-10-25.9-8.5-37.3,3.3c-5.8,6-5.8,6.6-2.9,11.8c1.6,3.1,6.6,7.5,10.7,9.7c4.2,2.2,7.6,4.8,7.6,5.8
			C502.8,875.6,485.4,874.3,479,871L479,871z M392.5,808.5c-6-6.6-11.8-22.8-14.3-39.5c-2.1-14.7-2.1-17.4,1.5-24.9
			c5.2-11.6,12.8-18.5,17.2-15.5c3.7,2.2,33.4,52,33.5,56.1c0,1.5-2.5,4.2-5.6,6.2c-3.1,1.9-10.1,7.6-15.5,12.4
			C398.3,813.5,397.2,813.6,392.5,808.5z M626,797.5c-2.1-2.2-6.4-5.8-9.7-7.6c-3.3-1.9-5.8-4.8-5.8-6.6c0-5.2,20.5-29,24.9-29
			c9.1,0,10.3,23.2,2.1,39.5C632.6,803.1,631.4,803.5,626,797.5L626,797.5z"/>
		<path id="path3036" class="st4" d="M488.9,1215.2c-66.3-41.4-118-82.2-134.2-105.6c-9.3-13.7-13.4-29.4-13.4-52.4
			c0-22.2,3.7-32.9,18.8-53.8c13.3-18.5,18.5-30,18.5-41.9c0-12.7,2.5-23,5.4-23c1.5,0,5.2,5.6,8.3,12.2s7.3,13.9,9.1,15.5
			c2.1,1.9,16.1,7.5,31.3,12.7l27.7,9.3l3.6-4.3c2.1-2.5,4.2-8.9,4.9-14.3c2.5-18.6,9.1-19.7,9.1-1.5c0,15.5,3.6,25.9,12.8,38.3
			c15.8,20.9,26.7,23.8,62.5,15.9c28.2-6,30.3-7,37.7-16.8c3.1-3.9,6.6-7.3,8.1-7.3s4.8,4.3,7.5,10c4.2,8.3,6.2,10.3,13.9,12.7
			c12.2,3.9,16.1,1.6,28.3-16.1c8.3-12.2,10.1-16.6,11-26.3c0.6-6.4-0.2-16.6-1.6-22.8c-2.2-9.7-2.2-13.3,1-26.9
			c6.4-27.3,0.8-54.7-12.4-60.1c-6.4-2.7-6.6-3.3-5.6-11.2c2.1-14.7-10.6-22.8-25.2-16.1c-6.2,2.9-6.4,5.6-1.9,14.7
			c4.9,10,9.1,13.9,14.5,13.9c2.7,0,4.8,1,4.8,2.1c0,3.7-17.8,2.5-21.2-1.6c-5.8-6.6-14.7-26.3-14.5-32.3
			c0.4-11.4,17.4-21.9,30.3-18.8c8.3,2.1,19.8,16.1,19.8,24.4c0,8.9,4.9,13.7,8.1,7.6c5.6-10.3,2.1-23-9.7-35.8l-4.9-5.4l5.8-11.2
			c4.6-8.9,5.8-14.1,5.8-25.7c0.2-12.8-0.6-15.9-6.2-24.9l-6.4-10.1l-12.2,0.2c-9.5,0.2-15.9,1.9-28.6,7.6
			c-15.1,7-16.1,7.9-14.9,12.8c1.5,6,0.2,6.4-10,2.1c-21.8-9.1-67.1-15.5-109.1-15.5h-26.1l-12.8-15.5c-14.1-17-22.5-22.8-30.4-20.7
			c-6.2,1.6-24.6,18.5-28.8,26.3c-6,11.4-5.8,35.8,0.4,64.4c1.5,6.4-1.9,7.6-6.8,2.5c-2.9-2.9-3.6-2.9-7.3,0.4
			c-7.5,6.8-34.1,48.9-44.6,70c-11,22.8-10.7,20.5-8.7,76.6c0.8,20.5,0.6,20.9-7.6,39.3c-4.8,10.3-9.3,21.3-10.1,24.9
			c-1.5,6-1.9,5.6-10.6-12.4c-12-24.9-20.7-52.4-25.7-81.2c-3.7-21.5-4.2-34-4.2-134.2V675.6l8.7-3.3c49.9-18.2,120.5-32.5,192-38.7
			c41.2-3.6,139.5-1.2,179.9,4.2c50.3,6.8,95.3,16.8,137.7,30.4l22.4,7.3l-1,114.3c-1,122.5-1.5,126.1-12.8,166.1
			c-15.9,55.3-51.3,110.2-102.7,159.5c-18.8,18-52.2,45.9-57.1,48c-1.2,0.6-5.8-0.6-10-2.7c-9.1-4.3-18.6-19.7-21.9-35.6
			c-1.2-6-3.1-10.7-4.2-10.7c-1,0-12.2,10.6-24.6,23.2c-29.6,30.3-35,40-37.1,69.6l-1.5,20.9L488.9,1215.2L488.9,1215.2z
			 M599.7,1057.6c10.1-4.2,19.1-13,19.1-18.6c0-7-10.3-10.3-32.1-9.7c-20.5,0.4-49.1,6.8-55.3,12.4c-7.3,6.4-3.9,13.7,8.1,17.2
			C550.2,1061.7,591.2,1061.1,599.7,1057.6z M600.1,984.4c0-2.1,0.8-6.8,2.1-10.6c2.9-10.1-3.6-15.9-20.3-17.8
			c-7-0.8-13.3-2.2-13.9-3.1s1.2-4.6,4.2-7.9c6.2-7.5,18.8-10.7,41-10.7c20.3,0,30,2.9,31.7,9.3c2.1,8.1-0.2,10.7-12.7,14.3
			c-10.3,2.9-12,4.3-14.9,11c-3.1,7.6-12.4,19.1-15.5,19.1C600.9,988.2,600.1,986.5,600.1,984.4L600.1,984.4z M477.9,869.8
			c-4.8-3.1-10.3-4.6-16.6-4.6c-8.9,0-9.3-0.4-10-6.2c-1-10.3,10.7-27.1,25.2-36.1c11.4-7,13.4-7.5,28.3-7.5c14.5,0,17,0.6,24.9,6.2
			c4.8,3.6,10.6,8.7,13,11.8c3.7,5.2,3.9,6.4,1.6,14.3c-2.9,9.3-12.2,20.5-17.6,20.5c-2.7,0-2.5-1,1-7c3.9-6.6,3.9-7.5,0.8-13.4
			c-6.8-13-24.9-16.1-38.3-6.4c-9.1,6.4-10.1,13.4-3.3,20.7c3.1,3.3,7.9,6.4,10.6,7.3c8.1,2.1,5.6,5.4-3.9,5.4
			C488.5,874.3,482.7,872.6,477.9,869.8z M393.7,809.1c-6-4.2-12.2-20.3-15.1-38.7c-2.2-14.1-2.1-17.2,0.8-25
			c1.9-4.9,5.8-11.2,8.7-13.9c6.6-6.2,10.3-4.2,17.2,8.7c2.7,4.9,9.5,16.8,14.9,26.1c5.4,9.3,10.1,17.8,10.1,19.1
			c0,1.2-3.1,3.9-6.6,6.2c-3.6,2.2-9.5,7-12.8,10.7C402,811.2,398.6,812.6,393.7,809.1z M624,795.4c-3.3-3.3-7.9-6.6-10-7.3
			c-2.1-0.6-3.7-2.5-3.7-4.3c0-3.9,17.8-26.9,22.4-28.6c10.1-3.9,13.3,19.2,4.8,36.7c-2.7,5.4-5.4,9.7-6.2,9.7
			C630.8,801.7,627.4,799,624,795.4L624,795.4z"/>
		<path id="path3034" class="st5" d="M486.2,1213.3c-73.9-46.8-125.5-89-136.4-111.8c-6-12.4-9.3-35.6-7.6-54.9
			c1.2-16.4,6.4-28.8,17.8-42.9c13.3-16.6,17-25,19.5-45.2c2.9-22.5,5.6-24.4,12.7-7.9c2.7,6.2,7,13.3,9.7,15.5
			c2.7,2.2,17,8.3,31.7,13.3l26.7,9.1l3.6-4.3c1.9-2.2,4.6-10,6-17c3.6-17.6,7-15.3,8.7,5.8c1,14.1,2.2,18.5,7.9,27.1
			c8.9,13.9,18.8,22.2,29.6,25c10,2.7,17,2.1,45.2-4.3c18.2-4.2,20.3-5.2,28.2-13.4c4.8-4.9,9.3-9.1,10.6-9.1s3.9,4.3,6.4,9.5
			c3.3,6.8,6.6,10.3,11.8,12.4c12.8,5.4,16.6,4.2,26.9-9.3c5.2-6.8,11-15.5,12.7-19.7c3.7-8.7,3.9-25.7,0.6-36.7
			c-2.1-6.6-1.6-11,1.5-24.4c6.4-28.3,1.2-55.7-11.8-61.1c-6.2-2.5-6.4-3.3-6-12c0.4-7.5-0.4-10.1-4.2-13.7
			c-5.6-5.2-16.4-5.8-23.6-1c-4.3,2.9-4.8,3.9-2.7,8.7c4.2,9.7,12,19.1,16.1,19.1c2.2,0,3.9,1,3.9,2.1c0,1-3.7,2.1-8.1,2.1
			c-8.9,0-11.8-2.9-20.5-20.1c-6.2-12.2-5.8-20.3,1.6-27.7c5.2-5.2,7.6-6,16.8-6c9.7,0,11.6,0.8,18.8,8.1c6.2,6.2,8.1,9.7,8.1,14.9
			c0,14.7,6.6,15.8,10.3,1.6c2.5-9.3,0.2-15.5-10.6-27.7l-6.2-7.3l5.6-11c7.9-15.5,8.9-31,3.1-44.7c-2.5-5.8-6.4-12.2-8.5-14.1
			c-6-5.6-23.2-3.1-42.2,6c-15.1,7.3-15.9,7.9-14.7,13c1.5,6,2.7,6.2-17.8-1.2c-19.2-6.8-48-10.7-88.8-12l-38.5-1L426,728.9
			c-7.6-9.1-16.1-17.4-18.8-18.6c-7.9-3.6-15.8-0.2-28.3,12.4c-16.8,17-19.5,30.3-13.3,65.6c1.6,9.1,3.1,16.8,3.1,17
			c0.2,2.1-5.2-0.2-7.5-3.1c-2.7-3.3-3.3-3.1-10,4.3c-17.8,19.8-41.6,60.8-49.9,85.7l-5.2,15.5l3.6,21.9c4.3,27.6,3.1,37.5-7,60.1
			c-4.6,10-8.9,20.7-9.7,24.2c-1.5,6-1.9,5.6-9.7-11.2c-10.7-23-19.7-48.6-24.9-72.7c-3.9-18.2-4.3-28-5.2-137.1l-0.8-117.4
			l25.5-8.3c70.8-23,137.3-33.1,225.9-35c96.7-1.9,172.3,7.6,253.9,32.1l32.3,9.7v119.5c0,117,0,119.5-4.8,140.6
			c-16.6,74.1-58.2,138.8-128.8,199.8c-38.9,33.5-38.7,33.5-51.7,22.5c-8.1-6.8-12.7-15.3-15.5-29.6c-1.2-6.2-3.6-11.6-4.9-12.2
			c-1.5-0.4-12.8,9.7-25.2,22.5c-29.4,30.7-35,41.2-36.8,70l-1.2,20.7L486.2,1213.3L486.2,1213.3z M600.7,1057.8
			c9.7-4.2,18.6-14.3,17.8-20.3c-1.5-10.6-30.4-12.7-63.5-4.8c-19.2,4.6-27.1,8.7-27.1,14.5c0,10,9.5,13,42,13.3
			C586.3,1060.7,596.2,1059.9,600.7,1057.8L600.7,1057.8z M600.1,983.4c0-1.5,0.8-5.6,1.9-9.5c1-3.9,1.5-8.1,0.8-9.7
			c-1.5-3.7-9.7-6.8-22.5-8.5c-13.4-1.9-14.1-2.2-10-8.3c4.9-7.6,13.9-11.4,30.7-12.7c28-2.1,44.7,2.2,44.6,11.4
			c0,6.2-3.1,8.7-13.7,11.4c-8.9,2.2-10.7,3.7-15.3,12c-2.9,5.2-6.4,11-8.1,12.8C605.3,986.8,600.1,987.1,600.1,983.4L600.1,983.4z
			 M482.3,872c-2.7-1-6.4-3.1-8.1-4.6c-1.6-1.5-7.3-2.5-12.7-2.5c-9.1,0-9.5-0.2-10.1-6.2c-1-10.3,10.7-27.1,25.2-36.1
			c11.4-7,13.4-7.5,28.3-7.5c14.5,0,17,0.6,24.9,6.2c4.9,3.6,10.7,9.3,12.8,13c3.7,6.4,3.7,7.3,0.6,15.8
			c-3.7,9.7-8.1,14.5-15.1,16.6l-4.8,1.5l4.3-7.5c5.4-9.1,3.3-15.5-7-21.8c-9.3-5.6-19.7-5.2-29,1c-10.6,7.3-12,14.1-4.3,21.9
			c3.3,3.3,8.1,6.6,10.6,7.3c2.7,0.6,4.8,2.1,4.8,3.1C502.8,875,488.7,874.6,482.3,872L482.3,872z M389.3,803.5
			c-4.8-7.9-10-25-11.8-40.2c-1.5-12,3.1-25.5,11.2-32.7c5.8-5.2,10-2.9,16.6,9.3c2.7,4.9,9.5,17,14.9,26.3
			c5.6,9.5,10.1,18,10.1,18.8c0,0.8-3.7,4.2-8.3,7c-4.6,3.1-10.7,8.3-13.9,11.6C401,812.2,394.5,812,389.3,803.5L389.3,803.5z
			 M622.9,794.2c-5.2-3.9-10.1-7.9-11.2-8.9c-2.5-2.2,4.8-13.7,15.1-23.8c7.9-7.6,8.7-8.1,12-4.8c5.2,5.2,4.3,23.4-1.9,35.2
			l-4.8,9.3L622.9,794.2z"/>
		<path id="path3032" class="st6" d="M488.3,1213.9c-71.7-44.6-123.6-86.9-137.7-112.4c-6-10.7-6-11.6-6-42c0-34.7-0.8-32.3,17.8-58
			c12-16.6,18.5-32.9,18.5-47.4c0-7.6,2.1-15.5,3.9-15.5c0.8,0,3.9,6,7.3,13.4c4.2,9.5,7.9,14.5,12.4,17.2
			c9.3,5.6,54.3,19.7,58,18.5c3.1-1.2,5.8-9.1,8.5-24.9c2.2-13.7,6.2-7.9,7.5,11.6c1.2,19.2,2.9,23,17,38.3
			c15.3,16.6,24,18.2,58.8,10.6c24.2-5.2,29.6-7.9,37.3-17.4c3.1-3.9,6.8-7.3,8.1-7.3c1.3,0,3.7,3.6,5.4,7.9
			c4.3,10.6,9.5,14.7,20.5,16.4c9.5,1.2,9.5,1.2,18-9.7c13.3-16.8,17.4-26.1,17.4-39.5c0-6.4-1.2-14.5-2.7-18c-2.9-7-2.5-11,2.9-31
			c6.2-22.8-0.8-49.5-14.7-56.1c-5.6-2.7-6.2-3.7-4.6-8.1c2.2-6-1.2-15.9-6.6-18.8c-6-3.3-17.6-2.2-22.8,1.9l-4.8,3.7l4.9,9.1
			c2.7,4.9,8.3,11.2,12.2,13.9l7.3,4.9l-9.3-0.6c-8.9-0.6-9.5-1-16.1-12.8c-11.6-20.5-11.6-29.6,0-36.4
			c17.2-10.6,37.5-0.6,40.4,19.5c1.9,12.7,5.6,14.3,10,4.3c4.3-10.1,2.2-17.4-7.5-28.3l-8.1-9.1l5.4-11c7.9-16.1,8.7-31.7,1.9-46.4
			c-7.3-15.8-12.2-18.6-26.5-15.8c-6.2,1.2-17.6,5.6-25.2,9.5c-13,6.6-14.1,7.5-12.8,12.4c1,4.6,0.8,5.2-2.5,3.7
			c-14.3-5.8-29-10-44.1-12.4c-26.5-4.3-70.6-7.5-85.5-6l-13,1.2l-8.9-11.6c-13.4-17.4-24-26.1-31.5-26.1c-7.9,0-27.6,17.8-33.4,30
			c-4.6,10.1-4.9,30.9-0.8,51.7c1.5,7.9,2.5,14.9,2.1,15.3c-0.4,0.4-2.5-0.6-4.6-2.5c-4.9-4.3-5.6-4.3-10.7,1.2
			c-16.8,18-47.6,71.8-52.8,92.4c-3.1,12-3.1,14.9,0,36.2c3.9,27.1,2.9,34.4-7.6,58.4c-3.9,9.1-8.3,18.8-9.3,21.5
			c-1.9,4.6-2.5,3.7-9.3-10.3c-10.6-21.5-17.8-42.9-24-69.2c-5.2-22.8-5.4-23.2-6.2-140L241,676.7l19.5-6.2
			c46.2-14.9,89.9-24.4,145.6-31.7c30-3.9,45.2-4.6,102.5-4.8c42.6,0,75.6,0.8,90,2.5c60.5,7,118,19.1,162.2,33.7l19.2,6.4
			L779.1,796l-0.8,119.3l-5.4,21.8c-20.3,82.4-65,147-149.1,214.9l-15.9,12.8l-7-2.9c-10-4.2-18.2-16.1-22.4-32.1
			c-1.9-7.5-4.6-14.1-6.2-14.5c-1.5-0.4-13.3,10-26.1,23.4c-29.8,30.9-34,38.9-35.8,68.1l-1.2,21.2L488.3,1213.9L488.3,1213.9z
			 M603.9,1056.3c10.6-5.2,17.8-15.1,14.9-20.5c-4.6-8.5-24.4-10.3-54.4-4.9c-21.3,3.7-33.7,8.5-36.7,13.7
			c-2.9,5.4,5.6,13.4,15.9,15.3c4.3,0.6,9.3,1.6,11.2,2.1c1.6,0.4,11.4,0.4,21.5-0.2C589.4,1060.9,597.4,1059.4,603.9,1056.3z
			 M600.7,981.8c0.6-2.7,1.6-7.3,2.5-10c0.6-2.9,0-6.8-1.5-8.9c-2.9-3.9-14.9-7.5-25.9-7.6c-7.5,0-8.3-2.1-3.6-9.3
			c5.4-8.1,14.3-10.3,40.6-10.3c27.1,0,30.9,1.5,30.9,12.4c0,6.4-0.6,6.8-10.6,9.3c-8.3,2.1-11.4,3.9-14.1,8.7
			c-7,13-12,19.2-15.5,19.8C600.3,986.4,599.9,985.5,600.7,981.8z M483.6,872.2c-3.3-1-7.6-3.3-9.7-5.2c-2.5-2.2-6.6-3.1-12.7-2.7
			c-7.9,0.6-9.1,0.2-9.5-3.7c-0.8-5.8,8.1-23,15.5-30c13.7-12.8,35.4-18.8,51.6-14.5c4.6,1.2,12.4,5.8,17,10.3
			c7.5,7,8.7,9.1,8.7,16.8c0,7.5-1.2,10.1-8.1,17c-9.1,9.1-15.3,11-8.7,2.5c6-7.6,5.4-12.4-2.7-20.7c-5.8-5.8-8.5-7-16.1-7
			c-10.1,0-20.5,5.4-25.7,13.3c-3.1,4.8-3.1,5.6,0.2,10.6c1.9,2.9,7.3,7.3,11.6,9.5c4.3,2.2,7.9,4.6,7.9,4.9
			C502.8,875,490,874.1,483.6,872.2L483.6,872.2z M388.3,800.4c-10.6-21.2-13-45.9-5.8-60.1c4.6-9.1,11.8-14.7,14.9-11.6
			c1,1,8.7,13.9,17.4,28.6l15.5,26.9l-5.6,4.8c-19.8,17-25.5,21.2-28.2,21.2C394.7,810.2,391,805.8,388.3,800.4z M620.8,792.3
			c-5.2-3.9-9.7-7.6-10.1-8.1c-1.2-1.2,9.5-16.1,17.6-23.8c7.3-6.8,7.5-7,10.3-3.1c3.1,4.2,3.7,8.1,3.1,18.8
			c-0.4,7.3-7.3,23.8-9.7,23.6C631,799.6,626,796.3,620.8,792.3z"/>
	</g>
</g>
</svg>
