<?xml version="1.0" encoding="utf-8"?>
<!-- Generator: Adobe Illustrator 25.1.0, SVG Export Plug-In . SVG Version: 6.00 Build 0)  -->
<svg version="1.1" id="Layer_1" xmlns="http://www.w3.org/2000/svg" xmlns:xlink="http://www.w3.org/1999/xlink" x="0px" y="0px"
	 viewBox="0 0 600 600" style="enable-background:new 0 0 600 600;" xml:space="preserve">
<style type="text/css">
	.st0{fill:#231F20;}
</style>
<desc>Created with sketchtool.</desc>
<g id="VisualDesigns">
	<g id="Home_MegaMenu_InfoFor" transform="translate(-165.000000, -24.000000)">
		<g id="Nav">
			<g id="PI-logo-2017-Black">
				<g transform="translate(165.000000, 24.000000)">
					<path id="Shape" class="st0" d="M527.5,546.8c1,35.1,47.2,36.1,54.2,36.1c9,0,8,16.1,1,16.1c-7,0-193.6,0-200.7,0
						c-7,0-8-16.1,1-16.1c8,0,55.2-1,58.2-36.1c1-19.1,3-267.9,3-444.5H326.8c62.2,24.1,92.3,66.2,91.3,120.4
						c-2,74.2-42.1,110.4-66.2,123.4c-44.1,24.1-130.4,32.1-193.6,28.1c0,77.3-1,152.5,0,171.6c1,38.1,50.2,36.1,65.2,38.1
						c8,1,8,16.1,0,16.1H14.8c-6,0-7-16.1,1-16.1s57.2,1,59.2-36.1c2-23.1,9-385.3,8-418.4c-1-42.1-57.2-41.1-66.2-42.1
						c-8-1-6-15.1,0-15.1h566.9c8,0,7,14,1,15.1c-6,1-62.2,1-62.2,38.1C523.5,153.5,527.5,531.8,527.5,546.8L527.5,546.8z
						 M158.2,110.4c-4,6-1,222.7-1,232.8c28.1-1,76.3,0,97.3-9c45.2-19.1,84.3-44.1,86.3-117.4c1-43.1-33.1-84.3-67.2-98.3
						C246.5,106.4,161.3,106.4,158.2,110.4L158.2,110.4z M299.7,0l151.5,42.1h-303L299.7,0L299.7,0z"/>
				</g>
			</g>
		</g>
	</g>
</g>
</svg>
