<?xml version="1.0" encoding="utf-8"?>
<!-- Generator: Adobe Illustrator 25.1.0, SVG Export Plug-In . SVG Version: 6.00 Build 0)  -->
<svg version="1.1" id="Layer_1" xmlns="http://www.w3.org/2000/svg" xmlns:xlink="http://www.w3.org/1999/xlink" x="0px" y="0px"
	 viewBox="0 0 600 600" style="enable-background:new 0 0 600 600;" xml:space="preserve">
<style type="text/css">
	.st0{fill:#840404;}
</style>
<g transform="translate(0.000000,1197.000000) scale(0.100000,-0.100000)">
	<path class="st0" d="M2831.3,11967.5c-166-9.6-393.7-44.4-569.8-87.8c-302.3-74.2-627.3-217-893.8-391.6
		c-195.3-128.7-320-230.1-485-394.7c-162.5-163-262.9-284.6-381.6-462.3C81.2,10000.2-84.4,9224.4,40.8,8470.9
		c103.5-625.8,389.6-1181,839.8-1630.2c263.5-262.9,542-455.7,889.3-615.2c345.2-158.5,710.6-243.3,1120.4-260.4
		c454.2-19.2,918,68.6,1322.3,250.3c539.5,242.3,975.1,610.2,1296.1,1094.7c280.1,422.4,439.6,886.2,487.5,1418.2
		c10.6,117.6,8.1,402.7-5,529.9c-64.6,635.4-313.9,1212.8-729.3,1688.2c-341.2,390.6-775.7,683.9-1274.9,861.5
		c-228.6,81.3-519.8,138.8-796.4,158C3121,11970.5,2901.9,11971.5,2831.3,11967.5z M3031.6,11773.2c7.1-5.6,6.6-11.6-1-30.3
		c-2.5-6.6-0.5-8.1,12.6-7.6c20.7,1,29.3-10.6,22.7-29.8c-7.1-19.2-20.2-26.2-32.8-18.2c-9.6,5.6-10.1,5-10.1-11.1
		c0-31.8,32.3-58.5,70.7-58.5c24.7,0,45.4,10.1,60.1,28.3c14.1,18.2,13.1,22.2-4.5,22.2c-21.2,0-30.3,19.2-18.2,38.4
		c8.1,11.6,11.1,12.6,26.7,9.6c16.2-3,17.7-2,14.1,6.1c-8.1,19.7-8.6,27.3-2,34.8c12.6,15.1,60.1,0.5,60.1-18.7
		c0-1.5-5.6-9.1-12.6-15.6l-12.6-13.1l17.7-3c19.7-4,21.7-10.6,9.6-34.3c-7.1-13.6-9.6-15.1-25.2-12.6c-16.2,2.5-17.2,2-17.2-11.6
		c0-9.1,5.6-21.2,14.1-30.3c23.7-27.3,73.7-25.7,104,2.5c15.1,14.1,17.2,24.7,3.5,20.2c-11.6-3.5-21.7,8.6-17.7,20.7
		c13.1,36.3,40.4,49.5,45.9,22.2c3.5-19.2,7.1-19.2,17.7,0c7.1,12.1,12.1,15.1,26.7,15.1c9.6,0,17.7-2.5,17.7-5.6
		s-8.1-15.1-18.2-26.2c-25.2-29.8-49-81.3-70.2-154.9c-10.6-34.8-19.7-64.1-20.2-65.1c-1-0.5-16.2,3-33.8,8.6
		c-67.1,21.7-86.3,23.7-251.3,23.7c-165.5,0-198.9-3-259.4-23.2c-16.2-5.6-30.8-9.1-31.8-7.6c-1.5,1.5-10.6,28.8-19.7,61.1
		c-20.7,70.2-40.4,113.1-70.7,153.9c-12.1,16.7-22.2,31.3-22.2,32.8s7.6,2.5,17.2,2.5c13.6,0,20.2-3.5,30.3-16.2l12.6-16.7l3.5,16.7
		c4,21.2,17.2,21.2,34.8,0.5c16.7-20.2,16.2-42.9-1-41.4c-14.1,1.5-15.1-8.6-2.5-20.2c42.9-38.9,117.1-23.7,117.1,24.2
		c0,18.2-4,21.7-13.6,12.1c-8.1-8.1-31.8,16.7-31.8,33.3c0,10.6,2.5,12.6,15.1,12.6c17.7,0,19.2,5,5,17.7
		c-13.1,12.1-12.6,25.2,1,34.8c14.6,10.1,36.3,10.1,46.4,0c9.6-9.1,9.6-8.6,2-24.7c-7.1-16.2-3-20.2,11.6-12.1
		c10.1,5,12.6,4.5,20.7-5.6c17.7-21.7,9.1-45.4-17.2-45.4c-19.2,0-17.7-5.6,6.1-27.3c23.2-21.2,37.3-25.2,69.6-21.7
		c29.3,3,56.5,29.3,56.5,54.5c0,14.1-1,15.1-14.1,12.1c-19.2-4-32.8,10.6-30.3,33.8c1.5,15.1,3,16.7,18.2,15.6
		c16.2-0.5,16.2,0,13.1,16.2c-2.5,13.6-1,18.2,9.1,24.7C2996.3,11785.3,3019,11783.8,3031.6,11773.2z M2238.7,11585.4
		c10.1-20.7,17.2-41.4,15.6-45.4c-4.5-11.6-22.7-10.1-29.8,2.5c-24.2,38.9-94.9,43.9-129.7,9.1c-12.6-12.6-15.6-19.7-15.6-37.9
		c0-27.8,6.6-41.4,22.7-47.4c7.1-2.5,46.4-10.6,87.8-17.2c83.8-14.1,97.4-19.2,120.6-45.4c46.4-53,23.7-139.3-45.9-175.1
		c-26.7-14.1-90.8-29.8-120.1-29.8c-23.2,0-25.2,1-39.9,22.7c-19.7,28.3-31.8,57-28.3,66.1c5.6,14.1,26.2,7.6,43.4-13.6
		c27.8-34.8,71.7-44.4,114.6-24.7c28.8,12.6,42.9,35.8,40.4,64.6c-4,39.9-25.2,52.5-105.5,64.1c-65.6,9.1-82.3,14.1-110.5,32.3
		c-27.8,17.2-39.9,40.4-39.9,76.7c0,47.4,26.2,78.2,91.9,108c26.2,12.1,79.2,26.2,100.9,27.3
		C2217,11622.8,2226.1,11610.6,2238.7,11585.4z M3917.9,11587.9c54.5-21.7,79.2-38.4,78.7-52.5c0-6.1-4-24.7-8.6-41.4
		c-7.6-26.7-10.1-30.3-21.2-30.3c-11.6,0-13.1,2.5-15.6,26.2c-4,33.3-20.7,59.6-45.4,72.2c-25.7,13.1-60.1,13.1-76.7,0
		c-15.6-12.1-25.2-39.4-20.7-57.5c1.5-7.1,25.7-37.3,53-67.1c27.8-29.8,54.5-63.6,60.1-74.7c18.7-38.9,10.1-84.3-21.7-117.6
		c-20.2-21.2-27.8-25.2-58-31.3c-46.9-8.6-118.1,14.1-166.6,54l-22.2,18.2l3.5,28.3c4,31.8,16.2,66.1,23.7,66.1
		c2.5,0,9.1-2.5,14.6-5c7.6-4.5,9.6-11.1,9.6-35.8c0-35.8,8.6-54.5,33.3-73.2c12.6-10.1,25.7-14.6,45.4-16.2
		c47.9-4,72.7,15.6,72.7,58c0,24.7-9.6,39.4-59.6,94.4c-43.9,47.9-61.6,77.2-61.6,103c0,32.8,23.7,70.7,58,92.9
		C3814.9,11612.7,3866.9,11608.6,3917.9,11587.9z M4342.8,11385c11.6-12.6,2-27.3-12.6-19.7c-5,3-17.7,5-27.3,5
		c-23.7,0-34.8-15.6-97.4-135.8c-59-113.1-63.1-131.7-35.3-154.9c16.2-13.1,17.2-15.6,11.1-24.2c-6.6-8.6-11.1-7.1-87.8,32.8
		c-56,29.3-81.3,44.9-81.3,51c0,13.1,6.6,14.6,35.8,9.1c26.2-5,27.8-5,37.9,7.6c5.6,7.6,34.8,60.6,64.1,118.1
		c45.4,88.3,54,108.5,54,128.2c0,19.7-2,24.7-15.6,35.3c-13.6,10.6-15.1,13.6-10.1,23.2c6.1,10.6,7.1,10.1,81.3-27.3
		C4300.4,11412.3,4338.3,11390.6,4342.8,11385z M1815.8,11449.1c1-5.6-4.5-15.1-13.6-23.7c-25.7-23.2-22.7-36.8,36.3-151.4
		c28.3-55.5,58-109,66.1-119.1c13.1-15.6,16.7-17.2,35.3-15.6c11.6,1.5,23.7,3,27.3,4.5c4,1,9.6-2,12.6-7.1
		c7.1-10.6,13.6-6.1-86.8-60.6c-66.1-35.8-73.2-38.9-80.2-31.8c-7.6,7.1-6.6,9.6,11.1,27.8c17.7,18.2,19.2,21.7,16.7,40.9
		c-2.5,20.7-98.4,205.4-121.1,233.7c-12.1,15.1-24.2,17.7-52.5,11.1c-13.1-3-17.2-2-19.7,5c-2,4.5-0.5,11.6,3.5,15.1
		c10.6,10.1,152.4,83.3,158.5,81.3C1812.3,11458.7,1815.3,11453.7,1815.8,11449.1z M3159.3,11410.8c88.3-14.1,126.2-43.9,126.2-98.9
		v-18.7l-11.6,10.6c-38.9,36.3-122.6,34.8-208.4-4c-17.2-7.6-32.8-16.7-34.8-20.2c-2-3,2.5-50.5,10.6-105.5
		c7.6-54.5,12.6-103,10.6-107.5c-1.5-4.5-12.1-11.1-22.7-14.6c-16.7-4.5-24.2-4.5-45.4,2.5c-22.2,7.6-27.3,7.6-42.4,1.5
		c-18.7-8.1-54.5-36.8-54.5-44.4c0-2.5,8.6-4.5,19.2-4.5c10.1,0,32.3-3.5,49-7.6c44.4-10.6,79.2-9.6,94.9,2.5
		c15.1,12.1,31.3,12.6,90.3,3c89.3-14.6,145.4-53.5,145.4-101.4c0-31.8-4.5-35.3-32.8-25.2c-13.6,4.5-64.6,15.1-113.1,23.2
		c-89.3,15.6-106.5,21.2-116.6,39.9c-8.6,16.2-29.8,12.6-51-8.1c-17.7-17.2-20.7-18.2-85.8-27.8c-63.1-9.6-127.2-23.2-146.9-31.8
		c-6.6-3-9.1-0.5-11.6,14.1c-4.5,23.2,4,47.4,25.2,72.7c10.1,11.6,17.7,25.7,17.7,33.3c0,7.1-8.1,36.8-17.7,65.6
		c-20.7,62.1-22.2,90.8-6.6,135.3c10.6,30.8,10.6,32.3,2.5,75.2c-13.1,65.6-11.6,88.3,6.1,105.5c16.2,16.2,51.5,27.8,104,34.8
		C2909,11416.3,3119.9,11416.8,3159.3,11410.8z M1494.8,11240.7c30.3-31.8,36.3-43.9,26.7-52c-6.6-5.6-12.1-4-32.3,7.1
		c-39.4,21.2-69.1,16.7-102.5-16.2c-32.3-30.8-30.8-72.7,3.5-88.8c20.2-10.1,33.8-10.1,85.8-0.5c62.1,11.1,107,10.1,133.2-3.5
		c51.5-26.7,70.2-88.3,43.9-142.3c-16.7-34.3-55.5-70.2-96.4-89.3c-58-27.8-74.7-24.7-114.1,23.7l-20.7,24.2l10.6,8.6
		c10.1,8.6,12.1,8.1,43.9-8.6c51-26.7,84.3-21.2,120.6,18.7c13.6,15.1,17.7,24.2,17.7,38.9c0,21.2-14.6,47.9-30.8,56.5
		c-12.6,7.1-72.7,4.5-133.7-5c-52.5-8.6-78.2-2.5-107.5,26.7c-47.9,47.4-41.9,107,17.2,158.5c18.2,16.7,100.4,67.1,108.5,67.1
		C1470.1,11264.4,1481.7,11253.8,1494.8,11240.7z M3272.9,11248.3c8.6-9.1,17.7-49.5,17.7-79.2c0-15.1-6.1-40.9-15.1-66.1
		c-8.1-22.7-15.1-46.4-15.1-53v-11.6l-39.9,17.2c-22.2,9.6-51.5,18.7-65.6,20.7c-14.1,1.5-27.8,5.6-29.8,8.6
		c-8.1,10.6-36.3,85.3-33.3,88.3c1.5,1.5,38.9,3,83.3,3c73.7,0,80.2,0.5,80.2,9.1c0,17.7-14.1,42.4-33.3,58.5l-19.7,16.7l32.3-2.5
		C3252.2,11256.4,3269.3,11252.3,3272.9,11248.3z M4604.8,11211.4c52.5-13.6,94.9-40.4,152.9-95.4l54-51.5l-30.3-45.9
		c-16.2-25.7-31.3-46.4-32.8-46.4c-1.5-0.5-6.6,2.5-11.1,6.1c-7.6,5.6-7.6,8.1-0.5,33.3c16.2,54.5-8.6,106-65.6,135.8
		c-21.2,11.1-32.8,13.6-63.6,13.6c-32.8,0-42.4-2-71.7-16.7c-40.4-19.7-69.6-51-91.4-96.4c-13.1-27.8-15.6-38.4-15.1-70.7
		c0-44.4,8.1-66.6,35.8-97.4c21.2-23.7,59-49.5,72.7-49.5c11.1,0,45.9,33.8,57,55.5c9.1,17.2,10.1,14.1-25.2,64.1
		c-3.5,5-2.5,9.1,4,14.1c8.6,6.1,16.2,1.5,75.7-46.4c36.8-29.3,67.1-56,68.1-59.6c2.5-10.6-12.1-19.2-23.7-13.1
		c-5.6,3-14.6,5.6-20.2,5.6c-13.6,0-44.4-28.3-66.1-60.6c-20.7-29.8-20.2-29.8-73.7,0.5c-120.6,69.1-174.1,146.4-167.1,240.2
		c6.6,85.8,69.6,165,146.9,183.7C4540.2,11220.5,4574,11219.5,4604.8,11211.4z M1152.6,11004c7.6-7.1,7.1-9.1-2-20.7
		c-5.6-7.1-10.1-20.7-10.1-29.8c0-20.2,8.6-30.3,134.2-162c51-53.5,92.9-99.4,92.9-101.9s-2.5-6.6-6.1-8.6c-3.5-2-104-5-223.6-6.6
		l-217-3l63.6-51c131.7-105.5,153.9-116.6,184.7-90.8c14.6,12.1,16.7,12.6,23.7,5c7.6-7.1,7.6-9.1-1.5-21.2
		c-30.3-41.4-85.3-104.5-92.4-106c-11.6-2-15.1,13.1-6.6,25.7c21.2,30.3,5,55-76.7,118.6c-35.3,27.8-79.2,62.1-96.9,76.2
		c-35.8,28.8-54.5,32.8-76.2,15.6c-14.6-11.6-22.2-12.6-29.3-3.5c-3.5,4.5,6.1,19.7,34.8,56.5l39.9,50.5l190.3-2l189.8-1.5
		l-15.1,19.2c-34.3,42.9-146.4,148.4-157.5,148.4c-6.1,0-19.2-5.6-29.3-12.6c-14.1-9.1-20.7-11.1-27.8-7.1c-5,2.5-9.1,6.6-9.1,8.6
		c0,3,111.5,112,114.6,112C1144.6,11012.1,1148.6,11008.5,1152.6,11004z M5028.7,10849.1c66.1-71.2,75.7-84.3,66.6-93.4
		c-6.1-6.6-9.1-6.1-22.2,3.5c-20.2,14.1-40.9,13.6-63.6-2c-34.8-23.7-178.2-159-184.7-174.1c-5.6-13.1-4.5-17.7,4.5-36.3
		c7.6-16.2,9.1-22.7,4.5-27.8c-3-4-8.1-6.6-11.1-5.6c-4.5,1-49,48.5-116.1,124.2c-9.1,10.6-9.6,12.1-2,19.2
		c7.6,7.6,9.6,7.6,22.7-1.5c38.4-27.3,51-20.2,164,90.3c92.4,90.3,98.9,100.4,80.2,125.7c-9.1,12.1-10.1,16.7-5.6,22.7
		c3.5,4,8.1,7.1,10.1,7.1C4978.7,10901,5002,10877.8,5028.7,10849.1z M3151.7,10838c95.9-11.1,98.4-12.1,104.5-27.3
		c30.3-78.2,55-327.5,39.9-400.2c-11.6-54.5-46.4-74.2-140.3-78.2c-104.5-5-104.5-5-120.1,170.1c-4.5,48.5-9.6,89.8-12.1,92.4
		s-11.6,3.5-21.2,2.5c-20.7-2-21.7-6.1-29.8-110c-7.6-97.9-14.1-135.3-26.7-147.9c-9.1-9.1-14.1-9.6-61.1-7.1
		c-51,3-104,15.6-126.7,30.8c-18.2,11.6-26.7,31.8-35.3,81.3c-13.6,79.7-6.6,188.3,21.7,330.6l8.6,42.9l25.2,6.1
		C2865.1,10845,3036.2,10851.6,3151.7,10838z M1770.4,10794c3.5-3.5,6.1-11.1,6.1-17.7c0-6.6,3-11.6,7.1-11.6
		c13.6,0,23.2-15.1,23.2-36.3c0-21.2-10.6-39.4-23.7-39.4c-4.5,0-6.6-6.6-6.6-19.7c0-38.4,19.2-66.1,44.9-66.1
		c14.1,0,15.1,1.5,20.7,29.3c15.6,79.7,31.8,112,55,112c20.7,0,35.8-17.2,35.8-40.9c0-21.2-15.1-43.4-31.8-45.9
		c-14.1-2-17.2-21.7-21.7-137.8l-3-85.8l-20.7-20.2l-20.2-20.2l18.7-95.9c10.1-52.5,30.3-167.6,45.4-254.9
		c52.5-305.8,51.5-286.7,18.2-299.8c-34.3-13.6-65.1-9.1-72.7,10.6c-8.1,21.2-58,396.7-74.7,566.8l-6.6,63.1l-17.7,8.1
		c-27.3,13.1-33.3,22.2-60.6,97.9c-35.8,99.9-44.4,115.1-64.1,119.1c-24.7,5-40.4,17.2-46.9,37.3c-5,15.1-4.5,20.2,2,30.3
		c11.6,17.7,30.8,21.2,47.4,9.1c7.6-5.6,25.2-27.8,39.9-50c40.4-61.1,38.9-59,50.5-55.5c17.2,5.6,28.3,45.4,22.2,81.3
		c-3,18.2-4.5,20.2-16.7,18.7c-27.3-3-45.9,51-23.7,66.6c8.1,5.6,10.1,10.6,7.6,20.2c-2.5,9.6,0,14.6,10.1,22.7
		C1729,10801.1,1760.8,10803.6,1770.4,10794z M2636.4,10771.8c4.5-4,8.1-9.1,8.1-10.6c0-1.5-8.1-25.7-17.7-54
		c-31.3-91.9-33.8-122.6-36.3-447.2c-1.5-178.7-0.5-337.6,3-413.9c6.6-135.3,24.2-451.2,27.8-493.1l2-26.2l-25.7,3
		c-57,6.1-109.5,43.9-133.2,95.4c-11.6,25.2-42.9,144.3-96.9,367.9c-29.3,122.1-43.4,148.9-124.7,235.2
		c-87.8,92.9-107.5,117.1-137.8,170.1c-74.7,130.2-113.6,266.5-89.3,312.9c18.7,36.3,249.3,150.9,421.9,209.4
		c65.6,22.2,180.7,58.5,187.7,59C2627.4,10779.9,2632.4,10776.4,2636.4,10771.8z M3480.3,10755.2c173.1-49,338.7-117.1,482.5-198.3
		c79.2-44.4,86.8-56.5,75.2-122.6c-9.1-54.5-44.4-166.5-66.1-208.9c-26.2-52.5-42.4-71.7-162-194.8
		c-136.8-141.3-133.7-134.8-186.7-371c-48.5-216.5-62.1-256.9-98.9-287.2c-33.3-27.3-106.5-54.5-117.1-42.9
		c-2.5,2.5-2.5,30.3,0,62.6c25.7,352.8,37.9,759.6,30.3,1000.8c-6.1,190.8-13.1,245.8-38.4,313.4c-19.7,53-20.2,54-11.6,62.6
		C3396.5,10777.9,3403.6,10776.9,3480.3,10755.2z M4364,10681.5c15.6-10.6,15.1-25.2-4-88.3c-8.1-28.8-14.6-58-13.6-65.1
		c1.5-11.1,4-13.1,20.7-14.6c10.6-1,34.8,2,54,6.1c43.9,10.1,70.7,10.1,84.8,0c9.1-6.1,11.1-12.6,11.1-34.8c0-23.2-2-28.3-13.1-37.3
		c-7.6-6.1-17.7-10.6-22.7-10.6c-4.5,0-34.3,9.1-65.6,20.2c-33.8,12.1-60.6,19.2-66.6,17.2c-9.1-3-9.6-6.1-6.6-34.3
		c12.1-112.5,10.1-134.8-15.1-144.3c-16.2-6.1-17.2-32.3-1.5-40.4c25.7-14.1,30.3-60.1,17.2-184.7c-4.5-40.4-6.6-75.2-5-78.2
		c2-2.5,6.6-4.5,11.1-4.5c17.7,0,76.2-34.8,106.5-62.6c47.9-45.4,81.8-124.7,81.8-193.3c0-15.1-0.5-15.1-31.8-17.7
		c-40.9-3.5-75.2-18.7-87.3-38.4l-9.1-15.6l-11.6,16.7c-24.2,35.8-87.3,49.5-108.5,23.7c-10.1-13.1-9.6-13.1-32.3,2
		c-13.6,9.1-25.2,12.6-43.9,12.6c-22.7,0-27.3-2-43.4-19.2c-17.7-18.7-19.2-19.2-34.3-12.6c-9.1,3.5-23.2,5-31.8,3.5
		c-16.2-3.5-40.4-27.8-40.4-40.9c0-6.6-1-6.6-8.1-1c-4.5,3.5-18.7,8.1-31.8,9.6l-23.2,2.5l-4,27.8c-6.1,39.9-0.5,110.5,11.6,142.3
		c29.3,77.2,126.2,160.5,196.8,169.1c28.8,3.5,30.3,6.6,30.3,59.6c0,49.5,9.1,151.9,15.1,174.6c4,14.1,9.1,20.2,20.2,24.2
		c12.6,4,15.1,7.6,15.1,22.2c0,11.6-4,20.7-12.6,28.8c-16.7,15.6-16.2,34.8,2.5,100.4c17.2,59.6,18.2,70.2,7.6,74.2
		c-4,2-34.3-2-67.1-8.1c-32.8-6.6-65.6-10.1-72.7-8.6c-16.7,4.5-30.8,32.8-26.2,52.5c5,20.2,21.7,36.8,37.9,36.8
		c7.1,0,35.3-8.1,62.1-17.7c26.7-9.6,55.5-17.7,63.6-17.7c14.6,0,15.1,1,15.1,21.7c0,11.6-3.5,43.9-7.6,71.7
		c-7.1,47.4-7.1,51,2,63.1C4304.5,10694.6,4338.3,10698.2,4364,10681.5z M5276,10542.2c23.7-35.3,43.4-67.6,43.4-71.7
		c0-14.1-16.1-14.6-30.3-1c-15.1,14.6-33.8,16.2-57,4.5c-22.2-11.6-180.7-120.6-197.3-135.8c-16.7-15.6-16.7-33.3,0-65.6
		c31.3-60.1,78.7-85.8,125.2-68.6c13.6,5.6,26.2-4,21.7-16.2c-2-6.1-89.3-38.9-103-38.9c-3,0-17.7,19.7-32.3,44.4
		c-34.3,56.5-90.8,141.8-119.6,179.2c-18.2,23.7-21.2,30.3-16.2,36.3c8.6,10.6,14.6,9.6,28.3-5c22.7-24.2,41.9-16.7,160,66.1
		c113.1,79.2,123.7,91.3,106.5,124.2c-7.6,15.1-7.6,16.2,1,22.7C5218.5,10625.5,5220.5,10623,5276,10542.2z M743.3,10476.6
		c46.4-26.2,46.9-26.7,39.9-42.4c-5-11.1-7.6-11.6-18.7-7.6c-7.6,3-23.7,5-36.3,5c-20.7,0-25.2-2.5-41.4-19.7
		c-26.7-29.3-60.1-93.9-53.5-104c6.6-11.1,108-69.1,113.6-65.6c2.5,1.5,13.6,19.2,24.7,39.4c31.3,56.5,31.3,56.5,45.4,45.4l11.6-9.6
		l-26.2-46.9c-15.6-26.7-24.7-48.5-22.2-51c14.1-13.1,96.9-55.5,109-55.5c25.2,0,66.1,66.6,66.6,109c0.5,21.7-2,29.8-16.7,50
		l-17.2,23.7l10.6,10.1l10.6,10.6l29.3-25.2c16.2-14.1,34.3-31.3,40.9-38.4l11.6-12.6l-27.3-41.9c-33.8-53-82.3-136.8-106-184.7
		c-20.7-40.4-26.7-46.4-36.8-36.3c-5.6,5.6-5.6,11.1-1.5,25.2c7.6,23.7-1,42.4-28.3,60.6c-25.7,16.7-187.7,104-207.9,111.5
		c-20.2,7.6-40.9,1.5-47.9-13.6c-6.1-13.6-12.1-15.1-24.2-7.6c-6.6,4-3.5,12.6,18.7,56.5c35.8,71.2,134.8,236.2,141.3,236.2
		C706,10497.3,723.1,10488.2,743.3,10476.6z M1415.6,10423.1c1.5-7.1,29.3-67.6,61.1-134.2c50.5-106,57-122.1,50.5-128.7
		c-6.1-6.6-9.1-4-22.2,19.7c-8.6,14.6-33.3,63.6-54.5,109c-21.7,45.4-41.9,82.3-44.9,82.3s-18.7-16.2-34.8-35.8
		c-29.3-34.8-29.3-36.3-26.7-60.6c2-18.2,1.5-24.7-3.5-24.7c-5.6,0-37.3,40.4-39.9,51c-1.5,7.1,98.4,134.8,105.5,135.3
		C1409.5,10436.7,1413.6,10430.7,1415.6,10423.1z M4703.7,10307c32.3-40.4,41.9-57.5,31.8-57c-2.5,0-8.6,3.5-13.6,7.6
		c-20.2,15.1-35.3,9.6-94.4-36.3c-31.3-24.7-61.1-50.5-66.6-58c-9.1-12.1-9.1-14.1-2-28.8c7.6-15.1,3-27.8-6.6-17.7
		c-17.7,19.7-70.7,89.3-70.7,92.9c0,7.6,13.1,6.1,20.2-2.5c13.1-15.6,32.8-8.6,80.2,27.8c64.6,50.5,88.3,73.7,84.8,84.3
		c-9.1,28.8-9.6,31.8-4,31.8C4665.3,10350.9,4684,10331.2,4703.7,10307z M1267.2,10184.9c8.6-8.6,14.6-20.2,14.6-27.8
		c0-17.7,8.1-20.7,23.2-8.6c54,42.4,122.6-42.9,103.5-128.2c-8.6-37.3-32.8-66.1-52-61.6c-26.7,7.1-22.7,31.3,6.6,38.9
		c30.3,8.1,37.3,31.3,21.7,70.7c-13.1,32.8-46.9,50.5-76.2,39.9c-17.7-6.1-26.7-22.7-26.7-47.9c0-15.6-1.5-17.7-11.1-16.2
		c-11.1,1.5-11.6,3-9.6,45.9c1.5,40.9,0.5,45.9-10.1,57c-23.7,25.7-50.5,8.6-55-34.8c-2-18.7-4.5-26.2-10.1-26.2s-8.1,7.1-9.1,27.3
		c-2,33.3,5,51.5,27.8,71.2C1227.3,10204.6,1247.5,10204.6,1267.2,10184.9z M5485,10188.4c8.1-10.1,67.1-140.8,70.2-155.4
		c4-22.2-10.6-23.2-30.3-2c-15.1,17.2-17.7,18.2-39.4,15.6c-24.2-3-218.5-86.3-241.8-104c-18.7-14.1-16.7-45.4,5.6-89.3
		c20.7-42.4,40.9-57.5,74.7-57.5c34.8,0,45.9-4.5,45.9-17.7c0-10.6-3.5-12.1-42.9-17.7c-23.2-3.5-50-6.6-58.5-7.1l-15.6-0.5
		l-41.9,103.5c-22.7,57-50,120.6-60.1,141.3c-18.2,37.3-18.2,37.9-7.6,42.9c9.1,3.5,13.1,2,24.7-12.1c12.6-15.6,15.1-17.2,36.3-14.6
		c28.3,3,236.2,96.4,251.8,113.1c9.1,9.6,10.6,15.6,8.6,34.3C5461.2,10189.4,5472.3,10203.6,5485,10188.4z M4789.5,10078.4
		c59.6-8.6,112.5-16.7,117.6-18.2c10.6-3.5,11.6-16.2,1.5-20.2c-4-1.5-51,3.5-103.5,11.1c-53,7.6-97.9,12.6-99.4,10.6
		c-3.5-3.5,24.7-55,35.3-63.6c5-4.5,12.1-2.5,28.8,7.1c28.3,16.2,31.8,15.6,44.4-2l10.6-14.6l-28.3-16.2
		c-29.8-17.2-29.3-17.2-19.7-49c5-16.2-10.1-15.6-20.7,1c-10.1,15.6-22.7,16.2-39.9,1c-12.1-10.1-12.6-12.6-7.6-25.7
		c3.5-10.1,3.5-16.7,0.5-19.7s-6.1-4.5-7.1-3c-8.6,11.6-54,95.4-54,99.9c0,8.6,7.6,6.6,17.7-4.5c5-5.6,14.1-10.1,19.7-10.1
		c13.6,0,33.3,13.6,33.3,22.7c0,4-12.6,27.8-28.3,53c-26.2,42.4-30.3,55.5-15.6,55.5C4678.5,10093.5,4729.9,10086.5,4789.5,10078.4z
		 M472.8,10032c2-3.5,4-17.7,4-30.8c0-37.3,3.5-39.4,175.1-102.5c40.9-15.1,82.3-27.3,92.4-27.3c17.7,0,33.3,11.1,45.4,32.3
		c4.5,7.6,6.1,7.6,14.6,1.5c9.1-6.6,8.1-10.6-22.7-90.8c-27.3-72.2-33.8-84.3-42.9-84.3c-15.1,0-16.2,3-10.6,25.2
		c9.6,35.8-9.1,48.5-156.5,101.4c-115.6,41.9-135.8,43.4-149.4,10.1c-5-12.1-8.1-13.6-17.7-10.1s-10.6,6.6-8.1,18.2
		c3.5,15.6,50.5,139.8,58,154.4C460.2,10039.5,467.3,10040.5,472.8,10032z M1113.3,10005.2c5.6-8.6,4-17.2-9.6-59.6l-15.6-49.5
		l11.1-11.1l11.1-11.1l27.8,31.3c30.8,34.3,52.5,44.9,83.8,40.4c25.2-3.5,46.9-19.2,62.6-45.9c10.6-18.2,12.6-27.8,12.6-63.1
		c0-43.4-10.1-78.7-21.2-74.7c-3.5,1-6.1,7.6-5,14.1c7.6,64.1,7.1,74.2-4.5,94.9c-29.8,53.5-85.8,42.4-122.1-24.2l-8.6-16.7
		l-29.3,25.2c-15.6,14.1-34.3,30.8-40.9,37.9l-11.6,13.1l18.7,56C1091.6,10020.3,1098.6,10027.4,1113.3,10005.2z M4994.9,9826
		c33.3-77.7,37.9-94.4,23.2-88.3c-5,1.5-69.6,5.6-143.8,9.1c-74.2,3-137.8,7.1-140.8,9.1c-3.5,2-4.5,7.6-2.5,12.1
		c3,8.1,12.1,8.6,124.7,5l121.6-3.5l-3.5,12.1c-2,6.1-11.6,28.8-22.2,49.5c-16.7,34.8-19.7,38.4-36.8,41.9
		c-10.6,2.5-19.2,7.6-19.2,11.6c0,3.5,8.1,8.1,19.2,9.6c10.1,2,22.2,4,26.2,5C4959.6,9903.3,4964.1,9896.7,4994.9,9826z
		 M5652,9761.9c28.8-93.9,35.3-126.7,27.8-133.2c-8.6-7.1-15.1-2.5-24.7,16.2c-12.6,23.7-27.3,19.7-108.5-31.8
		c-40.4-25.2-92.9-58.5-117.6-73.7c-24.2-15.6-42.9-28.8-41.9-29.8c3-3,174.6-31.3,225.1-36.8c23.7-2.5,50-3,58-1
		c13.1,3.5,15.6,7.1,17.7,26.7c2,15.6,5,22.7,11.1,23.7c12.1,2.5,16.2-10.1,29.3-87.3c8.6-51.5,9.6-65.1,4.5-68.6
		c-10.1-6.1-24.7,4.5-24.7,17.7c0,14.6-12.6,26.2-39.4,35.3c-16.2,6.1-217,40.9-322.5,56.5c-12.6,2-20.2,8.1-31.8,25.2
		c-25.7,36.8-38.9,23.7,154.9,145.9c57,36.3,114.1,75.2,126.7,86.8c21.7,20.7,22.7,21.7,20.2,46.4s0,29.3,14.6,30.3
		C5634.4,9810.9,5643.4,9789.2,5652,9761.9z M1018.4,9784.7c-3.5-22.7-1-28.3,20.2-38.9c40.9-20.7,144.3-56.5,154.9-54
		c6.1,1.5,13.6,8.6,17.7,15.6c7.1,13.1,23.2,18.2,18.7,5.6c-1.5-3.5-11.6-30.8-22.2-60.6c-10.6-29.3-21.2-52.5-24.2-52
		c-2.5,1-5.6,11.1-6.6,22.2c-1,11.6-4.5,23.2-8.1,26.2c-7.6,6.6-131.7,54-151.9,58c-17.2,3.5-23.7,0-32.3-15.6
		c-3-6.1-8.6-10.1-12.6-8.6c-5.6,2-3,12.6,10.6,49C1005.8,9794.7,1023.9,9821.5,1018.4,9784.7z M2046.5,9728.1
		c22.2-9.6,29.8-23.7,25.2-51.5c-3-20.2-2-22.7,8.6-26.7c29.3-11.1,36.8-45.9,17.2-82.3c-12.1-23.2-12.1-23.7-2.5-26.7
		c26.2-8.6,31.3-60.6,7.6-82.8c-11.6-11.1-12.1-12.6-5-29.3c10.6-24.7,2-46.4-28.8-74.2c-41.4-36.8-109-57-175.1-51.5
		c-48.5,4-70.7,13.1-74.2,31.8c-2,7.6-4,19.2-5.6,25.7c-1.5,6.6-8.1,20.2-14.6,30.3c-7.6,12.1-13.1,30.3-15.6,51
		c-2.5,21.2-7.6,38.9-15.1,50c-10.6,15.6-11.6,21.2-9.1,51c2.5,28.3,1.5,36.3-8.1,55c-14.1,26.7-14.1,54-0.5,81.3
		c14.1,27.8,26.2,29.8,74.7,13.1c64.6-22.7,122.1-12.6,160,27.3C2002,9737.2,2018.7,9739.2,2046.5,9728.1z M362.8,9705.4
		c5-3,6.1-10.1,4-23.7c-6.1-35.3,1-38.4,213-92.4c65.1-16.7,121.1-33.3,125.2-37.3c9.1-9.1,11.1-7.6-162.5-117.1
		c-176.6-111-199.4-125.7-199.4-129.7c0-5,19.2-7.6,107-16.7c137.3-14.1,166-10.1,173.1,23.2c3.5,16.7,15.1,24.2,23.7,15.6
		c6.6-6.6-8.1-146.4-15.6-153.9c-9.1-9.1-19.7,1-23.2,22.7c-4.5,27.3-9.1,32.8-32.8,39.4c-29.8,8.1-189.8,25.2-235.2,25.2
		c-44.4,0-50-3-57-28.8c-2.5-9.6-7.6-14.6-15.6-15.6c-11.6-2-11.6-2-8.6,40.4c6.6,82.3,8.6,89.3,25.7,98.4
		c37.9,19.2,300.8,185.7,300.8,190.8c0,7.1-181.7,53.5-206.9,53c-22.7,0-26.7-3-39.9-28.8c-10.6-21.2-23.7-28.3-28.8-15.1
		c-2.5,7.1,25.7,131.2,33.8,145.9C349.2,9711,352.7,9712,362.8,9705.4z M4566.4,9656c21.7-23.7,11.6-91.9-15.1-100.4
		c-62.6-19.7-117.1,47.9-75.7,94.4C4499.3,9676.1,4544.7,9679.7,4566.4,9656z M4273.7,9634.3l20.7-15.1l13.6,12.6
		c28.8,26.7,64.6,12.6,88.8-35.3c20.7-40.9,38.9-62.1,63.1-74.2l24.2-12.1l-3.5-23.7c-3.5-27.8-13.6-44.9-31.8-57
		c-12.6-8.1-44.4-10.6-63.1-4.5c-7.1,2-16.2-1.5-28.8-12.1c-24.2-20.2-50.5-20.7-81.8-2.5l-22.7,12.6l-24.7-13.6
		c-29.3-15.6-47.4-14.1-74.7,8.1c-16.7,13.1-21.2,14.6-43.9,11.6c-23.2-2.5-26.7-1.5-37.9,10.6c-29.3,31.3-43.4,82.8-31.8,111.5
		c8.6,20.7,24.2,28.3,45.4,22.2c18.7-5.6,23.2-2.5,23.2,15.6c0,17.2,20.2,35.3,38.9,35.3c6.6,0,19.2-3.5,28.3-8.1
		c11.1-6.1,16.2-6.6,17.7-2.5c1,3,7.6,12.6,14.6,20.7C4224.2,9654.4,4245.9,9654.4,4273.7,9634.3z M5053.9,9612
		c34.3-14.1,55-66.6,43.4-109c-8.1-29.3-36.3-56.5-68.1-65.6c-30.3-8.6-74.7-8.6-100.9,0c-30.3,9.6-70.7,42.9-93.4,76.7
		c-21.7,32.3-24.7,44.4-12.6,44.4c4,0,7.6-1.5,7.6-4c0-10.6,49.5-58.5,72.7-70.2c71.7-36.3,177.1-4.5,177.1,54
		c0,26.2-13.6,40.4-38.9,40.4c-22.2,0-42.4-9.1-57-25.2c-7.1-8.1-9.6-17.2-8.6-35.3c1.5-31.3-9.6-29.8-22.2,3
		c-14.6,38.4-1.5,71.7,34.8,88.3C5013.1,9620.6,5031.2,9621.6,5053.9,9612z M1121.9,9457.1c10.1-5.6,18.7-10.1,18.7-11.1
		c-3-25.7-39.9-187.7-43.4-187.7c-2.5,0-5.6,6.6-7.1,15.1c-3,18.7-19.7,27.8-51.5,27.8h-23.7l-3-28.8c-6.1-53.5-6.1-54.5,20.7-69.1
		c28.3-16.2,45.4-17.2,49-3c1.5,5.6,5.6,10.1,8.6,10.1c5,0,5.6-9.6,3-38.9c-2-21.7-5.6-41.4-8.1-43.9c-6.1-6.1-15.1,1-15.1,11.6
		c0,12.6-14.6,24.7-88.3,71.2c-74.2,46.9-99.4,60.6-111.5,60.6c-6.1,0-7.6,3-5.6,13.1c1,7.6,10.1,52,19.2,98.9l17.2,85.3l29.8-1.5
		c36.3-2,41.4-10.6,12.1-19.7c-25.2-8.1-36.8-26.7-42.4-68.6l-3-25.7l26.7-3.5c15.1-2,36.3-2.5,47.4-1.5
		c18.7,1.5,20.2,2.5,23.7,21.7c7.6,38.9,9.1,42.9,17.7,42.9c6.6,0,7.6-4,5-22.7c-2-12.6-4.5-28.3-6.6-35.3l-3-12.6h39.4
		c22.2,0,42.4,2,45.4,4c8.1,5,17.2,39.4,17.2,63.6c0,15.6-3.5,22.2-18.2,35.8C1061.8,9472.8,1077.4,9479.3,1121.9,9457.1z
		 M2083.8,9235.5c1-65.6-41.4-112.5-108-119.6c-69.1-7.1-126.2,43.4-136.8,121.6l-3.5,23.7l19.2-12.6c22.7-15.6,45.4-20.7,85.8-20.2
		c44.9,0.5,80.2,14.1,108,41.9l23.2,23.2l6.1-17.7C2080.8,9266.3,2083.8,9248.2,2083.8,9235.5z M5401.2,9219.4
		c9.6-31.8,26.2-37.9,118.6-44.9c41.9-3,101.9-4.5,132.7-3.5c52,1.5,57,2.5,66.1,13.6c5,6.6,9.6,18.2,9.6,25.7
		c0,17.2,12.6,29.8,21.7,20.7c6.1-6.1,12.6-62.1,13.1-115.1c0.5-25.7-1-31.8-7.6-31.8c-24.2,0-264.5-109.5-264.5-121.1
		c0-6.1,170.1-89.3,231.2-112.5l42.4-16.2l-3.5-47.9c-5.6-87.3-7.6-95.9-20.7-95.9c-9.6,0-12.1,3.5-14.6,22.7
		c-2,12.1-6.6,25.2-10.6,28.3c-10.1,8.1-141.8,11.6-222.6,5.6c-74.7-5.6-87.8-10.6-95.4-37.3c-5.6-19.2-27.3-27.8-27.3-10.6
		c-0.5,29.8,12.6,156.5,16.2,161c2.5,3.5,9.1,5,14.1,3.5c7.6-2,10.1-7.1,10.1-19.7c0-11.6,3-18.7,9.6-22.2
		c11.6-6.1,256.9-7.1,266.5-1c4,2.5-52.5,31.8-147.9,76.7c-84.8,40.4-156.5,77.2-159,82.3c-4,6.6-2.5,9.6,6.6,13.6
		c6.6,2.5,61.6,26.7,122.6,54.5c61.1,27.3,126.2,56,144.8,64.1s32.3,16.2,30.3,18.2c-2,2-57,5-122.6,7.1c-104,3.5-120.6,3-134.2-4.5
		c-13.6-6.6-16.2-11.1-17.7-29.3c-1-18.2-3.5-22.2-12.6-23.2c-13.6-2-14.1,0-21.2,86.8c-4.5,52-4.5,66.1,0.5,69.6
		C5388.6,9244.1,5394.1,9240.1,5401.2,9219.4z M5149.3,9223.4c5.6-14.1,15.1-195.3,10.6-199.4c-2.5-2.5-18.7-5.6-35.8-7.1
		c-24.2-2-31.8-1-33.8,4.5c-2,5,4,10.6,19.2,17.2c28.3,11.6,33.3,21.7,33.3,61.6c0,47.4-4.5,51.5-52,46.9l-38.9-3.5v-34.8
		c0-31.3-1-34.8-10.1-34.8c-8.6,0-10.1,3.5-10.1,24.7c0,37.9-2.5,40.9-30.8,40.9c-13.6,0-32.8-3.5-42.4-7.1
		c-15.6-6.6-17.7-9.6-17.7-25.7c0-14.6-1.5-18.2-8.6-16.7c-7.6,1.5-9.6,9.1-12.1,39.4c-2,20.7-4,46.9-5,58
		c-2.5,23.7,7.1,27.8,17.2,7.6c4.5-8.6,11.1-13.1,22.2-14.1c22.7-2,156.5,13.1,167.6,19.2c5,2.5,11.1,10.6,12.6,17.7
		C5138.2,9232,5145.3,9234.5,5149.3,9223.4z M3067.5,9137.6c9.1-4.5,19.2-14.1,22.2-21.2c5.6-11.1,4-16.7-8.6-40.4
		c-8.1-14.6-13.1-28.3-11.1-30.3c1.5-2,11.1,0.5,20.7,5c22.7,10.6,34.3,10.1,50-2c36.8-29.3,21.7-103.5-25.2-121.6
		c-18.2-6.6-23.2-6.1-43.9,8.1c-30.8,20.7-34.8,10.1-17.7-45.4c12.6-41.4,35.3-67.6,74.2-86.8c26.7-13.1,33.3-14.1,89.3-14.1
		c54.5,0,63.1,1.5,88.3,13.1c15.1,7.1,35.3,19.7,44.9,27.8c16.7,14.1,45.9,55,45.9,64.1c0,2.5-14.6,2.5-33.3,1
		c-29.8-3.5-33.8-2.5-44.9,7.6c-16.2,15.1-20.7,39.9-12.6,68.1c13.1,46.9,44.9,60.6,81.8,35.3c31.3-21.2,39.4-13.1,16.7,17.7
		c-16.2,21.7-17.2,54-2.5,69.6c29.8,31.8,108.5,25.2,140.8-11.6c8.6-10.1,15.6-21.7,15.6-25.7c0-19.2-31.3-57.5-46.4-57.5
		c-5.6,0-9.1-3.5-9.1-9.1c0-8.1,3.5-9.1,30.3-7.1c54.5,4,67.1-16.2,43.4-67.6c-20.2-42.9-51-60.6-81.8-45.4
		c-27.8,13.1-32.3,11.1-32.3-14.6c0-29.3,9.6-51.5,30.8-71.7c47.4-44.9,140.8-52.5,214-16.7c36.8,17.7,68.1,45.4,68.1,60.1
		c0,9.1-2,10.1-13.6,7.1c-36.3-9.6-60.1,4.5-54.5,33.3c8.1,41.9,39.4,84.3,73.2,97.9c30.8,12.6,45.9,1,53-40.4
		c2-12.1,6.1-21.7,9.6-21.7c3,0,10.1,9.6,15.6,21.2c14.6,30.8,31.8,41.4,72.2,43.4c34.3,2,61.6-4.5,61.6-14.1
		c0-3-24.2-30.8-53.5-62.1c-80.2-84.8-140.8-180.2-206.9-327c-15.6-34.3-28.8-63.1-29.3-63.6c-0.5-1-20.2,2-43.9,6.1
		c-167.6,29.8-516.3,51.5-733.8,45.9c-227.1-5.6-497.1-28.8-601.6-51c-10.1-2.5-16.7,8.1-66.6,109.5
		c-67.6,137.8-110.5,202.9-182.7,279.1c-30.3,31.8-55,60.1-55,63.1c0,16.2,66.6,20.2,98.4,5.6c22.2-10.1,32.8-20.7,43.4-42.9
		c11.6-24.2,19.7-22.2,19.7,4.5s6.1,40.4,20.7,47.9c31.3,17.2,91.9-42.9,103-101.9c3-14.6,1.5-20.2-7.1-28.8
		c-9.6-9.6-14.6-10.6-35.8-7.6c-32.8,4.5-33.3-4-3-32.3c39.9-36.8,82.8-52,145.9-52c69.6-0.5,117.1,24.7,136.8,72.2
		c9.1,20.7,10.6,57.5,3.5,62.1c-2.5,1.5-13.1-2-23.2-8.1c-16.2-9.6-20.7-10.1-37.9-5c-47.9,14.1-78.7,93.9-43.9,112.5
		c6.1,3,22.7,4,39.9,2.5c25.7-2,29.3-1.5,29.3,6.6c0,5-5,10.1-12.1,12.1c-17.2,4-43.4,35.8-43.4,52.5c0,28.3,24.2,47.9,72.2,57
		c74.2,14.1,120.6-33.3,81.8-84.3c-7.6-10.1-12.1-21.2-10.6-25.2c2.5-7.1,6.6-6.1,25.2,5c41.4,24.2,65.6,14.1,81.8-33.8
		c10.6-30.8,6.1-55-12.1-69.6c-12.1-9.1-17.7-10.1-44.9-7.6c-34.8,3.5-38.4,0-23.2-22.2c39.4-59,91.9-85.8,168.6-85.8
		c98.9,0,164.5,51,170.1,131.7c1,16.7,0.5,29.8-1,29.8c-2,0-10.1-5-18.7-11.1c-17.7-13.1-44.4-13.6-62.6-2
		c-16.7,11.1-32.8,43.9-32.8,66.1c0,43.4,28.3,63.6,69.1,50c12.1-4.5,23.7-6.6,25.2-5c1.5,1.5-3.5,15.1-11.1,29.8
		c-13.1,24.7-13.6,28.8-8.1,42.9c9.1,22.2,37.3,31.3,88.8,29.8C3036.2,9147.2,3056.9,9143.2,3067.5,9137.6z M918.5,9133.1
		c0-4-8.6-9.1-18.7-11.6c-22.7-5.6-31.8-20.2-31.8-53.5v-24.2h92.4c50.5,0,94.4,2,96.9,4c3,2,8.1,9.6,11.1,17.7
		c12.1,26.7,16.7,14.6,16.7-44.9c0-53-1-58-8.6-56.5c-5,1-9.6,6.6-10.6,13.1c-1,6.1-5.6,13.1-10.1,15.6c-4.5,2.5-49,6.1-97.9,8.1
		l-89.8,4v-31.3c0-26.2,2-33.3,12.6-43.4c6.6-7.1,15.6-12.6,20.2-12.6c4,0,7.6-3.5,7.6-8.1c0-6.6-3-7.6-16.2-5
		c-9.1,2-24.2,5-33.3,6.6l-16.2,3l3,101.4c1.5,55.5,3.5,106.5,5,113.1c2,10.1,5,11.1,34.8,11.1
		C909.4,9139.7,918.5,9137.6,918.5,9133.1z M381.5,9077.1c4-17.2,0-21.7-23.2-25.7c-27.3-4.5-65.1-30.8-73.7-51
		c-7.1-17.2-10.1-104.5-4-120.1c3.5-9.1,36.8-10.6,104.5-5l38.9,3.5v54.5v55h14.6c13.1,0,14.6-1.5,17.7-23.2c1.5-13.1,3-37.3,3-53.5
		v-30.3l56,2c53.5,1.5,56.5,2,67.6,15.1c6.6,7.6,13.6,24.2,15.1,36.8c3,19.2,5.6,22.7,15.1,22.7c11.1,0,12.1-2.5,14.6-36.3
		c1.5-20.2,3.5-65.1,4-99.9c1.5-58,1-63.1-8.1-64.6c-11.6-2.5-18.2,7.1-18.2,25.2c0,23.7-13.1,26.7-108.5,25.2
		c-96.9-1-184.7-8.6-199.4-16.2c-9.1-5-11.1-9.1-17.2-36.3c-4-16.7-15.6-18.2-23.7-3.5c-5.6,11.1-8.1,53.5-11.6,225.6l-2.5,101.9
		l28.8,0.5c15.6,0.5,41.4,2,56.5,4.5C375.9,9090.7,377.9,9090.2,381.5,9077.1z M5163,8890.3c0-69.1-11.6-110-20.2-73.2
		c-2.5,10.6-6.1,12.1-23.7,11.6c-27.8-0.5-163-32.8-160-38.4c1.5-2.5,34.3-20.2,73.2-39.4c73.7-37.3,97.4-42.9,103-24.7
		c5.6,17.2,15.1,8.1,13.6-13.6c-2-24.2-10.6-68.6-13.1-71.7c-5-4.5-13.1,5.6-13.1,16.7c0,18.7-13.6,28.3-114.1,80.8
		c-63.6,33.3-92.9,51.5-92.9,57c0,4.5-1.5,13.1-3,19.2c-2.5,10.1,3.5,12.1,101.9,36.8c57.5,14.1,109,28.3,114.1,31.3
		c5.6,3,13.1,13.1,17.2,22.7C5155.9,8929.2,5163,8922.6,5163,8890.3z M1087.5,8851.5c2-27.8,2-52,0-54c-1.5-1.5-8.1,3.5-14.6,11.1
		l-11.1,14.6l-24.7-11.1l-24.2-10.6l3-43.9c2-23.7,5-45.4,7.6-47.9s16.2-5.6,30.3-7.6c24.7-2.5,26.2-2.5,31.3,11.1
		c7.6,20.2,13.1,11.1,19.7-32.3c6.6-42.4,1.5-57-11.6-31.8c-9.6,18.7-23.7,24.2-138.8,56.5c-85.3,24.2-106.5,34.3-106.5,51.5
		c0,2.5,37.9,23.2,84.8,45.4c109.5,53,132.2,67.1,132.2,81.8c0,12.6,4,18.2,12.6,18.2C1082,8902.4,1085,8885.8,1087.5,8851.5z
		 M647.4,8659.2c1.5-6.6,7.6-42.9,14.1-81.3c9.1-57.5,10.1-70.7,4.5-74.2c-10.1-6.1-19.2-0.5-24.7,15.6
		c-7.1,19.7-21.2,19.2-58.5-3.5c-16.7-9.6-30.8-18.7-31.8-19.2c-2.5-3,27.8-129.7,32.3-134.2c3-3,23.2-5.6,44.9-6.1l40.4-1.5
		l2.5,20.2c2,16.2,5,20.7,13.6,21.7c9.6,1.5,12.1-2.5,21.7-35.3c6.1-20.2,14.1-47.9,18.7-61.1c4-13.1,6.6-27.3,5-30.8
		c-4-10.1-23.7-14.1-23.7-4.5c0,13.6-28.3,35.8-56,43.9c-15.1,4-95.4,18.2-178.7,30.8l-151.4,23.2l-16.7,18.2
		c-9.1,10.6-15.6,21.7-15.1,25.7c1,3.5,70.7,48.5,155.4,99.4c164.5,98.9,176.6,109,176.6,144.3c0,17.2,1.5,19.7,12.1,19.7
		C640.9,8670.3,645.4,8666.7,647.4,8659.2z M1117.8,8608.7c7.1-30.8,17.7-86.3,17.7-92.9c0-11.6-9.6-8.1-16.2,5.6
		c-3,7.1-10.1,12.6-15.1,12.6c-10.1,0-108-30.8-138.3-43.4c-10.1-4-17.2-9.1-15.6-10.1c1.5-1.5,47.4-10.6,101.9-19.7
		c55-9.1,101.4-18.7,104-21.2c3-3-25.7-31.3-74.2-72.2c-43.9-37.3-76.7-68.6-73.7-69.6c10.6-3.5,144.3,29.8,153.9,38.4
		c6.6,5.6,8.1,12.1,6.1,22.2c-3.5,16.2,4.5,19.2,12.1,4.5c10.6-19.2,30.3-78.2,27.8-82.3c-4.5-7.1-10.6-4-16.2,8.6
		c-5,11.1-9.1,12.6-32.3,12.6c-34.8,0-142.3-22.2-158-32.3c-9.6-6.1-12.6-12.6-12.6-26.2c0-28.3-11.1-18.7-26.2,23.7
		c-7.6,20.7-13.6,38.4-13.6,39.9c-0.5,1.5,14.6,14.1,33.8,28.3c18.7,14.1,52,41.4,73.7,60.1c33.8,29.3,38.4,34.8,30.3,37.9
		c-9.6,3.5-137.3,23.7-166,26.2c-14.6,1.5-15.6,3-24.7,43.4c-10.1,45.4-7.6,56.5,8.1,34.8c13.6-18.7,26.7-17.7,103,8.6
		c72.7,25.7,88.3,34.8,94.9,58C1107.2,8622.3,1113.8,8624.4,1117.8,8608.7z M4900.5,8569.3c0-10.1,4-17.2,11.6-22.2
		c14.6-9.6,125.2-34.3,157.5-35.3c21.7-0.5,25.7,1,30.3,11.1c4.5,10.1,17.7,15.6,17.7,7.6c0-2.5-3.5-20.2-8.1-39.9l-8.6-35.8
		l-103-49.5c-56.5-27.3-101.9-52-100.9-55c4-11.6,123.7-50,138.8-44.4c3.5,1,8.6,7.6,11.1,14.1c2.5,6.6,7.6,12.1,10.6,12.1
		c8.1,0,3-26.7-11.6-63.1c-13.1-33.8-25.2-42.9-23.2-17.7c2,23.2-10.1,30.8-111.5,67.1c-48.5,17.2-87.8,33.8-88.3,36.3
		c0,3,52,32.3,115.6,65.6c64.1,33.3,116.1,63.1,116.1,65.6c0,7.1-98.9,26.7-135.3,27.3c-26.2,0.5-29.8-0.5-34.8-12.1
		c-6.6-15.1-14.1-16.7-14.1-3c0,9.6,13.1,71.2,17.7,85.3C4891.9,8594.6,4900.5,8585,4900.5,8569.3z M3278.4,8448.2
		c110.5-6.6,215-16.7,323.5-31.3l82.3-11.1v-25.7c0-75.7-34.3-900.9-40.4-984.2c-18.2-225.1-62.6-355.8-155.4-452.7
		c-68.6-71.7-137.8-107.5-258.4-133.7c-50-11.1-74.7-13.1-180.7-15.1c-81.3-2-139.3-0.5-171.6,3.5c-151.9,19.2-284.1,79.2-354.8,162
		c-85.8,100.4-131.7,219-150.9,388.1c-7.6,67.1-38.4,797.4-41.4,984.2l-1.5,73.2l78.2,11.1c95.4,13.1,221.6,26.2,312.9,31.3
		C2822.7,8453.8,3176.5,8453.8,3278.4,8448.2z M5701,8386.1c3-8.1-36.8-170.1-43.4-176.6c-2-2.5-8.6-3-14.1-1.5
		c-8.6,3-10.1,6.6-8.1,19.7c4.5,30.8,2.5,31.3-102.5,29.8c-52-1-118.6-3.5-147.9-5l-53-3.5l68.6-55.5
		c148.9-120.1,164.5-130.2,180.2-120.6c4.5,3,11.6,11.6,15.1,18.7c7.1,14.6,9.6,15.6,21.2,8.6c6.6-4,5-11.6-9.6-54
		c-27.8-79.2-34.8-93.4-44.4-91.4c-7.1,1.5-9.1,7.1-9.1,27.3c0,15.6-3.5,30.3-9.1,38.9c-9.6,15.1-172.1,151.9-236.2,199.4
		l-39.4,28.8v33.8l-0.5,33.8l21.7,2.5c11.6,1.5,83.8,5,160,8.1s149.9,7.1,163,8.6c27.8,3.5,55.5,19.7,58.5,34.3
		C5675.7,8390.2,5694.9,8400.8,5701,8386.1z M1233.9,8226.1l11.6-27.3l-30.8-61.6l-30.8-61.6l-17.7,13.1
		c-36.3,27.8-82.8,12.1-89.3-30.3c-3.5-20.2,13.1-64.6,24.2-64.6c3.5,0.5,41.9,19.2,84.8,41.9l78.2,41.9l1.5,22.2
		c1,12.6,3.5,24.7,5.6,26.7c4,4,56-87.8,56-97.9c0-7.1-13.6-5-20.2,3c-3.5,4-12.1,7.6-19.2,7.6c-13.6,0-119.1-53.5-146.4-74.2
		c-15.1-11.6-16.7-14.6-13.6-30.3c5.6-31.3-8.1-16.7-41.4,44.4c-41.9,76.7-48.5,108-28.3,139.3c11.1,16.7,41.9,27.3,63.6,21.2
		c9.6-2.5,20.2-8.1,23.7-12.1c10.6-12.6,17.2-8.6,33.8,21.7c19.2,35.3,33.8,83.3,29.3,97.4c-2.5,8.1-1.5,10.1,5,8.6
		C1218.2,8254.9,1227.3,8241.8,1233.9,8226.1z M4781.9,8184.8v-21.2l73.2-34.3c77.7-36.3,101.9-41.4,111-24.2
		c6.6,12.1,15.1,13.1,15.1,1.5c0-11.1-61.6-136.3-75.7-154.4c-26.2-33.3-79.2-54-114.6-44.4c-55.5,15.1-92.4,61.1-92.4,116.1
		c0,25.7,4,39.4,23.2,82.3c34.3,77.2,46.9,99.9,54,99.9C4779.4,8206,4781.9,8198.4,4781.9,8184.8z M794.8,8097.4
		c29.8-74.2,31.8-81.3,23.7-87.3c-7.6-5.6-10.6-4-23.7,11.1c-12.6,15.1-18.7,18.2-34.3,18.2c-21.2,0-114.6-33.8-117.6-42.9
		c-4-10.1,79.2-184.2,87.8-184.2c10.6,0,95.4,45.4,106,57c8.1,9.1,10.6,37.9,5.6,59c-1.5,4.5,2.5,8.1,9.1,9.1
		c9.6,1.5,14.6-5,33.8-42.9c12.1-24.2,30.3-59,40.4-76.2c21.2-37.3,21.7-39.9,8.1-43.9c-7.6-2.5-13.6,1-23.7,12.6
		c-12.1,14.6-15.6,16.2-33.8,13.6c-17.7-2-167.1-77.2-228.1-115.1c-21.2-12.6-28.8-32.3-22.2-54.5c5-18.7,0-27.3-14.6-24.2
		c-8.1,1-81.3,137.8-81.3,151.4c0,14.6,14.1,16.2,27.3,2c21.7-23.7,38.9-22.7,91.9,4.5c26.2,13.6,47.4,27.3,47.4,29.8
		c0,6.6-80.2,179.7-85.8,185.7c-5.6,6.1-89.3-28.8-104.5-42.9c-9.1-8.6-11.6-16.2-11.6-34.8c0-29.8-10.6-41.4-22.2-23.7
		c-4,6.6-20.7,44.4-36.3,84.3c-27.8,70.2-28.8,72.7-19.2,79.7c8.6,6.6,11.1,5.6,23.7-11.1c21.7-26.2,36.8-24.2,145.9,18.2
		c101.4,39.4,139.3,57,149.4,69.6c4,5,5.6,17.2,4.5,31.8c-2,23.7,1.5,29.8,15.6,27.8C759.5,8178.7,777.1,8141.9,794.8,8097.4z
		 M5197.8,8007.1c4-5,4-10.6,0-22.7c-7.6-21.7-0.5-36.8,24.7-53.5c33.3-22.2,224.6-108.5,239.7-108.5c9.6,0,19.7,5,29.3,15.6
		c15.6,16.7,33.3,18.2,30.8,2.5c-1-5-12.1-32.3-25.2-61.1c-23.7-52-23.7-52.5-43.9-55.5c-42.9-7.1-343.2-74.7-347.7-78.2
		c-3.5-4,99.4-75.7,153.9-107.5c31.3-18.7,54-18.2,72.7,1.5c15.6,16.1,22.7,18.2,31.3,9.6c4.5-4.5-5.6-22.7-37.3-70.7
		c-24.2-35.8-46.4-65.1-49.5-65.1c-12.6,0-17.2,12.1-10.1,25.2c9.6,16.7,9.1,30.8-0.5,44.9c-8.1,11.1-261.4,182.2-270.5,182.2
		c-2,0-4,5.6-4,12.1c0,11.1,4,13.1,67.1,27.8c36.3,8.6,131.2,30.8,210.5,49.5c79.2,18.2,145.9,35.3,148.4,37.3
		c2.5,2.5-13.1,12.1-35.3,22.7c-113.1,52-174.6,77.7-192.8,80.8c-17.7,3-22.2,1.5-39.9-14.6c-14.6-13.6-21.7-16.7-27.8-13.1
		c-7.6,4-4.5,13.1,25.2,75.2c18.7,38.4,36.3,70.2,39.4,70.7C5189.2,8014.2,5194.8,8011.1,5197.8,8007.1z M1381.8,7925.3
		c40.4-20.2,69.1-58.5,82.3-109.5c17.7-70.2-46.9-146.4-123.7-145.9c-38.4,0-63.1,10.6-93.9,39.4c-48.5,45.4-62.6,113.6-32.8,161
		C1252.6,7932.4,1321.7,7955.1,1381.8,7925.3z M4608.3,7870.8c-1-21.7,2.5-29.8,52-116.1c79.7-137.8,79.2-137.8-51-95.4
		c-117.6,37.9-133.2,40.9-149.9,29.8c-23.7-15.1-19.2,2,9.6,37.9c32.3,38.9,35.8,41.9,42.9,37.3c3-2,2.5-6.6-1-12.6
		c-8.1-12.6,0-21.7,26.7-29.8c24.2-7.1,27.3-5.6,60.6,38.4l21.2,26.7l-13.6,20.7c-15.6,23.2-25.2,28.3-36.3,19.7
		c-4.5-4.5-9.1-5-12.1-2c-6.1,6.1,39.4,73.7,47.4,71.2C4607.8,7895.6,4609.3,7884.5,4608.3,7870.8z M1632.1,7627.1
		c37.3-39.9,47.9-61.6,20.2-43.9c-8.6,6.1-15.6,7.1-22.2,4c-15.6-7.6-102.5-89.8-117.6-111.5c-12.6-18.2-13.1-21.7-8.1-33.8
		c17.2-36.8-16.7-9.1-101.9,83.8c-28.8,31.3-39.4,45.9-36.3,51c2,4,14.1,15.6,26.2,25.7c26.2,21.7,36.8,18.2,21.2-7.6
		c-12.1-19.7-13.1-32.3-4-48.5c9.6-17.2,43.9-52,51-52c3.5,0,19.7,12.1,36.3,27.3l29.8,26.7l-23.7,28.3
		c-19.2,21.7-22.7,28.8-17.7,33.3c5,4,12.1,0,28.8-17.2c12.1-12.6,24.7-22.7,28.3-22.7c9.1,0,52.5,49,52.5,59c0,5-3.5,14.6-8.1,20.7
		c-7.1,10.1-5.6,23.7,2.5,20.2C1591.2,7669,1610.4,7649.8,1632.1,7627.1z M4361.5,7589.2c-16.7-16.7-7.1-32.3,71.7-115.6l49.5-52.5
		l20.2,22.7c19.2,21.7,20.2,23.7,17.7,49c-1.5,14.1-1.5,27.3,0.5,28.8c1.5,2,10.6-8.6,19.7-23.2l16.7-26.2l-21.2-22.2
		c-12.1-12.6-49-47.4-82.3-77.7l-60.6-55.5l-21.2,24.2c-22.2,25.2-22.7,40.9-1,25.2c6.6-4.5,17.7-8.1,24.7-8.1
		c14.6,0,50.5,27.3,50.5,38.4c0,4.5-28.3,36.3-62.6,71.2c-65.1,66.1-66.1,66.6-94.9,54.5c-6.6-2.5-9.1-1.5-9.1,4
		c0,11.1,77.2,79.7,83.3,73.7C4365.5,7596.8,4365.5,7593.3,4361.5,7589.2z M1758.8,7509.5c12.6-10.6,45.4-37.3,73.2-58.5
		s49-40.4,47.9-42.4c-1.5-2.5-11.1-3-21.7-1.5c-23.2,3-28.3-1.5-84.3-76.2c-43.9-58-51-76.2-35.3-88.8c5-4.5,6.1-8.6,3-11.6
		c-5-5-17.7,2.5-62.1,37.3c-59,45.9-99.9,82.3-99.9,87.8c0,3,7.6,14.6,17.2,25.7c21.7,24.7,30.3,19.7,21.7-12.6l-6.1-21.7l29.8-27.8
		c19.7-18.2,32.8-26.7,39.9-25.7c11.1,1.5,54,50.5,54,61.1c-0.5,3.5-11.6,15.1-25.2,25.7c-19.7,15.6-23.7,21.2-19.7,26.2
		c4.5,5.6,9.6,4,25.7-9.6c35.3-28.3,33.3-28.3,52.5-6.1c9.6,11.1,21.2,26.7,25.2,34.3c7.1,13.1,7.1,15.6,0,26.2
		c-21.7,32.8-60.1,46.4-91.4,31.8c-13.6-6.1-25.2-0.5-18.7,8.6c6.6,9.1,41.9,37.9,46.4,37.9
		C1733.5,7529.7,1745.7,7520.6,1758.8,7509.5z M4899.5,7508c4.5-5,3-12.1-4.5-27.8c-9.1-18.7-10.1-23.2-4.5-36.3
		c5.6-13.6,112-107.5,182.7-160.5c31.3-23.7,52.5-27.3,67.1-11.1c5,5.6,13.6,10.1,18.7,10.1c17.2,0,16.2-14.6-3-39.4
		c-33.3-42.9-95.9-112-101.4-112c-13.6,0-16.2,11.1-7.1,29.3c5.6,10.1,9.6,22.2,9.6,27.3c0,13.1-25.7,39.9-98.4,102.5
		c-119.1,101.9-127.7,106.5-159,80.2c-14.1-12.1-16.7-12.6-23.7-6.1c-5,5-6.1,10.6-3.5,15.1c11.1,18.7,111,134.8,116.1,135.3
		C4891.4,7514.5,4896.5,7511.5,4899.5,7508z M1139,7491.8c51-25.7,119.1-117.6,110.5-150.4c-1.5-6.6-15.1-25.2-30.3-41.9l-27.3-29.8
		l-11.1,10.6l-11.1,10.6l13.1,25.7c17.2,34.3,18.2,73.2,1.5,97.4c-17.7,25.7-41.4,39.9-68.6,39.9c-55-0.5-69.1-45.4-43.4-138.8
		c19.7-71.2,16.2-109.5-14.6-142.8c-23.7-26.2-64.6-38.9-98.9-30.3c-17.7,4.5-30.3,13.6-56,38.9c-30.8,30.8-75.2,91.4-75.2,102.5
		c0,6.1,55.5,64.6,61.1,64.6c2.5,0,6.6-4,9.1-9.6c4-6.6,2.5-14.1-4.5-28.8c-19.7-38.4-9.6-77.2,26.7-105c23.2-18.2,57-18.2,76.2-0.5
		c17.7,16.2,17.2,39.4-2.5,124.7c-18.2,78.7-17.2,99.4,7.1,131.2C1034.5,7503.9,1089,7516.5,1139,7491.8z M4209.1,7461.5
		c0-1.5-3.5-8.6-8.1-15.1c-6.6-10.1-7.6-18.7-4.5-41.4c7.6-61.6,32.8-184.7,39.9-195.8c7.1-11.1,6.6-12.1-21.2-28.8
		c-15.6-9.6-54-32.8-85.3-51.5l-56-34.3l-15.6,16.7c-15.6,17.2-23.7,33.3-19.2,37.9c1.5,1.5,10.1-2,19.2-7.6
		c23.2-14.1,37.9-13.1,69.1,4.5c18.2,10.6,26.2,18.7,26.2,25.7c0,10.6-42.9,70.2-50.5,70.2c-2.5,0-16.2-7.1-30.3-16.2
		c-18.2-11.1-27.3-14.1-30.8-10.6c-4,4,1.5,10.6,20.2,22.7c14.1,9.1,25.7,19.7,25.7,23.2c0,11.1-45.9,56.5-57.5,56.5
		c-11.6,0-51.5-23.2-62.1-35.8c-3-4-6.6-18.7-7.6-32.3c-1-14.1-3.5-25.2-6.6-24.7c-7.1,0.5-21.2,26.2-24.7,44.9
		c-3,14.1-1.5,16.2,23.2,29.8c14.6,8.1,51,30.3,80.8,49c64.1,41.4,77.7,45.4,54.5,16.2c-6.6-8.6-9.1-16.7-7.1-23.7
		c4-12.6,31.3-48.5,37.3-48.5c2,0,18.2,10.6,35.3,23.2c34.3,25.2,33.8,22.7,19.7,73.7c-4.5,17.7-6.6,19.2-22.2,19.2
		c-9.6,0-17.7,1.5-17.7,4c0.5,5.6,62.1,51.5,69.6,51.5C4206.1,7464.1,4209.1,7463,4209.1,7461.5z M1938.5,7372.7
		c13.6-8.6,25.2-19.2,26.7-23.7c4-13.1,12.1-65.6,15.6-101.4l3.5-31.8l-20.2,3.5c-39.9,6.6-71.7-25.7-64.6-65.1
		c2.5-13.6,8.6-22.2,24.2-33.3c11.6-8.6,24.7-15.1,29.8-15.1c6.1,0,20.7,22.2,49.5,74.7c43.4,78.7,49.5,100.4,31.3,113.1
		c-6.1,4.5-8.6,9.6-6.1,13.6c3,4.5,12.6,1.5,38.9-12.6c45.9-24.7,63.1-37.3,60.1-42.4c-1.5-2.5-10.1-3-19.2-1.5
		c-11.6,1.5-18.7,0-24.2-7.1c-11.1-12.1-80.2-144.3-80.2-152.9c0-4,4.5-12.1,10.6-18.2c6.1-6.1,9.1-14.1,7.1-17.2
		c-7.6-12.1-143.8,71.2-156.5,95.9c-20.7,39.9,4,84.3,49.5,89.3l23.7,3v28.3c0,31.8-10.6,76.2-22.2,93.9
		c-8.6,12.6-10.6,22.7-4.5,22.7C1912.7,7388.3,1925.3,7381.3,1938.5,7372.7z M1438.3,7184.5c83.3-71.7,76.7-65.1,69.1-75.7
		c-6.1-8.6-7.6-8.6-30.3,2.5c-23.7,11.6-24.2,11.6-41.4,2.5c-16.7-9.1-137.8-145.4-166-186.7c-16.2-23.7-17.2-50-3-62.1
		c12.1-10.6,12.6-18.2,2.5-26.7c-6.1-5-14.6-0.5-49,29.3c-23.2,19.7-55.5,48.5-72.2,64.1c-28.8,26.7-29.8,28.8-20.7,35.3
		c8.6,6.6,11.6,6.1,26.7-3c21.2-13.1,35.8-10.1,61.6,13.1c24.2,22.2,147.4,161,155.4,175.6c9.6,16.7,7.6,40.9-3.5,55.5
		c-11.6,14.6-12.1,19.7-4,27.8C1371.2,7243.5,1370.2,7244,1438.3,7184.5z M4700.2,7117.3c75.7-43.4,146.4-82.8,157.5-87.8
		c26.2-12.1,46.4-12.1,67.6,1c17.7,10.6,30.8,9.6,30.8-2.5c0-8.6-125.2-129.2-134.2-129.2c-10.6,0-13.6,20.2-5,29.8
		c14.1,15.6,9.6,29.3-15.6,48.5c-31.8,22.7-219,129.7-222.1,126.7c-4.5-4.5,80.2-250.3,90.3-262.9c11.1-14.6,27.3-16.2,43.4-4.5
		c12.6,8.6,21.2,5.6,21.2-7.1c0-10.6-108.5-96.9-121.6-96.9c-10.1,0-8.1,18.2,3.5,31.8c12.1,14.1,13.1,18.7,10.6,46.4
		c-1.5,19.2-21.2,86.3-52.5,181.7l-50,151.4l10.6,18.2c10.6,19.2,22.7,34.8,26.2,34.8C4561.9,7196.6,4625,7161.2,4700.2,7117.3z
		 M1765.8,6943.7c40.4-25.7,74.2-46.9,75.2-47.4c1-1-0.5-6.6-3.5-12.1c-5-8.6-8.1-9.6-18.7-5.6c-26.7,10.1-40.9,6.6-59-16.1
		c-28.8-36.3-140.8-226.1-137.8-233.7c1.5-4,16.7-14.6,34.3-23.2c42.9-21.7,67.6-21.7,94.9,0c16.7,13.6,22.2,15.1,27.8,10.6
		c4-3.5,7.6-8.6,7.6-11.1c0-9.1-62.1-69.6-71.2-69.6c-15.6,0-176.1,94.9-270,159.5c-40.4,28.3-40.4,18.2,0.5,81.8
		c28.3,44.9,44.4,41.4,32.8-7.1c-5.6-21.7-5.6-29.8,0-42.4c7.6-17.7,61.1-57,74.2-54.5c9.1,1.5,138.8,206.4,147.9,233.2
		c6.1,19.2,0.5,38.9-16.2,57c-8.6,9.6-9.6,12.6-4,19.2c3.5,4,7.6,7.6,8.6,7.6C1690.6,6989.6,1725,6968.9,1765.8,6943.7z
		 M4320.1,6967.4c0-3.5-5.6-11.6-12.6-18.2c-14.6-13.6-16.7-36.3-5.6-62.6c10.6-25.2,106.5-185.7,121.6-203.9
		c17.2-20.2,28.3-23.2,50-14.1c16.7,7.1,18.7,7.1,23.2-2c2.5-5,5-10.6,5-12.1c0-7.6-269-159.5-283.1-159.5c-4,0-16.7,15.1-27.8,34.3
		c-27.3,44.9-29.3,50-17.2,56.5c8.1,4.5,14.6,2,35.8-15.1c14.1-11.1,31.3-20.2,37.9-20.2c16.2,0,41.4,10.6,86.8,36.8
		c33.3,18.7,36.8,22.2,34.3,33.8c-2.5,14.1-51.5,104.5-59,109c-3,1.5-25.2-8.6-50-22.7c-25.2-14.1-47.4-25.7-49.5-25.7
		c-2.5,0-7.1,5.6-10.1,12.1c-6.6,14.6-7.1,14.6,45.4,43.4c21.7,11.6,40.4,23.2,41.9,25.7c3.5,5-39.4,82.8-54.5,99.4
		c-13.6,14.6-32.8,14.1-63.6-1c-53-27.3-73.2-54-70.7-95.9c2-30.3-1.5-38.4-17.7-38.4c-10.1,0-13.1,5-22.7,35.3
		c-6.1,19.2-12.1,42.4-13.6,51.5l-2.5,16.7l83.8,45.4c46.4,25.2,106,59,132.7,76.2C4306,6982.1,4320.1,6985.6,4320.1,6967.4z
		 M2036.9,6800.4c34.8-15.1,64.6-27.8,66.6-27.8s6.6-2,10.6-4.5c5-3.5,5.6-6.6,0.5-15.1c-4.5-9.1-8.6-10.6-22.2-8.1
		c-22.2,4.5-26.7-2.5-30.8-48.5l-3.5-38.4l54.5-21.2c81.3-31.8,77.2-31.8,105,2c12.6,15.6,23.2,32.3,23.2,36.8
		c0,4-7.1,13.6-15.6,20.7c-13.1,11.1-14.1,14.1-8.6,21.2c6.1,7.6,12.1,6.6,69.6-12.6c53-17.2,63.1-22.2,63.1-30.8
		c0-8.6-4-10.6-25.2-12.6c-39.4-4-50.5-14.1-200.9-182.2c-43.9-49-84.8-90.8-90.8-92.4c-6.1-1.5-19.2-3-28.8-3h-17.7l1,41.4
		c1,23.2,4,105,6.6,181.7c4,98.9,4,145.9,0,160c-4.5,18.2-21.2,36.8-36.8,42.4c-7.1,2,4,18.7,12.6,18.7
		C1972.3,6828.1,2002.5,6815.5,2036.9,6800.4z M3910.3,6755c1-7.1-3.5-13.1-13.6-19.2c-18.2-10.6-22.7-23.2-18.2-47.9
		c5-28.8,78.2-221.6,90.3-239.7c10.6-14.6,13.6-16.2,36.3-15.1c23.7,1,31.8-3.5,32.3-16.7c0-6.1-98.4-44.9-166.6-65.1
		c-62.6-18.7-101.9-24.2-127.7-17.2c-52,13.6-83.8,81.3-62.1,132.2c3.5,9.1,15.1,25.2,25.2,36.3c21.7,22.7,23.7,19.2-34.8,60.6
		c-57.5,40.9-95.4,59-131.2,62.6c-25.2,2.5-30.3,4.5-31.8,13.1c-1,9.1,4.5,11.6,51.5,21.7l53,12.1l57-36.8
		c105-67.1,129.7-85.3,127.2-91.9c-1-3.5-9.6-10.6-18.7-15.1c-24.2-13.1-33.8-32.3-33.8-67.6c0-71.7,48.5-102.5,124.2-79.7
		c41.4,12.6,41.4,12.6,28.8,49c-6.1,17.7-26.7,75.7-45.4,129.7c-39.9,114.6-49,128.2-83.8,126.2c-11.6-1-24.7,0.5-27.8,2.5
		c-16.2,10.1-0.5,20.2,71.7,46.4c41.4,15.1,76.7,28.8,78.2,29.8C3896.2,6771.1,3908.8,6764.5,3910.3,6755z M2541.6,6641.4
		c105-21.2,97.9-18.7,97.9-32.8c0-11.6-2-12.6-21.7-12.6c-37.9,0-38.9-2.5-74.2-185.7c-16.2-83.3-20.2-114.1-16.2-118.1
		c3-3,23.7-6.6,45.4-8.1c47.9-2.5,70.7,6.1,84.8,32.3c5,9.1,12.6,17.2,17.2,17.2c19.2-0.5,18.7-7.6-1.5-51.5
		c-19.7-43.9-20.2-44.4-38.4-44.4c-47.4,0-328.6,58.5-335.6,70.2c-3,5,15.1,91.4,20.7,96.9c8.6,8.6,21.7-1,21.7-15.1
		c0-23.7,10.1-50.5,23.2-60.6c12.1-9.6,80.2-25.2,85.3-19.7c4.5,4.5,53,252.3,53,270.5c0,23.2-8.1,35.8-28.3,44.4
		c-16.2,6.6-22.7,20.2-13.6,28.8C2465.4,6657.5,2454.3,6659.1,2541.6,6641.4z M3406.6,6614.6c9.1-4.5,15.6-15.6,23.7-38.9
		c14.6-41.4,13.6-57.5-3.5-59.6c-10.6-1-15.1,3.5-27.8,25.2c-20.7,35.8-41.9,49.5-76.7,49.5c-51.5,0-82.3-23.7-82.3-63.6
		c0-32.8,20.2-53,69.6-70.2c66.1-23.7,107-43.9,122.1-61.1c39.9-45.9,30.3-112-21.7-146.9c-30.8-20.7-65.1-27.3-129.7-25.7l-52,1.5
		l-7.1,20.2c-3.5,11.1-7.6,30.3-8.1,42.9c-1,19.2,0.5,22.7,9.1,24.2c7.1,1,13.6-4.5,22.7-19.2c37.9-61.6,146.4-49,146.4,17.2
		c0,33.3-16.7,46.4-94.9,73.7c-58,20.7-95.9,42.9-108,64.1c-12.6,21.2-16.7,59.6-9.1,87.3c7.6,28.3,44.9,66.1,76.2,77.2
		C3284,6622.7,3387.9,6624.2,3406.6,6614.6z M3027.1,6593.5c12.1-4,6.6-22.2-7.6-25.2c-8.1-2-21.2-6.1-29.8-10.1
		c-20.7-9.1-22.2-17.7-22.2-169.6c0-137.8,0-138.8,33.3-148.4c14.1-4,19.7-8.1,19.7-15.1c0-9.6-3.5-10.1-92.4-9.6
		c-64.1,0-93.9,2-97.9,6.1c-8.6,8.6,2.5,18.7,28.8,27.3c28.3,9.1,32.3,25.7,38.4,150.4c6.6,145.4,3,161-36.8,171.6
		c-15.6,4.5-19.2,7.6-19.2,18.2v12.6l89.8-3C2980.1,6596.5,3023.6,6594.5,3027.1,6593.5z"/>
	<path class="st0" d="M2823.7,11325.5c-14.6-6.1-42.9-36.3-42.9-46.4c0-6.1,8.1-10.1,30.3-14.6c16.7-3.5,30.3-7.6,30.3-9.6
		c0-1.5-9.1-6.6-19.7-11.1c-14.1-6.1-23.2-14.6-30.3-29.3c-18.2-34.8-19.2-33.8,64.1-37.9c40.9-1.5,81.3-4.5,89.8-6.1l15.1-3
		l11.6,54c7.6,37.9,9.6,55.5,6.1,60.1c-9.6,11.6-53.5,32.8-83.8,40.9C2861.5,11330.5,2839.3,11331.6,2823.7,11325.5z"/>
	<path class="st0" d="M2896.9,10774.4c0-20.2,22.2-42.4,50.5-50c30.8-8.1,104-4.5,126.2,6.6c19.2,9.6,35.3,31.3,35.3,48.5
		c0,10.1-2,10.1-31.3,6.6c-17.7-2-51-3.5-74.7-3.5s-57,1.5-74.2,3.5l-31.8,4V10774.4z"/>
	<path class="st0" d="M2381.6,10630.5c-14.1-17.2-12.1-121.1,2.5-140.8c11.1-15.6,33.3-2,57.5,34.8c24.2,36.8,31.3,53.5,31.3,73.7
		c0,28.8-19.2,24.7-38.4-8.1c-16.2-27.8-27.3-29.3-27.8-3C2405.3,10630.5,2395.7,10647.2,2381.6,10630.5z"/>
	<path class="st0" d="M2160,10421.6c-16.7-10.1,1-124.7,22.7-150.4c17.7-20.2,32.8-10.6,56,36.8c15.6,32.3,19.2,43.4,19.2,72.2
		c0.5,27.8-1,33.8-8.1,35.3c-10.1,2-27.8-23.2-32.8-45.9c-4-18.7-23.7-17.7-25.7,1.5C2187.3,10411,2175.2,10430.7,2160,10421.6z"/>
	<path class="st0" d="M2382.6,10245.9c-21.2-39.4-2-171.6,25.2-176.6c17.7-3,66.6,64.1,83.3,115.1c9.6,28.8,6.1,50.5-7.1,50.5
		c-12.1,0-34.8-24.2-41.9-44.4c-3.5-10.1-9.1-16.2-14.6-16.2c-11.1,0-15.1,9.6-15.1,35.3
		C2412.4,10247.5,2394.7,10268.7,2382.6,10245.9z"/>
	<path class="st0" d="M3621.1,10632.5c-1-3.5-3-19.7-5-35.3c-4-34.3-10.6-36.8-26.7-10.1c-13.1,20.7-28.8,33.3-36.3,28.8
		c-16.2-10.1,4.5-68.6,37.9-107.5c33.8-38.9,49-33.8,58,20.2c6.1,35.3,4.5,62.6-5.6,93.9
		C3638.3,10638.6,3625.2,10644.2,3621.1,10632.5z"/>
	<path class="st0" d="M3863.9,10390.3c-4-12.1-8.6-27.3-9.1-34.3c-2.5-20.2-17.2-18.7-24.2,2.5c-3,9.6-11.6,24.7-18.7,33.3
		c-24.7,28.8-34.8-2-18.7-56.5c17.2-57.5,42.9-93.9,61.6-88.3c22.7,7.6,51,122.1,37.3,151.9
		C3883.6,10417.5,3873,10414.5,3863.9,10390.3z"/>
	<path class="st0" d="M3633.7,10186.4c-3-7.6-6.6-26.7-8.6-42.4c-2.5-25.2-4-28.8-12.6-26.2c-5,1-14.1,12.1-20.2,24.7
		c-10.1,21.7-34.3,40.4-44.4,34.3c-11.1-7.1-5-46.4,12.6-81.3c35.8-70.7,65.1-97.4,82.3-76.2c17.2,20.7,29.8,118.1,19.7,154.9
		C3655.4,10201.5,3641.3,10207.1,3633.7,10186.4z"/>
	<path class="st0" d="M1902.6,9478.3c0-11.6-2.5-15.1-11.1-16.7c-24.2-3.5-11.6-49.5,13.1-49.5c8.1,0,13.1-3.5,14.6-10.6
		c2.5-8.6,6.1-10.1,22.2-8.6c16.2,1.5,19.2,3,19.2,13.6c0,7.6,4,13.6,10.6,16.2c28.3,10.1,14.6,50-17.2,50c-5,0-11.6,4.5-15.1,10.1
		c-4,6.6-11.6,10.1-21.2,10.1C1904.6,9492.9,1902.6,9491.4,1902.6,9478.3z"/>
	<path class="st0" d="M889.2,9300.1c2.5-7.6,84.3-63.6,92.9-64.1c6.1-0.5,12.1,26.2,12.1,54v16.2h-53.5
		C900.3,9306.2,887.7,9304.7,889.2,9300.1z"/>
	<path class="st0" d="M949.2,8770.7c-49.5-23.2-50.5-23.7-40.9-29.8c6.1-3.5,85.3-25.2,93.4-25.2c4,0-2.5,67.1-7.1,71.7
		C993.2,8788.9,972.5,8781.3,949.2,8770.7z"/>
	<path class="st0" d="M450.6,8437.6c-58.5-35.3-77.2-50-63.1-50c2,0,37.9-4.5,78.7-10.6c41.9-5.6,77.2-8.1,79.2-6.1
		c4,4-12.1,92.9-18.7,103.5C522.8,8481,520.8,8480,450.6,8437.6z"/>
	<path class="st0" d="M2727.3,8363.9c10.1-56.5,12.1-50-17.7-53.5c-35.8-4.5-43.4-12.1-35.8-37.9c8.1-26.2,18.7-35.3,31.8-27.3
		c15.1,9.6,48.5,7.6,60.1-4c22.2-22.2,5-55.5-28.3-55.5c-10.1,0-24.7,4-32.8,8.6c-13.6,8.1-14.6,8.1-24.7-1
		c-16.7-15.1-12.1-42.9,8.1-42.9h11.6l-12.1-26.2c-15.1-32.8-15.6-54-2-71.7c6.1-7.6,10.1-14.6,8.6-15.6c-4-4-156.5-13.6-172.6-10.6
		c-9.1,2-27.8,11.1-41.4,20.7c-28.8,20.7-46.4,22.2-65.6,6.1c-14.1-12.1-13.1-25.7,1-20.2c4.5,1.5,9.6,1,11.6-2
		c1.5-2.5,8.6-8.1,14.6-12.6l12.1-8.1l-17.7,0.5c-29.3,1-45.9-21.2-22.2-29.3c6.1-2.5,15.6-5.6,21.2-7.6c9.1-3,8.6-4-5-10.6
		c-16.7-8.1-26.2-34.3-10.1-27.8c4.5,1.5,11.6-0.5,16.2-4.5c9.1-9.1,21.7-6.6,46.9,11.1l17.7,11.6l1.5-11.1c1-6.1-0.5-12.1-3.5-13.1
		c-12.1-4-4.5-11.1,12.6-11.1c25.2,0,36.3,7.6,40.4,27.8c3,16.2,4,17.2,29.3,19.7c14.1,1.5,66.6,3.5,116.6,5c50,1,98.4,5,107.5,8.1
		c14.1,5.6,16.2,8.1,16.2,24.7v18.7l34.3-4c39.4-5,88.8,2,117.1,16.2c10.1,5,30.8,20.2,45.9,32.8c35.8,30.8,70.7,47.9,103,51.5
		c40.4,4,46.4-4.5,62.1-86.3c7.1-37.3,17.2-52.5,40.4-62.1c25.7-11.1,85.8-6.1,176.6,13.6c39.9,8.6,73.7,14.6,75.2,13.1
		c6.6-6.6-11.1-18.2-32.8-20.7c-13.1-2-27.8-4.5-32.3-5.6c-10.6-3-16.2-18.7-11.6-32.8c3-9.6,4-9.6,12.1-2.5
		c8.1,7.6,25.7,11.1,25.7,5.6c0-1.5-2.5-7.1-6.1-12.1c-3-5-4-13.1-2.5-17.7c4.5-11.1,33.3-5.6,44.9,9.1l9.1,10.6v-13.1
		c0-7.6,3.5-16.1,8.1-20.2c6.6-5.6,9.6-4,19.7,8.6c7.1,8.1,12.1,19.7,12.6,26.2c0,6.1,1,11.1,2.5,11.1c4.5,0,25.2-12.6,28.8-17.2
		c5.6-7.6,19.2,7.1,19.2,20.7c0,6.6-9.1,24.2-20.2,38.9s-21.7,34.3-23.2,43.9c-7.1,35.3-8.6,36.3-54.5,32.8
		c-115.6-9.6-114.1-9.6-123.7-1c-5.6,5-10.6,15.1-11.6,23.2c-2,13.1-0.5,14.6,18.2,17.2c29.3,5,66.1,26.7,81.3,48.5
		c16.2,23.2,21.7,65.6,12.6,92.9c-15.6,48.5-56.5,71.2-126.2,71.2c-56,0-84.3-13.1-139.8-64.6c-22.7-21.2-48.5-41.9-56.5-46.4
		c-35.8-18.2-87.8-13.6-115.1,9.6c-13.6,11.6-13.6,12.6-5,21.7c11.6,13.1,11.1,37.3-1.5,53c-11.6,15.1-39.4,29.3-57.5,29.3
		c-12.6,0-13.1-1.5-13.1-26.2c0-30.3,16.7-70.7,35.8-88.3c6.6-6.1,22.2-15.6,34.3-20.7l22.2-10.1l-27.3-3c-15.1-1.5-37.9-3.5-51-4.5
		l-24.2-2l-3,18.2c-8.6,54.5-42.9,123.7-67.6,136.8c-6.6,3.5-9.6,9.1-8.1,14.1c1.5,4.5,4,17.2,6.1,27.8c2.5,16.7,2,18.7-7.1,18.7
		c-5.6,0-16.2-7.1-22.7-16.2l-12.6-16.2l-8.1,18.7c-9.6,23.2-16.2,23.7-26.7,1l-8.6-17.7l-14.6,17.7
		C2734.4,8389.2,2723.3,8388.7,2727.3,8363.9z M3369.3,8250.9c22.2-21.2,24.2-58.5,4-80.8c-4.5-5-18.2-13.1-30.8-17.7
		c-21.7-8.6-22.7-8.6-45.9,3c-17.7,8.6-35.3,12.1-67.6,14.1l-43.9,2l18.7,13.1c10.1,6.6,31.3,24.2,46.9,38.4
		c15.6,14.6,35.8,30.3,45.4,34.8C3318.8,8269.6,3352.6,8266.5,3369.3,8250.9z"/>
	<path class="st0" d="M2549.6,8353.8c2-25.2-0.5-27.8-13.1-13.6c-9.1,11.1-16.2,14.1-29.8,13.6c-27.8-1-29.8-5-10.6-25.7
		c21.2-22.7,22.2-30.3,2.5-16.7c-16.7,12.1-29.8,13.1-48.5,4.5c-14.6-6.6-16.7-14.1-3.5-14.1c5.6,0,12.1-5.6,15.1-12.6
		c3-7.1,10.1-12.6,15.1-12.6c5,0,13.6-3.5,19.2-7.6c9.1-7.1,9.1-7.1-4-7.6c-8.1,0-14.1-2-14.1-4.5s-4.5-3.5-10.1-2
		c-13.6,3.5-12.6-4.5,1.5-17.2c7.1-7.1,21.2-11.6,41.9-14.1c29.3-3,31.8-4.5,49-26.7c9.6-13.1,29.3-45.4,43.4-71.7
		c35.3-65.6,62.6-89.8,57.5-51c-2,13.1,0.5,26.7,8.1,43.4l10.6,24.2l-18.2,20.2c-10.1,11.1-31.8,40.9-48.5,66.1l-29.8,45.9l3.5,38.9
		c3,35.3,2.5,38.9-7.1,43.9C2563.8,8365.4,2548.6,8363.9,2549.6,8353.8z"/>
	<path class="st0" d="M3041.2,8334.2c-18.2-18.2-7.6-41.9,28.8-62.6c30.3-17.2,39.9-18.2,67.1-7.1c29.8,12.1,47.4,31.3,47.4,51
		c0,27.3-36.3,36.8-62.6,16.2l-13.6-10.6l-11.6,10.6C3083.1,8344.2,3052.8,8345.8,3041.2,8334.2z"/>
	<path class="st0" d="M2606.2,8286.2c-1.5-3,3.5-12.6,11.6-21.2c8.1-9.1,18.7-22.7,23.7-30.3c12.1-19.7,36.8-28.8,78.7-28.8h35.8
		l-1.5,16.7l-1.5,16.2h-39.4h-38.9l-19.2,21.2C2635.9,8282.7,2612.2,8295.3,2606.2,8286.2z"/>
	<path class="st0" d="M2503.2,8187.3c-4-1.5-12.6-7.6-19.2-13.1l-11.1-10.6l-10.1,11.1c-11.6,12.6-49,15.6-59.6,5
		c-10.1-10.1-7.1-36.3,5.6-47.9c16.7-15.6,51.5-31.8,68.1-31.8c17.2,0,57.5,24.7,69.6,42.9c10.6,16.2,3.5,35.8-16.2,42.9
		C2516.3,8191.3,2514.3,8191.3,2503.2,8187.3z"/>
	<path class="st0" d="M3476.3,8180.2c-13.6-7.6-11.1-31.3,4.5-47.4c18.2-17.7,47.9-32.8,65.6-32.8c17.2,0,64.6,26.7,72.2,39.9
		c8.1,15.6,6.1,34.8-4.5,40.9c-17.7,9.1-50,6.1-57-5c-3.5-5.6-8.6-10.1-11.6-10.1c-3,0-9.1,4.5-14.1,10.1
		C3521.7,8186.8,3491.4,8189.3,3476.3,8180.2z"/>
	<path class="st0" d="M3098.2,8091.9c-15.1-4.5-29.8-13.6-39.4-24.7c-14.6-17.2-15.6-20.7-15.6-58v-40.4h-27.8
		c-15.6,0-39.4,4.5-54,10.1c-34.8,13.1-60.1,13.1-72.2,0c-11.1-12.6-10.6-13.1,17.7-18.7l22.7-4.5l-22.7-7.6
		c-27.8-8.6-32.8-22.2-10.6-27.3c8.6-1.5,20.7-1.5,26.7,0l11.6,3.5l-11.1-10.6c-6.6-6.1-11.6-15.1-11.6-20.2c0-7.6,4-9.1,19.7-9.1
		c15.6,0,23.2,3,33.8,14.1c18.2,18.7,23.7,18.7,21.2-1c-2.5-15.6-2-15.6,15.1-12.6c20.2,3,36.3,15.6,36.3,29.3
		c0,8.1,4.5,9.1,34.3,9.1c46.4,0,48.5,2.5,44.4,39.4c-3,28.8-2.5,30.8,10.1,40.9c7.6,6.1,18.7,10.6,25.2,10.6
		c11.6,0,12.1,1.5,9.6,21.7c-7.1,52.5-8.1,54.5-20.7,59C3126,8101,3127,8101,3098.2,8091.9z"/>
	<path class="st0" d="M2727.3,7889.5c2-10.6,4.5-26.7,6.6-35.3l2.5-16.7h-22.7c-14.6,0-26.7-3.5-34.3-9.6
		c-10.6-8.6-11.1-10.6-5.6-29.8c8.1-26.2,18.7-35.3,31.8-27.3c15.1,9.6,48.5,7.6,60.1-4c21.2-21.2,5-55.5-25.7-55.5
		c-8.6,0-23.2,3.5-32.8,8.1c-21.7,10.1-30.3,7.1-34.8-13.1c-3.5-16.7,3.5-30.3,15.6-30.3c9.6,0,9.1-5-3-30.8
		c-12.6-27.8-12.6-43.4-0.5-63.6c9.1-14.6,9.1-16.2,1.5-19.2c-4.5-2-41.9-4.5-82.8-6.1l-73.7-3l-31.3,21.2
		c-17.2,11.1-33.3,20.7-36.3,20.7c-9.6,0-33.3-15.1-36.3-22.7c-4-11.6-4-12.6,4-12.6c7.1,0,43.4-19.2,43.4-23.2c0-1-6.1-0.5-13.6,1
		c-17.2,3-38.9-7.6-40.9-20.2c-1.5-6.1,0.5-8.6,4.5-7.1c4,1.5,10.1-0.5,13.6-4.5c3.5-3.5,12.6-6.6,20.2-7.1c12.6,0,12.1-0.5-4-6.1
		c-14.1-5-18.2-9.1-19.2-20.7c-1.5-13.1-1-14.1,6.1-8.6c6.6,5.6,8.6,5.6,11.1-1.5c4.5-12.1,27.3-10.1,48.5,4.5
		c10.1,7.1,19.7,12.6,20.7,12.6c5,0-0.5-21.7-6.6-25.2c-10.6-6.6,18.7-12.6,34.8-7.1c9.1,3.5,15.1,11.1,20.2,25.2l7.1,20.7l103,3.5
		c57,2,110.5,6.1,121.1,9.6c16.7,5,19.2,8.1,20.7,23.7l1.5,17.7h61.6c59,0,62.6,0.5,86.8,14.6c14.1,8.1,41.4,26.7,60.6,41.4
		c43.9,33.3,65.6,42.4,98.4,42.4c23.2,0,26.2-1.5,35.3-16.2c5-8.6,11.1-25.2,12.6-36.3c9.1-60.1,14.1-75.7,28.8-90.3l14.6-15.1
		l61.6,3c45.4,2,77.2,6.6,122.1,18.7c32.8,8.6,63.6,14.6,67.6,14.1c14.1-3-11.1-22.2-33.3-25.7c-25.7-4-39.4-18.7-34.8-36.8
		c3-12.1,4-12.6,12.6-5c10.6,9.6,36.3,11.6,26.7,2c-3.5-3.5-6.1-11.1-6.1-17.2c0-12.6,10.6-22.7,14.1-13.1c1,3.5,6.1,6.1,11.1,6.1
		c5,0,14.1,6.1,19.7,14.1l10.1,13.6l0.5-12.6c0-12.6,8.1-25.2,16.2-25.2c2,0,4,2.5,4,5.6c0,3,3.5,8.6,7.6,12.6
		c4,4.5,7.6,16.2,7.6,26.2c0,14.1,1.5,16.7,6.1,12.1c3.5-3.5,10.1-6.1,15.1-6.1c5,0,9.1-2,9.1-5c0-8.1,13.6-5.6,17.2,3
		c6.1,16.2,2.5,24.7-18.2,45.9c-12.1,12.1-27.3,33.8-34.3,48.5c-11.1,23.2-14.6,26.2-29.8,27.8c-9.6,1-35.3-4-58-11.1
		c-56.5-17.7-80.2-20.7-87.3-12.1c-3.5,3.5-7.6,18.7-9.6,33.3l-3.5,26.2h18.7c51,0,93.9,47.9,93.9,104.5
		c-0.5,70.2-58,112.5-143.8,106c-51-3.5-69.6-13.6-118.6-61.1c-23.7-23.2-51-46.4-60.6-51.5c-33.3-17.2-95.4-9.6-115.6,15.1
		c-5,6.1-4.5,10.1,2,20.2c19.2,28.8-3,65.1-46.4,76.2l-24.2,6.1l-1.5-27.8c-3-50.5,36.3-106,82.3-116.1c13.6-3,13.1-3.5-10.1-6.6
		c-13.6-2-38.4-4-54-4c-27.8-0.5-29.3,0-31.8,13.6c-12.1,58.5-36.8,112-63.1,133.7c-13.1,11.1-14.1,14.1-9.6,31.8
		c2,11.1,4.5,22.7,4.5,26.2c0,12.1-19.7,6.1-32.3-10.1c-11.6-15.1-12.6-15.6-15.6-6.6c-9.6,30.3-21.2,33.3-32.8,9.1l-7.6-16.7
		l-14.1,17.7C2734.9,7914.7,2723.3,7914.2,2727.3,7889.5z M3355.1,7778.5c18.7-11.6,28.3-39.9,21.7-63.1
		c-11.6-37.9-43.4-47.4-93.9-27.8c-11.1,4.5-33.8,8.1-51,8.6c-16.7,0-31.8,1-33.3,2.5c-4.5,4.5,70.2,78.2,87.3,85.8
		C3305.7,7793.1,3337,7790.6,3355.1,7778.5z"/>
	<path class="st0" d="M2547.6,7881.4c3-3.5,4.5-11.6,3-17.2c-3-10.6-3-10.6-14.6,2.5c-8.1,9.6-16.2,13.1-29.3,13.1
		c-10.1,0-19.7-1.5-21.7-3.5c-2-2,3.5-12.6,12.6-23.7c16.7-20.7,15.6-25.7-1.5-12.6c-12.1,9.1-27.3,9.6-46.9,2
		c-14.1-5.6-14.1-5.6-3-11.1c6.6-2.5,12.6-9.1,14.1-13.6c1.5-4.5,12.1-12.6,24.2-17.7c20.2-9.1,20.7-9.6,7.6-11.1
		c-8.1-1.5-14.1-4.5-14.1-7.1c0-3-4.5-3.5-10.1-2c-13.1,4-13.1-2.5,0-16.7c8.6-9.1,16.2-11.1,39.9-11.1h29.3l22.7-28.8
		c12.6-16.2,31.3-45.4,41.4-65.6c18.7-37.9,45.4-72.2,55.5-72.2c3.5,0,5,7.1,4,19.7c-1.5,12.6,1.5,26.2,8.6,40.4l10.6,20.7
		l-23.7,28.8c-13.1,16.2-34.8,46.4-47.9,67.1l-24.7,37.9l3.5,36.8c3.5,42.9-1,51.5-26.7,51.5
		C2546.1,7888,2543.6,7886.5,2547.6,7881.4z"/>
	<path class="st0" d="M3124,7854.7l-15.6-13.6l-11.6,11.1c-13.6,12.6-43.9,14.1-55.5,2.5c-10.1-10.1-10.1-26.7,0-41.4
		s53-36.3,71.2-36.3c27.3,0,72.2,34.3,72.2,55c0,16.2-4,22.2-18.7,30.3C3149.7,7870.8,3141.6,7869.3,3124,7854.7z"/>
	<path class="st0" d="M2604.1,7809.3c0-6.6,54-64.1,66.1-70.2c23.2-12.1,63.1-15.1,77.7-5.6c13.6,9.1,14.6,12.1,7.6,23.2
		c-3,5.6-14.6,7.6-43.4,7.6c-34.8,0-39.4,1-46.9,12.1c-16.2,23.7-32.3,35.8-46.4,35.8C2610.7,7812.3,2604.1,7810.8,2604.1,7809.3z"
		/>
	<path class="st0" d="M2412.4,7709.8c-14.1-7.1-19.2-27.3-10.6-42.9c2.5-5,18.7-16.7,35.3-25.7c27.8-14.6,32.3-15.6,50-10.6
		c24.2,6.1,59.6,31.3,64.1,44.9c4,13.6-5,30.3-20.7,35.8c-19.2,7.6-25.2,6.1-42.4-8.6c-15.1-12.1-17.2-12.6-22.7-5
		c-5,7.1-27.8,18.7-36.8,18.7C2426.5,7716.4,2419.4,7713.4,2412.4,7709.8z"/>
	<path class="st0" d="M3473.7,7708.8c-8.1-5.6-11.6-13.1-11.6-25.2c0-20.7,19.2-38.4,55-50.5c24.2-8.1,24.7-8.1,53,5.6
		c61.1,28.8,66.1,72.7,8.6,72.7c-19.7,0-26.2-2-32.3-11.1l-7.6-11.6l-12.1,11.1C3510.1,7715.4,3487.9,7718.9,3473.7,7708.8z"/>
	<path class="st0" d="M3092.2,7618.5c-37.3-13.6-49-34.3-49-87.8v-34.8l-36.3,2.5c-20.2,1.5-46.4,6.6-58.5,11.6
		c-28.3,12.1-36.8,12.1-53.5-1c-15.1-12.1-17.2-20.7-4-19.2c4.5,0.5,14.1-1,20.7-4l12.6-5l-15.1-3.5c-8.1-2-17.7-6.1-20.7-9.1
		c-8.6-7.1-8.6-19.7,0-18.7c3,0.5,10.1-0.5,15.1-3c5-2,15.1-1.5,22.7,2l13.6,6.1l-14.6-11.6c-9.1-7.6-13.6-15.6-12.1-21.7
		c2.5-14.6,37.3-11.1,55,5.6c16.7,15.6,19.7,15.1,19.7-3.5c0-14.6,1-15.6,14.1-12.1c21.2,5,36.3,16.7,36.3,27.8
		c0,9.1,3.5,10.1,30.8,10.1c16.7,0,35.3,2.5,40.9,5.6c9.1,5,10.1,8.6,7.1,35.3c-3,25.2-2,30.8,7.1,39.9c5.6,5.6,14.1,10.1,19.2,10.1
		c18.2,0,20.7,6.1,16.2,42.4c-2.5,19.2-7.1,36.8-11.1,38.9C3138.6,7627.6,3114.4,7626.1,3092.2,7618.5z"/>
	<path class="st0" d="M2762.1,7399.5c4-38.9,2-41.4-34.3-41.4c-28.3,0-34.3-16.2-19.2-47.9c7.6-16.2,10.6-18.2,21.7-15.1
		c32.3,8.6,45.9,8.6,58,0.5c15.6-10.1,17.2-37.3,3.5-50c-11.1-10.1-42.9-11.1-51-1.5c-4.5,5.6-2,7.6,14.1,10.1
		c21.2,3,33.3,14.1,28.8,25.7c-2,5.6-11.1,7.6-38.4,7.6h-35.8l-24.2,25.2c-17.2,17.7-28.3,25.2-37.9,25.2c-7.1,0-13.1-1.5-13.1-3.5
		c0-2.5,14.1-19.2,31.8-37.9c22.2-24.2,36.3-35.3,47.9-37.3c16.2-3.5,16.2-3.5,5-9.1c-9.1-4.5-11.6-10.1-11.6-25.7
		c0-17.2,1.5-20.2,11.6-21.7c13.6-2,13.6-4,0.5-33.8c-11.6-26.7-10.6-53,3-68.1c10.1-11.6,7.6-13.1-34.8-20.7
		c-50-8.6-79.7-4-104,15.1c-23.2,18.7-47.9,20.7-64.6,5.6c-13.6-12.6-14.6-22.2-2-19.2c5,1.5,16.2-3,25.2-10.6l15.6-13.6l-16.7,2
		c-12.6,1.5-20.2-1-27.8-8.6c-13.6-13.6-13.6-22.2-0.5-18.2c5.6,1.5,10.1,1,10.1-2c0-2.5,6.1-5.6,14.1-6.6l13.6-1.5l-15.1-7.6
		c-15.6-8.1-25.7-32.8-11.1-27.3c4,1.5,9.1,0.5,11.1-2.5c5.6-9.6,29.8-6.1,49.5,7.1l18.7,13.1v-13.1c0-7.1-2.5-12.6-5.6-12.6
		c-2.5,0-3.5-2-2-5c1.5-2.5,9.6-5,17.7-5c15.6,0,30.3,15.1,30.3,31.3c0,14.1,16.2,17.7,97.9,21.2c87.8,3.5,100.9,8.1,103,33.8
		l1.5,18.2l28.8-4.5c32.8-5.6,67.1-1.5,89.3,9.6c8.1,4.5,34.8,23.7,59,42.4c45.9,36.8,70.7,50,93.4,50c31.8,0,43.4-20.2,49.5-88.3
		c4-44.9,10.1-64.1,24.2-77.2c26.7-24.7,83.8-16.7,169.6,24.2c28.8,14.1,54.5,25.2,57,25.2c11.6,0-9.1-21.7-28.8-30.3
		c-24.2-10.1-31.3-23.7-22.2-40.9c5-10.1,6.6-10.6,11.6-3.5c3,4,11.1,9.6,18.2,11.6c10.1,3,11.6,2.5,6.6-3
		c-7.6-7.6-8.1-19.2-2.5-28.8c6.1-9.1,32.8,5.6,36.8,20.2c3,11.6,3,11.6,8.6-2c3-8.1,9.1-14.1,13.1-14.1c8.6,0,19.7,25.2,17.2,40.9
		c-1.5,10.1,0.5,11.6,11.1,10.1c7.1-0.5,14.1-4,16.7-7.6c2.5-4,5-3.5,8.6,2c10.1,15.6,5,29.3-18.7,50.5
		c-13.6,11.1-30.3,31.3-37.3,44.4c-8.6,15.1-17.2,24.2-24.2,25.2c-6.1,1-33.3-8.6-60.1-21.2c-27.3-12.6-55-23.2-61.1-23.2
		c-11.1,0-11.6,1.5-8.6,19.2c1.5,10.1,3,24.7,3,31.8c0,11.1,3.5,14.1,21.2,19.2c47.4,14.6,76.7,46.9,82.8,93.4
		c4.5,30.3-14.6,70.7-41.4,88.8c-16.7,11.1-24.2,12.6-64.6,12.6c-56,0-66.6-4.5-125.2-55c-42.9-36.8-73.7-53.5-98.9-53.5
		c-20.7,0-49.5,9.1-62.6,19.7c-11.6,9.6-11.6,10.1-2.5,24.7c10.6,18.7,10.6,27.3,1,46.4c-7.6,15.1-27.8,28.3-54.5,35.8l-14.6,4
		l2-36.8c2-49,20.2-79.7,58.5-99.4l26.2-14.1l-21.7-2.5c-11.6-1.5-33.3-4-47.4-5.6l-26.7-3v16.7c0,37.9-49.5,145.4-66.1,145.4
		c-5,0-4,8.6,4,44.4c4,16.2-10.1,14.1-25.2-4c-7.1-8.1-14.1-15.1-15.1-15.1c-1.5,0-3.5,7.1-5,15.1c-4.5,21.2-20.7,20.7-28.8-1
		l-5.6-16.7l-7.6,13.6c-4,7.6-12.1,16.7-18.2,19.7C2759.1,7434.8,2759.1,7434.8,2762.1,7399.5z M3325.9,7300
		c8.1-4.5,18.7-14.6,22.7-23.2c10.6-19.7,3-44.4-18.2-62.6c-23.2-19.2-37.3-20.7-61.6-7.6c-14.1,8.1-31.8,12.6-57.5,14.1
		c-35.3,2-36.8,2.5-25.7,10.1c6.6,4,25.2,19.7,41.9,33.8C3277.4,7307.6,3297.1,7314.7,3325.9,7300z"/>
	<path class="st0" d="M2582.4,7387.8l3-20.2l-15.6,15.1c-16.7,17.2-29.3,19.7-44.4,8.6c-9.1-7.1-9.1-7.6-0.5-10.6
		c4.5-2,8.6-6.1,8.6-9.1s4-10.1,8.6-15.6c5-6.1,5.6-7.6,1.5-4c-8.1,7.1-39.4,8.1-50.5,1c-6.1-4-5.6-6.1,4-15.1
		c6.1-5.6,11.1-12.6,11.1-15.1c0-2,7.1-5.6,15.1-7.6c8.6-2,15.1-5,15.1-6.6c0-2-6.6-6.6-15.1-10.1c-18.2-8.1-18.7-12.6-4.5-26.7
		c9.1-9.1,14.6-10.6,34.8-8.1c24.2,3,24.7,2.5,42.9-19.7c10.1-12.1,28.8-40.9,41.4-64.1c23.7-42.9,37.9-61.6,54-70.2
		c8.6-4.5,9.1-3.5,6.1,14.6c-2,11.6-0.5,28.8,4,43.9l7.6,24.7l-21.7,25.7c-12.1,14.1-33.8,43.9-48.5,66.1
		c-25.7,39.9-26.2,40.9-22.7,69.6c3.5,34.8-5,54-24.7,54C2580.9,7408.5,2579.9,7407,2582.4,7387.8z"/>
	<path class="st0" d="M3041.7,7379.3c-20.2-22.2-1.5-52.5,45.4-73.7c21.2-9.1,21.2-9.1,49.5,2.5c33.3,13.6,47.9,29.8,47.9,52.5
		c0,28.3-39.4,37.9-63.6,15.1l-13.6-12.6l-11.6,12.6C3081.6,7391.4,3053.8,7392.9,3041.7,7379.3z"/>
	<path class="st0" d="M2443.7,7218.8c-24.7-17.2-8.1-48.5,37.3-69.6c28.8-13.6,29.3-13.6,51.5-5c31.3,11.6,56.5,34.8,56.5,52
		c0,30.3-40.4,41.9-62.6,18.2l-12.1-13.1l-15.1,13.1C2482,7228.9,2460.3,7230.4,2443.7,7218.8z"/>
	<path class="st0" d="M3443.5,7219.3c-7.6-5-11.6-13.6-11.6-22.2c0-17.2,14.1-30.8,49.5-48.5l26.7-13.6l26.7,11.1
		c32.3,13.1,55,34.8,55,53c0,17.7-6.6,23.2-30.3,26.2c-16.2,2-22.7,0-35.3-10.6l-16.2-13.6l-7.1,11.1
		C3490.9,7226.3,3458.6,7230.4,3443.5,7219.3z"/>
	<path class="st0" d="M3093.7,7145.6c-21.7-8.6-44.9-35.3-53.5-61.1c-7.6-23.7-7.6-49,0.5-80.2c3-12.1,2-13.6-16.2-17.2
		c-10.6-2-36.3-3.5-57.5-3c-41.4,1-56-5.6-62.6-28.3c-3-11.6,4-16.1,10.1-6.6c1.5,3,10.6,5,19.2,5h16.2l-16.2-10.6
		c-22.2-14.1-22.2-29.8-0.5-29.8c8.6,0,20.2,4,25.7,9.1c10.1,8.6,10.1,8.6,1.5-5c-5-7.6-8.1-18.7-7.1-24.7
		c1.5-13.1,14.1-19.7,14.1-7.6c0,5,4.5,8.1,12.1,8.1c8.6,0,15.1,5.6,23.2,18.7c8.6,14.6,11.6,17.2,15.6,11.1
		c2.5-4,4.5-11.1,4.5-16.2c0-7.1,2.5-8.6,11.6-5.6c19.2,5.6,24.7,13.1,22.7,30.3c-2,15.6-1,16.2,24.2,21.7
		c36.8,8.6,39.9,13.1,31.8,54c-7.6,38.4-4.5,47.4,20.2,55l16.7,5l-2,33.8c-1,18.7-4,36.3-7.1,39.4
		C3133.6,7148.6,3107.3,7151.6,3093.7,7145.6z"/>
	<path class="st0" d="M4739.5,8103c-13.6-22.2-18.7-57.5-10.6-80.8c17.2-52.5,85.3-86.8,134.8-68.1c19.7,7.1,49.5,37.3,59.6,60.6
		c7.6,16.7,8.1,20.7,2,27.8c-10.6,12.6-145.9,77.7-162,77.7C4753.7,8120.2,4747.1,8115.6,4739.5,8103z"/>
	<path class="st0" d="M1321.2,7893.6c-67.6-27.3-107.5-98.4-82.3-146.9c32.3-62.6,131.7-45.9,179.7,29.8
		c11.1,17.2,14.6,28.8,14.6,47.4C1433.2,7884,1379.8,7917.3,1321.2,7893.6z"/>
	<path class="st0" d="M4601.2,7741.6c-10.1-13.6-18.7-27.3-18.7-29.8c0-6.1,77.7-32.3,88.3-29.8c6.6,1,3,10.1-16.2,41.4
		c-13.1,22.2-26.7,40.9-29.3,41.9C4622.4,7766.4,4611.8,7755.8,4601.2,7741.6z"/>
	<path class="st0" d="M4157.6,7297c-13.6-8.6-24.2-18.7-24.2-22.7c0-8.1,59-77.7,66.1-77.7c9.6,0,9.6,13.6-0.5,62.6
		c-5.6,27.3-10.1,50.5-10.1,51.5C4188.9,7315.7,4179.8,7311.6,4157.6,7297z"/>
	<path class="st0" d="M2057.6,6584.9c-5-59.6-4-125.2,1-125.2c5.6,0,103.5,114.1,105.5,122.6c0.5,3.5-18.2,13.6-48.5,25.2
		c-26.7,10.1-50.5,18.7-52,18.7S2059.1,6607.6,2057.6,6584.9z"/>
</g>
</svg>
