<?xml version="1.0" encoding="utf-8"?>
<!-- Generator: Adobe Illustrator 25.1.0, SVG Export Plug-In . SVG Version: 6.00 Build 0)  -->
<svg version="1.1" id="Layer_1" xmlns="http://www.w3.org/2000/svg" xmlns:xlink="http://www.w3.org/1999/xlink" x="0px" y="0px"
	 viewBox="0 0 451.7 319.1" style="enable-background:new 0 0 451.7 319.1;" xml:space="preserve">
<style type="text/css">
	.st0{fill:#00B189;}
	.st1{fill:#00538B;}
</style>
<path class="st0" d="M41.8,140.5c0.4-0.6,0.8-1.2,1.2-1.8c2.7-4.5,3.7-9.7,3-14.9s-3.2-9.9-7.1-13.5c-3.8-3.6-8.8-5.7-14-6.1
	c-5.2-0.4-10.5,1-14.8,3.9c-2.2,1.5-4.2,3.3-5.8,5.5c-3.6,4.9-5.1,11.1-4.1,17.1c1,6,4.3,11.4,9.3,15c5,3.6,11.1,5,17.2,4.1
	C32.8,148.7,38.2,145.4,41.8,140.5z"/>
<path class="st1" d="M435.4,119.2c-12.9-8.9-23.7-11.4-36.5-16.1c-11-4.1-10.6-10.7-7.1-14.1c6.2-6,18-3.6,22.9-1.2
	c3.5,1.8,6.6,4.3,9.1,7.3c0.4,0.5,0.8,0.9,1.4,1.2c0.6,0.3,1.2,0.5,1.8,0.5c0.6,0,1.3-0.1,1.8-0.4c0.6-0.3,1.1-0.6,1.5-1.1
	c1.4-1.6,18.2-19.9,20.1-21.9c0.4-0.4,0.7-0.9,1-1.5c0.2-0.5,0.3-1.1,0.3-1.7c0-0.6-0.2-1.2-0.4-1.7c-0.2-0.5-0.6-1-1-1.4
	c-1.7-1.7-8.6-8.2-21.7-13.3c-10.7-4.3-22.4-5.6-33.9-3.9c-9.7,1.4-29.1,5.1-40.2,24.9c-11,19.8-2.8,43.3,6.7,51.3
	c11.2,9.5,19.5,11.7,32,15.6c12.5,3.9,20.1,9.6,15.8,18.1c-4,7.8-18.1,6.2-26.3,1.6c-4.3-2.2-8.2-5.3-11.4-9.1
	c-0.4-0.5-0.9-0.9-1.4-1.2c-0.6-0.3-1.2-0.4-1.8-0.5c-0.6,0-1.2,0.1-1.8,0.3s-1.1,0.6-1.5,1.1c-1.9,2-18.9,19.9-20.7,21.8
	c-0.4,0.4-0.7,0.9-0.9,1.4c-0.2,0.5-0.3,1.1-0.3,1.7c0,0.6,0.1,1.1,0.4,1.7c0.2,0.5,0.6,1,1,1.4c2.9,2.9,8.9,9.9,23.2,15.6
	c11.6,4.6,24.5,6.1,38.8,4.6c17.2-1.8,34.4-13.9,39.8-26.8C456.4,149.3,448.3,128.1,435.4,119.2L435.4,119.2z"/>
<path class="st1" d="M280.9,50.8h-49.3c-1.5,0-2.2,0.8-2.2,2.4v143c0,0.3,0,0.6,0.1,0.9c0.1,0.3,0.3,0.6,0.5,0.8
	c0.2,0.2,0.5,0.4,0.8,0.5c0.3,0.1,0.6,0.1,0.9,0.1h33.7c0.3,0,0.6,0,0.9-0.1c0.3-0.1,0.6-0.3,0.8-0.5c0.2-0.2,0.4-0.5,0.5-0.8
	c0.1-0.3,0.1-0.6,0.1-0.9v-50.4h12.6c8.2,0,55.4-0.4,55.4-47.9S289.9,50.8,280.9,50.8L280.9,50.8z M277.7,113.4h-10.1V83.8h10.5
	c7.1,0,20.5,0,20.5,14.3S284.3,113.4,277.7,113.4z"/>
<path class="st1" d="M109.2,73.3l2.6-6.7C36.9,45.3-8.2,62.7,10.2,108c2.3-1.5,4.8-2.7,7.4-3.3C-1.2,65.4,39,48.5,109.2,73.3z"/>
<path class="st1" d="M274.2,178v8.4c9.7,9.1,18.5,19.1,26.5,29.7c38.3,51.3,17.3,69.5-61.7,43.5c-42.4-13.9-89.3-38.4-129.7-66.1
	l8-23.1h48.5l9.9,26.4c0.1,0.5,0.3,0.9,0.7,1.2c0.4,0.3,0.9,0.4,1.3,0.4h35.9c0.3,0,0.7,0,1-0.1s0.6-0.3,0.8-0.5
	c0.2-0.2,0.4-0.5,0.5-0.8s0.1-0.6,0.1-1c0-0.4-0.2-0.8-0.4-1.2L160.3,52.3c-0.1-0.5-0.4-0.9-0.8-1.1c-0.4-0.3-0.8-0.4-1.3-0.4h-31.5
	c-0.5,0-1,0.1-1.4,0.4c-0.4,0.3-0.7,0.7-0.8,1.2L78.2,170.5C65.8,160.6,54,150,43,138.6c-0.4,0.6-0.8,1.2-1.2,1.8
	c-1.7,2.3-3.9,4.3-6.3,5.9c11.6,13.2,24.3,25.4,37.9,36.5c6.3,5.3,13,10.4,19.9,15.5c43.2,31.8,95.9,59.4,143.9,73
	c83.5,23.7,106.3,2.3,69.3-55C298.3,203.8,287.3,190.8,274.2,178L274.2,178z M141.9,98.6l13.4,39.1h-27L141.9,98.6z"/>
</svg>
