<?xml version="1.0" encoding="utf-8"?>
<!-- Generator: Adobe Illustrator 25.1.0, SVG Export Plug-In . SVG Version: 6.00 Build 0)  -->
<svg version="1.1" id="Layer_1" xmlns="http://www.w3.org/2000/svg" xmlns:xlink="http://www.w3.org/1999/xlink" x="0px" y="0px"
	 viewBox="0 0 600 600" style="enable-background:new 0 0 600 600;" xml:space="preserve">
<style type="text/css">
	.st0{fill:#00B189;}
	.st1{fill:#00538B;}
</style>
<path class="st0" d="M55.6,254c0.5-0.8,1.1-1.6,1.6-2.4c3.6-6,4.9-12.9,4-19.8c-0.9-6.9-4.2-13.1-9.4-17.9c-5-4.8-11.7-7.6-18.6-8.1
	s-13.9,1.3-19.7,5.2c-2.9,2-5.6,4.4-7.7,7.3c-4.8,6.5-6.8,14.7-5.4,22.7c1.3,8,5.7,15.1,12.4,19.9c6.6,4.8,14.7,6.6,22.8,5.4
	C43.7,264.9,50.9,260.5,55.6,254z"/>
<path class="st1" d="M578.4,225.8c-17.1-11.8-31.5-15.1-48.5-21.4c-14.6-5.4-14.1-14.2-9.4-18.7c8.2-8,23.9-4.8,30.4-1.6
	c4.6,2.4,8.8,5.7,12.1,9.7c0.5,0.7,1.1,1.2,1.9,1.6c0.8,0.4,1.6,0.7,2.4,0.7c0.8,0,1.7-0.1,2.4-0.5c0.8-0.4,1.5-0.8,2-1.5
	c1.9-2.1,24.2-26.4,26.7-29.1c0.5-0.5,0.9-1.2,1.3-2c0.3-0.7,0.4-1.5,0.4-2.3c0-0.8-0.3-1.6-0.5-2.3c-0.3-0.7-0.8-1.3-1.3-1.9
	c-2.3-2.3-11.4-10.9-28.8-17.7c-14.2-5.7-29.7-7.4-45-5.2c-12.9,1.9-38.6,6.8-53.4,33.1c-14.6,26.3-3.7,57.5,8.9,68.1
	c14.9,12.6,25.9,15.5,42.5,20.7c16.6,5.2,26.7,12.7,21,24c-5.3,10.4-24,8.2-34.9,2.1c-5.7-2.9-10.9-7-15.1-12.1
	c-0.5-0.7-1.2-1.2-1.9-1.6c-0.8-0.4-1.6-0.5-2.4-0.7c-0.8,0-1.6,0.1-2.4,0.4c-0.8,0.3-1.5,0.8-2,1.5c-2.5,2.7-25.1,26.4-27.5,29
	c-0.5,0.5-0.9,1.2-1.2,1.9c-0.3,0.7-0.4,1.5-0.4,2.3s0.1,1.5,0.5,2.3c0.3,0.7,0.8,1.3,1.3,1.9c3.9,3.9,11.8,13.1,30.8,20.7
	c15.4,6.1,32.5,8.1,51.5,6.1c22.8-2.4,45.7-18.5,52.9-35.6C606.2,265.7,595.5,237.6,578.4,225.8L578.4,225.8z"/>
<path class="st1" d="M373.2,134.9h-65.5c-2,0-2.9,1.1-2.9,3.2V328c0,0.4,0,0.8,0.1,1.2c0.1,0.4,0.4,0.8,0.7,1.1
	c0.3,0.3,0.7,0.5,1.1,0.7s0.8,0.1,1.2,0.1h44.8c0.4,0,0.8,0,1.2-0.1c0.4-0.1,0.8-0.4,1.1-0.7c0.3-0.3,0.5-0.7,0.7-1.1
	s0.1-0.8,0.1-1.2v-66.9h16.7c10.9,0,73.6-0.5,73.6-63.6S385.1,134.9,373.2,134.9L373.2,134.9z M368.9,218.1h-13.4v-39.3h13.9
	c9.4,0,27.2,0,27.2,19S377.7,218.1,368.9,218.1z"/>
<path class="st1" d="M145.2,164.8l3.5-8.9c-99.5-28.3-159.4-5.2-134.9,55c3.1-2,6.4-3.6,9.8-4.4C-1.5,154.3,51.9,131.9,145.2,164.8z
	"/>
<path class="st1" d="M364.3,303.8V315c12.9,12.1,24.6,25.4,35.2,39.4c50.9,68.1,23,92.3-81.9,57.8c-56.3-18.5-118.6-51-172.2-87.8
	l10.6-30.7h64.4l13.1,35.1c0.1,0.7,0.4,1.2,0.9,1.6c0.5,0.4,1.2,0.5,1.7,0.5h47.7c0.4,0,0.9,0,1.3-0.1s0.8-0.4,1.1-0.7
	c0.3-0.3,0.5-0.7,0.7-1.1c0.1-0.4,0.1-0.8,0.1-1.3c0-0.5-0.3-1.1-0.5-1.6L213,136.9c-0.1-0.7-0.5-1.2-1.1-1.5
	c-0.5-0.4-1.1-0.5-1.7-0.5h-41.8c-0.7,0-1.3,0.1-1.9,0.5c-0.5,0.4-0.9,0.9-1.1,1.6L104,293.9c-16.5-13.1-32.1-27.2-46.7-42.4
	c-0.5,0.8-1.1,1.6-1.6,2.4c-2.3,3.1-5.2,5.7-8.4,7.8c15.4,17.5,32.3,33.7,50.3,48.5c8.4,7,17.3,13.8,26.4,20.6
	c57.4,42.2,127.4,78.9,191.1,96.9c110.9,31.5,141.2,3.1,92-73C396.3,338.1,381.7,320.8,364.3,303.8L364.3,303.8z M188.6,198.4
	l17.8,51.9h-35.9L188.6,198.4z"/>
</svg>
