<?xml version="1.0" encoding="utf-8"?>
<!-- Generator: Adobe Illustrator 25.1.0, SVG Export Plug-In . SVG Version: 6.00 Build 0)  -->
<svg version="1.1" id="Layer_1" xmlns="http://www.w3.org/2000/svg" xmlns:xlink="http://www.w3.org/1999/xlink" x="0px" y="0px"
	 viewBox="0 0 600 600" style="enable-background:new 0 0 600 600;" xml:space="preserve">
<style type="text/css">
	.st0{fill:#FFFFFF;}
</style>
<g>
	<path d="M203.1,421.8c-0.5,0.5-0.9,1.4-1.4,1.4"/>
	<path d="M217,313c1.4,0,2.8-1.4,2.8-2.8c0-1.8-1.4-2.8-2.8-2.8s-2.8,1.4-2.8,2.8C213.7,312.1,215.1,313,217,313L217,313z"/>
	<path d="M351.6,190.3L351.6,190.3H246.9l0,0l0,0v84.9c0,8.3,3.7,15.2,8.3,17.5l40.1,24c0.9,0.9,2.3,1.8,3.7,1.8
		c1.4,0,2.3-0.5,3.2-1.4l41-24.4c4.6-2.3,8.3-9.2,8.3-17.5V190.3L351.6,190.3L351.6,190.3z M281.5,214.8h-9.2v-21.7h9.2V214.8
		L281.5,214.8z M275.1,222.2l1.4-1.4l-0.9-1.4h1.8l0.9-1.8l0.9,1.8h1.8l-0.9,1.4l1.4,1.4l-1.8,0.5v1.8l-1.4-1.4l-1.4,1.4v-1.8
		L275.1,222.2L275.1,222.2z M249.7,249.4v-20.8h11.1v20.8H249.7L249.7,249.4z M251.5,219.4h1.8l0.9-1.8l0.9,1.8h1.8l-0.9,1.4
		l1.4,1.4l-1.8,0.5v1.8l-1.4-1.4l-1.4,1.4v-1.8l-1.8-0.5l1.4-1.4L251.5,219.4L251.5,219.4z M264,240.6h1.8l0.9-1.8l0.9,1.8h1.8
		l-0.9,1.4l1.4,1.4h-1.8v1.8l-1.4-1.4l-1.4,1.4v-1.8h-1.8l1.4-1.4L264,240.6L264,240.6z M271.4,224c0-0.5-0.9-0.9-0.9-0.9
		c-0.9,0-1.4,1.8-2.3,1.8c-0.5,0-0.9,0-0.9-0.5s1.4-0.9,1.8-1.4c-6.9,0-6.9,3.2-7.8,3.2c-1.8,0,1.4-3.2,2.3-4.2
		c-1.4,0-2.3-1.8-3.7-2.8c0.9-0.9,0.9-0.5,1.8,0c0-0.9,0.5-1.4,2.3-1.4c3.2,0,2.3,2.8,2.8,2.8c0.5,0,0-2.8,1.8-2.8
		c3.2,0,6.9,7.8,3.2,7.8C270,225.4,271.4,224,271.4,224L271.4,224z M263.5,201.4l1.4-1.4l-0.9-1.4h1.8l0.9-1.8l0.9,1.8h1.8l-0.9,1.4
		l1.4,1.4l-1.8,0.5v1.8l-1.4-1.4l-1.4,0.9v-1.8H263.5L263.5,201.4z M260.8,193.1v21.7h-11.1v-21.7L260.8,193.1L260.8,193.1z
		 M281.5,305.2l-24.9-15.2c-4.2-2.8-6.5-7.8-6.9-13.8v-24h31.8V305.2L281.5,305.2z M272.8,249.4v-20.8h9.2v20.8H272.8L272.8,249.4z
		 M313.8,306.6l-11.5,6.9l0,0c-0.9,0.5-1.8,0.9-3.2,0.9c-1.4,0-2.3-0.5-3.2-0.9l-11.5-6.9v-54.4h29.5V306.6L313.8,306.6z
		 M313.8,249.4h-29.5v-56.3h29.5V249.4L313.8,249.4z M348.8,276.1c-0.5,6-2.8,11.1-6.9,13.8L317,305.2v-53h31.8V276.1L348.8,276.1z
		 M348.8,249.4H317v-56.3h31.8V249.4L348.8,249.4z"/>
	<path d="M280.1,271.5c0-0.5-4.2,1.4-2.8,1.4c0-0.9,2.3-3.2,3.2-4.2c0-1.4-1.8,0-3.7,0.9c6-8.8,2.3-5.1-1.4-4.6
		c5.5-5.5,4.2-5.5,0-3.7c3.2-2.3,3.7-5.5,3.2-6c-2.8,3.7-5.5,3.2-5.5,6.9c0,2.3-0.9,6.5-1.8,7.4c-1.4,1.8-0.5-6.5-4.6-6.5
		c-1.4,0-4.6,0-5.5,1.4c0.9,0,2.3,2.3,2.3,2.8c0,0.9,0.9,3.2-0.5,3.2s-3.2-2.8-3.2-4.2c0-1.4,0-0.9,0-3.2c0-3.2-5.5-8.3-7.8-8.3
		c0,2.3,3.2,2.8,3.2,6c-1.4,0-3.2-2.3-3.2-0.9c0,1.4,1.8,1.8,1.8,3.2c0,1.4-2.3-0.5-2.3,0.9s1.4,0.9,1.4,2.3c-0.9-0.5-1.8,0-1.8,0.5
		c0,0.5,0.5,0.9,0.9,1.4c-0.5,0-0.5,0.5-0.5,2.3c0,6.9,4.2,9.7,7.4,9.7c2.3,0,1.8-1.4,2.3-2.3c0,0.9,1.4-0.5,1.4,1.4
		c0,1.8-2.3,1.4-2.3,2.8c0,2.3,3.2,0,3.2,2.8c0,3.2-0.5,3.2-0.5,4.2c0,0.9,3.7-1.4,3.2-1.4c0.9,0.5,0.9,2.8,2.3,2.8
		c0.9,0,1.4-2.8,1.8-2.8c-0.5,0,3.2,2.3,3.2,1.4c0-3.2-1.4-1.8-1.4-4.2c0-1.8,4.2-1.4,3.7-2.8c-0.5-0.9-0.9-0.5-1.4-1.8
		c0,0.5-3.2-5.1,0.9-2.3C279.7,281.6,280.1,272,280.1,271.5L280.1,271.5z"/>
	<path d="M391.7,293.6c1.8,0,3.2-1.4,3.2-3.2c0-1.8-1.4-3.2-3.2-3.2c-1.8,0-3.2,1.4-3.2,3.2C388.5,292.3,389.9,293.6,391.7,293.6
		L391.7,293.6z"/>
	<path d="M377.9,301.9c1.8,0,3.2-1.4,3.2-3.2c0-1.8-1.4-3.2-3.2-3.2s-3.2,1.4-3.2,3.2C374.7,300.6,376,301.9,377.9,301.9
		L377.9,301.9z"/>
	<path d="M212.3,321.3c1.8,0,3.2-1.4,3.2-3.2c0-1.8-1.4-3.2-3.2-3.2s-3.2,1.4-3.2,3.2C208.7,319.9,210,321.3,212.3,321.3
		L212.3,321.3z"/>
	<path d="M222.9,322.2c1.8,0,3.2-1.4,3.2-3.2c0-1.8-1.4-3.2-3.2-3.2s-3.2,1.4-3.2,3.2C219.3,320.8,221.1,322.2,222.9,322.2
		L222.9,322.2z"/>
	<path d="M521.3,177.4c5.1,6,6,15.7,2.8,23.1c-1.8,0-1.8-2.8-1.8-4.2c-3.7-6.9-6.5-15.7-3.2-23.1C520.8,173.3,519.9,176,521.3,177.4
		L521.3,177.4z"/>
	<path d="M83.2,185.7c-0.9,4.6-0.9,10.6,0,14.8c-0.9,0.9-0.9-0.9-1.8-0.9c-6.9-5.1-3.7-15.2-5.5-22.6c0.5-0.5,1.4-0.9,1.8-0.5
		C81.4,178.8,82.8,182,83.2,185.7L83.2,185.7z"/>
	<path d="M537,186.2c0.9,1.8-0.9,4.2-2.3,5.1c-1.8,0.5-3.7-0.5-4.6-1.8c-0.5-1.8,0.5-3.7,2.3-4.6C534.2,184.3,536.1,184.8,537,186.2
		L537,186.2z"/>
	<path d="M72.2,194.5c-0.5,1.8-0.9,3.2-2.3,4.2c-0.9,0-2.8,0-3.7-0.9c-0.9-0.9-1.4-2.8-0.9-3.7c0.9-1.4,2.3-1.4,3.7-1.8
		C70.3,192.6,71.7,192.6,72.2,194.5L72.2,194.5z"/>
	<path d="M544.4,197.3c0.5,0.9,0.5,1.8,0,2.8c-1.4,1.8-3.2,2.3-5.1,1.8c-1.4-0.9-1.8-1.8-1.8-3.2c0.5-1.4,1.8-2.8,3.2-3.2
		C542.1,195.4,543,196.3,544.4,197.3L544.4,197.3z"/>
	<path d="M533.8,197.7c1.4,0.9,0.5,2.8,0,3.7c-0.9,0.9-2.3,2.3-3.7,1.8c-0.9-0.9-1.8-0.9-2.3-2.3c0-1.8,0.9-3.7,2.8-4.2
		C531.9,196.3,532.8,197.3,533.8,197.7L533.8,197.7z"/>
	<path d="M520.4,200.5c0,1.8,0,4.6-2.3,5.1c-2.3,0.9-3.7-0.9-4.2-2.8c0-1.8,0.9-3.7,2.8-4.6C518.1,198.2,519.5,199.1,520.4,200.5
		L520.4,200.5z"/>
	<path d="M92,201.4c0.5,1.8-1.4,2.8-2.3,3.7c-1.4,0.5-2.8-0.9-3.7-1.8c-1.4-1.4,0.5-2.3,0.9-3.7C88.8,198.2,91.5,199.1,92,201.4
		L92,201.4z"/>
	<path d="M81.4,201.9c0,1.4-0.9,2.8-1.8,3.7c-1.4,0.5-2.8-0.5-3.7-1.8c-0.9-1.8,0-3.7,1.8-4.2C79.1,198.6,80.5,200.5,81.4,201.9
		L81.4,201.9z"/>
	<path d="M476.1,202.8c1.8,3.7,3.2,8.3,3.7,13.4c-0.9,3.7,0.5,8.3-1.8,10.6c-2.8-0.9-2.8-4.2-4.6-5.5c-3.2-6.5-0.5-13.8,0.9-20.3
		C475.7,200,475.7,201.9,476.1,202.8L476.1,202.8z"/>
	<path d="M72.6,204.6c0.5,2.3-0.9,3.2-2.3,4.6c-2.3,0.5-3.7-0.9-4.6-2.8c0-1.8,0.9-3.7,2.3-4.6C69.8,202.3,71.7,203.3,72.6,204.6
		L72.6,204.6z"/>
	<path d="M505.2,210.2c2.3,5.5,2.8,12,0.9,17.5l-0.9,0.9c-2.8-5.1-6-9.7-7.4-14.8c0-3.7,0.9-7.4,2.3-10.6c1.4-0.9,1.8,0,2.8,1.4
		C502.4,206.5,503.3,209.2,505.2,210.2L505.2,210.2z"/>
	<path d="M528.2,206.9c0,1.8-0.9,3.7-2.8,4.6c-1.8,0.5-3.7,0-4.2-2.3c-0.5-1.8,0.5-3.7,1.8-4.6C525,203.7,527.3,205.6,528.2,206.9
		L528.2,206.9z"/>
	<path d="M81.4,212.5c0,1.4-1.4,3.2-2.8,3.7c-1.4,0.9-2.8-0.9-3.7-1.4c-0.5-1.4-0.9-2.8,0-4.2c0.5-0.9,1.8-0.9,2.8-1.4
		C79.5,210.2,80.9,210.6,81.4,212.5L81.4,212.5z"/>
	<path d="M89.7,211.6c0.9,1.8-1.4,2.8-1.8,3.7c-2.3,0.9-3.2-0.9-4.2-2.3c-0.5-1.8,0.9-2.8,1.8-4.2C87.4,208.3,88.8,210.2,89.7,211.6
		L89.7,211.6z"/>
	<path d="M533.3,211.1c0,2.3-3.7,4.6-4.2,7.4c-1.8,5.1-6.5,8.8-11.5,10.1c-0.9,0.9-2.8,2.3-4.2,2.3c-0.5-3.7,2.8-6.9,5.1-10.1
		C522.2,215.7,527.8,212.5,533.3,211.1L533.3,211.1z"/>
	<path d="M77.7,218.9c2.8,3.2,4.2,6,7.4,8.8c0,0.9-0.5,1.8-1.4,1.8c-8.8-0.5-15.2-9.7-19.4-16.1c0.5-1.8,2.8-0.5,4.2-0.5
		C71.7,214.8,75.4,215.7,77.7,218.9L77.7,218.9z"/>
	<path d="M535.6,221.2c-0.5,7.8-4.2,16.1-11.5,19.8c-1.8,0.9-4.2,2.8-6,1.4c3.7-7.8,9.7-14.3,16.1-21.2H535.6L535.6,221.2z"/>
	<path d="M500.6,226.8c0.5,2.8-0.9,4.6-3.2,5.5c-1.8,0-3.2-1.4-4.2-2.8c0-1.8,0.9-3.7,2.8-4.2c0.5-0.5,1.4-0.5,2.3-0.5
		C499.2,224.9,499.6,225.9,500.6,226.8L500.6,226.8z"/>
	<path d="M67.5,228.6c3.7,2.3,6.5,5.5,9.7,8.8c-2.3,1.8-5.1,0-7.8,0c-6-2.3-10.6-7.4-16.6-9.2c0-1.8,2.8-1.4,3.7-1.8
		C60.6,225.9,63.9,227.7,67.5,228.6L67.5,228.6z"/>
	<path d="M263.5,173.7c-10.1-4.2-17.1,6.5-27.7,5.5c-1.4,0.9-0.9,1.8-1.8,2.8c-0.5,0.5-1.4,0-1.8,0c-0.5-4.6-1.8-8.3-2.8-12.9
		c-0.9-1.8-0.5-4.6-1.4-6.5c-6-16.1,14.3-3.7,18.4-13.4c3.7-8.3-6.9-9.2-9.7-14.8v-1.8c-2.8-2.8-6-3.7-7.8-7.8
		c1.4-4.6,1.8-9.7,0.5-14.3c0-0.9-0.9-2.8-2.8-1.8c-3.7,4.6-6,8.8-9.2,13.4c-3.7-2.8-6.9-6-10.6-8.3c-2.8-0.5-5.1-3.2-8.3-1.8
		c-0.5,0.9,0,1.8,0.5,2.8c0,7.4,3.7,12.9,8.8,18l0.5,2.8c-3.2,7.4-2.3,16.1-3.2,24.4c-8.3,21.2-21.7,41-39.7,55.8
		c-10.6,12-23.1,23.1-24.4,39.2c-0.5,2.8,0.5,5.5-1.8,7.4c-6-2.3-12-5.1-17.1-9.2c-8.3-6-20.3-5.1-25.8-15.7
		c-2.3-4.2,0.5-8.3,2.8-11.5c6-6,5.5-16.6,1.8-23.5c-0.9,0-0.9,0.9-1.4,0.9c-0.5,11.1-9.2,18.4-6,30.4c0.9,3.7,2.8,5.5,3.7,9.2
		c-1.4-0.5-3.2-0.5-4.2-0.9c-4.2-0.5-7.8-2.3-12.5-1.8c-8.3,3.7-19.8-0.9-26.7,6.9c-0.9,0-2.8,0.5-2.3,1.8c4.2,0,7.8,0.9,12,0.9
		c6.5,0.9,10.6-4.2,15.2-6.5h0.9c1.8-1.8,5.1-0.9,7.4-0.9c11.5,1.4,20.3,6.9,30,12.5v0.9c-3.7,1.8-7.8,2.8-11.5,4.6
		c-4.2,3.2-8.8,7.4-10.1,12.5c-2.8,4.6,0.9,8.8,2.8,12.5c0,1.8,0.5,4.2,1.8,4.6c6-6.5,0.5-13.8,1.4-21.2c1.4-5.5,6.5-8.3,12-9.7
		c10.6-4.6,18,4.2,26.3,8.8c0,8.3,0.9,16.6-0.9,24.9c-2.8,0.9-6,1.4-8.8,1.4c-14.3,0.9-25.8,9.2-38.7,13.4c-6,1.8-12.9,1.8-18.4,4.2
		c4.6,1.4,9.2-0.5,14.3-0.5c18-2.8,31.8-16.6,51.2-13.8l0.5,0.5c-2.3,4.6-5.1,8.3-8.8,12c-0.5-1.8-0.9-3.7-2.8-4.6
		c-1.4-0.9-3.2,0-4.2,1.4c-0.5,0.9-0.5,1.8,0,2.8c0.9,1.8,2.3,1.8,4.2,2.8c-0.5,1.8-2.3,2.3-3.7,3.7c-5.1,8.8-15.7,5.1-21.7,11.1
		c-0.9,1.4-4.2,1.8-2.8,4.2c6.9,0.9,13.8-0.9,18.9-4.6c6.9-7.4,13.8-14.8,20.8-22.1c0.9,6-0.5,12-4.2,16.6c-1.8-0.9-2.8-2.3-5.1-2.8
		c-1.8,0.5-3.2,2.3-3.2,3.7c0.9,1.4,1.4,2.8,2.8,3.7c-6,4.6-14.3,4.6-21.2,6.9c-13.4,1.8-26.3,2.8-39.7,2.8
		c-6.5-0.5-13.8,1.8-19.8,0c-6.9,1.4-14.3-0.9-20.3,2.8c-0.9,0.9,0,1.8,0,2.8c8.3,5.5,19.8,0.9,29.5,2.8h71.9
		c5.5,0,10.6-0.5,14.8-2.8c9.2-5.5,14.3-14.8,19.4-24.4c1.8-3.2,3.2-7.4,3.7-11.1c1.8-6.5,7.4-10.6,13.8-11.1
		c0.9,9.7-0.9,19.4-3.2,28.1c-0.9,6-5.1,11.5-2.8,18c0.5,2.8,3.7,2.8,6,3.2c22.1-0.5,44.3-1.4,67.8,0.5c4.2,0.9,7.8,1.8,12.5,1.8
		c0.5-0.5,1.8-0.9,0.9-1.8c-0.5-1.8-1.8-4.6-4.6-5.1c-0.5-0.9-1.8-0.9-2.8-1.4c-11.5-6.5-25.8-3.2-39.7-2.8
		c-6.9,0.9-14.3,1.8-20.3-1.8c-2.8-3.2-0.9-13.8-0.9-13.8c0-4.2,10.1-33.2,11.5-35.5c0.5-2.8,1.4-5.5,0.9-8.3
		c1.4-3.7,0.9-8.3,0.9-12.5c0.9-6,3.7-11.5,5.5-17.1c0.9-2.8,1.8-5.5,3.2-8.3c0.9-3.7,1.4-6.9,3.7-9.7c6,3.7,12,3.7,14.8,10.6
		l2.3,15.2c0,0.9,0.9,2.8,1.8,1.8c4.6-3.2,3.2-10.1,3.2-14.8c0.9-5.5-2.8-8.3-4.6-13.4c0.9-2.3-1.4-6.9-1.4-6.9
		c-0.9-4.2-9.7-6.9-7.4-12c0.9-4.2,2.3-8.3,6-10.6c0.5,0.5,0.9,0.9,0.9,1.4l2.3-1.4v-15.2c6,0,14.8,0.9,20.8,0.9
		c1.8,0.5,2.8,1.8,4.6,1.8l1.4-1.8l14.8-2.8C273.2,181.1,269.5,173.7,263.5,173.7L263.5,173.7z"/>
	<path class="st0" d="M279.7,180.7c0.5,0,0.9,0,1.4-0.5L279.7,180.7L279.7,180.7z"/>
	<path d="M120.6,231.8c0,2.3-0.9,3.7-2.8,4.2c-1.4-0.5-2.8-0.9-3.7-2.3c-0.9-1.8,0.9-3.7,2.8-4.2C118.3,230,120.1,230,120.6,231.8
		L120.6,231.8z"/>
	<path d="M108.6,231.8c0.9,0.9,1.4,2.8,0.9,4.2c-1.4,0.9-3.2,1.8-4.6,0.5c-0.9-0.9-2.3-2.3-1.4-3.7
		C104.9,231.4,107.2,230.5,108.6,231.8L108.6,231.8z"/>
	<path class="st0" d="M363.1,233.7C363.1,233.7,363.1,234.2,363.1,233.7"/>
	<path d="M502.4,236.9c0.9,1.8-0.9,3.7-2.3,4.2c-1.8-0.5-4.2-0.9-4.2-3.2c0-1.4,1.4-2.3,2.8-2.8C500.1,234.6,501.9,236,502.4,236.9
		L502.4,236.9z"/>
	<path d="M512.1,236.5c0.5,0.9,1.8,2.3,0.5,3.2c-0.9,0.5-1.4,0.9-1.8,1.4c-1.8,0.5-3.7-0.5-4.6-2.3c-0.5-1.8,1.4-2.8,2.8-3.7
		C510.2,235.1,511.2,236,512.1,236.5L512.1,236.5z"/>
	<path d="M62.5,238.8c-0.9,2.3-2.8,3.2-5.1,2.3c-0.5-0.5-0.9-1.4-1.4-2.3c0-1.4,0.5-2.8,1.8-3.2C60.2,236,62,236.9,62.5,238.8
		L62.5,238.8z"/>
	<path d="M124.3,242c0,1.4-1.8,2.8-3.2,3.7c-1.8,0-3.2-1.4-4.2-2.8c0-1.4,0.9-3.2,2.3-3.7C121.5,238.3,123.3,239.7,124.3,242
		L124.3,242z"/>
	<path d="M113.7,240.6c0.5,0.5,0.9,1.8,0.5,2.8c-0.9,0.9-2.8,2.8-4.6,1.4c-0.9-0.9-2.3-1.8-1.8-3.7c0.9-0.9,1.8-1.8,2.8-2.3
		C111.8,238.8,112.3,239.7,113.7,240.6L113.7,240.6z"/>
	<path d="M540.2,242.9c0,1.4-1.4,2.8-2.3,3.7c-1.4,0.5-3.2,0-4.2-0.9c-0.9-0.5-0.9-1.8-0.9-2.8c0.9-1.4,2.3-1.8,3.7-2.3
		C538.4,240.6,539.3,241.5,540.2,242.9L540.2,242.9z"/>
	<path d="M551.7,244.3c-0.5,1.8-1.8,3.2-3.7,3.2c-0.9,0-3.2-0.5-2.8-2.3c0-1.4,0.9-2.8,1.8-2.8C549,241.5,551.3,242.5,551.7,244.3
		L551.7,244.3z"/>
	<path d="M83.2,247.1c0.5,2.3-0.5,3.7-2.3,4.6c-1.4,0.9-2.8,0-3.7-0.9c-0.9-0.9-1.8-2.3-0.9-3.7c0.5-1.8,1.8-1.4,3.2-1.8
		C81.4,245.2,82.3,245.7,83.2,247.1L83.2,247.1z"/>
	<path d="M92.4,248.9c0.5,1.4-0.9,1.8-1.4,3.2c-0.9,0.5-2.3,0.9-3.2,0.5c-1.4-0.9-2.8-2.8-1.4-4.6C87.8,245.2,91.5,246.6,92.4,248.9
		L92.4,248.9z"/>
	<path d="M529.1,248c0,1.8-1.4,3.2-2.8,4.2c-1.8,0.5-3.2-0.9-3.7-2.3c0-1.4,0.9-2.8,1.8-3.7C526.8,246.1,528.7,246.1,529.1,248
		L529.1,248z"/>
	<path d="M544.4,250.8c-0.5,1.8,0,3.7-1.8,4.6c-1.4,0.5-3.2,0-4.6-0.9c-0.9-0.9-1.4-2.8-0.9-3.7c0.9-1.4,2.8-2.8,4.6-2.3
		C543,249.4,543.4,250.3,544.4,250.8L544.4,250.8z"/>
	<path d="M76.3,254.4c0.9,1.4-0.9,1.8-1.4,2.8c-1.4,0.9-2.8,0-3.7-0.5c-1.4-0.9-0.9-2.8-0.5-3.7C72.6,250.3,75.8,252.6,76.3,254.4
		L76.3,254.4z"/>
	<path d="M532.8,258.1c0.9,0,0.5,1.4,0,1.8c-4.6,2.3-11.1,2.8-14.8-0.9c-2.3-1.8-5.1-2.8-7.4-4.2c0.9-2.3,4.2-2.3,6.5-2.8
		C522.7,253.1,526.8,258.1,532.8,258.1L532.8,258.1z"/>
	<path d="M85.1,256.3c0.5,1.4-0.9,1.8-0.9,3.2c-0.9,0.9-2.3,0.9-3.2,0.5c-1.8-0.9-2.3-3.2-1.4-4.6C81.8,253.5,84.1,254.4,85.1,256.3
		L85.1,256.3z"/>
	<path d="M101.2,257.7c0.9,1.8-0.5,3.2-1.8,4.2c-1.4,0.9-2.3-0.5-3.7-0.5c-0.9-1.4-2.8-2.8-0.9-4.2
		C96.6,254,100.3,255.4,101.2,257.7L101.2,257.7z"/>
	<path d="M312.9,265.5c-0.5,3.7-6.5-0.5-5.5,4.2c0.9,3.7,1.4,7.8,3.7,10.1c1.8,2.3,0.9,6.5,0.9,9.2c-1.4,2.8-4.2,4.6-6.9,6
		c-5.1-0.5-12.9,2.8-15.2-3.7c-0.9-2.8-2.8-5.5-2.8-8.8c0.5-0.5,1.4-0.5,1.8-0.9c0-1.4-1.4-1.8-1.4-3.2c6-0.9-2.3-6.5,2.8-6.5
		c4.2,4.2,11.1,2.8,14.8,7.8c0.9,0.9,1.4,1.8,2.8,2.3c-0.9-4.2-2.8-8.8-3.7-13.4c-0.5-2.3,0.5-4.6,2.3-6
		C308.7,260,311,263.2,312.9,265.5L312.9,265.5z"/>
	<path d="M117.3,264.1c0.5,1.8-0.9,2.8-1.8,3.7c-1.8,0.9-2.8-0.9-3.2-1.8c-0.5-1.8,0.9-2.8,1.8-3.7
		C115,262.3,116.9,262.7,117.3,264.1L117.3,264.1z"/>
	<path d="M230.3,266c2.3,7.4,1.4,14.8-2.3,20.8c0,1.4,0.5,3.7-1.8,3.7c-5.1-6.9-1.4-16.6,0.9-23.5C227.6,265,229.9,264.1,230.3,266
		L230.3,266z"/>
	<path d="M387.1,269.7c2.8,5.1,2.8,12,0.5,17.1l-1.4,1.4c-1.8-4.2-3.7-8.3-4.2-12.9c0.9-3.2,1.8-6.5,2.3-9.7
		C386.2,264.6,386.2,267.8,387.1,269.7L387.1,269.7z"/>
	<path d="M131.6,271.5c-0.9,2.3-4.2,2.8-6,4.2c-4.6,3.2-10.6,4.2-16.1,3.2c4.6-6.5,12-10.6,20.8-8.8
		C130.3,271,131.2,270.6,131.6,271.5L131.6,271.5z"/>
	<path d="M56.5,278c6.9,4.6,8.8,11.5,12.5,18c0.5,0.9,2.3,0.9,1.8,2.3c-1.4,0.9-2.8-0.9-5.1-0.9c-6.9-3.2-11.5-11.1-11.1-18.9
		C54.6,278,56,278,56.5,278L56.5,278z"/>
	<path d="M379.7,284c0,1.8,0,3.7-1.8,4.2c-1.8,0.5-3.7-0.5-4.2-2.3c-0.5-1.4,0.5-1.8,0.9-2.8C376.5,281.6,378.8,282.1,379.7,284
		L379.7,284z"/>
	<path d="M456.7,293.6c0-3.7,0.9-6.9,1.4-10.1c0.5-0.9,0.9-2.3,0.9-3.7c4.6-6,13.4-4.2,20.3-3.7c2.8,1.4,6,1.4,9.2,1.8
		c1.4-0.9,3.2-0.9,4.6-0.9c6-3.2,1.8-10.1,2.3-15.2l-2.3-5.5c-0.5-0.9-0.9-2.3-1.4-3.7c-0.9-1.4-1.8-3.7-2.8-5.1
		c-3.2-8.3-9.2-12.9-14.3-19.4c-9.2-12-24-18.9-38.7-24c-14.3-5.1-29.1,1.4-42,6c-4.2-0.9-6-4.2-6.9-7.8c-0.9-6.9,0.9-13.8,3.7-19.4
		c0.5-4.6,3.7-8.3,5.1-12.5c3.2-10.1,6.9-20.3,7.4-31.8c0.5-6.9-4.6-11.5-9.7-14.8c-3.7-0.9-7.4-0.9-10.1,1.8
		c-2.3,5.1-7.4,8.3-12,10.6c-0.5,3.2,3.7,0.9,4.6,2.3c4.2,0.9,8.8-0.5,12,1.8c0.5,7.4-3.7,13.4-7.8,18.9c-6,9.2-12.9,18.4-16.6,28.6
		l-1.4,0.9l0.9,45.2c6,9.7,12.9,20.8,24,24.4c6,4.6,13.4,10.6,21.2,6.5c4.2-1.4,4.6,4.6,6.5,6.9c2.3,6.9-2.8,11.5-3.2,18l-4.6,10.1
		c-5.5,10.6-10.6,22.1-18.9,31.4c-2.8,0-4.6,2.8-6.9,3.2c-1.4,1.8-4.6,0.5-6,1.4c-5.5,2.3-13.8,0.9-17.5,6.5
		c0.5,0.5,0.9,0.9,1.4,0.9c11.1,0,23.5,0.9,35.5,0.5c1.4-0.5,2.8-1.8,2.8-3.7c-1.8-3.2,0.5-6,1.8-8.3c0.9-4.6,3.7-7.4,5.1-11.5
		c3.7-7.4,8.3-14.8,12.5-22.6l5.5-9.2c1.4-3.2,3.7-6.9,5.5-10.1c1.4-1.4,2.3-3.2,3.2-5.1c0-1.8-0.9-2.8-1.8-3.7
		c1.4-1.4,3.2-0.9,5.1-1.4c4.6,2.8,9.2,7.4,10.1,12l1.8,4.6l0.9,2.3l-0.5,6l0.9,5.5c0.9,8.8-0.9,18-1.8,26.7
		c-3.2,10.6-15.2,9.7-24,12c-2.3,1.4-6.5,0.9-6.5,4.6c10.6,2.3,23.1,0.9,34.6,0.9c1.8-0.9,2.3-2.3,3.2-4.2c0.5-2.3,2.8-4.6,1.8-6.9
		c-1.8-2.8,0-6.5-0.9-10.1c0.5-0.9,0.5-2.3,0-3.7c1.4-5.5,0.9-12,2.3-17.1L456.7,293.6L456.7,293.6z"/>
	<path d="M547.1,286.3c-6,8.3-12,17.5-22.1,20.8c-0.9,0-1.4,0.5-1.8-0.5c6-6.5,9.7-17.1,19.4-19.4
		C543.4,286.3,545.3,285.8,547.1,286.3L547.1,286.3z"/>
	<path d="M47.7,295.5c-0.9,0.9,0,2.3-1.8,2.8c-1.4,0.9-3.2,0-3.7-1.8c-0.9-1.8,0.9-3.7,2.3-4.2C45.9,293.2,47.3,293.6,47.7,295.5
		L47.7,295.5z"/>
	<path d="M100.3,298.3c0.5,1.8-1.4,1.8-2.3,1.8c-7.8,2.8-15.7,0-21.2-5.5c0-0.9,0-1.4,0.9-1.8C85.1,295,93.8,293.6,100.3,298.3
		L100.3,298.3z"/>
	<path d="M57.9,295.5c0.5,0.9,0.5,1.8,0.5,2.8c-0.9,1.8-2.8,1.8-4.6,1.8c-0.9-0.5-1.8-1.4-2.3-2.3c0-1.8,1.8-2.8,3.2-3.7
		C55.6,294.6,56.9,294.6,57.9,295.5L57.9,295.5z"/>
	<path d="M228.9,296.4c0.5,1.8-0.9,2.8-2.3,3.7c-1.8,0.5-3.2-0.5-3.7-1.4c-0.5-1.4,0-3.2,1.4-3.7C225.7,294.6,228.5,295,228.9,296.4
		L228.9,296.4z"/>
	<path d="M554.1,297.3c0.5,1.8-0.9,2.8-2.3,3.7c-0.9,0.5-2.3,0-3.7-0.5c0-0.9-1.4-1.8-0.9-2.8c0.9-1.8,2.3-2.3,4.2-2.3
		C552.2,296.4,553.1,296.4,554.1,297.3L554.1,297.3z"/>
	<path d="M566,296.4c0.9,1.8,0,2.8-0.9,4.2c-0.9,1.4-2.3,1.8-3.2,0.9c-0.9-0.9-2.8-1.8-2.8-3.2c0-1.4,1.8-2.8,2.8-3.2
		C563.7,294.6,564.7,296.4,566,296.4L566,296.4z"/>
	<path d="M39.9,301.9c0,1.4-0.9,1.8-1.4,3.2c-0.9,0.5-1.8,0.9-2.8,0.9c-1.4-0.5-2.3-1.8-2.8-2.8c0.5-1.8,1.4-3.2,3.2-3.7
		C37.6,299.6,39.4,300.1,39.9,301.9L39.9,301.9z"/>
	<path d="M424.9,301.9c0.5,0.9,0,1.8,0,2.3c-0.9,1.4-2.8,2.8-4.6,1.8c-0.9-0.9-2.3-2.3-1.8-3.7C420.8,300.1,423.5,299.6,424.9,301.9
		L424.9,301.9z"/>
	<path d="M69.4,304.7c-0.5,1.4-0.9,2.8-2.8,2.8c-1.8,0-2.3-1.4-3.2-1.8c0-1.8,0-3.2,1.4-4.2C67.5,300.6,69.4,302.4,69.4,304.7
		L69.4,304.7z"/>
	<path d="M51.9,305.2c0.5,1.8-0.9,3.2-1.8,4.2c-2.3,0.9-4.2-0.9-5.1-2.8c0-1.8,1.4-3.7,3.2-4.2C50,302.4,50.9,304.2,51.9,305.2
		L51.9,305.2z"/>
	<path d="M437.4,304.7c0.5,1.8,0,3.7-1.8,4.6c-2.3,0.9-4.2-0.9-5.1-2.8c0.9-1.4,0.9-3.7,3.2-3.7
		C435.1,302.9,436.5,303.3,437.4,304.7L437.4,304.7z"/>
	<path d="M60.2,305.6c0.5,1.4-0.5,1.8-0.9,2.8c-0.9,0-1.4,0.9-2.8,0.9c-0.9-0.9-2.3-1.4-2.3-2.8c0-1.8,0.9-2.8,2.3-3.7
		C58.8,302.9,59.7,303.8,60.2,305.6L60.2,305.6z"/>
	<path d="M543.9,307c-0.5,1.4-1.8,2.3-3.2,2.8s-2.3-0.9-3.7-1.4c-0.9-0.9-0.5-2.3,0-3.2C538.8,301.9,543.9,303.3,543.9,307
		L543.9,307z"/>
	<path d="M557.7,307.5c-0.5,1.8-2.8,2.8-4.6,3.2c-1.8-0.9-3.7-1.8-2.3-4.2c0.9-0.9,0.9-1.4,2.3-1.8
		C555.4,304.2,557.3,305.6,557.7,307.5L557.7,307.5z"/>
	<path d="M471,308.9c0.9,2.3-1.4,3.2-2.8,4.2c-1.4,0-2.3-0.9-3.7-1.4c-0.5-1.8,0.5-3.7,2.8-4.6C468.7,307,469.7,307.5,471,308.9
		L471,308.9z"/>
	<path d="M420.8,311.2c0.9,0.5,0.5,1.8,0.5,2.3c-0.9,0.9-2.8,2.8-4.2,1.4c-1.4-0.9-2.3-1.8-1.8-3.7
		C415.7,309.3,419.9,309.3,420.8,311.2L420.8,311.2z"/>
	<path d="M430.9,312.5c0,1.4,0,2.3-1.4,2.8c-1.4,1.4-2.8,0-4.2-0.5c-0.5-0.9-0.9-1.8,0-2.8c0.5-0.9,1.4-1.4,2.3-1.4
		C428.6,311.2,430.5,311.2,430.9,312.5L430.9,312.5z"/>
	<path d="M120.6,312.5c0.9,0.9,0,2.3-0.5,3.7c-0.9,0.9-2.8,1.8-4.6,0.9c-1.8-0.9-1.8-3.2-1.4-4.6c0.9-0.5,0.9-1.8,2.8-1.8
		C118.3,311.2,119.2,311.6,120.6,312.5L120.6,312.5z"/>
	<path d="M490.4,313.5c0.5,1.8-1.4,2.8-2.8,2.8c-2.3,0.9-3.2-0.9-4.2-2.3c0-0.9,0.9-1.8,1.4-2.8C487.6,310.2,489,312.1,490.4,313.5
		L490.4,313.5z"/>
	<path d="M480.7,313.5c0.9,1.8-1.4,2.8-1.8,3.7c-1.4,0.5-2.8,0.5-4.2-0.9c-0.9-0.5-0.9-1.8-0.9-2.8c0.9-0.9,1.8-1.8,2.8-2.3
		C478,311.2,479.8,312.1,480.7,313.5L480.7,313.5z"/>
	<path d="M562.8,315.8c0.5,2.8-2.8,1.4-4.2,1.8c-7.8,4.6-17.5,0.9-24.9-1.8c0.5-2.3,3.2-1.4,4.6-2.3c7.8-5.1,16.1,0.9,24,1.4
		L562.8,315.8L562.8,315.8z"/>
	<path d="M62.5,313.5l-0.9,1.4c-6.9,4.2-15.7,6.9-23.5,4.2l-0.9-0.9c6.9-5.1,15.7-6.5,24.4-5.1L62.5,313.5L62.5,313.5z"/>
	<path d="M508.9,314.9c0,1.4-0.9,2.8-1.8,3.7c-1.8,0.5-4.2,0-4.6-1.8c-0.5-1.4,0.9-2.8,2.3-3.7C506.1,312.5,508.4,313,508.9,314.9
		L508.9,314.9z"/>
	<path d="M95.2,315.3c-0.9,1.4-0.5,2.8-2.3,3.7c-1.8,0.9-4.2-0.9-4.6-2.3c-0.5-1.8,0.9-2.8,1.8-3.7
		C92.4,312.1,93.8,313.9,95.2,315.3L95.2,315.3z"/>
	<path d="M82.3,316.2c0.5,1.4-0.5,1.8-0.9,2.8c-0.9,0.9-2.8,0.9-3.7,0.5c-1.4-0.9-2.8-2.3-1.8-4.6c0.9-0.9,1.8-1.4,2.8-1.8
		C80,313.9,81.8,314.4,82.3,316.2L82.3,316.2z"/>
	<path d="M521.8,320.4c0,1.8-1.4,2.8-2.8,3.2c-1.4,0-2.8-0.9-3.7-1.8c-0.5-0.9-0.5-2.8,0.9-3.7c0.5-0.5,1.8-0.5,2.3-0.9
		C520.4,317.6,521.3,319,521.8,320.4L521.8,320.4z"/>
	<path d="M68.5,318.5c0.5,1.4-0.9,1.8-0.9,3.2c-0.5,3.2-2.8,5.1-4.2,7.8c-3.7,4.2-8.3,4.2-13.4,5.5l-0.9-1.4
		c5.5-6.9,11.1-12,18.4-15.7L68.5,318.5L68.5,318.5z"/>
	<path d="M512.5,322.7c0.5,2.3-1.4,2.8-2.8,3.7c-1.8,0-2.8-0.9-3.7-2.3c-0.5-1.8,1.4-2.8,2.3-3.7
		C510.7,319.9,512.1,321.3,512.5,322.7L512.5,322.7z"/>
	<path d="M89.7,322.7c0,0.5,0,0.9,0.5,0.9c0,1.8-1.8,2.8-2.8,3.7c-1.8,0-2.8-0.5-4.2-1.8c-0.9-1.8,0-3.7,1.8-4.2
		S89.2,320.8,89.7,322.7L89.7,322.7z"/>
	<path d="M546.2,328.2c1.8,0,2.3-2.3,4.2-2.8s3.7,0.9,4.6,1.8c0.9,2.3-0.9,3.2-2.3,4.2c-1.4,0.9-4.2-0.9-3.7,1.4
		c1.4,0.9,2.3,2.3,2.8,3.7c-0.5,0.9-1.8,0.5-2.3,0c-5.5-2.3-11.1-6-13.4-11.5c-0.9-1.8-4.2-2.8-2.3-4.6
		C539.3,320.4,543.4,325,546.2,328.2L546.2,328.2z"/>
	<path d="M563.7,322.2c0.9,0.9,0.5,2.8,0,3.7c-0.9,1.8-3.7,0.9-5.5,0.9c-0.9-0.9-1.8-1.8-1.4-3.2c0.9-0.9,1.4-1.8,2.8-2.3
		C561.4,320.8,562.8,321.3,563.7,322.2L563.7,322.2z"/>
	<path d="M497.3,332.4c1.8,1.8,3.2,5.1,4.2,7.4c-0.5,0.5-1.4,0.5-1.8,0.5c-6-3.7-14.3-7.4-16.6-14.8c-0.5-0.9-1.8-1.8-1.8-2.8
		c4.6-0.9,9.2,2.8,12.5,5.1C495.5,329.6,496.9,330.5,497.3,332.4L497.3,332.4z"/>
	<path d="M79.5,325.5c0.9,1.8-0.9,2.8-1.8,3.7c-1.8,0.5-3.2-0.5-4.2-1.4c-1.4-1.8,0.9-3.7,2.8-4.6C77.7,323.2,78.6,324.5,79.5,325.5
		L79.5,325.5z"/>
	<path d="M520.4,329.6c0,0.9-1.4,1.8-1.8,2.8c-1.4,0-2.8,0.9-4.2-0.5c-0.5-0.9-1.4-2.3,0-3.2C516.2,325.9,519,327.8,520.4,329.6
		L520.4,329.6z"/>
	<path d="M566,332.4c0.5,2.3-0.9,3.7-2.8,4.6c-1.8,0.5-3.2-0.9-4.6-1.8c-0.9-0.9,0-2.3,0-3.7c1.4-0.9,2.8-1.8,4.6-1.4
		C564.7,331,565.1,331.5,566,332.4L566,332.4z"/>
	<path d="M439.2,357.7c0,2.3-4.2,1.8-5.5,3.2c-5.5,2.8-12.5,2.8-19.4,2.8v-0.9C421.2,356.8,430.5,355,439.2,357.7L439.2,357.7z"/>
	<path d="M172.7,365.6c0,1.8-0.9,2.8-2.8,3.2c-1.4,0-2.8-0.9-3.2-1.8c-0.9-2.3,0.9-3.2,2.3-4.2C170.8,362.8,172.2,364.2,172.7,365.6
		L172.7,365.6z"/>
	<path d="M436.5,367.4c-0.5,1.8-0.9,3.7-2.8,4.2c-1.8,0.5-2.8-0.5-4.2-1.4c-0.9-0.9-0.5-1.8-0.5-2.8
		C430.5,364.2,435.1,364.2,436.5,367.4L436.5,367.4z"/>
	<path d="M472.9,368.3c-4.6,2.8-9.7,6.5-15.7,6.5h-9.7l-0.9-0.9c6-7.4,17.1-7.4,26.7-6.5v0.9H472.9z"/>
	<path d="M122.4,372.5c0,1.8-0.9,2.8-2.3,3.7c-1.8,0.5-3.2-0.5-3.7-1.8c-0.9-1.8,0-3.2,1.4-4.2C119.7,368.8,121.5,371.1,122.4,372.5
		L122.4,372.5z"/>
	<path d="M131.6,374.3c0.5,0.9-0.5,1.4-0.9,2.3c-0.9,0.5-2.8,0.9-3.7,0c-1.4-0.9-1.8-1.8-0.9-3.2c0.5-0.9,1.8-0.9,2.3-1.8
		C129.8,372.5,131.2,373.4,131.6,374.3L131.6,374.3z"/>
	<path d="M61.5,393.2c-1.8,2.3-4.6-0.5-6.9-1.8c-6.5-3.7-6-11.1-12.5-15.2c0.9-2.3,2.3,0,3.7,0c0.9,0.9,2.8,1.4,3.7,1.8
		C56,381.7,57.4,387.7,61.5,393.2L61.5,393.2z"/>
	<path d="M594.6,321.8c-2.8-5.5-7.8-7.4-13.8-7.4c-4.6,0.5-8.3,3.7-10.1,7.4c-0.9,4.2,0.5,7.8,3.7,10.1c1.4,0.5,2.8,0.5,3.7-0.9
		c0.9-2.3-1.8-2.3-1.8-4.2c-0.9-2.8,0-4.6,1.8-6.5c1.8-1.8,5.1-0.9,6.9-0.9c2.3,1.4,4.6,2.8,5.5,5.5c0.9,3.2,0.9,6.5,0,9.7
		c-1.8,4.6-6.5,8.3-11.5,9.2c-15.2,2.3-181.7,1.4-181.7,1.4c-19.4,1.8-42-3.7-58.6,6.5c-7.8,3.7-11.5,12-13.4,19.8
		c-5.1,4.6-10.1,9.7-14.3,14.8l-0.5-0.5c0.9-4.6,2.8-8.3,3.7-12.9c2.8-3.7,2.8-8.8,4.6-12.9c6.9-11.1,13.4-22.6,24.4-30.4
		c4.6-6,12.5-5.1,19.4-5.1c7.4,3.7,16.1,4.6,25.4,3.7c0.5-0.5,0.5-0.9,0.5-1.4c-2.8-2.3-6.9-3.2-9.7-5.5c-7.4-3.7-14.3,0.9-22.1,0.5
		c-0.5-0.5-0.9-0.5-0.5-0.9c6.9-5.1,14.8-8.8,22.6-12c6.5-3.7,13.4-5.5,19.8-7.8c2.8,0,5.5-2.3,7.8-0.9l9.7-2.8
		c0.5,0,0.9,0.9,1.4,0.5c8.3-2.8,18.4,0,28.1-0.5l1.4,0.9l8.8,2.3c3.2,0.5,4.6,4.2,8.3,4.6c1.8-2.8-1.8-3.7-2.8-5.5
		c4.2-0.9,8.8,0,12.5,1.8l-1.8,1.8c-0.9,1.8,0.5,3.7,2.3,4.2c1.4,0.5,2.3-0.5,3.2-0.9c2.3-1.8,0-3.2,0.5-4.6
		c13.4,2.3,26.7,5.5,38.7,11.1c3.7,0.9,6.9,3.7,10.6,3.7c-3.7-3.7-9.2-5.5-13.8-7.4c-3.2-1.8-7.4-1.8-9.7-4.6
		c0.5-0.9,1.8-0.5,2.3-1.4c6.5-0.9,11.5-5.5,16.1-10.1c0.5-0.9,2.3-0.9,2.3-2.3c-1.8-1.8-4.6,0.5-6.5,0.5
		c-7.8,1.4-11.1,10.6-18.4,12c-9.2-2.3-18.9-4.6-28.1-6.9c-4.6-0.9-9.7-0.9-13.8-2.8l-10.1-0.9h-18.4c0-0.5-0.9-0.5-0.5-0.9
		c6.5-1.8,12.5-5.5,18.9-7.4l48.9-22.6c5.1-4.6,9.7-9.7,13.8-15.2c0-1.4-0.9-2.8-1.8-3.7c-1.4-0.5-2.8-0.5-3.7,0.9
		c-2.3,1.8,0,3.7,0,5.5c-2.3,2.8-5.5,5.5-8.3,7.4c-0.9,0-50.3,22.6-50.3,22.6c-7.4,3.2-14.8,6.5-22.1,8.3l-12.5,1.8
		c-0.9,2.3-2.8,3.7-4.6,4.2c-2.8,0.5-5.1,2.3-8.3,2.3c-24,9.2-48.4,18.9-67.3,37.8c0.9-2.3,1.8-5.1,1.8-7.8c-0.5-2.8,0-6-1.8-8.3
		c-0.5-0.9-1.8-4.2-1.4-5.1l-2.8,1.8c-1.8,4.2-3.2,11.5-1.4,15.7c0.5,3.2,3.2,7.4,0.9,10.1c-8.8,10.6-13.8,23.5-19.4,36
		c-2.3-0.5-3.2-2.3-4.2-4.6c6-7.8,11.1-16.6,12.9-26.7c1.4-0.9,0.5-3.2,1.8-4.6c-0.5-2.8,1.8-6,0-8.3c1.4-4.2-5.5-7.8-1.4-10.1
		l-3.2,1.8c-7.8,10.1,4.2,25.8-5.1,36v0.9c-2.8,3.2-3.7,6.5-7.4,8.8c-4.6-1.8-6-6.9-8.8-10.6c-4.2-3.7-4.2-12-1.8-17.1
		c1.8-5.5-0.9-10.1-1.8-14.8l-1.8-0.9c-4.6,5.5-6,14.8-2.8,21.7c1.8,3.2,1.8,7.8,4.6,10.6c1.8,5.5,5.1,8.8,7.8,13.8
		c0.9,1.8-0.9,2.3-1.8,3.2c-1.8-1.4-1.8-4.2-3.7-5.5c-6-12.9-13.8-23.1-23.5-33.7c-0.5-1.8-1.8-3.2-0.9-5.1
		c3.7-3.2,4.2-9.7,2.3-13.8c-0.5-0.9-1.4-1.8-1.4-2.8l-1.8-3.2c0.5,6.5-3.7,12-1.8,18.9v0.5c-18.9-14.3-39.7-26.7-60.9-36.9
		l-1.8,4.6c5.5,1.4,19.4,10.1,19.4,10.1c6.5,2.3,12.5,6.5,18.4,9.7c24.9,13.8,41.5,36.9,52.6,62.3c0,1.8,1.8,4.2,0.9,6.5
		c-3.7-6-9.2-9.2-13.8-13.8c-1.4-8.8-6.5-17.1-13.8-20.3c-2.8-4.2-8.8-4.6-13.4-5.5l-66.4-0.5c-54.4-1.4-103.8,0.9-157.7,0
		c-7.4-0.9-16.6-3.2-18.9-11.1c-1.4-2.8-1.4-7.4,0-10.1c1.8-3.7,5.5-4.6,9.2-5.1c2.8,0.5,5.1,3.2,6.5,5.1c0,2.3-1.8,4.6-2.8,6.5
		c0,0.9,0.9,2.3,2.3,1.8c2.3-0.9,4.2-3.7,4.6-6c0-1.4,0.9-3.2-0.5-4.2c-0.9-3.7-5.1-6.5-8.8-7.4c-4.6-0.5-9.2,0.9-12.5,4.2
		c-4.6,3.7-4.2,10.1-2.8,15.7c2.8,8.3,11.5,13.8,19.8,14.8l178,0.9c17.5,0.9,36.9-1.8,54.4,1.4c6.5,1.8,13.4,6.9,14.8,13.8
		c0,0.5-0.9,0-1.4,0c-14.3-9.2-33.7-12.9-52.1-10.6c-7.4-0.5-13.8,2.3-20.3,4.2c-3.7,0.9-6.9-0.9-8.8-2.8c-6.5-6-18-5.5-26.7-3.2
		c0,0.5,0,0.9,0,1.4c8.8-0.9,14.3,6.9,22.1,7.8c1.8,0.5,3.2-1.8,5.1,0c-8.3,4.2-16.6,8.8-25.4,11.5c-2.8-0.5-4.2-3.2-6.5-4.6
		c-3.7-3.7-9.7-2.3-14.8-2.8c-1.8,0.5-3.2-0.9-4.2,0c1.4,2.8,4.6,4.6,7.8,6c4.6,1.8,9.7,0,14.3,2.8c-0.9,1.4-2.8,1.8-3.7,2.8
		c-8.8,3.2-15.7,11.1-25.4,10.6c-10.1,0.9-20.3-1.8-27.2-8.8c-2.8-7.4-10.6-11.1-18.4-10.6c-0.5,0.5-1.4,0.5-0.9,1.4
		c4.2,2.3,6.9,7.4,11.1,10.1c2.8,3.2,7.4,0,9.7,3.7c3.7,2.3,7.8,4.6,12,5.1c2.8,1.4,6,1.8,9.7,2.8l-1.4,0.9c-16.6,5.5-36,6-54.4,5.5
		c-5.5,0-10.6-1.8-16.1-1.8c0.9,0.9,2.8,1.8,4.6,2.8c-1.4,0.9-3.2,1.4-5.1,1.4c-2.3,0.5-4.6,0.9-6.9,1.8c-2.8,0-5.5,0.9-7.8,1.8
		c-3.2,3.2-6.9,6.9-10.6,8.3c0,0.9,0,1.8,0.9,1.8c3.7-1.4,7.8-0.5,11.5-1.8c6-0.5,9.7-7.4,14.3-10.1c5.1-4.2,12.5-3.2,18.4-2.3
		c3.7,0.9-0.5,2.3,0.9,4.6c1.4,1.4,2.8,2.8,4.6,2.3c0.5-0.5,0.9-0.9,1.4-0.9c0.9-1.4,0.9-3.2,0-4.6c2.8-1.8,6,0,8.8-0.9
		c6.9,0,13.8-1.8,20.8-1.8c0.9,0,2.3-1.4,3.7,0c-0.5,1.4-2.3,1.8-1.8,3.7c0.5,1.8,2.3,2.3,3.7,2.8c1.8-0.9,3.7-1.8,2.8-4.6
		c-0.9-2.3-2.3-2.3-3.2-3.2c3.7-1.8,8.3-2.3,12-4.2c2.8-0.5,5.5-1.4,7.8-2.8c2.3,0,4.6-2.3,6.5-1.4c-0.9,3.2-2.3,6-3.7,8.8
		c-2.8,9.7-5.1,22.6,0,32.3c0.5,0,0.9,0,0.9-0.5c-3.7-9.7-1.8-21.2,1.8-30.4c2.8-15.7,18.4-20.3,30-26.3l0.5,0.9
		c-3.2,8.3-7.8,15.7-6.9,25.8c0.5,1.8-0.9,3.2,0,4.6c3.2-1.8,5.1-5.5,6.9-8.3c1.4-8.3-3.7-18.4,5.1-24.9c15.2-6,29.1-13.8,46.6-13.8
		c0.5,0.5,1.8-0.5,1.8,0.9c-3.7,4.2-8.8,7.8-10.6,12.9c-6,8.3-5.5,22.1-3.2,31.8c1.8,5.5-3.2,8.8-5.5,13.4c-0.9,1.4-1.4,4.2-2.3,6
		l3.7,0.5c3.2-3.2,6-7.4,6-12c0.5,1.8,1.8,3.2,3.7,3.7c1.4-1.8-0.9-3.7-1.4-5.5c2.8-1.8,4.2,1.8,6.5,2.8c3.7,0.9,6.9,2.8,11.1,2.8
		l1.4-1.4c-4.2-6.5-12-7.4-18.9-7.8c-3.7-6-3.7-13.8-3.2-21.2c0.9-3.7,1.4-7.8,3.7-11.5c0.9-2.8,3.7-5.1,5.1-6.9
		c3.2-3.2,7.4-5.5,11.5-6.5h0.5c0,0.5,0,0.5,0,0.5c-5.1,3.7-5.5,9.2-8.3,13.8c-3.2,4.6-4.6,11.1-1.8,16.1c0.9,2.3,0.5,6,3.2,7.8
		c2.3-3.2,2.8-7.4,3.7-11.1c-0.5-6-4.2-12-0.9-17.5c1.8-4.6,5.5-6.5,9.7-8.3c10.1-0.9,18.9,4.2,27.7,8.3c1.8,1.4,5.1,2.3,5.5,5.1
		c0,5.1-2.8,10.1-6.9,12.5c-5.1,2.8-12,3.2-16.6,0c-2.8-2.8-3.7-7.4-2.8-11.1c1.8-2.3,4.6-4.2,7.8-2.8c1.8,0.9,3.7,2.8,6,1.8
		c0.9-0.5,1.4-1.8,0.9-2.8c-1.8-0.9-2.8-3.7-5.5-4.2c-3.7-0.5-7.8-0.5-10.1,1.8c-3.7,3.2-5.5,8.3-4.2,12.9c1.4,6,5.5,10.1,11.5,12
		c8.3,1.8,17.1-0.5,22.6-7.8c2.3-2.3,2.8-5.1,4.2-7.8c8.8,5.5,15.2,14.8,18.9,24.4c0,3.2,0.9,6.5,0,9.2l6.5,0.5
		c-0.5-1.4,0-3.2,0.5-4.6c2.3-12,9.7-22.1,18.9-30.4c3.2-1.8,2.3,2.3,3.2,3.7c2.8,6.9,9.2,12,16.1,13.8c7.8,1.4,15.2-0.5,19.8-6.5
		c2.3-4.6,5.5-11.1,1.4-15.7c-2.8-3.2-6-4.6-10.1-4.6c-4.6,0-7.8,3.2-10.1,6.9c0,1.4,0,3.2,0.9,3.7c0.9,0,2.3,0,2.8-0.9
		c0.5-2.8,2.8-4.2,5.1-5.5c1.8-0.9,4.2,0,6,0.9c1.8,1.8,2.3,4.6,2.8,7.4c-0.5,3.7-2.8,7.4-6,8.8c-5.5,2.8-12.9,1.4-17.5-1.8
		c-2.3-2.3-3.7-5.1-5.1-8.3c-0.5-2.8-1.4-5.5,0-8.3c7.8-4.6,16.6-8.3,26.3-9.2c3.7,0.9,6.9,3.2,9.7,6c8.3,8.8-1.8,21.2,4.2,30.4
		c2.3-0.5,2.3-3.2,3.2-5.1c2.8-6.5-0.9-13.8-2.3-20.3c-2.3-4.2-3.7-7.4-6.9-11.1c0.9-0.5,1.4-0.5,2.3-0.5c3.7,2.8,7.8,5.5,11.1,9.7
		c5.5,8.8,7.8,18.9,6.9,30.4c-1.4,5.5-7.4,8.3-12,10.1c-1.8,1.4-4.2,3.7-5.1,6c2.3,1.4,5.5,0,7.4-0.9c3.7-1.4,5.5-5.5,7.8-7.8
		c0.5,0,0,0.9,0.5,0.9c0,1.8-0.9,4.6,0.9,5.5c0.9-2.8,0.9-6.5,1.8-9.2c2.3,2.8,2.8,6,3.7,9.2c1.8,3.2,4.6,7.8,8.8,8.3
		c0.9-1.8,0-3.2-0.5-4.6c-0.5-4.6-4.6-6.9-6.9-10.1c-6.5-8.8-3.7-22.6-8.3-32.7c-1.8-5.5-5.5-9.2-9.7-13.8l0.9-0.9
		c8.8,0,16.6,2.8,24.9,4.6c10.1,5.1,24.9,3.7,29.5,17.1c1.8,7.4,5.5,14.3,10.6,19.8l0.5-0.5c0.9-1.8,0.9-5.1,0-6.9
		c-0.9-9.2-9.2-11.5-13.4-19.4l0.5-0.9c4.6,1.4,8.8,2.3,13.4,4.2c14.8,4.2,24.9,18.4,26.7,33.2c0,12-2.3,21.7-6.9,31.4
		c-0.5,1.4-3.2,3.2-1.4,4.6c1.8-1.4,2.3-3.7,3.7-5.5c6-10.1,9.2-24,6-36.9c0-2.3-2.8-4.2-1.8-6.5c0.9,0.9,1.8,1.4,3.2,1.8
		c0.9-0.9,2.8-0.9,3.7-1.8c0-0.9,0.9-2.3,0-3.2c-0.9-1.8-3.7-1.8-5.5-1.4c-0.9,0.9-1.8,2.8-2.3,4.2c-1.8-3.2-3.7-7.4-6.5-9.7
		l0.5-0.5c8.3,2.8,15.7,6.9,24,9.2c1.8,0.9,3.7,1.8,6.5,1.8c6.9,2.8,15.2,3.7,22.6,5.5c5.5-0.5,10.1,1.8,15.7,0.9V408l0,0
		c-1.8-2.8-6.5,0-8.8-1.8c-12.5-1.4-24.9-4.6-36-9.2c0-0.5,0.9-0.5,1.4-0.5c1.8-0.9,3.2-2.8,2.8-4.6c-0.9-1.4-2.3-1.8-4.2-1.8
		c-0.9,0.5-2.8,1.8-2.8,3.2c0,1.4,1.4,3.2,2.8,3.7c-0.5,0.5-0.9,0-1.8,0c-5.5-2.8-11.1-5.1-16.6-7.4c-1.8-0.5-3.7-1.8-5.5-2.3
		c-4.2-1.8-8.3-4.2-12.5-5.5c-11.5-6-24.9-9.2-37.4-13.8c-2.8-0.9-5.5-1.4-7.8-2.3c-4.6-1.4-9.2-2.3-13.8-3.7
		c-15.7-3.7-36.4-4.2-49.8,4.2c-2.3-0.9-3.7,2.8-4.6,0.5c3.7-10.1,15.2-13.4,24.9-13.8c73.3-0.9,142-1.4,214.4-2.3
		c8.3,0,16.6-2.8,21.2-10.6C596.5,334.2,596.9,326.8,594.6,321.8L594.6,321.8z M303.6,389.6c-0.9,2.3-2.3,4.2-1.8,6.5l-0.9,0.5
		c0.5-2.8-2.3-4.6-1.4-7.4c-1.4-2.3-1.4-5.1-2.8-7.4c-1.8-2.8,1.4-4.2,2.8-6.5c2.8,0.9,3.7,3.7,5.5,5.5
		C306,384.5,303.6,386.8,303.6,389.6L303.6,389.6z"/>
	<path d="M502.4,378c0,0.5,0.9,0.9,0.9,1.8c-6.5,5.5-15.2,7.4-24.4,7.8c-0.9,0-1.4,0.9-2.3,0.5c-0.5-0.5-0.9-0.9-0.5-1.4
		C482.6,379.4,492.3,375.7,502.4,378L502.4,378z"/>
	<path d="M472.9,380.8c0.9,2.8-0.9,4.2-2.8,5.1c-1.8,0-3.2-1.4-4.2-2.8c-0.5-1.4,0.9-2.3,1.4-3.2C468.7,378.5,472,378.5,472.9,380.8
		L472.9,380.8z"/>
	<path d="M125.2,381.3c0.5,1.4,0,2.8-0.9,3.7c-0.9,1.4-2.3,1.4-3.2,1.4c-1.4,0-1.8-1.8-2.3-2.8c0-1.8,0.9-2.8,2.3-3.7
		C122.4,379.9,124.3,379.9,125.2,381.3L125.2,381.3z"/>
	<path d="M92.4,393.2v1.4c-4.6,0.9-8.8,0-12-2.8c-2.8-3.7-5.5-7.4-9.7-9.2c0-0.5-0.9-1.4,0-1.8C80,380.8,85.5,388.2,92.4,393.2
		L92.4,393.2z"/>
	<path d="M530.1,381.3c-4.2,6.5-7.8,13.8-15.2,16.6c-1.4,0-2.3,1.8-3.7,0.5c2.8-6.9,9.2-14.8,16.1-17.5
		C528.2,380.8,529.1,380.8,530.1,381.3L530.1,381.3z"/>
	<path d="M135.8,383.6c0,1.8-1.4,2.3-2.8,3.7c-1.4,0-2.3-0.9-3.2-1.8c-0.9-1.8,0.9-2.8,1.8-3.7C133.5,380.8,134.9,382.2,135.8,383.6
		L135.8,383.6z"/>
	<path d="M553.1,384.5c-1.8,2.3-0.9,6-2.8,8.3c-3.7,4.2-6.9,9.2-12.5,10.1c-0.9-1.8,1.4-3.7,2.3-5.5c2.8-5.5,6-12,12-14.3
		L553.1,384.5L553.1,384.5z"/>
	<path d="M35.7,386.3c0.5,1.4,0.9,2.8,0,4.2c-0.9,0.5-2.8,0.9-4.2,0.5c-1.8-0.9-2.3-2.8-1.4-4.6C31.1,384.9,34.3,384,35.7,386.3
		L35.7,386.3z"/>
	<path d="M25.1,388.2c0,0.9,0.9,1.8,0.5,2.8s-1.4,1.8-2.8,2.3c-1.8,0.5-3.2-0.9-4.2-2.3c0-1.8,0.5-3.2,1.8-3.7
		C22.4,386.3,24.2,387.3,25.1,388.2L25.1,388.2z"/>
	<path d="M46.8,389.6c0.5,1.4,0.9,4.2-1.4,4.6c-2.8,0.9-4.2-0.9-5.5-2.3c0-1.8,0.9-2.8,2.3-3.7C44,387.7,45.4,388.2,46.8,389.6
		L46.8,389.6z"/>
	<path d="M76.8,391.9c0,1.4,0,3.2-1.4,3.7c-0.9,0.9-2.8,0.5-3.7,0.5c-0.5-0.9-2.3-1.8-1.4-3.2c0.9-0.9,1.4-1.4,2.8-1.8
		C74.5,390.9,76.3,390.5,76.8,391.9L76.8,391.9z"/>
	<path d="M570.7,393.2c-0.5,1.4-1.4,2.8-2.8,2.8c-1.8,0-3.2-0.5-4.2-1.8c-0.9-1.8,0.9-3.2,2.3-3.7
		C567.9,390.5,570.2,390.9,570.7,393.2L570.7,393.2z"/>
	<path d="M537.5,394.2c0,1.4-1.4,2.8-2.3,3.2c-2.8,0.9-4.6-0.9-5.5-2.8c0.5-1.8,1.8-2.8,3.2-3.2
		C534.7,390.9,536.1,392.3,537.5,394.2L537.5,394.2z"/>
	<path d="M560,393.7c0,1.4-0.9,2.8-1.8,3.2c-1.4,0.5-3.2,0.5-4.6-0.9c-1.8-1.4-0.5-2.8,0.9-3.7C556.4,391.4,559.6,391.4,560,393.7
		L560,393.7z"/>
	<path d="M31.1,396.9c0.5,1.8-0.5,3.7-2.3,4.6c-1.8,0-3.7-0.9-4.2-2.8c0-1.8,0.5-3.2,1.8-3.7C28.3,394.6,29.7,395.6,31.1,396.9
		L31.1,396.9z"/>
	<path d="M528.2,398.8c0.5,1.8-0.5,3.7-2.8,4.6c-1.4,0.5-2.3-0.5-3.7-1.4c-0.9-0.9-1.8-2.8,0-3.7
		C523.2,395.6,526.8,396.9,528.2,398.8L528.2,398.8z"/>
	<path d="M129.3,401.1c0.9,1.8-1.4,2.3-1.8,3.7c-0.9,0.5-2.3,0.5-2.8,0c-0.9-0.9-1.8-2.3-1.4-3.7c0.9-0.9,1.4-1.4,2.3-1.8
		C127.5,397.9,128.4,399.7,129.3,401.1L129.3,401.1z"/>
	<path d="M567.4,402c0.5,1.4-0.9,1.8-0.9,2.8c-0.9,0.9-2.8,0.9-4.2,0.9c-1.8-0.9-1.8-2.3-1.8-4.2c0.9-0.9,1.4-1.8,2.8-1.8
		C564.7,399.7,567,400.2,567.4,402L567.4,402z"/>
	<path d="M555.9,402.9c0.9,2.3-1.4,3.2-2.8,3.7c-0.9,0-1.8-0.5-1.8,0.9c4.6,2.3,7.8,6.5,11.5,9.7v1.4c-6.5,0-13.4-1.8-18-6.9
		c-1.4-0.9-3.7-0.9-5.1-2.3c2.3-2.3,6.9-1.4,10.1-1.8c2.3-2.8-2.8-4.6,0.5-6.5c0.9,0,1.8-1.4,3.2-0.9
		C554.5,400.6,555.4,401.5,555.9,402.9L555.9,402.9z"/>
	<path d="M481.2,402.9c0.5,0.9-0.9,1.8-0.9,2.8c-0.9,0.9-2.8,1.4-4.2,0.9c-0.9-1.4-2.3-2.3-1.8-4.2
		C476.1,399.7,480.7,400.2,481.2,402.9L481.2,402.9z"/>
	<path d="M72.2,409.4c-0.5,1.8-1.4,2.8-3.2,2.8c-1.4,0-2.8-0.9-3.2-2.3c0-1.4,0.9-1.8,0.9-2.8C68.9,405.7,72.6,406.6,72.2,409.4
		L72.2,409.4z"/>
	<path d="M86.9,407.1c0,2.8-2.8,4.2-3.7,6.5c-2.8,6-7.8,11.5-14.8,12c-0.9-1.8,2.3-3.7,3.2-5.5c2.8-6.5,8.8-9.7,14.3-13.4h0.9V407.1
		z"/>
	<path d="M477,409.4c0,1.8-1.8,3.7-3.2,4.2c-1.8,0.5-2.8-0.9-3.7-1.4c-1.4-1.4-0.5-2.8,0-4.6C472.4,405.7,475.2,407.5,477,409.4
		L477,409.4z"/>
	<path d="M488.1,410.8c0,1.8-1.4,3.7-3.2,4.2c-0.5-0.5-1.4,0-1.8-0.5c-1.4-0.9-2.3-1.8-2.3-3.2c0.9-0.9,1.4-2.3,2.8-2.8
		C484.9,408.5,487.6,408.5,488.1,410.8L488.1,410.8z"/>
	<path d="M115.5,410.8c0,1.8-1.4,3.2-2.8,3.7c-1.8,0-2.8-0.9-3.7-2.3c-0.5-1.8,1.4-2.8,2.3-3.7C113.7,408,114.1,409.4,115.5,410.8
		L115.5,410.8z"/>
	<path d="M128,411.2c-0.5,1.8-1.8,2.8-3.7,3.2c-1.4-0.5-2.8-0.9-3.2-2.3c0-1.8,1.4-2.8,2.8-3.7C125.6,408.5,127.5,409.4,128,411.2
		L128,411.2z"/>
	<path d="M527.8,424.1c0.9,0.9,2.8,1.8,2.3,2.8c-2.8,1.4-5.1-1.8-7.8-2.8c-4.6-4.6-7.8-9.2-9.7-14.8c1.8-1.8,3.7,0.5,5.1,0.9
		C521.3,414.5,525.5,419.1,527.8,424.1L527.8,424.1z"/>
	<path d="M534.2,411.2c0.5,1.4,0.5,2.8-0.5,4.2c-0.9,1.8-3.7,1.4-5.1,0.9c-0.9-0.9-2.8-2.8-1.4-4.2c0.5-1.4,2.3-1.8,3.7-2.3
		C531.9,409.8,532.8,410.8,534.2,411.2L534.2,411.2z"/>
	<path d="M145,416.3c0,1.4,0.5,3.7-1.4,4.6c-1.8,0.5-3.7,0-4.6-2.3c-0.9-2.3,0.9-2.8,2.3-3.7C142.7,414.5,143.6,415.4,145,416.3
		L145,416.3z"/>
	<path d="M487.6,428.3c2.8,3.7,4.6,8.3,4.6,12.9c-0.5,1.4,0.9,2.8,0,3.7h-0.9c-8.3-6-10.1-14.3-13.4-22.6c-0.9-0.5-0.9-0.9-0.9-1.8
		c1.8-1.8,3.2,1.8,5.1,2.3L487.6,428.3L487.6,428.3z"/>
	<path d="M168.5,421.8C168.5,421.8,168.5,422.3,168.5,421.8c-6.9,5.5-17.5,8.8-25.8,3.7c0-0.5,0-1.4,0.9-1.8
		c5.5-1.8,10.6-4.2,16.1-3.7L168.5,421.8L168.5,421.8z"/>
	<path d="M127,422.8c-6,3.7-12,11.5-19.4,13.4c-1.4,0.5-2.3,2.8-4.2,1.4c3.2-10.1,14.3-15.2,24-16.1v1.4H127z"/>
	<path d="M477,431.1c0.5,1.4,0,3.7-1.4,3.7c-0.9,0.9-2.8,0.9-3.7,0c-1.8-0.9-1.8-2.3-1.8-3.7c0.5-1.4,1.8-1.4,2.8-1.8
		C474.7,429.7,476.1,429.7,477,431.1L477,431.1z"/>
	<path d="M461.8,432c-0.9,2.8-4.2,4.2-6.5,4.6c-6,2.3-12-0.9-17.5-2.3c0-1.4,1.8-0.9,2.8-1.8c6-1.4,12.5-2.8,18.4-0.9
		C460,431.5,461.4,431.1,461.8,432L461.8,432z"/>
	<path d="M127,437.5c-0.5,0.9-0.9,2.3-2.3,2.8c-1.4,0.5-2.8,0-3.7-0.9c-0.5-0.9-1.8-1.8-0.9-3.2c0.5-1.4,1.8-1.8,2.8-1.8
		C125.2,434.3,126.6,435.7,127,437.5L127,437.5z"/>
	<path d="M137.6,438.9c-0.5,0.9-0.9,2.8-2.8,3.7c-1.4,0.5-2.8-0.5-3.7-1.4c-0.5-0.9-0.9-2.3-0.5-3.7c0.5-0.9,1.8-0.9,2.8-1.8
		C135.3,435.7,137.2,437.5,137.6,438.9L137.6,438.9z"/>
	<path d="M473.4,440.7c0,1.4-0.5,2.3-1.4,3.7c-0.9,1.4-2.8,1.4-4.2,0.9c-1.4,0-1.8-1.8-2.3-2.8c-0.9-1.4,0.9-2.3,1.4-3.7
		C469.2,437.1,472.4,438,473.4,440.7L473.4,440.7z"/>
	<path d="M481.7,440.3c0,0.9,0.9,1.8,0.5,2.8c-0.9,0.9-1.8,3.2-4.2,2.3c-0.9,0.5-1.8-0.9-2.3-1.4c-0.9-1.8,0-4.6,2.3-5.1
		C479.3,438.4,480.7,439.8,481.7,440.3L481.7,440.3z"/>
	<path d="M131.2,445.8c0.5,1.8-0.5,3.7-1.8,5.1c-1.8,0.5-4.6,0.5-5.5-1.8c0-1.8,0-4.2,2.3-5.5C128,443.1,130.3,443.5,131.2,445.8
		L131.2,445.8z"/>
	<path d="M141.8,444.9c-0.5,5.1-1.4,11.5-6.5,14.3c-2.8,0.5-6,3.2-8.8,1.4v-0.5C130.3,454.6,137.2,450.4,141.8,444.9L141.8,444.9z"
		/>
	<path d="M444.8,449.5c0.9,0.9-0.5,1.8-0.9,2.8c-0.9,1.4-3.2,0.9-4.6,0c-1.4-0.5-1.4-2.3-0.9-3.7c0.5-0.9,1.4-1.8,2.3-1.8
		C442.5,446.7,443.8,448.1,444.8,449.5L444.8,449.5z"/>
	<path d="M159.8,457.8c2.8,4.2,0.9,10.1,2.8,14.8c-3.2,0.5-4.6-3.2-6.5-5.1c-4.2-5.5-3.7-12.9-5.1-19.4c0.5-0.5,0.9-0.5,1.4-0.5
		c2.8,1.8,4.6,5.5,6.9,7.8C158.4,456.9,160.2,456.9,159.8,457.8L159.8,457.8z"/>
	<path d="M454,450.9c0,1.4-1.8,1.8-2.8,2.8c-1.4,0-2.3-0.9-3.7-1.8c-0.5-1.8,0.9-2.3,1.8-3.2C451.7,447.7,453.1,448.6,454,450.9
		L454,450.9z"/>
	<path d="M475.7,467c0,0.5,0,1.8-0.9,1.4h-0.9c-5.1-4.6-10.6-10.1-9.7-17.5h0.9C470.1,455,475.2,459.7,475.7,467L475.7,467z"/>
	<path d="M461.8,461.5c0,1.4-0.9,2.8-1.8,3.7c-1.8,0.5-5.1,0.5-5.5-2.3c0-1.8,1.8-2.8,2.8-3.7C459.5,458.3,461.4,459.7,461.8,461.5
		L461.8,461.5z"/>
	<path d="M449.8,465.2c-2.8,6.9-9.7,10.1-14.3,15.7c-0.9-0.5-0.5-1.8-0.5-2.8c1.8-6.9,7.4-13.8,14.3-16.6
		C452.1,461.5,449.4,463.8,449.8,465.2L449.8,465.2z"/>
	<path d="M463.7,470.7c0,1.8-1.8,2.3-2.8,3.2c-1.4,0-2.8-0.5-4.2-1.8c0-1.8,1.4-2.3,2.3-3.2C461.4,468.4,462.7,469.3,463.7,470.7
		L463.7,470.7z"/>
	<path d="M327.6,136.4c2.3,0,4.6,1.8,4.6,4.6c0,2.3-1.8,4.6-4.6,4.6h-54.4c-2.3,0-4.6-1.8-4.6-4.6c0-2.3,1.8-4.6,4.6-4.6H327.6
		L327.6,136.4z M288.9,144.2c5.1,0,0.5-6.5-2.8-6.5h-5.1c-5.1,0-0.5,6.5,2.8,6.5H288.9L288.9,144.2z M311.5,144.2
		c5.1,0,0.5-6.5-2.8-6.5h-5.1c-5.1,0-0.5,6.5,2.8,6.5H311.5L311.5,144.2z M327.6,137.8h-1.8c-5.1,0-0.9,6.5,1.8,6.5
		C331.3,144.2,331.3,137.8,327.6,137.8L327.6,137.8z"/>
	<path d="M322.6,198.6l10.1,4.2l10.1-4.2l-3.7,15.2l8.3-1.8l-2.8,9.2l2.8,8.8l-7.4-1.8l3.2,16.6l-10.1-4.2l-10.1,4.2l4.2-16.6
		l-8.3,2.3l2.3-9.2l-2.3-8.8l7.8,1.4L322.6,198.6L322.6,198.6z M337.8,225.9c2.3,0,2.3-3.2,2.3-6c0-6.5-5.1,0-7.4-6
		c-1.8,5.1-6.9,0.5-6.9,5.5c0,3.7,0,6,3.7,6h8.3V225.9z M327.6,220.3c0,2.3,3.2,0.9,5.5,0.9s5.5,1.4,5.5-0.9c0-3.2-3.2-2.3-5.5-2.3
		S327.6,217.1,327.6,220.3L327.6,220.3z"/>
	<polygon points="298.6,220.8 298.6,218.9 296.7,218.5 298.1,217.1 297.2,215.7 299,215.7 300,213.9 300.9,215.7 302.7,215.7 
		302.3,217.1 303.6,218.5 301.8,218.9 301.8,220.8 300,219.9 	"/>
	<polygon points="290.3,231.4 290.3,229.5 288.4,229.1 289.8,227.7 289.4,225.9 290.7,226.3 292.1,224.5 293,226.3 294.9,225.9 
		294,227.7 295.3,229.1 293.5,229.5 293.5,231.4 292.1,230 	"/>
	<polygon points="304.1,230 304.1,228.2 302.3,227.7 303.6,226.3 302.7,224.9 304.6,224.9 305.5,223.1 306.9,224.9 308.7,224.9 
		307.8,226.3 309.2,227.7 307.3,228.2 307.3,230 305.5,228.6 	"/>
	<polygon points="305.5,237.8 305.5,236.5 304.6,236.5 305.5,235.5 305,234.6 306,234.6 306.4,233.7 307.3,234.6 308.3,234.6 
		307.8,235.5 308.3,236.5 307.3,236.5 307.3,237.8 306.4,236.9 	"/>
	<polygon points="293,246.6 293,243.4 289.8,242.5 292.1,240.1 290.7,237.4 294,237.8 295.8,234.6 297.7,237.8 300.9,237.4 
		299,240.1 301.3,242.5 298.6,243.4 298.6,246.6 295.8,244.3 	"/>
	<polygon points="299.5,72.8 306,88.4 322.1,83.8 313.8,98.6 327.6,108.7 311,111.5 312,128.5 299.5,117 286.6,128.5 288,111.5 
		270.9,108.7 284.7,98.6 276.4,83.8 293,88.4 	"/>
	<path d="M240.5,427.8c-1.8,0.9-2.8,1.4-2.3,3.2l2.3,9.7c0.5,1.8,0.5,4.6-0.5,6.5c-1.4,2.3-4.6,3.2-6.5,4.2c-1.4,0.5-5.1,0.9-7.8,0
		c-1.8-0.9-3.2-1.8-3.7-5.1l-2.8-10.1c-0.5-2.8-1.4-2.3-3.7-2.3v-0.9l12.5-2.8v0.9c-2.3,0.5-3.7,0.9-2.8,3.7l2.3,10.1
		c0.5,1.8,1.4,6,6.5,4.6c6.5-1.4,5.5-6,5.1-8.3l-2.3-9.2c-0.5-1.8-0.9-2.8-4.2-2.3v-0.9l7.8-1.8L240.5,427.8L240.5,427.8z"/>
	<path d="M258.5,430.1c-0.9-1.8-4.2-5.1-8.3-4.2c-1.8,0.5-3.7,1.8-3.2,3.7c0.5,1.8,1.4,2.3,4.6,2.8l6,0.9c1.4,0.5,4.6,1.4,5.1,4.6
		c0.5,2.8-0.9,6.9-7.8,8.3c-3.2,0.9-5.5,0-6.5,0.5c-0.9,0-0.9,0.9-0.9,1.4l-0.9,0.5l-1.8-7.4l0.9-0.5c1.4,2.8,4.2,6,8.8,5.1
		c4.2-0.9,3.7-4.2,3.7-4.6c-0.5-1.8-2.3-2.3-5.1-2.8l-2.8-0.5c-6.9-0.9-7.4-3.7-7.8-5.1c-0.5-1.8,0-6.5,6.9-7.8c2.8-0.5,5.1,0,6-0.5
		c0.9,0,0.9-0.5,0.9-1.4l0.9-0.5l1.4,6.5V430.1L258.5,430.1z"/>
	<path d="M282.9,442.1l-13.4,1.4v-0.9c2.8-0.5,3.7-0.5,3.2-3.2l-1.4-16.6c-2.8,0.5-6.5,0.9-6.5,6H264l-0.5-6.5l22.1-2.3l0.5,6.5
		h-0.9c-1.4-5.1-5.1-4.6-7.8-4.6l1.4,16.6c0.5,2.8,0.9,2.8,3.7,2.3L282.9,442.1L282.9,442.1z"/>
	<path d="M313.8,442.1H306l-7.4-10.1h-0.9v6c0,2.3,0.9,2.8,3.2,2.8v0.9H288v-0.9c2.8,0,3.2-0.5,3.2-2.8l0.5-13.8
		c0-2.8-0.9-2.8-3.2-2.8v-0.9l12,0.5c2.8,0,10.6,0.5,10.6,5.5c0,3.7-4.2,4.6-6,5.1l7.4,9.2c0.5,0.5,0.9,0.5,1.4,0.5V442.1
		L313.8,442.1z M297.7,431.1c5.1,0,6.9-0.5,6.9-4.6c0-3.2-1.4-4.6-4.6-4.6c-1.8,0-2.3,0.5-2.3,1.4V431.1L297.7,431.1z"/>
	<path d="M338.2,445.4l-12-1.4v-0.9c2.3,0,2.8,0,3.2-0.9c0-0.9-0.9-3.2-1.4-4.2l-8.3-0.9c-1.4,2.3-1.8,3.2-2.3,3.7
		c0,1.4,1.8,1.4,2.8,1.8v0.9l-7.4-0.9v-0.9c1.8,0,2.8-0.9,4.2-3.2l10.1-16.1h0.9l6.5,17.5c1.4,3.7,1.8,4.6,3.7,4.6L338.2,445.4
		L338.2,445.4z M327.6,436.6l-2.8-7.8l-4.6,6.9L327.6,436.6L327.6,436.6z"/>
	<path d="M359.9,449.5l-21.2-3.7v-0.9c2.3,0,3.2,0.5,3.7-1.4l2.8-14.8c0.5-1.8-0.9-2.3-2.8-2.8v-0.9l12.9,2.3v0.9
		c-2.8-0.5-3.7-0.5-4.2,2.3l-2.8,14.3c-0.5,1.4,0.5,1.8,2.8,2.3c5.5,0.9,7.8-1.4,10.6-4.2h0.9L359.9,449.5L359.9,449.5z"/>
	<path d="M374.2,452.7l-12.9-2.8V449c1.8,0.5,3.2,0.5,3.7-1.4l3.2-14.8c0.5-1.8-1.4-2.3-2.8-2.8v-0.9l12.9,2.8v0.9
		c-1.8-0.5-3.7-0.5-3.7,1.4l-3.2,14.8c-0.5,1.8,0.9,2.3,3.2,2.8L374.2,452.7L374.2,452.7z"/>
	<path d="M400,456l-12-1.4v-0.9c2.3,0,2.8,0,3.2-0.9c0-0.9-0.9-3.2-1.4-4.2l-8.3-0.9c-1.4,2.3-1.8,3.2-1.8,3.7
		c0,1.4,1.8,1.4,2.8,1.8v0.9l-7.4-0.9v-0.9c1.8,0,2.8-0.9,4.2-3.2l10.1-16.1h0.9l6.5,17.1c1.4,3.7,1.8,4.6,3.7,4.6L400,456L400,456z
		 M389.4,447.7l-2.8-7.8l-4.2,7.4L389.4,447.7L389.4,447.7z"/>
	<path d="M304.6,203.7c0-7.4-4.2-0.5-6.5-6.9c-1.8,5.5-6.9,0.9-6.9,6.5c0,2.3,0.5,3.7,1.8,4.2v2.3c0,0.5,0.5,0.9,0.9,0.9h7.8
		c0.5,0,0.9-0.5,0.9-0.9v-2.3C304.1,206.5,304.6,205.1,304.6,203.7L304.6,203.7z M298.1,205.1c-2.3,0-5.1,1.4-5.1-0.9
		c0-3.7,2.3-2.8,4.6-2.8c2.3,0,5.5-0.9,5.5,2.8C303.2,206.5,300.4,205.1,298.1,205.1L298.1,205.1z"/>
	<path d="M370.1,295.9c1.8,0,3.2-1.4,3.2-3.2c0-1.8-1.4-3.2-3.2-3.2s-3.2,1.4-3.2,3.2C366.4,294.6,368.2,295.9,370.1,295.9
		L370.1,295.9z"/>
	<path d="M353.9,184.3c0,0-1.8,2.8-1.8,3.2c0,0.9,0.9,1.8,1.8,1.8c0.9,0,1.8-0.9,1.8-1.8C355.3,187.6,353.9,184.3,353.9,184.3
		L353.9,184.3z"/>
	<path d="M243.2,184.3c0,0-1.8,2.8-1.8,3.2c0,0.9,0.9,1.8,1.8,1.8c0.9,0,1.8-0.9,1.8-1.8C245.1,187.6,243.2,184.3,243.2,184.3
		L243.2,184.3z"/>
	<path d="M270.9,184.3c0,0-1.8,2.8-1.8,3.2c0,0.9,0.9,1.8,1.8,1.8c0.9,0,1.8-0.9,1.8-1.8C272.8,187.6,270.9,184.3,270.9,184.3
		L270.9,184.3z"/>
	<path d="M298.6,184.3c0,0-1.8,2.8-1.8,3.2c0,0.9,0.9,1.8,1.8,1.8c0.9,0,1.8-0.9,1.8-1.8C300.4,187.6,298.6,184.3,298.6,184.3
		L298.6,184.3z"/>
	<path d="M326.2,184.3c0,0-1.4,2.8-1.4,3.2c0,0.9,0.9,1.8,1.8,1.8c0.9,0,1.8-0.9,1.8-1.8C327.6,187.6,326.2,184.3,326.2,184.3
		L326.2,184.3z"/>
	<path d="M243.2,222.2c0,0,1.4,2.8,1.4,3.2c0,0.9-0.9,1.8-1.8,1.8c-0.9,0-1.8-0.9-1.8-1.8C241.9,225.4,243.2,222.2,243.2,222.2
		L243.2,222.2z"/>
	<path d="M243.2,259.1c0,0,1.4,2.8,1.4,3.2c0,0.9-0.9,1.8-1.8,1.8c-0.9,0-1.8-0.9-1.8-1.8C241.9,262.3,243.2,259.1,243.2,259.1
		L243.2,259.1z"/>
	<path d="M247.9,288.6c0,0,1.8,2.8,1.8,3.2c0,0.9-0.9,1.8-1.8,1.8c-0.9,0-1.8-0.9-1.8-1.8C246,291.3,247.9,288.6,247.9,288.6
		L247.9,288.6z"/>
	<path d="M270.9,303.8c0,0,1.8,2.8,1.8,3.2c0,0.9-0.9,1.8-1.8,1.8c-0.9,0-1.8-0.9-1.8-1.8L270.9,303.8L270.9,303.8z"/>
	<path d="M355.3,222.2c0,0-1.4,2.8-1.4,3.2c0,0.9,0.9,1.8,1.8,1.8c0.9,0,1.8-0.9,1.8-1.8C356.7,225.4,355.3,222.2,355.3,222.2
		L355.3,222.2z"/>
	<path d="M355.3,259.1c0,0-1.4,2.8-1.4,3.2c0,0.9,0.9,1.8,1.8,1.8c0.9,0,1.8-0.9,1.8-1.8C356.7,262.3,355.3,259.1,355.3,259.1
		L355.3,259.1z"/>
	<path d="M350.7,288.6c0,0-1.8,2.8-1.8,3.2c0,0.9,0.9,1.8,1.8,1.8c0.9,0,1.8-0.9,1.8-1.8C352.5,291.3,350.7,288.6,350.7,288.6
		L350.7,288.6z"/>
	<path d="M327.6,303.8c0,0-1.4,2.8-1.4,3.2c0,0.9,0.9,1.8,1.8,1.8c0.9,0,1.8-0.9,1.8-1.8C329.5,307,327.6,303.8,327.6,303.8
		L327.6,303.8z"/>
	<path d="M299.5,320.4c0,0-1.4,2.8-1.4,3.2c0,0.9,0.9,1.8,1.8,1.8c0.9,0,1.8-0.9,1.8-1.8C300.9,323.6,299.5,320.4,299.5,320.4
		L299.5,320.4z"/>
	<path d="M344.2,265.5c0.5,0.5,1.4,0.9,2.3,0.5l0.9-2.8c0,0-1.4-1.4-1.8-1.4c-2.8,0.9-6,0.9-7.8,3.7c0,1.8,1.4,3.7,2.8,4.6
		c0.9-0.5,1.4,0.9,1.8,1.4c0,0.9-0.5,1.4-1.4,1.4c-2.3-2.3-5.5,0.9-7.4-1.8c0.5-2.8,2.3-5.5,0-7.8c0-0.5,0.9-0.9,0.5-1.4
		c-0.9-2.3-3.7-0.5-5.1-0.5c-2.8-0.5-4.6,0.9-6.5,3.2c0,0.9,0.5,1.8,1.4,2.8c0.9,0,0.9,0,1.4,0.9l-1.8,0.9c0.5,0.5,0.5,1.4,0.9,1.8
		c-1.4,0.5-2.3-1.4-2.8-2.3c0-1.4,0-3.7-1.8-4.2c-0.5,0-1.4,0.5-1.4,0.5c-0.5,0.5-0.9,1.8-0.9,2.8c0,1.4,0.5,3.2,0.5,3.2
		s5.5,4.2,6.5,6.5c-1.4,3.2-1.4,7.4-5.1,9.2c-0.9,0.9-0.9,1.8-0.9,2.8l0.9,0.9c2.3-1.4,6.5-1.4,6.5-5.5c0.9-1.4,1.8-3.2,3.2-4.6
		c1.8-0.5,3.2,0.5,4.2,1.8c-0.5,2.8-2.3,4.2-4.6,5.1c-0.5,0.5,0,0.9,0,1.4c0.9,1.4,2.8,0.9,3.7,0.5c2.8-1.8,4.2-5.5,6.9-6.5
		c0.5,1.8-3.7,2.3-0.9,4.2c1.4-0.5,3.7,0,4.6-1.8c-1.4-2.8,4.2-4.2,0.9-6.9c0-2.8,2.8-3.7,2.8-6.5c-0.9-2.8-4.2-2.8-5.1-5.5
		C341.9,264.6,343.3,264.6,344.2,265.5L344.2,265.5z"/>
	<path d="M217.4,297.3c1.8,0,3.2-1.4,3.2-3.2c0-1.8-1.4-3.2-3.2-3.2s-3.2,1.4-3.2,3.2C214.2,295.9,215.6,297.3,217.4,297.3
		L217.4,297.3z"/>
	<path d="M38.5,402c1.8,0,3.2-1.4,3.2-3.2c0-1.8-1.4-3.2-3.2-3.2c-1.8,0-3.2,1.4-3.2,3.2C34.8,400.2,36.2,402,38.5,402L38.5,402z"/>
	<path d="M152.4,427.4L152.4,427.4L152.4,427.4l-0.5-0.5l0,0C151.9,427.4,151.9,427.4,152.4,427.4L152.4,427.4h-0.9l0,0l0,0v-0.5
		l0,0l0,0h0.5C151.9,426.4,152.4,426.4,152.4,427.4C152.4,426.9,151.9,426.9,152.4,427.4L152.4,427.4L152.4,427.4L152.4,427.4
		L152.4,427.4z M151.9,426.9L151.9,426.9C151.9,426.9,151.9,426.4,151.9,426.9C151.9,426.4,151.9,426.4,151.9,426.9L151.9,426.9
		L151.9,426.9z"/>
	<path d="M152.9,426.9C152.9,426.9,152.9,426.4,152.9,426.9C152.4,426.4,152.4,426.4,152.9,426.9
		C152.4,426.9,152.4,426.9,152.9,426.9L152.9,426.9L152.9,426.9C152.9,427.4,152.9,427.4,152.9,426.9
		C152.4,427.4,152.4,427.4,152.9,426.9C152.4,427.4,152.4,427.4,152.9,426.9l-0.5,0.5l0,0L152.9,426.9
		C152.4,426.9,152.4,427.4,152.9,426.9C152.9,427.4,152.9,426.9,152.9,426.9L152.9,426.9L152.9,426.9
		C152.4,426.9,152.4,426.9,152.9,426.9C152.4,426.9,152.4,426.4,152.9,426.9C152.9,426.4,152.9,426.4,152.9,426.9
		C152.9,426.4,152.9,426.4,152.9,426.9L152.9,426.9L152.9,426.9L152.9,426.9L152.9,426.9z"/>
	<path d="M153.8,426.4L153.8,426.4l-0.5,0.5l0,0v-0.5l0,0v0.5l0,0v-0.5l0,0l0,0H153.8L153.8,426.4L153.8,426.4L153.8,426.4v0.5l0,0
		V426.4L153.8,426.4L153.8,426.4L153.8,426.4L153.8,426.4L153.8,426.4C153.8,426.4,153.3,426.4,153.8,426.4
		C153.3,426.9,153.3,426.9,153.8,426.4L153.8,426.4L153.8,426.4L153.8,426.4C153.8,426.9,153.8,426.9,153.8,426.4L153.8,426.4
		L153.8,426.4L153.8,426.4L153.8,426.4L153.8,426.4z"/>
	<path d="M153.8,427.4C154.2,427.4,154.2,427.4,153.8,427.4C154.2,426.9,154.2,426.9,153.8,427.4
		C154.2,426.9,154.2,426.9,153.8,427.4C154.2,426.9,153.8,426.9,153.8,427.4c0-0.5,0-0.5,0.5-0.5c0,0,0.5,0,0.5,0.5
		C154.2,426.9,154.2,427.4,153.8,427.4L153.8,427.4L153.8,427.4z M154.2,426.9L154.2,426.9L154.2,426.9
		C154.2,426.9,154.2,426.4,154.2,426.9C154.2,426.4,154.2,426.9,154.2,426.9L154.2,426.9L154.2,426.9z"/>
	<path d="M154.7,426.9L154.7,426.9L154.7,426.9C154.7,427.4,154.7,427.4,154.7,426.9C154.7,427.4,154.2,427.4,154.7,426.9
		C154.2,426.9,154.7,426.9,154.7,426.9S154.7,427.4,154.7,426.9C154.7,427.4,154.7,427.4,154.7,426.9L154.7,426.9L154.7,426.9
		L154.7,426.9L154.7,426.9L154.7,426.9L154.7,426.9L154.7,426.9L154.7,426.9z"/>
	<path d="M363.1,180.2L363.1,180.2H235.9l0,0l0,0v97.3c0,10.1,4.2,18.4,10.1,21.2l48.9,31.4c0.9,1.4,2.8,1.8,4.6,1.8
		c1.4,0,2.8-0.5,4.2-1.4l49.3-31.8c6-2.8,10.1-11.5,10.1-21.2V180.2L363.1,180.2L363.1,180.2z M359.4,278.9
		c-0.5,7.4-3.2,13.4-8.3,17.1l-48,30.4h-0.5c-0.9,0.9-2.3,1.4-3.7,1.4c-1.4,0-2.8-0.5-3.7-1.4l-48-30.4c-5.1-3.7-7.4-9.7-8.3-17.1
		v-95.5h120.4V278.9L359.4,278.9z"/>
	<path d="M316.6,322.2l1.4-0.9C317.5,321.3,317,321.8,316.6,322.2L316.6,322.2z"/>
	<path d="M220.2,455l-12,1.4v-0.9c2.3-0.5,2.8-0.5,2.8-1.4s-1.4-3.2-2.3-4.2l-8.3,0.9c-0.9,2.3-1.4,3.7-1.4,4.2
		c0,1.4,1.8,0.9,3.2,0.9v0.9l-7.4,0.9v-0.9c1.8-0.5,2.3-1.4,3.2-4.2l6.5-18h0.9l10.1,15.2c1.8,3.2,2.8,4.2,4.6,3.7L220.2,455
		L220.2,455z M208.2,449l-4.6-6.9l-2.8,7.8L208.2,449L208.2,449z"/>
	<path d="M431.4,409.4c-2.3-5.5-6.9-9.7-12.5-11.5c-6-1.4-12-0.5-16.1,4.2c-6.5,5.5-1.8,14.3-1.8,21.2c0,1.4,0,2.8-1.4,3.2
		c-26.7-2.3-51.2-9.2-77.5-12c-6-0.9-12-0.9-18-1.8l-7.4-0.9c-23.1,0.9-45.7,1.8-67.3,7.4c-4.6,1.4-9.7,1.8-14.3,3.7
		c-3.2-0.5-6,1.8-9.2,0.9l-6,1.4c-0.5,0-1.4,0-1.8,0c-2.8-7.4,6-12,3.2-19.4c-2.3-4.2-6.9-8.3-12.5-7.4c-6-0.9-11.5,2.8-14.8,7.4
		c-4.2,9.2,0.9,18.9,2.8,27.7c-0.5,2.8,2.8,6.5,0,8.8c-6-4.2-13.4-6.5-20.8-4.2c-2.3,0.9-6-0.5-7.4,2.3c7.8,4.2,18,3.7,26.7,3.2
		c0.9-0.5,1.8-0.5,2.8,0c0.9,4.6-0.9,11.1,1.8,15.7c3.2,4.6,8.8,5.5,14.3,6c17.1-0.5,31.8-5.5,47-9.2c2.3,0,4.2-1.4,6.9-1.4
		c8.3-1.8,17.1-3.2,25.8-3.7c-3.7,5.1-6,10.6-7.8,16.6c-2.3,5.1,3.7,5.5,5.5,8.3c-5.5,1.8-9.7,5.5-15.2,7.8
		c-11.5-0.5-21.7,4.2-32.7,5.5c0,2.3,3.7,1.8,4.2,4.2c-0.5,1.8-2.3,1.8-3.7,2.8c0,0.9,0,1.4,0.9,1.4c0.9-1.4,3.7-0.5,4.6-1.8
		c3.7,0,6.9-0.9,10.1-1.4c3.2-1.4,6.5-1.4,9.2-3.7c3.7-0.9,6-3.7,10.1-4.6c5.5,0,10.6-1.8,15.7-2.3v0.9c-4.2,6.9-8.8,13.8-12.9,20.3
		c-0.9,1.4,0,2.8,1.4,2.8c2.8,0.9,5.1,0,6.9-0.9c3.7-6.5,7.4-12.9,10.6-19.8c1.4-6.5,6-9.7,10.6-13.8c0.9-0.5,1.8-1.4,2.8-0.5
		c-3.7,4.2-6,8.3-8.8,12.9c-1.4,5.1-1.8,12,2.8,16.1c2.3,1.8,5.5,1.4,8.3,1.4c6.9-3.7,16.1,2.3,21.7-4.6c3.2-0.5,3.7,3.2,5.5,5.1
		c3.2,0.9,6.5,4.2,9.7,1.8c0-1.8-2.3-3.7-3.7-5.5c-2.3-3.7-5.1-6.9-6.9-10.6c-0.9-2.8-2.8-4.2-2.8-6.9c3.2,0.9,6,3.2,9.7,3.7
		c3.2,1.4,6.9,0.9,9.7,2.8c2.3,3.2,6,5.1,9.2,6.9c4.6,2.3,9.7,2.8,14.3,4.6c1.8,0,4.6,1.8,6,0c-0.9-0.9-1.8-1.4-2.8-1.8
		c-0.5-2.3,3.2-0.9,4.6-2.8c-0.5-0.9-1.4-1.4-2.3-1.4c-2.8-1.4-9.2-1.8-11.1-2.8c-2.3-0.5-4.2-1.4-6.5-1.8
		c-11.1,0-17.1-10.1-25.8-13.8c1.8-1.8,5.1-3.2,6.5-6c1.8-2.8,2.3-6.9,0.5-9.7c-1.8-5.5-8.8-5.1-13.4-8.3l0.5-0.5
		c6.9-0.5,13.4,1.4,19.8,2.8c17.5,2.3,33.7,9.2,52.1,9.2c10.1,0,22.6,0.5,27.7-9.2c0.9-5.5,1.8-11.5,2.8-17.1
		C426.3,428.3,432.3,419.5,431.4,409.4L431.4,409.4z M234,493.3l-2.8-2.3c1.4-1.8,4.2-0.9,6-1.8c4.6-1.4,10.1-3.2,15.7-2.3
		C247.4,491.5,240,491.9,234,493.3L234,493.3z M347.9,490.5c4.2,1.8,13.4,3.7,19.4,4.6c-0.5,2.3-5.1,0-4.6,3.7
		c-5.5-2.3-12.5-3.2-16.6-7.8C347,491,347.5,490.5,347.9,490.5L347.9,490.5z M176.4,412.2c0.5-3.2,1.4-6.9,4.6-9.2
		c4.6-2.3,10.6-1.8,14.3,0.5c1.4,0.9,2.3,1.8,2.8,3.7c0.9,3.2-0.5,6.5-2.8,8.3h-1.8c0-2.8,0-6,0.9-8.3c0-2.3-1.8-2.3-3.7-3.2
		c-3.2-0.9-6,0.5-8.3,1.8c-1.8,2.3-3.7,5.1-2.3,8.3c1.4,1.8,0,4.6,0.9,6.9l-0.5,0.9C178.7,419.1,175.9,416.3,176.4,412.2
		L176.4,412.2z M185.1,417.7c2.8,1.8,6.5,0.9,9.7,1.8c0.5,1.8,0.5,4.6-0.9,6.5c-3.2-0.9-6.9-0.5-8.8-3.2
		C185.6,420.9,184.7,419.1,185.1,417.7L185.1,417.7z M184.2,411.2c0.5-1.4,0-3.7,1.8-4.2c1.4-0.5,3.2-0.5,3.7,0.9
		c0,2.3-0.5,4.6-0.9,6.5C186.5,414.9,185.1,413.5,184.2,411.2L184.2,411.2z M270,470.7c-0.9-6.5,1.8-12,6-16.6
		c2.8-0.5,5.5-0.9,7.8,0.5c-4.6,1.4-10.6,2.3-12,8.3c0,2.3-0.5,3.7,0.5,5.5c1.8,3.7,6.5,1.8,9.2,4.6c0,0.9-0.9,1.8-1.8,2.3
		C276.9,473.5,273.2,473,270,470.7L270,470.7z M263.5,483.2c4.6-1.8,8.8-5.5,13.8-4.2C274.1,481.8,268.1,483.2,263.5,483.2
		L263.5,483.2z M281.1,485c-2.8,6-5.5,11.5-8.8,17.5c-0.5,0.9-1.8,0.9-2.8,1.4c0-2.8,2.8-4.6,3.7-6.9c3.7-5.1,5.1-10.1,9.2-15.2
		C283.4,482.7,281.1,483.6,281.1,485L281.1,485z M285.7,474.4v0.9h-0.5L285.7,474.4L285.7,474.4L285.7,474.4
		C285.7,474.4,285.2,474.4,285.7,474.4L285.7,474.4L285.7,474.4z M283.8,469.3c-3.2-0.5-6-1.4-8.8-2.3c-1.8-1.8,0-3.7,0-6
		c2.8-4.2,9.7-6,13.4-2.3C288,462.9,286.6,466.6,283.8,469.3L283.8,469.3z M288,469.3c0.5-2.3,1.8-5.5,2.8-7.8
		C290.7,464.3,289.4,467.5,288,469.3L288,469.3z M289.8,454.6c-2.3-0.5-3.7-3.2-6-3.2c2.3-0.9,4.6-0.5,6.9,0
		C291.7,452.3,290.3,453.2,289.8,454.6L289.8,454.6z M292.1,460.1L292.1,460.1v-1.8l0,0V460.1L292.1,460.1z M292.1,468.4
		c0-0.9,0.5-1.8,0.5-2.8c0.9-0.9,1.8,0.9,2.3,1.4C294.4,468,293.5,468.9,292.1,468.4L292.1,468.4z M294.9,456.9
		c0.9-2.8,0.9-4.6,2.8-6.9c1.8,0,3.7,0,5.1,0.9c0.5,3.7,5.1,8.8,0,12c-1.8,0.9-4.2,2.3-6,0.9C294.4,461.5,294,459.7,294.9,456.9
		L294.9,456.9z M308.3,451.8c-0.5-1.8,1.8-0.5,2.3-0.9l5.5,0.5C313.3,450.9,310.1,457.8,308.3,451.8L308.3,451.8z M317.5,454.1
		c-2.3,0.9-3.7,3.2-6,3.7C312.4,456,315.2,454.1,317.5,454.1L317.5,454.1z M310.1,465.6v0.5l0,0V465.6L310.1,465.6L310.1,465.6z
		 M310.1,477.2c0,0.5,0,0.9-0.5,1.4l-4.2-3.2C307.8,474.4,309.2,475.3,310.1,477.2L310.1,477.2z M305.5,471.2c0.5-0.5,1.4-0.5,1.8,0
		H305.5L305.5,471.2z M302.7,468.4c0.9-0.9,1.8-2.8,2.8-2.8c0,0,0,0.5,0.5,0.5C305,467,304.1,468,302.7,468.4L302.7,468.4z
		 M298.6,468h-0.9l0.9-0.9C299.5,467.5,298.6,468,298.6,468L298.6,468z M299,475.3c2.3-2.8,4.6,1.4,5.5,3.7
		c2.8,4.2,9.7,7.8,6.9,13.4c-3.7,3.2-8.8,0-12.9,2.8c-1.8,0-5.5,0.5-6.5-1.8C294.4,486.9,296.3,480.4,299,475.3L299,475.3z
		 M294,478.6l0.9-1.4c-1.4,4.6-3.7,9.2-6,13.4C288,485.9,292.1,482.7,294,478.6L294,478.6z M301.8,500.7c-3.7,0-8.8,2.3-12-0.9
		c0-1.4-1.4-2.3-1.4-3.7c2.8-0.9,5.5,2.3,8.3,0c4.2,0,8.8-0.5,12.9,0.5c1.8,0.5,5.1-3.2,5.5,0.5C313.8,503,306.4,498.8,301.8,500.7
		L301.8,500.7z M312.4,473.9v-0.5h0.5L312.4,473.9L312.4,473.9L312.4,473.9z M313.8,485.5c0,1.8,1.8,2.8,0.9,4.2
		C314.3,489.2,313.3,487.3,313.8,485.5L313.8,485.5z M318.9,496.5l-0.9,0.5c-0.9-0.9-0.5-2.8-0.5-3.7
		C318.9,494.2,319.8,495.2,318.9,496.5L318.9,496.5z M328.1,501.2c0,0.5-0.9,0.5-1.4,0c-5.5-6.9-7.8-14.3-11.5-22.1h0.9
		C320.3,486.4,323.5,494.2,328.1,501.2L328.1,501.2z M334.5,484.1c-0.5,0-0.5,0.5-0.5,0.9c-5.5,0-8.8-2.8-12.9-5.5v-0.9
		C326.2,478.6,330.4,481.8,334.5,484.1L334.5,484.1z M329.9,459.7c2.3,0.5,2.3,2.8,2.8,4.6c0,4.2-2.3,7.4-6,9.2
		c-1.8,0.9-5.1,1.4-6.9,0.9c4.6,0,9.2-1.8,11.1-6.5L329.9,459.7L329.9,459.7z M325.8,458.7c0.9,2.8,2.8,5.1,1.8,8.3
		c-1.8,3.7-5.5,3.7-8.8,4.2c-1.8,0-2.8-0.5-4.2-1.4c0-0.9,0-1.4-0.9-1.8c0.5-2.3-4.2-4.6-0.9-6.9S323,452.3,325.8,458.7L325.8,458.7
		z M418.9,445.4c-1.4,1.8,0,4.6-1.8,6.5c0,3.2-2.8,5.1-5.1,6.5c-21.7,4.6-43.3-2.8-64.1-6.5c-29.5-6.5-63.6-8.3-93.6-1.4
		c-14.3,2.8-27.7,6-41.5,9.7c-8.3,0.9-17.5,2.3-25.8,0c-6.5-3.2-3.7-11.5-6-17.5c0.5-4.6-1.4-8.3-1.4-12.9c-0.5-1.4-0.9-3.2-0.9-4.6
		c2.8,0.5,5.5,2.3,8.3,3.2c15.2,2.8,29.1-1.8,43.3-4.6c13.8-2.8,27.7-5.5,42.4-6.5c16.6,0,33.2-0.9,48.9,1.8c5.1,0,9.7,1.4,14.3,1.8
		c10.1,1.4,19.8,4.2,30,4.6c1.8,0.5,3.7,0.5,5.5,0.9c16.6,2.8,35,7.4,50.7,0C422.6,432.9,419.9,438.9,418.9,445.4L418.9,445.4z
		 M413.9,422.8c0,2.8-2.8,2.3-4.2,3.2h-4.6c-0.9-1.4-0.5-3.7-0.5-5.1C407.9,421.8,411.1,421.8,413.9,422.8L413.9,422.8z
		 M411.6,418.1c1.8-1.8-0.5-13.8,5.1-6c0,1.4,0,3.7-1.4,4.6C414.8,417.7,413.4,419.1,411.6,418.1L411.6,418.1z M426.8,416.3
		c-1.8,3.2-4.2,5.5-7.8,6.5c0-4.6,4.2-7.4,2.8-12.5c-2.3-3.7-6.9-4.6-11.5-3.7c-1.8,0.9-0.9,2.8-1.4,4.6l-0.9,6
		c-3.7,0-3.7-3.2-5.1-6c0-3.7,1.8-7.8,5.5-9.7c2.8-1.4,7.8-1.4,10.6,0.5c2.3,0.5,5.1,1.8,6,3.7C427.7,408.5,427.2,413.1,426.8,416.3
		L426.8,416.3z"/>
</g>
</svg>
