<?xml version="1.0" encoding="utf-8"?>
<!-- Generator: Adobe Illustrator 25.1.0, SVG Export Plug-In . SVG Version: 6.00 Build 0)  -->
<svg version="1.1"
	 id="Ebene_1" xmlns:inkscape="http://www.inkscape.org/namespaces/inkscape" xmlns:sodipodi="http://sodipodi.sourceforge.net/DTD/sodipodi-0.dtd" xmlns:svg="http://www.w3.org/2000/svg"
	 xmlns="http://www.w3.org/2000/svg" xmlns:xlink="http://www.w3.org/1999/xlink" x="0px" y="0px" viewBox="0 0 136 136"
	 style="enable-background:new 0 0 136 136;" xml:space="preserve">
<style type="text/css">
	.st0{fill:#FFFFFF;}
	.st1{fill:#084780;}
</style>
<sodipodi:namedview  bordercolor="#666666" borderopacity="1.0" id="namedview147" inkscape:current-layer="Ebene_1" inkscape:cx="141.7358" inkscape:cy="92.931284" inkscape:pagecheckerboard="0" inkscape:pageopacity="0.0" inkscape:pageshadow="2" inkscape:window-height="1137" inkscape:window-maximized="1" inkscape:window-width="1920" inkscape:window-x="-8" inkscape:window-y="-8" inkscape:zoom="3.2066704" pagecolor="#ffffff" showgrid="false">
	</sodipodi:namedview>
<g id="g144" transform="translate(-41.1,-33.3)">
	<path id="path4" class="st0" d="M177.1,101.3c0,37.6-30.5,68-68,68c-37.6,0-68-30.5-68-68c0-37.6,30.5-68,68-68
		C146.7,33.3,177.1,63.8,177.1,101.3z"/>
	<path id="path66" class="st1" d="M64.5,136.7c0.5-0.4,0.6-1.2,0.2-1.7c-0.4-0.5-1.2-0.6-1.7-0.2c-0.5,0.4-0.6,1.1-0.2,1.7
		C63.2,137,64,137.1,64.5,136.7L64.5,136.7z"/>
	<polygon id="polygon68" class="st1" points="71.6,148.2 68.2,145.4 76.1,143.3 76.3,143.1 71.8,139.3 72,139 71.6,138.6 
		70.4,140.1 70.8,140.4 71.4,139.8 74.6,142.4 66.7,144.5 66.4,144.8 71.6,149.1 72.7,147.7 72.3,147.3 	"/>
	<path id="path70" class="st1" d="M86.9,149.5l-2.9-1.6l-0.3,0.6l1.1,0.6l-2,3.6c-0.7,1.2-1.9,1.6-3,1s-1.3-1.8-0.7-3l2-3.6l1.1,0.6
		l0.3-0.6l-3.3-1.8l-0.3,0.6l1.1,0.6l-2.2,3.9c-0.8,1.4-0.2,3,1.4,3.9c1.7,0.9,3.4,0.5,4.3-1.1l2-3.7l1.1,0.6L86.9,149.5L86.9,149.5
		z"/>
	<path id="path72" class="st1" d="M94.8,152.8l1.1,0.3c0.8,0.2,1.1,0.8,0.9,1.6c-0.2,0.8-0.9,1.2-1.7,1l-1-0.3L94.8,152.8z
		 M94,156.1l1.2,0.3c1.1,0.3,1.5,0.9,1.2,1.9c-0.2,0.9-0.9,1.2-2,1l-1.1-0.3L94,156.1L94,156.1z M94.9,160c1.5,0.4,2.6-0.1,2.9-1.3
		c0.3-1.2-0.4-2.2-1.9-2.6c1.2,0.3,2.2-0.2,2.4-1.2c0.3-1.1-0.4-2.1-1.8-2.4l-3.9-1l-0.1,0.6l1.2,0.3l-1.6,6.3l-1.2-0.3l-0.2,0.6
		L94.9,160L94.9,160L94.9,160z"/>
	<polygon id="polygon74" class="st1" points="108.6,160.9 105.8,160.8 105.9,157.9 108,158 108,158.8 108.6,158.8 108.7,156.5 
		108.1,156.5 108,157.3 105.9,157.2 106,154.5 108.7,154.5 108.7,155.4 109.3,155.4 109.4,153.6 108.8,153.5 108.7,153.9 
		103.5,153.7 103.5,154.3 104.8,154.4 104.5,160.8 103.3,160.8 103.3,161.4 109.2,161.6 109.3,160 108.6,160 	"/>
	<path id="path76" class="st1" d="M116.6,153.9l1.1-0.2c0.9-0.1,1.4,0.3,1.5,1.2s-0.3,1.6-1.1,1.7l-1.2,0.2L116.6,153.9z
		 M122.6,159.4l-0.5,0.1c-0.4,0.1-0.7-0.1-1-0.5l-1.9-2c1.1-0.4,1.6-1.3,1.4-2.4c-0.2-1.3-1.2-1.9-2.8-1.6l-3.9,0.6l0.1,0.7l1.2-0.2
		l1,6.3l-1.2,0.2l0.1,0.6l3.7-0.6l-0.1-0.6l-1.2,0.2l-0.4-2.7l0.8-0.1l2.2,2.4c0.5,0.6,0.7,0.6,1.4,0.5l1.2-0.2L122.6,159.4
		L122.6,159.4z"/>
	<polygon id="polygon78" class="st1" points="132.5,155.9 129.9,156.8 127.7,150.9 128.8,150.5 128.6,149.9 125.1,151.2 
		125.3,151.8 126.5,151.4 128.8,157.3 127.6,157.8 127.8,158.4 133.3,156.3 132.7,154.7 132.2,154.9 	"/>
	<polygon id="polygon80" class="st1" points="136.1,146.8 137.1,146.1 136.8,145.6 133.6,147.5 133.9,148.1 135,147.4 138.3,152.9 
		137.2,153.5 137.5,154.1 140.7,152.1 140.4,151.6 139.4,152.3 	"/>
	<polygon id="polygon82" class="st1" points="147.2,137 144.8,139.3 145.2,139.8 146.2,138.9 149.4,142.4 142.3,141.6 140.7,143.1 
		141.2,143.6 142,142.8 142.6,142.9 146.6,147.2 145.7,148.1 146.1,148.5 148.6,146.3 148.2,145.8 147.2,146.7 143.9,143.1 
		151.3,143.9 151.6,143.6 146.8,138.4 147.7,137.5 	"/>
	<path id="path84" class="st1" d="M155,133c-0.5-0.4-1.3-0.2-1.6,0.3c-0.4,0.5-0.2,1.3,0.3,1.6c0.5,0.4,1.3,0.3,1.6-0.3
		C155.6,134.2,155.5,133.4,155,133L155,133z"/>
	<polygon id="polygon86" class="st1" points="52.3,122.4 51.8,121.3 51.3,121.5 52.8,124.9 53.4,124.7 52.9,123.6 55.5,122.4 
		57.3,126.6 54.7,127.7 54.2,126.6 53.6,126.8 55.2,130.3 55.7,130 55.2,128.9 61.1,126.2 61.6,127.4 62.2,127.1 60.7,123.7 
		60.1,124 60.6,125.1 57.9,126.3 56.1,122.1 58.8,121 59.3,122.1 59.8,121.8 58.3,118.4 57.7,118.6 58.2,119.8 	"/>
	<path id="path88" class="st1" d="M48.2,106.3l0.5,3.3l0.7-0.1l-0.2-1.2l4.1-0.6c1.3-0.2,2.4,0.5,2.6,1.8c0.2,1.2-0.6,2.1-1.9,2.4
		l-4.1,0.7l-0.2-1.2l-0.7,0.1l0.6,3.7l0.7-0.1l-0.2-1.2l4.5-0.7c1.5-0.2,2.5-1.7,2.2-3.5c-0.3-1.9-1.7-3-3.5-2.7l-4.1,0.7l-0.2-1.2
		L48.2,106.3L48.2,106.3z"/>
	<polygon id="polygon90" class="st1" points="49.7,90.6 49.9,89.4 49.2,89.3 48.9,91.9 54.1,95.2 48.2,97.1 47.9,99.6 48.6,99.7 
		48.8,98.5 55.1,99.2 55,100.5 55.6,100.5 56,97.2 55.4,97.2 55.2,98.4 50,97.8 56.3,95.7 50.4,92 55.9,92.7 55.8,93.9 56.4,94 
		56.8,90.2 56.2,90.2 56.1,91.4 	"/>
	<path id="path92" class="st1" d="M52.6,80.6l0.4-1.1c0.3-0.8,0.9-1,1.7-0.7s1.1,1,0.8,1.8l-0.4,1C55.1,81.6,52.6,80.6,52.6,80.6z
		 M55.7,81.8l0.4-1.1c0.4-1,1.1-1.3,2-1s1.1,1,0.7,2.1l-0.4,1.1L55.7,81.8z M59.7,81.4c0.6-1.5,0.2-2.6-1-3s-2.2,0.1-2.8,1.6
		c0.4-1.1,0.1-2.2-0.8-2.6C54,77,53,77.6,52.5,78.9L51,82.7l0.6,0.2l0.4-1.2l6,2.3l-0.4,1.2l0.6,0.2L59.7,81.4L59.7,81.4z"/>
	<path id="path94" class="st1" d="M59,67.8c0.8-1.1,2.7-1.2,4.2-0.2c1.5,1.1,2.1,2.8,1.3,4c-0.8,1.1-2.7,1.2-4.2,0.1
		C58.8,70.7,58.2,68.9,59,67.8L59,67.8z M65.1,72c1.2-1.7,0.7-4.3-1.1-5.5s-4.3-0.8-5.5,0.9c-1.2,1.7-0.7,4.3,1,5.5
		C61.3,74.2,63.9,73.7,65.1,72L65.1,72z"/>
	<polygon id="polygon96" class="st1" points="73.6,61 71.6,62.9 67.2,58.4 68.1,57.5 67.7,57 65,59.6 65.4,60.1 66.3,59.2 
		70.8,63.8 69.9,64.7 70.3,65.1 74.5,61 73.4,59.8 72.9,60.3 	"/>
	<path id="path98" class="st1" d="M79.1,56.9l-3.4-5.4l1.1-0.7c1.3-0.8,3-0.3,4,1.3c1,1.5,0.7,3.3-0.6,4.1
		C80.2,56.2,79.1,56.9,79.1,56.9z M77.3,58.8l3.3-2.1c1.9-1.2,2.5-3.5,1.4-5.4c-1.1-1.8-3.5-2.3-5.4-1.1l-3.3,2.1l0.3,0.5l1.1-0.7
		l3.4,5.5L77,58.3L77.3,58.8z"/>
	<polygon id="polygon100" class="st1" points="89.1,45 91.4,44.2 91.7,45.1 92.3,44.9 91.7,43.1 91.1,43.3 91.2,43.6 85.4,45.6 
		85.3,45.3 84.8,45.5 85.4,47.3 86,47.1 85.7,46.2 87.9,45.4 90,51.5 88.7,52 88.9,52.5 92.8,51.2 92.6,50.6 91.2,51.1 	"/>
	<polygon id="polygon102" class="st1" points="97.3,46.7 100.5,46.2 100.2,44.9 97.1,45.5 	"/>
	<path id="path104" class="st1" d="M113.4,41.3l-3.3-0.1v0.7h1.2l-0.1,4.2c0,1.3-0.9,2.3-2.2,2.3c-1.2,0-2-1-2-2.3l0.1-4.2h1.3v-0.7
		l-3.8-0.1v0.7h1.3l-0.1,4.5c0,1.6,1.2,2.7,3,2.8c1.9,0,3.2-1.2,3.2-3l0.1-4.2h1.2L113.4,41.3L113.4,41.3z"/>
	<polygon id="polygon106" class="st1" points="128.4,44.3 125.2,43.5 125,44.1 126.2,44.4 125,49 121.9,42.6 119.8,42 119.6,42.7 
		120.8,43 121,43.5 119.4,49.2 118.2,48.9 118.1,49.5 121.3,50.4 121.4,49.8 120.2,49.5 121.5,44.7 124.7,51.4 125.2,51.6 127,44.7 
		128.2,45 	"/>
	<polygon id="polygon108" class="st1" points="136.3,48.7 137.4,49.3 137.7,48.7 134.4,47 134.1,47.5 135.2,48.1 132.2,53.8 
		131.1,53.2 130.8,53.7 134.1,55.5 134.4,55 133.3,54.4 	"/>
	<polygon id="polygon110" class="st1" points="147.7,55.5 145.8,54.1 145.4,54.6 146.2,55.2 141.4,58 142.8,52.6 143.6,53.2 
		144,52.7 141.5,50.8 141.1,51.3 141.7,51.8 139.8,59.3 140.1,59.6 146.8,55.6 147.3,56 	"/>
	<polygon id="polygon112" class="st1" points="150,67.9 148.1,65.8 150.3,63.8 151.7,65.4 151.1,66 151.5,66.4 153.2,64.9 
		152.8,64.5 152.2,65 150.7,63.4 152.8,61.5 154.6,63.6 154,64.2 154.4,64.6 155.8,63.4 155.4,62.9 155.1,63.1 151.6,59.2 
		151.2,59.7 152,60.6 147.2,64.9 146.4,64 145.9,64.4 149.9,68.8 151.1,67.8 150.6,67.3 	"/>
	<path id="path114" class="st1" d="M158.4,83.6c-0.1,0.7-0.1,1.4,0.1,2c0.4,1.3,1.6,2,2.8,1.6c1-0.3,1.4-0.9,1.7-2.5
		c0.1-0.4,0.2-0.8,0.3-1.3c0.1-0.6,0.3-0.9,0.7-1c0.6-0.2,1.2,0.1,1.5,0.9c0.1,0.4,0.2,0.7,0,1.5l-0.8,0.2l0.2,0.6l1.9-0.6l-0.2-0.6
		l-0.4,0.1c0.1-0.5,0.1-1-0.1-1.6c-0.4-1.3-1.6-2-2.8-1.6c-0.9,0.3-1.3,1-1.6,2.6c-0.2,1.5-0.5,2.1-1.1,2.3c-0.6,0.2-1.2-0.2-1.5-1
		c-0.2-0.5-0.2-1,0-1.8l0.8-0.3l-0.2-0.6l-2,0.6l0.2,0.6L158.4,83.6C158.4,83.6,158.4,83.6,158.4,83.6z"/>
	<polygon id="polygon116" class="st1" points="167.6,93.9 167.8,95.1 168.5,95 167.9,91.3 167.3,91.4 167.4,92.6 161.1,93.5 
		160.9,92.3 160.3,92.3 160.9,96.1 161.5,96 161.3,94.7 	"/>
	<polygon id="polygon118" class="st1" points="168,104.5 168,106.9 167,106.9 167,107.5 168.9,107.5 169,106.9 168.6,106.9 
		168.8,100.8 169.2,100.8 169.2,100.2 167.3,100.2 167.2,100.8 168.2,100.8 168.1,103.2 161.7,103 161.7,101.6 161.1,101.6 
		161,105.6 161.6,105.7 161.7,104.2 	"/>
	<path id="path120" class="st1" d="M162.9,113.3l2.5,1.9l-3.1,0.5L162.9,113.3z M169.2,115.9c0.5,0.1,1-0.2,1.1-0.6
		c0.1-0.5-0.2-1-0.7-1.1s-0.9,0.2-1.1,0.7C168.4,115.3,168.7,115.8,169.2,115.9L169.2,115.9z M168.4,118.8c0.5,0.1,1-0.2,1.1-0.6
		c0.1-0.5-0.2-1-0.7-1.1s-0.9,0.2-1.1,0.7C167.7,118.2,168,118.6,168.4,118.8L168.4,118.8z M159.2,118.1l0.2-0.7l7.8-1.2l0.1-0.4
		l-6.3-4.9l0.2-0.6l-0.6-0.1l-0.6,2.3l0.6,0.1l0.2-0.9l1.6,1.2l-0.7,2.9l-1.9,0.3l0.2-0.7l-0.6-0.1l-0.7,2.7L159.2,118.1
		L159.2,118.1z"/>
	<polygon id="polygon122" class="st1" points="162.1,127.5 161.1,129.7 160.3,129.4 160,129.9 161.7,130.7 162,130.2 161.7,130 
		164.3,124.5 164.6,124.6 164.8,124.1 163.1,123.3 162.8,123.8 163.7,124.2 162.7,126.4 156.9,123.7 157.5,122.4 156.9,122.2 
		155.2,125.9 155.7,126.1 156.3,124.8 	"/>
	<path id="path124" class="st1" d="M160.1,71.6l0.6,1c0.4,0.8,0.2,1.4-0.6,1.9c-0.8,0.4-1.6,0.3-2-0.4l-0.6-1L160.1,71.6z M157,79.1
		l-0.2-0.4c-0.2-0.3-0.2-0.7,0.1-1.1l1.2-2.5c0.7,0.9,1.8,1.1,2.7,0.5c1.2-0.7,1.4-1.8,0.6-3.2l-1.9-3.4l-0.6,0.3l0.6,1.1l-5.6,3.1
		l-0.6-1.1l-0.5,0.3l1.8,3.3l0.5-0.3l-0.6-1.1l2.4-1.3l0.4,0.7l-1.5,2.9c-0.3,0.7-0.3,0.8,0,1.5l0.6,1.1L157,79.1z"/>
	<path id="path126" class="st1" d="M121.7,76.8c-0.1,0-1.5-0.7-1.8-0.7c-0.1,0-0.8-0.5-1.4-0.9s-0.9-0.6-1-0.7
		c-0.1,0-0.8-0.4-1.1-0.5l-1.7-1.1l-1.7-1.2c0,0-0.3-0.3-0.7-0.3c0,0-1-0.4-2.3-0.2c-0.8,0.1-2.8,0.4-2.8,0.4c-0.1,0-2,0.4-2.1,0.5
		c0,0-1.6,1-2.1,1.3l0,0l-0.2,1.1l0.1-0.1c0,0,1.4-1.3,2.6-1.7c0,0,2.7-0.6,4.6-0.6c0,0,1.9,0,3.3,1.1l1.2,1l1.8,1
		c0,0,1.4,1.1,4.4,2.3c0,0,1.6,0.6,2.5,1.5l0.1,0.1V79C123.9,78,121.8,76.9,121.7,76.8L121.7,76.8z"/>
	<path id="path128" class="st1" d="M129.3,85.6l-0.3-1.8l-0.2-1.1l-0.4-1.2c-0.4-1.5-1.1-2.6-1.9-3.6c0,0-0.3-0.7-1.4-1.7
		c-0.1-0.1-0.2-0.2-0.3-0.3c-0.4-0.4-1-1-1.8-1.4c-0.2-0.1-1.9-1.2-2-1.2c0,0-0.1-0.1-0.3-0.1c-0.4-0.1-0.9-0.3-1-0.4
		c-0.4-0.1-0.8-0.2-1.1-0.2l0.2-0.1h-0.5l0,0l-0.1,0.1c0,0.1,0.1,0.2,0.9,0.4c0.2,0.1,1.8,0.6,1.8,0.7c0,0,2,1.2,2.3,1.4
		c0,0,1.6,1.2,2.6,2.7c0,0,1.3,1.7,2.1,4.7l0.9,2.6l1,1.8L129.3,85.6z"/>
	<path id="path130" class="st1" d="M132.2,93.2c-0.1-0.7-0.2-1.6-0.3-2.1c-0.1-0.8-0.6-2.1-1-2.8c-0.4-0.6-1.2-1.2-1.3-1.3l-0.2-0.1
		l0.7,1.6c0,0,0.8,1.7,1.3,5.7l-0.3,3.6l-0.4,1.3c-0.1,1.2-0.1,1.2-0.1,1.2l0,0l0,0c0,0,0.8-0.8,1-1.7c0-0.1,0.3-1.5,0.3-1.8
		c0,0,0.3-2.1,0.2-2.8C132.3,93.9,132.2,93.6,132.2,93.2L132.2,93.2z"/>
	<path id="path132" class="st1" d="M137.4,117.3c-0.3-0.2-0.6-0.5-1-1c-0.9-0.9-1.8-1.6-2.8-2.1c-0.1-0.1-0.2-0.1-0.3-0.2
		c-1-0.5-1.9-1-2.2-1.7c-0.1-0.4,0-0.6,0.1-0.9c0.2-0.4,0.4-0.8,0.2-1.5c-0.2-0.8-0.4-1.5-0.5-1.9c0.4-0.2,0.6-0.4,0.7-0.4
		c0.1-0.1,0.3-0.2,0.4-0.4c0.1,0.2,0.3,0.5,0.3,0.6l0,0c0,0,0.8,0.7,0.9,1.2c-0.1,0.2-0.8,2.1-0.8,2.1c-0.2,0.7-0.2,1.2,0.1,1.5
		c0.2,0.2,0.4,0.2,0.8,0.2l4.4,0.3c0.8,1.2,0.8,2.2,0.7,2.7l0,0c0,0.1,0,0.2-0.6,1C137.6,116.9,137.5,117.1,137.4,117.3L137.4,117.3
		z M105,109.8c0-0.1,0-0.1,0-0.2s0.6-0.3,1.1-0.3c5.2-0.9,6-2.3,6.3-2.8c0-0.1,0.1-0.1,0.1-0.1c0.9-1.6,2.5-6.2,2.6-6.4
		c0.1-0.1,0.6-0.6,1-0.8c0.5-0.2,1,0.4,1.1,0.4l0,0c0.2,0.1,1.3,1,1.3,1c0.4,0.3,1.3,0.5,1.3,0.5c0.3,0.1,1.1,0.4,1.5,0.5
		c0.2,0.1,0.3,0.1,0.4,0.1s0.8,0.5,0.8,0.6s0.1,0.1,0.1,0.2s0.1,0.3,0.1,0.4l-0.3,0.3l-4.4,3.2c-3.5,2.7-8.1,8.5-8.1,8.6l-2.6,3.2
		l-0.3,0.5l-0.3-1.8l-1.1-5C105.2,110.4,105,110,105,109.8L105,109.8z M99.4,109c-0.1,0-0.2,0-0.3,0c-1.5,0-2.4-0.4-2.9-1.1
		c-0.7-1.1,0-2.7,0-2.8l0.5-1.1c0.1-0.2,0.2-0.2,0.4-0.1c0.1,0,0.1,0,0.2,0c0,0,0,0,0.1,0c0.2,0,0.3,0,0.4-0.2
		c0.1-0.2-0.2-0.6-0.2-0.6c-0.2-0.2-0.4-0.5-0.4-0.9c0-0.2,0.1-0.4,0.3-0.6l0,0l0,0v-0.1c-0.1-0.1-0.3-0.1-0.3,0l0,0
		c-0.6,0.4-0.9,0.1-0.9,0.1c-0.1-0.2-0.2-0.3-0.1-0.5c0.1-0.2,0.3-0.4,0.3-0.4l0,0c0,0,0.3-0.3,1.5,0c0.3,0.1,1,0,1,0
		c0.5-0.1,0.5-0.5,0.5-0.5l0,0l0,0c-0.3-0.2-0.4-0.3-0.5-0.4s-0.1-0.1-0.3-0.2c-0.1,0-0.1,0-0.2,0.1c-0.2,0.2-0.4,0.5-1.1,0
		c-0.5-0.5-0.7-0.5-0.8-0.5s-0.2,0-0.3,0c-0.3,0-0.4,0-0.5-0.5l-0.1-2.4v-0.7l1,0.1c0.5,0.2,0.9,0.2,1,0.2l0,0
		c0.1,0,0.4-0.1,0.6-0.3c0.2-0.2,0.4-0.5,0.1-1.1l-0.1-0.1l-0.1,0.1c-0.3,0.6-1.5,0.5-1.7,0.5c-1.1-0.8-2.5-0.4-2.5-0.4
		c-0.5,0.1-0.9,0-1-0.2c-0.3-0.4,0.1-1,0.1-1l1.8-2.8c0,0,2-2.7,3-4.5l0,0c0.2-1.8,0.5-2.5,0.6-2.6c0.7-0.8,1-1.5,1-1.7
		c1-3.4,1.2-4.1,1.2-4.1c0.1-0.5,0.8-1.7,1.6-1.8c0.1,0,0.2,0,0.3,0c0.5-0.1,1.3-0.2,1.6-0.1c0.1,0,0.2,0,0.3,0
		c0.5,0.1,1.3,0.2,2.5,0.7c1.2,0.3,0.4,3.3,0.4,3.3l-1.7,3.7c-0.2,0.3,0.5,0.9,0.5,0.9c0.1,0.1,1,1.2,1,1.3c0,0,0.8,0.7,0.7,2.1
		c0.1,0.9-0.1,1.2-0.3,1.6c-0.1,0.2-0.2,0.3-0.3,0.5l0,0c0,0.8,0.3,2.2,0.4,2.3c0,0,0,0,0,0.1c-0.4,0.3-1,0.7-2.1,1.1
		c-0.2,0.1-0.5,0.2-0.8,0.3c-1.4,0.5-1.9,0.7-1.9,0.9v0.1c0.1,0.1,0.3,0.1,0.6,0.1c0.3,0,0.6,0,0.7-0.1c0.4-0.1,1.4-0.4,1.8-0.6
		c0.3-0.1,1.3-0.5,1.8-0.8c0.1,0.4,0.2,0.8,0.2,1.1c-0.2,0.1-0.4,0.2-0.6,0.3c-0.3,0.2-0.8,0.4-1.2,0.6c-0.2,0.1-0.3,0.2-0.4,0.2
		c-0.2,0.1-0.9,0.5-0.9,0.6v0.1c0.1,0.1,0.4,0.2,0.5,0.2l0,0c0.1,0,0.6-0.2,1.2-0.5c0.2-0.1,0.4-0.2,0.5-0.2
		c0.3-0.1,0.7-0.3,0.9-0.4v0.1c0.2,2.3,0.3,2.7,0.3,2.8c0.2,0.2,1.5,0.2,4,0c1.1,0.5,1.3,1.3,1.3,1.7l-0.2,0.7c-0.4,0.9-1.9,5-1.9,5
		c0,0.1-0.1,0.2-0.1,0.3c-0.2,0.5-0.5,1.2-1.7,1.4c-1.2,0.5-2,0.7-3.4,0.9c-2.4,0.5-4.1,0.6-4.2,0.6L99.4,109z M90.3,73.7
		c0.4,0,0.8,0.2,1.3,0.5c0.3,0.2,0.7,0.7,1,0.9c-0.7,0.5-1.3,1-1.5,1.2c-0.1,0.1-0.3,0.3-0.5,0.5c-1.8-0.3-2.8,0.5-3.1,0.8
		c-0.9,1-2,1-2.6,0.7c0.3-0.3,0.8-0.6,1-0.8c0.5-0.4,0.9-1,1.4-1.7s2.1-1.8,2.2-1.8L90.3,73.7z M97.4,74.1c-0.2,0.1-0.4,0.2-0.6,0.3
		l-0.1-0.1c-0.8-0.6-1.9-0.4-2.5-0.2c-0.2,0.1-0.5,0.2-0.8,0.5c-0.1,0-0.3,0-0.4-0.2l-0.1-0.1c-0.4-0.4-0.8-0.8-0.9-0.9
		c-0.4-0.2-0.8-0.4-1.1-0.5l0.1-0.2l0.3-0.4c0,0,0.5-0.7,0.9-1h0.1c0.3-0.2,0.7-0.3,1-0.3l0,0l1.8,0.1c0,0,1.2,0,1.4,1l0.6,1.7
		C97.2,73.8,97.2,73.9,97.4,74.1C97.4,74.1,97.4,74.1,97.4,74.1z M100.8,75.2l-0.8,1.3c0,0-0.1,0.2-0.2,0.4c-0.1,0-0.3,0-0.5-0.1
		c-0.3-0.1-1.1-0.9-1.7-1.5c-0.1-0.1-0.1-0.1-0.2-0.2c0.1-0.1,0.3-0.1,0.5-0.2c0.1,0,0.1,0,0.2,0c0.4,0.3,1.1,0.5,2,0.3
		c0,0,0.6-0.1,0.9-0.1C100.9,75.1,100.8,75.2,100.8,75.2L100.8,75.2z M136.8,112L136.8,112c-0.1,0-0.1,0-0.2,0l0,0
		c-2.4,0.5-3.2,0.2-3.4-0.2c-0.2-0.2-0.1-0.5,0-0.7c0.1,0,0.2-0.1,0.7-1.8c0.2-0.5-0.3-1.2-0.4-1.3c-0.1-0.2-0.9-1.1-1.2-1.4
		l0.1-0.1l0,0c0.3,0,1.1-0.2,1.1-0.2c1.7-0.2,3.2-0.2,3.6,2.1C137.1,108.7,136.7,110.4,136.8,112L136.8,112z M114,98.7L114,98.7
		c-0.2-0.3-0.3-0.7-0.3-0.8s0-0.2-0.1-0.3l0,0h-0.1c0,0-0.6-0.5-0.6-1.1c0-0.3-0.1-0.6-0.1-1c-0.1-0.5-0.2-1-0.1-1.1
		s0.3-0.3,0.5-0.4c0.2,0.2,0.4,0.4,0.5,0.5c0,0.1,0.1,0.1,0.1,0.2c0.3,0.4,0.5,0.8,1.1,0.8h0.1c0.5,0,0.8,0.1,1.2,0.2
		c-0.3,0-0.7,0.1-0.8,0.2c-0.3,0.3-0.6,0.7-0.7,1.2c0,0.3,0,0.7,0.1,1.1v0.1c0,0.1,0.1,0.2,0.2,0.4c-0.2,0.2-0.4,0.3-0.6,0.5
		C114.1,98.9,114.1,98.7,114,98.7L114,98.7z M111.2,96l-0.1-0.2c-0.2-0.6-0.4-1.3-0.4-1.8c0-0.4,0-0.9-0.1-1.2
		c0.2,0.1,0.4,0.2,0.6,0.3c0.2,0.1,0.4,0.3,0.6,0.3c0.1,0,0.2,0.1,0.3,0.1h0.1c-0.1,0.2-0.1,0.3-0.2,0.4c-0.1,0.3-0.1,0.8-0.1,1.2
		c0,0.4,0.1,1.1,0.2,1.4c0.1,0.2,0.2,0.6,0.2,0.9c-0.4,0-0.8,0.1-1.1,0.1C111.4,97.2,111.3,96.5,111.2,96z M109.1,91.8
		c0.3,0.1,0.5,0.3,0.7,0.6l0.1,0.1c0.1,0.7,0.2,1.9,0.3,2.4c0.1,0.3,0.2,0.5,0.3,0.7c0.1,0.3,0.2,0.6,0.2,0.9s0,0.8,0,1.2
		c-1.2,0-1.3-0.1-1.4-0.1c-0.2-0.2-0.6-3-0.8-4.7l-0.3-1.4C108.5,91.5,108.8,91.7,109.1,91.8L109.1,91.8z M108.5,88.7
		c0.1-0.5,0.1-1,0.1-1.5c0.3-0.3,0.6-0.7,1-0.7c0.7-0.2,1.5,0,2.1,0.1c0.6,0.2,1.6,0.4,2.1,1.1c0.1,0.2,0.3,0.4,0.4,0.6
		c0.2,0.4,0.5,0.8,0.9,1c0.3,0.1,1,0.3,1.4,0.4c0.1,0,0.2,0.1,0.3,0.1c0.4,0.1,0.7,0.3,0.9,0.5l0,0c0.1,0.4,0.5,1.6,0.5,2.8
		c0,0.2-0.1,0.9-0.4,1.6c0,0.1-0.1,0.1-0.1,0.2c-0.1,0.2-0.1,0.3-0.2,0.3c0,0-0.1,0-0.2,0c-0.2-0.1-0.3-0.1-0.4-0.2
		c-0.2-0.1-0.3-0.1-0.5-0.2c-0.4-0.1-0.9-0.1-0.9-0.1s-0.9,0.2-1.3-0.3c-0.2-0.2-0.2-0.5-0.3-0.7c-0.1-0.3-0.2-0.6-0.4-0.6
		c-0.1,0-0.2-0.1-0.2-0.1l0.1-0.1c0.3-0.5,0.4-0.7,0.5-1.1s0-1.2-0.1-1.5c-0.2-0.6-0.6-1.3-0.7-1.5c-0.2-0.3-1.5-0.8-1.8-0.8l0,0
		c-0.1,0-0.1,0.1-0.1,0.1c0,0.2,0.8,0.7,0.9,0.8c0.5,0.3,0.9,1.1,1.1,1.6c0.1,0.4-0.2,1.5-0.3,1.7c-0.2,0.1-1.1,0.4-1.6,0.2
		c-0.3-0.1-0.6-0.2-0.8-0.4c-0.2-0.1-0.4-0.2-0.7-0.4c-0.4-0.2-1.1-1-1.5-1.4C108.1,89.3,108.5,88.7,108.5,88.7z M109.6,83.7
		c0.7,0.5,1.5,1.3,1.8,1.6l0.1,0.1c0.1,0.1,0.2,0.2,0.2,0.4c-0.6-0.1-1.2-0.2-1.5-0.2c-0.4,0-1.1,0.2-1.6,0.6
		c-0.1,0-0.1,0.1-0.1,0.1c-0.4-1-1.3-1.9-1.3-2c-0.6-0.6-0.5-0.9-0.5-0.9c0.1-0.2,0.2-0.5,0.3-0.7C107.6,82.8,108.7,83,109.6,83.7z
		 M122.6,94.3c-0.1,0.5-0.3,1.3-0.5,1.7c-0.3,0.6-0.7,0.8-1.1,1c-0.2,0.1-0.6,0.1-0.8,0.1c-0.1-0.2-0.4-0.4-0.7-0.5
		c-0.2-0.1-0.4-0.2-0.5-0.3c-0.2-0.2-0.6-0.4-0.9-0.6c0.4-0.3,0.7-0.9,0.8-1.3c0.1-0.7,0.2-1.1,0.1-1.7v-0.1c0-0.5,0-0.9-0.1-1.2
		c0.3-0.3,0.9-0.8,1.9-0.6c0.8,0.2,1.5,1.9,1.8,2.8C122.7,93.7,122.7,94,122.6,94.3L122.6,94.3z M116.9,88.6
		c-0.5,0.1-1.2,0.2-1.5-0.1c-0.2-0.2-0.5-0.5-0.7-0.8s-0.4-0.5-0.5-0.7c-0.3-0.3-0.7-0.5-1.1-0.7c-0.1-0.3-0.6-1.1-0.9-1.3
		c-0.7-0.6-1.2-1-1.6-1.3c-0.2-0.1-0.4-0.3-0.6-0.4c-1.1-0.9-2.3-1.4-2.8-1.5c0.2-0.7,0.4-1.2,0.5-1.6c0.3,0.1,0.7,0.1,1.1,0.1
		c1,0.1,2.2,0.1,3.2,0.9c0.1,0.1,0.2,0.6,0.2,1.1c0.1,0.7,0.2,1.5,0.5,1.6c0.3,0.2,0.7,0.3,1.1,0.5c0.8,0.3,1.7,0.7,2.3,1.4
		C116.9,86.6,116.9,88.1,116.9,88.6z M119,100.1c-0.6-0.3-1-0.7-1.2-0.8l-0.1-0.1c-1-0.8-1.5-0.9-1.5-1c-0.1,0-0.1,0-0.2,0l0,0
		c-0.3-0.3-0.7-0.8-0.6-1.1c0.1-0.4,0.3-0.7,0.5-0.8c0.2-0.1,0.9-0.1,1.4-0.1l0,0c0.4,0.2,1.2,0.7,1.2,0.7c0.5,0.3,0.8,0.7,1,1.2
		c0.2,0.7-0.1,1.7-0.2,2C119.2,100.1,119.1,100.1,119,100.1L119,100.1z M124,103.5c-0.1-0.2-0.3-0.6-0.5-1c-0.2-0.3-0.7-0.8-1.5-1.5
		c-0.1-0.1-0.5-0.2-1-0.4c0-0.1,0-0.2-0.1-0.2l-0.1-0.1c-0.2-0.2-0.2-0.2-0.1-0.7v-0.2c0-0.5,0-0.6,0-0.7s0-0.1,0-0.2s0-0.3-0.1-0.5
		c0.2,0,0.3-0.1,0.6-0.1c0.5-0.1,1.2-0.6,1.7-1.3c0.2-0.2,0.4-0.8,0.5-1.4c0.3-0.1,0.8-0.2,1.1-0.1c0.5,0.2,1.7,0.8,1.9,1.2
		c0.1,0.2,0.3,0.7,0.4,1.1c0,0.1,0.1,0.3,0.1,0.4l-2,0.2l-1.3,0.3l-1.4,0.6l0.4,0.4l0,0l0,0c0.1,0,1.4-0.2,1.5-0.2
		c2-0.6,3.2-0.2,3.3-0.2l0,0c0,0,0.1,0,0.1,0.1s0.1,0.2,0.1,0.2c0.3,0.4,0.5,0.8,0.5,1s-0.2,0.9-0.6,1.5c-0.2,0.1-0.7,0.3-1.1,0.3
		l-0.8-0.1l-0.6-0.1c-0.1,0-0.3-0.1-0.4-0.1c0,0-0.3-0.1-0.5-0.2c-0.5-0.4-0.6-0.4-0.6-0.4s-0.4-0.1-0.7-0.2l-0.7-0.1l0.4,0.5
		l0.4,0.2l0.4,0.1l0.6,0.5l0.6,0.4l0.3,0.2l0.5,0.2l0.9,0.1h1.1c0.4,0.1,0.8,0.2,0.8,0.3l0.1,0.3c-0.1,0-0.1,0-0.2,0.1
		c0,0-1.1,0.7-3.1,0.7c-0.1,0-0.3,0-0.4,0L124,103.5L124,103.5L124,103.5z M129,92.8c-0.1,0.3-0.2,0.6-0.3,0.8
		c-0.2-0.3-0.4-0.5-0.5-0.7s-0.1-0.4-0.2-0.6c-0.2-0.6-0.3-1.3-1.2-2c-0.6-0.4-1.5-0.7-2.3-0.9c-0.8-0.2-1.6-0.5-2.1-0.8
		c-0.4-0.2-0.6-1.1-0.9-2c-0.2-0.6-0.3-1.2-0.5-1.6c-0.4-0.9-1.3-1.1-2.1-1.2c-0.2,0-0.4-0.1-0.5-0.1c-0.7-0.2-2.3-1.4-3.3-3.7
		c-1-2.3-2.1-2.5-2.7-2.6h-0.1c-0.4-0.1-1.8,0-2.8,0.1c-0.4,0-0.7,0.1-0.8,0.1c-0.1,0-0.3-0.1-0.5-0.2c0.1-0.5,0.4-1.2,1-1.2
		c1,0,2.7,0,4.5,1.1c0.4,0.3,0.9,0.6,1.5,0.9c1.7,1,3.7,2.3,5.2,2.7h0.1c1.8,0.5,2.6,0.7,2.8,1.5c0.1,0.3,0.1,0.7,0.2,1.2
		c0.1,1.1,0.3,2.4,0.8,3.2c0.4,0.5,1.1,1,1.8,1.5c0.8,0.5,1.6,1,2,1.7C128.9,91.1,129.1,92.2,129,92.8z M129.5,115.9v-0.2h0.1
		l1.2,0.9l1,1c0,0,0.5,0.5,0.5,1v0.7h-0.2l-1.4-0.1l0,0l0,0c0,0-0.1,0.1-0.3,0l0,0l0,0c-0.1,0-0.7-0.1-0.9-0.7l0.1-1.1l0.1-0.5l0,0
		L129.5,115.9z M136.5,118.7L136.5,118.7c-0.1,0.5-0.2,0.9-0.2,1.2c-0.3-0.3-0.8-0.6-1.4-0.6c-0.1,0-0.6-0.1-0.9-0.1h-0.9
		c-0.1-0.5-0.4-2.1-1.2-3c-0.6-0.6-1-0.9-1.4-1.2c-0.2-0.1-0.4-0.3-0.6-0.5c-0.6-0.5-1.6-1.3-1.6-1.3c-0.5-0.6-0.5-1,0.1-2.1
		c0.3-0.3,0.4-2.2,0.5-2.8c0.4-0.1,0.7-0.1,1-0.2c0,0.3,0,1.1,0.2,1.9c0.1,0.6-0.1,1.2-0.2,1.7c-0.1,0.3-0.2,0.6-0.1,0.7
		c0.1,0.3,1.3,1.4,1.8,1.7c0.1,0,0.2,0.1,0.4,0.2c0.6,0.3,1.7,0.8,2.1,1.1c0.3,0.2,0.8,0.7,1.3,1.2c0.3,0.3,0.6,0.6,0.8,0.8
		c0.2,0.1,0.4,0.5,0.6,0.7C136.6,118.5,136.6,118.7,136.5,118.7L136.5,118.7z M131.7,105.1L131.7,105.1l-0.2,0.7
		c0,0.1-0.1,0.2-0.1,0.2s0,0,0,0.1l-0.1,0.3c-0.2,0.7-3.3,1.4-4.6,1.6H126h-0.6h-0.3c0-0.2,0-0.4,0-0.4L125,107
		c0.1-0.1,0.2-0.1,0.2-0.1c1.8,0,3.4-0.7,3.4-0.7c0.1,0,1-0.4,1.4-0.6c0.3-0.1,0.7-0.5,0.7-0.8c0-0.1,0-0.1,0-0.1
		c-0.1,0-0.2,0-0.4,0c-0.8,0.3-3.4,1.2-3.5,1.3l-0.6,0.1h-0.9c-0.3,0-0.5-0.5-0.6-0.9c0.1-0.1,0.3-0.3,1.2-0.3c0.1,0,0.3,0,0.4,0
		l0,0c0,0,2.8-0.5,4.4-1.7c0.1,0,0.4-0.1,0.7,0c0,0.2,0.1,0.4,0.1,0.4C131.8,104.6,131.7,105.1,131.7,105.1L131.7,105.1z
		 M133.7,96.5c-0.2,3.4-1.7,4.7-2.1,5l0,0l0,0c-0.1,0.1-0.2,0.1-0.3,0.2c-0.3,0.3-0.7,0.6-1.2,0.9c-0.1,0-0.2,0.1-0.3,0.1
		c-0.1,0-0.2,0.1-0.3,0.1c-0.3-0.1-0.7-0.3-0.9-0.6c0.2-0.4,0.6-1.3,0.4-1.9c-0.2-0.5-0.5-0.8-0.6-1.1c-0.1-0.1-0.1-0.2-0.2-0.3
		c-0.1-0.1-0.1-0.4-0.1-0.8c-0.1-0.7-0.2-1.5-0.4-1.9c-0.6-0.8-1.7-1.6-2.2-1.9c-0.3-0.1-0.7-0.1-1.1-0.1c-0.2,0-0.5,0-0.6,0
		c0-0.9-0.9-3.3-1.7-4.1c-0.2-0.2-1.3-0.4-1.7-0.3c-0.4,0.1-1.4,0.2-1.7-0.2l-0.1-0.1c0-0.1-0.1-0.1-0.1-0.2s-0.1-0.1-0.1-0.2V89
		c0-0.1-1-3-1.3-3.9c-0.4-0.8-1-1-1.6-1.2s-1.5-0.5-1.9-0.8c-0.2-0.1-0.3-0.6-0.3-1.1c-0.1-0.7-0.2-1.5-0.7-1.9
		c-0.8-0.7-3.8-1-3.9-1s-0.3,0-0.5,0c0-0.1,0-0.2,0-0.2l0.1-0.9c0.3,0.1,0.7,0.1,1.1,0c0.6-0.1,1.8-0.3,2.7-0.2c0.6,0,1,0.5,1.5,1
		c0.1,0.1,0.3,0.3,0.4,0.5c0.3,0.3,0.6,0.9,0.9,1.5c0.4,0.8,0.9,1.7,1.6,2.3c0.9,0.8,2.3,1.4,3.1,1.8c0.2,0.1,0.4,0.2,0.5,0.2
		c0.3,0.1,0.3,0.3,0.4,0.8c0.1,0.3,0.1,0.6,0.3,1.1c0.5,1.4,1.2,2,1.9,2.4c0.4,0.3,1.3,0.6,2.1,0.9c0.8,0.3,1.7,0.6,2,0.8
		c0.3,0.2,0.4,0.7,0.5,1.2c0.1,0.4,0.1,0.8,0.3,1.1c0.3,0.4,1,1,1.6,1.5c0.4,0.3,0.7,0.6,0.9,0.8c0.3,0.3,0.5,0.8,0.6,1.1
		c0.1,0.3,0.1,0.4,0.2,0.4l0,0h0.1c0.2-0.2,0.1-0.8-0.1-1.6c-0.1-0.3-0.5-0.7-1.1-1.2c-0.1-0.1-0.2-0.2-0.3-0.3
		c0.3-0.3,0.6-0.8,0.6-1.4c0.1-1-0.3-2.4-0.8-3.1s-1.1-1.5-2.1-1.8c-0.2-0.1-0.4-0.1-0.5-0.2c-0.4-0.1-0.5-0.2-0.9-0.5
		c-0.5-0.5-1-2.8-1.1-4.5c-0.1-1.2-0.6-1.7-1.4-2c-0.4-0.2-1.2-0.4-2.1-0.6c-0.7-0.2-1.4-0.4-2-0.6c-0.8-0.3-2.4-1.4-3.6-2.2
		c-0.6-0.4-1.1-0.8-1.4-0.9c-0.9-0.5-4.7-1.2-5.5-0.9c-0.4,0.2-0.6,0.4-0.7,0.7c-0.1-0.2-0.3-0.3-0.3-0.3c-0.3-0.2-1-0.5-1.1-0.5
		s-0.1,0-0.2,0c0.2-0.2,0.5-0.4,0.9-0.6c0.6-0.3,1.8-0.5,2.7-0.5c1,0,1.4-0.2,1.4-0.2h0.1l-0.1-0.1c0,0-0.4-0.2-1-0.3
		c-0.4-0.1-1.3,0-2.1,0.1c-0.4,0-0.8,0.1-0.9,0.1c-0.5,0-1.9,1.1-2.1,1.2c-0.4-0.1-0.8-0.1-1-0.1c0,0,0,0-0.1,0
		c-0.4,0-1.2,0.1-1.3,0.1c-0.4,0.1-0.8,0.2-0.8,0.3c-0.2-0.3-0.3-0.7-0.3-1.1s0.2-0.8,0.4-1l0,0c0.4-0.5,1.4-1.2,1.4-1.2
		c0.3-0.2,3.2-1.5,6.3-1.6c2.8-0.1,5.4,0,7.9,0.3c1.9,0.2,7.1,2.5,7.1,2.5c1.6,0.8,2.8,2.6,2.8,2.6c1,1,3.1,5.9,3.1,5.9
		c1.3,4.4,1.5,5.1,1.6,5.3l0,0C132.4,87.1,133.5,90.6,133.7,96.5L133.7,96.5z M81.6,107.7c0.1-0.1,0.3-0.3,0.6-0.2
		c0.1,0.1,0.5,0.4,0.7,0.4c0,0,0.3,0,0.9,0c0.2,0,0.3-0.1,0.3-0.1c0.1-0.1,0-0.3,0-0.4s-0.1-0.1-0.2-0.1l0,0c-0.2,0-0.7,0-0.7,0l0,0
		l0,0c0,0,0,0-0.1,0s-0.2-0.1-0.5-0.5c-0.1-0.1-0.2-0.2-0.4-0.2c-0.1,0-0.2,0-0.4-0.1h-0.2c-0.1,0-0.2,0-0.2-0.1
		c-0.1-0.1,0-0.3,0-0.3l0.1-0.5c0-0.1,0.3-1.3,0-1.9c0,0,0.1,0,0.1,0.1l0.8,0.1l1,0.4c0,0,0.5,0.2,1.6-0.5l0,0l0,0
		c-0.1-0.9-0.9-2.1-0.9-2.1v-0.1l-0.2,0.4l0,0c0,0,0.2,0.6,0.3,0.7c0.2,0.5,0.2,0.7,0.2,0.8c0,0.1-0.1,0.1-0.2,0.1l0,0
		c-0.3,0.1-0.9,0.2-1.3-0.3l0,0c0,0-0.6-0.4-1.5-0.5c0,0-1.1,0.1-1.4,0.1c-0.5,0-0.9-0.1-1-0.2c-0.2-0.2-0.2-0.5-0.2-0.8
		c0-0.1,0-0.2,0-0.3c0.1-0.2,0.9-1.7,1.6-2.3l0.4-0.5l1.2-2l0.9-1.2c0,0,1.1-1.1,1.1-2l0.1-1.1l0,0l0,0c0,0-0.1-0.6,0.2-1.3l0.5-1
		l0.5-1.4l0.4-1.4l0.2-1.9v-0.3c0.2-0.3,0.7-1.1,0.8-1.7c0.1-0.7,0.8-1.3,1.4-1.6c0.3-0.2,0.7-0.3,0.9-0.4s0.3-0.1,0.4-0.2l0,0
		c0,0,0.2-0.2,0.1-0.4c0-0.1-0.2-0.2-0.4-0.3l0,0c-0.2,0-0.9,0.4-1.1,0.5c-0.5,0.3-1,0.6-1.3,0.9c-0.2,0.2-0.4,0.5-0.6,0.7
		c-0.1,0.2-0.2,0.4-0.4,0.5l0,0c-0.2,0.2-0.3,0.3-0.5,0.4c-0.7-0.3-1.1-0.7-1.1-1c0,0,0-1.1,0-1.5s0-1.2,0.5-1.9
		c0.1,0.1,0.4,0.2,0.6,0.2c0.1,0,0.1,0,0.2,0c0.9,0,2.2-0.4,2.9-1.2c0.5-0.6,1.4-0.7,2-0.6c-0.1,0.1-0.1,0.1-0.2,0.2
		c-0.2,0.2-0.6,1.5-0.4,1.8c0,0.1,0.1,0.2,0.1,0.3c0.2,0.4,0.3,0.8,0.6,0.8h0.1c0.1-0.1,0-0.3,0-0.7c-0.1-0.5-0.2-1.1,0-1.5
		c0.7-1.2,2.1-2.3,3.2-2.8c1.3-0.6,2.3-0.7,2.9-0.4c0.5,0.3,1,0.9,1.4,1.3c0.2,0.2,0.4,0.4,0.6,0.6c0.3,0.3,0.8,0.4,1.2,0.4
		c-0.1,0.3-0.2,0.6-0.3,1c-0.3,0-0.9,0-1.5,0c-0.5-0.5-2.2-2-3.3-1.5c-1.2,0.5-2.1,1.2-2.4,1.6c-0.2,0.2-0.5,0.7-0.5,1
		c0,0.1,0,0.1,0.1,0.1c0,0,0,0,0.1,0c0.3,0,0.8-0.5,1-0.7c0,0,1.3-1.1,2.2-1.1l0,0c0.7,0,1.6,0.7,1.9,1c-0.1,0.1-0.2,0.1-0.4,0.2
		c-0.8,0.5-1.2,0.9-1.4,1.2c-0.1,0.1-0.1,0.1-0.2,0.2l0,0c-0.6,0.6-1,0.9-1.3,0.9l0,0c-0.3,0-0.9-0.3-1.3-0.5
		c-0.2-0.1-0.4-0.2-0.6-0.2c-0.3-0.1-0.7,0-1.1,0.2c-0.2,0.1-0.5,0.3-0.6,0.6v0.1c0.1,0.1,0.4,0.1,1,0c0.2,0,0.3,0,0.4,0
		c0.2,0,0.8,0.3,1.2,0.5c0.3,0.1,0.5,0.2,0.6,0.3c0.1,0,0.1,0,0.2,0c0.6,0,1.6-0.8,1.7-0.9c0.1-0.1,0.3-0.3,0.4-0.5
		c0.4-0.5,0.9-1.2,1.7-1.6c0.7-0.4,1.3-0.3,1.7-0.2c-0.1,0.3-0.2,0.6-0.3,0.9c0,0.1-0.1,0.2-0.1,0.3c-0.2,0.1-0.4,0.2-0.6,0.5
		c-1.1,1-2.4,1.7-3.2,2.1h-0.1c-0.6,0.4-2.3,0-3-0.2c-0.1,0-0.1,0-0.1,0V83c0.1,0.2,0.6,0.7,1.4,0.9c0,0,0.3,0.1,0.8,0.1
		c0.7,0,1.8-0.1,2.7-0.8l1.7-1.3c0,0.1,0,0.1,0,0.1c-0.1,0.2-0.8,1.8-0.9,2.1c-0.3,1.5-0.8,2.3-0.8,2.3l-4,6.2
		c-0.5,0.9-0.5,1.7-0.4,2.1s0.2,0.6,0.7,0.6c0.2,0,0.5,0,0.7,0s0.4,0,0.6,0c0,0,0,0,0.1,0c0.6,0,0.7,0.5,0.7,0.5c0,0.1,0,1.8,0,2
		s0.1,1.1,0.1,1.1s0,0.6,0.7,0.9c0.1,0.1,0,0.3-0.1,0.5c-0.1,0.1-0.3,1.2-0.2,1.3c0,0,0,0,0,0.1s0.1,0.2,0.3,0.3
		c0.8,0.3,0.8,0.9,0.8,0.9l0,0c0.1,0.2-0.4,1.2-0.7,1.8c-0.5,0.8-0.3,3.1-0.3,3.2c0.3,1.1,2.4,1.6,2.5,1.6c2.1,0.1,3.6,0.3,3.6,0.3
		h0.6c-0.1,0.1-0.1,0.1-0.2,0.2l-3.8,3.2c0,0-4.4,4-7.9,4c-0.1,0-0.1,0-0.2,0c-0.1,0-0.6,0-1.1-0.1c-0.6,0-0.9-0.1-1-0.1
		c0,0-0.1,0-0.2,0c-0.4-0.1-1.5-0.3-2.5-0.3c-2.3,0-3.8-0.9-3.9-2.5c-0.2-1.1,0-1.7,0.1-1.8c0.1-0.1,1.1-1.2,1.1-1.7
		c0,0-0.2-1-0.6-1.3l0,0l0,0c-0.3,0.1-0.5,0-0.6-0.2C81.1,108.8,81.2,108.1,81.6,107.7L81.6,107.7z M121.9,111.9
		c0-0.8,0.5-1.8,0.5-1.9c0.8-0.9,1.5-1,1.5-1c0.4,0,0.6-0.1,0.8-0.3c0.4,0,0.7,0,1,0c-0.3,0.4-2.2,3-0.8,4.8c1,1.3,2,3.2,1.9,3.9
		c0,0.1-0.1,0.2-0.2,0.3l0,0c-0.3,0.4-0.6,0.5-0.9,0.5c-0.4-0.1-0.5-0.6-0.5-0.7l-0.5-1l-0.3-1.1c-0.1-0.3-0.7-1.1-0.7-1.1l-0.3-0.4
		l-0.3-0.3l-0.4-0.5l-0.4-0.3l-0.2-0.2c0,0,0,0-0.1,0C121.9,112.4,121.9,112.1,121.9,111.9z M123.8,121.3l-0.6-0.4
		c0,0-0.1-0.1-0.2-0.3l-0.6-1.4l0,0c0,0-0.8-1-1.4-1.1h-0.1c-0.3,0-0.5,0-0.6,0c0,0,0,0-0.1,0s-0.6,0.2-0.8,0.3h-0.5
		c-0.4-1-0.1-2.1,0.2-2.6c0.1-0.1,0.3-0.3,0.5-0.3c0.3-0.1,0.7,0,1.1,0.3l1.1,1.1l0.7,0.9c0.1,0.2,1.1,1.7,1.4,1.9l0,0h0.1h0.1
		c0.1-0.2-0.2-0.9-0.4-1.3c-0.1-0.1-0.2-0.3-0.3-0.5c-0.4-0.7-0.9-1.6-1.5-2.1c-0.1-0.1-0.1-0.1-0.2-0.2c-0.6-0.6-1.1-1-1.9-1.2
		c0.6-0.7,1.5-0.8,1.9-0.9l0,0l0.5,0.3l0.4,0.3l0.5,0.6l0.4,0.5l0.4,1.1l0.2,0.8l0.4,0.7l0.8,1.1l0,0c0.2,0.2,0.5,0.2,0.8,0.2
		c0.1,0,0.2,0,0.3,0c0.5-0.1,0.9-0.6,1.1-1c0.8-1.7-1.7-5.4-1.9-5.7c-0.2-1.6,1-3.3,1.3-3.7c0.6,0,1.1,0,1.5-0.1v0.2l-0.2,1.1
		c-0.1,0.2-0.2,0.7-0.4,0.8c0,0-0.6,0.8-0.7,1.7c0,0.1,0,0.7,0.1,0.9c0.6,0.7,1.5,1.9,1.5,2l0,0c0.3,2.2,0.1,2.7-0.5,3.8
		c-0.1,0.3-0.3,0.6-0.5,1l-0.6,0.6c-0.5,0.7-1.8,0.7-1.9,0.7L123.8,121.3C123.9,121.5,123.8,121.4,123.8,121.3L123.8,121.3z
		 M120.8,121.2c0.5-0.3,1.1-0.4,1.6-0.2l0.8,0.7c0,0.3-0.1,0.9-0.8,1.2l0,0c-0.5,0.6-1,1-1.4,1l0,0c-0.4,0-0.5-0.3-0.5-0.3l0,0
		c-0.2-0.1-0.4-0.3-0.5-0.5C120,122.7,120,121.7,120.8,121.2z M119.3,119.6L119.3,119.6c0,0,0-0.3,0.2-0.5s0.6-0.4,1.1-0.4
		c0,0,0.7,0,0.9,0.6l0,0c0,0,0.4,0.4,0.4,0.8c-0.2,0-1,0.1-1.6,0.6c-0.5,0.3-0.8,0.8-0.9,1.1c-0.2-0.7-0.2-1.4-0.2-1.9L119.3,119.6z
		 M136.7,121.8c0.6,1,0.3,3.1,0.3,3.1c-0.3,1.8-1.9,2.3-2.5,2.5c-1.3,0.3-2.6,0-3.2-0.8c-0.3-0.4-0.4-1-0.3-1.6c0,0,0-0.1,0.1-0.1
		c0.2-0.5,0.5-1.5,2.7-1.6c0.4,0,1.1,0.6,1.1,1c0,0.2-0.2,0.3-0.5,0.3h-0.1c-0.2,0-0.3,0-0.3,0c-0.2,0-0.4,0.1-0.5,0.2s0,0.2,0,0.2
		s0.2,0.5,1,0.5c0.1,0,0.1,0,0.2,0h0.1c0.2,0,0.4,0,0.4,0c0.8-0.2,0.7-1.3,0.7-1.4c0-0.8-0.8-1.2-0.8-1.2l-0.8-0.5l-0.5-0.1
		l-0.9,0.1c-1.1,0.2-1.6,1-1.8,1.4c-1.2-1-1.4-1.8-1.4-1.8l-0.5-1.4c0.1-0.2,0.2-0.4,0.4-0.7l0.4,0.1c0,0,1.1,0.3,2.2,0.3
		c0.1,0,0.3,0,0.4,0s1.3-0.1,1.3-0.1h0.8c0,0,1.2,0.3,1.7,0.8l0.3,0.4C136.7,121.6,136.7,121.7,136.7,121.8L136.7,121.8z
		 M138.2,112.6c-0.7-0.6-0.5-1.2-0.5-1.2l0.2-2.6c0-1.3-0.5-2.3-0.5-2.3c-0.2-0.6-1.1-1-1.2-1.1c-0.6-0.1-1.3-0.1-1.6-0.1
		c-0.1,0-0.1,0-0.1,0c-1.5,0.1-1.9,0.3-2.1,0.4c-0.1,0-0.1,0.1-0.2,0c0,0,0-0.1,0.1-0.2c0.1-0.2,0.2-0.6,0.1-1.1
		c-0.3-0.8-0.3-1.7-0.3-1.9l1.1-1.6c1.6-2.8,1.3-6.2,1.3-6.2c-0.4-5.8-1.5-9-1.5-9c-1.6-5.2-4.1-9.9-4.1-9.9
		c-3.2-5.1-10-6.1-10.1-6.1c-3.3-0.7-9.1-0.4-9.2-0.4c-3,0.2-4.7,1-4.7,1s-2.7,1.1-3.8,2.8c0,0-0.2,0.4-0.3,0.7
		c-0.2,0.2-1.1,0.7-2.4-0.1c-1.1-0.5-1.3-2.7-1.3-2.7s-0.3-0.8-1.1-0.8c-2.7-0.4-4.3,0.6-4.3,0.6c-0.1,0-1.4,1.1-1.9,2.2
		c-0.3,0-1.7,0.3-3.3,2.7l-1.3,1.6l-1.8,1.6l0,0c0,0.1-0.7,1.5-0.3,4.2c0.1,0.2,0.6,0.6,1.6,1.2l0,0c0.2,0.3,0.2,3.1-0.3,3.8
		c0,0.1-0.5,1.3-0.6,1.5l-0.6,1c-0.1,0.1-0.4,0.4-0.4,1.4v0.8c0,0-0.1,1.2-0.5,1.7L81,96.3L79.8,98c0,0-0.8,1.4-1,1.7
		c0,0.1-0.1,0.1-0.2,0.2c-0.3,0.4-0.8,0.9-0.9,1.6c0,0,0,0.9,0.6,1.5c0.3,0.3,0.8,0.5,1.4,0.5h0.1h0.6l0,0c0,0.1,0,0.3,0,0.5
		l0.1,0.5l-0.1,1.1c0,0-0.2,0.9,0,1.3c0,0,0.3,0.3,0.2,0.5l-0.1,0.5l-0.1,0.3c0,0.1-0.2,0.9,0.2,1.1l0.5,0.3c0,0,0.6,0.5,0.3,1.1
		l-0.5,0.8c0,0-0.4,0.5-0.5,1.2c0,0-0.3,1.5,0.5,2.8c0.6,0.9,1.6,1.5,3,1.7l2.7,0.3l2.9,0.5c0,0,0.8,0.2,0.8,1.3v0.4
		c0,0,0.1,0.8,0.4,1.4l0.6,1.4l0.7,1.3l0.7,1.7c0,0,0.6,1.5,0.6,3.4l-0.1,3.5v0.1h1h0.1v-4.8c0,0-0.2-1.9-1-3.3l-0.6-1.2l-0.9-1.5
		c0,0-0.6-1.2-0.8-2.9v-0.9c0.3-0.1,1.9-0.6,3.4-1.3c0.2-0.1,2.7-1.7,3.7-2.5c2-1.7,2.5-2.1,2.7-2.3l0,0l0,0
		c0.2-0.2,1.6-1.4,2.1-2.2h0.4l0,0c0.1,0,0.2,0,0.3,0.1c0.4,0.3,0.4,1.4,0.4,1.4l1.9,8.5l-2.4,3.6l-2.6,6.1l-2.1,7.4v0.1h1.4v0.2
		c0.1-6,4.7-14.3,4.7-14.4l4.4-6l4.9-5.4l4.3-4.5c0.1-0.1,3.5-2.4,3.9-2.7c0.1-0.1,0.2-0.1,0.3,0c0.3,0.1,0.4,0.6,0.4,0.6
		c0.4,0.8,0.6,1.6,0.6,1.6c0.4,1.3,0.3,1.7,0.2,1.9c-0.1,0.1-0.2,0.1-0.2,0.1l0,0l0,0c-1.5,0.2-2.2,1.3-2.2,1.3
		c-0.8,1.3-0.6,2.8-0.5,3.3v0.1c-0.1,0-0.2,0-0.2,0c-1.8,0-2.3,1.4-2.3,1.4c-1.2,2.3-0.3,4.7-0.3,4.7s0.3,1.5,0.2,2.6
		c0,0.2-0.1,1.7,0.6,2.1c0.5,0.4,0.9,0.5,1,0.5c0.1,0.1,0.4,0.7,0.9,0.8c0.1,0,0.1,0,0.1,0c0.6,0,1.1-0.4,1.6-1.2v-0.1
		c0.1-0.1,1.2-1.1,1.2-1.1s0.6-0.4,1.5-0.2c0.1,0,1.1-0.1,1.3-0.1c0.9-0.1,1.4-0.7,1.6-1.1c0.1,0.7,0.4,2.8,2,3.3
		c-0.1,0.3-0.1,0.7-0.1,0.7c-0.4,1.6,0.8,2.5,0.8,2.5c2.6,1.6,5.2,0.1,5.2,0.1c1.6-0.9,1.7-3.1,1.7-3.1c0.2-1.7,0-2.8,0-2.8l0,0
		c-1.4-2.2,0-3.8,0-3.8c0.5-0.4,0.8-1.3,1-2.6l0,0C139.2,113.4,138.2,112.6,138.2,112.6L138.2,112.6z"/>
	<path id="path134" class="st1" d="M86,95c0-0.3,0-0.7,0-1c0-0.1,0-0.2,0-0.2c0-0.1,0.1-0.2,0.1-0.2c0.1,0,0.2,0,0.4,0h0.1
		c0.2,0,0.3,0,0.5,0s0.6,0.1,0.7,0.1c0.1,0,0.1,0.1,0.2,0.1c0.1,0.1,0.2,0.1,0.3,0.2c0.1,0,0.1,0,0.2,0.1c0.2,0.1,0.6,0.2,0.7,0.3
		c0.2,0.1,0.5,0.6,0.6,0.7s0.2,0.3,0.3,0.4s0.3,0.2,0.4,0.2c0.2,0.1,0.4,0,0.4,0H91l-0.1-0.1c-0.1-0.1-0.4-0.6-0.7-1.1
		s-0.5-0.7-0.5-0.8c-0.1-0.1-0.2-0.2-0.4-0.2c-0.1,0-0.2-0.1-0.3-0.1s-0.2-0.1-0.3-0.1s-0.2-0.1-0.4-0.2C88.2,93,88,93,87.9,92.9
		c-0.1,0-0.1-0.1-0.2-0.1c-0.3-0.1-0.7-0.3-0.9-0.3c-0.4,0-1.7,0-1.8,0.1s-0.2,0.2-0.2,0.3c0,0.1,0.1,0.2,0.1,0.4
		c0,0.1,0.1,0.1,0.1,0.2c0,0,0.1,0.2,0.1,0.4c0,0.2,0,0.8,0,1.1c0,0.3-0.1,0.4-0.1,0.6v0.1c0,0.1-0.2,0.3-0.3,0.4
		c-0.2,0.2-0.2,0.3-0.2,0.3l0,0l0,0c0,0,0,0,0.1,0c0.2,0,0.8-0.1,0.9-0.2C85.7,96.2,86,95.4,86,95L86,95z"/>
	<path id="path136" class="st1" d="M89.4,95.8l-0.1-0.1c-0.1-0.1-0.2-0.2-0.3-0.3c0,0-0.1-0.1-0.2-0.1c-0.1,0-0.1-0.1-0.1-0.1
		c-0.1,0-0.1-0.1-0.2-0.1h-0.1c0,0-0.3-0.2-0.4-0.2l0,0c-0.1,0-0.2-0.1-0.3-0.1c0,0,0,0-0.1-0.1l-0.1-0.1c-0.1,0-0.6-0.1-0.6-0.1
		l0,0c-0.1,0-0.3,0.2-0.4,0.2c0,0,0,0.1,0,0.2l0.1,0.2c0,0,0.1,0.1,0.2,0.1c0,0.1-0.1,0.3-0.1,0.5s0,0.4,0,0.6
		c0,0.1,0.2,0.4,0.3,0.5s0.3,0.2,0.3,0.2l0,0c0,0,0.1,0,0.1-0.1c0.1-0.1,0.1-0.2,0.1-0.3c0-0.3-0.1-0.4-0.1-0.5V96
		c0-0.1,0.1-0.3,0.2-0.5c0.1,0,0.1,0,0.2,0.1c0.1,0.1,0.5,0.4,0.6,0.5l0.1,0.1c0.1,0.1,0.2,0.1,0.2,0.3c-0.1,0.3-0.2,0.4-0.4,0.4
		c-0.1,0.1-0.4,0.2-0.5,0.2c-0.2,0-0.5,0.1-0.6,0.1s-0.4,0-0.4,0l0,0c0,0-0.2,0.1-0.2,0.2s0.1,0.2,0.1,0.2h0.5c0,0,0.2,0,0.3,0
		c0,0,0.1,0,0.2,0c0.1,0,0.3,0,0.3,0c0.1,0,0.4-0.1,0.5-0.2c0.2-0.1,0.8-0.4,0.9-0.5c0.1-0.1,0.1-0.2,0.2-0.2c0-0.1,0-0.2,0-0.3
		C89.6,96.1,89.5,95.8,89.4,95.8z"/>
	<path id="path138" class="st1" d="M99.5,85.4C99.5,85.4,99.6,85.4,99.5,85.4c0.3,0,1.3,0.2,1.7,0.4c0.4,0.1,0.6,0.2,0.7,0.3
		c0.1,0.1,0.6,0.5,0.9,0.8c0.1,0.1,0.2,0.2,0.3,0.2c0.1,0.1,0.2,0.1,0.2,0.3c0,0,0,0.1,0.2,0.1c0,0,0.1,0,0.2,0
		c0.2,0,0.3-0.1,0.4-0.2s0.1-0.2,0-0.2c-0.1-0.2-0.1-0.2-0.1-0.2s-0.1,0-0.2-0.3c-0.2-0.2-0.4-0.4-0.6-0.6c-0.1-0.1-0.2-0.1-0.2-0.2
		c-0.4-0.3-0.6-0.5-0.8-0.6c0,0-0.1,0-0.1-0.1c-0.3-0.2-1.2-0.7-2.3-0.7l0,0c-0.3,0-0.9,0.4-1,0.5l0,0l0.1,0.4l0,0
		C99,85.4,99.3,85.5,99.5,85.4L99.5,85.4z"/>
	<path id="path140" class="st1" d="M103.6,89c0.1,0,0.1,0,0.2,0s0.2-0.1,0.2-0.1s0-0.1,0.2-0.2c0.1,0,0.1-0.1,0-0.1
		c-0.1-0.1-1.2-0.2-1.4-0.1c-0.1,0-0.3,0.1-0.5,0.1c-0.3,0.1-0.6,0.1-0.7,0.2c-0.1,0-0.2,0.1-0.3,0.1c-0.3,0.1-0.5,0.2-0.5,0.4
		c0,0.1,0,0.1,0.1,0.1c0,0,0.1,0,0.2,0c0.2,0,0.5-0.1,0.8-0.2c0.1,0,0.2-0.1,0.2-0.1c0.2-0.1,0.2-0.1,0.4-0.1c0.1,0,0.2,0,0.5-0.1
		C103.3,89,103.5,89,103.6,89L103.6,89z"/>
	<path id="path142" class="st1" d="M101.1,87c0.3,0.1,0.9,0.5,1,0.7l0,0c-0.1,0.1-0.3,0.2-0.6,0.3c-0.5,0.2-0.6,0.3-0.7,0.4l0,0l0,0
		c0,0,0,0,0.1,0l0,0c0.2,0,1.2-0.3,1.4-0.4s0.3-0.4,0.4-0.4l0,0l-0.1-0.3l0,0c0-0.1-0.1-0.2-0.2-0.4c-0.2-0.2-1.1-0.8-1.4-0.8
		c0,0-1.6-0.3-1.8-0.1c-0.2,0.1,0,0.6,0,0.6l0,0l0,0l0,0c0.1,0,0.3,0,0.5,0c0,0.2,0,0.4,0,0.5v0.1c0,0.2,0,0.3,0.2,0.5
		c0,0,0,0.1,0.1,0.1c0.1,0.1,0.1,0.2,0.3,0.2h0.1c0.2,0,0.2-0.3,0.2-0.5c0-0.1,0-0.2,0-0.3c0-0.2,0.1-0.4,0.2-0.5
		C100.8,87,100.9,87,101.1,87L101.1,87z"/>
</g>
</svg>
