<?xml version="1.0" encoding="utf-8"?>
<!-- Generator: Adobe Illustrator 25.1.0, SVG Export Plug-In . SVG Version: 6.00 Build 0)  -->
<svg version="1.1"
	 id="Ebene_1" xmlns:inkscape="http://www.inkscape.org/namespaces/inkscape" xmlns:sodipodi="http://sodipodi.sourceforge.net/DTD/sodipodi-0.dtd" xmlns:svg="http://www.w3.org/2000/svg"
	 xmlns="http://www.w3.org/2000/svg" xmlns:xlink="http://www.w3.org/1999/xlink" x="0px" y="0px" viewBox="0 0 600 600"
	 style="enable-background:new 0 0 600 600;" xml:space="preserve">
<style type="text/css">
	.st0{fill:#FFFFFF;}
	.st1{fill:#084780;}
</style>
<sodipodi:namedview  bordercolor="#666666" borderopacity="1.0" id="namedview147" inkscape:current-layer="Ebene_1" inkscape:cx="141.7358" inkscape:cy="92.931284" inkscape:pagecheckerboard="0" inkscape:pageopacity="0.0" inkscape:pageshadow="2" inkscape:window-height="1137" inkscape:window-maximized="1" inkscape:window-width="1920" inkscape:window-x="-8" inkscape:window-y="-8" inkscape:zoom="3.2066704" pagecolor="#ffffff" showgrid="false">
	</sodipodi:namedview>
<g id="g144" transform="translate(-41.1,-33.3)">
	<path id="path4" class="st0" d="M641.1,333.3c0,165.9-134.6,300-300,300c-165.9,0-300-134.6-300-300c0-165.9,134.6-300,300-300
		C507,33.3,641.1,167.9,641.1,333.3z"/>
	<path id="path66" class="st1" d="M144.3,489.5c2.2-1.8,2.6-5.3,0.9-7.5c-1.8-2.2-5.3-2.6-7.5-0.9c-2.2,1.8-2.6,4.9-0.9,7.5
		C138.6,490.8,142.1,491.2,144.3,489.5L144.3,489.5z"/>
	<polygon id="polygon68" class="st1" points="175.7,540.2 160.7,527.9 195.5,518.6 196.4,517.7 176.5,500.9 177.4,499.6 
		175.7,497.9 170.4,504.5 172.1,505.8 174.8,503.2 188.9,514.6 154,523.9 152.7,525.2 175.7,544.2 180.5,538 178.7,536.2 	"/>
	<path id="path70" class="st1" d="M243.2,545.9l-12.8-7.1l-1.3,2.6l4.9,2.6l-8.8,15.9c-3.1,5.3-8.4,7.1-13.2,4.4s-5.7-7.9-3.1-13.2
		l8.8-15.9l4.9,2.6l1.3-2.6l-14.6-7.9l-1.3,2.6l4.9,2.6l-9.7,17.2c-3.5,6.2-0.9,13.2,6.2,17.2c7.5,4,15,2.2,19-4.9l8.8-16.3l4.9,2.6
		L243.2,545.9L243.2,545.9z"/>
	<path id="path72" class="st1" d="M278,560.5l4.9,1.3c3.5,0.9,4.9,3.5,4,7.1c-0.9,3.5-4,5.3-7.5,4.4l-4.4-1.3L278,560.5z
		 M274.5,575.1l5.3,1.3c4.9,1.3,6.6,4,5.3,8.4c-0.9,4-4,5.3-8.8,4.4l-4.9-1.3L274.5,575.1L274.5,575.1z M278.5,592.3
		c6.6,1.8,11.5-0.4,12.8-5.7c1.3-5.3-1.8-9.7-8.4-11.5c5.3,1.3,9.7-0.9,10.6-5.3c1.3-4.9-1.8-9.3-7.9-10.6l-17.2-4.4l-0.4,2.6
		l5.3,1.3l-7.1,27.8l-5.3-1.3l-0.9,2.6L278.5,592.3L278.5,592.3L278.5,592.3z"/>
	<polygon id="polygon74" class="st1" points="338.9,596.2 326.5,595.8 327,583 336.2,583.4 336.2,587 338.9,587 339.3,576.8 
		336.7,576.8 336.2,580.4 327,579.9 327.4,568 339.3,568 339.3,572 342,572 342.4,564 339.8,563.6 339.3,565.4 316.4,564.5 
		316.4,567.1 322.1,567.6 320.8,595.8 315.5,595.8 315.5,598.4 341.5,599.3 342,592.3 338.9,592.3 	"/>
	<path id="path76" class="st1" d="M374.2,565.4l4.9-0.9c4-0.4,6.2,1.3,6.6,5.3c0.4,4-1.3,7.1-4.9,7.5l-5.3,0.9L374.2,565.4z
		 M400.7,589.6l-2.2,0.4c-1.8,0.4-3.1-0.4-4.4-2.2l-8.4-8.8c4.9-1.8,7.1-5.7,6.2-10.6c-0.9-5.7-5.3-8.4-12.4-7.1l-17.2,2.6l0.4,3.1
		l5.3-0.9l4.4,27.8l-5.3,0.9l0.4,2.6l16.3-2.6l-0.4-2.6l-5.3,0.9l-1.8-11.9l3.5-0.4l9.7,10.6c2.2,2.6,3.1,2.6,6.2,2.2l5.3-0.9
		L400.7,589.6L400.7,589.6z"/>
	<polygon id="polygon78" class="st1" points="444.3,574.2 432.9,578.2 423.2,552.1 428,550.4 427.1,547.7 411.7,553.4 412.6,556.1 
		417.9,554.3 428,580.4 422.7,582.6 423.6,585.2 447.9,575.9 445.2,568.9 443,569.8 	"/>
	<polygon id="polygon80" class="st1" points="460.2,534 464.6,530.9 463.3,528.7 449.2,537.1 450.5,539.8 455.4,536.7 469.9,560.9 
		465.1,563.6 466.4,566.2 480.5,557.4 479.2,555.2 474.8,558.3 	"/>
	<polygon id="polygon82" class="st1" points="509.2,490.8 498.6,500.9 500.4,503.2 504.8,499.2 518.9,514.6 487.6,511.1 
		480.5,517.7 482.7,519.9 486.2,516.4 488.9,516.8 506.5,535.8 502.6,539.8 504.3,541.5 515.4,531.8 513.6,529.6 509.2,533.6 
		494.6,517.7 527.3,521.2 528.6,519.9 507.4,497 511.4,493 	"/>
	<path id="path84" class="st1" d="M543.6,473.2c-2.2-1.8-5.7-0.9-7.1,1.3c-1.8,2.2-0.9,5.7,1.3,7.1c2.2,1.8,5.7,1.3,7.1-1.3
		C546.2,478.4,545.8,474.9,543.6,473.2L543.6,473.2z"/>
	<polygon id="polygon86" class="st1" points="90.5,426.4 88.3,421.5 86.1,422.4 92.7,437.4 95.4,436.5 93.2,431.7 104.6,426.4 
		112.6,444.9 101.1,449.8 98.9,444.9 96.2,445.8 103.3,461.2 105.5,459.9 103.3,455.1 129.3,443.2 131.5,448.4 134.2,447.1 
		127.6,432.1 124.9,433.4 127.1,438.3 115.2,443.6 107.3,425.1 119.2,420.2 121.4,425.1 123.6,423.7 117,408.7 114.3,409.6 
		116.5,414.9 	"/>
	<path id="path88" class="st1" d="M72.4,355.4l2.2,14.6l3.1-0.4l-0.9-5.3l18.1-2.6c5.7-0.9,10.6,2.2,11.5,7.9
		c0.9,5.3-2.6,9.3-8.4,10.6l-18.1,3.1l-0.9-5.3l-3.1,0.4l2.6,16.3l3.1-0.4l-0.9-5.3l19.9-3.1c6.6-0.9,11-7.5,9.7-15.4
		c-1.3-8.4-7.5-13.2-15.4-11.9l-18.1,3.1l-0.9-5.3L72.4,355.4L72.4,355.4z"/>
	<polygon id="polygon90" class="st1" points="79,286.1 79.9,280.8 76.8,280.4 75.5,291.8 98.5,306.4 72.4,314.8 71.1,325.8 
		74.2,326.2 75.1,320.9 102.9,324 102.4,329.8 105.1,329.8 106.8,315.2 104.2,315.2 103.3,320.5 80.4,317.9 108.2,308.6 82.1,292.3 
		106.4,295.4 106,300.7 108.6,301.1 110.4,284.3 107.7,284.3 107.3,289.6 	"/>
	<path id="path92" class="st1" d="M91.8,242l1.8-4.9c1.3-3.5,4-4.4,7.5-3.1c3.5,1.3,4.9,4.4,3.5,7.9l-1.8,4.4
		C102.9,246.4,91.8,242,91.8,242z M105.5,247.3l1.8-4.9c1.8-4.4,4.9-5.7,8.8-4.4s4.9,4.4,3.1,9.3l-1.8,4.9L105.5,247.3z
		 M123.2,245.5c2.6-6.6,0.9-11.5-4.4-13.2s-9.7,0.4-12.4,7.1c1.8-4.9,0.4-9.7-3.5-11.5c-4.9-1.8-9.3,0.9-11.5,6.6l-6.6,16.8l2.6,0.9
		l1.8-5.3l26.5,10.1l-1.8,5.3l2.6,0.9L123.2,245.5L123.2,245.5z"/>
	<path id="path94" class="st1" d="M120.1,185.5c3.5-4.9,11.9-5.3,18.5-0.9c6.6,4.9,9.3,12.4,5.7,17.6c-3.5,4.9-11.9,5.3-18.5,0.4
		C119.2,198.3,116.5,190.4,120.1,185.5L120.1,185.5z M147,204c5.3-7.5,3.1-19-4.9-24.3c-7.9-5.3-19-3.5-24.3,4
		c-5.3,7.5-3.1,19,4.4,24.3C130.2,213.7,141.7,211.5,147,204L147,204z"/>
	<polygon id="polygon96" class="st1" points="184.5,155.5 175.7,163.9 156.2,144 160.2,140.1 158.5,137.9 146.5,149.3 148.3,151.5 
		152.3,147.6 172.1,167.9 168.2,171.8 169.9,173.6 188.5,155.5 183.6,150.2 181.4,152.4 	"/>
	<path id="path98" class="st1" d="M208.7,137.4l-15-23.8l4.9-3.1c5.7-3.5,13.2-1.3,17.6,5.7c4.4,6.6,3.1,14.6-2.6,18.1
		C213.6,134.3,208.7,137.4,208.7,137.4z M200.8,145.8l14.6-9.3c8.4-5.3,11-15.4,6.2-23.8c-4.9-7.9-15.4-10.1-23.8-4.9l-14.6,9.3
		l1.3,2.2l4.9-3.1l15,24.3l-4.9,3.1L200.8,145.8z"/>
	<polygon id="polygon100" class="st1" points="252.9,84.9 263,81.4 264.3,85.4 267,84.5 264.3,76.5 261.7,77.4 262.1,78.7 
		236.5,87.6 236.1,86.2 233.9,87.1 236.5,95.1 239.2,94.2 237.9,90.2 247.6,86.7 256.8,113.6 251.1,115.8 252,118 269.2,112.3 
		268.3,109.6 262.1,111.8 	"/>
	<polygon id="polygon102" class="st1" points="289,92.4 303.2,90.2 301.8,84.5 288.2,87.1 	"/>
	<path id="path104" class="st1" d="M360.1,68.6l-14.6-0.4v3.1h5.3l-0.4,18.5c0,5.7-4,10.1-9.7,10.1c-5.3,0-8.8-4.4-8.8-10.1
		l0.4-18.5h5.7v-3.1l-16.8-0.4v3.1h5.7l-0.4,19.9c0,7.1,5.3,11.9,13.2,12.4c8.4,0,14.1-5.3,14.1-13.2l0.4-18.5h5.3L360.1,68.6
		L360.1,68.6z"/>
	<polygon id="polygon106" class="st1" points="426.2,81.8 412.1,78.3 411.2,80.9 416.5,82.3 411.2,102.6 397.6,74.3 388.3,71.7 
		387.4,74.8 392.7,76.1 393.6,78.3 386.5,103.4 381.2,102.1 380.8,104.8 394.9,108.7 395.4,106.1 390.1,104.8 395.8,83.6 
		409.9,113.2 412.1,114 420.1,83.6 425.4,84.9 	"/>
	<polygon id="polygon108" class="st1" points="461.1,101.2 466,103.9 467.3,101.2 452.7,93.7 451.4,95.9 456.2,98.6 443,123.7 
		438.2,121.1 436.8,123.3 451.4,131.2 452.7,129 447.9,126.4 	"/>
	<polygon id="polygon110" class="st1" points="511.4,131.2 503,125.1 501.2,127.3 504.8,129.9 483.6,142.3 489.8,118.4 493.3,121.1 
		495.1,118.9 484,110.5 482.3,112.7 484.9,114.9 476.5,148 477.9,149.3 507.4,131.7 509.6,133.4 	"/>
	<polygon id="polygon112" class="st1" points="521.5,185.9 513.2,176.7 522.9,167.9 529,174.9 526.4,177.6 528.2,179.3 535.7,172.7 
		533.9,170.9 531.2,173.2 524.6,166.1 533.9,157.7 541.8,167 539.2,169.6 541,171.4 547.1,166.1 545.4,163.9 544,164.8 528.6,147.6 
		526.8,149.8 530.4,153.7 509.2,172.7 505.7,168.7 503.5,170.5 521.1,189.9 526.4,185.5 524.2,183.3 	"/>
	<path id="path114" class="st1" d="M558.6,255.2c-0.4,3.1-0.4,6.2,0.4,8.8c1.8,5.7,7.1,8.8,12.4,7.1c4.4-1.3,6.2-4,7.5-11
		c0.4-1.8,0.9-3.5,1.3-5.7c0.4-2.6,1.3-4,3.1-4.4c2.6-0.9,5.3,0.4,6.6,4c0.4,1.8,0.9,3.1,0,6.6l-3.5,0.9l0.9,2.6l8.4-2.6l-0.9-2.6
		l-1.8,0.4c0.4-2.2,0.4-4.4-0.4-7.1c-1.8-5.7-7.1-8.8-12.4-7.1c-4,1.3-5.7,4.4-7.1,11.5c-0.9,6.6-2.2,9.3-4.9,10.1s-5.3-0.9-6.6-4.4
		c-0.9-2.2-0.9-4.4,0-7.9l3.5-1.3l-0.9-2.6l-8.8,2.6l0.9,2.6L558.6,255.2L558.6,255.2z"/>
	<polygon id="polygon116" class="st1" points="599.2,300.7 600.1,305.9 603.2,305.5 600.5,289.2 597.9,289.6 598.3,294.9 
		570.5,298.9 569.6,293.6 567,293.6 569.6,310.4 572.3,309.9 571.4,304.2 	"/>
	<polygon id="polygon118" class="st1" points="601,347.4 601,358 596.5,358 596.5,360.7 604.9,360.7 605.4,358 603.6,358 
		604.5,331.1 606.2,331.1 606.2,328.4 597.9,328.4 597.4,331.1 601.8,331.1 601.4,341.7 573.2,340.8 573.2,334.6 570.5,334.6 
		570.1,352.3 572.7,352.7 573.2,346.1 	"/>
	<path id="path120" class="st1" d="M578.5,386.2l11,8.4l-13.7,2.2L578.5,386.2z M606.2,397.7c2.2,0.4,4.4-0.9,4.9-2.6
		c0.4-2.2-0.9-4.4-3.1-4.9c-2.2-0.4-4,0.9-4.9,3.1C602.7,395.1,604,397.3,606.2,397.7L606.2,397.7z M602.7,410.5
		c2.2,0.4,4.4-0.9,4.9-2.6c0.4-2.2-0.9-4.4-3.1-4.9c-2.2-0.4-4,0.9-4.9,3.1C599.6,407.9,601,409.6,602.7,410.5L602.7,410.5z
		 M562.1,407.4l0.9-3.1l34.4-5.3l0.4-1.8l-27.8-21.6l0.9-2.6l-2.6-0.4l-2.6,10.1l2.6,0.4l0.9-4l7.1,5.3l-3.1,12.8l-8.4,1.3l0.9-3.1
		l-2.6-0.4l-3.1,11.9L562.1,407.4L562.1,407.4z"/>
	<polygon id="polygon122" class="st1" points="574.9,448.9 570.5,458.6 567,457.3 565.7,459.5 573.2,463 574.5,460.8 573.2,459.9 
		584.6,435.7 586,436.1 586.8,433.9 579.3,430.4 578,432.6 582,434.3 577.6,444 552,432.1 554.6,426.4 552,425.5 544.5,441.8 
		546.7,442.7 549.3,437 	"/>
	<path id="path124" class="st1" d="M566.1,202.3l2.6,4.4c1.8,3.5,0.9,6.2-2.6,8.4c-3.5,1.8-7.1,1.3-8.8-1.8l-2.6-4.4L566.1,202.3z
		 M552.4,235.4l-0.9-1.8c-0.9-1.3-0.9-3.1,0.4-4.9l5.3-11c3.1,4,7.9,4.9,11.9,2.2c5.3-3.1,6.2-7.9,2.6-14.1l-8.4-15l-2.6,1.3
		l2.6,4.9l-24.7,13.7l-2.6-4.9l-2.2,1.3l7.9,14.6l2.2-1.3l-2.6-4.9l10.6-5.7l1.8,3.1l-6.6,12.8c-1.3,3.1-1.3,3.5,0,6.6l2.6,4.9
		L552.4,235.4z"/>
	<path id="path126" class="st1" d="M396.7,225.2c-0.4,0-6.6-3.1-7.9-3.1c-0.4,0-3.5-2.2-6.2-4c-2.6-1.8-4-2.6-4.4-3.1
		c-0.4,0-3.5-1.8-4.9-2.2l-7.5-4.9l-7.5-5.3c0,0-1.3-1.3-3.1-1.3c0,0-4.4-1.8-10.1-0.9c-3.5,0.4-12.4,1.8-12.4,1.8
		c-0.4,0-8.8,1.8-9.3,2.2c0,0-7.1,4.4-9.3,5.7l0,0l-0.9,4.9l0.4-0.4c0,0,6.2-5.7,11.5-7.5c0,0,11.9-2.6,20.3-2.6c0,0,8.4,0,14.6,4.9
		l5.3,4.4l7.9,4.4c0,0,6.2,4.9,19.4,10.1c0,0,7.1,2.6,11,6.6l0.4,0.4v-0.4C406.4,230.5,397.1,225.7,396.7,225.2L396.7,225.2z"/>
	<path id="path128" class="st1" d="M430.2,264l-1.3-7.9l-0.9-4.9l-1.8-5.3c-1.8-6.6-4.9-11.5-8.4-15.9c0,0-1.3-3.1-6.2-7.5
		c-0.4-0.4-0.9-0.9-1.3-1.3c-1.8-1.8-4.4-4.4-7.9-6.2c-0.9-0.4-8.4-5.3-8.8-5.3c0,0-0.4-0.4-1.3-0.4c-1.8-0.4-4-1.3-4.4-1.8
		c-1.8-0.4-3.5-0.9-4.9-0.9l0.9-0.4h-2.2l0,0l-0.4,0.4c0,0.4,0.4,0.9,4,1.8c0.9,0.4,7.9,2.6,7.9,3.1c0,0,8.8,5.3,10.1,6.2
		c0,0,7.1,5.3,11.5,11.9c0,0,5.7,7.5,9.3,20.7l4,11.5l4.4,7.9L430.2,264z"/>
	<path id="path130" class="st1" d="M443,297.6c-0.4-3.1-0.9-7.1-1.3-9.3c-0.4-3.5-2.6-9.3-4.4-12.4c-1.8-2.6-5.3-5.3-5.7-5.7
		l-0.9-0.4l3.1,7.1c0,0,3.5,7.5,5.7,25.1l-1.3,15.9l-1.8,5.7c-0.4,5.3-0.4,5.3-0.4,5.3l0,0l0,0c0,0,3.5-3.5,4.4-7.5
		c0-0.4,1.3-6.6,1.3-7.9c0,0,1.3-9.3,0.9-12.4C443.5,300.7,443,299.3,443,297.6L443,297.6z"/>
	<path id="path132" class="st1" d="M466,403.9c-1.3-0.9-2.6-2.2-4.4-4.4c-4-4-7.9-7.1-12.4-9.3c-0.4-0.4-0.9-0.4-1.3-0.9
		c-4.4-2.2-8.4-4.4-9.7-7.5c-0.4-1.8,0-2.6,0.4-4c0.9-1.8,1.8-3.5,0.9-6.6c-0.9-3.5-1.8-6.6-2.2-8.4c1.8-0.9,2.6-1.8,3.1-1.8
		c0.4-0.4,1.3-0.9,1.8-1.8c0.4,0.9,1.3,2.2,1.3,2.6l0,0c0,0,3.5,3.1,4,5.3c-0.4,0.9-3.5,9.3-3.5,9.3c-0.9,3.1-0.9,5.3,0.4,6.6
		c0.9,0.9,1.8,0.9,3.5,0.9l19.4,1.3c3.5,5.3,3.5,9.7,3.1,11.9l0,0c0,0.4,0,0.9-2.6,4.4C466.8,402.1,466.4,403,466,403.9L466,403.9z
		 M323,370.8c0-0.4,0-0.4,0-0.9s2.6-1.3,4.9-1.3c22.9-4,26.5-10.1,27.8-12.4c0-0.4,0.4-0.4,0.4-0.4c4-7.1,11-27.4,11.5-28.2
		c0.4-0.4,2.6-2.6,4.4-3.5c2.2-0.9,4.4,1.8,4.9,1.8l0,0c0.9,0.4,5.7,4.4,5.7,4.4c1.8,1.3,5.7,2.2,5.7,2.2c1.3,0.4,4.9,1.8,6.6,2.2
		c0.9,0.4,1.3,0.4,1.8,0.4s3.5,2.2,3.5,2.6s0.4,0.4,0.4,0.9c0,0.4,0.4,1.3,0.4,1.8l-1.3,1.3l-19.4,14.1
		c-15.4,11.9-35.7,37.5-35.7,37.9l-11.5,14.1l-1.3,2.2l-1.3-7.9l-4.9-22.1C323.9,373.4,323,371.7,323,370.8L323,370.8z M298.3,367.3
		c-0.4,0-0.9,0-1.3,0c-6.6,0-10.6-1.8-12.8-4.9c-3.1-4.9,0-11.9,0-12.4l2.2-4.9c0.4-0.9,0.9-0.9,1.8-0.4c0.4,0,0.4,0,0.9,0
		c0,0,0,0,0.4,0c0.9,0,1.3,0,1.8-0.9c0.4-0.9-0.9-2.6-0.9-2.6c-0.9-0.9-1.8-2.2-1.8-4c0-0.9,0.4-1.8,1.3-2.6l0,0l0,0v-0.4
		c-0.4-0.4-1.3-0.4-1.3,0l0,0c-2.6,1.8-4,0.4-4,0.4c-0.4-0.9-0.9-1.3-0.4-2.2c0.4-0.9,1.3-1.8,1.3-1.8l0,0c0,0,1.3-1.3,6.6,0
		c1.3,0.4,4.4,0,4.4,0c2.2-0.4,2.2-2.2,2.2-2.2l0,0l0,0c-1.3-0.9-1.8-1.3-2.2-1.8c-0.4-0.4-0.4-0.4-1.3-0.9c-0.4,0-0.4,0-0.9,0.4
		c-0.9,0.9-1.8,2.2-4.9,0c-2.2-2.2-3.1-2.2-3.5-2.2c-0.4,0-0.9,0-1.3,0c-1.3,0-1.8,0-2.2-2.2l-0.4-10.6v-3.1l4.4,0.4
		c2.2,0.9,4,0.9,4.4,0.9l0,0c0.4,0,1.8-0.4,2.6-1.3c0.9-0.9,1.8-2.2,0.4-4.9l-0.4-0.4l-0.4,0.4c-1.3,2.6-6.6,2.2-7.5,2.2
		c-4.9-3.5-11-1.8-11-1.8c-2.2,0.4-4,0-4.4-0.9c-1.3-1.8,0.4-4.4,0.4-4.4l7.9-12.4c0,0,8.8-11.9,13.2-19.9l0,0
		c0.9-7.9,2.2-11,2.6-11.5c3.1-3.5,4.4-6.6,4.4-7.5c4.4-15,5.3-18.1,5.3-18.1c0.4-2.2,3.5-7.5,7.1-7.9c0.4,0,0.9,0,1.3,0
		c2.2-0.4,5.7-0.9,7.1-0.4c0.4,0,0.9,0,1.3,0c2.2,0.4,5.7,0.9,11,3.1c5.3,1.3,1.8,14.6,1.8,14.6l-7.5,16.3c-0.9,1.3,2.2,4,2.2,4
		c0.4,0.4,4.4,5.3,4.4,5.7c0,0,3.5,3.1,3.1,9.3c0.4,4-0.4,5.3-1.3,7.1c-0.4,0.9-0.9,1.3-1.3,2.2l0,0c0,3.5,1.3,9.7,1.8,10.1
		c0,0,0,0,0,0.4c-1.8,1.3-4.4,3.1-9.3,4.9c-0.9,0.4-2.2,0.9-3.5,1.3c-6.2,2.2-8.4,3.1-8.4,4v0.4c0.4,0.4,1.3,0.4,2.6,0.4
		c1.3,0,2.6,0,3.1-0.4c1.8-0.4,6.2-1.8,7.9-2.6c1.3-0.4,5.7-2.2,7.9-3.5c0.4,1.8,0.9,3.5,0.9,4.9c-0.9,0.4-1.8,0.9-2.6,1.3
		c-1.3,0.9-3.5,1.8-5.3,2.6c-0.9,0.4-1.3,0.9-1.8,0.9c-0.9,0.4-4,2.2-4,2.6v0.4c0.4,0.4,1.8,0.9,2.2,0.9l0,0c0.4,0,2.6-0.9,5.3-2.2
		c0.9-0.4,1.8-0.9,2.2-0.9c1.3-0.4,3.1-1.3,4-1.8v0.4c0.9,10.1,1.3,11.9,1.3,12.4c0.9,0.9,6.6,0.9,17.6,0c4.9,2.2,5.7,5.7,5.7,7.5
		l-0.9,3.1c-1.8,4-8.4,22.1-8.4,22.1c0,0.4-0.4,0.9-0.4,1.3c-0.9,2.2-2.2,5.3-7.5,6.2c-5.3,2.2-8.8,3.1-15,4
		c-10.6,2.2-18.1,2.6-18.5,2.6L298.3,367.3z M258.2,211.5c1.8,0,3.5,0.9,5.7,2.2c1.3,0.9,3.1,3.1,4.4,4c-3.1,2.2-5.7,4.4-6.6,5.3
		c-0.4,0.4-1.3,1.3-2.2,2.2c-7.9-1.3-12.4,2.2-13.7,3.5c-4,4.4-8.8,4.4-11.5,3.1c1.3-1.3,3.5-2.6,4.4-3.5c2.2-1.8,4-4.4,6.2-7.5
		c2.2-3.1,9.3-7.9,9.7-7.9L258.2,211.5z M289.5,213.3c-0.9,0.4-1.8,0.9-2.6,1.3l-0.4-0.4c-3.5-2.6-8.4-1.8-11-0.9
		c-0.9,0.4-2.2,0.9-3.5,2.2c-0.4,0-1.3,0-1.8-0.9l-0.4-0.4c-1.8-1.8-3.5-3.5-4-4c-1.8-0.9-3.5-1.8-4.9-2.2l0.4-0.9l1.3-1.8
		c0,0,2.2-3.1,4-4.4h0.4c1.3-0.9,3.1-1.3,4.4-1.3l0,0l7.9,0.4c0,0,5.3,0,6.2,4.4l2.6,7.5C288.6,212,288.6,212.4,289.5,213.3
		L289.5,213.3z M304.5,218.2l-3.5,5.7c0,0-0.4,0.9-0.9,1.8c-0.4,0-1.3,0-2.2-0.4c-1.3-0.4-4.9-4-7.5-6.6c-0.4-0.4-0.4-0.4-0.9-0.9
		c0.4-0.4,1.3-0.4,2.2-0.9c0.4,0,0.4,0,0.9,0c1.8,1.3,4.9,2.2,8.8,1.3c0,0,2.6-0.4,4-0.4C304.9,217.7,304.5,218.2,304.5,218.2
		L304.5,218.2z M463.3,380.5L463.3,380.5c-0.4,0-0.4,0-0.9,0l0,0c-10.6,2.2-14.1,0.9-15-0.9c-0.9-0.9-0.4-2.2,0-3.1
		c0.4,0,0.9-0.4,3.1-7.9c0.9-2.2-1.3-5.3-1.8-5.7c-0.4-0.9-4-4.9-5.3-6.2l0.4-0.4l0,0c1.3,0,4.9-0.9,4.9-0.9
		c7.5-0.9,14.1-0.9,15.9,9.3C464.6,365.9,462.9,373.4,463.3,380.5L463.3,380.5z M362.7,321.8L362.7,321.8c-0.9-1.3-1.3-3.1-1.3-3.5
		s0-0.9-0.4-1.3l0,0h-0.4c0,0-2.6-2.2-2.6-4.9c0-1.3-0.4-2.6-0.4-4.4c-0.4-2.2-0.9-4.4-0.4-4.9c0.4-0.4,1.3-1.3,2.2-1.8
		c0.9,0.9,1.8,1.8,2.2,2.2c0,0.4,0.4,0.4,0.4,0.9c1.3,1.8,2.2,3.5,4.9,3.5h0.4c2.2,0,3.5,0.4,5.3,0.9c-1.3,0-3.1,0.4-3.5,0.9
		c-1.3,1.3-2.6,3.1-3.1,5.3c0,1.3,0,3.1,0.4,4.9v0.4c0,0.4,0.4,0.9,0.9,1.8c-0.9,0.9-1.8,1.3-2.6,2.2
		C363.2,322.7,363.2,321.8,362.7,321.8L362.7,321.8z M350.4,309.9l-0.4-0.9c-0.9-2.6-1.8-5.7-1.8-7.9c0-1.8,0-4-0.4-5.3
		c0.9,0.4,1.8,0.9,2.6,1.3c0.9,0.4,1.8,1.3,2.6,1.3c0.4,0,0.9,0.4,1.3,0.4h0.4c-0.4,0.9-0.4,1.3-0.9,1.8c-0.4,1.3-0.4,3.5-0.4,5.3
		c0,1.8,0.4,4.9,0.9,6.2c0.4,0.9,0.9,2.6,0.9,4c-1.8,0-3.5,0.4-4.9,0.4C351.2,315.2,350.8,312.1,350.4,309.9z M341.1,291.4
		c1.3,0.4,2.2,1.3,3.1,2.6l0.4,0.4c0.4,3.1,0.9,8.4,1.3,10.6c0.4,1.3,0.9,2.2,1.3,3.1c0.4,1.3,0.9,2.6,0.9,4s0,3.5,0,5.3
		c-5.3,0-5.7-0.4-6.2-0.4c-0.9-0.9-2.6-13.2-3.5-20.7l-1.3-6.2C338.5,290.1,339.8,290.9,341.1,291.4L341.1,291.4z M338.5,277.7
		c0.4-2.2,0.4-4.4,0.4-6.6c1.3-1.3,2.6-3.1,4.4-3.1c3.1-0.9,6.6,0,9.3,0.4c2.6,0.9,7.1,1.8,9.3,4.9c0.4,0.9,1.3,1.8,1.8,2.6
		c0.9,1.8,2.2,3.5,4,4.4c1.3,0.4,4.4,1.3,6.2,1.8c0.4,0,0.9,0.4,1.3,0.4c1.8,0.4,3.1,1.3,4,2.2l0,0c0.4,1.8,2.2,7.1,2.2,12.4
		c0,0.9-0.4,4-1.8,7.1c0,0.4-0.4,0.4-0.4,0.9c-0.4,0.9-0.4,1.3-0.9,1.3c0,0-0.4,0-0.9,0c-0.9-0.4-1.3-0.4-1.8-0.9
		c-0.9-0.4-1.3-0.4-2.2-0.9c-1.8-0.4-4-0.4-4-0.4s-4,0.9-5.7-1.3c-0.9-0.9-0.9-2.2-1.3-3.1c-0.4-1.3-0.9-2.6-1.8-2.6
		c-0.4,0-0.9-0.4-0.9-0.4l0.4-0.4c1.3-2.2,1.8-3.1,2.2-4.9c0.4-1.8,0-5.3-0.4-6.6c-0.9-2.6-2.6-5.7-3.1-6.6
		c-0.9-1.3-6.6-3.5-7.9-3.5l0,0c-0.4,0-0.4,0.4-0.4,0.4c0,0.9,3.5,3.1,4,3.5c2.2,1.3,4,4.9,4.9,7.1c0.4,1.8-0.9,6.6-1.3,7.5
		c-0.9,0.4-4.9,1.8-7.1,0.9c-1.3-0.4-2.6-0.9-3.5-1.8c-0.9-0.4-1.8-0.9-3.1-1.8c-1.8-0.9-4.9-4.4-6.6-6.2
		C336.7,280.4,338.5,277.7,338.5,277.7z M343.3,255.7c3.1,2.2,6.6,5.7,7.9,7.1l0.4,0.4c0.4,0.4,0.9,0.9,0.9,1.8
		c-2.6-0.4-5.3-0.9-6.6-0.9c-1.8,0-4.9,0.9-7.1,2.6c-0.4,0-0.4,0.4-0.4,0.4c-1.8-4.4-5.7-8.4-5.7-8.8c-2.6-2.6-2.2-4-2.2-4
		c0.4-0.9,0.9-2.2,1.3-3.1C334.5,251.7,339.3,252.6,343.3,255.7z M400.7,302.4c-0.4,2.2-1.3,5.7-2.2,7.5c-1.3,2.6-3.1,3.5-4.9,4.4
		c-0.9,0.4-2.6,0.4-3.5,0.4c-0.4-0.9-1.8-1.8-3.1-2.2c-0.9-0.4-1.8-0.9-2.2-1.3c-0.9-0.9-2.6-1.8-4-2.6c1.8-1.3,3.1-4,3.5-5.7
		c0.4-3.1,0.9-4.9,0.4-7.5v-0.4c0-2.2,0-4-0.4-5.3c1.3-1.3,4-3.5,8.4-2.6c3.5,0.9,6.6,8.4,7.9,12.4
		C401.1,299.8,401.1,301.1,400.7,302.4L400.7,302.4z M375.5,277.3c-2.2,0.4-5.3,0.9-6.6-0.4c-0.9-0.9-2.2-2.2-3.1-3.5
		c-0.9-1.3-1.8-2.2-2.2-3.1c-1.3-1.3-3.1-2.2-4.9-3.1c-0.4-1.3-2.6-4.9-4-5.7c-3.1-2.6-5.3-4.4-7.1-5.7c-0.9-0.4-1.8-1.3-2.6-1.8
		c-4.9-4-10.1-6.2-12.4-6.6c0.9-3.1,1.8-5.3,2.2-7.1c1.3,0.4,3.1,0.4,4.9,0.4c4.4,0.4,9.7,0.4,14.1,4c0.4,0.4,0.9,2.6,0.9,4.9
		c0.4,3.1,0.9,6.6,2.2,7.1c1.3,0.9,3.1,1.3,4.9,2.2c3.5,1.3,7.5,3.1,10.1,6.2C375.5,268.4,375.5,275.1,375.5,277.3z M384.8,328
		c-2.6-1.3-4.4-3.1-5.3-3.5L379,324c-4.4-3.5-6.6-4-6.6-4.4c-0.4,0-0.4,0-0.9,0l0,0c-1.3-1.3-3.1-3.5-2.6-4.9
		c0.4-1.8,1.3-3.1,2.2-3.5c0.9-0.4,4-0.4,6.2-0.4l0,0c1.8,0.9,5.3,3.1,5.3,3.1c2.2,1.3,3.5,3.1,4.4,5.3c0.9,3.1-0.4,7.5-0.9,8.8
		C385.7,328,385.2,328,384.8,328L384.8,328z M406.8,343c-0.4-0.9-1.3-2.6-2.2-4.4c-0.9-1.3-3.1-3.5-6.6-6.6
		c-0.4-0.4-2.2-0.9-4.4-1.8c0-0.4,0-0.9-0.4-0.9l-0.4-0.4c-0.9-0.9-0.9-0.9-0.4-3.1v-0.9c0-2.2,0-2.6,0-3.1c0-0.4,0-0.4,0-0.9
		s0-1.3-0.4-2.2c0.9,0,1.3-0.4,2.6-0.4c2.2-0.4,5.3-2.6,7.5-5.7c0.9-0.9,1.8-3.5,2.2-6.2c1.3-0.4,3.5-0.9,4.9-0.4
		c2.2,0.9,7.5,3.5,8.4,5.3c0.4,0.9,1.3,3.1,1.8,4.9c0,0.4,0.4,1.3,0.4,1.8l-8.8,0.9l-5.7,1.3l-6.2,2.6l1.8,1.8l0,0l0,0
		c0.4,0,6.2-0.9,6.6-0.9c8.8-2.6,14.1-0.9,14.6-0.9l0,0c0,0,0.4,0,0.4,0.4c0,0.4,0.4,0.9,0.4,0.9c1.3,1.8,2.2,3.5,2.2,4.4
		c0,0.9-0.9,4-2.6,6.6c-0.9,0.4-3.1,1.3-4.9,1.3l-3.5-0.4l-2.6-0.4c-0.4,0-1.3-0.4-1.8-0.4c0,0-1.3-0.4-2.2-0.9
		c-2.2-1.8-2.6-1.8-2.6-1.8s-1.8-0.4-3.1-0.9l-3.1-0.4l1.8,2.2l1.8,0.9l1.8,0.4l2.6,2.2l2.6,1.8l1.3,0.9l2.2,0.9l4,0.4h4.9
		c1.8,0.4,3.5,0.9,3.5,1.3l0.4,1.3c-0.4,0-0.4,0-0.9,0.4c0,0-4.9,3.1-13.7,3.1c-0.4,0-1.3,0-1.8,0L406.8,343L406.8,343L406.8,343z
		 M428.9,295.8c-0.4,1.3-0.9,2.6-1.3,3.5c-0.9-1.3-1.8-2.2-2.2-3.1c-0.4-0.9-0.4-1.8-0.9-2.6c-0.9-2.6-1.3-5.7-5.3-8.8
		c-2.6-1.8-6.6-3.1-10.1-4c-3.5-0.9-7.1-2.2-9.3-3.5c-1.8-0.9-2.6-4.9-4-8.8c-0.9-2.6-1.3-5.3-2.2-7.1c-1.8-4-5.7-4.9-9.3-5.3
		c-0.9,0-1.8-0.4-2.2-0.4c-3.1-0.9-10.1-6.2-14.6-16.3c-4.4-10.1-9.3-11-11.9-11.5h-0.4c-1.8-0.4-7.9,0-12.4,0.4
		c-1.8,0-3.1,0.4-3.5,0.4s-1.3-0.4-2.2-0.9c0.4-2.2,1.8-5.3,4.4-5.3c4.4,0,11.9,0,19.9,4.9c1.8,1.3,4,2.6,6.6,4
		c7.5,4.4,16.3,10.1,22.9,11.9h0.4c7.9,2.2,11.5,3.1,12.4,6.6c0.4,1.3,0.4,3.1,0.9,5.3c0.4,4.9,1.3,10.6,3.5,14.1
		c1.8,2.2,4.9,4.4,7.9,6.6c3.5,2.2,7.1,4.4,8.8,7.5C428.5,288.3,429.3,293.2,428.9,295.8z M431.1,397.7v-0.9h0.4l5.3,4l4.4,4.4
		c0,0,2.2,2.2,2.2,4.4v3.1h-0.9l-6.2-0.4l0,0l0,0c0,0-0.4,0.4-1.3,0l0,0l0,0c-0.4,0-3.1-0.4-4-3.1l0.4-4.9l0.4-2.2l0,0L431.1,397.7z
		 M462,410.1L462,410.1c-0.4,2.2-0.9,4-0.9,5.3c-1.3-1.3-3.5-2.6-6.2-2.6c-0.4,0-2.6-0.4-4-0.4h-4c-0.4-2.2-1.8-9.3-5.3-13.2
		c-2.6-2.6-4.4-4-6.2-5.3c-0.9-0.4-1.8-1.3-2.6-2.2c-2.6-2.2-7.1-5.7-7.1-5.7c-2.2-2.6-2.2-4.4,0.4-9.3c1.3-1.3,1.8-9.7,2.2-12.4
		c1.8-0.4,3.1-0.4,4.4-0.9c0,1.3,0,4.9,0.9,8.4c0.4,2.6-0.4,5.3-0.9,7.5c-0.4,1.3-0.9,2.6-0.4,3.1c0.4,1.3,5.7,6.2,7.9,7.5
		c0.4,0,0.9,0.4,1.8,0.9c2.6,1.3,7.5,3.5,9.3,4.9c1.3,0.9,3.5,3.1,5.7,5.3c1.3,1.3,2.6,2.6,3.5,3.5c0.9,0.4,1.8,2.2,2.6,3.1
		C462.4,409.2,462.4,410.1,462,410.1L462,410.1z M440.8,350.1L440.8,350.1l-0.9,3.1c0,0.4-0.4,0.9-0.4,0.9s0,0,0,0.4l-0.4,1.3
		c-0.9,3.1-14.6,6.2-20.3,7.1h-3.1H413h-1.3c0-0.9,0-1.8,0-1.8l-0.4-2.6c0.4-0.4,0.9-0.4,0.9-0.4c7.9,0,15-3.1,15-3.1
		c0.4,0,4.4-1.8,6.2-2.6c1.3-0.4,3.1-2.2,3.1-3.5c0-0.4,0-0.4,0-0.4c-0.4,0-0.9,0-1.8,0c-3.5,1.3-15,5.3-15.4,5.7l-2.6,0.4h-4
		c-1.3,0-2.2-2.2-2.6-4c0.4-0.4,1.3-1.3,5.3-1.3c0.4,0,1.3,0,1.8,0l0,0c0,0,12.4-2.2,19.4-7.5c0.4,0,1.8-0.4,3.1,0
		c0,0.9,0.4,1.8,0.4,1.8C441.2,347.9,440.8,350.1,440.8,350.1L440.8,350.1z M449.6,312.1c-0.9,15-7.5,20.7-9.3,22.1l0,0l0,0
		c-0.4,0.4-0.9,0.4-1.3,0.9c-1.3,1.3-3.1,2.6-5.3,4c-0.4,0-0.9,0.4-1.3,0.4c-0.4,0-0.9,0.4-1.3,0.4c-1.3-0.4-3.1-1.3-4-2.6
		c0.9-1.8,2.6-5.7,1.8-8.4c-0.9-2.2-2.2-3.5-2.6-4.9c-0.4-0.4-0.4-0.9-0.9-1.3c-0.4-0.4-0.4-1.8-0.4-3.5c-0.4-3.1-0.9-6.6-1.8-8.4
		c-2.6-3.5-7.5-7.1-9.7-8.4c-1.3-0.4-3.1-0.4-4.9-0.4c-0.9,0-2.2,0-2.6,0c0-4-4-14.6-7.5-18.1c-0.9-0.9-5.7-1.8-7.5-1.3
		c-1.8,0.4-6.2,0.9-7.5-0.9l-0.4-0.4c0-0.4-0.4-0.4-0.4-0.9s-0.4-0.4-0.4-0.9V279c0-0.4-4.4-13.2-5.7-17.2c-1.8-3.5-4.4-4.4-7.1-5.3
		c-2.6-0.9-6.6-2.2-8.4-3.5c-0.9-0.4-1.3-2.6-1.3-4.9c-0.4-3.1-0.9-6.6-3.1-8.4c-3.5-3.1-16.8-4.4-17.2-4.4c-0.4,0-1.3,0-2.2,0
		c0-0.4,0-0.9,0-0.9l0.4-4c1.3,0.4,3.1,0.4,4.9,0c2.6-0.4,7.9-1.3,11.9-0.9c2.6,0,4.4,2.2,6.6,4.4c0.4,0.4,1.3,1.3,1.8,2.2
		c1.3,1.3,2.6,4,4,6.6c1.8,3.5,4,7.5,7.1,10.1c4,3.5,10.1,6.2,13.7,7.9c0.9,0.4,1.8,0.9,2.2,0.9c1.3,0.4,1.3,1.3,1.8,3.5
		c0.4,1.3,0.4,2.6,1.3,4.9c2.2,6.2,5.3,8.8,8.4,10.6c1.8,1.3,5.7,2.6,9.3,4c3.5,1.3,7.5,2.6,8.8,3.5c1.3,0.9,1.8,3.1,2.2,5.3
		c0.4,1.8,0.4,3.5,1.3,4.9c1.3,1.8,4.4,4.4,7.1,6.6c1.8,1.3,3.1,2.6,4,3.5c1.3,1.3,2.2,3.5,2.6,4.9c0.4,1.3,0.4,1.8,0.9,1.8l0,0h0.4
		c0.9-0.9,0.4-3.5-0.4-7.1c-0.4-1.3-2.2-3.1-4.9-5.3c-0.4-0.4-0.9-0.9-1.3-1.3c1.3-1.3,2.6-3.5,2.6-6.2c0.4-4.4-1.3-10.6-3.5-13.7
		s-4.9-6.6-9.3-7.9c-0.9-0.4-1.8-0.4-2.2-0.9c-1.8-0.4-2.2-0.9-4-2.2c-2.2-2.2-4.4-12.4-4.9-19.9c-0.4-5.3-2.6-7.5-6.2-8.8
		c-1.8-0.9-5.3-1.8-9.3-2.6c-3.1-0.9-6.2-1.8-8.8-2.6c-3.5-1.3-10.6-6.2-15.9-9.7c-2.6-1.8-4.9-3.5-6.2-4c-4-2.2-20.7-5.3-24.3-4
		c-1.8,0.9-2.6,1.8-3.1,3.1c-0.4-0.9-1.3-1.3-1.3-1.3c-1.3-0.9-4.4-2.2-4.9-2.2s-0.4,0-0.9,0c0.9-0.9,2.2-1.8,4-2.6
		c2.6-1.3,7.9-2.2,11.9-2.2c4.4,0,6.2-0.9,6.2-0.9h0.4l-0.4-0.4c0,0-1.8-0.9-4.4-1.3c-1.8-0.4-5.7,0-9.3,0.4c-1.8,0-3.5,0.4-4,0.4
		c-2.2,0-8.4,4.9-9.3,5.3c-1.8-0.4-3.5-0.4-4.4-0.4c0,0,0,0-0.4,0c-1.8,0-5.3,0.4-5.7,0.4c-1.8,0.4-3.5,0.9-3.5,1.3
		c-0.9-1.3-1.3-3.1-1.3-4.9c0-1.8,0.9-3.5,1.8-4.4l0,0c1.8-2.2,6.2-5.3,6.2-5.3c1.3-0.9,14.1-6.6,27.8-7.1c12.4-0.4,23.8,0,34.9,1.3
		c8.4,0.9,31.3,11,31.3,11c7.1,3.5,12.4,11.5,12.4,11.5c4.4,4.4,13.7,26,13.7,26c5.7,19.4,6.6,22.5,7.1,23.4l0,0
		C443.9,270.7,448.7,286.1,449.6,312.1L449.6,312.1z M219.8,361.5c0.4-0.4,1.3-1.3,2.6-0.9c0.4,0.4,2.2,1.8,3.1,1.8c0,0,1.3,0,4,0
		c0.9,0,1.3-0.4,1.3-0.4c0.4-0.4,0-1.3,0-1.8s-0.4-0.4-0.9-0.4l0,0c-0.9,0-3.1,0-3.1,0l0,0l0,0c0,0,0,0-0.4,0
		c-0.4,0-0.9-0.4-2.2-2.2c-0.4-0.4-0.9-0.9-1.8-0.9c-0.4,0-0.9,0-1.8-0.4h-0.9c-0.4,0-0.9,0-0.9-0.4c-0.4-0.4,0-1.3,0-1.3l0.4-2.2
		c0-0.4,1.3-5.7,0-8.4c0,0,0.4,0,0.4,0.4l3.5,0.4l4.4,1.8c0,0,2.2,0.9,7.1-2.2l0,0l0,0c-0.4-4-4-9.3-4-9.3v-0.4l-0.9,1.8l0,0
		c0,0,0.9,2.6,1.3,3.1c0.9,2.2,0.9,3.1,0.9,3.5s-0.4,0.4-0.9,0.4l0,0c-1.3,0.4-4,0.9-5.7-1.3l0,0c0,0-2.6-1.8-6.6-2.2
		c0,0-4.9,0.4-6.2,0.4c-2.2,0-4-0.4-4.4-0.9c-0.9-0.9-0.9-2.2-0.9-3.5c0-0.4,0-0.9,0-1.3c0.4-0.9,4-7.5,7.1-10.1l1.8-2.2l5.3-8.8
		l4-5.3c0,0,4.9-4.9,4.9-8.8l0.4-4.9l0,0l0,0c0,0-0.4-2.6,0.9-5.7l2.2-4.4l2.2-6.2l1.8-6.2l0.9-8.4v-1.3c0.9-1.3,3.1-4.9,3.5-7.5
		c0.4-3.1,3.5-5.7,6.2-7.1c1.3-0.9,3.1-1.3,4-1.8c0.9-0.4,1.3-0.4,1.8-0.9l0,0c0,0,0.9-0.9,0.4-1.8c0-0.4-0.9-0.9-1.8-1.3l0,0
		c-0.9,0-4,1.8-4.9,2.2c-2.2,1.3-4.4,2.6-5.7,4c-0.9,0.9-1.8,2.2-2.6,3.1c-0.4,0.9-0.9,1.8-1.8,2.2l0,0c-0.9,0.9-1.3,1.3-2.2,1.8
		c-3.1-1.3-4.9-3.1-4.9-4.4c0,0,0-4.9,0-6.6s0-5.3,2.2-8.4c0.4,0.4,1.8,0.9,2.6,0.9c0.4,0,0.4,0,0.9,0c4,0,9.7-1.8,12.8-5.3
		c2.2-2.6,6.2-3.1,8.8-2.6c-0.4,0.4-0.4,0.4-0.9,0.9c-0.9,0.9-2.6,6.6-1.8,7.9c0,0.4,0.4,0.9,0.4,1.3c0.9,1.8,1.3,3.5,2.6,3.5h0.4
		c0.4-0.4,0-1.3,0-3.1c-0.4-2.2-0.9-4.9,0-6.6c3.1-5.3,9.3-10.1,14.1-12.4c5.7-2.6,10.1-3.1,12.8-1.8c2.2,1.3,4.4,4,6.2,5.7
		c0.9,0.9,1.8,1.8,2.6,2.6c1.3,1.3,3.5,1.8,5.3,1.8c-0.4,1.3-0.9,2.6-1.3,4.4c-1.3,0-4,0-6.6,0c-2.2-2.2-9.7-8.8-14.6-6.6
		c-5.3,2.2-9.3,5.3-10.6,7.1c-0.9,0.9-2.2,3.1-2.2,4.4c0,0.4,0,0.4,0.4,0.4c0,0,0,0,0.4,0c1.3,0,3.5-2.2,4.4-3.1
		c0,0,5.7-4.9,9.7-4.9l0,0c3.1,0,7.1,3.1,8.4,4.4c-0.4,0.4-0.9,0.4-1.8,0.9c-3.5,2.2-5.3,4-6.2,5.3c-0.4,0.4-0.4,0.4-0.9,0.9l0,0
		c-2.6,2.6-4.4,4-5.7,4l0,0c-1.3,0-4-1.3-5.7-2.2c-0.9-0.4-1.8-0.9-2.6-0.9c-1.3-0.4-3.1,0-4.9,0.9c-0.9,0.4-2.2,1.3-2.6,2.6v0.4
		c0.4,0.4,1.8,0.4,4.4,0c0.9,0,1.3,0,1.8,0c0.9,0,3.5,1.3,5.3,2.2c1.3,0.4,2.2,0.9,2.6,1.3c0.4,0,0.4,0,0.9,0c2.6,0,7.1-3.5,7.5-4
		c0.4-0.4,1.3-1.3,1.8-2.2c1.8-2.2,4-5.3,7.5-7.1c3.1-1.8,5.7-1.3,7.5-0.9c-0.4,1.3-0.9,2.6-1.3,4c0,0.4-0.4,0.9-0.4,1.3
		c-0.9,0.4-1.8,0.9-2.6,2.2c-4.9,4.4-10.6,7.5-14.1,9.3H278c-2.6,1.8-10.1,0-13.2-0.9c-0.4,0-0.4,0-0.4,0v0.4c0.4,0.9,2.6,3.1,6.2,4
		c0,0,1.3,0.4,3.5,0.4c3.1,0,7.9-0.4,11.9-3.5l7.5-5.7c0,0.4,0,0.4,0,0.4c-0.4,0.9-3.5,7.9-4,9.3c-1.3,6.6-3.5,10.1-3.5,10.1
		l-17.6,27.4c-2.2,4-2.2,7.5-1.8,9.3c0.4,1.8,0.9,2.6,3.1,2.6c0.9,0,2.2,0,3.1,0c0.9,0,1.8,0,2.6,0c0,0,0,0,0.4,0
		c2.6,0,3.1,2.2,3.1,2.2c0,0.4,0,7.9,0,8.8c0,0.9,0.4,4.9,0.4,4.9s0,2.6,3.1,4c0.4,0.4,0,1.3-0.4,2.2c-0.4,0.4-1.3,5.3-0.9,5.7
		c0,0,0,0,0,0.4c0,0.4,0.4,0.9,1.3,1.3c3.5,1.3,3.5,4,3.5,4l0,0c0.4,0.9-1.8,5.3-3.1,7.9c-2.2,3.5-1.3,13.7-1.3,14.1
		c1.3,4.9,10.6,7.1,11,7.1c9.3,0.4,15.9,1.3,15.9,1.3h2.6c-0.4,0.4-0.4,0.4-0.9,0.9l-16.8,14.1c0,0-19.4,17.6-34.9,17.6
		c-0.4,0-0.4,0-0.9,0s-2.6,0-4.9-0.4c-2.6,0-4-0.4-4.4-0.4c0,0-0.4,0-0.9,0c-1.8-0.4-6.6-1.3-11-1.3c-10.1,0-16.8-4-17.2-11
		c-0.9-4.9,0-7.5,0.4-7.9c0.4-0.4,4.9-5.3,4.9-7.5c0,0-0.9-4.4-2.6-5.7l0,0l0,0c-1.3,0.4-2.2,0-2.6-0.9
		C217.6,366.4,218,363.3,219.8,361.5L219.8,361.5z M397.6,380.1c0-3.5,2.2-7.9,2.2-8.4c3.5-4,6.6-4.4,6.6-4.4c1.8,0,2.6-0.4,3.5-1.3
		c1.8,0,3.1,0,4.4,0c-1.3,1.8-9.7,13.2-3.5,21.2c4.4,5.7,8.8,14.1,8.4,17.2c0,0.4-0.4,0.9-0.9,1.3l0,0c-1.3,1.8-2.6,2.2-4,2.2
		c-1.8-0.4-2.2-2.6-2.2-3.1l-2.2-4.4l-1.3-4.9c-0.4-1.3-3.1-4.9-3.1-4.9l-1.3-1.8l-1.3-1.3l-1.8-2.2l-1.8-1.3l-0.9-0.9
		c0,0,0,0-0.4,0C397.6,382.3,397.6,380.9,397.6,380.1z M406,421.5l-2.6-1.8c0,0-0.4-0.4-0.9-1.3l-2.6-6.2l0,0c0,0-3.5-4.4-6.2-4.9
		h-0.4c-1.3,0-2.2,0-2.6,0c0,0,0,0-0.4,0s-2.6,0.9-3.5,1.3h-2.2c-1.8-4.4-0.4-9.3,0.9-11.5c0.4-0.4,1.3-1.3,2.2-1.3
		c1.3-0.4,3.1,0,4.9,1.3l4.9,4.9l3.1,4c0.4,0.9,4.9,7.5,6.2,8.4l0,0h0.4h0.4c0.4-0.9-0.9-4-1.8-5.7c-0.4-0.4-0.9-1.3-1.3-2.2
		c-1.8-3.1-4-7.1-6.6-9.3c-0.4-0.4-0.4-0.4-0.9-0.9c-2.6-2.6-4.9-4.4-8.4-5.3c2.6-3.1,6.6-3.5,8.4-4l0,0l2.2,1.3l1.8,1.3l2.2,2.6
		l1.8,2.2l1.8,4.9l0.9,3.5l1.8,3.1l3.5,4.9l0,0c0.9,0.9,2.2,0.9,3.5,0.9c0.4,0,0.9,0,1.3,0c2.2-0.4,4-2.6,4.9-4.4
		c3.5-7.5-7.5-23.8-8.4-25.1c-0.9-7.1,4.4-14.6,5.7-16.3c2.6,0,4.9,0,6.6-0.4v0.9l-0.9,4.9c-0.4,0.9-0.9,3.1-1.8,3.5
		c0,0-2.6,3.5-3.1,7.5c0,0.4,0,3.1,0.4,4c2.6,3.1,6.6,8.4,6.6,8.8l0,0c1.3,9.7,0.4,11.9-2.2,16.8c-0.4,1.3-1.3,2.6-2.2,4.4l-2.6,2.6
		c-2.2,3.1-7.9,3.1-8.4,3.1L406,421.5C406.4,422.4,406,422,406,421.5L406,421.5z M392.7,421.1c2.2-1.3,4.9-1.8,7.1-0.9l3.5,3.1
		c0,1.3-0.4,4-3.5,5.3l0,0c-2.2,2.6-4.4,4.4-6.2,4.4l0,0c-1.8,0-2.2-1.3-2.2-1.3l0,0c-0.9-0.4-1.8-1.3-2.2-2.2
		C389.2,427.7,389.2,423.3,392.7,421.1z M386.1,414L386.1,414c0,0,0-1.3,0.9-2.2c0.9-0.9,2.6-1.8,4.9-1.8c0,0,3.1,0,4,2.6l0,0
		c0,0,1.8,1.8,1.8,3.5c-0.9,0-4.4,0.4-7.1,2.6c-2.2,1.3-3.5,3.5-4,4.9c-0.9-3.1-0.9-6.2-0.9-8.4L386.1,414z M462.9,423.7
		c2.6,4.4,1.3,13.7,1.3,13.7c-1.3,7.9-8.4,10.1-11,11c-5.7,1.3-11.5,0-14.1-3.5c-1.3-1.8-1.8-4.4-1.3-7.1c0,0,0-0.4,0.4-0.4
		c0.9-2.2,2.2-6.6,11.9-7.1c1.8,0,4.9,2.6,4.9,4.4c0,0.9-0.9,1.3-2.2,1.3h-0.4c-0.9,0-1.3,0-1.3,0c-0.9,0-1.8,0.4-2.2,0.9
		c-0.4,0.4,0,0.9,0,0.9s0.9,2.2,4.4,2.2c0.4,0,0.4,0,0.9,0h0.4c0.9,0,1.8,0,1.8,0c3.5-0.9,3.1-5.7,3.1-6.2c0-3.5-3.5-5.3-3.5-5.3
		l-3.5-2.2l-2.2-0.4l-4,0.4c-4.9,0.9-7.1,4.4-7.9,6.2c-5.3-4.4-6.2-7.9-6.2-7.9l-2.2-6.2c0.4-0.9,0.9-1.8,1.8-3.1l1.8,0.4
		c0,0,4.9,1.3,9.7,1.3c0.4,0,1.3,0,1.8,0s5.7-0.4,5.7-0.4h3.5c0,0,5.3,1.3,7.5,3.5l1.3,1.8C462.9,422.9,462.9,423.3,462.9,423.7
		L462.9,423.7z M469.5,383.2c-3.1-2.6-2.2-5.3-2.2-5.3l0.9-11.5c0-5.7-2.2-10.1-2.2-10.1c-0.9-2.6-4.9-4.4-5.3-4.9
		c-2.6-0.4-5.7-0.4-7.1-0.4c-0.4,0-0.4,0-0.4,0c-6.6,0.4-8.4,1.3-9.3,1.8c-0.4,0-0.4,0.4-0.9,0c0,0,0-0.4,0.4-0.9
		c0.4-0.9,0.9-2.6,0.4-4.9c-1.3-3.5-1.3-7.5-1.3-8.4l4.9-7.1c7.1-12.4,5.7-27.4,5.7-27.4c-1.8-25.6-6.6-39.7-6.6-39.7
		c-7.1-22.9-18.1-43.7-18.1-43.7c-14.1-22.5-44.1-26.9-44.6-26.9c-14.6-3.1-40.1-1.8-40.6-1.8c-13.2,0.9-20.7,4.4-20.7,4.4
		s-11.9,4.9-16.8,12.4c0,0-0.9,1.8-1.3,3.1c-0.9,0.9-4.9,3.1-10.6-0.4c-4.9-2.2-5.7-11.9-5.7-11.9s-1.3-3.5-4.9-3.5
		c-11.9-1.8-19,2.6-19,2.6c-0.4,0-6.2,4.9-8.4,9.7c-1.3,0-7.5,1.3-14.6,11.9l-5.7,7.1l-7.9,7.1l0,0c0,0.4-3.1,6.6-1.3,18.5
		c0.4,0.9,2.6,2.6,7.1,5.3l0,0c0.9,1.3,0.9,13.7-1.3,16.8c0,0.4-2.2,5.7-2.6,6.6l-2.6,4.4c-0.4,0.4-1.8,1.8-1.8,6.2v3.5
		c0,0-0.4,5.3-2.2,7.5l-5.7,7.9l-5.3,7.5c0,0-3.5,6.2-4.4,7.5c0,0.4-0.4,0.4-0.9,0.9c-1.3,1.8-3.5,4-4,7.1c0,0,0,4,2.6,6.6
		c1.3,1.3,3.5,2.2,6.2,2.2h0.4h2.6l0,0c0,0.4,0,1.3,0,2.2l0.4,2.2l-0.4,4.9c0,0-0.9,4,0,5.7c0,0,1.3,1.3,0.9,2.2l-0.4,2.2l-0.4,1.3
		c0,0.4-0.9,4,0.9,4.9l2.2,1.3c0,0,2.6,2.2,1.3,4.9l-2.2,3.5c0,0-1.8,2.2-2.2,5.3c0,0-1.3,6.6,2.2,12.4c2.6,4,7.1,6.6,13.2,7.5
		l11.9,1.3l12.8,2.2c0,0,3.5,0.9,3.5,5.7v1.8c0,0,0.4,3.5,1.8,6.2l2.6,6.2l3.1,5.7l3.1,7.5c0,0,2.6,6.6,2.6,15l-0.4,15.4v0.4h4.4
		h0.4v-21.2c0,0-0.9-8.4-4.4-14.6l-2.6-5.3l-4-6.6c0,0-2.6-5.3-3.5-12.8v-4c1.3-0.4,8.4-2.6,15-5.7c0.9-0.4,11.9-7.5,16.3-11
		c8.8-7.5,11-9.3,11.9-10.1l0,0l0,0c0.9-0.9,7.1-6.2,9.3-9.7h1.8l0,0c0.4,0,0.9,0,1.3,0.4c1.8,1.3,1.8,6.2,1.8,6.2L327,414
		l-10.6,15.9l-11.5,26.9l-9.3,32.6v0.4h6.2v0.9c0.4-26.5,20.7-63.1,20.7-63.5l19.4-26.5l21.6-23.8l19-19.9
		c0.4-0.4,15.4-10.6,17.2-11.9c0.4-0.4,0.9-0.4,1.3,0c1.3,0.4,1.8,2.6,1.8,2.6c1.8,3.5,2.6,7.1,2.6,7.1c1.8,5.7,1.3,7.5,0.9,8.4
		c-0.4,0.4-0.9,0.4-0.9,0.4l0,0l0,0c-6.6,0.9-9.7,5.7-9.7,5.7c-3.5,5.7-2.6,12.4-2.2,14.6v0.4c-0.4,0-0.9,0-0.9,0
		c-7.9,0-10.1,6.2-10.1,6.2c-5.3,10.1-1.3,20.7-1.3,20.7s1.3,6.6,0.9,11.5c0,0.9-0.4,7.5,2.6,9.3c2.2,1.8,4,2.2,4.4,2.2
		c0.4,0.4,1.8,3.1,4,3.5c0.4,0,0.4,0,0.4,0c2.6,0,4.9-1.8,7.1-5.3v-0.4c0.4-0.4,5.3-4.9,5.3-4.9s2.6-1.8,6.6-0.9
		c0.4,0,4.9-0.4,5.7-0.4c4-0.4,6.2-3.1,7.1-4.9c0.4,3.1,1.8,12.4,8.8,14.6c-0.4,1.3-0.4,3.1-0.4,3.1c-1.8,7.1,3.5,11,3.5,11
		c11.5,7.1,22.9,0.4,22.9,0.4c7.1-4,7.5-13.7,7.5-13.7c0.9-7.5,0-12.4,0-12.4l0,0c-6.2-9.7,0-16.8,0-16.8c2.2-1.8,3.5-5.7,4.4-11.5
		l0,0C473.9,386.7,469.5,383.2,469.5,383.2L469.5,383.2z"/>
	<path id="path134" class="st1" d="M239.2,305.5c0-1.3,0-3.1,0-4.4c0-0.4,0-0.9,0-0.9c0-0.4,0.4-0.9,0.4-0.9c0.4,0,0.9,0,1.8,0h0.4
		c0.9,0,1.3,0,2.2,0s2.6,0.4,3.1,0.4c0.4,0,0.4,0.4,0.9,0.4c0.4,0.4,0.9,0.4,1.3,0.9c0.4,0,0.4,0,0.9,0.4c0.9,0.4,2.6,0.9,3.1,1.3
		c0.9,0.4,2.2,2.6,2.6,3.1c0.4,0.4,0.9,1.3,1.3,1.8c0.4,0.4,1.3,0.9,1.8,0.9c0.9,0.4,1.8,0,1.8,0h0.4l-0.4-0.4
		c-0.4-0.4-1.8-2.6-3.1-4.9c-1.3-2.2-2.2-3.1-2.2-3.5c-0.4-0.4-0.9-0.9-1.8-0.9c-0.4,0-0.9-0.4-1.3-0.4c-0.4,0-0.9-0.4-1.3-0.4
		s-0.9-0.4-1.8-0.9c-0.4-0.4-1.3-0.4-1.8-0.9c-0.4,0-0.4-0.4-0.9-0.4c-1.3-0.4-3.1-1.3-4-1.3c-1.8,0-7.5,0-7.9,0.4s-0.9,0.9-0.9,1.3
		c0,0.4,0.4,0.9,0.4,1.8c0,0.4,0.4,0.4,0.4,0.9c0,0,0.4,0.9,0.4,1.8s0,3.5,0,4.9c0,1.3-0.4,1.8-0.4,2.6v0.4c0,0.4-0.9,1.3-1.3,1.8
		c-0.9,0.9-0.9,1.3-0.9,1.3l0,0l0,0c0,0,0,0,0.4,0c0.9,0,3.5-0.4,4-0.9C237.9,310.8,239.2,307.3,239.2,305.5L239.2,305.5z"/>
	<path id="path136" class="st1" d="M254.2,309l-0.4-0.4c-0.4-0.4-0.9-0.9-1.3-1.3c0,0-0.4-0.4-0.9-0.4c-0.4,0-0.4-0.4-0.4-0.4
		c-0.4,0-0.4-0.4-0.9-0.4h-0.4c0,0-1.3-0.9-1.8-0.9l0,0c-0.4,0-0.9-0.4-1.3-0.4c0,0,0,0-0.4-0.4l-0.4-0.4c-0.4,0-2.6-0.4-2.6-0.4
		l0,0c-0.4,0-1.3,0.9-1.8,0.9c0,0,0,0.4,0,0.9l0.4,0.9c0,0,0.4,0.4,0.9,0.4c0,0.4-0.4,1.3-0.4,2.2c0,0.9,0,1.8,0,2.6
		c0,0.4,0.9,1.8,1.3,2.2s1.3,0.9,1.3,0.9l0,0c0,0,0.4,0,0.4-0.4c0.4-0.4,0.4-0.9,0.4-1.3c0-1.3-0.4-1.8-0.4-2.2v-0.4
		c0-0.4,0.4-1.3,0.9-2.2c0.4,0,0.4,0,0.9,0.4c0.4,0.4,2.2,1.8,2.6,2.2l0.4,0.4c0.4,0.4,0.9,0.4,0.9,1.3c-0.4,1.3-0.9,1.8-1.8,1.8
		c-0.4,0.4-1.8,0.9-2.2,0.9c-0.9,0-2.2,0.4-2.6,0.4c-0.4,0-1.8,0-1.8,0l0,0c0,0-0.9,0.4-0.9,0.9c0,0.4,0.4,0.9,0.4,0.9h2.2
		c0,0,0.9,0,1.3,0c0,0,0.4,0,0.9,0c0.4,0,1.3,0,1.3,0c0.4,0,1.8-0.4,2.2-0.9c0.9-0.4,3.5-1.8,4-2.2c0.4-0.4,0.4-0.9,0.9-0.9
		c0-0.4,0-0.9,0-1.3C255.1,310.4,254.6,309,254.2,309z"/>
	<path id="path138" class="st1" d="M298.7,263.2C298.7,263.2,299.2,263.2,298.7,263.2c1.3,0,5.7,0.9,7.5,1.8
		c1.8,0.4,2.6,0.9,3.1,1.3s2.6,2.2,4,3.5c0.4,0.4,0.9,0.9,1.3,0.9c0.4,0.4,0.9,0.4,0.9,1.3c0,0,0,0.4,0.9,0.4c0,0,0.4,0,0.9,0
		c0.9,0,1.3-0.4,1.8-0.9c0.4-0.4,0.4-0.9,0-0.9c-0.4-0.9-0.4-0.9-0.4-0.9s-0.4,0-0.9-1.3c-0.9-0.9-1.8-1.8-2.6-2.6
		c-0.4-0.4-0.9-0.4-0.9-0.9c-1.8-1.3-2.6-2.2-3.5-2.6c0,0-0.4,0-0.4-0.4c-1.3-0.9-5.3-3.1-10.1-3.1l0,0c-1.3,0-4,1.8-4.4,2.2l0,0
		l0.4,1.8l0,0C296.5,263.2,297.9,263.6,298.7,263.2L298.7,263.2z"/>
	<path id="path140" class="st1" d="M316.8,279c0.4,0,0.4,0,0.9,0s0.9-0.4,0.9-0.4s0-0.4,0.9-0.9c0.4,0,0.4-0.4,0-0.4
		c-0.4-0.4-5.3-0.9-6.2-0.4c-0.4,0-1.3,0.4-2.2,0.4c-1.3,0.4-2.6,0.4-3.1,0.9c-0.4,0-0.9,0.4-1.3,0.4c-1.3,0.4-2.2,0.9-2.2,1.8
		c0,0.4,0,0.4,0.4,0.4c0,0,0.4,0,0.9,0c0.9,0,2.2-0.4,3.5-0.9c0.4,0,0.9-0.4,0.9-0.4c0.9-0.4,0.9-0.4,1.8-0.4c0.4,0,0.9,0,2.2-0.4
		C315.5,279,316.4,279,316.8,279L316.8,279z"/>
	<path id="path142" class="st1" d="M305.8,270.2c1.3,0.4,4,2.2,4.4,3.1l0,0c-0.4,0.4-1.3,0.9-2.6,1.3c-2.2,0.9-2.6,1.3-3.1,1.8l0,0
		l0,0c0,0,0,0,0.4,0l0,0c0.9,0,5.3-1.3,6.2-1.8c0.9-0.4,1.3-1.8,1.8-1.8l0,0l-0.4-1.3l0,0c0-0.4-0.4-0.9-0.9-1.8
		c-0.9-0.9-4.9-3.5-6.2-3.5c0,0-7.1-1.3-7.9-0.4c-0.9,0.4,0,2.6,0,2.6l0,0l0,0l0,0c0.4,0,1.3,0,2.2,0c0,0.9,0,1.8,0,2.2v0.4
		c0,0.9,0,1.3,0.9,2.2c0,0,0,0.4,0.4,0.4c0.4,0.4,0.4,0.9,1.3,0.9h0.4c0.9,0,0.9-1.3,0.9-2.2c0-0.4,0-0.9,0-1.3
		c0-0.9,0.4-1.8,0.9-2.2C304.5,270.2,304.9,270.2,305.8,270.2L305.8,270.2z"/>
</g>
</svg>
