<?xml version="1.0" encoding="utf-8"?>
<!-- Generator: Adobe Illustrator 25.1.0, SVG Export Plug-In . SVG Version: 6.00 Build 0)  -->
<svg version="1.1" id="Layer_1" xmlns="http://www.w3.org/2000/svg" xmlns:xlink="http://www.w3.org/1999/xlink" x="0px" y="0px"
	 viewBox="0 0 95.3 94.1" style="enable-background:new 0 0 95.3 94.1;" xml:space="preserve">
<path d="M90.8,57l1.9,0.3l0.9-5.5L93,51.7c-0.2,0.4-0.3,0.8-0.4,1.2L87.2,52c0-0.4,0-0.8,0-1.2l-0.7-0.1l-0.9,5.5l2,0.3l0.2-0.9
	c-0.3-0.1-0.7-0.3-1-0.4l0.3-2l2.4,0.4L89.1,55c-0.3,0-0.5,0-0.8,0l-0.1,0.8l2.4,0.4l0.1-0.8c-0.2-0.1-0.5-0.2-0.7-0.3l0.2-1.3
	l2.2,0.4l-0.3,2h-1.2L90.8,57z M91.2,33.8c0,0.4,0.1,0.8,0.2,1.2L89,35.8c-0.8,0.2-1.5,0.5-2.3,0.8l0,0c0.4-0.4,0.9-0.9,1.2-1.3
	l3.2-3.9l-0.9-2.8l-0.7,0.2c0,0.4,0.1,0.8,0.2,1.2l-5.2,1.7c-0.2-0.4-0.3-0.8-0.6-1.2l-0.7,0.2l1.2,3.4l0.7-0.2
	c0-0.4-0.1-0.8-0.2-1.2l2.9-1c0.6-0.2,1.2-0.4,1.8-0.6l0,0c-0.4,0.4-0.8,0.8-1.2,1.3l-3.3,4l0.5,1.6l6.1-2c0.1,0.3,0.3,0.6,0.5,0.9
	l0.7-0.2l-1.1-3.2L91.2,33.8z M87.8,65.1l2,0.7c0.3-0.5,0.6-1,0.8-1.6c0.8-1.8,0.1-3.9-1.7-4.8c-0.2-0.1-0.4-0.2-0.6-0.2
	c-1.6-0.8-3.6-0.1-4.4,1.5c-0.1,0.2-0.2,0.4-0.2,0.7c-0.3,0.7-0.4,1.4-0.4,2.2l1.2,0.3c0-0.6,0.1-1.2,0.3-1.8c0.3-1.2,1.5-2,2.8-1.7
	c0.2,0,0.4,0.1,0.6,0.2c1.5,0.5,2.3,1.6,1.7,3.1c-0.1,0.3-0.3,0.6-0.4,0.9c-0.4-0.1-0.8-0.2-1.2-0.3L87.8,65.1z M81.9,65.7L80,68.9
	l0.6,0.4c0.3-0.3,0.5-0.6,0.8-1l4.7,2.7l-0.8,1.4c-0.3-0.2-0.7-0.3-1.3-0.5l-0.4,0.8l2,1.2l3.4-5.8l-2-1.2l-0.4,0.7
	c0.4,0.4,0.7,0.6,1.1,0.8L86.7,70L82,67.3c0.2-0.4,0.3-0.8,0.4-1.2L81.9,65.7z M78.5,45.1c-0.1-0.4,0.2-0.8,0.6-0.9
	c0.1,0,0.1,0,0.2,0l1.7-0.1c0,0.2,0.1,0.3,0.1,0.5h0.3L81.4,43h-0.3c0,0.2,0,0.3,0,0.5l-1.8,0.1c-0.8,0-1.2,0.6-1.2,1.5
	c0,0.8,0.5,1.4,1.3,1.4c0.1,0,0.1,0,0.2,0l1.7-0.1c0,0.2,0.1,0.3,0.1,0.5h0.3l-0.1-1.6h-0.3c0,0.2,0,0.3,0,0.5l-1.6,0.1
	c-0.4,0.1-0.9-0.2-1-0.6C78.6,45.3,78.6,45.2,78.5,45.1 M80.6,36.1c0,0.2,0,0.3,0.1,0.5l-1.2-0.1c-0.3,0-0.6-0.1-0.9-0.1l0,0
	c0.2-0.2,0.4-0.4,0.6-0.5l0.9-0.9c0.1,0.1,0.1,0.3,0.2,0.4l0.3-0.1l-0.5-1.5l-0.3,0.1v0.4l-1.9,1.9l-1.1,0.4
	c-0.1-0.2-0.2-0.4-0.3-0.5l-0.3,0.1l0.6,1.6l0.3-0.1c0-0.2,0-0.4-0.1-0.6l1.1-0.4l2.7,0.4c0.1,0.1,0.1,0.2,0.2,0.4l0.3-0.1L80.9,36
	L80.6,36.1z M76.8,30.2c0,0.2,0.1,0.3,0.2,0.5l-0.9,0.5l-0.9-1.5l0.9-0.5c0.1,0.1,0.2,0.3,0.3,0.4l0.3-0.2L75.8,28l-0.3,0.2
	c0.1,0.2,0.1,0.4,0.2,0.5L73.5,30c-0.1-0.2-0.2-0.3-0.4-0.4l-0.3,0.2l0.9,1.4L74,31c0-0.2-0.1-0.3-0.2-0.5l1-0.6l0.9,1.5L74.7,32
	c-0.1-0.1-0.2-0.3-0.3-0.4l-0.3,0.2l0.8,1.5l0.3-0.2c-0.1-0.2-0.1-0.4-0.2-0.5l2.2-1.3c0.1,0.2,0.2,0.3,0.4,0.4l0.3-0.2l-0.8-1.4
	L76.8,30.2z M75,66.8l-2.1-1.5c0.1-0.2,0.2-0.3,0.3-0.5l-0.3-0.2l-1,1.4l0.3,0.2c0.1-0.1,0.3-0.3,0.4-0.4l2.1,1.5
	c-0.1,0.2-0.2,0.3-0.3,0.5l0.3,0.2l1-1.4l-0.3-0.2C75.2,66.5,75.1,66.7,75,66.8 M73.2,69l-1.9-1.7c0.1-0.2,0.2-0.3,0.3-0.5l-0.3-0.2
	l-1.7,2l0.7,0.6l0.3-0.3c-0.1-0.2-0.2-0.3-0.3-0.4l0.6-0.7l0.9,0.7L71.4,69c-0.1-0.1-0.2-0.1-0.3-0.2l-0.2,0.3l0.9,0.7l0.2-0.3
	c-0.1-0.1-0.1-0.2-0.2-0.3l0.4-0.5l0.8,0.7l-0.6,0.7l-0.4-0.3l-0.3,0.3l0.7,0.6l1.7-2l-0.3-0.2C73.5,68.8,73.4,68.9,73.2,69
	 M70.5,72l-1.7-1.9c0.1-0.1,0.3-0.3,0.4-0.4l-0.3-0.3l-1.3,1.1l0.2,0.3c0.2-0.1,0.3-0.2,0.4-0.3l0.9,1.2c0.2,0.3,0.4,0.5,0.6,0.6
	l0,0c-0.2-0.1-0.5-0.2-0.8-0.3l-2.3-0.7l-0.6,0.5l1.9,2.3c-0.1,0.1-0.2,0.2-0.3,0.4l0.2,0.3l1.2-1L69,73.4c-0.2,0.1-0.3,0.2-0.4,0.3
	l-0.7-0.9c-0.3-0.4-0.6-0.7-0.8-0.9l0,0l0.8,0.3l2.3,0.7l1-0.9L71,71.7C70.8,71.8,70.6,71.9,70.5,72 M65.9,75.6l-1.4-2.1
	c0.2-0.1,0.3-0.2,0.4-0.4l-0.1-0.3l-1.5,0.9l0.2,0.3c0.2-0.1,0.4-0.2,0.5-0.2l1.4,2.1l-0.6,0.4c-0.1-0.2-0.3-0.3-0.4-0.5L64,76
	l0.6,0.9l2.6-1.7l-0.6-0.9l-0.3,0.2c0.1,0.2,0.2,0.4,0.3,0.6L65.9,75.6z M63,77.4l-1.2-2.3c0.2-0.1,0.3-0.2,0.5-0.3l-0.2-0.3
	l-1.5,0.8l0.2,0.3c0.2,0,0.4-0.1,0.5-0.2l1.2,2.3c-0.2,0.1-0.3,0.2-0.5,0.3l0.2,0.3l1.5-0.8l-0.2-0.3C63.4,77.2,63.2,77.3,63,77.4
	 M58.6,77.2c-0.2-0.4,0.2-0.7,0.5-0.8c0.1-0.1,0.3-0.1,0.5-0.1l0.3,0.5l0.4-0.1l-0.4-0.9c-0.3,0-0.6,0.1-0.9,0.2
	c-0.7,0.3-1.2,0.9-0.9,1.6c0.4,1,1.9,0,2.2,0.7c0.1,0.3,0,0.6-0.5,0.7C59.5,79,59.4,79,59.3,79c-0.1-0.2-0.2-0.3-0.3-0.5l-0.4,0.1
	l0.4,0.9c0.3-0.1,0.5-0.1,0.8-0.3c0.8-0.3,1.2-0.9,0.9-1.5C60.3,76.8,58.8,77.9,58.6,77.2 M73.8,63c-0.2,0.3-0.3,0.6-0.4,1l0.5,0.2
	c0-0.3,0.1-0.6,0.3-0.8c0.2-0.6,0.9-0.8,1.4-0.6c0.1,0,0.2,0.1,0.3,0.2c0.6,0.4,0.9,0.9,0.5,1.6c-0.1,0.1-0.2,0.2-0.3,0.3l-0.6-0.2
	L75.3,65l0.9,0.5c0.2-0.2,0.4-0.4,0.5-0.7c0.5-0.8,0.4-1.8-0.4-2.4c-0.1-0.1-0.2-0.1-0.3-0.1c-0.7-0.5-1.6-0.4-2.1,0.3
	C73.9,62.8,73.8,62.9,73.8,63 M78.9,60.2c0.4,0.2,0.5,0.6,0.3,1.2c-0.1,0.1-0.1,0.2-0.2,0.3c-0.2-0.1-0.4-0.1-0.6-0.2L78.3,62
	l0.9,0.4c0.2-0.2,0.3-0.5,0.4-0.7c0.4-0.9,0.2-1.6-0.5-1.9c-1.3-0.6-1.8,1.4-2.7,1c-0.5-0.2-0.5-0.7-0.3-1.2
	c0.1-0.2,0.2-0.3,0.3-0.4c0.2,0.1,0.4,0.1,0.6,0.2l0.2-0.4l-1-0.4c-0.2,0.2-0.4,0.5-0.5,0.8c-0.4,0.7-0.1,1.6,0.6,1.9c0,0,0,0,0,0
	C77.5,61.8,78,59.8,78.9,60.2 M78.6,51L78.6,51c0.2-0.1,0.5-0.2,0.8-0.3l2.1-1.1l0.1-1.4h-0.3c-0.1,0.2-0.1,0.4-0.1,0.6l-2.6-0.3
	c0-0.2,0-0.4,0-0.6h-0.3l-0.2,1.6h0.3c0.1-0.2,0.1-0.3,0.1-0.5l1.4,0.1h0.9l-0.7,0.3L78,50.6L78,51.4l3,0.3v0.5h0.3l0.2-1.5h-0.3
	C81,50.8,81,51,80.9,51.1L79.8,51C79.4,51,79,51,78.6,51 M78,40.7c-0.1-0.7,0.3-1.2,1.1-1.3c0.6-0.2,1.2,0.2,1.4,0.8c0,0,0,0,0,0
	c0.1,0.6-0.3,1.2-1.1,1.3C78.8,41.7,78.2,41.3,78,40.7C78,40.7,78,40.7,78,40.7 M77.5,40.7c0.1,0.9,1,1.6,1.9,1.4c0.1,0,0.1,0,0.2,0
	c0.8,0,1.5-0.8,1.4-1.6c0-0.1,0-0.2,0-0.3c-0.2-0.9-1-1.6-2-1.4c0,0-0.1,0-0.1,0c-0.8,0.1-1.5,0.8-1.4,1.6
	C77.4,40.5,77.5,40.6,77.5,40.7 M80.7,55.3c0.3-0.9-0.2-1.9-1.1-2.2c-0.1,0-0.2,0-0.2-0.1c-0.8-0.3-1.8,0.2-2,1.1
	c0,0.1,0,0.2-0.1,0.2c-0.1,0.4-0.1,0.8-0.1,1.3l1.2,0.3c0,0.1,0,0.3,0,0.4l0.3,0.1l0.4-1.5l-0.3-0.1c-0.1,0.1-0.1,0.3-0.2,0.5
	l-0.8-0.2c0-0.2,0-0.4,0-0.6c0.2-0.7,1-1.1,1.7-0.9c0.7,0.2,1.1,0.9,0.9,1.6c-0.1,0.2-0.1,0.3-0.2,0.5h-0.6l-0.1,0.4l1,0.2
	c0.2-0.3,0.3-0.6,0.4-0.9 M78.5,72.1c0.4,0.3,0.9,0.2,1.2-0.2c0,0,0,0,0,0c0.3-0.4,0.2-0.9-0.2-1.2c-0.4-0.3-0.9-0.2-1.2,0.2
	C78.1,71.3,78.1,71.8,78.5,72.1C78.5,72.1,78.5,72.1,78.5,72.1 M76,83.4c-0.3,0.3-0.6,0.6-0.9,0.9l0.5,0.6l2.8-2.2l-0.5-0.6
	c-0.3,0.2-0.6,0.3-0.9,0.5l-4-5.1L72.2,78l-1.1,1.6l0.8,0.7l0.7-1.2L76,83.4z M66.8,81.6l2,3.2c0.2-0.1,0.4-0.3,0.5-0.4
	c1.2-0.7,1.9-0.7,2.3,0c0.4,0.7,0.1,1.7-0.6,2.1c0,0-0.1,0-0.1,0c-0.3,0.2-0.6,0.3-1,0.4l0.4,1c0.4-0.1,0.7-0.3,1-0.5
	c1.5-0.9,2-2.5,1.2-3.8c-0.7-1.2-1.9-1.3-3.5-0.3L68.3,82l2.1-1.3l-0.6-1L66.8,81.6z M64.6,86.8c-0.6,0.3-1.4,0.1-1.7-0.6
	c0-0.1-0.1-0.1-0.1-0.2c-0.3-0.7,0.1-1.5,0.8-1.7c0.7-0.3,1.5,0.1,1.7,0.8C65.6,85.7,65.3,86.5,64.6,86.8 M66.1,87.1
	c0.4,1.1-0.2,2.2-1.3,2.6c-0.3,0.2-0.7,0.3-1,0.3l0.4,1c0.3-0.1,0.6-0.2,0.9-0.3c2.1-0.9,2.9-2.8,1.6-5.7c-0.9-2-2.3-2.4-3.6-1.8
	c-1.3,0.5-1.9,2-1.4,3.3c0,0.1,0.1,0.1,0.1,0.2c0.4,1.1,1.6,1.7,2.7,1.3c0.1,0,0.2-0.1,0.3-0.1c0.6-0.2,1-0.7,1.2-1.3l0,0
	C66,86.6,66,86.8,66.1,87.1 M58.2,85l-1.6,1.2l0.5,1l1.2-0.9l1.5,5.1c-0.4,0.1-0.8,0.3-1.2,0.5l0.2,0.7l3.4-1L62,90.9
	c-0.3,0-0.7,0.1-1,0.2l-1.8-6.3L58.2,85z M55,79.7l-0.4,0.1l0.3,1l3-0.8L57.6,79l-0.4,0.1c0,0.2,0,0.4,0.1,0.6l-0.7,0.2l-0.7-2.4
	l0.5-0.2l-0.1-0.3l-1.7,0.5l0.1,0.3l0.6-0.1l0.6,2.5l-0.7,0.2C55.2,80.1,55.1,79.9,55,79.7 M51.6,81.4c0.3,0,0.6,0,0.8-0.1
	c0.9-0.2,1.3-0.6,1.2-1.2c-0.2-1.1-1.9-0.4-2-1.2c-0.1-0.4,0.3-0.6,0.7-0.7c0.2,0,0.3,0,0.5,0c0,0.2,0.1,0.3,0.2,0.5l0.4-0.1
	l-0.2-0.9c-0.3,0-0.6,0-0.9,0c-0.8,0.1-1.4,0.6-1.3,1.3c0.2,1.2,1.9,0.5,2,1.2c0,0.3-0.2,0.5-0.6,0.6H52c0-0.2-0.1-0.4-0.2-0.5h-0.4
	L51.6,81.4z M51.6,86.5L46,86.8v0.7c0.4,0.1,0.8,0.1,1.2,0.1l0.3,5.5c-0.4,0.1-0.8,0.1-1.2,0.3v0.7l5.6-0.3l-0.1-2h-0.9
	c-0.1,0.4-0.1,0.8-0.1,1.2l-2,0.1l-0.1-2.4l1.3-0.1c0,0.3,0.1,0.5,0.2,0.8H51l-0.1-2.4h-0.8C50,89.1,50,89.4,50,89.7l-1.3,0.1
	l-0.1-2.2l2-0.1c0,0.4,0.1,0.7,0.3,1.1h0.9L51.6,86.5z M47.9,79.1c0.2,0,0.4-0.2,0.4-0.4c0,0,0,0,0,0c0-0.2-0.2-0.4-0.4-0.3
	s-0.4,0.2-0.3,0.4C47.5,78.9,47.7,79,47.9,79.1 M38.8,89.7c-0.4,1.8,0.7,3.5,2.4,3.9c0.2,0.1,0.5,0.1,0.7,0.1
	c0.7,0.1,1.5,0.1,2.2-0.1v-1.1c-0.6,0.2-1.2,0.2-1.8,0.2c-1.3,0-2.3-1.1-2.2-2.4c0-0.2,0-0.3,0.1-0.5c0.2-1.6,1.1-2.6,2.6-2.4
	c0.3,0,0.6,0.1,0.9,0.2c0,0.4,0,0.8,0,1.2l0.9,0.1l0.3-2.2c-0.6-0.2-1.1-0.4-1.7-0.4c-2-0.4-3.9,0.9-4.3,2.8
	C38.8,89.3,38.8,89.6,38.8,89.7 M42,78.5l1.2,0.1l-0.4,3.5c-0.2,0-0.4,0-0.6,0v0.3l1.7,0.2v-0.3c-0.2-0.1-0.4-0.1-0.6-0.2l0.4-3.5
	c0.2,0,0.4,0,0.6,0v-0.3l-2.8-0.3l-0.1,1.2h0.4C41.8,78.9,41.8,78.7,42,78.5 M38.5,80.4l-0.1,0.3l1.7,0.4l0.1-0.3
	c-0.2-0.1-0.4-0.1-0.5-0.2l0.6-2.5c0.2,0,0.4,0,0.6,0l0.1-0.3l-1.6-0.4l-0.1,0.3c0.2,0.1,0.4,0.2,0.5,0.2l-0.6,2.5
	C39,80.4,38.8,80.4,38.5,80.4 M36.7,76.9c0.1,0.1,0.3,0.2,0.4,0.3l-0.5,1.4c-0.1,0.3-0.2,0.6-0.3,0.9l0,0c0-0.3-0.1-0.5-0.1-0.8
	l-0.6-2.3L35,76l-1,2.8l-0.5-0.1l-0.1,0.3l1.5,0.5l0.1-0.3c-0.1-0.1-0.3-0.2-0.5-0.3l0.4-1.2c0.2-0.5,0.3-0.9,0.3-1.2l0,0
	c0,0.3,0.1,0.6,0.2,0.8l0.6,2.3l1.3,0.5l0.1-0.3c-0.2-0.1-0.3-0.2-0.5-0.3l0.9-2.4c0.2,0,0.4,0.1,0.6,0.1l0.1-0.3l-1.6-0.6
	L36.7,76.9z M28.6,73.9l-0.9,0.6l-0.5,0.4l0,0c0.1-0.2,0.1-0.4,0.2-0.6l0.3-1.1L28.6,73.9z M29,73c0.1,0.1,0.2,0.2,0.4,0.4l-0.4,0.3
	l-1.2-0.9l0.1-0.5c0.1,0.1,0.3,0.2,0.5,0.2l0.2-0.3l-1.3-0.9L27,71.6c0.1,0.1,0.2,0.2,0.3,0.3l-0.7,3.2l0.6,0.4l2.7-1.8
	c0.1,0.1,0.2,0.1,0.4,0.2l0.2-0.3l-1.2-0.9L29,73z M32.2,75.1l0.4,0.2l-1.2,2.2l-0.5-0.1c-0.6-0.3-0.9-1.1-0.6-1.7
	C30.7,75,31.4,74.7,32.2,75.1C32.1,75,32.1,75.1,32.2,75.1 M29.9,75.3c-0.5,0.7-0.2,1.7,0.5,2.2c0.1,0.1,0.2,0.1,0.3,0.1l1,0.5
	l0.5,0.3l0.2-0.3c-0.1-0.1-0.3-0.2-0.5-0.3l1.2-2.3c0.2,0.1,0.4,0.1,0.5,0.2l0.2-0.3l-0.5-0.3c-0.2-0.1-0.5-0.3-0.9-0.5
	C31.7,74,30.6,74.2,30,75C30,75,29.9,75.1,29.9,75.3 M28,89.2l-0.2,0.7l3.4,1.2l0.2-0.7c-0.3-0.2-0.6-0.4-1-0.5l1-2.9
	c0.3-0.7,0.4-1.3,0.5-1.8l0,0c0.1,0.5,0.2,1.2,0.3,1.7l1.3,5l1.6,0.6l2-6c0.3,0.1,0.7,0.1,1,0.1l0.2-0.7l-3.1-1.1L35,85.4
	c0.3,0.2,0.6,0.4,1,0.5l-0.8,2.3c-0.4,1-0.6,1.9-0.7,2.4l0,0c-0.1-0.6-0.2-1.2-0.4-1.8l-1.2-4.9l-2.8-0.9l-0.2,0.7
	c0.3,0.3,0.7,0.5,1.1,0.7l-1.7,5.1C28.8,89.3,28.4,89.2,28,89.2 M22.8,86.1l-0.3,0.6l3.3,1.8l0.3-0.6c-0.3-0.3-0.6-0.5-1-0.7
	l2.7-4.8c0.4,0.2,0.8,0.3,1.2,0.4l0.3-0.6L26,80.4L25.7,81c0.3,0.3,0.6,0.5,1,0.7L24,86.6C23.6,86.4,23.2,86.2,22.8,86.1 M23.2,71.8
	c-0.1-0.1-0.2-0.3-0.3-0.4l1.2-1.2c0.2-0.4,0.7-0.5,1.1-0.2c0.1,0,0.1,0.1,0.2,0.2c0.3,0.3,0.4,0.7,0.2,1.1c0,0.1-0.1,0.1-0.2,0.2
	l-1.2,1.2c-0.1-0.1-0.3-0.2-0.4-0.3l-0.2,0.2l1.2,1.1l0.2-0.2c-0.1-0.1-0.2-0.3-0.3-0.4l1.3-1.3c0.5-0.6,0.5-1.2-0.2-1.9
	c-0.4-0.6-1.3-0.7-1.8-0.2c-0.1,0.1-0.1,0.1-0.2,0.2L22.5,71c-0.1-0.1-0.3-0.2-0.4-0.3L21.9,71L23,72L23.2,71.8z M17.8,80.6
	l-1.3,1.6c0.4,0.5,0.9,0.9,1.3,1.3c1.4,1.1,3,1.2,3.9,0.1c1.5-1.9-2-3.6-1-4.8c0.4-0.5,1.1-0.5,1.9,0.1c0.2,0.2,0.4,0.4,0.6,0.6
	c-0.2,0.3-0.4,0.7-0.6,1l0.6,0.5l1.2-1.6c-0.4-0.5-0.8-0.9-1.3-1.2C21.8,77,20.4,77,19.6,78c-1.5,1.9,2,3.6,1,4.8
	c-0.6,0.7-1.4,0.4-2,0c-0.3-0.2-0.5-0.5-0.7-0.7c0.2-0.3,0.4-0.6,0.6-1L17.8,80.6z M16.7,65.3l-0.3,0.2l0.9,1.3l0.3-0.2
	c-0.1-0.2-0.1-0.3-0.2-0.5c1.2-0.8,2.1-1.4,2.7-1.9c-0.2,0.3-0.3,0.6-0.5,1l-1.3,3l0.8,1.2l0.3-0.2c-0.1-0.2-0.2-0.4-0.3-0.5l2.9-2
	c0.1,0.1,0.3,0.3,0.4,0.4l0.3-0.2l-1-1.4l-0.3,0.2c0.1,0.2,0.1,0.3,0.2,0.5c-1.2,0.8-2.1,1.4-2.7,1.9c0.2-0.3,0.3-0.6,0.5-1l1.3-3
	l-0.5-0.7L17,65.7C16.9,65.6,16.8,65.5,16.7,65.3 M21.9,26.5l-0.5-1c-0.1-0.2-0.2-0.4-0.3-0.5l0,0c0.2,0.1,0.4,0.2,0.6,0.2l1,0.4
	L21.9,26.5z M22.4,27.3l-0.2-0.4l1-1.2l0.5,0.2c-0.1,0.1-0.2,0.3-0.3,0.4l0.2,0.2l1-1.2l-0.3-0.2L24,25.4l-3-1.1l-0.5,0.6l1.5,2.9
	c-0.1,0.1-0.1,0.2-0.2,0.3l0.2,0.2l1-1.2L22.8,27C22.6,27.1,22.5,27.2,22.4,27.3 M23.6,22.3l1.7,1.8c-0.1,0.1-0.2,0.3-0.4,0.4
	l0.2,0.2l1.3-1.1l-0.2-0.2c-0.2,0.1-0.3,0.2-0.5,0.3L24,21.8l0.6-0.5c0.1,0.1,0.3,0.2,0.5,0.4l0.3-0.3l-0.7-0.8l-2.3,2.1l0.7,0.8
	l0.3-0.3c-0.2-0.2-0.3-0.4-0.4-0.5L23.6,22.3z M26.1,20l1.5,2.1c-0.2,0.1-0.3,0.3-0.4,0.4l0.2,0.3l2.1-1.6L29,20.4l-0.3,0.3
	c0.1,0.2,0.1,0.3,0.2,0.5l-0.8,0.6l-0.6-0.9l0.5-0.4c0.1,0.1,0.2,0.2,0.3,0.2l0.3-0.2l-0.7-0.9l-0.3,0.2c0,0.1,0.1,0.2,0.2,0.3
	l-0.5,0.4l-0.6-0.8l0.7-0.5l0.4,0.3l0.3-0.2l-0.5-0.7L25.5,20l0.2,0.3C25.9,20.2,26,20.1,26.1,20 M17.3,32.5l-0.2,0.4l-1-0.5
	l0.2-0.4c0.2-0.4,0.5-0.6,0.8-0.4S17.5,32,17.3,32.5 M18.2,32.1h-0.4c0.2-0.4,0-0.9-0.4-1.2c-0.6-0.3-1.1,0-1.4,0.7
	c-0.2,0.4-0.4,0.8-0.5,1l-0.2,0.5l0.3,0.2c0.1-0.1,0.2-0.3,0.3-0.5l2.3,1.2c-0.1,0.2-0.1,0.4-0.2,0.6l0.3,0.1l0.7-1.4l-0.3-0.2
	c-0.1,0.1-0.2,0.2-0.3,0.4L17.5,33l0.1-0.2l1.7-0.2l0.4-0.8l-0.3-0.2c-0.1,0.1-0.2,0.2-0.3,0.3L18.2,32.1z M16.6,35.4L15,34.9
	c0-0.2,0.1-0.3,0.1-0.5l-0.3-0.1l-0.5,1.5l0.3,0.1c0.1-0.1,0.2-0.3,0.2-0.4l1.6,0.5c0.4,0.1,0.7,0.5,0.7,0.9c0,0.1,0,0.2-0.1,0.2
	c-0.1,0.4-0.5,0.7-0.9,0.6c-0.1,0-0.1,0-0.2-0.1l-1.6-0.6c0-0.2,0.1-0.3,0.1-0.5L14,36.5L13.5,38l0.3,0.1c0.1-0.1,0.2-0.3,0.2-0.4
	l1.7,0.6c0.7,0.2,1.3-0.1,1.6-1c0.3-0.6,0.1-1.4-0.6-1.8C16.8,35.4,16.7,35.4,16.6,35.4 M13.7,55.4c0-0.2,0-0.4,0-0.6l2.5-0.5
	c0.1,0.2,0.1,0.4,0.2,0.5h0.3l-0.5-2.6l-0.9,0.2l0.1,0.4h0.5l0.2,0.9L14.9,54l-0.1-0.6c0.1,0,0.2-0.1,0.3-0.2L15,52.9l-1.1,0.2
	l0.1,0.4c0.1,0,0.2,0,0.4,0l0.1,0.6l-1,0.2l-0.2-0.9c0.2-0.1,0.3-0.1,0.5-0.2l-0.1-0.4L12.8,53l0.5,2.5L13.7,55.4z M12.7,51.6H13
	c0-0.2,0-0.4,0-0.6l2.6-0.2c0,0.2,0.1,0.4,0.1,0.6H16l-0.3-2.7l-1.1,0.1v0.4c0.2,0,0.4,0.1,0.6,0.1l0.1,0.9l-2.5,0.2
	c0-0.2-0.1-0.4-0.1-0.6h-0.3L12.7,51.6z M11.8,45.5l3.5,0.3c0,0.2,0,0.4,0,0.6h0.4l0.3-2.8l-1.2-0.1v0.4C15,44,15.3,44,15.5,44
	l-0.1,1.2l-3.5-0.3c0-0.2,0-0.4,0-0.6h-0.4l-0.2,1.7h0.3C11.8,45.9,11.8,45.7,11.8,45.5 M13.5,40.7L13.5,40.7c0.2,0,0.4,0,0.6-0.1
	l1.1-0.2L15,41.6L14,41C13.8,40.9,13.7,40.8,13.5,40.7 M13.1,40.2L13,40.9l2.7,1.8c0,0.1,0,0.3,0,0.4H16l0.3-1.4H16
	c-0.1,0.2-0.1,0.3-0.2,0.5l-0.4-0.3l0.3-1.5l0.5-0.1c0,0.2,0,0.3,0,0.5l0.3,0.1l0.2-1.5l-0.3-0.1c-0.1,0.1-0.1,0.2-0.2,0.4
	L13.1,40.2z M17,60.5c0.5-0.3,1.3-0.1,1.6,0.4c0,0,0,0,0,0c0.3,0.6,0,1.2-0.7,1.5c-0.5,0.3-1.3,0.1-1.6-0.4c0,0,0,0,0,0
	C16,61.4,16.3,60.9,17,60.5 M15.9,62.2c0.4,0.9,1.4,1.2,2.3,0.8c0,0,0.1,0,0.1-0.1c0.8-0.3,1.2-1.1,1-1.9c0-0.1-0.1-0.2-0.1-0.3
	c-0.4-0.8-1.4-1.2-2.3-0.8c-0.1,0-0.1,0.1-0.2,0.1c-0.8,0.3-1.2,1.1-1,1.9C15.7,62.1,15.7,62.2,15.9,62.2 M14.8,57.2
	c0.4-0.1,0.6,0.1,0.8,0.6l0.1,0.3l-1,0.3c0-0.1-0.1-0.3-0.1-0.4C14.4,57.4,14.6,57.3,14.8,57.2 M16.2,56.6c0.3-0.1,0.6,0,0.8,0.6
	c0,0.1,0.1,0.3,0.1,0.4L16,58c0-0.1-0.1-0.2-0.1-0.3C15.8,57.2,15.8,56.8,16.2,56.6 M14.5,59.1l0.2,0.5l0.3-0.1c0-0.2,0-0.4-0.1-0.6
	l2.4-0.8c0.1,0.2,0.2,0.4,0.3,0.5l0.3-0.1l-0.2-0.5c-0.1-0.4-0.2-0.8-0.3-1c-0.3-1.1-1-1.2-1.4-1c-0.4,0.1-0.6,0.5-0.5,0.9l0,0
	c-0.2-0.3-0.6-0.4-0.9-0.3c-0.5,0.2-0.7,0.6-0.4,1.4C14.2,58.4,14.4,58.8,14.5,59.1 M7.1,67.7l-1.7,1l2.8,4.8l0.6-0.4
	c-0.1-0.4-0.3-0.8-0.5-1.2l4.7-2.8c0.2,0.3,0.5,0.7,0.8,1l0.6-0.4l-2.8-4.8l-1.7,1l0.5,0.8c0.4-0.1,0.7-0.3,1-0.4l1,1.7l-2.1,1.3
	l-0.7-1.2c0.2-0.1,0.4-0.3,0.6-0.5l-0.4-0.7l-2.1,1.2l0.4,0.7c0.3,0,0.5-0.1,0.7-0.2l0.7,1.2l-1.9,1.2l-1-1.7
	c0.2-0.2,0.6-0.4,0.8-0.7L7.1,67.7z M5.3,58.6c1.3-0.6,2.7,0,3.3,1.3c0.1,0.2,0.1,0.4,0.2,0.5c0.1,0.3,0.2,0.7,0.3,0.9L4,63
	c-0.1-0.3-0.3-0.6-0.4-1c-0.6-1.2-0.2-2.6,1-3.2C4.8,58.7,5,58.6,5.3,58.6 M2.6,62.1c0.3,0.8,0.6,1.8,0.8,2.3l0.4,1.2l0.7-0.2
	c0-0.4-0.1-0.8-0.2-1.2l5.2-1.7c0.2,0.4,0.3,0.8,0.6,1.2l0.7-0.2l-0.4-1.2c-0.2-0.6-0.4-1.2-0.6-2c-0.8-2.3-2.5-3.7-4.9-2.9
	S1.9,59.9,2.6,62.1 M0.7,47.2H0l0.3,3.3H1c0.1-0.4,0.1-0.8,0.1-1.2l3.5-0.3c0.9-0.3,1.8,0.2,2.1,1.1c0.1,0.2,0.1,0.4,0.1,0.6
	c0.2,0.9-0.3,1.8-1.2,2c-0.2,0-0.4,0.1-0.5,0l-3.6,0.3c-0.1-0.4-0.2-0.7-0.3-1.1l-0.7,0.1l0.3,3.3l0.7-0.1c0.1-0.3,0.1-0.7,0.1-1
	l3.9-0.3c1.7-0.1,2.5-1.3,2.4-3.3c-0.2-2.3-1.6-3.1-3.2-3L1,48.1C1,47.8,0.9,47.5,0.7,47.2 M3.1,39.1L1,38.8
	c-0.2,0.6-0.4,1.1-0.4,1.7c-0.4,2,0.9,3.8,2.8,4.2c0.2,0,0.4,0.1,0.6,0.1c1.8,0.4,3.5-0.7,3.9-2.5c0-0.2,0.1-0.5,0.1-0.7
	C8,40.9,8,40.2,7.8,39.5H6.7c0.2,0.6,0.2,1.2,0.2,1.8c0,1.3-1,2.3-2.3,2.3c-0.2,0-0.4,0-0.6-0.1c-1.6-0.2-2.6-1-2.4-2.6
	c0-0.3,0.1-0.6,0.2-0.9c0.4,0,0.8,0,1.2,0L3.1,39.1z M7.2,32.7l-0.8,2.5l-1.9-1.5c-0.4-0.3-0.7-0.6-1.1-0.8h1.3L7.2,32.7z M9.6,31.2
	l-6.9,0.5l-0.5,1.5l5.3,4.4c0,0.3-0.1,0.6-0.1,0.9l0.7,0.2l1-3l-0.7-0.2c-0.2,0.3-0.4,0.6-0.5,1l-0.9-0.7l1-3.1h1.1
	c-0.1,0.3-0.1,0.7-0.1,1l0.7,0.2l1-3.2l-0.7-0.2C9.9,30.7,9.8,30.9,9.6,31.2 M9.6,22.6l-2-1.2l-3.2,5.9l2,1.2l0.4-0.8
	c-0.3-0.3-0.7-0.6-1.1-0.8l0.8-1.4l4.8,2.6c-0.2,0.4-0.3,0.8-0.4,1.2l0.6,0.3l1.8-3.3l-0.6-0.3c-0.3,0.3-0.5,0.6-0.7,1l-4.8-2.5
	l0.8-1.5c0.4,0.2,0.7,0.3,1.3,0.5L9.6,22.6z M14.6,24.2l3.6-4.3l-1.6-1.2L16,19.4c0.2,0.3,0.5,0.6,0.7,0.9l-1.3,1.6l-1.9-1.6l0.8-1
	c0.2,0.2,0.4,0.3,0.7,0.4l0.5-0.6l-1.8-1.5L13.3,18c0.1,0.2,0.3,0.4,0.5,0.6l-0.8,1l-1.7-1.4l1.3-1.5l1,0.5l0.6-0.7l-1.5-1.3L9,19.5
	l0.6,0.4c0.3-0.2,0.6-0.5,0.9-0.8l4.2,3.5c-0.2,0.3-0.5,0.7-0.6,1L14.6,24.2z M19.5,27.6l-0.8-0.5l-1.5,2.2l0.3,0.2
	c0.1-0.1,0.3-0.3,0.4-0.4l2.1,1.4c-0.1,0.2-0.2,0.3-0.2,0.5l0.3,0.2l1.5-2.2l-0.8-0.5l-0.2,0.3l0.4,0.4l-0.5,0.8l-1-0.6l0.3-0.5
	c0.1,0.1,0.2,0.1,0.3,0.1l0.2-0.3L19.4,28l-0.2,0.3c0.1,0.1,0.2,0.2,0.3,0.3l-0.3,0.5l-0.9-0.6l0.5-0.8l0.5,0.2L19.5,27.6z
	 M19.2,16.7c-0.4,0.3-0.5,0.8-0.3,1.2c0.3,0.4,0.8,0.5,1.2,0.3c0.4-0.3,0.5-0.8,0.3-1.2c0,0-0.1-0.1-0.1-0.1
	C20,16.6,19.5,16.5,19.2,16.7 M22,8.5c0.3-0.2,0.6-0.5,0.9-0.8l-0.4-0.5l-3,2l0.4,0.6c0.4-0.2,0.8-0.3,1.2-0.5l3.1,4.6
	c-0.3,0.3-0.6,0.5-0.9,0.8l0.4,0.6l3.1-2.1l-0.4-0.6c-0.4,0.1-0.8,0.3-1.2,0.5L22,8.5z M34.9,9.3l-2.5-5.9C32.7,3.2,33,3,33.2,2.8
	L33,2.2l-3.1,1.3l0.3,0.7c0.4,0,0.8-0.1,1.2-0.2l1,2.3c0.4,1,0.8,1.8,1,2.3l0,0c-0.4-0.3-1-0.8-1.5-1.2l-4.2-2.9l-2.7,1.2l0.3,0.7
	C25.6,6.1,26,6,26.4,5.9l2.1,5.1c-0.4,0.2-0.7,0.4-1,0.7l0.3,0.7l3.2-1.4l-0.3-0.7c-0.4,0-0.8,0.1-1.2,0.2l-1.2-2.9
	c-0.3-0.7-0.6-1.3-0.8-1.7l0,0C28,6.3,28.5,6.7,29,7l4.3,2.9L34.9,9.3z M34.7,14.1c0.2-0.1,0.3-0.2,0.5-0.3L35,13.4l-1.3,0.6
	l0.2,2.9c0,0.3,0.1,0.6,0.1,0.9l0,0c-0.2-0.2-0.4-0.5-0.6-0.7L31.5,15l-1.3,0.6l0.1,0.3l0.6-0.1l0.9,3.5c-0.1,0.1-0.2,0.1-0.3,0.2
	l0.1,0.3l1.4-0.6l-0.1-0.3c-0.2,0-0.3,0.1-0.5,0.1l-0.6-2.2c-0.1-0.4-0.2-0.8-0.3-1.1l0,0c0.2,0.3,0.4,0.5,0.6,0.7l2.1,2.3l0.5-0.2
	l-0.2-3.3c0-0.3-0.1-0.5-0.1-0.8l0,0c0.1,0.2,0.3,0.5,0.6,1l1.2,2c-0.2,0.1-0.3,0.2-0.4,0.3l0.1,0.3l1.4-0.6L37,17
	c-0.1,0-0.3,0.1-0.4,0.1L34.7,14.1z M37.5,14.2l0.7,2.5c-0.2,0.1-0.4,0.1-0.5,0.2l0.1,0.3l2.5-0.7L40,15.7l-0.4,0.1v0.5l-0.9,0.2
	l-0.3-1.1l0.6-0.2c0,0.1,0.1,0.2,0.2,0.3l0.4-0.1l-0.3-1.1l-0.4,0.1c0,0.1,0,0.2,0,0.4l-0.6,0.2l-0.2-1l0.9-0.2l0.2,0.5l0.4-0.1
	l-0.2-0.9l-2.5,0.8l0.1,0.3C37.1,14.4,37.3,14.4,37.5,14.2 M41.9,5.6c-0.4-2.3-4.1-1-4.3-2.5C37.5,2.5,38,2,39,1.8
	c0.3,0,0.6-0.1,0.9-0.1c0.1,0.4,0.2,0.8,0.4,1.2L41,2.7l-0.3-2c-0.6,0-1.2,0.1-1.8,0.2c-1.9,0.3-2.8,1.4-2.6,2.7
	c0.4,2.3,4,0.9,4.3,2.5c0.2,0.9-0.6,1.3-1.4,1.5c-0.3,0.1-0.7,0.1-1,0.1c-0.1-0.3-0.2-0.7-0.4-1.1L37,6.6l0.4,2c0.6,0,1.3,0,1.9-0.1
	C41,8.2,42.2,7.1,41.9,5.6 M41.3,16.4l2.6-0.4l-0.1-0.9l-0.4,0.1v0.5l-0.9,0.1l-0.2-1.2l0.6-0.1c0,0.1,0.1,0.2,0.1,0.3l0.4-0.1
	l-0.2-1.2h-0.4c0,0.1,0,0.3,0,0.4l-0.6,0.1l-0.1-1L43,13c0,0.2,0.1,0.3,0.2,0.5l0.4-0.1l-0.1-0.9l-2.6,0.4v0.3c0.2,0,0.4,0,0.6,0
	l0.4,2.5l-0.6,0.2L41.3,16.4z M48.8,2.5c0,1-0.6,1.5-1.7,1.5c-0.3,0-0.5,0-0.8-0.1V1.2h0.8C48.3,1.2,48.8,1.7,48.8,2.5 M50.2,2.4
	c0-1.4-1.1-2.2-2.8-2.2h-3.5v0.7c0.4,0.1,0.8,0.2,1.2,0.2v5.5c-0.4,0-0.8,0.1-1.2,0.2v0.7h3.7V6.8c-0.4-0.1-0.8-0.2-1.2-0.2V4.8
	c0.2,0,0.5,0,0.7,0c1.9,0,3.1-1,3.1-2.5 M45.9,13v2.5c-0.2,0-0.4,0-0.6,0.1v0.3h1.7v-0.3c-0.2,0-0.4-0.1-0.6-0.1L46.5,13h0.8
	c0,0.2,0,0.4,0.1,0.6h0.4v-1.1l-3.1,0.1v1.1H45c0-0.3,0.1-0.4,0.1-0.6L45.9,13z M50.4,13v-0.3l-1.7-0.1v0.3l0.6,0.1l-0.2,2.6
	c-0.2,0-0.4,0-0.6,0v0.3l1.7,0.1v-0.3l-0.6-0.1l0.2-2.6C50.1,13,50.2,13,50.4,13 M50.5,34.5c0-0.1,0.1-0.2,0.1-0.3
	c0.5,0.2,1,0.2,1.5,0.1c0.3-0.1,0.5-0.1,0.8-0.2c0.1,0,0.2-0.1,0.2-0.1c0.9-0.7,1.4-1.8,1.3-3c0.5,0.2,1,0.3,1.5,0.2
	c0.8-0.2,1.5-0.7,1.8-1.4c0.2,0.6,0.7,1.1,1.2,1.5c0.5,0.3,1.1,0.4,1.7,0.3c-0.4,1.3,0.3,2.6,1.6,3c0.5,0.2,1.1,0.1,1.6-0.1
	c-0.4,1-0.2,2.1,0.4,2.9c0.6,0.5,1.5,0.7,2.3,0.5c-0.3,0.7-0.2,1.6,0.2,2.2c0.4,0.5,0.9,0.8,1.5,0.9c0.4,0.1,0.8,0.1,1.2,0
	c-0.2,0.7-0.1,1.4,0.1,2.1c0.2,0.6,0.7,1,1.3,1.3c0.4,0.1,0.8,0.2,1.2,0.2l0,0c-0.4,0.7-0.6,1.5-0.7,2.3c0,0.5,0.2,1,0.6,1.4
	c-0.7,0.6-1.2,1.4-1.4,2.3c-0.1,0.7,0,1.5,0.3,2.2c-0.6-0.1-1.3,0.1-1.9,0.4c-0.4,0.3-0.8,0.7-0.9,1.2C68,54.6,68,55,68.1,55.3
	c-0.5,0.1-1,0.2-1.5,0.4l0,0c-0.8,0.3-1.6,0.5-2.4,0.5c-1.3-0.1-2.6-0.5-3.7-1.4L59.3,54l-0.2,1.5C59,57.8,58.9,60,59,62.3l-1,0.2
	c-0.1-2.1,0-4.3,0.1-6.4l0.2-2.1l-1.6,1.4c-0.8,0.7-1.8,1.2-2.9,1.2c-0.4,0-0.7,0-1.1-0.1c-0.4-0.6-0.6-1.3-0.5-2
	c0.1-0.6,0.4-1.1,0.8-1.5c0.2-0.3,0.5-0.5,0.8-0.7l0.7-0.5l-0.8-0.3l0,0c-0.3-0.1-0.6-0.3-0.6-0.9c0.1-0.9,0.4-1.8,0.9-2.6l0.4-0.8
	l-0.9,0.2c-0.5,0.1-1,0.1-1.5-0.1c-0.4-0.1-0.6-0.4-0.8-0.8c-0.1-0.8-0.1-1.6,0.1-2.3l0.2-0.9l-0.8,0.3c-0.4,0.2-0.9,0.3-1.4,0.3
	c-0.4-0.1-0.7-0.3-0.9-0.6c-0.4-0.5-0.1-1.4,0.1-2c0.3-0.2,0.6-0.4,0.8-0.6l0.1-0.2c0.6-1.1-0.1-2.6-0.9-3.9
	C49.6,36.3,50.4,35.5,50.5,34.5 M49.8,33.5c0,0.2,0,0.5,0,0.7c-0.2,0.9-1,1.5-1.9,1.5l-0.8,0.1l0.4,0.6c1.2,1.6,1.6,2.9,1.2,3.6l0,0
	c-0.3,0.3-0.6,0.5-1,0.5c-0.6,0-1.2-0.1-1.7-0.4c-0.1-0.1-0.1-0.1-0.2-0.2c-0.4-0.5-0.4-1.3,0-2.4l0.3-0.8l-0.9,0.3
	c-1.2,0.4-2,0.3-2.5-0.1c-0.4-0.6-0.5-1.3-0.2-2l0.2-0.9l-0.8,0.4c-0.5,0.3-1.1,0.3-1.7,0.1c-0.7-0.3-1.2-0.9-1.4-1.7l-0.4-1.4
	l-0.4,1.4c-0.3,1.1-0.8,1.9-1.5,2c-0.5,0.1-1.1,0.1-1.6-0.2l-1-0.5l0.4,1.1c0.2,0.5,0.3,1.1,0.2,1.7c-0.1,0.4-0.3,0.6-0.6,0.8
	c-0.6,0.3-1.3,0.3-1.9,0c0-0.2-0.1-0.4-0.1-0.5c-0.2-0.5-0.4-0.9-0.7-1.3c0.7-0.2,1.2-0.6,1.6-1.2c0.4-0.8,0.5-1.8,0.1-2.6
	c0.6,0.1,1.2,0.1,1.8-0.2c0.7-0.3,1.1-1,1.2-1.8c0-0.3,0-0.5-0.1-0.8c0.5,0.3,1.1,0.4,1.6,0.4h0.4c0.6-0.1,1.1-0.4,1.5-0.9
	c0.3-0.5,0.5-1,0.5-1.6c0.5,0.3,1.1,0.3,1.7,0.2c0.8-0.2,1.5-0.7,1.9-1.4c0.2,0.6,0.7,1.1,1.2,1.5c0.5,0.3,1.1,0.4,1.7,0.3
	c-0.4,1.3,0.4,2.6,1.6,3c0.5,0.2,1.1,0.1,1.6-0.1C49.2,31.7,49.3,32.7,49.8,33.5 M32,39.7c0.1-0.3,0.2-0.7,0.3-1l0,0
	c0.7,0.2,1.5,0.2,2.2-0.2c0.5-0.3,0.9-0.8,1.1-1.4c0.1-0.4,0.1-0.9,0-1.4c0.5,0.1,1,0.1,1.4,0c0.7-0.3,1.3-0.9,1.6-1.6
	c0.3,0.5,0.7,0.9,1.3,1.2c0.5,0.2,1.1,0.2,1.6,0.1c-0.1,0.7,0.1,1.5,0.6,2.1c0.7,0.6,1.7,0.8,2.6,0.6c-0.1,0.4-0.1,0.9-0.1,1.3
	c0,0.4,0.2,0.8,0.5,1.2c0.2,0.3,0.5,0.5,0.8,0.6c0.5,0.2,1.1,0.3,1.6,0.3c-0.3,0.8-0.2,1.6,0.2,2.3c0.4,0.5,0.9,0.8,1.5,0.9
	c0.4,0.1,0.8,0,1.2-0.1c-0.1,0.7-0.1,1.4,0.1,2c0.2,0.6,0.7,1,1.3,1.3c0.4,0.1,0.8,0.2,1.2,0.2c-0.4,0.7-0.6,1.5-0.7,2.3
	c0,0.5,0.2,1,0.5,1.4L52.6,52c-0.4,0.4-0.7,0.8-0.9,1.3c-0.1,0.3-0.2,0.5-0.3,0.8c-0.1,0.7,0,1.3,0.2,2c0,0.1,0.1,0.1,0.1,0.2
	c-0.5,0-1,0.1-1.4,0.2l-0.4,0.2c-0.4,0.3-0.8,0.7-0.9,1.2c-0.1,0.4-0.1,0.8,0.1,1.2c-0.5,0.1-1,0.2-1.5,0.4l0,0l-0.5,0.2
	c-0.3,0.1-0.6,0.2-0.9,0.3c-0.3,0.1-0.5,0.1-0.8,0.1h-0.4c-0.2,0-0.3,0-0.5,0c-1.1-0.1-2.1-0.5-3-1l-1.8-0.9l0.5,1.9
	c0.6,2.4,0.9,4.8,0.8,7.2h-1c0.1-2.6-0.3-5.3-1-7.8l-0.4-1.2l-1,0.9c-1.4,1.1-3.1,1.7-4.9,1.7c-0.8,0-1.5-0.2-2.2-0.5l0,0
	c-0.6-0.3-1.3-0.5-1.9-0.5h-0.6c0.3-0.6,0.4-1.3,0.2-2c-0.1-0.6-0.6-1.2-1.2-1.4c-0.6-0.3-1.2-0.4-1.8-0.5c0.2-0.2,0.3-0.5,0.4-0.7
	c0.4-1.2,0-2.4-1-3.2l0.3-0.2H25c0.5-0.4,0.9-1,0.9-1.7c0-0.8-0.4-1.7-0.9-2.3c0.7-0.3,1.2-0.7,1.6-1.4c0.4-0.8,0.5-1.6,0.2-2.5
	c0.9,0,1.7-0.4,2.2-1.2c0.3-0.6,0.4-1.2,0.3-1.8c0.5,0.1,1.1,0.1,1.6-0.1C31.3,40.7,31.8,40.2,32,39.7 M45.4,61c0.3,0,0.7-0.1,1-0.2
	c0,1.4,0.1,2.2,0.1,2.6l-1,0.2C45.4,61.9,45.5,63.3,45.4,61 M50.6,30.2l0.3-0.8l-0.9,0.3C48.8,30,48,30,47.5,29.5
	c-0.4-0.6-0.5-1.5-0.2-2.2l0.2-0.8l-0.8,0.3C46.2,27,45.6,27,45,26.7c-0.7-0.5-1.1-1.2-1.2-2l-0.3-1.5L43,24.6
	c-0.5,1.2-1.1,1.8-1.7,1.9c-0.6,0.1-1.2-0.1-1.7-0.5l-0.8-0.6v1c0.1,0.6,0,1.3-0.3,1.9c-0.2,0.3-0.5,0.5-0.9,0.5
	c-0.8,0-1.7-0.2-2.3-0.8l-1-0.7l0.4,1.2c0.2,0.5,0.3,1,0.3,1.5c0,0.5-0.2,0.9-0.6,1.1c-0.7,0.2-1.4,0.2-2-0.1l-1-0.4l0.5,1
	c0.5,0.8,0.6,1.7,0.3,2.6c-0.5,0.5-1.1,0.9-1.8,0.9l-1.1,0.1l0.9,0.7c0.5,0.4,0.9,0.9,1.2,1.5c0.1,0.3,0.1,0.5,0.2,0.8
	c0,0.3-0.1,0.7-0.2,1c-0.2,0.5-0.6,0.9-1.2,1c-0.4,0.1-0.9,0-1.2-0.2L28,39.7l0.2,0.9c0.2,0.6,0.1,1.3-0.1,1.9
	c-0.3,0.5-0.8,0.7-1.4,0.7c-0.2,0-0.4,0-0.6,0L25.4,43l0.3,0.7c0.4,0.7,0.4,1.6,0.1,2.3c-0.4,0.6-1,1-1.7,1.2l-0.8,0.2l0.5,0.6
	c0.6,0.6,1,1.3,1.2,2.2c0,0.4-0.2,0.7-0.5,1c-0.3,0.2-0.6,0.3-0.9,0.3l-0.9,0.3l0.7,0.5c0.8,0.6,1.7,1.5,1.3,2.6
	c-0.2,0.4-0.4,0.8-0.7,1.1l-0.7,0.7l0.9,0.1c0.8,0,1.6,0.2,2.3,0.4l0,0c0.4,0.1,0.6,0.4,0.7,0.8c0.1,0.7-0.1,1.3-0.5,1.9l-0.3,0.6
	l0.7,0.1l1.2,0.1h0.2c0.6,0.1,1.1,0.2,1.7,0.4c0.8,0.4,1.7,0.7,2.6,0.6c2,0,3.9-0.7,5.5-1.9c0.7,2.7,1.1,5.5,0.9,8.3l2.8,0.1
	c0.1-2.8-0.2-5.6-0.8-8.3c1.1,0.6,2.2,1,3.5,1.2c0.2,2.5,0.2,3.6,0.2,3.6l2.6-0.4c0,0-0.2-1.9-0.2-3.5c0.3-0.1,0.5-0.2,0.8-0.3
	c0.6-0.2,1.3-0.3,1.9-0.4l0.7-0.1l-0.3-0.6c-0.2-0.3-0.3-0.8-0.2-1.2c0.1-0.3,0.2-0.5,0.5-0.7c0.6-0.3,1.3-0.4,2-0.2h0.2
	c0.4,0.1,0.8,0.1,1.2,0.1c1.3,0,2.5-0.5,3.5-1.4c-0.2,2.5-0.2,5-0.1,7.4l2.8-0.4c-0.3-2.5-0.2-5,0.1-7.4c1.2,0.9,2.7,1.5,4.2,1.5
	c0.9,0,1.9-0.2,2.7-0.6c0.6-0.2,1.3-0.3,1.9-0.3l0.7-0.1l-0.3-0.6c-0.2-0.3-0.3-0.8-0.2-1.2c0.1-0.3,0.2-0.5,0.5-0.7
	c0.6-0.3,1.3-0.4,2-0.2l1,0.1l-0.6-0.8c-0.5-0.7-0.7-1.5-0.6-2.3c0.2-0.9,0.8-1.7,1.6-2.2l0.7-0.5l-0.8-0.3c-0.3-0.1-0.6-0.3-0.6-1
	c0.1-0.9,0.4-1.8,0.9-2.5l0.4-0.8l-0.9,0.2c-0.5,0.1-1,0.1-1.5,0c-0.4-0.1-0.6-0.4-0.8-0.8c-0.2-0.8-0.1-1.6,0.1-2.3l0.2-0.9
	l-0.8,0.3C69.5,40,69,40,68.5,40c-0.4-0.1-0.7-0.3-0.9-0.6c-0.4-0.6-0.1-1.6,0.2-2.1l0.4-0.9l-0.9,0.3c-0.7,0.3-1.6,0.3-2.2-0.2
	c-0.5-0.4-0.4-1.4,0-2.7l0.3-0.8l-0.9,0.3c-1.2,0.4-2.1,0.4-2.5-0.1c-0.4-0.6-0.5-1.5-0.2-2.2l0.2-0.8l-0.8,0.3
	c-0.6,0.2-1.2,0.2-1.7-0.1c-0.7-0.5-1.1-1.2-1.2-2L58,26.9l-0.6,1.4c-0.5,1.2-1,1.8-1.7,1.9c-0.6,0.1-1.1-0.1-1.5-0.4l-0.8-0.6
	l0.2,1c0.2,1.1,0.1,2.5-0.9,3l-0.3,0.1c-0.6,0.2-1.2,0.1-1.8-0.3C50.1,32.5,50.1,31.6,50.6,30.2 M69.3,21.1c0.1,0.1,0.2,0.2,0.3,0.4
	l-1.4,1L67.7,23l0,0c0.1-0.2,0.2-0.5,0.3-0.7l0.7-2l-0.5-0.4L66.4,21c-0.2,0.1-0.4,0.3-0.6,0.5l0,0c0.1-0.2,0.2-0.5,0.3-0.7l0.6-1.6
	c0.1,0.1,0.3,0.2,0.4,0.2l0.2-0.3l-1.2-1L66,18.4c0.1,0.1,0.2,0.2,0.3,0.3l-1.2,2.9l0.6,0.4l1.7-1.2l0.7-0.5l0,0
	c-0.1,0.2-0.2,0.5-0.3,0.7l-0.6,2l0.6,0.5l2.6-1.8c0.1,0.1,0.2,0.1,0.4,0.2l0.2-0.3l-1.2-0.9L69.3,21.1z M61.8,18.6
	c-0.2,0.4-0.6,0.3-0.9,0.2c-0.1-0.1-0.3-0.2-0.4-0.3c0.1-0.2,0.1-0.3,0.2-0.5l-0.3-0.2l-0.4,0.9c0.2,0.2,0.5,0.3,0.7,0.5
	c0.7,0.4,1.5,0.3,1.8-0.3c0.5-1-1.3-1.5-0.9-2.1c0.1-0.3,0.4-0.3,0.9-0.1l0.3,0.2c-0.1,0.2-0.1,0.3-0.2,0.5l0.3,0.2l0.4-0.8
	c-0.2-0.2-0.5-0.3-0.7-0.4c-0.8-0.4-1.4-0.2-1.7,0.3C60.3,17.5,62.1,17.9,61.8,18.6 M51.7,15.8c-0.2,0-0.4,0-0.6,0L51,16.2l1.6,0.3
	v-0.3c-0.2-0.1-0.3-0.1-0.5-0.2l0.3-1.4c0.1-0.4,0.1-0.6,0.1-0.9l0,0c0.1,0.3,0.2,0.5,0.3,0.8l0.9,2.3l0.8,0.2l0.6-2.9
	c0.2,0,0.3,0,0.5,0v-0.3L54,13.4L54,13.7c0.2,0.1,0.3,0.1,0.5,0.2L54.2,15c-0.1,0.5-0.2,0.9-0.2,1.2l0,0c-0.1-0.2-0.2-0.6-0.3-0.8
	l-0.9-2.2l-1.3-0.3l-0.1,0.3c0.2,0.1,0.4,0.1,0.5,0.2L51.7,15.8z M56.1,1.9l0.1-0.7l-3.7-0.6l-0.1,0.7c0.4,0.2,0.8,0.3,1.2,0.4
	L52.6,7c-0.4,0-0.8,0-1.2,0l-0.1,0.7l3.7,0.6l0.1-0.7c-0.4-0.2-0.8-0.3-1.2-0.4l0.9-5.4C55.2,1.9,55.6,1.9,56.1,1.9 M56.3,15.7
	c-0.3,0.8,0.1,1.8,0.9,2.1c0.1,0,0.2,0.1,0.3,0.1c0.4,0.1,0.8,0.2,1.2,0.2l0.4-1.2l0.4,0.1l0.1-0.3l-1.4-0.5l-0.1,0.3
	c0.1,0.1,0.3,0.2,0.5,0.2l-0.3,0.8c-0.2,0-0.4,0-0.6-0.1c-0.7-0.2-1-0.9-0.8-1.6c0.2-0.7,0.9-1,1.6-0.8c0,0,0,0,0.1,0
	c0.2,0.1,0.3,0.1,0.5,0.2c0,0.2-0.1,0.4-0.1,0.6l0.4,0.1l0.3-0.9c-0.3-0.2-0.6-0.3-0.9-0.4c-0.9-0.4-1.9,0-2.3,0.8
	C56.4,15.5,56.4,15.6,56.3,15.7 M62.8,5.2c-0.2,0.7-0.9,1-1.9,0.6l-0.8-0.3l0.8-2.2l0.8,0.3C62.6,3.9,63,4.4,62.8,5.2 M64.1,5.5
	c0.4-1.3-0.3-2.2-1.9-2.8c-0.9-0.3-1.9-0.6-2.3-0.8l-1.2-0.4l-0.2,0.7c0.4,0.2,0.8,0.4,1.2,0.6l-1.8,5.2c-0.4-0.1-0.8-0.2-1.2-0.2
	l-0.2,0.7l3.3,1.2L60,9c-0.3-0.2-0.6-0.3-0.9-0.5l0.7-2.1l0.5,0.2l0.8,3.6l1.8,0.6l0.2-0.7c-0.2-0.2-0.5-0.3-0.8-0.5l-0.5-2
	c-0.1-0.2-0.2-0.6-0.2-0.8C62.7,7.1,63.8,6.5,64.1,5.5 M71.6,9.5l1-1.7L67.8,5l-0.4,0.6c0.3,0.3,0.6,0.5,1,0.8l-2.8,4.7
	c-0.4-0.2-0.8-0.3-1.2-0.5l-0.4,0.6l4.8,2.8l1-1.7l-0.8-0.4c-0.3,0.3-0.5,0.6-0.7,0.8l-1.7-1l1.2-2.1l1.2,0.7
	c-0.1,0.2-0.2,0.5-0.2,0.7l0.7,0.4l1.2-2.1L70.1,9c-0.2,0.2-0.4,0.4-0.5,0.6l-1.2-0.7L69.6,7l1.7,1c-0.1,0.3-0.3,0.7-0.4,1L71.6,9.5
	z M71,14.7c-0.3,0.4-0.2,0.9,0.2,1.2c0.4,0.3,0.9,0.2,1.2-0.2s0.2-0.9-0.2-1.2C71.8,14.2,71.3,14.3,71,14.7 M72.4,24.2l0.3-0.2
	l-1.1-1.3l-0.2,0.2c0.1,0.2,0.2,0.3,0.3,0.5l-1.9,1.8c-0.1-0.1-0.3-0.2-0.4-0.4L69,25l1.2,1.3l0.2-0.2c-0.1-0.2-0.2-0.3-0.3-0.5
	l1.9-1.8L72.4,24.2 M74.4,27.8l0.9-0.7l-1.9-2.5l-0.9,0.7l0.2,0.3c0.2-0.1,0.4-0.2,0.6-0.3l0.5,0.6l-2,1.5c-0.1-0.1-0.3-0.3-0.4-0.4
	l-0.3,0.2l1.1,1.4l0.3-0.2c-0.1-0.2-0.2-0.3-0.3-0.5l2-1.5l0.5,0.6c-0.2,0.1-0.3,0.3-0.4,0.4L74.4,27.8z M81.6,18.9l1.6-1.5
	c-0.3-0.5-0.6-1-1-1.5c-1.2-1.6-3.5-1.8-5.1-0.6c-0.1,0.1-0.3,0.2-0.4,0.4c-1.4,1.1-1.8,3.1-0.7,4.6c0.1,0.2,0.3,0.4,0.5,0.5
	c0.5,0.5,1,1,1.7,1.3l0.8-0.8c-0.6-0.2-1.1-0.6-1.5-1c-1-0.8-1.1-2.3-0.2-3.2c0.1-0.1,0.3-0.3,0.4-0.4c1.2-1.1,2.5-1.3,3.5-0.1
	c0.2,0.2,0.4,0.5,0.6,0.7c-0.2,0.3-0.5,0.6-0.8,1L81.6,18.9z M85,26.5c-1,0.8-2.4,0.7-3.2-0.3c-0.1-0.1-0.2-0.2-0.2-0.3
	c-0.7-1.2-0.2-2.5,1.2-3.3c1-0.8,2.4-0.7,3.2,0.3c0.1,0.1,0.2,0.2,0.2,0.3C86.9,24.4,86.4,25.7,85,26.5 M87.2,22.8
	c-1-1.7-3.2-2.3-5-1.3c-0.1,0-0.2,0.1-0.2,0.2c-2,1.2-2.5,3-1.4,4.9c1,1.7,3.2,2.4,5,1.4c0.1-0.1,0.2-0.1,0.3-0.2
	C87.8,26.6,88.4,24.7,87.2,22.8 M93.3,49H94l-0.2-3.3h-0.7C93,46,93,46.4,93,46.8l-2.5,0.1c-0.8,0-1.6,0.1-2.5,0.2l0,0
	c0.5-0.3,1.1-0.7,1.5-1l4.2-2.9l-0.1-2.9h-0.7c-0.1,0.4-0.1,0.8-0.1,1.2l-5.5,0.2c-0.1-0.4-0.1-0.8-0.3-1.2h-0.8l0.2,3.5h0.7
	c0.1-0.4,0.1-0.8,0.2-1.2l3.1-0.2c0.6,0,1.3-0.1,1.9-0.2l0,0c-0.5,0.3-1,0.6-1.5,0.9l-4.2,3l0.1,1.7l6.4-0.3c0,0.3,0.1,0.7,0.2,1"/>
</svg>
