<?xml version="1.0" standalone="no"?>
<!DOCTYPE svg PUBLIC "-//W3C//DTD SVG 20010904//EN"
 "http://www.w3.org/TR/2001/REC-SVG-20010904/DTD/svg10.dtd">
<svg version="1.0" xmlns="http://www.w3.org/2000/svg"
 width="300.000000pt" height="300.000000pt" viewBox="0 0 300.000000 300.000000"
 preserveAspectRatio="xMidYMid meet">
<metadata>
Created by potrace 1.10, written by Peter Selinger 2001-2011
</metadata>
<g transform="translate(0.000000,300.000000) scale(0.100000,-0.100000)"
fill="#000000" stroke="none">
<path d="M1349 2989 c-552 -45 -1052 -431 -1255 -966 -96 -256 -116 -604 -50
-878 117 -480 467 -874 933 -1051 256 -96 604 -116 878 -50 480 117 874 467
1051 933 96 256 116 604 50 878 -152 624 -686 1082 -1322 1135 -132 11 -147
11 -285 -1z m436 -59 c453 -95 825 -384 1025 -795 57 -117 92 -219 122 -359
31 -144 31 -408 0 -552 -32 -149 -66 -246 -132 -379 -354 -710 -1223 -1004
-1935 -655 -417 204 -696 567 -797 1034 -31 144 -31 407 0 552 100 467 382
833 797 1035 153 74 287 112 500 143 72 10 324 -4 420 -24z"/>
<path d="M1310 2805 c-279 -42 -540 -174 -740 -375 -253 -252 -384 -569 -384
-925 0 -224 35 -375 135 -582 68 -139 152 -253 272 -370 82 -79 224 -193 241
-193 2 0 7 7 10 16 4 10 -8 32 -34 61 -68 77 -95 145 -95 238 0 65 4 89 24
128 14 26 27 47 29 47 12 0 137 -118 153 -145 11 -17 19 -49 19 -72 0 -37 -7
-50 -50 -98 -56 -62 -61 -86 -25 -118 25 -22 39 -36 87 -86 15 -16 40 -32 55
-35 16 -4 49 -18 75 -31 34 -18 63 -25 105 -24 206 1 715 -10 752 -16 43 -8
44 -7 38 16 -3 13 -17 51 -31 84 -21 50 -25 75 -25 145 1 137 0 135 100 137
139 2 254 55 285 130 9 21 14 60 12 108 -3 70 -1 75 27 105 24 25 27 34 19 48
-8 12 -8 22 -1 34 8 11 6 30 -6 68 -22 68 -13 83 68 110 50 17 69 28 80 50 18
34 14 45 -70 230 -42 90 -60 143 -65 190 -4 36 -20 93 -35 128 -24 55 -26 66
-15 87 7 14 10 35 6 52 -9 38 -9 46 -2 63 4 10 -13 41 -49 88 -55 70 -56 72
-39 97 14 21 14 30 4 55 -22 54 -53 59 -113 17 -15 -10 -35 -16 -44 -13 -14 6
-14 8 2 26 28 31 9 43 -59 38 -84 -7 -85 -6 -70 52 10 39 32 71 106 155 51 59
94 110 96 114 3 10 -133 74 -228 106 -189 65 -431 88 -620 60z m325 -36 c143
-17 284 -56 408 -114 l58 -27 -48 -51 c-27 -29 -61 -67 -76 -86 l-28 -33 -47
20 c-146 63 -347 92 -507 73 -257 -30 -468 -130 -642 -307 -166 -167 -263
-361 -299 -597 -32 -206 7 -441 105 -635 27 -53 114 -180 132 -192 5 -3 2 -24
-6 -45 -26 -74 -18 -148 30 -270 12 -31 -170 152 -229 230 -380 502 -343 1177
89 1643 262 282 680 437 1060 391z m73 -275 c82 -17 212 -62 212 -74 0 -4 -12
-12 -26 -19 -21 -9 -39 -7 -103 13 -273 86 -572 46 -814 -110 -94 -60 -231
-199 -289 -294 -53 -86 -100 -196 -125 -296 -26 -107 -24 -332 5 -449 24 -95
87 -236 144 -321 28 -41 32 -55 25 -72 -6 -12 -13 -22 -17 -22 -10 0 -95 128
-129 197 -164 324 -137 718 69 1024 56 82 187 213 269 269 230 154 509 210
779 154z m-83 -85 c59 -8 205 -45 205 -52 0 -1 -14 -29 -30 -62 -28 -56 -30
-58 -27 -25 3 49 -20 49 -76 -1 -60 -52 -68 -67 -87 -163 -9 -44 -21 -81 -28
-84 -8 -2 -7 7 3 32 15 36 21 136 8 136 -5 0 -22 -9 -39 -19 -38 -23 -77 -74
-93 -120 -13 -40 -15 -145 -2 -137 5 3 11 0 14 -8 3 -8 -2 -16 -11 -19 -9 -3
-25 -8 -34 -12 -17 -7 -17 -5 -3 29 16 39 20 123 6 145 -7 12 -14 10 -36 -7
-54 -42 -95 -112 -96 -164 l0 -33 -18 39 -17 39 -47 -52 c-43 -49 -66 -98 -68
-146 0 -19 -1 -19 -9 1 -14 36 -27 36 -60 -3 -41 -47 -60 -91 -60 -145 l-1
-43 -15 28 c-19 35 -28 34 -58 -6 -36 -47 -58 -115 -52 -157 l5 -35 -21 28
-20 28 -24 -32 c-35 -48 -57 -113 -52 -158 4 -45 1 -49 -17 -24 -7 9 -17 13
-24 9 -14 -9 -51 -80 -51 -100 0 -39 -21 -19 -44 41 -46 123 -60 198 -60 343
0 108 4 152 22 220 108 409 465 692 882 699 36 0 96 -4 135 -10z m310 -36
c-13 -54 -37 -92 -85 -137 -61 -57 -73 -58 -55 -7 23 67 43 98 87 135 50 43
62 45 53 9z m135 -81 c0 -31 -108 -88 -187 -99 l-48 -6 20 23 c29 32 72 61
114 76 41 15 101 18 101 6z m-334 -95 c-26 -54 -101 -136 -113 -124 -3 4 2 33
11 65 14 43 31 69 69 107 48 47 52 49 55 27 2 -13 -8 -47 -22 -75z m472 51
c18 -18 15 -43 -8 -63 -22 -20 -30 -7 87 -138 30 -32 25 -54 -14 -62 -115 -24
-204 -53 -303 -102 -103 -50 -124 -65 -201 -143 -53 -54 -121 -141 -178 -226
-125 -186 -118 -179 -147 -151 -13 12 -24 25 -24 30 0 10 75 130 124 197 117
159 282 349 417 478 74 71 218 191 230 192 3 0 10 -5 17 -12z m-136 -23 c2 -3
-73 -83 -167 -177 -188 -190 -304 -330 -428 -515 -66 -98 -87 -122 -105 -123
-49 0 -90 -30 -117 -83 -28 -57 -31 -103 -10 -161 13 -38 13 -38 -27 -82 -30
-32 -36 -44 -24 -44 10 0 31 14 48 30 30 30 48 38 48 21 0 -15 -89 -89 -154
-129 -39 -24 -54 -38 -43 -40 24 -5 122 47 172 91 24 20 46 37 49 37 15 0 29
-51 27 -101 -1 -32 8 -107 19 -167 24 -125 20 -146 -31 -156 -17 -3 -65 -6
-106 -6 -72 0 -159 -15 -177 -30 -18 -17 4 -29 32 -18 15 6 87 14 161 17 131
6 134 7 154 33 20 27 20 29 3 130 -10 57 -20 127 -23 156 l-6 53 27 -12 c15
-7 29 -23 32 -38 3 -14 14 -53 25 -86 43 -139 49 -256 12 -286 -13 -11 -70
-14 -260 -14 -239 0 -244 0 -238 20 25 79 25 96 5 143 -13 30 -48 75 -97 122
l-76 75 56 6 c30 3 70 15 89 26 39 23 98 97 98 124 0 31 -111 27 -176 -6 -27
-14 -49 -25 -49 -25 0 0 0 24 0 54 0 42 3 52 13 44 6 -6 12 -17 12 -24 0 -10
15 -14 58 -14 101 0 191 61 217 148 6 20 3 22 -37 22 l-43 1 37 13 c21 8 49
21 62 30 31 20 73 75 78 101 2 17 -4 21 -37 25 -39 5 -40 5 -10 12 42 9 95 47
122 87 39 58 33 64 -49 59 -40 -3 -81 -9 -91 -13 -15 -6 -16 -4 -7 20 5 14 10
41 10 58 1 27 2 29 11 14 6 -10 8 -30 4 -44 l-6 -26 69 5 c111 8 194 60 217
136 6 20 3 22 -27 23 -20 1 -25 3 -13 6 75 17 99 27 131 55 42 37 71 88 55 97
-6 4 8 12 32 18 52 15 109 61 130 106 12 24 27 37 54 45 40 13 78 42 105 81
26 37 143 93 160 76z m-172 -56 c0 -36 -135 -109 -202 -109 l-32 0 35 36 c45
47 83 67 144 75 28 3 51 7 53 8 1 0 2 -4 2 -10z m-315 -19 c13 -22 -25 -117
-66 -163 -51 -59 -63 -60 -54 -4 10 60 28 98 65 140 33 39 45 44 55 27z m145
-124 c0 -37 -95 -91 -197 -111 -43 -9 -42 3 5 47 44 42 74 59 122 69 56 11 70
10 70 -5z m-319 -106 c-6 -20 -27 -55 -47 -79 -30 -34 -39 -40 -46 -28 -21 39
34 180 81 207 13 7 17 2 19 -28 2 -20 -1 -53 -7 -72z m852 -5 c-7 -19 -55 -45
-83 -45 -35 0 -22 43 15 51 56 12 75 10 68 -6z m-143 -31 c0 -29 -63 -84 -103
-91 l-38 -6 7 39 c3 21 7 40 8 40 6 7 113 40 119 37 4 -2 7 -11 7 -19z m-850
-56 c0 -55 -22 -113 -59 -158 -18 -21 -22 -23 -31 -10 -24 36 -3 133 41 189
36 45 49 40 49 -21z m300 43 c0 -21 -83 -81 -131 -95 -57 -17 -99 -21 -99 -8
0 15 75 81 110 96 38 17 120 21 120 7z m744 -83 c20 -51 36 -110 36 -131 0
-25 20 -83 56 -165 84 -190 91 -209 78 -229 -6 -10 -37 -28 -69 -40 -94 -36
-102 -49 -80 -120 5 -17 3 -23 -7 -23 -8 0 -33 -16 -55 -35 -24 -20 -52 -35
-67 -35 -14 0 -26 -4 -26 -10 0 -22 51 -8 90 25 56 46 105 49 63 3 -15 -17
-15 -19 2 -32 40 -29 -11 -45 -67 -21 -11 4 -18 3 -18 -4 0 -6 14 -14 30 -17
29 -6 40 -27 20 -39 -5 -3 -10 -41 -10 -84 0 -64 -4 -83 -21 -105 -23 -30 -96
-70 -147 -81 -66 -14 -170 -7 -238 15 -86 29 -222 120 -327 220 -77 73 -83 81
-79 112 l5 33 -26 -27 c-14 -16 -29 -28 -32 -28 -20 0 -48 26 -66 63 -12 23
-34 57 -50 74 -87 100 -51 273 57 276 47 1 86 -40 104 -111 15 -55 30 -65 82
-55 22 4 33 1 44 -15 20 -29 74 -45 108 -32 30 11 65 77 66 122 0 14 11 40 25
56 55 66 68 140 36 202 -17 31 -17 38 -5 62 8 15 25 29 42 33 30 6 71 43 90
81 8 15 24 23 52 27 46 6 107 43 116 70 4 12 16 17 42 17 20 0 51 9 67 19 17
11 33 20 36 20 3 1 23 -41 43 -91z m-1007 -8 c3 -8 5 -19 4 -23 0 -4 6 -10 15
-14 11 -4 5 -10 -23 -19 -21 -8 -39 -14 -40 -14 -1 0 5 16 13 35 7 19 15 47
15 62 1 20 3 22 6 8 2 -11 7 -27 10 -35z m629 -16 c-10 -38 -65 -94 -92 -94
-16 0 -28 -8 -36 -25 -6 -13 -19 -27 -30 -30 -24 -8 -58 3 -58 20 0 18 120
128 171 157 47 26 57 20 45 -28z m-807 -70 c14 -51 -3 -123 -41 -176 -28 -38
-32 -40 -39 -23 -11 30 -10 110 2 142 10 27 56 93 64 93 2 0 9 -16 14 -36z
m291 16 c0 -5 -15 -25 -34 -44 -39 -38 -119 -69 -168 -64 l-32 3 34 39 c19 22
53 47 75 57 42 20 125 26 125 9z m300 -159 c17 -33 11 -50 -34 -99 -45 -48
-74 -102 -56 -102 5 0 15 7 22 16 7 9 34 36 61 61 42 41 47 51 47 89 0 56 24
60 46 8 20 -48 11 -82 -37 -143 -33 -42 -41 -59 -43 -100 -1 -27 -8 -57 -16
-66 -19 -23 -66 -13 -96 21 -17 18 -30 23 -44 19 -24 -7 -25 2 -4 30 10 13 14
40 13 82 -2 69 6 86 74 160 45 48 52 51 67 24z m-721 -22 c18 -52 13 -102 -16
-159 -16 -29 -32 -54 -38 -54 -17 -2 -37 76 -30 119 6 42 49 125 64 125 5 0
14 -14 20 -31z m286 21 c3 -5 -14 -29 -37 -53 -47 -47 -109 -71 -169 -65 l-34
3 43 47 c41 44 72 61 132 71 45 8 59 7 65 -3z m-194 -151 c-24 -4 -50 -14 -57
-20 -18 -15 -27 -7 -18 15 5 12 19 16 63 15 l56 -1 -44 -9z m99 -19 c0 -20
-66 -84 -105 -101 -22 -10 -62 -19 -88 -19 l-48 0 28 39 c42 59 99 88 176 90
20 1 37 -3 37 -9z m-304 -46 c15 -40 16 -54 6 -101 -6 -30 -20 -69 -31 -85
l-19 -31 -17 27 c-35 53 -29 149 13 214 21 32 28 28 48 -24z m649 -50 c-18
-28 -30 -31 -39 -7 -4 10 4 32 21 57 l28 41 3 -33 c2 -19 -4 -44 -13 -58z
m-599 -20 c-6 -21 -2 -23 33 -26 l39 -3 -47 -15 -47 -15 0 51 c1 42 4 50 14
41 8 -6 11 -20 8 -33z m154 -50 c0 -19 -45 -76 -75 -94 -37 -23 -127 -41 -145
-30 -27 17 54 102 110 118 40 12 110 15 110 6z m-310 -64 c12 -23 20 -58 20
-87 0 -50 -31 -133 -49 -133 -12 0 -39 49 -52 92 -11 41 27 168 51 168 5 0 19
-18 30 -40z m226 -138 c-32 -62 -104 -102 -181 -102 l-46 0 22 40 c29 51 75
80 142 89 71 10 80 6 63 -27z m539 -159 c123 -117 237 -194 341 -230 l32 -11
-19 -79 c-23 -95 -23 -114 -3 -183 29 -103 29 -104 10 -97 -54 21 -161 27
-316 19 -91 -5 -166 -9 -168 -7 -1 1 1 19 6 40 6 33 13 40 39 47 59 15 81 84
48 149 -12 23 -13 34 -4 51 17 32 5 159 -25 257 -23 74 -32 121 -23 121 1 0
38 -35 82 -77z m-257 -363 c16 0 22 -6 22 -21 0 -37 30 -86 65 -105 40 -21 40
-44 -1 -81 -20 -18 -37 -23 -79 -23 -47 0 -57 3 -71 25 -30 45 -41 93 -34 146
7 54 23 72 55 64 11 -2 30 -5 43 -5z m-364 -38 c-9 -35 -9 -35 -33 -27 -27 8
-27 30 1 49 28 20 40 11 32 -22z m229 11 c-11 -43 -8 -136 6 -162 17 -31 2
-45 -33 -31 -35 13 -56 64 -56 134 0 77 5 86 51 86 38 0 39 -1 32 -27z m335
-12 c4 -39 -21 -71 -55 -71 -31 0 -73 42 -73 74 0 23 4 25 53 29 72 4 72 5 75
-32z m-453 -51 c0 -66 -3 -80 -16 -80 -54 0 -91 140 -40 153 54 15 56 12 56
-73z"/>
<path d="M1515 2703 c-3 -26 -7 -63 -10 -80 -3 -27 0 -33 16 -33 16 0 19 8 21
55 1 30 2 65 2 77 1 12 -4 23 -11 25 -7 3 -14 -13 -18 -44z"/>
<path d="M1290 2728 c0 -12 29 -150 32 -153 2 -2 9 -1 16 3 8 6 9 18 3 42 -5
19 -12 52 -16 73 -3 23 -11 37 -20 37 -8 0 -15 -1 -15 -2z"/>
<path d="M1727 2651 c-31 -79 -31 -81 -14 -81 8 0 26 30 40 68 31 78 32 82 14
82 -7 0 -25 -31 -40 -69z"/>
<path d="M1075 2671 c-8 -14 57 -141 72 -141 19 0 16 13 -19 85 -32 64 -41 74
-53 56z"/>
<path d="M1902 2596 c-29 -36 -47 -68 -42 -71 15 -9 25 0 74 64 40 52 47 71
26 71 -3 0 -30 -29 -58 -64z"/>
<path d="M865 2570 c-8 -12 85 -120 103 -120 20 0 11 17 -38 76 -47 55 -55 61
-65 44z"/>
<path d="M675 2429 c-4 -6 -5 -11 -4 -13 2 -1 27 -18 54 -38 67 -47 69 -48 84
-39 9 6 -8 22 -54 55 -73 51 -71 50 -80 35z"/>
<path d="M506 2251 c-3 -5 28 -22 69 -38 57 -23 77 -28 85 -18 7 9 -7 19 -58
38 -73 29 -88 32 -96 18z"/>
<path d="M380 2046 c0 -15 39 -24 124 -29 57 -3 57 19 -1 27 -26 4 -65 9 -85
12 -30 5 -38 2 -38 -10z"/>
<path d="M375 1841 c-62 -6 -85 -15 -85 -32 0 -9 49 -7 137 7 33 5 57 35 25
32 -9 0 -44 -4 -77 -7z"/>
<path d="M333 1621 c-52 -18 -73 -31 -73 -43 0 -15 9 -13 78 12 47 17 78 34
80 44 4 20 4 20 -85 -13z"/>
<path d="M328 1393 c-42 -28 -65 -50 -61 -59 6 -16 143 72 143 92 0 21 -9 17
-82 -33z"/>
<path d="M376 1174 c-36 -41 -56 -70 -52 -80 4 -11 22 3 66 52 33 36 60 70 60
74 0 26 -22 12 -74 -46z"/>
<path d="M464 960 c-24 -47 -37 -84 -33 -92 10 -15 8 -17 52 67 35 66 46 105
30 105 -5 0 -26 -36 -49 -80z"/>
<path d="M581 785 c-17 -70 -20 -100 -12 -108 15 -15 15 -13 38 86 15 67 17
91 9 103 -10 12 -16 -3 -35 -81z"/>
<path d="M2151 1700 c-23 -11 -59 -33 -80 -48 -20 -16 -45 -32 -56 -37 -13 -5
-16 -9 -7 -12 7 -3 44 16 84 41 69 45 122 59 130 35 2 -7 10 -10 18 -7 10 3 9
9 -8 26 -27 27 -26 27 -81 2z"/>
<path d="M2207 1630 c-3 -13 -14 -20 -29 -20 -13 0 -53 -20 -90 -45 -36 -24
-78 -47 -93 -51 -43 -11 -11 -21 90 -28 120 -9 125 -7 125 60 0 30 5 54 10 54
12 0 13 37 1 44 -5 3 -11 -3 -14 -14z m-19 -88 l3 -32 -65 0 c-36 0 -66 4 -66
8 0 10 102 62 115 58 6 -1 11 -17 13 -34z"/>
<path d="M1325 1336 c-52 -52 -40 -162 22 -201 18 -11 36 -32 42 -47 11 -30
38 -37 48 -13 7 21 -6 33 -17 16 -6 -11 -12 -6 -24 17 -9 17 -25 33 -36 37
-64 20 -66 184 -3 193 32 5 45 -27 34 -79 -11 -47 0 -79 24 -79 17 0 20 16 5
25 -5 3 -10 35 -10 70 0 53 -3 66 -19 75 -29 15 -39 13 -66 -14z"/>
<path d="M2256 1308 c-11 -41 -6 -85 10 -99 13 -11 26 -8 80 19 35 18 64 36
64 42 0 12 -41 -3 -88 -32 -44 -27 -63 -13 -51 40 11 47 11 52 0 52 -5 0 -11
-10 -15 -22z"/>
</g>
</svg>
