<?xml version="1.0" encoding="utf-8"?>
<!-- Generator: Adobe Illustrator 25.1.0, SVG Export Plug-In . SVG Version: 6.00 Build 0)  -->
<svg version="1.1" id="svg2" xmlns="http://www.w3.org/2000/svg" xmlns:xlink="http://www.w3.org/1999/xlink" x="0px" y="0px"
	 viewBox="0 0 717.2 777" style="enable-background:new 0 0 717.2 777;" xml:space="preserve">
<style type="text/css">
	.st0{fill:#B1CAE0;}
	.st1{fill:#92B2D2;}
	.st2{fill:#6DA8D6;}
	.st3{fill:#568AB9;}
	.st4{fill:#4379B0;}
	.st5{fill:#2D70A9;}
	.st6{fill:#025397;}
</style>
<g id="layer1" transform="translate(-212.635 -630.383)">
	<g id="g3030">
		<path id="path3044" class="st0" d="M557.1,1403.5c-2.9-1.9-17.4-11.3-32.2-20.6c-83.7-53.1-145.9-103-166-133.3
			c-10.7-15.8-13.9-26.5-16.1-49.6c-0.8-8.6-3.2-26-5.4-38.9c-2.1-12.9-4.8-33.5-5.6-46.1c-2.1-27.9,0.3-34.6,22.8-63.8
			c8.8-11.5,18-25.2,20.1-30.6c4.6-10.7,5.4-49.3,1.6-78.3c-2.4-18.5-0.5-27.9,5.9-31.9c6.7-4.3,13.7,4.6,20.6,26.5
			c7.2,22.5,15.3,33.8,27.9,40c5.1,2.4,32.7,7.8,61.4,12.1c34.6,5.1,54.7,9.1,59.3,12.3c8,5.1,15,19.8,23.6,49.1l5.6,19.6l-5.9,18.2
			c-6.4,19.6-7.5,40.5-3.2,49.1c3.8,6.7,14.5,6.7,47.5-0.5c31.1-6.7,38.3-10.2,47.7-22.5c4-5.1,8.8-9.4,11-9.4
			c2.1,0,5.9,5.1,8.6,11.5c6.4,15.3,11.8,19,26.5,19.3c12.1,0.3,12.3,0,26-18.5l13.7-18.5v-48.8l-15.6-27.1
			c-8.6-14.7-15.6-29-15.6-31.4s5.6-8,12.3-12.9c6.7-4.6,13.4-11.3,14.7-14.7c3.5-9.4-1.1-19.3-11.3-23.3c-8.3-3.2-8.6-4.3-8-15.8
			c0.5-8.6-0.5-13.4-3.8-16.6c-5.4-5.4-22.5-5.9-29.2-0.8c-4.6,3.5-4.6,4,0.8,14.5c6.2,11.8,14.7,19.3,22.3,19.3
			c5.9,0,6.2,4.3,0.5,6.4c-8.3,3.2-21.7,1.6-26-2.9c-6.7-7.8-20.9-37.5-20.9-44.2c0-13.9,16.1-26.3,34.6-26.3
			c17.7,0,35.1,18.8,35.1,37.5c0,11,5.6,9.1,8.8-2.7c3.2-12.3,1.1-18.8-11.5-33l-10.7-12.3l7-13.7c13.1-25.2,11-56.3-4.8-73.2
			c-7-7.5-8.8-8-18.8-6.4c-5.9,1.1-20.6,6.2-32.2,11.5c-19,8.8-21.2,10.5-19.8,15.8c2.1,8.8-1.9,9.9-15.6,3.8
			c-26.3-11.3-82.3-19.6-136.2-20.1l-39.4-0.5l-17.7-20.6c-19-22.3-24.1-26-34.9-26c-8.6,0-35.1,24.1-40.5,36.7
			c-4.8,11.5-4.6,49.3,0.3,68.9c2.1,8.6,3.5,16.6,2.4,18c-2.4,3.8-7,2.9-10.7-2.1c-3.2-4.3-3.8-4.3-9.4,0.5
			c-8.8,8-41.8,58.2-53.6,82.1c-5.9,11.5-12.6,28.2-15,37c-4.3,15.3-4.3,18,0.3,46.9c5.4,34.9,4.3,43.2-9.1,72.1
			c-4.3,9.1-9.4,22.3-11.3,29.2c-1.9,7-4,12.9-5.1,12.9c-3.5,0-24.9-47.5-33.8-74.8c-17.7-53.6-18.2-62.7-18.2-226.9V687l30.8-10.2
			c56.6-18.8,123.9-33,198.4-41.3c57.1-6.4,185.6-6.4,243.5,0c72.1,8,127.9,19.6,193.1,40l35.7,11l-1.1,154.5
			c-1.1,144.8-1.3,155.8-6.7,179.4c-23.9,106.5-84.7,196-192.5,283.7c-23.3,18.8-24.9,19.8-32.4,17.2c-11.8-4.6-19.8-13.1-28.2-30.8
			c-4.3-8.8-7.8-14.7-7.8-13.4c0,1.3-1.1,10.5-2.7,20.1c-1.6,11-1.6,24.1,0,35.9c1.9,12.9,1.6,19.6-0.3,22c-2.7,3.2-79.1,52.3-81,52
			C563,1406.9,560.1,1405.3,557.1,1403.5L557.1,1403.5z M681,1181.2c8.6-4.3,22.5-19,22.5-23.6c0-5.6-16.6-10.5-34.9-10.5
			c-30,0-75.6,11-81,19.3c-4.6,7.2,6.4,15.8,24.4,19C627.1,1188.4,672.4,1185.5,681,1181.2z M677.3,1087.6
			c5.4-23.9,5.4-22.8-1.3-27.4c-3.8-2.4-13.1-5.1-20.9-6.2c-17.4-2.1-25.2-8.8-23.1-19.8c1.6-7.8-4-26.5-19.6-65.7
			c-10.2-25.2-14.7-31.4-24.1-30.6c-11,0.8-11.5,0.3-5.6-7.2c7.2-9.1,7-15-0.5-23.9c-11.5-13.4-38.6-11.5-50.4,3.2
			c-4.6,5.9-4.8,7.2-1.3,13.9c2.1,4,8.6,9.4,14.7,12.3c14.5,6.4,12.3,11-5.1,10.5c-9.9-0.3-16.6-2.1-22-6.2c-6.2-4.6-9.9-5.6-17.4-4
			c-18,3.5-21.2-6.4-10.2-28.4c13.7-27.1,35.4-39.7,67.8-39.7c19.6,0,22,0.5,31.6,8c5.6,4.6,13.1,11.5,16.6,15.6
			c15.3,18,55.2,111.3,53.6,125.2l-1.1,8.6l14.7-2.4c17.2-2.7,47.7-0.8,57.7,4c6.2,2.7,6.7,4.6,6.2,13.9c-0.8,10.7-1.1,11-15.6,15
			c-12.9,3.8-15.3,5.6-19.6,14.7c-6.4,13.9-14.7,22.8-21.2,22.8C677,1093.5,676.2,1092.1,677.3,1087.6L677.3,1087.6z M407.2,859.6
			c-9.9-15.3-15.6-33.3-16.9-54.2c-1.1-18.5-0.5-23.3,4.3-33c7.2-13.9,15.6-20.1,22.3-16.6c2.7,1.3,8,8.8,12.1,16.6
			c4,7.8,12.3,22.5,18.8,33.3c6.4,10.5,11.8,21.5,11.8,24.1c0,2.7-3.5,7-7.5,9.4c-4.3,2.4-12.6,9.4-18.8,15.3
			C420.4,866.9,413.1,868.2,407.2,859.6L407.2,859.6z M704.1,841.1c-7.8-5.9-13.9-11.8-13.9-13.1c0-2.9,18.8-26.3,27.6-34.6
			c5.9-5.4,7.8-5.9,11-2.9c6.2,5.1,8.8,18.5,6.2,31.9c-2.4,12.3-9.7,27.4-14.2,28.7C719.4,851.6,711.8,847.3,704.1,841.1
			L704.1,841.1z"/>
		<path id="path3042" class="st1" d="M546.4,1396c-79.9-50.4-128.4-86.1-162.5-120.1c-30.8-30.6-37-42.1-40.2-76.4
			c-1.3-13.4-3.5-29.5-5.1-36.2c-1.3-6.7-3.5-27.1-4.6-45.6l-1.9-33.5l11.8-16.6c6.4-9.1,16.4-23.1,21.7-30.8
			c14.2-19.8,16.4-34.6,12.6-80.4c-3.5-39.7-2.1-46.1,9.1-44.5c4,0.5,7.2,5.6,12.3,20.9c15.6,44.5,19.8,47.2,93,57.4
			c49.3,7,62.7,11,66.5,19.6c7.8,19.3,17.4,51.5,17.4,58.5c0,4.8-1.9,13.7-4,19.8c-4.8,13.7-5.4,45.9-0.8,50.4
			c5.1,5.1,23.1,3.8,53.4-3.2c25.7-6.2,28.4-7.2,39.4-18.8c6.4-6.7,12.9-12.3,14.2-12.3s4.8,5.9,8,13.1
			c5.6,13.1,10.2,16.6,27.1,20.4c5.9,1.3,8.6-0.3,16.9-9.9c19.3-22.3,24.4-33.8,24.1-54.4c0-19.8-1.1-22.3-23.3-63.8
			c-5.4-9.9-9.1-19.6-8.6-21.5c0.5-1.9,6.7-6.7,13.1-10.5c18.8-11.3,19.3-31.1,1.3-37.8c-7.8-2.9-8-3.8-6.4-14.2
			c1.3-9.7,0.8-12.3-5.1-18.2c-8-8-19.8-9.1-28.4-2.1c-5.4,4.3-5.6,5.6-2.4,12.9c4.8,11,15.8,22.8,21.7,22.8c2.7,0,4.8,1.1,4.8,2.7
			c0,3.2-17.2,6.7-22.5,4.6c-4.8-1.9-25.5-38.9-25.7-45.6c0-14.2,16.9-28.7,33.8-28.7c9.4,0,23.3,8.3,29.2,17.2
			c2.4,3.8,5.1,11.5,5.9,17.7c1.6,12.6,6.2,12.9,9.7,0.5c3.2-11.5,0.8-19.3-11.3-34.3c-10.5-12.9-10.5-13.1-5.9-19.8
			c16.1-23.1,14.5-60.9-3.2-79.6c-7-7.5-15.3-7.5-35.7-0.5c-25.2,8.6-37.5,16.6-36.5,23.6c1.1,7.5-0.3,7.2-24.1-0.5
			c-28.2-9.4-72.1-15.3-122.3-16.4l-43.7-1.1l-5.6-7.5c-3.2-4-12.3-14.5-20.4-22.8c-11.8-12.3-16.1-15.6-23.1-15.6
			c-10.7,0-27.4,12.1-37.8,27.1c-6.7,9.9-8,14.2-8.8,34.1c-0.5,12.6,0.5,31.6,2.4,42.6c3.8,21.5,2.7,25.5-5.1,18.8
			c-2.7-2.4-6.2-4.6-7.5-4.6c-8,0-58.2,80.7-69.5,111.6c-6.7,18.5-7.2,21.7-5.1,40.8c1.3,11.3,2.4,31.6,2.4,44.8
			c0,22.3-0.5,25.7-10.2,46.4c-5.6,12.3-11,26.3-11.8,31.6c-0.8,5.4-2.4,9.4-3.5,9.4c-3.2,0-25.5-50.4-33.5-75.1
			c-17.4-54.4-18-62.5-19.3-223.6c-1.1-120.7-0.5-147.5,2.4-149.6c5.4-3.5,58.5-19.8,89.3-27.4c189-46.9,419.7-38.6,594,22l14.7,5.1
			v149.9c0,145.9-0.3,150.7-6.2,178.6c-19,88.8-60.6,161.7-134.1,234.9c-30.6,30.3-78.8,70.5-84.7,70.5c-6.2,0-18-6.4-23.9-12.9
			c-2.7-2.9-7.8-12.3-11-20.6c-5.4-13.1-6.4-14.2-7.8-8.8c-3.8,13.4-4.8,44.5-2.1,58.5c2.7,13.7,2.4,15-2.9,19
			c-11.5,9.1-71.6,45.6-76.2,46.7C562.2,1403.7,553.9,1400.5,546.4,1396z M684,1179.8c12.6-6.7,20.9-17.2,18.5-23.3
			c-4-10.7-38.1-13.1-75.4-5.4c-37,7.8-47.2,14.7-37.5,25.5c7,7.5,23.3,10.5,55,9.7C667.3,1186,674.6,1184.6,684,1179.8L684,1179.8z
			 M678.1,1091.1c-0.8-1.3-0.3-5.9,1.1-9.7c7.2-18.8,2.1-24.4-24.9-28.4c-8.8-1.3-17.2-3.8-18.5-5.9c-1.3-1.9-2.1-8.6-2.1-14.5
			c0-15.3-27.9-89.3-35.4-93.9c-1.9-1.1-7-1.9-11-1.6c-8.3,0.5-9.1-1.1-3.2-8.8c5.6-7.5,4.8-15.8-2.4-22.5
			c-14.2-13.4-34.9-12.3-48.8,2.4c-7.5,7.8-7.5,8.6-3.8,15.6c2.1,4,8.6,9.4,13.9,12.1c10.5,5.1,12.3,8.3,6.4,10.7
			c-5.6,2.1-25.2-2.1-33.3-7.5c-4.8-3.2-11.3-4.6-18.8-4.3c-14.5,0.8-16.9-5.1-8.8-23.3c6.7-15.6,18-27.1,35.9-36.5
			c10.7-5.6,16.9-7,32.2-6.7c10.5,0,21.7,1.6,24.9,3.5c21.7,12.1,38.3,38.6,63.6,102.7c15.8,39.4,16.6,43.7,11.5,49.1
			c-2.7,2.9-1.6,3.2,5.9,1.6c5.1-1.1,20.4-1.9,34.1-1.9c29.2,0,39.4,3.8,40.8,14.7c1.1,10.2-2.7,13.9-17.2,17.7
			c-9.1,2.4-13.1,5.1-16.6,11.3C691.2,1090.3,682.6,1098.3,678.1,1091.1L678.1,1091.1z M407.2,857.2c-9.7-11.5-16.1-35.1-16.4-59
			c0-17.7,0.8-21.7,7.2-31.6c10.7-16.1,18.5-15.6,28.2,2.4c4,7.5,13.1,23.3,20.1,35.4c7,11.8,12.9,23.1,12.9,24.9
			c0,1.9-5.6,7.5-12.9,12.6c-7.2,5.1-15.6,12.6-19.3,16.4C419,867.7,415.8,867.4,407.2,857.2z M704.1,840.9
			c-13.7-10.5-13.9-11-10.2-18c2.1-4,9.9-13.7,17.4-21.7l13.7-14.5l5.1,6.4c7.2,8.8,6.7,27.6-1.3,45.3c-3.5,7.8-7.5,13.9-8.6,13.9
			S711.8,846.8,704.1,840.9L704.1,840.9z"/>
		<path id="path3040" class="st2" d="M528.7,1383.6c-97.3-60.9-160.6-114-175.6-146.9c-4-8.6-7.2-23.1-8.8-38.9
			c-1.3-13.9-3.8-31.6-5.4-39.7c-4.6-26-6.4-66.2-3.2-75.1c1.6-4.6,9.9-17.7,18.8-29.2c24.4-32.2,26-35.7,26-65.2
			c0-13.9-0.8-35.1-2.1-46.9c-1.9-17.4-1.3-22.5,1.9-26.8c6.4-8.6,12.9-2.1,20.9,21.2c14.2,41.8,17.7,43.7,108.1,56.6
			c17.4,2.4,34.9,5.6,38.1,7c8.6,3.2,15.8,16.1,23.6,41.8c7.8,25.2,8,31.6,2.7,44.8c-2.1,5.4-4.8,16.1-5.6,24.4
			c-2.1,18,2.1,30,11.3,32.2c7.5,1.9,64.9-9.9,76.2-15.8c4.3-2.1,9.9-7.5,12.6-12.1c8.6-14.2,11.3-13.1,22.5,9.1
			c2.9,5.9,7.2,8.8,15.8,11.3c6.4,1.9,13.9,2.9,16.1,2.1s8.8-7.5,14.5-15c27.4-36.5,27.1-59-1.1-107.3
			c-12.6-21.5-13.1-27.6-3.2-33.8c14.7-9.1,19.3-15,19.3-24.1c0-10.2-7.8-19.6-16.1-19.6c-4.8,0-5.1-1.3-3.8-11.8s0.8-12.9-5.4-18.8
			c-8.3-8.3-20.1-9.1-29-1.6l-6.4,5.4l7,12.9c5.1,9.4,9.1,13.7,15.6,15.3c12.3,3.8,10.5,6.7-4.8,6.7h-13.1l-9.7-18.2
			c-13.9-26-14.2-30-4-41.8c8.8-10.2,21.5-14.5,33.5-11.5c11.8,2.9,24.9,18.8,27.1,32.4c1.9,13.1,4.8,15.3,9.1,7
			c5.6-10.5,3.2-22-8-37l-11-14.5l7.2-14.7c10.2-20.6,10.2-43.2,0.3-62.2c-5.1-9.9-9.4-14.5-14.2-15.8c-10.2-2.4-32.2,3.2-50.7,13.1
			c-12.9,7-16.1,9.9-15.6,14.7c0.8,7.5,1.1,7.5-22-0.5c-27.4-9.4-71.6-15.6-122.3-16.6l-44.2-1.1l-19.8-21.7
			c-21.5-23.3-28.7-27.9-38.9-23.9c-10.2,3.8-28.2,21.5-34.3,33.5c-6.4,12.9-7.5,48-2.1,71.1c1.9,7.5,2.4,15.6,1.6,18
			c-1.6,3.8-2.4,3.8-8-1.6l-6.4-5.9L348.8,868c-27.9,38.3-48,73.7-57.1,101.1c-3.8,11.3-4.3,18.8-2.9,33.5c5.6,61.7,5.9,60.6-5.1,85
			c-5.6,12.3-11.3,27.6-12.9,33.8c-1.6,6.2-3.8,11.3-4.8,11.3c-2.9,0-22.3-41.8-30.3-65.4c-19.6-57.1-22.8-93.3-22.8-259.6V687.8
			l32.7-10.7c82.1-26.5,167.6-41.3,265.7-45.9c139.2-6.2,287.2,13.4,392.6,52.3l11.3,4.3v132.7c0,168.1-3.2,198.2-27.1,259.8
			c-22.8,58.7-53.9,105.7-104.3,157.9c-35.7,37-88.5,82.1-96,82.1c-13.4,0-29-17.4-35.7-39.7c-5.6-19.6-9.1-6.7-9.4,35.4
			c0,33.8-0.5,37.5-5.4,41c-8.6,6.2-67.8,43.7-71.9,45.3C563.8,1404,547.2,1395.1,528.7,1383.6L528.7,1383.6z M675.1,1184.4
			c11.5-3.2,28.2-18,28.2-24.9c0-2.4-3.2-6.2-7-8.8c-13.4-8.8-81-2.4-101.6,9.4c-13.7,8-11.5,17.2,5.6,23.1
			C613.2,1187.9,660.1,1188.4,675.1,1184.4z M678.9,1092.1c-0.8-0.8,0-7.5,1.3-14.7c3.5-17.4,0.3-20.9-22.3-24.1
			c-21.2-2.9-24.4-5.6-24.4-21.2c0-13.7-22.8-77-31.6-88.8c-3.8-5.1-7.2-6.7-13.4-6.2c-9.1,0.8-10.7-2.1-4.3-7.5
			c6.4-5.4,4.8-18.2-2.7-25.2c-13.7-12.9-35.1-10.7-49.3,5.1c-6.2,6.7-6.4,7.5-2.7,14.5c2.1,4,8.6,9.7,13.9,12.6
			c5.4,2.9,9.9,6.4,9.9,7.8c0,4.3-28.4,0-36.5-5.4c-5.6-4-10.7-5.1-19-4.3c-15,1.6-17.2-4.6-7.5-24.7c12.1-25.2,37.8-41.8,65.7-41.8
			c20.4,0,30.8,4.3,43.2,18c14.5,16.1,22,30.3,42.9,81.3c15,36.7,18.2,47.5,16.4,51.8c-2.4,5.6-2.1,5.6,34.3,5.6
			c41.3,0,46.4,1.9,45,15.6c-0.8,8.8-4,11.3-19.8,15.3c-9.7,2.4-11.8,4.3-17.4,16.4C693.3,1087.6,683.4,1096.7,678.9,1092.1
			L678.9,1092.1z M410.4,861c-11.3-12.9-20.9-43.7-20.9-67c0-11.3,12.3-34.6,19.3-37c2.7-0.8,6.7-0.3,8.8,1.6
			c3.2,2.7,17.4,26.3,37.3,62.5l5.6,10.2l-7.8,5.9c-4.3,3.2-13.7,11-20.9,17.2C417.1,867.2,416.1,867.4,410.4,861L410.4,861z
			 M712.6,846.5c-2.7-2.9-8.3-7.5-12.6-9.9c-4.3-2.4-7.5-6.2-7.5-8.6c0-6.4,26.5-37.5,31.9-37.5c12.1,0,13.9,29.5,2.9,50.9
			C721.2,853.7,719.6,854.3,712.6,846.5z"/>
		<path id="path3038" class="st3" d="M524.4,1380.7c-46.1-29.2-76.7-50.7-112.1-79.6c-53.4-43.7-65.2-62.2-67.6-106.7
			c-1.9-34.6,1.9-50.1,16.4-71.6c27.1-40,27.6-41.3,31.1-67c1.6-13.7,3.8-25.7,4.6-26.8c2.7-4.3,7,1.1,14.5,18
			c5.4,11.8,9.9,18.2,15.6,20.9c11.8,6.2,62.7,23.1,69.5,23.1c7.5,0,9.4-3.2,12.9-22.8c1.9-10.7,4.3-16.4,7-16.9
			c3.5-0.5,4.6,3.2,5.6,20.6c1.6,24.4,7.5,37,26,55.5c16.9,16.9,29.8,19,64.9,11.5c37-8,45.6-11.8,55.8-24.4
			c9.7-11.8,10.5-11.5,19.6,5.6c4.8,9.1,8.3,12.6,16.6,15.3c15,5.1,19.8,2.9,31.6-12.9c20.1-26.8,24.9-48,16.6-71.9
			c-3.5-9.9-3.2-13.1,1.3-32.7c6.7-27.6,6.4-37.3-0.8-59c-5.1-15.3-7-17.7-14.5-19.8c-8.3-2.4-8.6-2.9-7-15
			c1.3-11.3,0.8-13.1-5.9-18.2c-9.1-7.2-20.1-7.5-28.4-0.5l-6.4,5.4l7,12.9c5.1,9.4,9.1,13.7,15.6,15.3c12.6,3.8,10.2,6.7-4.8,6.7
			h-13.4L684.8,924c-12.3-24.4-12.1-30.8,0.3-41.6c11-9.1,23.6-11,35.9-5.4c10.7,5.1,20.1,17.7,20.1,27.1c0,13.9,8.6,19.8,11.8,8.3
			c3.8-14.5,1.6-23.1-9.1-36.7l-11-13.7l6.7-13.9c9.7-20.1,11-34.1,5.6-51.5c-2.7-8-7.5-18-11.3-21.7c-5.6-6.2-8-7-19.8-5.6
			c-8,0.8-21.5,5.4-34.1,11.8c-17.4,8.8-20.6,11.5-20.1,16.4c0.3,3.2,0,5.9-0.5,5.9c-0.8,0-10.2-2.9-20.9-6.7
			c-28.7-9.7-69.2-15.3-120.9-16.6l-45.3-1.1l-23.3-24.4c-21.5-22.5-23.9-24.4-31.1-22.5c-18.5,4.6-40,28.7-44,49.6
			c-2.7,13.7-0.8,43.2,4.3,66.8c2.1,9.9-1.9,11.5-9.7,4.6c-4.3-3.8-5.6-2.9-16.9,11.8c-17.2,22.5-38.1,56.6-50.9,83.4l-11,22.8
			l1.1,28.2c2.4,70.8,2.4,71.3-9.9,98.1c-6.2,13.4-11.3,26.3-11.3,28.7c0,11.3-5.6,4.6-16.6-19c-14.2-30.6-24.1-59.8-30.8-91.7
			c-4.3-20.4-4.8-38.9-4.8-175.4V687.2l22.8-7.8c75.9-25.7,175.9-43.2,273-47.5c138.6-6.2,283.2,13.1,391.5,52.8l11.5,4.3
			l-1.1,147.8c-1.3,165.2-1.6,169.7-20.6,227.1c-23.9,71.6-61.4,128.4-127.9,193.1c-31.9,31.1-72.4,64.1-78.3,64.1
			c-2.1,0-8-2.7-13.1-5.9c-9.7-6.2-23.3-30-26.5-47.2c-0.8-4.8-3.2-8.6-4.8-8.6c-1.6,0-16.1,13.1-31.9,29.2
			c-37.8,38.9-44.5,52.3-44.5,89.3c0,14.5-1.1,26.3-2.1,26.3C563.8,1404.3,545.1,1393.8,524.4,1380.7L524.4,1380.7z M675.1,1184.4
			c11.5-3.2,28.2-18,28.2-24.9c0-2.4-3.2-6.4-7.2-8.8c-19-12.6-110.7,2.9-110.7,18.8c0.3,12.1,17.2,18,52.3,18
			C652.3,1187.3,669.2,1186,675.1,1184.4L675.1,1184.4z M680.5,1077.9c2.1-19,0.3-21.2-23.1-24.9c-9.4-1.6-18-3.8-19.3-4.8
			c-4-4,12.3-19,23.6-21.7c17.2-4,56.6-3.2,67.3,1.3c8.3,3.5,9.4,4.8,8.6,12.3c-1.1,9.4-3.8,11.8-20.1,15.8
			c-9.7,2.4-12.1,4.6-16.4,14.5c-5.4,12.3-14.5,23.1-19.3,23.1C679.7,1093.5,679.4,1088.6,680.5,1077.9L680.5,1077.9z M522.3,941.7
			c-4.3-2.4-9.1-5.1-10.2-6.4c-1.1-1.3-6.7-1.6-12.1-0.8c-7,1.1-11,0-13.4-2.9c-2.9-3.5-2.1-7,4.6-21.5
			c13.1-28.2,39.4-43.4,71.3-41.3c14.5,0.8,19,2.4,27.4,9.1c16.6,13.4,20.6,20.6,18.5,32.2c-2.1,11-16.6,27.9-24.4,27.9
			c-4.3,0-4.3-0.5-0.3-6.7c6.4-9.7,5.4-19.6-2.7-26.8c-13.7-12.9-33.5-11-48.3,4.3c-7.5,7.8-7.5,8.6-3.8,15.3
			c2.1,4,8.6,9.7,13.9,12.6c5.4,2.9,9.9,6.2,9.9,7.5C553.1,947.6,530.6,946,522.3,941.7L522.3,941.7z M410.2,860.7
			c-7.8-8.6-15.3-29.5-18.5-51.2c-2.7-19-2.7-22.5,1.9-32.2c6.7-15,16.6-23.9,22.3-20.1c4.8,2.9,43.2,67.3,43.4,72.7
			c0,1.9-3.2,5.4-7.2,8c-4,2.4-13.1,9.9-20.1,16.1C417.7,867.2,416.3,867.4,410.2,860.7z M712.6,846.5c-2.7-2.9-8.3-7.5-12.6-9.9
			c-4.3-2.4-7.5-6.2-7.5-8.6c0-6.7,26.5-37.5,32.2-37.5c11.8,0,13.4,30,2.7,51.2C721.2,853.7,719.6,854.3,712.6,846.5L712.6,846.5z"
			/>
		<path id="path3036" class="st4" d="M535.1,1387.4c-85.8-53.6-152.8-106.5-173.8-136.8c-12.1-17.7-17.4-38.1-17.4-67.8
			c0-28.7,4.8-42.6,24.4-69.7c17.2-23.9,23.9-38.9,23.9-54.2c0-16.4,3.2-29.8,7-29.8c1.9,0,6.7,7.2,10.7,15.8s9.4,18,11.8,20.1
			c2.7,2.4,20.9,9.7,40.5,16.4l35.9,12.1l4.6-5.6c2.7-3.2,5.4-11.5,6.4-18.5c3.2-24.1,11.8-25.5,11.8-1.9c0,20.1,4.6,33.5,16.6,49.6
			c20.4,27.1,34.6,30.8,81,20.6c36.5-7.8,39.2-9.1,48.8-21.7c4-5.1,8.6-9.4,10.5-9.4c1.9,0,6.2,5.6,9.7,12.9
			c5.4,10.7,8,13.4,18,16.4c15.8,5.1,20.9,2.1,36.7-20.9c10.7-15.8,13.1-21.5,14.2-34.1c0.8-8.3-0.3-21.5-2.1-29.5
			c-2.9-12.6-2.9-17.2,1.3-34.9c8.3-35.4,1.1-70.8-16.1-77.8c-8.3-3.5-8.6-4.3-7.2-14.5c2.7-19-13.7-29.5-32.7-20.9
			c-8,3.8-8.3,7.2-2.4,19c6.4,12.9,11.8,18,18.8,18c3.5,0,6.2,1.3,6.2,2.7c0,4.8-23.1,3.2-27.4-2.1c-7.5-8.6-19-34.1-18.8-41.8
			c0.5-14.7,22.5-28.4,39.2-24.4c10.7,2.7,25.7,20.9,25.7,31.6c0,11.5,6.4,17.7,10.5,9.9c7.2-13.4,2.7-29.8-12.6-46.4l-6.4-7
			l7.5-14.5c5.9-11.5,7.5-18.2,7.5-33.3c0.3-16.6-0.8-20.6-8-32.2l-8.3-13.1l-15.8,0.3c-12.3,0.3-20.6,2.4-37,9.9
			c-19.6,9.1-20.9,10.2-19.3,16.6c1.9,7.8,0.3,8.3-12.9,2.7c-28.2-11.8-86.9-20.1-141.3-20.1h-33.8l-16.6-20.1
			c-18.2-22-29.2-29.5-39.4-26.8c-8,2.1-31.9,23.9-37.3,34.1c-7.8,14.7-7.5,46.4,0.5,83.4c1.9,8.3-2.4,9.9-8.8,3.2
			c-3.8-3.8-4.6-3.8-9.4,0.5c-9.7,8.8-44.2,63.3-57.7,90.6c-14.2,29.5-13.9,26.5-11.3,99.2c1.1,26.5,0.8,27.1-9.9,50.9
			c-6.2,13.4-12.1,27.6-13.1,32.2c-1.9,7.8-2.4,7.2-13.7-16.1c-15.6-32.2-26.8-67.8-33.3-105.1c-4.8-27.9-5.4-44-5.4-173.8V688.6
			l11.3-4.3c64.6-23.6,156.1-42.1,248.6-50.1c53.4-4.6,180.7-1.6,233,5.4c65.2,8.8,123.4,21.7,178.3,39.4l29,9.4l-1.3,148
			c-1.3,158.7-1.9,163.3-16.6,215.1c-20.6,71.6-66.5,142.7-133,206.5c-24.4,23.3-67.6,59.5-74,62.2c-1.6,0.8-7.5-0.8-12.9-3.5
			c-11.8-5.6-24.1-25.5-28.4-46.1c-1.6-7.8-4-13.9-5.4-13.9c-1.3,0-15.8,13.7-31.9,30c-38.3,39.2-45.3,51.8-48,90.1l-1.9,27.1
			L535.1,1387.4L535.1,1387.4z M678.6,1183.3c13.1-5.4,24.7-16.9,24.7-24.1c0-9.1-13.4-13.4-41.6-12.6c-26.5,0.5-63.6,8.8-71.6,16.1
			c-9.4,8.3-5.1,17.7,10.5,22.3C614.5,1188.7,667.6,1187.9,678.6,1183.3z M679.1,1088.6c0-2.7,1.1-8.8,2.7-13.7
			c3.8-13.1-4.6-20.6-26.3-23.1c-9.1-1.1-17.2-2.9-18-4c-0.8-1.1,1.6-5.9,5.4-10.2c8-9.7,24.4-13.9,53.1-13.9
			c26.3,0,38.9,3.8,41,12.1c2.7,10.5-0.3,13.9-16.4,18.5c-13.4,3.8-15.6,5.6-19.3,14.2c-4,9.9-16.1,24.7-20.1,24.7
			C680.2,1093.5,679.1,1091.3,679.1,1088.6L679.1,1088.6z M520.9,940.1c-6.2-4-13.4-5.9-21.5-5.9c-11.5,0-12.1-0.5-12.9-8
			c-1.3-13.4,13.9-35.1,32.7-46.7c14.7-9.1,17.4-9.7,36.7-9.7c18.8,0,22,0.8,32.2,8c6.2,4.6,13.7,11.3,16.9,15.3
			c4.8,6.7,5.1,8.3,2.1,18.5c-3.8,12.1-15.8,26.5-22.8,26.5c-3.5,0-3.2-1.3,1.3-9.1c5.1-8.6,5.1-9.7,1.1-17.4
			c-8.8-16.9-32.2-20.9-49.6-8.3c-11.8,8.3-13.1,17.4-4.3,26.8c4,4.3,10.2,8.3,13.7,9.4c10.5,2.7,7.2,7-5.1,7
			C534.6,946,527.1,943.8,520.9,940.1z M411.8,861.5c-7.8-5.4-15.8-26.3-19.6-50.1c-2.9-18.2-2.7-22.3,1.1-32.4
			c2.4-6.4,7.5-14.5,11.3-18c8.6-8,13.4-5.4,22.3,11.3c3.5,6.4,12.3,21.7,19.3,33.8c7,12.1,13.1,23.1,13.1,24.7s-4,5.1-8.6,8
			s-12.3,9.1-16.6,13.9C422.5,864.2,418.2,866.1,411.8,861.5z M710,843.8c-4.3-4.3-10.2-8.6-12.9-9.4c-2.7-0.8-4.8-3.2-4.8-5.6
			c0-5.1,23.1-34.9,29-37c13.1-5.1,17.2,24.9,6.2,47.5c-3.5,7-7,12.6-8,12.6C718.8,851.9,714.5,848.4,710,843.8L710,843.8z"/>
		<path id="path3034" class="st5" d="M531.6,1385c-95.7-60.6-162.5-115.3-176.7-144.8c-7.8-16.1-12.1-46.1-9.9-71.1
			c1.6-21.2,8.3-37.3,23.1-55.5c17.2-21.5,22-32.4,25.2-58.5c3.8-29.2,7.2-31.6,16.4-10.2c3.5,8,9.1,17.2,12.6,20.1
			c3.5,2.9,22,10.7,41,17.2l34.6,11.8l4.6-5.6c2.4-2.9,5.9-12.9,7.8-22c4.6-22.8,9.1-19.8,11.3,7.5c1.3,18.2,2.9,23.9,10.2,35.1
			c11.5,18,24.4,28.7,38.3,32.4c12.9,3.5,22,2.7,58.5-5.6c23.6-5.4,26.3-6.7,36.5-17.4c6.2-6.4,12.1-11.8,13.7-11.8
			s5.1,5.6,8.3,12.3c4.3,8.8,8.6,13.4,15.3,16.1c16.6,7,21.5,5.4,34.9-12.1c6.7-8.8,14.2-20.1,16.4-25.5c4.8-11.3,5.1-33.3,0.8-47.5
			c-2.7-8.6-2.1-14.2,1.9-31.6c8.3-36.7,1.6-72.1-15.3-79.1c-8-3.2-8.3-4.3-7.8-15.6c0.5-9.7-0.5-13.1-5.4-17.7
			c-7.2-6.7-21.2-7.5-30.6-1.3c-5.6,3.8-6.2,5.1-3.5,11.3c5.4,12.6,15.6,24.7,20.9,24.7c2.9,0,5.1,1.3,5.1,2.7
			c0,1.3-4.8,2.7-10.5,2.7c-11.5,0-15.3-3.8-26.5-26c-8-15.8-7.5-26.3,2.1-35.9c6.7-6.7,9.9-7.8,21.7-7.8c12.6,0,15,1.1,24.4,10.5
			c8,8,10.5,12.6,10.5,19.3c0,19,8.6,20.4,13.4,2.1c3.2-12.1,0.3-20.1-13.7-35.9l-8-9.4l7.2-14.2c10.2-20.1,11.5-40.2,4-57.9
			c-3.2-7.5-8.3-15.8-11-18.2c-7.8-7.2-30-4-54.7,7.8c-19.6,9.4-20.6,10.2-19,16.9c1.9,7.8,3.5,8-23.1-1.6
			c-24.9-8.8-62.2-13.9-115-15.6l-49.9-1.3l-18-21.2c-9.9-11.8-20.9-22.5-24.4-24.1c-10.2-4.6-20.4-0.3-36.7,16.1
			c-21.7,22-25.2,39.2-17.2,85c2.1,11.8,4,21.7,4,22c0.3,2.7-6.7-0.3-9.7-4c-3.5-4.3-4.3-4-12.9,5.6c-23.1,25.7-53.9,78.8-64.6,111
			l-6.7,20.1l4.6,28.4c5.6,35.7,4,48.5-9.1,77.8c-5.9,12.9-11.5,26.8-12.6,31.4c-1.9,7.8-2.4,7.2-12.6-14.5
			c-13.9-29.8-25.5-63-32.2-94.1c-5.1-23.6-5.6-36.2-6.7-177.5l-1.1-152l33-10.7c91.7-29.8,177.8-42.9,292.6-45.3
			c125.2-2.4,223.1,9.9,328.8,41.6l41.8,12.6v154.7c0,151.5,0,154.7-6.2,182.1c-21.5,96-75.4,179.7-166.8,258.8
			c-50.4,43.4-50.1,43.4-67,29.2c-10.5-8.8-16.4-19.8-20.1-38.3c-1.6-8-4.6-15-6.4-15.8c-1.9-0.5-16.6,12.6-32.7,29.2
			c-38.1,39.7-45.3,53.4-47.7,90.6l-1.6,26.8L531.6,1385L531.6,1385z M679.9,1183.6c12.6-5.4,24.1-18.5,23.1-26.3
			c-1.9-13.7-39.4-16.4-82.3-6.2c-24.9,5.9-35.1,11.3-35.1,18.8c0,12.9,12.3,16.9,54.4,17.2C661.2,1187.3,674,1186.3,679.9,1183.6
			L679.9,1183.6z M679.1,1087.3c0-1.9,1.1-7.2,2.4-12.3s1.9-10.5,1.1-12.6c-1.9-4.8-12.6-8.8-29.2-11c-17.4-2.4-18.2-2.9-12.9-10.7
			c6.4-9.9,18-14.7,39.7-16.4c36.2-2.7,57.9,2.9,57.7,14.7c0,8-4,11.3-17.7,14.7c-11.5,2.9-13.9,4.8-19.8,15.6
			c-3.8,6.7-8.3,14.2-10.5,16.6C685.8,1091.6,679.1,1092.1,679.1,1087.3L679.1,1087.3z M526.5,943c-3.5-1.3-8.3-4-10.5-5.9
			c-2.1-1.9-9.4-3.2-16.4-3.2c-11.8,0-12.3-0.3-13.1-8c-1.3-13.4,13.9-35.1,32.7-46.7c14.7-9.1,17.4-9.7,36.7-9.7
			c18.8,0,22,0.8,32.2,8c6.4,4.6,13.9,12.1,16.6,16.9c4.8,8.3,4.8,9.4,0.8,20.4c-4.8,12.6-10.5,18.8-19.6,21.5l-6.2,1.9l5.6-9.7
			c7-11.8,4.3-20.1-9.1-28.2c-12.1-7.2-25.5-6.7-37.5,1.3c-13.7,9.4-15.6,18.2-5.6,28.4c4.3,4.3,10.5,8.6,13.7,9.4
			c3.5,0.8,6.2,2.7,6.2,4C553.1,946.8,534.9,946.3,526.5,943L526.5,943z M406.1,854.3c-6.2-10.2-12.9-32.4-15.3-52
			c-1.9-15.6,4-33,14.5-42.4c7.5-6.7,12.9-3.8,21.5,12.1c3.5,6.4,12.3,22,19.3,34.1c7.2,12.3,13.1,23.3,13.1,24.4s-4.8,5.4-10.7,9.1
			c-5.9,4-13.9,10.7-18,15C421.2,865.5,412.9,865.3,406.1,854.3L406.1,854.3z M708.6,842.2c-6.7-5.1-13.1-10.2-14.5-11.5
			c-3.2-2.9,6.2-17.7,19.6-30.8c10.2-9.9,11.3-10.5,15.6-6.2c6.7,6.7,5.6,30.3-2.4,45.6l-6.2,12.1L708.6,842.2z"/>
		<path id="path3032" class="st6" d="M534.3,1385.8c-92.8-57.7-160.1-112.6-178.3-145.6c-7.8-13.9-7.8-15-7.8-54.4
			c0-45-1.1-41.8,23.1-75.1c15.6-21.5,23.9-42.6,23.9-61.4c0-9.9,2.7-20.1,5.1-20.1c1.1,0,5.1,7.8,9.4,17.4
			c5.4,12.3,10.2,18.8,16.1,22.3c12.1,7.2,70.3,25.5,75.1,23.9c4-1.6,7.5-11.8,11-32.2c2.9-17.7,8-10.2,9.7,15
			c1.6,24.9,3.8,29.8,22,49.6c19.8,21.5,31.1,23.6,76.2,13.7c31.4-6.7,38.3-10.2,48.3-22.5c4-5.1,8.8-9.4,10.5-9.4s4.8,4.6,7,10.2
			c5.6,13.7,12.3,19,26.5,21.2c12.3,1.6,12.3,1.6,23.3-12.6c17.2-21.7,22.5-33.8,22.5-51.2c0-8.3-1.6-18.8-3.5-23.3
			c-3.8-9.1-3.2-14.2,3.8-40.2c8-29.5-1.1-64.1-19-72.7c-7.2-3.5-8-4.8-5.9-10.5c2.9-7.8-1.6-20.6-8.6-24.4
			c-7.8-4.3-22.8-2.9-29.5,2.4l-6.2,4.8l6.4,11.8c3.5,6.4,10.7,14.5,15.8,18l9.4,6.4l-12.1-0.8c-11.5-0.8-12.3-1.3-20.9-16.6
			c-15-26.5-15-38.3,0-47.2c22.3-13.7,48.5-0.8,52.3,25.2c2.4,16.4,7.2,18.5,12.9,5.6c5.6-13.1,2.9-22.5-9.7-36.7l-10.5-11.8l7-14.2
			c10.2-20.9,11.3-41,2.4-60.1c-9.4-20.4-15.8-24.1-34.3-20.4c-8,1.6-22.8,7.2-32.7,12.3c-16.9,8.6-18.2,9.7-16.6,16.1
			c1.3,5.9,1.1,6.7-3.2,4.8c-18.5-7.5-37.5-12.9-57.1-16.1c-34.3-5.6-91.4-9.7-110.7-7.8l-16.9,1.6l-11.5-15
			c-17.4-22.5-31.1-33.8-40.8-33.8c-10.2,0-35.7,23.1-43.2,38.9c-5.9,13.1-6.4,40-1.1,67c1.9,10.2,3.2,19.3,2.7,19.8
			c-0.5,0.5-3.2-0.8-5.9-3.2c-6.4-5.6-7.2-5.6-13.9,1.6c-21.7,23.3-61.7,93-68.4,119.6c-4,15.6-4,19.3,0,46.9
			c5.1,35.1,3.8,44.5-9.9,75.6c-5.1,11.8-10.7,24.4-12.1,27.9c-2.4,5.9-3.2,4.8-12.1-13.4c-13.7-27.9-23.1-55.5-31.1-89.6
			c-6.7-29.5-7-30-8-181.3l-1.1-151.8l25.2-8c59.8-19.3,116.4-31.6,188.5-41c38.9-5.1,58.5-5.9,132.7-6.2c55.2,0,97.9,1.1,116.6,3.2
			c78.3,9.1,152.8,24.7,210,43.7l24.9,8.3l-1.1,154.5l-1.1,154.5l-7,28.2c-26.3,106.7-84.2,190.4-193.1,278.3l-20.6,16.6l-9.1-3.8
			c-12.9-5.4-23.6-20.9-29-41.6c-2.4-9.7-5.9-18.2-8-18.8c-1.9-0.5-17.2,12.9-33.8,30.3c-38.6,40-44,50.4-46.4,88.2l-1.6,27.4
			L534.3,1385.8L534.3,1385.8z M684,1181.7c13.7-6.7,23.1-19.6,19.3-26.5c-5.9-11-31.6-13.4-70.5-6.4c-27.6,4.8-43.7,11-47.5,17.7
			c-3.8,7,7.2,17.4,20.6,19.8c5.6,0.8,12.1,2.1,14.5,2.7c2.1,0.5,14.7,0.5,27.9-0.3C665.2,1187.6,675.6,1185.7,684,1181.7z
			 M679.9,1085.2c0.8-3.5,2.1-9.4,3.2-12.9c0.8-3.8,0-8.8-1.9-11.5c-3.8-5.1-19.3-9.7-33.5-9.9c-9.7,0-10.7-2.7-4.6-12.1
			c7-10.5,18.5-13.4,52.6-13.4c35.1,0,40,1.9,40,16.1c0,8.3-0.8,8.8-13.7,12.1c-10.7,2.7-14.7,5.1-18.2,11.3
			c-9.1,16.9-15.6,24.9-20.1,25.7C679.4,1091.1,678.9,1090,679.9,1085.2z M528.2,943.3c-4.3-1.3-9.9-4.3-12.6-6.7
			c-3.2-2.9-8.6-4-16.4-3.5c-10.2,0.8-11.8,0.3-12.3-4.8c-1.1-7.5,10.5-29.8,20.1-38.9c17.7-16.6,45.9-24.4,66.8-18.8
			c5.9,1.6,16.1,7.5,22,13.4c9.7,9.1,11.3,11.8,11.3,21.7c0,9.7-1.6,13.1-10.5,22c-11.8,11.8-19.8,14.2-11.3,3.2
			c7.8-9.9,7-16.1-3.5-26.8c-7.5-7.5-11-9.1-20.9-9.1c-13.1,0-26.5,7-33.3,17.2c-4,6.2-4,7.2,0.3,13.7c2.4,3.8,9.4,9.4,15,12.3
			c5.6,2.9,10.2,5.9,10.2,6.4C553.1,946.8,536.5,945.7,528.2,943.3L528.2,943.3z M404.8,850.3c-13.7-27.4-16.9-59.5-7.5-77.8
			c5.9-11.8,15.3-19,19.3-15c1.3,1.3,11.3,18,22.5,37l20.1,34.9l-7.2,6.2c-25.7,22-33,27.4-36.5,27.4
			C413.1,862.9,408.3,857.2,404.8,850.3z M705.9,839.8c-6.7-5.1-12.6-9.9-13.1-10.5c-1.6-1.6,12.3-20.9,22.8-30.8
			c9.4-8.8,9.7-9.1,13.4-4c4,5.4,4.8,10.5,4,24.4c-0.5,9.4-9.4,30.8-12.6,30.6C719.1,849.2,712.6,844.9,705.9,839.8z"/>
	</g>
</g>
</svg>
