<?xml version="1.0" encoding="utf-8"?>
<!-- Generator: Adobe Illustrator 25.1.0, SVG Export Plug-In . SVG Version: 6.00 Build 0)  -->
<svg version="1.1" id="Layer_1" xmlns="http://www.w3.org/2000/svg" xmlns:xlink="http://www.w3.org/1999/xlink" x="0px" y="0px"
	 viewBox="0 0 57.9 60" style="enable-background:new 0 0 57.9 60;" xml:space="preserve">
<style type="text/css">
	.st0{fill:#231F20;}
</style>
<desc>Created with sketchtool.</desc>
<g id="VisualDesigns">
	<g id="Home_MegaMenu_InfoFor" transform="translate(-165.000000, -24.000000)">
		<g id="Nav">
			<g id="PI-logo-2017-Black">
				<g transform="translate(165.000000, 24.000000)">
					<path id="Shape" class="st0" d="M51.6,54.5c0.1,3.5,4.7,3.6,5.4,3.6c0.9,0,0.8,1.6,0.1,1.6s-19.3,0-20,0s-0.8-1.6,0.1-1.6
						c0.8,0,5.5-0.1,5.8-3.6c0.1-1.9,0.3-26.7,0.3-44.3H31.6c6.2,2.4,9.2,6.6,9.1,12c-0.2,7.4-4.2,11-6.6,12.3
						c-4.4,2.4-13,3.2-19.3,2.8c0,7.7-0.1,15.2,0,17.1c0.1,3.8,5,3.6,6.5,3.8c0.8,0.1,0.8,1.6,0,1.6H0.5c-0.6,0-0.7-1.6,0.1-1.6
						s5.7,0.1,5.9-3.6c0.2-2.3,0.9-38.4,0.8-41.7C7.2,8.7,1.6,8.8,0.7,8.7c-0.8-0.1-0.6-1.5,0-1.5h56.5c0.8,0,0.7,1.4,0.1,1.5
						s-6.2,0.1-6.2,3.8C51.2,15.3,51.6,53,51.6,54.5L51.6,54.5z M14.8,11c-0.4,0.6-0.1,22.2-0.1,23.2c2.8-0.1,7.6,0,9.7-0.9
						c4.5-1.9,8.4-4.4,8.6-11.7c0.1-4.3-3.3-8.4-6.7-9.8C23.6,10.6,15.1,10.6,14.8,11L14.8,11z M28.9,0l15.1,4.2H13.8L28.9,0L28.9,0
						z"/>
				</g>
			</g>
		</g>
	</g>
</g>
</svg>
