<?xml version="1.0" encoding="utf-8"?>
<!-- Generator: Adobe Illustrator 25.1.0, SVG Export Plug-In . SVG Version: 6.00 Build 0)  -->
<svg version="1.1" id="Layer_1" xmlns="http://www.w3.org/2000/svg" xmlns:xlink="http://www.w3.org/1999/xlink" x="0px" y="0px"
	 viewBox="0 0 156 172" style="enable-background:new 0 0 156 172;" xml:space="preserve">
<style type="text/css">
	.st0{fill:#FFFFFF;}
	.st1{fill:#8F9194;}
	.st2{fill:#FAA61A;}
</style>
<g>
	<polyline class="st0" points="-26,-12 -26,-12 -26,194.9 	"/>
	<line class="st0" x1="569.3" y1="194.9" x2="569.3" y2="-12"/>
	<polygon class="st1" points="49.1,67.8 50.3,67.8 50.3,24 49.1,24 49.1,67.8 	"/>
	<polygon class="st1" points="63.7,67.8 65.7,67.8 65.7,24 63.7,24 63.7,67.8 	"/>
	<polygon class="st1" points="78.3,67.8 81.1,67.8 81.1,24 78.3,24 78.3,67.8 	"/>
	<polygon class="st1" points="92.9,67.8 96.5,67.8 96.5,24 92.9,24 92.9,67.8 	"/>
	<polygon class="st1" points="107.4,67.8 111.9,67.8 111.9,24 107.4,24 107.4,67.8 	"/>
	<polygon class="st2" points="106.2,111.7 107.5,111.7 107.5,67.8 106.2,67.8 106.2,111.7 	"/>
	<polygon class="st2" points="89.9,111.7 91.9,111.7 91.9,67.8 89.9,67.8 89.9,111.7 	"/>
	<polygon class="st2" points="73.5,111.7 76.4,111.7 76.4,67.8 73.5,67.8 73.5,111.7 	"/>
	<polygon class="st2" points="57.2,111.7 60.8,111.7 60.8,67.8 57.2,67.8 57.2,111.7 	"/>
	<polygon class="st2" points="40.8,111.7 45.3,111.7 45.3,67.8 40.8,67.8 40.8,111.7 	"/>
	<polygon class="st1" points="49.1,156.9 50.3,156.9 50.3,111.7 49.1,111.7 49.1,156.9 	"/>
	<polygon class="st1" points="63.7,156.9 65.7,156.9 65.7,111.7 63.7,111.7 63.7,156.9 	"/>
	<polygon class="st1" points="78.3,156.9 81.1,156.9 81.1,111.7 78.3,111.7 78.3,156.9 	"/>
	<polygon class="st1" points="92.9,156.9 96.5,156.9 96.5,111.7 92.9,111.7 92.9,156.9 	"/>
	<polygon class="st1" points="107.4,156.9 111.9,156.9 111.9,111.7 107.4,111.7 107.4,156.9 	"/>
</g>
</svg>
