<?xml version="1.0" encoding="utf-8"?>
<!-- Generator: Adobe Illustrator 25.1.0, SVG Export Plug-In . SVG Version: 6.00 Build 0)  -->
<svg version="1.1" id="Layer_1" xmlns="http://www.w3.org/2000/svg" xmlns:xlink="http://www.w3.org/1999/xlink" x="0px" y="0px"
	 viewBox="0 0 1200 1197" style="enable-background:new 0 0 1200 1197;" xml:space="preserve">
<style type="text/css">
	.st0{fill:#840404;}
</style>
<g transform="translate(0.000000,1197.000000) scale(0.100000,-0.100000)">
	<path class="st0" d="M5630,11943c-329-19-780-88-1129-174c-599-147-1243-430-1771-776c-387-255-634-456-961-782
		c-322-323-521-564-756-916C181,8045-147,6508,101,5015c205-1240,772-2340,1664-3230c522-521,1074-903,1762-1219
		C4211,252,4935,84,5747,50c900-38,1819,136,2620,496c1069,480,1932,1209,2568,2169c555,837,871,1756,966,2810
		c21,233,16,798-10,1050c-128,1259-622,2403-1445,3345c-676,774-1537,1355-2526,1707c-453,161-1030,275-1578,313
		C6204,11949,5770,11951,5630,11943z M6027,11558c14-11,13-23-2-60c-5-13-1-16,25-15c41,2,58-21,45-59c-14-38-40-52-65-36
		c-19,11-20,10-20-22c0-63,64-116,140-116c49,0,90,20,119,56c28,36,26,44-9,44c-42,0-60,38-36,76c16,23,22,25,53,19c32-6,35-4,28,12
		c-16,39-17,54-4,69c25,30,119,1,119-37c0-3-11-18-25-31l-25-26l35-6c39-8,43-21,19-68c-14-27-19-30-50-25c-32,5-34,4-34-23
		c0-18,11-42,28-60c47-54,146-51,206,5c30,28,34,49,7,40c-23-7-43,17-35,41c26,72,80,98,91,44c7-38,14-38,35,0c14,24,24,30,53,30
		c19,0,35-5,35-11s-16-30-36-52c-50-59-97-161-139-307c-21-69-39-127-40-129c-2-1-32,6-67,17c-133,43-171,47-498,47
		c-328,0-394-6-514-46c-32-11-61-18-63-15c-3,3-21,57-39,121c-41,139-80,224-140,305c-24,33-44,62-44,65s15,5,34,5c27,0,40-7,60-32
		l25-33l7,33c8,42,34,42,69,1c33-40,32-85-2-82c-28,3-30-17-5-40c85-77,232-47,232,48c0,36-8,43-27,24c-16-16-63,33-63,66
		c0,21,5,25,30,25c35,0,38,10,10,35c-26,24-25,50,2,69c29,20,72,20,92,0c19-18,19-17,4-49c-14-32-6-40,23-24c20,10,25,9,41-11
		c35-43,18-90-34-90c-38,0-35-11,12-54c46-42,74-50,138-43c58,6,112,58,112,108c0,28-2,30-28,24c-38-8-65,21-60,67c3,30,6,33,36,31
		c32-1,32,0,26,32c-5,27-2,36,18,49C5957,11582,6002,11579,6027,11558z M4456,11186c20-41,34-82,31-90c-9-23-45-20-59,5
		c-48,77-188,87-257,18c-25-25-31-39-31-75c0-55,13-82,45-94c14-5,92-21,174-34c166-28,193-38,239-90c92-105,47-276-91-347
		c-53-28-180-59-238-59c-46,0-50,2-79,45c-39,56-63,113-56,131c11,28,52,15,86-27c55-69,142-88,227-49c57,25,85,71,80,128
		c-8,79-50,104-209,127c-130,18-163,28-219,64c-55,34-79,80-79,152c0,94,52,155,182,214c52,24,157,52,200,54
		C4413,11260,4431,11236,4456,11186z M7783,11191c108-43,157-76,156-104c0-12-8-49-17-82c-15-53-20-60-42-60c-23,0-26,5-31,52
		c-8,66-41,118-90,143c-51,26-119,26-152,0c-31-24-50-78-41-114c3-14,51-74,105-133c55-59,108-126,119-148c37-77,20-167-43-233
		c-40-42-55-50-115-62c-93-17-234,28-330,107l-44,36l7,56c8,63,32,131,47,131c5,0,18-5,29-10c15-9,19-22,19-71c0-71,17-108,66-145
		c25-20,51-29,90-32c95-8,144,31,144,115c0,49-19,78-118,187c-87,95-122,153-122,204c0,65,47,140,115,184
		C7579,11240,7682,11232,7783,11191z M8625,10789c23-25,4-54-25-39c-10,6-35,10-54,10c-47,0-69-31-193-269c-117-224-125-261-70-307
		c32-26,34-31,22-48c-13-17-22-14-174,65c-111,58-161,89-161,101c0,26,13,29,71,18c52-10,55-10,75,15c11,15,69,120,127,234
		c90,175,107,215,107,254s-4,49-31,70s-30,27-20,46c12,21,14,20,161-54C8541,10843,8616,10800,8625,10789z M3618,10916
		c2-11-9-30-27-47c-51-46-45-73,72-300c56-110,115-216,131-236c26-31,33-34,70-31c23,3,47,6,54,9c8,2,19-4,25-14
		c14-21,27-12-172-120c-131-71-145-77-159-63c-15,14-13,19,22,55s38,43,33,81c-5,41-195,407-240,463c-24,30-48,35-104,22
		c-26-6-34-4-39,10c-4,9-1,23,7,30c21,20,302,165,314,161C3611,10935,3617,10925,3618,10916z M6280,10840c175-28,250-87,250-196v-37
		l-23,21c-77,72-243,69-413-8c-34-15-65-33-69-40c-4-6,5-100,21-209c15-108,25-204,21-213c-3-9-24-22-45-29c-33-9-48-9-90,5
		c-44,15-54,15-84,3c-37-16-108-73-108-88c0-5,17-9,38-9c20,0,64-7,97-15c88-21,157-19,188,5c30,24,62,25,179,6
		c177-29,288-106,288-201c0-63-9-70-65-50c-27,9-128,30-224,46c-177,31-211,42-231,79c-17,32-59,25-101-16c-35-34-41-36-170-55
		c-125-19-252-46-291-63c-13-6-18-1-23,28c-9,46,8,94,50,144c20,23,35,51,35,66c0,14-16,73-35,130c-41,123-44,180-13,268
		c21,61,21,64,5,149c-26,130-23,175,12,209c32,32,102,55,206,69C5784,10851,6202,10852,6280,10840z M2982,10503c60-63,72-87,53-103
		c-13-11-24-8-64,14c-78,42-137,33-203-32c-64-61-61-144,7-176c40-20,67-20,170-1c123,22,212,20,264-7c102-53,139-175,87-282
		c-33-68-110-139-191-177c-115-55-148-49-226,47l-41,48l21,17c20,17,24,16,87-17c101-53,167-42,239,37c27,30,35,48,35,77
		c0,42-29,95-61,112c-25,14-144,9-265-10c-104-17-155-5-213,53c-95,94-83,212,34,314c36,33,199,133,215,133
		C2933,10550,2956,10529,2982,10503z M6505,10518c17-18,35-98,35-157c0-30-12-81-30-131c-16-45-30-92-30-105v-23l-79,34
		c-44,19-102,37-130,41c-28,3-55,11-59,17c-16,21-72,169-66,175c3,3,77,6,165,6c146,0,159,1,159,18c0,35-28,84-66,116l-39,33l64-5
		C6464,10534,6498,10526,6505,10518z M9144,10445c104-27,188-80,303-189l107-102l-60-91c-32-51-62-92-65-92c-3-1-13,5-22,12
		c-15,11-15,16-1,66c32,108-17,210-130,269c-42,22-65,27-126,27c-65,0-84-4-142-33c-80-39-138-101-181-191c-26-55-31-76-30-140
		c0-88,16-132,71-193c42-47,117-98,144-98c22,0,91,67,113,110c18,34,20,28-50,127c-7,10-5,18,8,28c17,12,32,3,150-92
		c73-58,133-111,135-118c5-21-24-38-47-26c-11,6-29,11-40,11c-27,0-88-56-131-120c-41-59-40-59-146,1c-239,137-345,290-331,476
		c13,170,138,327,291,364C9016,10463,9083,10461,9144,10445z M2304,10034c15-14,14-18-4-41c-11-14-20-41-20-59c0-40,17-60,266-321
		c101-106,184-197,184-202s-5-13-12-17s-206-10-443-13l-430-6l126-101c261-209,305-231,366-180c29,24,33,25,47,10c15-14,15-18-3-42
		c-60-82-169-207-183-210c-23-4-30,26-13,51c42,60,10,109-152,235c-70,55-157,123-192,151c-71,57-108,65-151,31c-29-23-44-25-58-7
		c-7,9,12,39,69,112l79,100l377-4l376-3l-30,38c-68,85-290,294-312,294c-12,0-38-11-58-25c-28-18-41-22-55-14c-10,5-18,13-18,17
		c0,6,221,222,227,222C2288,10050,2296,10043,2304,10034z M9984,9727c131-141,150-167,132-185c-12-13-18-12-44,7c-40,28-81,27-126-4
		c-69-47-353-315-366-345c-11-26-9-35,9-72c15-32,18-45,9-55c-6-8-16-13-22-11c-9,2-97,96-230,246c-18,21-19,24-4,38
		c15,15,19,15,45-3c76-54,101-40,325,179c183,179,196,199,159,249c-18,24-20,33-11,45c7,8,16,14,20,14
		C9885,9830,9931,9784,9984,9727z M6265,9705c190-22,195-24,207-54c60-155,109-649,79-793c-23-108-92-147-278-155
		c-207-10-207-10-238,337c-9,96-19,178-24,183s-23,7-42,5c-41-4-43-12-59-218c-15-194-28-268-53-293c-18-18-28-19-121-14
		c-101,6-206,31-251,61c-36,23-53,63-70,161c-27,158-13,373,43,655l17,85l50,12C5697,9719,6036,9732,6265,9705z M3528,9618
		c7-7,12-22,12-35s6-23,14-23c27,0,46-30,46-72s-21-78-47-78c-9,0-13-13-13-39c0-76,38-131,89-131c28,0,30,3,41,58
		c31,158,63,222,109,222c41,0,71-34,71-81c0-42-30-86-63-91c-28-4-34-43-43-273l-6-170l-41-40l-40-40l37-190c20-104,60-332,90-505
		c104-606,102-568,36-594c-68-27-129-18-144,21c-16,42-115,786-148,1123l-13,125l-35,16c-54,26-66,44-120,194
		c-71,198-88,228-127,236c-49,10-80,34-93,74c-10,30-9,40,4,60c23,35,61,42,94,18c15-11,50-55,79-99c80-121,77-117,100-110
		c34,11,56,90,44,161c-6,36-9,40-33,37c-54-6-91,101-47,132c16,11,20,21,15,40s0,29,20,45C3446,9632,3509,9637,3528,9618z
		 M5244,9574c9-8,16-18,16-21s-16-51-35-107c-62-182-67-243-72-886c-3-354-1-669,6-820c13-268,48-894,55-977l4-52l-51,6
		c-113,12-217,87-264,189c-23,50-85,286-192,729c-58,242-86,295-247,466c-174,184-213,232-273,337c-148,258-225,528-177,620
		c37,72,494,299,836,415c130,44,358,116,372,117C5226,9590,5236,9583,5244,9574z M6916,9541c343-97,671-232,956-393
		c157-88,172-112,149-243c-18-108-88-330-131-414c-52-104-84-142-321-386c-271-280-265-267-370-735c-96-429-123-509-196-569
		c-66-54-211-108-232-85c-5,5-5,60,0,124c51,699,75,1505,60,1983c-12,378-26,487-76,621c-39,105-40,107-23,124
		C6750,9586,6764,9584,6916,9541z M8667,9395c31-21,30-50-8-175c-16-57-29-115-27-129c3-22,8-26,41-29c21-2,69,4,107,12
		c87,20,140,20,168,0c18-12,22-25,22-69c0-46-4-56-26-74c-15-12-35-21-45-21c-9,0-68,18-130,40c-67,24-120,38-132,34
		c-18-6-19-12-13-68c24-223,20-267-30-286c-32-12-34-64-3-80c51-28,60-119,34-366c-9-80-13-149-10-155c4-5,13-9,22-9
		c35,0,151-69,211-124c95-90,162-247,162-383c0-30-1-30-63-35c-81-7-149-37-173-76l-18-31l-23,33c-48,71-173,98-215,47
		c-20-26-19-26-64,4c-27,18-50,25-87,25c-45,0-54-4-86-38c-35-37-38-38-68-25c-18,7-46,10-63,7c-32-7-80-55-80-81c0-13-2-13-16-2
		c-9,7-37,16-63,19l-46,5l-8,55c-12,79-1,219,23,282c58,153,250,318,390,335c57,7,60,13,60,118c0,98,18,301,30,346c8,28,18,40,40,48
		c25,8,30,15,30,44c0,23-8,41-25,57c-33,31-32,69,5,199c34,118,36,139,15,147c-8,4-68-4-133-16c-65-13-130-20-144-17
		c-33,9-61,65-52,104c10,40,43,73,75,73c14,0,70-16,123-35s110-35,126-35c29,0,30,2,30,43c0,23-7,87-15,142c-14,94-14,101,4,125
		C8549,9421,8616,9428,8667,9395z M10474,9119c47-70,86-134,86-142c0-28-32-29-60-2c-30,29-67,32-113,9c-44-23-358-239-391-269
		c-33-31-33-66,0-130c62-119,156-170,248-136c27,11,52-8,43-32c-4-12-177-77-204-77c-6,0-35,39-64,88c-68,112-180,281-237,355
		c-36,47-42,60-32,72c17,21,29,19,56-10c45-48,83-33,317,131c224,157,245,181,211,246c-15,30-15,32,2,45
		C10360,9284,10364,9279,10474,9119z M1493,8989c92-52,93-53,79-84c-10-22-15-23-37-15c-15,6-47,10-72,10c-41,0-50-5-82-39
		c-53-58-119-186-106-206c13-22,214-137,225-130c5,3,27,38,49,78c62,112,62,112,90,90l23-19l-52-93c-31-53-49-96-44-101
		c28-26,192-110,216-110c50,0,131,132,132,216c1,43-4,59-33,99l-34,47l21,20l21,21l58-50c32-28,68-62,81-76l23-25l-54-83
		c-67-105-163-271-210-366c-41-80-53-92-73-72c-11,11-11,22-3,50c15,47-2,84-56,120c-51,33-372,206-412,221s-81,3-95-27
		c-12-27-24-30-48-15c-13,8-7,25,37,112c71,141,267,468,280,468C1419,9030,1453,9012,1493,8989z M2825,8883c3-14,58-134,121-266
		c100-210,113-242,100-255c-12-13-18-8-44,39c-17,29-66,126-108,216c-43,90-83,163-89,163s-37-32-69-71c-58-69-58-72-53-120
		c4-36,3-49-7-49c-11,0-74,80-79,101c-3,14,195,267,209,268C2813,8910,2821,8898,2825,8883z M9340,8653c64-80,83-114,63-113
		c-5,0-17,7-27,15c-40,30-70,19-187-72c-62-49-121-100-132-115c-18-24-18-28-4-57c15-30,6-55-13-35c-35,39-140,177-140,184
		c0,15,26,12,40-5c26-31,65-17,159,55c128,100,175,146,168,167c-18,57-19,63-8,63C9264,8740,9301,8701,9340,8653z M2531,8411
		c17-17,29-40,29-55c0-35,16-41,46-17c107,84,243-85,205-254c-17-74-65-131-103-122c-53,14-45,62,13,77c60,16,74,62,43,140
		c-26,65-93,100-151,79c-35-12-53-45-53-95c0-31-3-35-22-32c-22,3-23,6-19,91c3,81,1,91-20,113c-47,51-100,17-109-69
		c-4-37-9-52-20-52s-16,14-18,54c-4,66,10,102,55,141C2452,8450,2492,8450,2531,8411z M10888,8418c16-20,133-279,139-308
		c8-44-21-46-60-4c-30,34-35,36-78,31c-48-6-433-171-479-206c-37-28-33-90,11-177c41-84,81-114,148-114c69,0,91-9,91-35
		c0-21-7-24-85-35c-46-7-99-13-116-14l-31-1l-83,205c-45,113-99,239-119,280c-36,74-36,75-15,85c18,7,26,4,49-24c25-31,30-34,72-29
		c56,6,468,191,499,224c18,19,21,31,17,68C10841,8420,10863,8448,10888,8418z M9510,8200c118-17,223-33,233-36c21-7,23-32,3-40
		c-8-3-101,7-205,22c-105,15-194,25-197,21c-7-7,49-109,70-126c10-9,24-5,57,14c56,32,63,31,88-4l21-29l-56-32c-59-34-58-34-39-97
		c10-32-20-31-41,2c-20,31-45,32-79,2c-24-20-25-25-15-51c7-20,7-33,1-39s-12-9-14-6c-17,23-107,189-107,198c0,17,15,13,35-9
		c10-11,28-20,39-20c27,0,66,27,66,45c0,8-25,55-56,105c-52,84-60,110-31,110C9290,8230,9392,8216,9510,8200z M957,8108
		c4-7,8-35,8-61c0-74,7-78,347-203c81-30,163-54,183-54c35,0,66,22,90,64c9,15,12,15,29,3c18-13,16-21-45-180c-54-143-67-167-85-167
		c-30,0-32,6-21,50c19,71-18,96-310,201c-229,83-269,86-296,20c-10-24-16-27-35-20s-21,13-16,36c7,31,100,277,115,306
		C932,8123,946,8125,957,8108z M2226,8055c11-17,8-34-19-118l-31-98l22-22l22-22l55,62c61,68,104,89,166,80c50-7,93-38,124-91
		c21-36,25-55,25-125c0-86-20-156-42-148c-7,2-12,15-10,28c15,127,14,147-9,188c-59,106-170,84-242-48l-17-33l-58,50
		c-31,28-68,61-81,75l-23,26l37,111C2183,8085,2197,8099,2226,8055z M9917,7700c66-154,75-187,46-175c-10,3-138,11-285,18
		c-147,6-273,14-279,18c-7,4-9,15-5,24c6,16,24,17,247,10l241-7l-7,24c-4,12-23,57-44,98c-33,69-39,76-73,83c-21,5-38,15-38,23
		c0,7,16,16,38,19c20,4,44,8,52,10C9847,7853,9856,7840,9917,7700z M11219,7573c57-186,70-251,55-264c-17-14-30-5-49,32
		c-25,47-54,39-215-63c-80-50-184-116-233-146c-48-31-85-57-83-59c6-6,346-62,446-73c47-5,99-6,115-2c26,7,31,14,35,53
		c4,31,10,45,22,47c24,5,32-20,58-173c17-102,19-129,9-136c-20-12-49,9-49,35c0,29-25,52-78,70c-32,12-430,81-639,112
		c-25,4-40,16-63,50c-51,73-77,47,307,289c113,72,226,149,251,172c43,41,45,43,40,92s0,58,29,60C11184,7670,11202,7627,11219,7573z
		 M2038,7618c-7-45-2-56,40-77c81-41,286-112,307-107c12,3,27,17,35,31c14,26,46,36,37,11c-3-7-23-61-44-120c-21-58-42-104-48-103
		c-5,2-11,22-13,44c-2,23-9,46-16,52c-15,13-261,107-301,115c-34,7-47,0-64-31c-6-12-17-20-25-17c-11,4-6,25,21,97
		C2013,7638,2049,7691,2038,7618z M4075,7506c44-19,59-47,50-102c-6-40-4-45,17-53c58-22,73-91,34-163c-24-46-24-47-5-53
		c52-17,62-120,15-164c-23-22-24-25-10-58c21-49,4-92-57-147c-82-73-216-113-347-102c-96,8-140,26-147,63c-4,15-8,38-11,51
		s-16,40-29,60c-15,24-26,60-31,101c-5,42-15,77-30,99c-21,31-23,42-18,101c5,56,3,72-16,109c-28,53-28,107-1,161
		c28,55,52,59,148,26c128-45,242-25,317,54C3987,7524,4020,7528,4075,7506z M739,7461c10-6,12-20,8-47c-12-70,2-76,422-183
		c129-33,240-66,248-74c18-18,22-15-322-232c-350-220-395-249-395-257c0-10,38-15,212-33c272-28,329-20,343,46c7,33,30,48,47,31
		c13-13-16-290-31-305c-18-18-39,2-46,45c-9,54-18,65-65,78c-59,16-376,50-466,50c-88,0-99-6-113-57c-5-19-15-29-31-31
		c-23-4-23-4-17,80c13,163,17,177,51,195c75,38,596,368,596,378c0,14-360,106-410,105c-45,0-53-6-79-57c-21-42-47-56-57-30
		c-5,14,51,260,67,289C712,7472,719,7474,739,7461z M9068,7363c43-47,23-182-30-199c-124-39-232,95-150,187
		C8935,7403,9025,7410,9068,7363z M8488,7320l41-30l27,25c57,53,128,25,176-70c41-81,77-123,125-147l48-24l-7-47c-7-55-27-89-63-113
		c-25-16-88-21-125-9c-14,4-32-3-57-24c-48-40-100-41-162-5l-45,25l-49-27c-58-31-94-28-148,16c-33,26-42,29-87,23c-46-5-53-3-75,21
		c-58,62-86,164-63,221c17,41,48,56,90,44c37-11,46-5,46,31c0,34,40,70,77,70c13,0,38-7,56-16c22-12,32-13,35-5c2,6,15,25,29,41
		C8390,7360,8433,7360,8488,7320z M10034,7276c68-28,109-132,86-216c-16-58-72-112-135-130c-60-17-148-17-200,0
		c-60,19-140,85-185,152c-43,64-49,88-25,88c8,0,15-3,15-8c0-21,98-116,144-139c142-72,351-9,351,107c0,52-27,80-77,80
		c-44,0-84-18-113-50c-14-16-19-34-17-70c3-62-19-59-44,6c-29,76-3,142,69,175C9953,7293,9989,7295,10034,7276z M2243,6969
		c20-11,37-20,37-22c-6-51-79-372-86-372c-5,0-11,13-14,30c-6,37-39,55-102,55h-47l-6-57c-12-106-12-108,41-137c56-32,90-34,97-6
		c3,11,11,20,17,20c10,0,11-19,6-77c-4-43-11-82-16-87c-12-12-30,2-30,23c0,25-29,49-175,141c-147,93-197,120-221,120
		c-12,0-15,6-11,26c2,15,20,103,38,196l34,169l59-3c72-4,82-21,24-39c-50-16-73-53-84-136l-6-51l53-7c30-4,72-5,94-3
		c37,3,40,5,47,43c15,77,18,85,35,85c13,0,15-8,10-45c-4-25-9-56-13-70l-6-25h78c44,0,84,4,90,8c16,10,34,78,34,126c0,31-7,44-36,71
		C2124,7000,2155,7013,2243,6969z M4149,6530c2-130-82-223-214-237c-137-14-250,86-271,241l-7,47l38-25c45-31,90-41,170-40
		c89,1,159,28,214,83l46,46l12-35C4143,6591,4149,6555,4149,6530z M10722,6498c19-63,52-75,235-89c83-6,202-9,263-7
		c103,3,113,5,131,27c10,13,19,36,19,51c0,34,25,59,43,41c12-12,25-123,26-228c1-51-2-63-15-63c-48,0-524-217-524-240
		c0-12,337-177,458-223l84-32l-7-95c-11-173-15-190-41-190c-19,0-24,7-29,45c-4,24-13,50-21,56c-20,16-281,23-441,11
		c-148-11-174-21-189-74c-11-38-54-55-54-21c-1,59,25,310,32,319c5,7,18,10,28,7c15-4,20-14,20-39c0-23,6-37,19-44
		c23-12,509-14,528-2c8,5-104,63-293,152c-168,80-310,153-315,163c-8,13-5,19,13,27c13,5,122,53,243,108c121,54,250,111,287,127
		s64,32,60,36s-113,10-243,14c-206,7-239,6-266-9c-27-13-32-22-35-58c-2-36-7-44-25-46c-27-4-28,0-42,172c-9,103-9,131,1,138
		C10697,6547,10708,6539,10722,6498z M10223,6506c11-28,30-387,21-395c-5-5-37-11-71-14c-48-4-63-2-67,9c-4,10,8,21,38,34
		c56,23,66,43,66,122c0,94-9,102-103,93l-77-7v-69c0-62-2-69-20-69c-17,0-20,7-20,49c0,75-5,81-61,81c-27,0-65-7-84-14
		c-31-13-35-19-35-51c0-29-3-36-17-33c-15,3-19,18-24,78c-4,41-8,93-10,115c-5,47,14,55,34,15c9-17,22-26,44-28c45-4,310,26,332,38
		c10,5,22,21,25,35C10201,6523,10215,6528,10223,6506z M6098,6336c18-9,38-28,44-42c11-22,8-33-17-80c-16-29-26-56-22-60
		c3-4,22,1,41,10c45,21,68,20,99-4c73-58,43-205-50-241c-36-13-46-12-87,16c-61,41-69,20-35-90c25-82,70-134,147-172
		c53-26,66-28,177-28c108,0,125,3,175,26c30,14,70,39,89,55c33,28,91,109,91,127c0,5-29,5-66,2c-59-7-67-5-89,15
		c-32,30-41,79-25,135c26,93,89,120,162,70c62-42,78-26,33,35c-32,43-34,107-5,138c59,63,215,50,279-23c17-20,31-43,31-51
		c0-38-62-114-92-114c-11,0-18-7-18-18c0-16,7-18,60-14c108,8,133-32,86-134c-40-85-101-120-162-90c-55,26-64,22-64-29
		c0-58,19-102,61-142c94-89,279-104,424-33c73,35,135,90,135,119c0,18-4,20-27,14c-72-19-119,9-108,66c16,83,78,167,145,194
		c61,25,91,2,105-80c4-24,12-43,19-43c6,0,20,19,31,42c29,61,63,82,143,86c68,4,122-9,122-28c0-6-48-61-106-123
		c-159-168-279-357-410-648c-31-68-57-125-58-126c-1-2-40,4-87,12c-332,59-1023,102-1454,91c-450-11-985-57-1192-101
		c-20-5-33,16-132,217c-134,273-219,402-362,553c-60,63-109,119-109,125c0,32,132,40,195,11c44-20,65-41,86-85c23-48,39-44,39,9
		s12,80,41,95c62,34,182-85,204-202c6-29,3-40-14-57c-19-19-29-21-71-15c-65,9-66-8-6-64c79-73,164-103,289-103
		c138-1,232,49,271,143c18,41,21,114,7,123c-5,3-26-4-46-16c-32-19-41-20-75-10c-95,28-156,186-87,223c12,6,45,8,79,5
		c51-4,58-3,58,13c0,10-10,20-24,24c-34,8-86,71-86,104c0,56,48,95,143,113c147,28,239-66,162-167c-15-20-24-42-21-50
		c5-14,13-12,50,10c82,48,130,28,162-67c21-61,12-109-24-138c-24-18-35-20-89-15c-69,7-76,0-46-44c78-117,182-170,334-170
		c196,0,326,101,337,261c2,33,1,59-2,59c-4,0-20-10-37-22c-35-26-88-27-124-4c-33,22-65,87-65,131c0,86,56,126,137,99
		c24-9,47-13,50-10s-7,30-22,59c-26,49-27,57-16,85c18,44,74,62,176,59C6036,6355,6077,6347,6098,6336z M1840,6327c0-8-17-18-37-23
		c-45-11-63-40-63-106v-48h183c100,0,187,4,192,8c6,4,16,19,22,35c24,53,33,29,33-89c0-105-2-115-17-112c-10,2-19,13-21,26
		c-2,12-11,26-20,31s-97,12-194,16l-178,8v-62c0-52,4-66,25-86c13-14,31-25,40-25c8,0,15-7,15-16c0-13-6-15-32-10c-18,4-48,10-66,13
		l-32,6l6,201c3,110,7,211,10,224c4,20,10,22,69,22C1822,6340,1840,6336,1840,6327z M776,6216c8-34,0-43-46-51c-54-9-129-61-146-101
		c-14-34-20-207-8-238c7-18,73-21,207-10l77,7v108v109h29c26,0,29-3,35-46c3-26,6-74,6-106v-60l111,4c106,3,112,4,134,30
		c13,15,27,48,30,73c6,38,11,45,30,45c22,0,24-5,29-72c3-40,7-129,8-198c3-115,2-125-16-128c-23-5-36,14-36,50c0,47-26,53-215,50
		c-192-2-366-17-395-32c-18-10-22-18-34-72c-8-33-31-36-47-7c-11,22-16,106-23,447l-5,202l57,1c31,1,82,4,112,9
		C765,6243,769,6242,776,6216z M10250,5846c0-137-23-218-40-145c-5,21-12,24-47,23c-55-1-323-65-317-76c3-5,68-40,145-78
		c146-74,193-85,204-49c11,34,30,16,27-27c-4-48-21-136-26-142c-10-9-26,11-26,33c0,37-27,56-226,160c-126,66-184,102-184,113
		c0,9-3,26-6,38c-5,20,7,24,202,73c114,28,216,56,226,62c11,6,26,26,34,45C10236,5923,10250,5910,10250,5846z M2175,5769
		c4-55,4-103,0-107c-3-3-16,7-29,22l-22,29l-49-22l-48-21l6-87c4-47,10-90,15-95s32-11,60-15c49-5,52-5,62,22c15,40,26,22,39-64
		c13-84,3-113-23-63c-19,37-47,48-275,112c-169,48-211,68-211,102c0,5,75,46,168,90c217,105,262,133,262,162c0,25,8,36,25,36
		C2164,5870,2170,5837,2175,5769z M1303,5388c3-13,15-85,28-161c18-114,20-140,9-147c-20-12-38-1-49,31c-14,39-42,38-116-7
		c-33-19-61-37-63-38c-5-6,55-257,64-266c6-6,46-11,89-12l80-3l5,40c4,32,10,41,27,43c19,3,24-5,43-70c12-40,28-95,37-121
		c8-26,13-54,10-61c-8-20-47-28-47-9c0,27-56,71-111,87c-30,8-189,36-354,61l-300,46l-33,36c-18,21-31,43-30,51c2,7,140,96,308,197
		c326,196,350,216,350,286c0,34,3,39,24,39C1290,5410,1299,5403,1303,5388z M2235,5288c14-61,35-171,35-184c0-23-19-16-32,11
		c-6,14-20,25-30,25c-20,0-214-61-274-86c-20-8-34-18-31-20c3-3,94-21,202-39c109-18,201-37,206-42c6-6-51-62-147-143
		c-87-74-152-136-146-138c21-7,286,59,305,76c13,11,16,24,12,44c-7,32,9,38,24,9c21-38,60-155,55-163c-9-14-21-8-32,17
		c-10,22-18,25-64,25c-69,0-282-44-313-64c-19-12-25-25-25-52c0-56-22-37-52,47c-15,41-27,76-27,79c-1,3,29,28,67,56
		c37,28,103,82,146,119c67,58,76,69,60,75c-19,7-272,47-329,52c-29,3-31,6-49,86c-20,90-15,112,16,69c27-37,53-35,204,17
		c144,51,175,69,188,115C2214,5315,2227,5319,2235,5288z M9730,5210c0-20,8-34,23-44c29-19,248-68,312-70c43-1,51,2,60,22
		s35,31,35,15c0-5-7-40-16-79l-17-71l-204-98c-112-54-202-103-200-109c8-23,245-99,275-88c7,2,17,15,22,28s15,24,21,24
		c16,0,6-53-23-125c-26-67-50-85-46-35c4,46-20,61-221,133c-96,34-174,67-175,72c0,6,103,64,229,130c127,66,230,125,230,130
		c0,14-196,53-268,54c-52,1-59-1-69-24c-13-30-28-33-28-6c0,19,26,141,35,169C9713,5260,9730,5241,9730,5210z M6516,4970
		c219-13,426-33,641-62l163-22v-51c0-150-68-1785-80-1950c-36-446-124-705-308-897c-136-142-273-213-512-265c-99-22-148-26-358-30
		c-161-4-276-1-340,7c-301,38-563,157-703,321c-170,199-261,434-299,769c-15,133-76,1580-82,1950l-3,145l155,22
		c189,26,439,52,620,62C5613,4981,6314,4981,6516,4970z M11316,4847c6-16-73-337-86-350c-4-5-17-6-28-3c-17,6-20,13-16,39
		c9,61,5,62-203,59c-103-2-235-7-293-10l-105-7l136-110c295-238,326-258,357-239c9,6,23,23,30,37c14,29,19,31,42,17
		c13-8,10-23-19-107c-55-157-69-185-88-181c-14,3-18,14-18,54c0,31-7,60-18,77c-19,30-341,301-468,395l-78,57v67l-1,67l43,5
		c23,3,166,10,317,16s297,14,323,17c55,7,110,39,116,68C11266,4855,11304,4876,11316,4847z M2465,4530l23-54l-61-122l-61-122l-35,26
		c-72,55-164,24-177-60c-7-40,26-128,48-128c7,1,83,38,168,83l155,83l3,44c2,25,7,49,11,53c8,8,111-174,111-194c0-14-27-10-40,6
		c-7,8-24,15-38,15c-27,0-236-106-290-147c-30-23-33-29-27-60c11-62-16-33-82,88c-83,152-96,214-56,276c22,33,83,54,126,42
		c19-5,40-16,47-24c21-25,34-17,67,43c38,70,67,165,58,193c-5,16-3,20,10,17C2434,4587,2452,4561,2465,4530z M9495,4448v-42l145-68
		c154-72,202-82,220-48c13,24,30,26,30,3c0-22-122-270-150-306c-52-66-157-107-227-88c-110,30-183,121-183,230c0,51,8,78,46,163
		c68,153,93,198,107,198C9490,4490,9495,4475,9495,4448z M1595,4275c59-147,63-161,47-173c-15-11-21-8-47,22c-25,30-37,36-68,36
		c-42,0-227-67-233-85c-8-20,157-365,174-365c21,0,189,90,210,113c16,18,21,75,11,117c-3,9,5,16,18,18c19,3,29-10,67-85
		c24-48,60-117,80-151c42-74,43-79,16-87c-15-5-27,2-47,25c-24,29-31,32-67,27c-35-4-331-153-452-228c-42-25-57-64-44-108
		c10-37,0-54-29-48c-16,2-161,273-161,300c0,29,28,32,54,4c43-47,77-45,182,9c52,27,94,54,94,59c0,13-159,356-170,368
		s-177-57-207-85c-18-17-23-32-23-69c0-59-21-82-44-47c-8,13-41,88-72,167c-55,139-57,144-38,158c17,13,22,11,47-22
		c43-52,73-48,289,36c201,78,276,113,296,138c8,10,11,34,9,63c-4,47,3,59,31,55C1525,4436,1560,4363,1595,4275z M10319,4096
		c8-10,8-21,0-45c-15-43-1-73,49-106c66-44,445-215,475-215c19,0,39,10,58,31c31,33,66,36,61,5c-2-10-24-64-50-121
		c-47-103-47-104-87-110c-85-14-680-148-689-155c-7-8,197-150,305-213c62-37,107-36,144,3c31,32,45,36,62,19c9-9-11-45-74-140
		c-48-71-92-129-98-129c-25,0-34,24-20,50c19,33,18,61-1,89c-16,22-518,361-536,361c-4,0-8,11-8,24c0,22,8,26,133,55
		c72,17,260,61,417,98c157,36,289,70,294,74c5,5-26,24-70,45c-224,103-346,154-382,160c-35,6-44,3-79-29c-29-27-43-33-55-26
		c-15,8-9,26,50,149c37,76,72,139,78,140C10302,4110,10313,4104,10319,4096z M2758,3934c80-40,137-116,163-217
		c35-139-93-290-245-289c-76,0-125,21-186,78c-96,90-124,225-65,319C2502,3948,2639,3993,2758,3934z M9151,3826c-2-43,5-59,103-230
		c158-273,157-273-101-189c-233,75-264,81-297,59c-47-30-38,4,19,75c64,77,71,83,85,74c6-4,5-13-2-25c-16-25,0-43,53-59
		c48-14,54-11,120,76l42,53l-27,41c-31,46-50,56-72,39c-9-9-18-10-24-4c-12,12,78,146,94,141C9150,3875,9153,3853,9151,3826z
		 M3254,3343c74-79,95-122,40-87c-17,12-31,14-44,8c-31-15-203-178-233-221c-25-36-26-43-16-67c34-73-33-18-202,166
		c-57,62-78,91-72,101c4,8,28,31,52,51c52,43,73,36,42-15c-24-39-26-64-8-96c19-34,87-103,101-103c7,0,39,24,72,54l59,53l-47,56
		c-38,43-45,57-35,66c10,8,24,0,57-34c24-25,49-45,56-45c18,0,104,97,104,117c0,10-7,29-16,41c-14,20-11,47,5,40
		C3173,3426,3211,3388,3254,3343z M8662,3268c-33-33-14-64,142-229l98-104l40,45c38,43,40,47,35,97c-3,28-3,54,1,57c3,4,21-17,39-46
		l33-52l-42-44c-24-25-97-94-163-154l-120-110l-42,48c-44,50-45,81-2,50c13-9,35-16,49-16c29,0,100,54,100,76c0,9-56,72-124,141
		c-129,131-131,132-188,108c-13-5-18-3-18,8c0,22,153,158,165,146C8670,3283,8670,3276,8662,3268z M3505,3110c25-21,90-74,145-116
		s97-80,95-84c-3-5-22-6-43-3c-46,6-56-3-167-151c-87-115-101-151-70-176c10-9,12-17,6-23c-10-10-35,5-123,74
		c-117,91-198,163-198,174c0,6,15,29,34,51c43,49,60,39,43-25l-12-43l59-55c39-36,65-53,79-51c22,3,107,100,107,121
		c-1,7-23,30-50,51c-39,31-47,42-39,52c9,11,19,8,51-19c70-56,66-56,104-12c19,22,42,53,50,68c14,26,14,31,0,52
		c-43,65-119,92-181,63c-27-12-50-1-37,17s83,75,92,75C3455,3150,3479,3132,3505,3110z M9728,3107c9-10,6-24-9-55c-18-37-20-46-9-72
		c11-27,222-213,362-318c62-47,104-54,133-22c10,11,27,20,37,20c34,0,32-29-6-78c-66-85-190-222-201-222c-27,0-32,22-14,58
		c11,20,19,44,19,54c0,26-51,79-195,203c-236,202-253,211-315,159c-28-24-33-25-47-12c-10,10-12,21-7,30c22,37,220,267,230,268
		C9712,3120,9722,3114,9728,3107z M2277,3075c101-51,236-233,219-298c-3-13-30-50-60-83l-54-59l-22,21l-22,21l26,51
		c34,68,36,145,3,193c-35,51-82,79-136,79c-109-1-137-90-86-275c39-141,32-217-29-283c-47-52-128-77-196-60c-35,9-60,27-111,77
		c-61,61-149,181-149,203c0,12,110,128,121,128c5,0,13-8,18-19c8-13,5-28-9-57c-39-76-19-153,53-208c46-36,113-36,151-1
		c35,32,34,78-5,247c-36,156-34,197,14,260C2070,3099,2178,3124,2277,3075z M8360,3015c0-3-7-17-16-30c-13-20-15-37-9-82
		c15-122,65-366,79-388s13-24-42-57c-31-19-107-65-169-102l-111-68l-31,33c-31,34-47,66-38,75c3,3,20-4,38-15c46-28,75-26,137,9
		c36,21,52,37,52,51c0,21-85,139-100,139c-5,0-32-14-60-32c-36-22-54-28-61-21c-8,8,3,21,40,45c28,18,51,39,51,46
		c0,22-91,112-114,112s-102-46-123-71c-6-8-13-37-15-64c-2-28-7-50-13-49c-14,1-42,52-49,89c-6,28-3,32,46,59c29,16,101,60,160,97
		c127,82,154,90,108,32c-13-17-18-33-14-47c8-25,62-96,74-96c4,0,36,21,70,46c68,50,67,45,39,146c-9,35-13,38-44,38c-19,0-35,3-35,8
		c1,11,123,102,138,102C8354,3020,8360,3018,8360,3015z M3861,2839c27-17,50-38,53-47c8-26,24-130,31-201l7-63l-40,7
		c-79,13-142-51-128-129c5-27,17-44,48-66c23-17,49-30,59-30c12,0,41,44,98,148c86,156,98,199,62,224c-12,9-17,19-12,27
		c6,9,25,3,77-25c91-49,125-74,119-84c-3-5-20-6-38-3c-23,3-37,0-48-14c-22-24-159-286-159-303c0-8,9-24,21-36s18-28,14-34
		c-15-24-285,141-310,190c-41,79,8,167,98,177l47,6v56c0,63-21,151-44,186c-17,25-21,45-9,45C3810,2870,3835,2856,3861,2839z
		 M2870,2466c165-142,152-129,137-150c-12-17-15-17-60,5c-47,23-48,23-82,5c-33-18-273-288-329-370c-32-47-34-99-6-123
		c24-21,25-36,5-53c-12-10-29-1-97,58c-46,39-110,96-143,127c-57,53-59,57-41,70c17,13,23,12,53-6c42-26,71-20,122,26
		c48,44,292,319,308,348c19,33,15,81-7,110c-23,29-24,39-8,55C2737,2583,2735,2584,2870,2466z M9333,2333c150-86,290-164,312-174
		c52-24,92-24,134,2c35,21,61,19,61-5c0-17-248-256-266-256c-21,0-27,40-10,59c28,31,19,58-31,96c-63,45-434,257-440,251
		c-9-9,159-496,179-521c22-29,54-32,86-9c25,17,42,11,42-14c0-21-215-192-241-192c-20,0-16,36,7,63c24,28,26,37,21,92
		c-3,38-42,171-104,360l-99,300l21,36c21,38,45,69,52,69C9059,2490,9184,2420,9333,2333z M3519,1989c80-51,147-93,149-94
		c2-2-1-13-7-24c-10-17-16-19-37-11c-53,20-81,13-117-32c-57-72-279-448-273-463c3-8,33-29,68-46c85-43,134-43,188,0
		c33,27,44,30,55,21c8-7,15-17,15-22c0-18-123-138-141-138c-31,0-349,188-535,316c-80,56-80,36,1,162c56,89,88,82,65-14
		c-11-43-11-59,0-84c15-35,121-113,147-108c18,3,275,409,293,462c12,38,1,77-32,113c-17,19-19,25-8,38c7,8,15,15,17,15
		C3370,2080,3438,2039,3519,1989z M8580,2036c0-7-11-23-25-36c-29-27-33-72-11-124c21-50,211-368,241-404c34-40,56-46,99-28
		c33,14,37,14,46-4c5-10,10-21,10-24c0-15-533-316-561-316c-8,0-33,30-55,68c-54,89-58,99-34,112c16,9,29,4,71-30c28-22,62-40,75-40
		c32,0,82,21,172,73c66,37,73,44,68,67c-5,28-102,207-117,216c-6,3-50-17-99-45c-50-28-94-51-98-51c-5,0-14,11-20,24
		c-13,29-14,29,90,86c43,23,80,46,83,51c7,10-78,164-108,197c-27,29-65,28-126-2c-105-54-145-107-140-190c4-60-3-76-35-76
		c-20,0-26,10-45,70c-12,38-24,84-27,102l-5,33l166,90c92,50,210,117,263,151C8552,2065,8580,2072,8580,2036z M4056,1705
		c69-30,128-55,132-55s13-4,21-9c10-7,11-13,1-30c-9-18-17-21-44-16c-44,9-53-5-61-96l-7-76l108-42c161-63,153-63,208,4
		c25,31,46,64,46,73c0,8-14,27-31,41c-26,22-28,28-17,42c12,15,24,13,138-25c105-34,125-44,125-61s-8-21-50-25c-78-8-100-28-398-361
		c-87-97-168-180-180-183s-38-6-57-6h-35l2,82c2,46,8,208,13,360c8,196,8,289,0,317c-9,36-42,73-73,84c-14,4,8,37,25,37
		C3928,1760,3988,1735,4056,1705z M7768,1615c2-14-7-26-27-38c-36-21-45-46-36-95c10-57,155-439,179-475c21-29,27-32,72-30
		c47,2,63-7,64-33c0-12-195-89-330-129c-124-37-202-48-253-34c-103,27-166,161-123,262c7,18,30,50,50,72c43,45,47,38-69,120
		c-114,81-189,117-260,124c-50,5-60,9-63,26c-2,18,9,23,102,43l105,24l113-73c208-133,257-169,252-182c-2-7-19-21-37-30
		c-48-26-67-64-67-134c0-142,96-203,246-158c82,25,82,25,57,97c-12,35-53,150-90,257c-79,227-97,254-166,250c-23-2-49,1-55,5
		c-32,20-1,40,142,92c82,30,152,57,155,59C7740,1647,7765,1634,7768,1615z M5056,1390c208-42,194-37,194-65c0-23-4-25-43-25
		c-75,0-77-5-147-368c-32-165-40-226-32-234c6-6,47-13,90-16c95-5,140,12,168,64c10,18,25,34,34,34c38-1,37-15-3-102
		c-39-87-40-88-76-88c-94,0-651,116-665,139c-6,10,30,181,41,192c17,17,43-2,43-30c0-47,20-100,46-120c24-19,159-50,169-39
		c9,9,105,500,105,536c0,46-16,71-56,88c-32,13-45,40-27,57C4905,1422,4883,1425,5056,1390z M6770,1337c18-9,31-31,47-77
		c29-82,27-114-7-118c-21-2-30,7-55,50c-41,71-83,98-152,98c-102,0-163-47-163-126c0-65,40-105,138-139c131-47,212-87,242-121
		c79-91,60-222-43-291c-61-41-129-54-257-51l-103,3l-14,40c-7,22-15,60-16,85c-2,38,1,45,18,48c14,2,27-9,45-38
		c75-122,290-97,290,34c0,66-33,92-188,146c-115,41-190,85-214,127c-25,42-33,118-18,173c15,56,89,131,151,153
		C6527,1353,6733,1356,6770,1337z M6018,1295c24-8,13-44-15-50c-16-4-42-12-59-20c-41-18-44-35-44-336c0-273,0-275,66-294
		c28-8,39-16,39-30c0-19-7-20-183-19c-127,0-186,4-194,12c-17,17,5,37,57,54c56,18,64,51,76,298c13,288,6,319-73,340
		c-31,9-38,15-38,36v25l178-6C5925,1301,6011,1297,6018,1295z"/>
	<path class="st0" d="M5615,10671c-29-12-85-72-85-92c0-12,16-20,60-29c33-7,60-15,60-19c0-3-18-13-39-22c-28-12-46-29-60-58
		c-36-69-38-67,127-75c81-3,161-9,178-12l30-6l23,107c15,75,19,110,12,119c-19,23-106,65-166,81C5690,10681,5646,10683,5615,10671z"
		/>
	<path class="st0" d="M5760,9579c0-40,44-84,100-99c61-16,206-9,250,13c38,19,70,62,70,96c0,20-4,20-62,13c-35-4-101-7-148-7
		s-113,3-147,7l-63,8V9579z"/>
	<path class="st0" d="M4739,9294c-28-34-24-240,5-279c22-31,66-4,114,69s62,106,62,146c0,57-38,49-76-16c-32-55-54-58-55-6
		C4786,9294,4767,9327,4739,9294z"/>
	<path class="st0" d="M4300,8880c-33-20,2-247,45-298c35-40,65-21,111,73c31,64,38,86,38,143c1,55-2,67-16,70c-20,4-55-46-65-91
		c-8-37-47-35-51,3C4354,8859,4330,8898,4300,8880z"/>
	<path class="st0" d="M4741,8532c-42-78-4-340,50-350c35-6,132,127,165,228c19,57,12,100-14,100c-24,0-69-48-83-88
		c-7-20-18-32-29-32c-22,0-30,19-30,70C4800,8535,4765,8577,4741,8532z"/>
	<path class="st0" d="M7195,9298c-2-7-6-39-10-70c-8-68-21-73-53-20c-26,41-57,66-72,57c-32-20,9-136,75-213c67-77,97-67,115,40
		c12,70,9,124-11,186C7229,9310,7203,9321,7195,9298z"/>
	<path class="st0" d="M7676,8818c-8-24-17-54-18-68c-5-40-34-37-48,5c-6,19-23,49-37,66c-49,57-69-4-37-112c34-114,85-186,122-175
		c45,15,101,242,74,301C7715,8872,7694,8866,7676,8818z"/>
	<path class="st0" d="M7220,8414c-6-15-13-53-17-84c-5-50-8-57-25-52c-10,2-28,24-40,49c-20,43-68,80-88,68c-22-14-10-92,25-161
		c71-140,129-193,163-151c34,41,59,234,39,307C7263,8444,7235,8455,7220,8414z"/>
	<path class="st0" d="M3790,7011c0-23-5-30-22-33c-48-7-23-98,26-98c16,0,26-7,29-21c5-17,12-20,44-17s38,6,38,27c0,15,8,27,21,32
		c56,20,29,99-34,99c-10,0-23,9-30,20c-8,13-23,20-42,20C3794,7040,3790,7037,3790,7011z"/>
	<path class="st0" d="M1782,6658c5-15,167-126,184-127c12-1,24,52,24,107v32h-106C1804,6670,1779,6667,1782,6658z"/>
	<path class="st0" d="M1901,5609c-98-46-100-47-81-59c12-7,169-50,185-50c8,0-5,133-14,142C1988,5645,1947,5630,1901,5609z"/>
	<path class="st0" d="M913,4949c-116-70-153-99-125-99c4,0,75-9,156-21c83-11,153-16,157-12c8,8-24,184-37,205
		C1056,5035,1052,5033,913,4949z"/>
	<path class="st0" d="M5424,4803c20-112,24-99-35-106c-71-9-86-24-71-75c16-52,37-70,63-54c30,19,96,15,119-8c44-44,10-110-56-110
		c-20,0-49,8-65,17c-27,16-29,16-49-2c-33-30-24-85,16-85h23l-24-52c-30-65-31-107-4-142c12-15,20-29,17-31c-8-8-310-27-342-21
		c-18,4-55,22-82,41c-57,41-92,44-130,12c-28-24-26-51,2-40c9,3,19,2,23-4c3-5,17-16,29-25l24-16l-35,1c-58,2-91-42-44-58
		c12-5,31-11,42-15c18-6,17-8-10-21c-33-16-52-68-20-55c9,3,23-1,32-9c18-18,43-13,93,22l35,23l3-22c2-12-1-24-7-26
		c-24-8-9-22,25-22c50,0,72,15,80,55c6,32,8,34,58,39c28,3,132,7,231,10c99,2,195,10,213,16c28,11,32,16,32,49v37l68-8
		c78-10,176,4,232,32c20,10,61,40,91,65c71,61,140,95,204,102c80,8,92-9,123-171c14-74,34-104,80-123c51-22,170-12,350,27
		c79,17,146,29,149,26c13-13-22-36-65-41c-26-4-55-9-64-11c-21-6-32-37-23-65c6-19,8-19,24-5c16,15,51,22,51,11c0-3-5-14-12-24
		c-6-10-8-26-5-35c9-22,66-11,89,18l18,21v-26c0-15,7-32,16-40c13-11,19-8,39,17c14,16,24,39,25,52c0,12,2,22,5,22c9,0,50-25,57-34
		c11-15,38,14,38,41c0,13-18,48-40,77s-43,68-46,87c-14,70-17,72-108,65c-229-19-226-19-245-2c-11,10-21,30-23,46c-4,26-1,29,36,34
		c58,10,131,53,161,96c32,46,43,130,25,184c-31,96-112,141-250,141c-111,0-167-26-277-128c-45-42-96-83-112-92c-71-36-174-27-228,19
		c-27,23-27,25-10,43c23,26,22,74-3,105c-23,30-78,58-114,58c-25,0-26-3-26-52c0-60,33-140,71-175c13-12,44-31,68-41l44-20l-54-6
		c-30-3-75-7-101-9l-48-4l-6,36c-17,108-85,245-134,271c-13,7-19,18-16,28c3,9,8,34,12,55c5,33,4,37-14,37c-11,0-32-14-45-32l-25-32
		l-16,37c-19,46-32,47-53,2l-17-35l-29,35C5438,4853,5416,4852,5424,4803z M6696,4579c44-42,48-116,8-160c-9-10-36-26-61-35
		c-43-17-45-17-91,6c-35,17-70,24-134,28l-87,4l37,26c20,13,62,48,93,76c31,29,71,60,90,69C6596,4616,6663,4610,6696,4579z"/>
	<path class="st0" d="M5072,4783c4-50-1-55-26-27c-18,22-32,28-59,27c-55-2-59-10-21-51c42-45,44-60,5-33c-33,24-59,26-96,9
		c-29-13-33-28-7-28c11,0,24-11,30-25s20-25,30-25s27-7,38-15c18-14,18-14-8-15c-16,0-28-4-28-9s-9-7-20-4c-27,7-25-9,3-34
		c14-14,42-23,83-28c58-6,63-9,97-53c19-26,58-90,86-142c70-130,124-178,114-101c-4,26,1,53,16,86l21,48l-36,40c-20,22-63,81-96,131
		l-59,91l7,77c6,70,5,77-14,87C5100,4806,5070,4803,5072,4783z"/>
	<path class="st0" d="M6046,4744c-36-36-15-83,57-124c60-34,79-36,133-14c59,24,94,62,94,101c0,54-72,73-124,32l-27-21l-23,21
		C6129,4764,6069,4767,6046,4744z"/>
	<path class="st0" d="M5184,4649c-3-6,7-25,23-42c16-18,37-45,47-60c24-39,73-57,156-57h71l-3,33l-3,32h-78h-77l-38,42
		C5243,4642,5196,4667,5184,4649z"/>
	<path class="st0" d="M4980,4453c-8-3-25-15-38-26l-22-21l-20,22c-23,25-97,31-118,10c-20-20-14-72,11-95c33-31,102-63,135-63
		c34,0,114,49,138,85c21,32,7,71-32,85C5006,4461,5002,4461,4980,4453z"/>
	<path class="st0" d="M6908,4439c-27-15-22-62,9-94c36-35,95-65,130-65c34,0,128,53,143,79c16,31,12,69-9,81c-35,18-99,12-113-10
		c-7-11-17-20-23-20s-18,9-28,20C6998,4452,6938,4457,6908,4439z"/>
	<path class="st0" d="M6159,4264c-30-9-59-27-78-49c-29-34-31-41-31-115v-80h-55c-31,0-78,9-107,20c-69,26-119,26-143,0
		c-22-25-21-26,35-37l45-9l-45-15c-55-17-65-44-21-54c17-3,41-3,53,0l23,7l-22-21c-13-12-23-30-23-40c0-15,8-18,39-18s46,6,67,28
		c36,37,47,37,42-2c-5-31-4-31,30-25c40,6,72,31,72,58c0,16,9,18,68,18c92,0,96,5,88,78c-6,57-5,61,20,81c15,12,37,21,50,21
		c23,0,24,3,19,43c-14,104-16,108-41,117C6214,4282,6216,4282,6159,4264z"/>
	<path class="st0" d="M5424,3863c4-21,9-53,13-70l5-33h-45c-29,0-53-7-68-19c-21-17-22-21-11-59c16-52,37-70,63-54
		c30,19,96,15,119-8c42-42,10-110-51-110c-17,0-46,7-65,16c-43,20-60,14-69-26c-7-33,7-60,31-60c19,0,18-10-6-61c-25-55-25-86-1-126
		c18-29,18-32,3-38c-9-4-83-9-164-12l-146-6l-62,42c-34,22-66,41-72,41c-19,0-66-30-72-45c-8-23-8-25,8-25c14,0,86-38,86-46
		c0-2-12-1-27,2c-34,6-77-15-81-40c-3-12,1-17,9-14s20-1,27-9c7-7,25-13,40-14c25,0,24-1-8-12c-28-10-36-18-38-41c-3-26-2-28,12-17
		c13,11,17,11,22-3c9-24,54-20,96,9c20,14,39,25,41,25c10,0-1-43-13-50c-21-13,37-25,69-14c18,7,30,22,40,50l14,41l204,7
		c113,4,219,12,240,19c33,10,38,16,41,47l3,35h122c117,0,124,1,172,29c28,16,82,53,120,82c87,66,130,84,195,84c46,0,52-3,70-32
		c10-17,22-50,25-72c18-119,28-150,57-179l29-30l122,6c90,4,153,13,242,37c65,17,126,29,134,28c28-6-22-44-66-51c-51-8-78-37-69-73
		c6-24,8-25,25-10c21,19,72,23,53,4c-7-7-12-22-12-34c0-25,21-45,28-26c2,7,12,12,22,12s28,12,39,28l20,27l1-25c0-25,16-50,32-50
		c4,0,8,5,8,11s7,17,15,25c8,9,15,32,15,52c0,28,3,33,12,24c7-7,20-12,30-12s18-4,18-10c0-16,27-11,34,6c12,32,5,49-36,91
		c-24,24-54,67-68,96c-22,46-29,52-59,55c-19,2-70-8-115-22c-112-35-159-41-173-24c-7,7-15,37-19,66l-7,52h37c101,0,186,95,186,207
		c-1,139-115,223-285,210c-101-7-138-27-235-121c-47-46-101-92-120-102c-66-34-189-19-229,30c-10,12-9,20,4,40c38,57-6,129-92,151
		l-48,12l-3-55c-6-100,72-210,163-230c27-6,26-7-20-13c-27-4-76-8-107-8c-55-1-58,0-63,27c-24,116-73,222-125,265
		c-26,22-28,28-19,63c4,22,9,45,9,52c0,24-39,12-64-20c-23-30-25-31-31-13c-19,60-42,66-65,18l-15-33l-28,35
		C5439,3913,5416,3912,5424,3863z M6668,3643c37-23,56-79,43-125c-23-75-86-94-186-55c-22,9-67,16-101,17c-33,0-63,2-66,5
		c-9,9,139,155,173,170C6570,3672,6632,3667,6668,3643z"/>
	<path class="st0" d="M5068,3847c6-7,9-23,6-34c-6-21-6-21-29,5c-16,19-32,26-58,26c-20,0-39-3-43-7s7-25,25-47c33-41,31-51-3-25
		c-24,18-54,19-93,4c-28-11-28-11-6-22c13-5,25-18,28-27s24-25,48-35c40-18,41-19,15-22c-16-3-28-9-28-14c0-6-9-7-20-4
		c-26,8-26-5,0-33c17-18,32-22,79-22h58l45-57c25-32,62-90,82-130c37-75,90-143,110-143c7,0,10,14,8,39c-3,25,3,52,17,80l21,41
		l-47,57c-26,32-69,92-95,133l-49,75l7,73c7,85-2,102-53,102C5065,3860,5060,3857,5068,3847z"/>
	<path class="st0" d="M6210,3794l-31-27l-23,22c-27,25-87,28-110,5c-20-20-20-53,0-82s105-72,141-72c54,0,143,68,143,109
		c0,32-8,44-37,60C6261,3826,6245,3823,6210,3794z"/>
	<path class="st0" d="M5180,3704c0-13,107-127,131-139c46-24,125-30,154-11c27,18,29,24,15,46c-6,11-29,15-86,15c-69,0-78,2-93,24
		c-32,47-64,71-92,71C5193,3710,5180,3707,5180,3704z"/>
	<path class="st0" d="M4800,3507c-28-14-38-54-21-85c5-10,37-33,70-51c55-29,64-31,99-21c48,12,118,62,127,89c8,27-10,60-41,71
		c-38,15-50,12-84-17c-30-24-34-25-45-10c-10,14-55,37-73,37C4828,3520,4814,3514,4800,3507z"/>
	<path class="st0" d="M6903,3505c-16-11-23-26-23-50c0-41,38-76,109-100c48-16,49-16,105,11c121,57,131,144,17,144c-39,0-52-4-64-22
		l-15-23l-24,22C6975,3518,6931,3525,6903,3505z"/>
	<path class="st0" d="M6147,3326c-74-27-97-68-97-174v-69l-72,5c-40,3-92,13-116,23c-56,24-73,24-106-2c-30-24-34-41-8-38
		c9,1,28-2,41-8l25-10l-30-7c-16-4-35-12-41-18c-17-14-17-39,0-37c6,1,20-1,30-6c10-4,30-3,45,4l27,12l-29-23c-18-15-27-31-24-43
		c5-29,74-22,109,11c33,31,39,30,39-7c0-29,2-31,28-24c42,10,72,33,72,55c0,18,7,20,61,20c33,0,70,5,81,11c18,10,20,17,14,70
		c-6,50-4,61,14,79c11,11,28,20,38,20c36,0,41,12,32,84c-5,38-14,73-22,77C6239,3344,6191,3341,6147,3326z"/>
	<path class="st0" d="M5493,2892c8-77,4-82-68-82c-56,0-68-32-38-95c15-32,21-36,43-30c64,17,91,17,115,1c31-20,34-74,7-99
		c-22-20-85-22-101-3c-9,11-4,15,28,20c42,6,66,28,57,51c-4,11-22,15-76,15h-71l-48,50c-34,35-56,50-75,50c-14,0-26-3-26-7
		c0-5,28-38,63-75c44-48,72-70,95-74c32-7,32-7,10-18c-18-9-23-20-23-51c0-34,3-40,23-43c27-4,27-8,1-67c-23-53-21-105,6-135
		c20-23,15-26-69-41c-99-17-158-8-206,30c-46,37-95,41-128,11c-27-25-29-44-4-38c10,3,32-6,50-21l31-27l-33,4c-25,3-40-2-55-17
		c-27-27-27-44-1-36c11,3,20,2,20-4c0-5,12-11,28-13l27-3l-30-15c-31-16-51-65-22-54c8,3,18,1,22-5c11-19,59-12,98,14l37,26v-26
		c0-14-5-25-11-25c-5,0-7-4-4-10c3-5,19-10,35-10c31,0,60,30,60,62c0,28,32,35,194,42c174,7,200,16,204,67l3,36l57-9
		c65-11,133-3,177,19c16,9,69,47,117,84c91,73,140,99,185,99c63,0,86-40,98-175c8-89,20-127,48-153c53-49,166-33,336,48
		c57,28,108,50,113,50c23,0-18-43-57-60c-48-20-62-47-44-81c10-20,13-21,23-7c6,8,22,19,36,23c20,6,23,5,13-6c-15-15-16-38-5-57
		c12-18,65,11,73,40c6,23,6,23,17-4c6-16,18-28,26-28c17,0,39,50,34,81c-3,20,1,23,22,20c14-1,28-8,33-15c5-8,10-7,17,4
		c20,31,10,58-37,100c-27,22-60,62-74,88c-17,30-34,48-48,50c-12,2-66-17-119-42c-54-25-109-46-121-46c-22,0-23,3-17,38
		c3,20,6,49,6,63c0,22,7,28,42,38c94,29,152,93,164,185c9,60-29,140-82,176c-33,22-48,25-128,25c-111,0-132-9-248-109
		c-85-73-146-106-196-106c-41,0-98,18-124,39c-23,19-23,20-5,49c21,37,21,54,2,92c-15,30-55,56-108,71l-29,8l4-73
		c4-97,40-158,116-197l52-28l-43-5c-23-3-66-8-94-11l-53-6v33c0,75-98,288-131,288c-10,0-8,17,8,88c8,32-20,28-50-8
		c-14-16-28-30-30-30c-3,0-7,14-10,30c-9,42-41,41-57-2l-11-33l-15,27c-8,15-24,33-36,39C5487,2962,5487,2962,5493,2892z M6610,2695
		c16-9,37-29,45-46c21-39,6-88-36-124c-46-38-74-41-122-15c-28,16-63,25-114,28c-70,4-73,5-51,20c13,8,50,39,83,67
		C6514,2710,6553,2724,6610,2695z"/>
	<path class="st0" d="M5137,2869l6-40l-31,30c-33,34-58,39-88,17c-18-14-18-15-1-21c9-4,17-12,17-18s8-20,17-31c10-12,11-15,3-8
		c-16,14-78,16-100,2c-12-8-11-12,8-30c12-11,22-25,22-30c0-4,14-11,30-15c17-4,30-10,30-13c0-4-13-13-30-20c-36-16-37-25-9-53
		c18-18,29-21,69-16c48,6,49,5,85-39c20-24,57-81,82-127c47-85,75-122,107-139c17-9,18-7,12,29c-4,23-1,57,8,87l15,49l-43,51
		c-24,28-67,87-96,131c-51,79-52,81-45,138c7,69-10,107-49,107C5134,2910,5132,2907,5137,2869z"/>
	<path class="st0" d="M6047,2852c-40-44-3-104,90-146c42-18,42-18,98,5c66,27,95,59,95,104c0,56-78,75-126,30l-27-25l-23,25
		C6126,2876,6071,2879,6047,2852z"/>
	<path class="st0" d="M4862,2534c-49-34-16-96,74-138c57-27,58-27,102-10c62,23,112,69,112,103c0,60-80,83-124,36l-24-26l-30,26
		C4938,2554,4895,2557,4862,2534z"/>
	<path class="st0" d="M6843,2535c-15-10-23-27-23-44c0-34,28-61,98-96l53-27l53,22c64,26,109,69,109,105c0,35-13,46-60,52
		c-32,4-45,0-70-21l-32-27l-14,22C6937,2549,6873,2557,6843,2535z"/>
	<path class="st0" d="M6150,2389c-43-17-89-70-106-121c-15-47-15-97,1-159c6-24,4-27-32-34c-21-4-72-7-114-6c-82,2-111-11-124-56
		c-6-23,8-32,20-13c3,6,21,10,38,10h32l-32-21c-44-28-44-59-1-59c17,0,40,8,51,18c20,17,20,17,3-10c-10-15-16-37-14-49
		c3-26,28-39,28-15c0,10,9,16,24,16c17,0,30,11,46,37c17,29,23,34,31,22c5-8,9-22,9-32c0-14,5-17,23-11c38,11,49,26,45,60
		c-4,31-2,32,48,43c73,17,79,26,63,107c-15,76-9,94,40,109l33,10l-4,67c-2,37-8,72-14,78C6229,2395,6177,2401,6150,2389z"/>
	<path class="st0" d="M9411,4286c-27-44-37-114-21-160c34-104,169-172,267-135c39,14,98,74,118,120c15,33,16,41,4,55
		c-21,25-289,154-321,154C9439,4320,9426,4311,9411,4286z"/>
	<path class="st0" d="M2638,3871c-134-54-213-195-163-291c64-124,261-91,356,59c22,34,29,57,29,94C2860,3852,2754,3918,2638,3871z"
		/>
	<path class="st0" d="M9137,3570c-20-27-37-54-37-59c0-12,154-64,175-59c13,2,6,20-32,82c-26,44-53,81-58,83
		C9179,3619,9158,3598,9137,3570z"/>
	<path class="st0" d="M8258,2689c-27-17-48-37-48-45c0-16,117-154,131-154c19,0,19,27-1,124c-11,54-20,100-20,102
		C8320,2726,8302,2718,8258,2689z"/>
	<path class="st0" d="M4097,1278c-10-118-8-248,2-248c11,0,205,226,209,243c1,7-36,27-96,50c-53,20-100,37-103,37
		S4100,1323,4097,1278z"/>
</g>
</svg>
