<?xml version="1.0" encoding="utf-8"?>
<!-- Generator: Adobe Illustrator 25.1.0, SVG Export Plug-In . SVG Version: 6.00 Build 0)  -->
<svg version="1.1" id="Logo" xmlns="http://www.w3.org/2000/svg" xmlns:xlink="http://www.w3.org/1999/xlink" x="0px" y="0px"
	 viewBox="0 0 600 600" style="enable-background:new 0 0 600 600;" xml:space="preserve">
<style type="text/css">
	.st0{fill:#094183;}
	.st1{fill:#FFFFFF;}
</style>
<g>
	<rect class="st0" width="600" height="600"/>
	<g>
		<g>
			<g>
				<g>
					<g>
						<path class="st1" d="M67.1,399.1c0,0-1,4.1-1,4.6c0,0.5,0.5,0.5,0.5,0.5c0.5,0,0.5-0.5,0.5-0.5l0.5-1c0.5-1,1.5-1,4.1-1
							c0,0,4.6,0,6.2,0c0,0.5,0,18.1,0,18.1c0,4.1,0,7.7,0,9.3c0,1-0.5,2.1-1,2.1h-1c-0.5,0-0.5,0.5-0.5,0.5c0,0.5,0.5,0.5,1,0.5H80
							h0.5h0.5h4.6c1,0,1-0.5,1-0.5c0-0.5,0-0.5-0.5-0.5h-2.1c-1,0-1-1-1.5-2.1c0-1.5,0-5.2,0-9.3c0,0,0-17,0-18.1
							c0.5,0,5.2,0,5.2,0c4.1,0,4.6,1,5.2,2.1v0.5c0,0.5,0,1,0.5,1c0,0,0.5,0,0.5-1v-1.5v-3.6c0,0,0-1-0.5-1h-0.5
							c-0.5,0-1.5,0.5-3.6,0.5h-16h-3.6l-1.5-0.5h-0.5C67.1,398.1,67.1,398.6,67.1,399.1z"/>
					</g>
					<g>
						<path class="st1" d="M125,398.6h-0.5h-0.5h-4.1c0,0-1,0-1,0.5c0,0.5,0.5,0.5,0.5,0.5h1.5c1,0.5,1.5,0.5,1.5,2.1v9.3v1h-18.1
							v-1v-9.3c0-1.5,0.5-2.1,1.5-2.1l0,0h1c0.5,0,0.5,0,0.5-0.5c0-0.5-0.5-0.5-1-0.5h-3.6h-0.5h-0.5h-4.1c-0.5,0-1,0-1,0.5
							c0,0.5,0.5,0.5,0.5,0.5h1.5c1,0.5,1.5,0.5,1.5,2.1v9.3v7.7c0,4.1,0,7.7,0,9.3c0,1-0.5,2.1-1,2.1h-1c-0.5,0-0.5,0.5-0.5,0.5
							c0,0.5,0.5,0.5,1,0.5h3.6h0.5h0.5h4.6c1,0,1-0.5,1-0.5c0-0.5,0-0.5-0.5-0.5h-2.1c-1,0-1-1-1.5-2.1c0-1.5,0-5.2,0-9.3v-4.6
							h18.1v4.6c0,4.1,0,7.7,0,9.3c0,1-0.5,2.1-1,2.1h-1c-0.5,0-0.5,0.5-0.5,0.5c0,0.5,0.5,0.5,1,0.5h3.6h0.5h0.5h4.6
							c1,0,1-0.5,1-0.5c0-0.5,0-0.5-0.5-0.5h-2.1c-1,0-1-1-1.5-2.1c0-1.5,0-5.2,0-9.3V411v-9.3c0-1.5,0.5-2.1,1.5-2.1l0,0h1
							c0.5,0,0.5,0,0.5-0.5c0-0.5-0.5-0.5-1-0.5H125z"/>
					</g>
					<g>
						<path class="st1" d="M152.8,398.1L152.8,398.1l-2.1,0.5H141h-0.5h-4.1c0,0-1,0-1,0.5c0,0.5,0.5,0.5,0.5,0.5h1.5
							c1,0.5,1.5,0.5,1.5,2.1v9.3v7.7c0,4.1,0,7.7,0,9.3c0,1-0.5,2.1-1,2.1h-1c-0.5,0-0.5,0.5-0.5,0.5c0,0.5,0.5,0.5,1,0.5h3.6h0.5
							h1.5h8.8c1.5,0,2.1,0,2.6-1.5c0-1,0.5-4.1,0.5-4.1c0-0.5,0-1-0.5-1c-0.5,0-0.5,0.5-0.5,1c-0.5,1.5-0.5,2.6-1.5,3.1
							c-1,0.5-3.1,0.5-4.1,0.5c-4.1,0-4.6-0.5-4.6-3.1v-5.7v-2.1v-3.6h6.2c1.5,0,2.1,0.5,2.1,1v1.5c0,0.5,0.5,0.5,0.5,0.5
							c0.5,0,0.5-0.5,0.5-1v-2.6l0.5-2.6c0-0.5-0.5-0.5-0.5-0.5l-1,0.5c-0.5,1-1,1.5-2.1,1.5H143v-11.9c0.5,0,5.2,0,5.7,0
							c2.6,0.5,2.6,0.5,2.6,1v1.5c0,1,0.5,1,0.5,1s0.5,0,0.5-0.5v-2.1v-0.5l0.5-1.5v-0.5C153.4,398.1,153.4,398.1,152.8,398.1
							L152.8,398.1z"/>
					</g>
					<g>
						<path class="st1" d="M201.9,398.6h-0.5h-0.5h-4.1c0,0-1,0-1,0.5c0,0.5,0.5,0.5,0.5,0.5h1.5c1,0.5,1.5,1,1.5,2.1v9.3v5.2
							c0,5.2-0.5,8.3-2.6,10.3c-1.5,2.1-4.1,3.1-6.7,3.1s-4.1-0.5-6.2-2.1c-1.5-1.5-3.1-4.1-3.1-10.3V411v-9.3
							c0-1.5,0.5-2.1,1.5-2.1h1c0.5,0,0.5,0,0.5-0.5c0-0.5-0.5-0.5-1-0.5h-3.1h-1h-1h-4.1c0,0-1,0-1,0.5c0,0.5,0.5,0.5,0.5,0.5h1.5
							c1,0,1.5,0.5,1.5,2.1v9.3v6.2c0,7.2,2.1,9.8,3.6,11.4c3.1,2.6,6.7,3.1,9.3,3.1s5.7-0.5,9.3-3.1c3.6-3.1,4.1-8.8,4.1-12.9V411
							v-9.3c0-1.5,0.5-2.1,1.5-2.1h1c0.5,0,0.5,0,0.5-0.5c0-0.5-0.5-0.5-1-0.5L201.9,398.6z"/>
					</g>
					<g>
						<path class="st1" d="M213.3,400.7v24.8c0,3.6,0,5.2-1,5.2h-1.5c-0.5,0-0.5,0.5-0.5,0.5c0,0.5,0.5,0.5,1,0.5h3.6h0.5h0.5h4.1
							c0.5,0,1,0,1-0.5c0-0.5,0-0.5-0.5-0.5h-2.1c-1-0.5-1.5-1-1.5-4.6c0,0-0.5-18.1-0.5-19.6c1,1,10.8,11.9,10.8,11.9
							c4.6,5.2,10.8,11.4,11.4,11.9c2.6,2.6,3.1,3.1,3.6,3.1c0.5,0,0.5-0.5,0.5-3.6v-25.3c0-2.6,0-3.1,1.5-3.6h1c0.5,0,1-0.5,1-0.5
							c0-0.5-0.5-0.5-1-0.5h-3.1h-1h-1h-3.6c-0.5,0-1,0-1,0.5c0,0.5,0,0.5,0.5,0.5h2.1c1,0.5,1.5,1,1.5,3.6c0,0,0.5,17,0.5,21.2
							c-1-1-3.1-3.6-3.1-3.6l-6.7-7.2l-13.9-15c-0.5-0.5-1-1-1.5-1C213.3,398.1,213.3,399.1,213.3,400.7z"/>
					</g>
					<g>
						<path class="st1" d="M257.7,398.6h-0.5h-0.5H253c0,0-1,0-1,0.5c0,0.5,0.5,0.5,0.5,0.5h1c0.5,0,1,0.5,1,2.1v9.3v7.7
							c0,4.1,0,7.7,0,9.3c0,1.5-0.5,2.1-1,2.1h-1c-0.5,0-0.5,0.5-0.5,0.5c0,0.5,0.5,0.5,1,0.5h3.6h0.5h0.5h4.6c1,0,1-0.5,1-0.5
							c0-0.5,0-0.5-0.5-0.5h-2.1c-1,0-1-1-1.5-2.1c0-1.5,0-5.2,0-9.3V411v-9.3c0-1.5,0.5-2.1,1.5-2.1h1c0.5,0,0.5,0,0.5-0.5
							c0-0.5-1-0.5-1-0.5H257.7z"/>
					</g>
					<g>
						<path class="st1" d="M296.4,398.6h-0.5h-1h-3.1c-0.5,0-1,0-1,0.5c0,0,0,0.5,1,0.5h1.5c0.5,0,0.5,0.5,0.5,0.5l-0.5,1.5
							c-1,3.1-6.2,17-8.8,23.2c-0.5-1.5-8.3-21.2-8.3-21.2c-0.5-1.5-1-3.1-1-3.6l0,0c0,0,0-0.5,0.5-0.5h1.5c0.5,0,0.5-0.5,0.5-0.5
							c0-0.5-1-0.5-1.5-0.5h-3.1h-1h-1H267c-0.5,0-1.5,0-1.5,0.5c0,0.5,0,0.5,0.5,0.5h1.5c1.5,0.5,2.1,0.5,3.1,3.1l10.8,26.9
							c1,2.1,1,2.6,1.5,2.6c0.5,0,0.5-0.5,1.5-2.1l0.5-1.5l5.2-12.4l2.6-6.2l2.6-6.2c1-3.1,1.5-3.6,2.1-4.1c0.5-0.5,1.5-0.5,2.1-0.5
							c0.5,0,1-0.5,1-0.5c0-0.5-0.5-0.5-1-0.5L296.4,398.6z"/>
					</g>
					<g>
						<path class="st1" d="M320.1,398.1L320.1,398.1l-2.1,0.5h-9.8h-0.5h-4.1c0,0-1,0-1,0.5c0,0.5,0.5,0.5,0.5,0.5h1.5
							c1,0,1.5,0.5,1.5,2.1v9.3v7.7c0,4.1,0,7.7,0,9.3c0,1-0.5,2.1-1,2.1h-1c-0.5,0-0.5,0.5-0.5,0.5c0,0.5,0.5,0.5,1,0.5h3.6h0.5
							h1.5h8.8c1.5,0,2.1,0,2.6-1.5c0-1,0.5-4.1,0.5-4.1c0-0.5,0-1-0.5-1c-0.5,0-0.5,0.5-0.5,1c-0.5,1.5-0.5,2.6-1.5,3.1
							c-1,0.5-3.1,0.5-4.1,0.5c-4.1,0-4.6-0.5-4.6-3.1v-5.7v-2.1v-3.6h6.2c1.5,0,2.1,1,2.1,1v1.5c0,0.5,0,0.5,0.5,0.5
							c0.5,0,0.5-0.5,0.5-1v-2.6l0.5-2.6c0-0.5-0.5-0.5-0.5-0.5l-1,0.5c-0.5,0.5-1,0.5-2.1,0.5h-6.7v-11.9h5.7c2.6,0,2.6,1,2.6,1
							v1.5c0,1,0.5,1,0.5,1s0.5,0,0.5-0.5v-2.1v-1L320.1,398.1C320.7,398.1,320.7,398.1,320.1,398.1L320.1,398.1z"/>
					</g>
					<path class="st1" d="M335.6,415.7C335.6,415.1,335.6,415.1,335.6,415.7v-14.5l0,0c0.5,0,1.5,0,2.6,0c4.6,0,7.2,3.1,7.2,8.3
						c0,3.1-1,5.2-2.6,6.2c-1,0.5-2.1,0.5-3.1,0.5C337.7,416.2,336.1,415.7,335.6,415.7z M335.1,398.6h-1.5H333h-4.1c0,0-1,0-1,0.5
						c0,0.5,0.5,0.5,0.5,0.5h1.5c1,0,1.5,0.5,1.5,2.1v9.3v7.7c0,4.1,0,7.7,0,9.3c0,1-0.5,2.1-1,2.1h-1c-0.5,0-0.5,0.5-0.5,0.5
						c0,0.5,0.5,0.5,1,0.5h4.1h0.5h4.6c1,0,1-0.5,1-0.5c0-0.5,0-0.5-0.5-0.5h-2.1c-1,0-1-1-1.5-2.1c0-1.5,0-5.2,0-9.3v-1h5.2h0.5
						l1.5,2.1l3.1,4.1l0.5,0.5c2.1,3.1,3.6,4.6,5.2,5.7c1,0.5,2.6,1,4.6,1h3.1c0.5,0,1.5,0,1.5-0.5c0-0.5-0.5-0.5-0.5-0.5h-1.5
						c-1,0-3.1-0.5-5.2-3.1c-2.1-2.6-4.6-5.7-7.7-9.8c0,0-0.5-0.5-1-1c3.6-3.1,5.2-6.7,5.2-9.8c0-3.1-2.1-5.2-3.1-6.2
						c-2.6-1.5-5.7-2.1-8.3-2.1L335.1,398.6z"/>
					<g>
						<path class="st1" d="M363,405.9c0,3.1,1,5.7,5.7,9.8l2.1,1.5c3.6,3.1,4.6,4.6,4.6,7.7c0,2.6-2.1,5.2-5.7,5.2
							c-1.5,0-5.2-0.5-6.2-4.1v-1.5c0,0,0-1-0.5-1c-0.5,0-0.5,0.5-0.5,1v0.5v4.1c0,1,0,1.5,1,2.1l0,0c1.5,1,3.6,1,5.7,1
							c2.6,0,5.2-0.5,6.7-2.1c2.6-2.1,3.6-5.2,3.6-7.2c0-3.6-1-6.2-6.2-10.3l-1-1c-4.1-3.6-5.2-4.6-5.2-7.2s2.1-4.6,5.2-4.6
							c3.6,0,4.6,1.5,5.2,2.1c0,0.5,0.5,1.5,0.5,2.1c0,0.5,0,1,0.5,1c0.5,0,0.5-1,0.5-1.5v-4.1v-0.5c0-0.5-0.5-0.5-0.5-0.5h-1.5
							c-1-0.5-2.6-0.5-4.1-0.5C366.6,398.1,363,401.2,363,405.9z"/>
					</g>
					<g>
						<path class="st1" d="M391.9,398.6h-0.5h-0.5h-3.6c-0.5,0-1,0-1,0.5c0,0.5,0.5,0.5,0.5,0.5h1c0.5,0,1,0.5,1,2.1v9.3v7.7
							c0,4.1,0,7.7,0,9.3c0,1-0.5,2.1-1,2.1h-1c-0.5,0-0.5,0.5-0.5,0.5c0,0.5,0.5,0.5,1,0.5h3.6h0.5h0.5h4.6c1,0,1-0.5,1-0.5
							c0-0.5,0-0.5-0.5-0.5H395c-1,0-1-1-1.5-2.1c0-1.5,0-5.2,0-9.3V411v-9.3c0-1.5,0.5-2.1,1.5-2.1l0,0h1c0.5,0,0.5,0,0.5-0.5
							c0-0.5-0.5-0.5-1-0.5H391.9z"/>
					</g>
					<g>
						<path class="st1" d="M401.7,399.1c0,0-1,4.1-1,4.6c0,0.5,0.5,0.5,0.5,0.5c0.5,0,0.5-0.5,0.5-0.5l0.5-1c0.5-1,1.5-1,4.1-1
							c0,0,4.6,0,6.2,0c0,0.5,0,18.1,0,18.1c0,4.1,0,7.7,0,9.3c0,1-0.5,2.1-1,2.1h-1c-0.5,0-0.5,0.5-0.5,0.5c0,0.5,0.5,0.5,1,0.5
							h3.6h0.5h0.5h4.6c1,0,1-0.5,1-0.5c0-0.5,0-0.5-0.5-0.5h-2.1c-1,0-1-1-1.5-2.1c0-1.5,0-5.2,0-9.3c0,0,0-17,0-18.1
							c0.5,0,5.2,0,5.2,0c4.1,0,4.6,1,5.2,2.1v0.5c0,0.5,0,1,0.5,1c0,0,0.5,0,0.5-1v-1.5v-3.6c0,0,0-1-0.5-1h-0.5
							c-0.5,0-1.5,0.5-3.6,0.5h-16h-3.6l-1.5-0.5h-0.5C401.7,398.1,401.7,398.6,401.7,399.1z"/>
					</g>
					<g>
						<path class="st1" d="M457.5,398.6h-1h-0.5h-2.1c-1,0-1,0.5-1,0.5c0,0.5,0.5,0.5,1,0.5c0,0,0.5,0,0.5,1c0,0.5,0,1.5-0.5,2.1
							c-0.5,1-5.7,9.8-6.7,12.4c-1.5-2.6-7.2-11.9-7.7-12.9c-0.5-0.5-0.5-1-0.5-1.5c0,0,0-0.5,0.5-0.5l0,0c0.5,0,0.5,0,0.5-0.5
							c0-0.5-0.5-0.5-1-0.5h-3.1h-0.5h-1h-3.1c-1,0-1,0.5-1,0.5c0,0.5,0.5,0.5,0.5,0.5c0.5,0,1,0,1.5,0.5c1,0.5,2.1,1.5,3.1,3.1
							c1.5,2.1,7.2,11.9,7.7,12.4c0.5,1,1,2.1,1,4.6v3.6v4.1c0,1-0.5,2.1-1,2.1h-1c-0.5,0-0.5,0.5-0.5,0.5c0,0.5,0.5,0.5,1,0.5h3.6
							h0.5h0.5h4.6c1,0,1-0.5,1-0.5c0-0.5,0-0.5-0.5-0.5h-2.1c-1,0-1.5-0.5-1.5-2.1v-4.1v-3.6c0-1.5,0-2.6,0.5-4.1
							c0.5-1.5,6.7-11.9,8.3-13.4c1-1,1.5-1.5,2.1-2.1c0.5-0.5,1.5-0.5,1.5-0.5c0.5,0,1-0.5,1-0.5c0-0.5,0-0.5-1-0.5L457.5,398.6z"
							/>
					</g>
					<path class="st1" d="M480.7,414.1c0-8.8,4.6-13.9,12.4-13.9c6.2,0,12.9,4.6,12.9,15.5c0,13.9-9.8,14.5-11.4,14.5
						C486.4,430.1,480.7,423.4,480.7,414.1z M476.1,415.1c0,8.3,5.2,17.6,17,17.6c10.3,0,17.6-7.7,17.6-18.1
						c0-9.8-6.7-16.5-17.6-16.5C480.7,398.1,476.1,408.4,476.1,415.1z"/>
					<g>
						<path class="st1" d="M533.4,398.6L533.4,398.6h-1.5h-0.5h-10.8H520h-4.1c0,0-1,0-1,0.5c0,0.5,0.5,0.5,0.5,0.5h1.5
							c1,0,1.5,0.5,1.5,2.1v9.3v7.7c0,4.1,0,7.7,0,9.3c0,1-0.5,2.1-1,2.1h-1c-0.5,0-0.5,0.5-0.5,0.5c0,0.5,0.5,0.5,1,0.5h3.6h0.5
							h0.5h4.6c1,0,1-0.5,1-0.5c0-0.5,0-0.5-0.5-0.5h-2.1c-1,0-1-1-1.5-2.1c0-1.5,0-5.2,0-9.3v-3.6c1.5,0,5.7,0,6.7,0
							c1,0,1.5,1,2.1,1.5v1l0,0c0,0.5,0,0.5,0.5,0.5c0.5,0,0.5-0.5,0.5-1v-3.1l0.5-2.6c0-0.5-0.5-0.5-0.5-0.5c-0.5,0-0.5,0-0.5,0.5
							c-0.5,0.5-0.5,0.5-2.1,0.5h-2.1h-5.7v-11.9h6.7c1.5,0,2.6,0.5,2.6,1l0.5,1.5c0,1,0.5,1,0.5,1s0.5,0,0.5-0.5v-2.1v-0.5v-1.5
							V398.6C534.4,398.6,533.9,398.1,533.4,398.6L533.4,398.6z"/>
					</g>
				</g>
				<g>
					<rect x="71.3" y="457" class="st1" width="460.6" height="2.6"/>
				</g>
				<g>
					<g>
						<path class="st1" d="M117.7,484.3c0,0-16.5,34.6-18.1,37.7c-0.5-0.5-18.1-37.2-18.1-37.2c-1-1.5-1-2.1-2.1-2.1
							c-0.5,0-1,0.5-1.5,2.1l-6.7,43.4c-0.5,2.6-1,4.6-2.6,5.2h-2.1c-0.5,0-1,0-1,0.5c0,1,1,1,1.5,1h4.1h2.6h2.1h4.6
							c1,0,1.5,0,1.5-1c0-0.5-0.5-0.5-1-0.5l-2.6-0.5c-1-0.5-2.1-1-2.1-2.1v-3.1c0,0,3.1-23.2,3.6-26.3c0.5,1,3.1,6.7,3.1,6.7
							l3.6,7.7c1,2.1,6.2,11.9,7.7,15v0.5c1,2.1,1.5,3.1,2.1,3.1c0.5,0,1-0.5,2.6-3.6l14.5-30.5l0,0c0,0.5,4.1,29.4,4.1,29.4
							c0,0.5,0,1,0,1.5c0,1,0,1-0.5,1c-0.5,0-1,0.5-1,1l0,0c0,0.5,0.5,1,2.1,1c2.6,0,11.9,0.5,13.4,0.5c1,0,2.1-0.5,2.1-1
							s-1-0.5-1-0.5c-1,0-2.1,0-4.1-0.5c-2.1-0.5-2.6-2.6-3.1-6.7l-6.2-41.3c0-1.5-0.5-2.1-1.5-2.1
							C118.8,482.8,118.2,483.3,117.7,484.3z"/>
					</g>
					<g>
						<path class="st1" d="M169.9,483.8L169.9,483.8l-3.1,0.5c-1,0-11.9,0-16.5,0h-3.6h-1h-5.2c-1,0-1.5,0-1.5,0.5
							c0,0.5,1,0.5,1.5,0.5h2.6c2.1,0.5,2.6,1.5,2.6,3.6c0,2.1,0,4.1,0,13.9v11.9c0,6.2,0,11.4-0.5,13.9c-0.5,2.1-0.5,3.1-1.5,3.6
							l-2.6,0.5c-0.5,0-1,0-1,0.5s0.5,1,1.5,1h4.6h3.6h6.7h2.1h9.8c2.6,0,3.1,0,3.6-2.1c0.5-1.5,1-5.7,1-7.2c0-0.5,0-1.5-0.5-1.5
							s-1,0.5-1,1c-0.5,2.6-1,4.1-3.1,4.6c-1.5,1-4.6,1-6.2,1c-6.7,0-7.7-1-7.7-5.7v-7.7v-2.6v-5.2c0-0.5,0-0.5,0-0.5
							c1.5,0,8.3,0,9.3,0c2.1,0,3.1,1,3.6,2.6v1.5v0.5c0,0.5,0.5,0.5,0.5,0.5c0.5,0,0.5-1,0.5-1.5v-2.1v-2.6l0.5-4.1v-0.5
							c0-0.5,0-0.5-0.5-0.5s-0.5,0.5-1,1c0.5,2.1-0.5,2.6-2.1,2.6c-1,0-4.6,0-10.8,0c0,0-0.5,0-0.5-0.5v-17c0-0.5,0-0.5,0.5-0.5
							c1,0,8.3,0,9.3,0.5c3.1,0.5,4.1,1,4.1,2.1c0.5,1,0.5,2.1,0.5,2.6c0,0.5,0,1,0.5,1s1-0.5,1-1V490v-1.5l0.5-3.6v-0.5
							C170.4,484.3,170.4,483.8,169.9,483.8L169.9,483.8z"/>
					</g>
					<g>
						<path class="st1" d="M195.7,484.3h-3.6h-3.6h-5.7c-1,0-1.5,0-1.5,0.5c0,0.5,1,0.5,1.5,0.5h2.1c2.1,0.5,2.6,1.5,2.6,3.6
							c0,2.1,0,4.1,0,13.9v11.9c0,6.2,0,11.4-0.5,13.9c-0.5,2.1-0.5,3.1-1.5,3.6l-2.6,0.5c-0.5,0-1,0-1,0.5c0,1,1,1,1.5,1h4.6h3.6
							h10.3h8.8c3.6,0,4.1-0.5,4.1-2.1c0.5-2.1,1-6.7,1-7.7c0-0.5,0-1.5-0.5-1.5s-1,0.5-1,1c0,1-1,3.1-1.5,4.1
							c-1.5,1.5-4.1,2.1-7.7,2.1c-5.2,0-6.7-0.5-7.7-1.5c-1.5-1-1.5-5.7-1.5-14.5v-11.9c0-10.3,0-11.9,0-13.9c0-2.6,0.5-3.1,2.6-3.6
							h2.6c0.5,0,1.5,0,1.5-0.5c0-0.5-0.5-0.5-1.5-0.5L195.7,484.3z"/>
					</g>
					<path class="st1" d="M236.5,484.3h-4.6h-2.6h-6.7c-1,0-1.5,0-1.5,0.5c0,0.5,1,0.5,1.5,0.5h2.6c2.1,0.5,2.6,1.5,2.6,3.6
						c0,2.1,0,4.1,0,13.9v11.9c0,6.2,0,11.4-0.5,13.9c0,1.5-0.5,3.1-1.5,3.6l-2.6,0.5c-0.5,0-1,0-1,0.5c0,1,1,1,1.5,1h4.6h3.6h5.2
						h2.6h2.1c12.4,0,18.1-7.2,18.1-14.5c0-7.7-6.2-12.4-11.9-14.5c4.1-3.1,6.7-6.7,6.7-11.4c0-2.6-1-10.3-14.5-10.3L236.5,484.3z
						 M239.1,487.4c6.2,0,8.3,6.2,8.3,10.3c0,3.1-1,5.7-2.6,6.7c-1,1-2.6,1-4.6,1H237c0,0-0.5,0-0.5-0.5v-16.5c0-0.5,0-1,0.5-1
						C236.5,487.4,239.1,487.4,239.1,487.4z M238.6,531.3c-2.1-1-2.1-2.1-2.1-6.2v-16c0-0.5,0-0.5,0-0.5h3.1c2.6,0,4.1,0.5,5.7,1.5
						l0,0c5.7,4.1,6.2,10.3,6.2,12.9c0,7.7-6.7,8.3-7.7,8.3C241.7,531.8,240.1,531.8,238.6,531.3z"/>
					<path class="st1" d="M266.4,509.6c0,12.9,8.3,26.3,26.9,26.3c16.5,0,27.9-11.4,27.9-27.4c0-15.5-10.3-25.3-26.9-25.3
						C275.2,483.3,266.4,497.2,266.4,509.6z M275.7,507.6c0-18.1,10.3-20.7,16-20.7c11.4,0,19.6,9.8,19.6,24.3
						c0,19.1-10.8,21.2-15.5,21.2C284.5,532.4,275.7,522,275.7,507.6z"/>
					<g>
						<path class="st1" d="M372.3,484.3h-2.1h-7.7c-0.5,0-1.5,0-1.5,0.5c0,0.5,1,0.5,1.5,0.5h2.6c2.1,0.5,2.6,1.5,2.6,3.6
							c0,2.1,0,4.1,0,13.9v8.3c0,7.2-0.5,12.9-3.6,16.5c-3.1,3.1-7.2,3.6-9.3,3.6c-2.1,0-5.2-0.5-8.3-2.6c-2.6-2.1-5.2-5.7-5.2-16.5
							v-9.3c0-10.3,0-11.9,0-13.9c0-2.6,0.5-3.1,2.6-3.6h2.1c0.5,0,1,0,1-0.5c0-0.5-1-0.5-1.5-0.5h-4.6h-3.1h-3.6h-6.2
							c-1,0-1.5,0-1.5,0.5c0,0.5,1,0.5,1.5,0.5h2.6c2.1,0.5,2.6,1.5,2.6,3.6c0,2.1,0,4.1,0,13.9v9.8c0,8.3,2.1,13.9,6.2,17.6
							c5.2,4.6,11.9,4.6,15,4.6c4.1,0,8.8-0.5,13.9-4.6c5.7-4.6,6.2-12.4,6.2-20.1v-7.2c0-10.3,0-11.9,0-13.9c0-2.6,0.5-3.1,2.6-3.6
							h2.1c0.5,0,1.5,0,1.5-0.5c0-0.5-1-0.5-1.5-0.5L372.3,484.3z"/>
					</g>
					<path class="st1" d="M401.2,484.3h-4.6H394h-6.7c-1,0-1.5,0-1.5,0.5c0,0.5,1,0.5,1.5,0.5h2.6c2.1,0.5,2.6,1.5,2.6,3.6
						c0,2.1,0,4.1,0,13.9v11.9c0,6.2,0,11.4-0.5,13.9c0,1.5-0.5,3.1-1.5,3.6l-2.6,0.5c-0.5,0-1,0-1,0.5c0,1,1,1,1.5,1h5.7h2.6h2.1
						h7.7c0.5,0,1.5,0,1.5-1c0,0,0-0.5-1-0.5l-3.1-0.5c-1.5,0-2.1-1.5-2.6-3.6c-0.5-2.6-0.5-8.3-0.5-14.5v-1c0-0.5,0-0.5,0.5-0.5
						h5.7c0.5,0,1,0,1,0.5l3.1,4.6l3.6,4.6c4.1,5.2,6.2,8.3,9.3,9.8c2.1,1,3.6,1,7.2,1h6.2c0.5,0,1.5,0,1.5-1c0,0,0-0.5-1-0.5h-2.1
						c-1,0-3.6-0.5-7.2-4.6c-3.6-3.6-7.2-8.3-11.9-14.5l-2.1-2.6c6.2-5.2,8.8-9.3,8.8-15c0-4.6-3.1-8.3-4.6-9.3
						c-3.6-2.6-8.3-3.1-12.4-3.1L401.2,484.3z M401.2,510.2c-0.5,0-0.5-0.5-0.5-1V489c0-0.5,0-0.5,0.5-1c0.5,0,1.5-0.5,3.6-0.5
						c3.6,0,9.8,2.6,9.8,11.9c0,6.2-2.6,8.8-3.6,9.8c-1,1-2.1,1-4.6,1C404.3,510.7,402.2,510.7,401.2,510.2z"/>
					<g>
						<path class="st1" d="M446.6,485.9l-0.5,39.2c0,5.7-0.5,7.7-2.1,8.3c-1,0.5-2.1,0.5-3.1,0.5c-0.5,0-1,0-1,0.5c0,1,1,1,1.5,1
							h6.2h1h2.1h6.2c0.5,0,1.5,0,1.5-1c0-0.5-1-0.5-1.5-0.5c-1,0-2.1,0-3.6-0.5c-1.5-0.5-2.1-2.6-2.1-7.2c0,0-0.5-26.9-0.5-27.9
							c0.5,0.5,1.5,1.5,1.5,1.5c2.6,3.1,8.8,9.3,14.5,15l8.8,8.8l10.8,10.8c0.5,0.5,1.5,1.5,2.6,1.5s1-1,1-2.1l0.5-41.8
							c0-3.6,0.5-5.2,2.6-5.7h2.1c1,0,1.5-0.5,1.5-0.5c0-0.5-1-0.5-1.5-0.5H490h-1h-2.6h-5.7c-1,0-2.1,0-2.1,0.5
							c0,0.5,0.5,0.5,1,0.5c1,0,2.6,0,3.6,0.5c1.5,0.5,2.1,1.5,2.1,5.7c0,0,0.5,27.9,0.5,29.9l0,0l0,0l-4.6-5.2l-9.8-10.3
							c-10.3-10.3-20.7-21.2-20.7-21.2l-0.5-0.5c-1-1-1.5-1.5-2.1-1.5C446.6,483.3,446.6,484.3,446.6,485.9z"/>
					</g>
					<g>
						<path class="st1" d="M530.3,483.8L530.3,483.8c-0.5,0-3.1,0.5-3.1,0.5c-1,0-11.9,0-16.5,0h-3.6h-1h-5.2c-1,0-1.5,0-1.5,0.5
							c0,0.5,1,0.5,1.5,0.5h2.6c2.1,0.5,2.6,1.5,2.6,3.6c0,2.1,0,4.1,0,13.9v11.9c0,6.2,0,11.4-0.5,13.9c0,1.5-0.5,3.1-1.5,3.6
							l-2.6,0.5c-0.5,0-1,0-1,0.5c0,1,1,1,1.5,1h4.6h3.6h6.7h2.1h9.8c2.6,0,3.1,0,3.6-2.1c0.5-1.5,1-5.7,1-7.2c0-0.5,0-1.5-0.5-1.5
							c-0.5,0-1,0.5-1,1c-0.5,2.6-1,4.1-3.1,4.6c-1.5,1-4.6,1-6.2,1c-6.7,0-7.7-1-7.7-5.7v-7.7v-2.6v-5.2c0-0.5,0-0.5,0-0.5
							c1.5,0,8.3,0,9.3,0c2.1,0,3.1,1,3.6,2.6v1.5v0.5c0,0.5,0.5,0.5,0.5,0.5c0.5,0,0.5-1,0.5-1.5v-2.1v-2.1l0.5-4.1v-0.5
							c0-0.5,0-0.5-0.5-0.5s-0.5,0.5-1,1c-0.5,0.5-1.5,1-3.1,1c-1,0-4.6,0-10.8,0c0,0-0.5,0-0.5-0.5v-17c0-0.5,0-0.5,0.5-0.5
							c1,0,8.3,0,9.3,0.5c3.1,0.5,4.1,1,4.1,2.1c0.5,1,0.5,2.1,0.5,2.6c0,0.5,0,1,0.5,1s1-0.5,1-1V489v-1.5l0.5-3.6v-0.5
							c0-0.5,0-0.5-0.5-0.5L530.3,483.8z"/>
					</g>
				</g>
			</g>
		</g>
		<path class="st1" d="M299.5,361.4c-11.4-11.4-24.8-17-38.2-22.7l-1-0.5l-7.2-2.6c-1-0.5-1.5-0.5-1.5-0.5l-1-0.5l0,0
			c-43.4-15.5-70.2-51.1-71.3-96.6c0-2.1,0-3.6,0-5.7c0-6.7,0.5-13.9,1-21.2c0.5-4.1,2.1-14.5,2.1-14.5l3.6-22.7
			c0.5-2.6,0.5-3.6,0.5-4.1l0.5-1.5l0,0c0-3.1,0.5-7.2,0.5-10.8c0-16-4.1-25.8-12.9-32.5l0,0l-1.5-1l19.6-25.3l-0.5-0.5
			c-1.5-2.1-2.6-4.1-2.6-6.2l-0.5-3.1l2.6,1c1.5,0.5,3.6,1,5.2,1.5h1l19.1-25.3l1,1.5c3.6,6.2,10.3,9.3,19.6,9.3
			c4.1,0,8.3-0.5,14.5-1.5l19.1-3.1c13.4-1.5,15.5-2.1,16-2.1h1c3.6-0.5,7.7-0.5,11.9-0.5c8.3,0,17.6,0.5,26.9,2.1l13.4,2.1l17,2.6
			c2.6,0,5.2,0.5,8.3,0.5c7.7,0,12.9-1.5,16.5-5.2c1-0.5,1.5-1.5,2.1-2.6l2.1-2.6l17.6,23.2l1-0.5c3.1-1,6.7-2.6,11.9-4.1
			c0,0,2.6-1,3.6-1c6.7-2.6,11.9-4.1,16-4.6l3.6-0.5l-1.5,3.1c-1,2.6-2.1,4.6-3.6,6.7l-2.1,3.1l3.6-1.5c0,0,2.6-1,4.6-2.1l-2.1,4.6
			c-1,2.6-5.7,9.8-10.3,12.9l-1,0.5l0.5,1l0,0c0.5,0.5,0.5,2.1,0.5,3.1c0,1,0,2.6-0.5,3.1c-0.5,1-1,2.6-2.6,3.6l-0.5,0.5l4.6,6.2
			l-1,0.5c-9.3,6.7-13.4,17.6-13.4,32.5v0.5c0,0.5,0,1.5,0,2.6c0,3.6,0,7.2,0.5,11.4l2.6,14.5c1.5,9.8,2.6,15,2.6,15
			c0.5,4.1,1.5,15.5,1.5,16.5c0.5,13.9,0.5,15,0.5,15c0,0.5,0,1,0,1.5c0,24.3-8.3,49.1-21.2,64l0,1.5c-8.3,10.3-20.1,24.8-52.2,35.6
			c-18.1,6.7-33.6,12.9-47.5,24.8l0,0l-0.5,0.5l0,1l-1,1L299.5,361.4z"/>
		<path class="st0" d="M425,122.4c0-0.5-0.5-0.5-0.5-0.5C424.4,121.9,425,122.4,425,122.4z M425,122.4L425,122.4L425,122.4z
			 M436.3,89.3c1-2.1,2.6-4.1,3.6-6.7l2.6-5.2l-5.7,1c-4.6,1-9.8,2.6-16.5,5.2c-1,0.5-2.1,0.5-3.6,1c-4.6,1.5-8.8,3.1-11.9,4.1
			l-18.1-23.8l-3.1,3.6c-0.5,1-1,1.5-2.1,2.1c-3.6,3.1-8.3,5.2-15.5,5.2c-2.6,0-5.7,0-7.7-0.5l-17-2.6l-13.4-2.1
			c-9.3-1.5-18.6-2.1-26.9-2.1c-4.6,0-9.3,0-13.4,0.5l0,0c-0.5,0-2.6,0.5-16,2.1l-19.1,3.1c-5.7,1-10.3,1.5-13.9,1.5
			c-9.3,0-15.5-2.6-18.6-8.3l-3.1-3.6l-20.1,25.8c-1.5-0.5-3.6-1-5.2-1.5l-4.6-1.5l0.5,4.6c0.5,2.6,1,4.6,3.1,6.7l-19.1,25.8
			l2.1,2.1l0,0c8.8,6.2,12.4,16,12.4,31.5c0,4.1-0.5,8.8-0.5,11.9l0,0c0,0.5-0.5,1.5-0.5,4.1l-4.1,23.2c0,0-1,9.8-2.1,14.5
			c-1,7.2-1,14.5-1,21.2c0,2.1,0,4.1,0,5.7c1,46,28.4,82.6,73.3,97.6l0,0c0.5,0,1,0.5,1.5,0.5l7.2,2.6l1,0.5
			c13.4,5.7,26.9,11.4,37.7,22.7l1.5,1.5l2.1-2.1l0.5-0.5l0.5-0.5c13.4-11.9,29.4-18.1,47-24.8c32-11.4,43.9-25.8,52.7-36.1V299
			c13.4-15.5,21.7-40.3,21.7-65.1c0-0.5,0-1,0-1.5c0,0,0,0-0.5-15.5c0,0-1-10.8-1.5-16.5c0,0,0,0-2.6-15l-2.6-14.5
			c-0.5-4.1-0.5-7.7-0.5-10.8c0-1,0-1.5,0-2.6V157c0-14.5,4.1-24.8,12.9-31.5l2.1-1.5l-4.6-6.2c1.5-1.5,2.1-3.1,3.1-4.1
			c1-2.1,1-5.2,0-7.2l0,0c4.6-3.1,9.3-10.8,10.3-13.4l3.6-7.2C444.1,86.2,436.3,89.3,436.3,89.3z M201.4,91.4l15.5-20.1
			c5.7,7.7,14.5,8.3,23.2,8.8l5.7-0.5l25.3-4.1l17-2.1c16.5-2.1,33,0.5,48.5,3.1l22.2,3.6c9.3,0.5,19.6,0.5,26.3-6.7l1-1.5
			l14.5,18.6l0,0c-0.5,0-0.5,0.5-1.5,0.5c-2.1,0.5-4.1,1.5-5.7,2.1c0,0-0.5,0-0.5,0.5l0,0l-7.2-9.8c-7.7,4.1-17,4.6-26.3,4.1
			L346,86.2l-16-2.6l-17-2.1c-10.3-1-21.2-0.5-31,0.5l-14.5,2.1l-24.3,3.6c-9.3,0.5-18.1-0.5-25.3-4.6l-7.2,9.8
			c-1,0-2.1-0.5-3.1-0.5C205.5,91.9,203.4,91.4,201.4,91.4z M382.6,135.8c0,2.6-3.1,3.1-3.6,4.6l-1,1c1,0,2.6-0.5,3.1-1.5
			c2.1-0.5,7.7-2.1,8.3-0.5c0.5,1-0.5,2.1-2.1,3.6c-1.5,1.5-8.3,4.1-12.4,3.1c-2.6,0-5.2,0.5-7.2,1l-12.4,3.6
			c-4.1,1-9.3,1.5-13.9,0.5c-6.7-1-13.4-3.1-21.2-2.6c-1,0-2.1,0.5-2.6,1.5c0.5,0,2.1-0.5,2.6,0c0,1,0,6.2-2.1,8.3
			c-0.5-0.5-1-1.5-1-2.6c0-1-3.1-13.9,2.6-18.1c3.6-1,7.7,1,9.3,1.5c4.6,2.6,11.9,3.6,18.1,6.2c2.6-0.5,5.2-1,7.7-1.5l17.6-2.6
			c3.1,0.5,3.6-3.6,6.2-3.6C380.6,137.9,381.6,136.3,382.6,135.8C382.1,135.3,382.6,135.3,382.6,135.8z M236,144.1
			c0.5-0.5,3.1-1,5.2-1c2.1,0.5,6.2,1,9.3,3.6c6.2,2.1,10.8,6.2,17,8.3c0-0.5-0.5-1-1-1.5c3.6-3.1,7.7-5.7,12.4-7.2
			c2.6-3.1,6.7-6.7,10.8-5.7h1c0,0,0,1,0,1.5c0,2.6-1.5,4.6-2.6,7.7c0,0-3.6,1.5-5.7,2.6c-1.5,1-14.5,8.8-14.5,8.8
			c-3.6,3.1-5.7-0.5-9.3-3.1c-4.6-2.6-9.3-4.6-12.9-8.3c0-0.5,1,0,0.5-1c-2.1,0-3.6,1-5.7,1.5c-1,0.5-3.1,1-3.6,0h1
			c1-1,1.5-2.6,3.6-3.1c-1.5-2.1-4.1-2.6-6.2-2.6L236,144.1z M400.2,145.1c0,1-2.1,3.6-4.6,4.1c-3.6,0.5-6.2,0-8.3-1
			c0,2.6,4.1,3.6,7.2,2.6c-1.5,2.1-6.7,3.6-10.3,3.6c-4.1,0-6.7-1.5-9.8-3.6c-0.5,2.6,4.1,4.1,7.2,4.6c-6.2,3.6-13.4,1-14.5,0.5
			c-1.5-0.5-4.1-1.5-5.7-3.1c0,2.1,2.6,3.1,4.6,3.6c-4.1,2.1-9.3,0-11.4-3.6c6.7-2.1,11.9-3.6,19.1-5.7c6.7,1,12.9-1.5,15.5-4.6
			c1-1,1.5-2.6,1.5-3.1c0.5,0,1.5,0,2.1,0C392.9,141,399.7,142.5,400.2,145.1z M343.4,154.9c3.1,0.5,7.7-0.5,9.3-0.5
			c0.5,1-0.5,3.6-2.1,3.1c0.5,2.1,2.1,4.1,2.1,6.2c-1.5-0.5-6.2-2.6-6.2-2.6c1,2.1,2.6,5.2,2.1,7.7c-2.1-1.5-5.7-1.5-7.2-2.6
			c0.5,3.1,2.6,7.2,0,9.8c-2.6-1.5-3.6-4.1-5.7-6.2c0.5,2.6,1,6.7-1,9.3c-1-1.5-6.2-3.6-6.2-5.2c-0.5,0-2.1,5.7-3.6,6.7
			c-1.5-2.6-3.1-5.7-5.7-7.7c0.5-0.5,1.5-0.5,1-1.5c-0.5-1.5-3.1-2.6-5.7-3.6c0.5-1,0.5-1,1.5-2.6c2.1-3.1,3.6-6.2,4.1-7.7
			c1-2.6,1-3.1,1.5-5.2c2.6,0.5,4.6,1,8.3,1C333.6,153.4,338.7,154.4,343.4,154.9z M285,153.9c-1,1-1.5,1.5-2.1,2.6
			c-1,2.6,0,6.2,2.6,8.3c1.5,1,2.6,1.5,3.6,2.1c-3.6,1-7.2,5.7-7.2,8.8c-1.5-1-1.5-3.6-1.5-6.2c-1,1.5-3.1,2.1-4.1,2.6
			c-0.5-1,0-4.1,1-5.7c-0.5-1-3.6-0.5-5.2,0.5c-0.5-2.1,0.5-3.1,2.1-4.1c-0.5-1-1.5-0.5-4.1,0c1.5-0.5,4.1-2.1,6.7-3.6
			C281.4,155.9,285,153.9,285,153.9z M286.6,226.2c3.6,6.2,4.1,6.2,6.2,9.8c2.1,3.6,10.3,16.5,11.9,19.1c1.5,2.6,10.3,17.6,16,20.1
			c-4.1,4.6-2.1,10.3-9.3,11.9c-4.1,0.5-15.5,4.1-19.6-2.6c-4.1-6.7-5.7-17.6-4.6-25.8c5.2,7.7,8.8,11.4,11.4,12.9
			c-9.3-10.3-8.3-12.4-12.4-18.1c-2.1-2.1-2.1-5.7-2.6-8.3c-0.5-4.6-0.5-9.3-0.5-13.9c0-2.6,0-5.2-1-7.7c-0.5-1-1-3.6-1-4.6
			c0-1,0-2.1,0-2.1S283,220,286.6,226.2z M315,136.3c-4.1,2.6-4.6,5.2-11.4,8.8c-3.6,2.1-7.2,3.1-9.3,2.1c-2.6-1-1.5-5.7-1.5-6.2
			s0-1,0-1.5c1.5-1,4.1-0.5,5.2-2.6c0.5-2.1,0.5-3.6,1-5.7c0.5-1.5,3.1-2.6,3.6-4.1c-3.1,2.1-5.2,4.6-8.8,4.6c-1-0.5-0.5-1.5-1-2.6
			c-0.5-0.5-0.5-1-1-1.5c0.5,0,0.5,0,0.5,0s0.5,0,0.5-0.5c0,0,0-0.5-0.5-0.5c-0.5,0-0.5,0-1,0l0,0c0-0.5,0-1.5,0-2.1l-2.1-0.5
			c0-2.1,1.5-3.6,1.5-5.7c0.5,0.5,1.5,0.5,1,1c-0.5,0.5,0,1,0,1c0-1,3.1-2.1,1.5-2.6c-0.5,0-3.1,0.5-3.1-1c0-1.5,0.5-3.1,1.5-4.6
			c2.1,1.5,4.6,3.1,5.2,5.7c0.5,0.5,1.5,1.5,2.6,1.5c2.1-1,3.1,1,5.2,1c0-0.5,0-1,0.5-1c0.5,0,1,0,1,0.5c0,1-0.5,1.5-1,2.1
			c-0.5,0.5-1.5,0.5-2.6,1c1.5,1,3.1-0.5,4.6-1c0.5,0,1.5,0,2.1,1c0.5,3.6-1,9.3,3.6,11.4C313.4,135.8,313.9,135.8,315,136.3z
			 M389.8,276.2c-3.1-0.5-5.7,0-6.7,2.6c-1.5,3.6-2.6,6.2-3.6,8.3c-1.5,2.6-4.1,4.6-7.7,5.7c-4.1,1-9.8,1.5-10.3-1
			c1-5.2,7.7-5.7,10.8-7.2c5.2-2.6,5.7-7.2,6.2-11.9c-7.7-4.6-22.7-17-22.7-17s13.4,12.9,20.1,17.6c0,4.1-1,6.7-4.1,8.3
			c-2.1,1-4.6,2.1-7.7,3.6c-5.2,3.1-3.6,7.2-10.3,9.8c-3.1,1-9.8,2.1-8.3-1.5c2.6-4.1,0-4.1,0-4.1c-1.5,0.5-5.7,1.5-8.3,1.5
			c-1.5,0-2.6-1-1.5-2.1c0.5-0.5,1-0.5,2.1-1c1-1,1.5-1.5,2.1-2.1c0.5-1.5,1.5-3.1,0.5-3.6c-1-0.5-2.6,0-3.1,0.5
			c-3.1,3.1-3.1,8.8-11.4,7.2c0,0-9.8-2.1-2.1-13.4c2.1-3.1-4.1-6.2-7.7-10.8c-6.7-8.3-26.3-40.3-26.3-40.3
			c-2.1-3.1-4.1-6.7-6.2-9.3c-2.1-3.1-2.6-8.8,2.1-8.3c2.1,0.5,2.6,1.5,5.2,0.5c1.5-0.5,1.5,1.5,0,3.1c-1,1-1,2.6,0.5,3.6
			c1.5,1,2.1-1,4.1-0.5c2.1,0.5,3.1,5.2,6.7,6.2c1,0,1.5,0,1.5-0.5c0.5-1.5-1-3.1-0.5-5.2c0.5,1,2.1,2.1,4.1,3.1
			c2.6,1.5,3.6,1.5,3.1-0.5c-0.5-2.1-1-3.6-1-3.6c0-1.5,1-3.1,2.6-3.1c0.5,0,1.5,0.5,2.1,1.5c1.5,2.6,1,4.1,4.1,5.2
			c5.2,10.8,18.1,24.8,23.8,28.9c1,1,3.1,2.1,4.6,2.6c-1-1-3.1-2.6-3.6-3.6c-13.9-13.4-22.7-25.3-22.2-28.4c4.1-1.5,4.6-5.7,5.7-5.2
			c0.5,0.5-1,3.6-1,5.2c0,1,1,2.1,3.6,2.1c-4.6,4.6,6.7,8.3,15.5,8.3c3.1,2.1,8.3,5.2,15,6.7c0,0,0.5,3.1,2.6,3.1
			c0,0,4.6,7.2,10.8,13.9C376.9,259.2,384.2,270.6,389.8,276.2z M340.8,269c-13.4-14.5-27.4-36.7-28.9-37.2c0,0,17,25.3,19.6,29.9
			c3.1,4.1,7.2,8.3,9.3,11.9C341.3,272.1,342.3,270.6,340.8,269z M316,138.9c-5.7,5.7,1,19.6-3.1,25.3c-0.5,0.5-1,1.5-1,2.1
			c-3.1-1-5.2-1-7.7-1c-1.5,0-3.6,0.5-4.6,0.5c-3.1,0.5-5.7,0-8.3,0.5c0-0.5,0.5-1,1-2.1c-2.6,0-4.6-0.5-6.2-2.6
			c-1-1.5-1-3.1-0.5-4.1c0.5-2.1,3.1-4.1,4.1-6.2c0,0,1.5-2.6,2.1-5.2c0.5,1,0.5,2.6,3.1,3.1s5.2-0.5,9.3-2.6
			c-2.1,3.1-4.6,5.2-10.3,6.2c2.1,0.5,5.2-0.5,8.8-2.1c4.1-2.1,9.8-9.8,9.8-9.8C313.9,139.4,316.5,138.4,316,138.9z M309.3,158.5
			c-1,1.5-2.1,3.1-6.2,3.1c-4.6,0-6.2-2.6-6.2-2.6c0.5,1.5,1.5,4.6,6.2,4.6C309.3,163.2,309.3,158.5,309.3,158.5z M426,124.4
			c-8.8,7.2-11.9,18.1-12.4,21.2c-1.5,9.3-1.5,20.1,0,29.4l4.6,29.4l1.5,12.9l0.5,15c1,35.1-16,81.6-73.3,100.2l-13.9,5.2
			c-11.9,5.2-23.2,10.8-33,19.6c-13.9-12.4-30.5-19.1-47-25.3c-51.6-16-70.2-60.4-71.3-90.9c-0.5-10.3,0-21.2,1-31.5l2.1-15.5
			l3.6-21.2c1.5-11.9,1.5-25.3-2.1-36.1c-2.1-5.2-5.7-9.3-9.8-13.4c4.6-6.2,10.3-13.9,15.5-20.1v0.5c0,0,0,0,0,0.5
			c1,2.1,1.5,4.1,2.6,5.2c0.5,0.5,0.5,1.5,1,2.1l-8.3,11.4c10.3,11.4,10.8,27.9,10.3,43.4l-1,9.3l-4.6,27.4l-1.5,15.5l-0.5,14.5
			c-1.5,35.1,24.8,80,73.8,94.5c12.9,5.2,25.3,10.8,36.7,19.6c11.4-8.3,23.8-13.9,36.7-19.1c56.8-16,73.8-59.9,74.4-88.8
			c0.5-10.8-0.5-21.2-1.5-31.5l-2.1-14.5l-3.1-18.1c-1.5-9.8-1.5-22.2,0.5-32c3.1-1.5,6.2-4.1,8.3-10.8l0.5-1
			c3.1-2.1,7.2-6.2,10.3-9.8C425,122.4,425.5,122.9,426,124.4z M436.8,81.6c-4.1,8.8-6.2,11.9-12.4,13.9c0,0-19.6,6.2-24.3,7.7
			c-5.7,2.1-10.3,4.6-13.4,6.2c-10.3-6.2-29.4-1.5-34.1,0c-7.2,2.6-15,7.2-21.7,11.9c-1-1-2.1-2.6-3.1-2.6c0,0,3.1,2.1,2.6,5.2
			c1,0,4.1-2.6,6.2-0.5c2.1,2.1,0,4.1-1,6.2c2.6-2.1,4.6-3.1,7.2-1.5c3.1,2.1-0.5,5.2-1.5,6.7c2.1-0.5,4.1-2.1,5.7,0
			c1.5,2.1-0.5,3.1-3.1,4.6c2.1,0,2.1,1.5,8.3,1.5c-2.6,0-5.7,0.5-7.2,0.5c-1.5-0.5-3.1-1-5.7-1.5c-6.7-2.1-10.8-4.1-13.4-4.6
			c-2.6-1-5.7-1-7.7-0.5c-1,0-1,0.5-2.1,0.5c8.8-3.1,6.2-13.9,10.3-20.7c4.1-8.3,13.4-9.8,21.2-11.4c10.3-1.5,26.9-3.1,31.5-4.1
			c8.8-1.5,19.6-5.2,21.7-6.2c2.6-1,14.5-5.2,19.1-7.2C424.4,83.6,431.7,82.6,436.8,81.6z M437.3,92.4c-1.5,3.6-5.7,11.4-10.8,13.4
			c-6.7,3.6-16,5.2-23.8,6.2c-5.7,1-10.3-0.5-12.4-1c0,0-2.1-0.5-3.1-1c10.8-5.7,24.3-9.8,38.2-13.4
			C433.7,93.5,434.8,93.5,437.3,92.4z M300.5,103.8c-3.1,0.5-6.7,1-8.8,5.2c-1-1-0.5-2.6,0.5-4.1
			C293.3,103.8,295.9,102.8,300.5,103.8z M427,113.1c-0.5,1.5-1.5,3.1-3.6,4.6c-4.1,3.6-25.3,6.7-33,4.1c8.3-3.6,9.3-6.2,9.8-8.3
			c6.2,0,16-1,26.3-5.7C427.5,107.4,428.1,111.5,427,113.1z M381.6,108.4c2.6,1,6.2,2.6,4.6,3.1c-13.4,2.1-22.2,6.2-44.9,15
			c-1,0-1.5,0-2.6,0.5c0-1,0-2.6-1-4.1c-1-1-3.1-1.5-5.7-0.5c6.7-4.1,13.4-8.8,21.2-11.4c6.2-2.1,12.4-3.1,19.6-3.6
			C376.9,106.9,379.5,107.9,381.6,108.4z M313.4,109.5c0,0.5,0,2.6-1.5,3.6c-2.6,1-4.1-1.5-6.2-2.1c-4.1-0.5-8.8,0-12.4-1
			c1-1.5,2.6-3.1,4.6-3.6c2.6-0.5,7.2-1.5,10.3-0.5C311.4,106.4,312.9,107.9,313.4,109.5z M316.5,110.5c0,0.5,0,1-0.5,1
			c-0.5,0.5-1,1-2.1,1c0-1,0.5-2.1,1.5-2.6C316,109.5,316.5,110,316.5,110.5z M398.6,113.6c-0.5,2.1-3.1,4.1-5.2,5.2
			c-2.6,1.5-5.7,2.1-6.7,4.1c-1.5,1.5-14.5,5.2-20.7,6.7c-6.2,1.5-11.4,3.1-17,4.1c-1-1-2.6-1-4.1-0.5c1.5-3.1,1-5.2-2.1-6.2
			l29.9-10.8c5.7-1.5,12.4-3.6,17-3.6C392.9,113.1,395,113.6,398.6,113.6z M306.7,112.6c2.1,0.5,5.7,4.1,6.2,6.2
			c0.5,1.5-0.5,2.6-1,3.6c-1,0.5-1.5,1-2.1,2.1c0-1,0-1.5-0.5-2.6c-1-0.5-1.5-1.5-2.1-2.6c-3.1,0-7.7,0-9.3-1.5c0-0.5-0.5-1-1-2.1
			c1,0,4.6,0,6.7,0.5c2.1,0,4.6,0,5.2,1c0,0.5-0.5,0.5-0.5,0.5h-0.5c0.5,1,2.1,1,3.1,1c0.5-0.5,1-1,0.5-1.5c-0.5-1-2.1-1.5-3.6-1.5
			s-10.8-0.5-10.8-0.5c-1-1-3.1-2.6-4.6-3.1c0-0.5,0.5-1,1-1C296.4,112,302.6,112,306.7,112.6z M318.6,113.1c0,0.5,0,0.5,0.5,1
			c0,1-0.5,2.1-1.5,2.6c-1,0.5-2.1,0.5-3.1,0c-0.5-0.5-1.5-0.5-1.5-0.5c0-2.1,2.6-3.1,3.6-3.6C318.1,112,318.6,112,318.6,113.1z
			 M228.2,114.6c8.8,1.5,8.3,9.3,10.3,12.9c-7.2,0.5-10.8,0.5-16-0.5c-20.1-4.6-23.8-13.9-28.9-26.9
			C202.9,108.4,224.1,113.6,228.2,114.6z M422.4,119.8c-4.6,6.2-12.4,11.4-15.5,12.4c-2.1,1-5.2,1.5-10.3,0.5
			c-2.6-0.5-5.2-1.5-6.7-3.1c-3.1-2.6-3.1-4.6-3.1-5.2c0-0.5,1-2.1,2.1-1.5C401.7,126,418.8,122.4,422.4,119.8z M317,118.2
			c0.5,0,0.5-0.5,1,0c0.5,1.5-1.5,2.1-2.6,2.6c-1,0-1-0.5-1.5-1c0-0.5,0-1-0.5-1.5c0,0,0-0.5,0.5-0.5C315,118.2,316,118.8,317,118.2
			z M239.6,128.6c0.5,1,1.5,3.6,5.7,6.7c-2.6,0.5-4.6,1-8.3,1c-5.2,0-9.3-0.5-9.3-0.5c-7.2-0.5-16.5-9.3-19.1-12.9
			c4.6,2.6,11.4,4.6,16.5,5.2C230.3,129.1,234.9,129.1,239.6,128.6z M262.8,134.8c0,1,0,2.1,1.5,3.1c-1,0-3.1,0-4.6,0.5
			c-7.7-0.5-15.5-2.6-19.6-9.8c2.1,0,3.6,0,6.7,0.5C251.5,130.1,257.7,131.7,262.8,134.8z M397.1,134.3c-0.5,1.5-3.6,3.6-6.7,4.1
			c0,0-0.5-2.6-3.6-2.1c-2.1,0-2.1,0.5-3.1,0.5c0.5-1,0.5-2.1,0-3.1c0,0-0.5-0.5-1-0.5c-1,0-2.1,0.5-3.1,1s-2.1,0.5-3.1,1
			c-1.5,0.5-2.6,1.5-4.1,3.6c-0.5,0.5-1,0-1.5,0c-0.5-0.5-13.4,1.5-13.4,1.5c-2.6,0-5.7,0-9.8-1c0,0,3.6-1.5,1.5-4.6
			c0,0,17.6-3.6,24.3-5.7c6.7-2.1,10.3-3.1,12.9-4.1c-0.5,1.5,1,4.6,3.6,6.7C391.9,132.7,395.5,134.3,397.1,134.3z M411.5,131.2
			c-4.1,12.4-15,10.8-18.6,8.3c4.1-1,5.7-4.6,5.7-4.6C404.3,135.3,407.9,134.3,411.5,131.2z M259.2,139.4c-1.5,1-1,2.1-1,3.1
			c0.5,1,2.1,2.1,2.1,2.1c-0.5,0.5-1.5,1.5-2.6,2.6c-1.5-1-4.1-2.1-6.2-3.1c-4.1-2.6-7.7-3.6-11.9-3.6c-1,0-4.1,1-4.6,1.5
			c-3.1-0.5-7.2-3.1-8.3-4.1c5.2,0.5,8.8,0.5,11.9,0.5c5.2-0.5,8.8-1,8.8-1C250.4,137.9,253.5,139.4,259.2,139.4z M317.6,170.9
			c-1.5,0-0.5,0.5-3.6,3.1c-0.5,0.5-2.6,0.5-4.6,0.5c0.5-1,1-1.5,0-3.6s-2.6-2.6-3.6-2.6c1,1,2.1,2.1,2.6,3.1c0.5,1,0,2.1-1,3.1
			c-1,0-2.1,1-3.1,1.5c0.5-2.6-1.5-6.7-3.6-7.2c1.5,2.6,3.1,4.1,2.6,8.3c-0.5,1.5-6.2,5.2-7.7,3.6c-2.6-2.6-0.5-4.1-1.5-6.7
			c0-0.5-0.5-1-0.5-1c0.5,2.6-0.5,3.6,0,6.2c-2.1,0.5-2.6,1-4.1,0.5c-0.5-0.5-1-2.1-0.5-4.1c0.5-2.1,2.1-4.6,3.6-6.7
			c0,0-1,0.5-1.5,1c-2.6,2.1-3.6,5.2-3.6,7.2c0,1,0,1.5,1,2.6c-0.5,0-3.1,0-3.6-1.5c-1.5-3.1,0.5-5.7,2.1-7.7
			c1.5-1.5,3.6-2.6,3.6-2.6c3.1-1.5,8.3-1,11.4-1.5c3.1-0.5,6.2,0,8.8,1C312.9,168.3,315.5,169.4,317.6,170.9z M368.7,229.8
			c0.5,2.1-2.6,3.6-4.6,4.1h-0.5c0-2.1-0.5-6.2,1.5-6.2C367.6,226.7,368.7,227.7,368.7,229.8z M334.6,205.5
			c6.2,7.7,11.9,11.4,12.9,12.4c0,0-8.3-7.7-10.3-10.8c14.5,10.8,25.3,15.5,30.5,19.1c-2.1-0.5-4.6-0.5-5.7,1c-1,1.5-0.5,4.1-1,6.2
			c-0.5,1.5-1.5,2.1-2.1,2.1c-1-6.7-6.2-7.7-6.2-7.7c1.5,1.5,3.1,3.1,3.6,5.7c-5.2-1-14.5-6.7-14.5-6.7c-5.2,0.5-10.8-0.5-13.9-2.6
			c-3.6-2.6,3.6-2.6,1-5.2c-1.5-1-3.1,0-4.1-1.5c-0.5-1,2.1-3.6,1-6.2c-1-1.5-2.1-1.5-3.6,0c-1.5,1-2.1,6.2-5.7,5.2
			c-2.1-0.5-1.5-4.1-4.1-6.2c-1.5-1-3.6-1-5.2,0c-1.5,1.5-1,4.1-1,4.1c-4.6-8.8,0-27.9,0-27.9c-4.6,12.4-4.6,23.2-1,29.4
			c-1-0.5-3.1-2.6-3.6-3.6c-1-2.1-2.6-5.7-2.1-8.8c-3.1,5.2,2.6,13.9,0.5,13.9c-1.5,0-1.5-3.6-4.1-4.6c-2.1-1-3.1,1-4.1,0
			c-1-1,4.1-4.1-0.5-6.7c-2.6-1.5-3.6,1-5.2,0c-2.1-1-4.1-0.5-4.1-0.5c-1-4.1,4.6-24.3,4.6-24.3c3.1,2.1,7.7-0.5,7.7-0.5
			c2.6,4.6,7.2,1,9.8-1c1.5-1.5,2.1-2.6,4.1-3.6c2.1-1,4.6,0.5,6.7-0.5c2.1-1,2.6-2.6,2.6-2.6c3.1,2.6,6.2,11.9,7.7,15
			C329.9,199.3,334.6,205.5,334.6,205.5z M290.2,136.8c-4.6-0.5-8.8,1.5-12.9,6.2c-4.6,1.5-7.7,3.1-11.4,7.2c-2.6-1-5.7-2.6-6.7-3.1
			c0.5-1.5,1.5-2.6,3.1-3.1c-1-0.5-3.6-2.1-3.1-3.1c0.5-2.6,4.1-1,7.7-2.6c-1.5-0.5-3.1-2.1-2.6-4.1c0.5-2.1,4.1-1.5,6.7-1
			c-1.5-1.5-1.5-3.6,0-4.6s5.2-0.5,5.2-0.5c0-2.1,1.5-3.1,2.6-4.6c-1.5,0.5-2.6,2.6-3.1,3.6c-4.6-0.5-7.2,2.1-6.2,5.2
			c-2.6-0.5-4.6,0-5.7,2.1c-6.2-3.6-15-6.2-21.2-6.7c-1,0-1.5,0-2.1,0c-0.5-0.5-1.5-2.6-1.5-3.6c-0.5-2.6-2.1-6.7-4.6-7.7
			c5.7,1,21.7,3.6,31.5,7.7c-7.2-5.2-26.9-7.7-38.7-10.8c-8.8-2.1-21.2-5.7-28.4-11.4c-4.1-3.1-6.7-6.7-7.2-10.3
			c5.2,2.1,9.8,3.1,16,4.1c4.1,1,7.7,1.5,13.4,2.6s13.4,3.6,13.4,3.6c12.4,3.6,26.9,1,39.2,5.7c5.7,2.1,5.2,8.8,6.2,13.9l1.5,1.5
			C280.9,129.6,284,132.7,290.2,136.8z M330.5,205c6.2,7.7,6.2,7.7,11.9,12.9c-3.1-1.5-8.8-7.2-12.4-11.4
			c-5.2-6.2-7.7-11.9-8.3-18.1C321.2,189,324.3,197.8,330.5,205z M265.4,113.6c-7.2-3.6-17.6-3.6-23.2-5.2c-6.2-1.5-6.7-2.1-6.7-2.1
			c2.1,0.5,4.6,1,6.7,1.5c7.7,1,16.5,1.5,23.2,4.1c3.6,1.5,5.7,5.2,6.7,9.3C270.6,118.2,268.5,115.1,265.4,113.6z"/>
		<path class="st0" d="M126,277.8h-1.5l0.5,1.5c3.1,12.9,0,25.8-9.3,34.1l-3.1,2.6l3.6-0.5c3.1-0.5,6.7-1,10.8-0.5
			c9.8,0.5,16.5,2.6,22.2,6.2c-0.5,1.5-5.7,28.9-5.7,28.9c0,0.5,0,1,0,1c0,2.1,1,3.6,2.1,4.6l0,0l0,0c4.1,4.6,9.8,6.2,15,7.2h0.5
			c22.7,5.2,47,0.5,68.2-13.4l11.4-7.2l5.2-3.1l6.2-3.6c11.4-6.7,21.2-10.3,31.5-12.4c22.2-4.1,46,1,63.5,12.4l2.1,1.5l15,9.8
			l9.3,5.7c20.7,12.9,47,16.5,69.2,9.8c3.6-1,11.4-3.6,12.4-10.8l0,0c0,0-5.7-28.9-5.7-30.5l1-0.5l0,0c9.3-5.2,21.7-7.2,32.5-4.6
			l4.1,1l-4.1-2.1c-9.3-8.3-12.9-21.2-9.3-34.1l0.5-1.5h-1.5c-13.9,0-27.4,1.5-39.2,5.7c-5.7,2.1-15,5.7-17.6,13.4l0,0l-0.5,23.2
			c0,0,0,6.7,0,9.3c-13.9-0.5-25.3-7.2-34.6-13.9l-3.6-2.6l-13.9-8.8c-16.5-10.3-32.5-16-49.6-18.6c-28.9-3.6-57.8,3.1-83.6,20.7
			l-12.9,8.8c-10.3,6.7-21.2,13.4-34.6,13.4c0-1.5,0-30.5,0-30.5c0-4.6-3.6-8.8-10.3-12.9C159,280.9,144.1,277.8,126,277.8z"/>
		<g>
			<path class="st1" d="M168.8,311.4c3.6-1,7.2-2.1,10.3-5.2c0,1.5,0,23.2,0,24.3c-8.3,0-17-1.5-23.8-7.2l-0.5-0.5
				c-0.5-1-1.5-1.5-1.5-2.6c0-0.5,0-0.5,0.5-1c2.1-3.6,5.7-4.6,9.8-5.7l3.1-1C166.8,311.9,168.8,311.4,168.8,311.4z"/>
			<path class="st1" d="M418.8,307.2c3.6,3.1,8.3,4.6,12.9,5.7c4.1,1,7.7,2.1,11.4,4.6c1,1,1.5,1.5,1.5,2.6c0,0.5,0,0.5-0.5,1
				c-2.1,4.1-7.2,6.2-10.8,7.2c-4.6,1.5-9.3,2.1-14.5,2.1C418.8,329.9,418.8,308.8,418.8,307.2z"/>
			<path class="st1" d="M129.6,288.6c0-2.6-0.5-5.2-1-7.7c13.9,0.5,29.4,2.1,43.4,9.8c3.6,2.1,7.2,5.2,7.2,9.3c0,0,0,0,0,0.5
				c-0.5,5.2-5.7,6.7-10.3,8.3l-5.7,1c-4.6,1.5-9.8,2.6-11.9,7.7c-7.7-4.6-17.6-6.7-29.4-6.2C126.5,305.2,129.6,297.4,129.6,288.6z"
				/>
			<path class="st1" d="M438.4,311.9L438.4,311.9l-6.2-2.1c-4.6-1-9.3-2.6-12.4-6.2c-0.5-1-1-2.1-1-3.1c0-1,0-2.1,0.5-2.6
				c4.1-6.7,11.9-8.8,19.1-11.4l2.1-0.5c8.8-2.6,18.6-3.6,29.9-4.1c-0.5,2.6-1,5.7-1,8.3c0,8.8,2.6,16.5,7.7,22.2
				c-11.4-0.5-21.2,1.5-29.4,6.2C445.6,315,441.5,313.4,438.4,311.9z"/>
			<path class="st1" d="M215.3,322.2l20.1-12.9c24.3-15.5,50.6-21.7,77.5-18.1c15.5,2.1,30.5,7.2,46,16.5l12.9,8.3l13.4,8.8
				c12.9,8.8,27.9,11.9,43.4,9.8c6.2-1.5,12.9-3.1,17.6-8.8c0.5,1.5,5.2,27.4,5.2,27.4c-0.5,3.6-4.6,5.2-7.7,6.7l-1,0.5
				c-23.2,7.7-51.1,3.1-72.8-11.9l-19.6-12.9c-20.7-13.4-45.4-18.1-69.7-13.4c-11.9,2.1-23.8,7.2-36.7,15.5l-18.6,11.9
				c-18.1,11.4-38.7,16-59.4,12.4c-6.2-1-12.4-2.6-17.6-6.7c-1-1-1.5-2.1-1.5-3.1c0,0,4.6-23.8,5.7-27.4c6.7,7.2,16.5,8.8,25.8,9.3
				C190.5,334.1,201.9,330.5,215.3,322.2z"/>
		</g>
		<path class="st0" d="M163.7,338.2l-7.2-1v0.5c0.5,0.5,0.5,0.5,0.5,1l-2.1,13.4c0,0.5,0,0.5-0.5,0.5v0.5l4.6,1l0,0v-0.5
			c-0.5-0.5-0.5-0.5-0.5-0.5l0,0l1-5.2l3.1,0.5c4.1,0.5,5.7-1.5,6.2-4.1C168.8,341.3,167.8,338.7,163.7,338.2z M162.1,344.9
			l-2.6-0.5l0.5-3.6c0.5,0,2.6,0.5,2.6,0.5c1,0,2.1,0.5,2.1,1v1.5C165.2,344.9,164.2,344.9,162.1,344.9z M177.1,339.8
			c-2.1,0-3.6,0.5-5.2,2.1c-1.5,1.5-2.6,3.6-2.6,6.2c0,5.2,2.6,8.3,7.2,8.3c2.1,0,3.6-0.5,5.2-2.1c1.5-1.5,2.6-3.6,2.6-6.2
			s-0.5-4.6-2.1-6.2C181.2,340.8,179.2,339.8,177.1,339.8z M179.7,352.7c-0.5,0.5-1.5,1-2.6,1c-2.6,0-4.1-2.1-3.6-5.7
			c0-2.1,0.5-3.6,1.5-4.1c0.5-0.5,1.5-1,2.6-1c1,0,2.1,0.5,2.6,1c1,1,1.5,2.6,1,4.6C181.2,350.1,180.7,351.6,179.7,352.7z
			 M193.6,344.4c-2.1,0-3.6,0-3.6-1s0.5-2.1,2.1-2.1c2.6-0.5,3.6,0.5,4.1,1v0.5c0,0.5,0.5,0.5,0.5,0.5l1.5-4.1v-0.5l-0.5,0.5
			l-0.5,0.5h-0.5h-1c-1,0-2.6,0-3.6,0c-4.1,1-5.2,3.6-4.6,5.7c0.5,3.1,4.1,3.1,6.7,3.1c2.1,0,3.6,0,4.1,1.5v1.5
			c-0.5,0.5-1.5,1-2.6,1.5c-1,0.5-3.1,0-4.1-0.5l-1.5-1.5v-0.5h-0.5l-1,4.1l0,0l0,0h0.5l0,0l0,0v-0.5h1h1h3.6c4.6-1,6.2-4.1,5.7-6.7
			C199.8,344.4,196.2,344.4,193.6,344.4z M212.7,347l-5.2-10.8l3.1-1.5c0.5-0.5,0.5-0.5,1,0h0.5l-1.5-3.6h-0.5c0,0.5,0,0.5-0.5,1
			l-9.3,4.1c-0.5,0.5-1,0-1,0h-0.5l1.5,3.6h0.5l0,0c0-0.5,0-0.5,0.5-1l3.1-1.5l0,0c0,0.5,4.6,10.8,4.6,10.8v0.5c0,0,0,0-0.5,0.5l0,0
			v0.5l4.1-1.5l0,0v-0.5C212.7,347.5,212.7,347.5,212.7,347z M229.3,334.6C229.3,335.1,229.3,335.1,229.3,334.6c0,0.5,0,0.5-0.5,1
			l-5.7,3.6l0,0c0,0-1.5-3.1-2.1-3.6l3.1-2.1c0.5-0.5,0.5-0.5,1,0h0.5l-2.1-3.1h-0.5c0,0,0,0,0,0.5c0,0.5,0,0.5-0.5,0.5l-3.1,2.1
			l0,0c0-0.5-2.1-3.1-2.1-3.1l5.2-3.1c0.5-0.5,0.5-0.5,1,0h0.5l-2.1-3.1h-0.5c0,0.5,0,0.5-0.5,1l-8.8,5.2v0.5c1-0.5,1,0,1.5,0
			l7.2,11.4c0,0.5,0.5,0.5-0.5,1v0.5l9.3-5.7c0.5-0.5,0.5-0.5,1,0h0.5l-2.1-3.1C229.3,334.6,229.3,334.6,229.3,334.6z M242.7,327.4
			L242.7,327.4l-5.2-3.1l0,0c1.5-1.5,1.5-3.6,0.5-5.2c-1.5-2.6-4.1-2.6-7.2-1l-6.2,4.1v0.5c0.5,0,1,0,1,0.5l7.2,11.4
			c0,0.5,0,0.5,0,1v0.5l4.1-2.6l0,0l-0.5-0.5c-0.5,0-1,0-1-0.5l-3.1-4.6l2.1-1l4.6,2.6l0.5,0.5l0,0c0,0,0,0-0.5,0.5l0,0v0.5l4.1-2.6
			v-0.5C243.7,328.4,243.7,328.4,242.7,327.4z M234.4,324.3l-3.1,2.1l0,0c0,0-1.5-3.1-2.1-3.1l2.6-1.5c1.5-1,2.6-1,3.1,0.5l0.5,1.5
			C236,323.2,235.5,323.8,234.4,324.3z M272.6,310.8C272.6,310.8,272.1,310.8,272.6,310.8c-0.5,0.5-0.5,1-0.5,1v1
			c-0.5,0.5-1,1.5-2.1,1.5c-1,0.5-2.1,0-3.1-0.5c-1-0.5-2.1-2.1-2.6-3.6c-0.5-2.1-0.5-3.6,0-4.6c0.5-1,1.5-1.5,2.6-2.1
			c1.5-0.5,3.1,0,3.1,1l0,0v0.5h0.5l1-4.1v-0.5h-0.5l-0.5,0.5h-0.5h-1c-1,0-2.1,0-3.1,0c-3.6,1-6.7,4.6-5.2,10.3
			c1.5,4.6,5.2,6.7,9.3,5.7c2.6-1,3.6-2.1,4.1-3.1l0.5-0.5h0.5l0.5-0.5C276.2,313.4,272.6,310.8,272.6,310.8z M289.2,311.4
			L289.2,311.4c-0.5-0.5-3.1-4.6-3.1-4.6l0,0c2.1-0.5,3.1-2.6,2.6-4.6c-0.5-2.6-2.6-4.1-6.2-3.6l-7.2,1v0.5c0.5,0,0.5,0,1,0.5
			l2.1,13.4c0,0.5,0,0.5-0.5,0.5v0.5l4.6-0.5l0,0v-0.5c-0.5,0-1-0.5-1-0.5l-0.5-5.2h2.6l0,0l3.1,4.1l0.5,1l0,0c0,0,0,0-0.5,0.5
			c0,0,0,0,0,0.5l0,0l4.6-0.5v-0.5C289.7,312.4,289.7,312.4,289.2,311.4z M285,304.1c-0.5,0.5-1,0.5-2.1,0.5l-3.6,0.5l0,0
			c0-0.5-0.5-3.1-0.5-3.6c0.5,0,3.1-0.5,3.1-0.5c1.5,0,2.6,0.5,2.6,1.5L285,304.1z M302.6,310.3h-6.7c0,0,0-3.6,0-4.1
			c0.5,0,3.6,0,3.6,0c0.5,0,1,0,1,0.5h0.5v-3.6h-0.5c0,0.5-0.5,0.5-1,0.5h-3.6V300h6.2c0.5,0,1,0,1,0.5h0.5v-3.6h-0.5
			c0,0.5-0.5,0.5-1,0.5h-10.3v0.5c1,0,1,0.5,1,1v13.4c0,0.5,0,0.5-1,0.5v0.5h10.8c0.5,0,1,0,1,0.5h0.5v-3.6h-0.5
			C303.6,310.3,303.6,310.3,302.6,310.3z M316.5,303.6l3.1-3.6l0,0l0,0l0,0l-0.5-0.5c0,0-0.5,0.5-0.5,0h-1l-1-0.5
			c-1-0.5-2.1-1-3.6-1c-4.1-0.5-6.2,1.5-6.2,4.1c-0.5,3.1,2.6,4.6,5.2,5.2c2.1,0.5,3.6,1.5,3.6,2.6l-0.5,1c-0.5,0.5-1.5,0.5-3.1,0.5
			c-1,0-3.1-1-3.6-1.5v-0.5v-0.5h-0.5l-2.6,3.6l0,0l0.5,0.5l0.5-0.5l1,0.5l1,0.5l3.6,1c3.1,0.5,4.6-0.5,5.7-1c1-0.5,1.5-2.1,1.5-3.1
			c0.5-3.6-2.6-4.6-5.2-5.7c-1.5-0.5-3.1-1-3.1-2.6l0.5-1c0.5-0.5,1-0.5,2.1-0.5c2.1,0.5,3.1,1,3.1,1.5v0.5
			C316,303.1,316,303.1,316.5,303.6C316,303.1,316.5,303.6,316.5,303.6z M331.5,317h0.5l-1.5-4.1h-0.5v0.5l-0.5,1
			c-0.5,0.5-1.5,0.5-2.6,0.5c-2.6-0.5-3.6-3.1-2.6-6.2c0.5-2.1,1.5-3.1,2.6-4.1c1-0.5,2.1-0.5,3.1,0c1,0,1.5,1,2.1,1.5v1v0.5l0,0
			l3.1-3.1l0.5-0.5h-0.5h-0.5l-0.5-0.5l-0.5-0.5c-1-0.5-1.5-1-3.1-1.5c-2.1-0.5-4.1-0.5-5.7,0.5c-2.1,1-3.1,3.1-3.6,5.7
			c-1,4.6,1,8.8,5.2,9.8C328.9,318.1,330.5,317.6,331.5,317L331.5,317C331.5,316.5,331.5,317,331.5,317z M344.4,322.7l1-13.4v-1
			c0,0,0-0.5,0.5,0l0.5-0.5l-4.6-2.1l-0.5,0.5c0.5,0.5,0.5,0.5,0.5,0.5l0,0l-1,0.5l-9.3,10.3l-0.5,0.5l-0.5,0.5l3.6,1.5l0,0v-0.5
			c-0.5-0.5-0.5-0.5-0.5-0.5l0,0l0.5-0.5l1.5-2.1l4.6,2.1l-0.5,2.6v0.5c0,0,0,0-0.5,0l-0.5,0.5l3.6,2.1l0.5-0.5
			C344.4,323.2,344.4,323.2,344.4,322.7z M342.3,309.8c-0.5,1-0.5,6.2-0.5,6.2l0,0c-0.5-0.5-2.6-1.5-3.1-1.5
			C338.7,314.5,341.8,310.3,342.3,309.8L342.3,309.8z M358.9,332l7.2-11.9c0,0,0.5-0.5,0.5,0l0.5-0.5l-4.6-3.1L362,317
			c0,0.5,0,0.5,0,0.5l0,0c0,0-1.5,1.5-3.6,2.6c0,0-3.6,2.6-4.1,3.1l0,0c0.5-1,1-3.6,1-3.6c0.5-2.1,1-5.2,1-5.2s0,0,0.5,0l0.5-0.5
			l-4.6-3.1l-0.5,0.5c0.5,0.5,0.5,0.5,0,1l-7.2,11.9c0,0-0.5,0.5-0.5,0l-0.5,0.5l3.6,2.6l0,0l0.5-0.5c-0.5-0.5-0.5-0.5-0.5-0.5l0,0
			c0,0,5.2-8.3,5.7-9.3c0,0,0,0,0,0.5c-0.5,1.5-1.5,7.7-1.5,7.7l-0.5,3.1l0.5,0.5l4.1-3.1c0,0,5.7-4.1,6.2-4.6v0.5
			c-1.5,2.1-5.7,8.8-5.7,8.8s0,0.5-0.5,0l-0.5,0.5l3.6,2.6l0.5-0.5C358.9,332,358.9,332,358.9,332z M378,341.3c-0.5,0.5-0.5,0.5-1,0
			l-5.7-3.6l6.7-9.8c0-0.5,0.5-0.5,1,0l0.5-0.5l-4.1-3.1l-0.5,0.5c0.5,0.5,0.5,1,0.5,1l-7.2,11.4c0,0.5-0.5,0.5-1,0l-0.5,0.5
			l8.8,6.2c0.5,0.5,0.5,0.5,0.5,1l0.5,0.5C375.9,344.9,378,341.8,378,341.3C378,341.8,378,341.3,378,341.3z M388.8,334.1
			c0.5,0.5,0.5,0.5,0.5,0.5l-0.5,0.5l-9.3,9.8l-0.5,0.5l-0.5,0.5l3.6,2.1l0,0v-0.5c-0.5-0.5-0.5-0.5-0.5-0.5l0,0l0.5-0.5l2.1-2.1
			l4.6,2.1l-0.5,2.6v0.5c0,0,0,0-0.5,0l-0.5,0.5l3.6,2.1l0.5-0.5c0-0.5-0.5-0.5,0-1l1.5-12.9v-1c0,0,0-0.5,0.5,0l0.5-0.5
			C393.5,335.6,388.8,333.6,388.8,334.1C388.8,333.6,388.8,334.1,388.8,334.1z M389.8,338.2c-0.5,1-1,5.7-1,6.2l0,0
			c-0.5-0.5-2.6-1.5-3.1-1.5C385.7,342.3,389.3,338.2,389.8,338.2L389.8,338.2z M406.4,340.3c0.5,0.5,0.5,0.5,0.5,1l-2.1,8.8
			c-0.5,2.1-2.1,2.6-4.1,2.6c-1,0-1.5-0.5-2.1-1.5c-0.5-0.5-0.5-1.5,0-2.6l2.1-8.8c0-0.5,0-0.5,0.5-0.5l0.5-0.5l-4.6-1l0,0l0,0v0.5
			c0.5,0.5,0.5,0.5,0.5,1l-2.1,8.8c-1,4.1,0.5,6.7,4.6,7.2c2.1,0.5,3.6,0.5,5.2-0.5c1-0.5,2.1-2.1,2.6-4.1l2.1-8.8
			c0-0.5,0-0.5,0.5-0.5l0.5-0.5l-4.1-1C406.4,339.8,406.4,340.3,406.4,340.3z M418.8,340.8H412v0.5c0.5,0,0.5,0.5,0.5,1v13.4
			c0,0.5,0,0.5-0.5,0.5v0.5h6.2c2.6,0,4.6-0.5,6.2-2.1c1.5-1.5,2.1-3.6,2.1-6.2C426,343.9,423.4,340.8,418.8,340.8z M422.4,349.1
			c0,4.1-1,5.2-5.2,5.2h-1.5l0,0c0,0,0-9.8,0-10.3c0.5,0,1.5,0,1.5,0C421.3,343.9,422.4,344.9,422.4,349.1L422.4,349.1z M442,350.1
			h-0.5c0,0.5,0,0.5-1,1l-6.7,1.5l0,0c0-0.5-0.5-3.6-1-3.6c0.5,0,3.6-1,3.6-1c0.5,0,1,0,1,0h0.5l-0.5-3.6h-0.5c0,0.5,0,0.5-1,0.5
			l-3.6,1l0,0c0-0.5-1-3.6-1-3.6l6.2-1.5c0.5,0,1,0,1,0h0.5l-1-3.6h-0.5c0,0.5,0,0.5-1,1l-10.3,2.6v0.5c1,0,1,0,1,0.5l3.6,12.9
			c0,0.5,0,0.5-0.5,1v0.5l10.8-2.6c0.5,0,1,0,1,0h0.5L442,350.1z M257.1,320.7l-9.8-9.3l-1-1v-0.5v-0.5l-4.6,2.1v0.5
			c0.5,0,0.5,0,0.5,0v1l2.1,13.4c0,0.5,0,0.5,0,0.5v0.5l3.6-1.5l0,0l-0.5-0.5c-0.5,0-0.5,0-1,0v-0.5l-0.5-2.6l4.6-2.6l2.1,2.1
			l0.5,0.5l0,0c0,0,0,0-0.5,0.5l0,0v0.5l3.6-2.1v-0.5C257.7,321.2,257.1,321.2,257.1,320.7z M249.9,318.6c-0.5,0-2.6,1-3.1,1.5
			c0-0.5-1-5.7-1-6.2l0,0C246.8,315,249.9,318.6,249.9,318.6L249.9,318.6z"/>
		<g>
			<path class="st1" d="M216.4,181.2l-5.7-2.1l3.1,5.7l-5.7,4.1l6.2,1.5l-0.5,6.2l5.2-4.1l4.6,4.1l-0.5-6.7l6.7-0.5l-5.7-4.1
				l3.1-5.7l-6.2,2.1l-2.6-6.2L216.4,181.2z"/>
			<path class="st1" d="M254,191l-5.7-2.1l3.1,5.7l-5.7,3.6l6.7,1.5l-1,6.7l5.2-4.1l5.2,4.1l-0.5-6.7l6.7-0.5l-5.7-4.1l3.1-5.7
				l-6.2,1.5l-2.6-6.2L254,191z"/>
			<polygon class="st1" points="211.7,223.6 214.3,229.8 220.5,227.7 217.4,233.4 223.1,237.5 216.4,238 216.9,244.8 211.7,240.6 
				206.5,244.8 207.1,238.6 200.9,237 206.5,233.4 203.4,227.7 209.1,229.8 			"/>
			<polygon class="st1" points="256.6,226.2 258.2,231.8 264.4,231.8 259.7,235.5 261.3,241.1 256.6,238 252,241.1 253.5,235.5 
				248.9,231.8 254.6,231.8 			"/>
			<path class="st1" d="M254,271.6l-6.2-2.1l3.1,5.7l-5.7,3.6l6.2,1.5l-0.5,6.7l5.2-4.6l4.6,4.6l-0.5-6.7l6.7-1l-5.7-4.1l3.1-5.7
				l-6.2,2.1l-2.6-6.2L254,271.6z"/>
		</g>
		<g>
			<g>
				<path class="st1" d="M242.7,151.8c-2.1,0-4.6,2.6-5.7,3.6c3.6-1.5,5.2-0.5,6.2-1.5C243.2,152.8,243.2,152.3,242.7,151.8z"/>
				<path class="st1" d="M244.8,152.8c-0.5,2.6,1,4.6,3.1,6.2l0.5-2.1C248.4,155.4,246.3,153.9,244.8,152.8z"/>
				<path class="st1" d="M243.7,157.5c0,0.5-1,1.5-0.5,2.1c0.5,1.5,2.6,2.1,3.1,4.1C247.3,161.6,245.8,158,243.7,157.5z"/>
				<path class="st1" d="M242.2,161.6l-1,1.5c-1.5,2.6,1.5,4.1,1,5.7c1-1,2.1-3.6,1.5-5.2C243.7,162.7,243.2,162.1,242.2,161.6z"/>
				<path class="st1" d="M236.5,161.6c-1,0.5-3.6,2.1-4.6,2.1c0.5,1,3.6,0.5,4.6,0.5c1.5,0,3.1-2.1,3.6-3.1L236.5,161.6z"/>
				<path class="st1" d="M239.1,166.3c-3.6,1-1,4.6-4.1,7.2c2.1-0.5,3.1-0.5,4.1-2.6C240.1,169.4,240.1,167.3,239.1,166.3z"/>
				<path class="st1" d="M212.7,158.5c-0.5,2.6,0,3.1,1,4.6c-0.5-3.6,3.6-5.2,1.5-8.3C214.3,155.4,212.7,157,212.7,158.5z"/>
				<path class="st1" d="M227.2,168.3c0,1,3.6,0.5,4.6,0c0.5,0,3.1-1,3.6-2.1C229.8,165.2,231.8,167.3,227.2,168.3z"/>
				<path class="st1" d="M233.9,160.1c0.5,0.5,3.6,0,4.6-1c0.5-0.5,3.1-1.5,3.1-2.6C236,155.9,238.6,158,233.9,160.1z"/>
				<path class="st1" d="M214.3,152.3c-1-0.5-3.1,1-4.1,1c-1.5,0.5-3.6,3.1-3.1,3.6C211.2,154.4,211.7,157.5,214.3,152.3z"/>
			</g>
			<g>
				<path class="st1" d="M222.5,142c2.1,0.5,3.1,1.5,4.1,2.1c1.5,0,2.1-0.5,2.6-1C228.7,141,224.6,141,222.5,142z"/>
				<path class="st1" d="M232.4,150.8c0-2.1,0.5-3.6,0.5-4.6c-0.5-1.5-1-2.1-1.5-2.1C229.3,145.6,230.8,149.2,232.4,150.8z"/>
				<path class="st1" d="M222.5,143.5c-1.5-0.5-4.6,0.5-5.7,1.5c2.1,0,3.6,2.1,6.2,1l1.5-1C224.1,144.6,223.1,144.1,222.5,143.5z"/>
				<path class="st1" d="M225.6,147.7c-0.5,1.5,0.5,4.6,1.5,5.7c-0.5-2.1,2.1-3.6,1-6.2l-1-1.5C226.7,146.1,226.2,147.2,225.6,147.7
					z"/>
				<path class="st1" d="M234.4,170.4h-2.1c-2.6,0.5-2.6,3.1-4.6,4.1c1,0,4.6,0,5.7-1.5C233.9,172.5,234.4,171.4,234.4,170.4z"/>
				<path class="st1" d="M215.3,147.2c-2.6,1-2.6,1.5-3.1,3.6c2.6-2.6,6.2,0,7.7-3.1C218.4,146.6,216.4,146.6,215.3,147.2z"/>
				<path class="st1" d="M221,152.3c0,2.6,1,3.1,2.6,4.1c-1.5-3.1,2.1-6.2-1-8.3C221.5,148.7,221,150.8,221,152.3z"/>
			</g>
			<path class="st1" d="M217.9,151.8c0,3.6,0,6.7,1.5,8.3c1-3.1,1-4.1,0-6.2C219.4,153.4,218.4,151.8,217.9,151.8z"/>
		</g>
	</g>
</g>
</svg>
