<?xml version="1.0" encoding="utf-8"?>
<!-- Generator: Adobe Illustrator 25.1.0, SVG Export Plug-In . SVG Version: 6.00 Build 0)  -->
<svg version="1.1" id="master_logo" xmlns="http://www.w3.org/2000/svg" xmlns:xlink="http://www.w3.org/1999/xlink" x="0px"
	 y="0px" viewBox="0 0 600 600" style="enable-background:new 0 0 600 600;" xml:space="preserve">
<style type="text/css">
	.st0{fill:#FFFFFF;}
	.st1{fill:#FFD040;}
	.st2{fill:#C10230;}
</style>
<g>
	<g>
		<path class="st0" d="M296,617.3l-6.6-2.9c-73.4-33.8-132.2-83-171.1-141.7c-92.5-141-95.4-287.1-99.1-442
			c0-11.7-0.7-23.5-0.7-35.2v-16.2h555l-0.7,16.2c0,11.7-0.7,23.5-0.7,35.2c-2.9,154.2-6.6,300.3-99.1,442
			c-38.2,58.7-97.6,107.9-170.3,141.7L296,617.3z"/>
	</g>
	<path class="st1" d="M294.5,170.2L77.2,340.5C42,232.6,43.4,120.3,40.5,5.7h507.3c-2.9,115.3-1.5,226.9-36.7,334.8L294.5,170.2z"/>
	<path class="st1" d="M470.7,432.3c-5.1,9.5-11,19.1-16.9,28.6c-38.9,58.7-96.2,102.8-159.3,132.2
		c-63.1-29.4-121.1-72.7-159.3-132.2c-5.9-8.8-16.9-27.9-16.9-27.9l176.9-140.2L470.7,432.3z"/>
	<path class="st2" d="M146.2,91.6c-25.7-5.1-48.5-24.2-43.3-48.5c0,0-0.7-5.9-2.9-7.3l-0.7-0.7c-0.7,0-1.5-0.7-2.9-1.5l-1.5-0.7
		c-0.7,0.7,0,2.2-0.7,2.9l-0.7,0.7c-0.7,0-0.7,0.7-0.7,0.7c-2.2,2.2-0.7,5.1-0.7,7.3c0,0.7,0,1.5,0,1.5c-0.7,0,0,0-1.5-0.7l-0.7-0.7
		c-0.7,0-2.2-0.7-2.2-0.7c0-0.7,0-0.7-0.7-0.7C86,42.4,86,41,85.3,39.5c0,0-0.7-1.5-0.7-2.2c0-1.5-4.4-4.4-2.2-2.9
		c0.7,0.7,0-0.7-2.2-1.5c-1.5,0-2.9,0-4.4,0c0,0-0.7,0-0.7,0.7c-1.5,1.5-2.9,2.9-5.1,2.9c0,0,0.7,0,0.7,0.7c0.7,1.5,0,2.9,0.7,4.4
		c0.7,1.5,1.5,2.2,2.9,3.7c1.5,0.7,2.9,0,4.4,1.5c0,0,2.2,0.7,0,2.2c-3.7,3.7-7.3,0.7-10.3,7.3c4.4-2.2,5.1,4.4,6.6,5.1
		c8.1,1.5,14.7,2.9,19.1,11c2.9,5.1-5.1,5.1,2.2,6.6c3.7,0.7,5.9,2.2,8.1,5.1c2.2,2.9,2.2,5.9,4.4,8.8c1.5,1.5,2.2,2.2,3.7,3.7
		c0.7,0.7,3.7,1.5,4.4,1.5s1.5,0.7,2.2,0.7c0.7,0,2.2,0.7,2.9,1.5c0.7,0.7,2.2,1.5,2.9,2.2c0.7,1.5,0,2.9,0.7,4.4c0,0.7,1.5,0,1.5,0
		c0.7,0,1.5,0,1.5,0c1.5-0.7,2.2-0.7,3.7-0.7c2.2,0,1.5,0.7,4.4,0c0.7,0,0.7,0.7,1.5,0.7s1.5,0.7,1.5,0c0.7-2.2,2.2-4.4,3.7-6.6
		c1.5-2.2,1.5-2.2,2.9-5.1C143.3,93.8,146.2,91.6,146.2,91.6"/>
	<path class="st2" d="M81.6,94.6c7.3,3.7,6.6,13.9,13.2,16.9c11.7,5.9,26.4,9.5,39.6,3.7c-2.9,8.8,0,16.2-0.7,17.6
		c-3.7,2.9-16.2-0.7-24.2-3.7c-5.1-2.2-9.5,5.9-15.4,5.1c0-0.7,0.7-2.9,0.7-3.7c-1.5-3.7-2.2-4.4-7.3-3.7c-2.9,0-1.5,2.9-6.6,5.1
		c-2.2-0.7-5.9-2.2-6.6,1.5c0,1.5-3.7-5.9-2.9-6.6c2.9-5.1,3.7-6.6,3.7-8.1s-7.3-4.4-8.1-2.9c-1.5,3.7-7.3-11.7,10.3-11
		c-5.1-2.9-4.4-3.7-2.9-7.3c0-0.7-1.5-2.2-2.9-0.7c-0.7-1.5,0.7-2.9,1.5-2.9C75.7,93.1,78.7,93.1,81.6,94.6"/>
	<path class="st2" d="M117.6,57.9c11,2.2,27.2-11.7,36.7,5.1C147,60.8,126.4,71.8,117.6,57.9"/>
	<path class="st2" d="M208.6,82.1c0,13.9-14.7,29.4-2.9,42.6c-5.1,0-10.3-1.5-13.9-4.4c-2.2-1.5-1.5,6.6-1.5,8.1
		c0,1.5-8.8-8.8-12.5-5.9c-9.5,7.3-13.9,10.3-28.6,10.3c-4.4,0-5.9,3.7-7.3,6.6c-3.7-6.6-0.7-22,0.7-28.6
		c5.1-18.4,24.2-24.2,38.9-33c11-6.6,15.4-19.1,14.7-30.8C204.2,56.4,208.6,70.3,208.6,82.1"/>
	<path class="st2" d="M139.6,240.7c2.2,0.7,0.7,2.2,0,2.2c-1.5,0.7-2.2,2.2-3.7,3.7c-0.7,1.5-1.5,2.2-0.7,3.7c0,0.7,0.7,2.2,0.7,2.9
		c0,0.7,0.7,0.7,1.5,1.5l0.7,0.7c-0.7-1.5,1.5-2.9,2.2-2.9c9.5,5.1,9.5-5.9,15.4-9.5c2.2-1.5,8.1,0,6.6,5.1
		c5.9-2.9,7.3-10.3,11.7-15.4c9.5-10.3,22.8-17.6,36-22.8c-4.4-5.1-11.7-8.8-14.7-14.7c-1.5-2.9-3.7-8.1,0-7.3
		c15.4,4.4,24.2-5.1,26.4-17.6c23.5,2.9,29.4-19.1,32.3-35.2c1.5-8.1,5.9-8.8,1.5-22.8c-2.2-5.9,10.3-7.3,8.1-17.6
		c-0.7-2.9-3.7-5.1-5.9-5.9c2.2,5.1-7.3,6.6-8.1,8.8c-1.5,3.7-3.7,5.9-3.7,9.5c-7.3-10.3-1.5-22.8,5.9-33
		c10.3-13.9,32.3-6.6,41.1,2.2c0-4.4-3.7-10.3-6.6-13.2c8.8-0.7,17.6,4.4,29.4-2.2c6.6-3.7,13.2-6.6,16.9-14.7
		c-13.9,2.2-33.8-8.8-46.3-11c-24.2-4.4-39.6,11.7-48.5,31.6c-8.8,19.1-2.9,33.8,5.9,48.5c2.2,3.7-8.1,1.5-12.5,3.7
		c-4.4,2.2-5.9,7.3-5.1,11.7c5.1-5.1,18.4-2.2,19.8,7.3c1.5,12.5-11,30.8-23.5,25.7c-13.2-5.9-20.6-19.8-25-35.2
		c-11,9.5-32.3,1.5-41.8,11c-9.5,8.8,14.7,14.7,23.5,19.1c3.7,1.5,6.6,5.1,5.9,9.5c-14.7-8.1-31.6,1.5-30.8,16.2
		c0.7,11.7,14.7,18.4,26.4,19.1c5.1,0.7,8.1,5.9,2.2,9.5c-10.3,6.6-22,13.9-33,2.2c-2.2-2.2-8.8-0.7-9.5,2.9
		c-0.7,1.5-0.7,4.4-0.7,5.9c0.7-0.7,1.5-2.2,2.2-2.2c0.7,0,2.2,1.5,2.2,2.2c-0.7,5.9-8.8,2.2-11,6.6l0,0c0,0,0,0.7-0.7,0.7
		c-1.5,2.9-3.7,5.1,0,7.3c0-0.7,2.2,2.2,1.5,2.9c0-2.9,2.9-2.9,2.9-2.9h1.5L139.6,240.7z"/>
	<path class="st2" d="M90.4,187.1c-1.5-0.7-2.9,0-4.4,0.7c-0.7,0.7-2.2,0-2.9,0.7c0,0.7-0.7,1.5,0,2.2c0,0,0,0.7,0.7,1.5
		c-2.2,0-3.7-1.5-5.1-2.9c-0.7-0.7-0.7-0.7-1.5-1.5c0,0,0-0.7-0.7-1.5c0-0.7,0-0.7,0-1.5c0-1.5,0-2.9,0.7-3.7c0-0.7,0.7-1.5,0.7-1.5
		c0-0.7,0.7-0.7,0.7-0.7c0.7-0.7,2.2-1.5,3.7-2.2c2.2-0.7,4.4-0.7,5.9,0.7c1.5,0.7,2.9,0.7,5.1,0.7c0.7,0,2.2-2.2,1.5-2.2
		c-5.1-1.5-5.1-2.2-6.6-7.3c-0.7-0.7-2.2,0-2.2,0.7c0-9.5,11-10.3,16.2-6.6c6.6,5.9,1.5,16.2,10.3,19.8c4.4,1.5,8.8,2.9,13.9,0.7
		c8.1-3.7,0-11.7,2.9-19.1c5.1-13.9,17.6-14.7,31.6-1.5c-12.5,4.4-18.4,21.3-11.7,32.3c-11-4.4-25.7,2.9-33,8.1
		c7.3-7.3-2.9-13.2-5.9-11.7l-2.9,2.2c-1.5,2.2-1.5,3.7-3.7,5.9c-0.7,0.7-1.5,1.5-2.9,1.5c-2.2,0.7-2.9,0-4.4-0.7c0,0-1.5,0-1.5,0.7
		c-0.7,1.5,0,1.5,0,2.2c0,0-1.5-0.7-1.5-1.5c-0.7-0.7-2.2-1.5-2.9-2.2c-0.7-0.7-1.5-3.7,0-5.1c0.7-1.5,2.2-2.2,2.9-2.9
		C92.6,188.5,91.9,187.1,90.4,187.1"/>
	<path class="st2" d="M364.3,62.3c0.7,0.7,0,2.2-1.5,2.9c-1.5,0.7-2.9,0-4.4,0c-5.1,2.2-5.1,15.4-4.4,13.2c0.7-1.5,4.4-0.7,7.3,0
		c4.4,0.7,7.3-7.3,10.3-7.3c6.6,0.7,12.5,8.8,14.7,13.9c0.7,0.7-2.9,0.7-2.9,4.4c8.8-0.7,16.2,5.1,22.8,10.3
		c2.9-5.1,5.9-8.8,9.5-12.5c-13.2-12.5-39.6-16.9-35.2-39.6c0.7-2.9-2.9-5.9-4.4-7.3c-2.2-1.5-5.9-1.5-8.1-2.2
		c2.2,5.1-2.2,5.9-1.5,13.9h-0.7c-1.5-0.7-2.9-1.5-4.4-2.9c-1.5-0.7-2.9-0.7-4.4-0.7c-0.7,0-1.5,0.7-2.2,0.7
		c-1.5,0.7-2.2,2.2-2.9,2.9c0,0,0,0.7-0.7,0.7l-0.7,1.5c0.7,0,2.9,0,2.9,0.7c0.7,0.7,0.7,2.2,1.5,2.9c0.7,1.5,1.5,1.5,2.9,1.5
		C359.9,62.3,361.3,62.3,364.3,62.3"/>
	<path class="st2" d="M398,53.5c8.1-0.7,16.2-6.6,25.7,3.7c-1.5-0.7-3.7-0.7-4.4,0c-10.3,8.1-22,5.1-28.6-4.4
		C392.9,51.2,395.8,53.5,398,53.5"/>
	<path class="st2" d="M434,82.8c13.2-6.6,27.2-12.5,33-28.6c0.7-2.9,3.7,5.1,3.7,5.1c7.3,20.6-7.3,40.4-4.4,61.7
		c-4.4-2.9-10.3-5.1-15.4-5.1c-18.4-0.7-22.8,11-24.2,9.5c-5.1-5.1-19.8-9.5-18.4-8.8C399.5,108.5,424.5,88,434,82.8"/>
	<path class="st2" d="M396.6,218.6c2.2,2.9-0.7-1.5,1.5,2.9c9.5-4.4,19.8-8.8,30.8-4.4c-5.1-22,11-27.2,12.5-30.8
		c2.2-5.1-8.8-15.4-16.9-12.5c-10.3,3.7-5.9,16.9-8.1,25.7c-0.7,5.1-7.3,8.8-12.5,6.6c-8.8-2.9-11.7-11-13.9-19.8
		c-1.5-5.9-13.2-6.6-15.4-1.5c-7.3,13.9,4.4-1.5,3.7,8.8c0,1.5-8.1,0.7-10.3,6.6c-1.5,4.4,2.9,7.3,8.1,8.8c0.7,0-0.7-2.2,0-2.9
		c0.7,0,4.4,1.5,4.4,2.2c-5.1,2.9-5.9,9.5,2.9,12.5c0,0-0.7-2.2,0-2.9C390,213.5,397.3,218.6,396.6,218.6"/>
	<path class="st2" d="M249.7,356.7c8.1,3.7,11,0,21.3-2.2c1.5,0,7.3,3.7,9.5,5.9C269.6,362.5,256.3,371.4,249.7,356.7"/>
	<path class="st2" d="M245.3,365.5c-0.7-0.7-1.5-0.7-2.2-0.7c-0.7,0-1.5-0.7-2.2-0.7c0,0-1.5,0-1.5-0.7c0,0.7,0.7,1.5,0,2.2
		c-0.7,0.7-1.5,0.7-2.2,1.5c0,0.7-0.7,0.7-0.7,1.5c0,0.7-0.7,2.2-0.7,2.9c0,0.7,0,1.5,0,2.2l0.7,1.5l1.5,1.5c1.5,1.5,0,0.7,2.2,2.2
		c0.7,0.7-0.7,2.2-1.5,2.2c-6.6-1.5-7.3-8.8-13.2-11c-4.4-1.5-10.3,1.5-11,8.1c1.5-0.7,2.9,0,2.9,1.5c1.5,6.6,11,2.9,11,7.3
		c0,2.9-7.3-0.7-9.5,1.5c-3.7,2.2-4.4,9.5-0.7,13.9c3.7-2.9,7.3,1.5,11-0.7c2.2-1.5,2.9-3.7,5.9-5.1c7.3-2.9,9.5,3.7,8.1,10.3
		c3.7-1.5,13.2-3.7,15.4-4.4c3.7-0.7,3.7-9.5,8.8-13.2c-6.6,0-14.7-2.9-16.9-9.5c0-0.7,0-1.5,0-2.2c0-2.2,0-5.1-0.7-7.3
		c0,0,0-0.7-0.7-0.7l-0.7-0.7c-0.7-0.7-1.5-1.5-2.2-2.2C246.1,366.2,245.3,365.5,245.3,365.5"/>
	<path class="st2" d="M196.9,411c2.9,5.9-11-3.7-16.9,5.1c-1.5,2.9-0.7,8.8-0.7,11.7c2.9-2.9,6.6,2.9,12.5-2.9
		c0.7,0.7,1.5,0.7,0.7,2.2c-2.2,2.2-3.7,5.1-2.2,8.1c0.7,1.5,5.9,5.1,5.9,5.1c0.7-3.7,6.6,0,8.1-7.3c0.7-2.9,1.5-8.1,5.9-5.9
		c3.7,1.5,4.4,5.9,3.7,10.3c6.6-2.2,16.9-8.1,23.5-3.7c8.8,6.6,23.5,8.8,33.8,12.5c-6.6-4.4-8.8-16.9-8.1-25
		c-16.2,2.9-33,2.9-48.5-4.4c-4.4-2.2-3.7-6.6-5.1-10.3c-1.5-4.4-6.6-8.1-11.7-8.1c-2.9,0-9.5,5.9-8.1,5.9c-0.7,0-0.7,0.7-0.7,1.5
		c1.5-0.7,2.9,0,3.7,1.5c0.7,0.7,0.7,2.2,1.5,2.9C194.7,409.5,196.1,409.5,196.9,411"/>
	<path class="st2" d="M235.8,499.1c2.9-3.7,5.9-1.5,7.3-1.5c2.9,0,2.9,4.4,2.9,7.3c13.2-5.9,25-15.4,40.4-11.7
		c-8.8-9.5-5.9-28.6,6.6-31.6c0,0-8.1-1.5-8.8-2.2c-11-6.6-24.2-13.2-31.6,0.7c-3.7,7.3,2.9,13.2,8.1,19.1c0.7,0.7-0.7,1.5-1.5,2.2
		c-11.7,2.9-33.8,5.1-34.5-13.2c0-1.5-4.4-2.9-7.3-2.9c-8.8,0-8.8,11.7-7.3,10.3c2.2-1.5,8.1-0.7,7.3,3.7c-0.7,4.4-8.8-2.2-11.7,2.2
		c-2.9,3.7-2.9,9.5-0.7,13.2c-0.7-1.5,1.5-2.2,2.2-2.9c8.8-1.5,9.5,1.5,6.6,10.3c0,0.7,2.9,5.9,4.4,6.6v-1.5c0-0.7,0.7-0.7,1.5-0.7
		c0.7,0,2.2,0,2.9-0.7c0.7,0,0.7-0.7,1.5-0.7c0.7-0.7,1.5-0.7,1.5-1.5c2.2-2.9,3.7-5.9,7.3-6.6C233.6,496.9,234.3,497.6,235.8,499.1
		"/>
	<path class="st2" d="M329.8,540.2c8.1-8.1,14.7-19.1,23.5-27.2c-9.5-5.9-22-11.7-22.8-24.2c0-0.7,1.5-1.5,1.5-1.5
		c13.2,7.3,31.6,8.1,41.8-5.9c8.1-11,11-29.4,26.4-30.1c-5.1-9.5,0.7-21.3,8.8-26.4c-2.9-0.7-6.6-3.7-9.5-2.9
		c-3.7,0.7-5.9,5.9-10.3,6.6c6.6-23.5-6.6-55.8-32.3-55.8c-5.1,0-11,3.7-12.5,9.5c-1.5,5.1-2.2,11,1.5,15.4
		c8.8,10.3,14.7,21.3,11.7,34.5c5.9-5.1,11.7-12.5,11.7-21.3c0-2.2,3.7-0.7,4.4-1.5c7.3-10.3-4.4-16.9-10.3-23.5
		c-1.5-1.5,2.9-4.4,2.9-4.4c22,6.6,24.2,33.8,14.7,51.4c-2.2-2.9-11.7-2.2-15.4-2.9c10.3,5.1,7.3,5.9,7.3,7.3
		c-0.7,2.9-10.3,1.5-11.7,3.7c-2.9,3.7-5.1,5.9-5.9,19.1c4.4-4.4,10.3-11.7,16.2-8.8c13.2,6.6-0.7,29.4-13.2,33
		c-10.3,2.9-20.6,0-26.4-9.5c-9.5-13.2-2.9-29.4-9.5-42.6c-5.9,1.5-4.4,8.8-7.3,7.3c-10.3-4.4-16.2-15.4-23.5-25
		c-2.9,0.7-4.4,3.7-7.3,3.7c-4.4,0-12.5-1.5-14.7,0.7c-2.2,2.2-3.7,21.3,14.7,27.9c12.5,4.4,22,8.8,30.1,18.4
		c-5.1,0.7-7.3-2.2-11-2.2c-4.4,0-6.6,1.5-10.3,2.9c-2.9,1.5-6.6,7.3-5.9,12.5c2.9,22.8,29.4,22.8,41.8,36.7
		c2.2,2.2-2.9,12.5-8.1,16.2c-4.4,3.7-14.7-5.1-12.5-12.5c1.5-5.9-12.5-9.5-17.6-2.9c2.2,0,2.2,0.7,2.2,2.2
		c-0.7,5.1,5.9,5.9,5.9,8.1c0,3.7-3.7-1.5-5.9-2.2c-5.9-1.5-11,0.7-14.7,5.1c-0.7,1.5-2.9,3.7-2.2,5.9c4.4-2.2,6.6,4.4,10.3,2.2
		c2.2-1.5,4.4-3.7,7.3-2.9c1.5,0,2.2,2.2,1.5,2.2c-8.1,5.1-13.9,11.7-8.1,19.8c0-2.2,1.5-2.9,2.9-3.7c2.2-0.7,5.1,0.7,7.3,0
		c3.7-1.5,1.5-5.1,2.9-7.3c2.2-4.4,9.5-11,13.9-5.9c0.7,0.7,0,4.4-2.2,4.4c2.2,0,4.4,2.2,6.6,1.5c0.7,0,1.5,0,1.5,0
		c0.7,0,0.7,0,1.5-0.7c0.7-0.7,2.2-2.2,2.2-3.7c1.5,0,3.7,0,5.1-1.5C328.3,541.7,329.8,540.2,329.8,540.2"/>
	<path class="st2" d="M292.3,377.2c14.7-4.4,30.8-11.7,34.5-27.9c4.4,2.9,5.9,8.8,5.9,12.5c0,19.8-8.8,37.4-4.4,58.7
		c0.7,2.2,5.1,9.5,2.9,8.8c-2.2-0.7-7.3-5.9-10.3-3.7c-3.7,2.9-2.9,7.3-5.1,5.9c-6.6-3.7-13.2-9.5-16.2-16.9
		c-1.5-2.9-0.7-8.8-1.5-8.1c-5.1,5.1-14.7,6.6-22,7.3c1.5-1.5,2.9-7.3,2.9-8.8c-5.9-2.9-13.9,6.6-13.9,5.9c0-2.9,0.7-4.4,0.7-5.1
		C269.6,394.1,277.6,381.6,292.3,377.2"/>
	<path class="st2" d="M184.4,34.4c3.7,0,6.6-2.2,8.8-5.1c0,2.2,2.9,5.1,1.5,7.3c-1.5,2.9-5.1,4.4-5.9,7.3c-1.5,5.1,2.9,10.3,0,16.2
		c-9.5,15.4-29.4,10.3-43.3,13.9c0.7-1.5,0-4.4-1.5-5.1c5.9,0.7,14.7-0.7,16.2-5.1c2.2-5.9,2.9-10.3,0-14.7
		c-4.4-8.1-13.9-4.4-20.6-1.5c-0.7-5.1,3.7-8.1,5.9-8.1c7.3-2.2,13.9-5.1,21.3-7.3C172.6,30,177.8,35.1,184.4,34.4 M174.1,42.4
		c0.7,0,0.7-0.7,0.7-0.7c-5.1-7.3-11.7-6.6-13.9,0C158.7,46.1,169,44.6,174.1,42.4"/>
	<path class="st2" d="M453.1,64.5c-2.2,1.5-5.1,1.5-7.3,2.9c-1.5,0.7-2.9,2.2-4.4,2.9c-0.7,0.7-2.9,1.5-3.7,1.5
		c-2.2,0.7-1.5,0-3.7,0.7c-1.5,0-1.5,0-2.9,0c-1.5,0-4.4,0-5.9,0c-2.9,0-2.9,0-5.9,0c-1.5,0-2.9-0.7-4.4-1.5c-0.7,0-2.2-0.7-2.9-0.7
		c0-0.7,0-2.2,0.7-2.9c0.7-0.7,1.5,0,2.9,0h2.2c0.7,0,0.7,0,1.5,0c0.7,0,1.5,0,2.2-0.7c0.7-0.7,1.5-0.7,2.2-1.5l0.7-0.7
		c0.7-0.7,1.5-0.7,1.5-1.5c1.5-1.5,2.9-3.7,2.9-5.9c0-1.5,0-3.7,0-5.1v-0.7c0-1.5-0.7-2.9-1.5-3.7c-4.4-7.3-13.9,0-20.6-0.7
		c0-1.5,0-4.4,0.7-5.1c4.4-5.9,11.7-2.9,16.2-5.9c12.5-9.5,16.2-2.9,29.4,0.7c3.7,1.5,9.5-1.5,13.2-2.9c0.7-0.7,0.7,5.9,0.7,6.6
		c-1.5,4.4-5.9,3.7-7.3,8.1c-2.2,5.9-2.9,13.2-8.8,16.2 M443.6,39.5C444.3,39.5,443.6,40.2,443.6,39.5c-5.9-2.9-13.2-6.6-16.2,0.7
		C425.9,46.1,438.4,42.4,443.6,39.5"/>
	<path class="st2" d="M310.7,336.1c5.9,1.5,12.5,1.5,16.2-3.7c2.2,8.1-5.1,8.8-6.6,13.2c-2.2,5.9-2.2,11.7-7.3,14.7
		c-11.7,5.9-25.7,13.2-38.9,14.7c0-1.5-0.7-4.4,1.5-4.4c4.4,0,8.1-3.7,9.5-6.6c1.5-3.7,0-13.2-3.7-14.7c-3.7-2.2-7.3,1.5-11,2.9
		c-1.5-3.7,4.4-11,14.7-10.3c0,0,5.1-5.9,4.4-5.1C294.5,332.4,301.9,334.6,310.7,336.1 M293.1,346.4c2.2,0.7,8.8-2.9,11.7-4.4
		c0.7,0,0.7-0.7,1.5-1.5l0,0c-2.2-0.7-3.7-0.7-5.9-0.7c-1.5,0-2.2-1.5-3.7-1.5c-0.7,0-0.7,0-1.5,0c-0.7,0-0.7,0.7-1.5,0.7
		c-0.7,0-1.5,0-2.2,0.7s-1.5,1.5-1.5,2.2s0,2.2,0.7,2.9C291.6,346.4,292.3,346.4,293.1,346.4"/>
	<path class="st2" d="M489.8,281c0-2.2,4.4-7.3,5.1-11.7c0.7-14.7,8.8-21.3,9.5-36.7c0-3.7-16.9-8.1-17.6-16.2
		c0-4.4-1.5-10.3,2.2-10.3c5.9,0,11-0.7,14.7-4.4c17.6-15.4,2.9-36,0.7-54.3c-0.7-4.4,7.3-12.5,6.6-15.4
		c-1.5-15.4-4.4-30.1,1.5-45.5c-4.4,3.7-5.9,10.3-9.5,13.9c-1.5,1.5-2.9-2.2-2.2-2.2c2.2-13.2,7.3-25.7,13.9-38.2
		c7.3-15.4,3.7-27.9-10.3-32.3c-12.5-4.4-25,7.3-26.4,19.8c-1.5,11,2.2,24.2,5.1,33c0.7,2.9,0,5.9,0.7,8.1
		c2.2-8.8,2.2-18.4,2.2-28.6c0-2.2,2.2-5.9,4.4-5.9c8.1-2.2,12.5,3.7,11.7,8.1c-1.5,14.7-4.4,25.7-8.1,39.6
		c-3.7,16.2,2.2,32.3,3.7,48.5c-6.6-3.7-13.2-3.7-15.4,5.9c-1.5,5.1,3.7,11,5.1,15.4c0-6.6,5.9-14.7,11.7-11
		c7.3,4.4,7.3,27.2,5.9,30.1c-3.7,6.6-8.8,11-16.9,8.8c-4.4-1.5-2.9-8.1-5.1-10.3c-13.9-14.7-20.6-31.6-22-52.1
		c0-2.9,1.5-10.3,0.7-11c-18.4-7.3-27.2,0-34.5,11c-1.5-2.9-8.1-8.1-8.8-6.6c-3.7,6.6-2.2,18.4,2.9,22.8
		c13.9,12.5,28.6,20.6,36,38.2c-8.8,0.7-16.9,3.7-19.8,12.5c-3.7,9.5-2.2,22,7.3,25.7c8.1,2.9,22,0,25,0c8.8,1.5,18.4,8.1,16.9,16.2
		c0,0.7-3.7,19.1-11.7,14.7c-4.4-2.2-2.2-12.5-8.8-14.7c-8.8-2.2-11,10.3-10.3,9.5c2.9-2.9,5.1,1.5,10.3,5.1
		c-19.1-4.4-13.2,13.2-12.5,11c0.7-2.9,4.4,0,11,0l-1.5,1.5c-0.7,1.5-1.5,2.9-2.2,4.4c-0.7,0.7,0,1.5,0,2.9c0,0.7,0.7,1.5,0.7,2.2
		c0,0,0,0,0.7,0.7c0,0,0,0.7,0.7,0.7c0.7,0-0.7-1.5,0.7-1.5c0,0,0.7,0,1.5,0s1.5,0.7,1.5,0.7c0.7,0,0.7,0,1.5,0c1.5,0,1.5,0,2.9,0
		c0.7,0,2.2-0.7,2.9-1.5c-1.5,0.7,1.5-1.5,1.5-0.7c1.5-2.2,2.2-1.5,2.2-2.2c2.2-3.7,3.7-4.4,8.1-3.7c0.7,0,1.5,0.7,1.5,1.5
		c0,0.7,1.5,2.9,0.7,2.2C488.3,278.1,489.8,278.8,489.8,281"/>
	<path class="st2" d="M353.3,107c-1.5-0.7-1.5-2.2-2.2-2.9l-0.7-0.7c-0.7-0.7-0.7-0.7-0.7-1.5c-0.7-2.9-0.7-5.9,2.2-7.3l0,0l0.7-0.7
		c0,0,0.7,0,0-0.7l0,0c0.7-0.7,0.7-1.5-0.7-2.2c0.7,0,1.5,0,2.2,0h0.7c2.9,0.7,6.6,1.5,7.3,4.4l0.7,1.5c2.9,7.3,2.2,25,19.1,29.4
		c8.8,2.2,18.4,5.1,27.2,5.1c-2.2,8.8-2.2,20.6,5.1,27.2c-10.3-5.9-17.6-4.4-26.4-13.2c-4.4-3.7-13.2-8.8-17.6-8.1
		c-2.2,0,2.9-5.9-1.5-7.3c-2.9-0.7-10.3-0.7-11,1.5c-5.9,8.8-12.5,8.8-14.7,11c2.2-2.2-9.5-11.7,5.1-17.6c1.5-0.7,2.2-3.7,0-4.4
		c-2.9-1.5-5.1,0.7-8.1,2.2c-3.7,2.2-4.4-5.1-9.5-2.9c-0.7-15.4,12.5-16.9,21.3-7.3c0.7,0.7,2.9,0,2.2-0.7L353.3,107z"/>
	<path d="M35.4,0.6v5.1c0,11.7,0.7,22.8,0.7,34.5c2.9,148.3,5.9,288.5,94,423.6c36.7,55.8,92.5,102.1,161.5,133.6l2.2,0.7l2.2-0.7
		c69-32.3,124.8-78.6,161.5-133.6c88.1-134.4,91-274.6,94-423.6c0-11.7,0.7-22.8,0.7-34.5V0.6C552.2,0.6,35.4,0.6,35.4,0.6z
		 M91.2,364.7L294.5,204L497.2,364c-5.1,13.2-11,26.4-16.9,39.6L294.5,256.8L108,403.7C102.2,391.2,96.3,378,91.2,364.7z M449.4,458
		c-35.2,53.6-88.8,98.4-154.9,129.2c-66.8-30.8-120.4-75.6-155.6-129.2c-5.9-8.8-11-17.6-16.2-27.2L295.3,295l171.8,135.1
		C461.2,439.6,455.3,448.4,449.4,458z M541.9,39.5c-2.2,102.1-4.4,200.4-34.5,295.1L294.5,166.5L80.9,335.4
		C50.8,240.7,48.6,141.6,46.4,39.5c0-9.5-0.7-19.8-0.7-29.4h497C542.7,20.4,542.7,30,541.9,39.5z"/>
</g>
</svg>
