<?xml version="1.0" encoding="utf-8"?>
<!-- Generator: Adobe Illustrator 25.1.0, SVG Export Plug-In . SVG Version: 6.00 Build 0)  -->
<svg version="1.1" id="master_logo" xmlns="http://www.w3.org/2000/svg" xmlns:xlink="http://www.w3.org/1999/xlink" x="0px"
	 y="0px" viewBox="0 0 89.9 97.4" style="enable-background:new 0 0 89.9 97.4;" xml:space="preserve">
<style type="text/css">
	.st0{fill:#FFFFFF;}
	.st1{fill:#FFD040;}
	.st2{fill:#C10230;}
</style>
<g>
	<g>
		<path class="st0" d="M45.4,93.8l-0.9-0.4c-10-4.6-18-11.3-23.3-19.3C8.6,54.9,8.2,35,7.7,13.9c0-1.6-0.1-3.2-0.1-4.8L7.6,6.9h75.6
			l-0.1,2.2c0,1.6-0.1,3.2-0.1,4.8c-0.4,21-0.9,40.9-13.5,60.2c-5.2,8-13.3,14.7-23.2,19.3L45.4,93.8z"/>
	</g>
	<path class="st1" d="M45.2,32.9L15.6,56.1c-4.8-14.7-4.6-30-5-45.6h69.1c-0.4,15.7-0.2,30.9-5,45.6L45.2,32.9z"/>
	<path class="st1" d="M69.2,68.6c-0.7,1.3-1.5,2.6-2.3,3.9c-5.3,8-13.1,14-21.7,18c-8.6-4-16.5-9.9-21.7-18
		c-0.8-1.2-2.3-3.8-2.3-3.8l24.1-19.1L69.2,68.6z"/>
	<path class="st2" d="M25,22.2c-3.5-0.7-6.6-3.3-5.9-6.6c0,0-0.1-0.8-0.4-1c0,0-0.1-0.1-0.1-0.1c-0.1,0-0.2-0.1-0.4-0.2
		c0,0-0.2-0.1-0.2-0.1c-0.1,0.1,0,0.3-0.1,0.4c0,0-0.1,0.1-0.1,0.1c-0.1,0-0.1,0.1-0.1,0.1c-0.3,0.3-0.1,0.7-0.1,1
		c0,0.1,0,0.2,0,0.2c-0.1,0,0,0-0.2-0.1c0,0-0.1-0.1-0.1-0.1c-0.1,0-0.3-0.1-0.3-0.1c0-0.1,0-0.1-0.1-0.1c-0.1-0.1-0.1-0.3-0.2-0.5
		c0,0-0.1-0.2-0.1-0.3c0-0.2-0.6-0.6-0.3-0.4c0.1,0.1,0-0.1-0.3-0.2c-0.2,0-0.4,0-0.6,0c0,0-0.1,0-0.1,0.1c-0.2,0.2-0.4,0.4-0.7,0.4
		c0,0,0.1,0,0.1,0.1c0.1,0.2,0,0.4,0.1,0.6c0.1,0.2,0.2,0.3,0.4,0.5c0.2,0.1,0.4,0,0.6,0.2c0,0,0.3,0.1,0,0.3c-0.5,0.5-1,0.1-1.4,1
		c0.6-0.3,0.7,0.6,0.9,0.7c1.1,0.2,2,0.4,2.6,1.5c0.4,0.7-0.7,0.7,0.3,0.9c0.5,0.1,0.8,0.3,1.1,0.7c0.3,0.4,0.3,0.8,0.6,1.2
		c0.2,0.2,0.3,0.3,0.5,0.5c0.1,0.1,0.5,0.2,0.6,0.2c0.1,0,0.2,0.1,0.3,0.1c0.1,0,0.3,0.1,0.4,0.2c0.1,0.1,0.3,0.2,0.4,0.3
		c0.1,0.2,0,0.4,0.1,0.6c0,0.1,0.2,0,0.2,0c0.1,0,0.2,0,0.2,0c0.2-0.1,0.3-0.1,0.5-0.1c0.3,0,0.2,0.1,0.6,0c0.1,0,0.1,0.1,0.2,0.1
		c0.1,0,0.2,0.1,0.2,0c0.1-0.3,0.3-0.6,0.5-0.9c0.2-0.3,0.2-0.3,0.4-0.7C24.6,22.5,25,22.2,25,22.2"/>
	<path class="st2" d="M16.2,22.6c1,0.5,0.9,1.9,1.8,2.3c1.6,0.8,3.6,1.3,5.4,0.5c-0.4,1.2,0,2.2-0.1,2.4c-0.5,0.4-2.2-0.1-3.3-0.5
		c-0.7-0.3-1.3,0.8-2.1,0.7c0-0.1,0.1-0.4,0.1-0.5C17.8,27,17.7,26.9,17,27c-0.4,0-0.2,0.4-0.9,0.7c-0.3-0.1-0.8-0.3-0.9,0.2
		c0,0.2-0.5-0.8-0.4-0.9c0.4-0.7,0.5-0.9,0.5-1.1c0-0.2-1-0.6-1.1-0.4C14,26,13.2,23.9,15.6,24c-0.7-0.4-0.6-0.5-0.4-1
		c0-0.1-0.2-0.3-0.4-0.1c-0.1-0.2,0.1-0.4,0.2-0.4C15.4,22.4,15.8,22.4,16.2,22.6"/>
	<path class="st2" d="M21.1,17.6c1.5,0.3,3.7-1.6,5,0.7C25.1,18,22.3,19.5,21.1,17.6"/>
	<path class="st2" d="M33.5,20.9c0,1.9-2,4-0.4,5.8c-0.7,0-1.4-0.2-1.9-0.6C30.9,25.9,31,27,31,27.2c0,0.2-1.2-1.2-1.7-0.8
		c-1.3,1-1.9,1.4-3.9,1.4c-0.6,0-0.8,0.5-1,0.9c-0.5-0.9-0.1-3,0.1-3.9c0.7-2.5,3.3-3.3,5.3-4.5c1.5-0.9,2.1-2.6,2-4.2
		C32.9,17.4,33.5,19.3,33.5,20.9"/>
	<path class="st2" d="M24.1,42.5c0.3,0.1,0.1,0.3,0,0.3c-0.2,0.1-0.3,0.3-0.5,0.5c-0.1,0.2-0.2,0.3-0.1,0.5c0,0.1,0.1,0.3,0.1,0.4
		c0,0.1,0.1,0.1,0.2,0.2c0,0,0.1,0.1,0.1,0.1c-0.1-0.2,0.2-0.4,0.3-0.4c1.3,0.7,1.3-0.8,2.1-1.3c0.3-0.2,1.1,0,0.9,0.7
		c0.8-0.4,1-1.4,1.6-2.1c1.3-1.4,3.1-2.4,4.9-3.1c-0.6-0.7-1.6-1.2-2-2c-0.2-0.4-0.5-1.1,0-1c2.1,0.6,3.3-0.7,3.6-2.4
		c3.2,0.4,4-2.6,4.4-4.8c0.2-1.1,0.8-1.2,0.2-3.1c-0.3-0.8,1.4-1,1.1-2.4c-0.1-0.4-0.5-0.7-0.8-0.8c0.3,0.7-1,0.9-1.1,1.2
		c-0.2,0.5-0.5,0.8-0.5,1.3c-1-1.4-0.2-3.1,0.8-4.5c1.4-1.9,4.4-0.9,5.6,0.3c0-0.6-0.5-1.4-0.9-1.8c1.2-0.1,2.4,0.6,4-0.3
		c0.9-0.5,1.8-0.9,2.3-2c-1.9,0.3-4.6-1.2-6.3-1.5c-3.3-0.6-5.4,1.6-6.6,4.3c-1.2,2.6-0.4,4.6,0.8,6.6c0.3,0.5-1.1,0.2-1.7,0.5
		c-0.6,0.3-0.8,1-0.7,1.6c0.7-0.7,2.5-0.3,2.7,1c0.2,1.7-1.5,4.2-3.2,3.5c-1.8-0.8-2.8-2.7-3.4-4.8c-1.5,1.3-4.4,0.2-5.7,1.5
		c-1.3,1.2,2,2,3.2,2.6c0.5,0.2,0.9,0.7,0.8,1.3c-2-1.1-4.3,0.2-4.2,2.2c0.1,1.6,2,2.5,3.6,2.6c0.7,0.1,1.1,0.8,0.3,1.3
		c-1.4,0.9-3,1.9-4.5,0.3c-0.3-0.3-1.2-0.1-1.3,0.4c-0.1,0.2-0.1,0.6-0.1,0.8c0.1-0.1,0.2-0.3,0.3-0.3c0.1,0,0.3,0.2,0.3,0.3
		c-0.1,0.8-1.2,0.3-1.5,0.9c0,0,0,0,0,0c0,0,0,0.1-0.1,0.1c-0.2,0.4-0.5,0.7,0,1c0-0.1,0.3,0.3,0.2,0.4c0-0.4,0.4-0.4,0.4-0.4l0.2,0
		L24.1,42.5z"/>
	<path class="st2" d="M17.4,35.2c-0.2-0.1-0.4,0-0.6,0.1c-0.1,0.1-0.3,0-0.4,0.1c0,0.1-0.1,0.2,0,0.3c0,0,0,0.1,0.1,0.2
		c-0.3,0-0.5-0.2-0.7-0.4c-0.1-0.1-0.1-0.1-0.2-0.2c0,0,0-0.1-0.1-0.2c0-0.1,0-0.1,0-0.2c0-0.2,0-0.4,0.1-0.5c0-0.1,0.1-0.2,0.1-0.2
		c0-0.1,0.1-0.1,0.1-0.1c0.1-0.1,0.3-0.2,0.5-0.3c0.3-0.1,0.6-0.1,0.8,0.1c0.2,0.1,0.4,0.1,0.7,0.1c0.1,0,0.3-0.3,0.2-0.3
		c-0.7-0.2-0.7-0.3-0.9-1c-0.1-0.1-0.3,0-0.3,0.1c0-1.3,1.5-1.4,2.2-0.9c0.9,0.8,0.2,2.2,1.4,2.7c0.6,0.2,1.2,0.4,1.9,0.1
		c1.1-0.5,0-1.6,0.4-2.6c0.7-1.9,2.4-2,4.3-0.2c-1.7,0.6-2.5,2.9-1.6,4.4c-1.5-0.6-3.5,0.4-4.5,1.1c1-1-0.4-1.8-0.8-1.6l-0.4,0.3
		c-0.2,0.3-0.2,0.5-0.5,0.8c-0.1,0.1-0.2,0.2-0.4,0.2c-0.3,0.1-0.4,0-0.6-0.1c0,0-0.2,0-0.2,0.1c-0.1,0.2,0,0.2,0,0.3
		c0,0-0.2-0.1-0.2-0.2c-0.1-0.1-0.3-0.2-0.4-0.3c-0.1-0.1-0.2-0.5,0-0.7c0.1-0.2,0.3-0.3,0.4-0.4C17.7,35.4,17.6,35.2,17.4,35.2"/>
	<path class="st2" d="M54.7,18.2c0.1,0.1,0,0.3-0.2,0.4c-0.2,0.1-0.4,0-0.6,0c-0.7,0.3-0.7,2.1-0.6,1.8c0.1-0.2,0.6-0.1,1,0
		c0.6,0.1,1-1,1.4-1c0.9,0.1,1.7,1.2,2,1.9c0.1,0.1-0.4,0.1-0.4,0.6c1.2-0.1,2.2,0.7,3.1,1.4c0.4-0.7,0.8-1.2,1.3-1.7
		c-1.8-1.7-5.4-2.3-4.8-5.4c0.1-0.4-0.4-0.8-0.6-1C56,15,55.5,15,55.2,14.9c0.3,0.7-0.3,0.8-0.2,1.9c0,0-0.1,0-0.1,0
		c-0.2-0.1-0.4-0.2-0.6-0.4c-0.2-0.1-0.4-0.1-0.6-0.1c-0.1,0-0.2,0.1-0.3,0.1c-0.2,0.1-0.3,0.3-0.4,0.4c0,0,0,0.1-0.1,0.1
		c0,0-0.1,0.2-0.1,0.2c0.1,0,0.4,0,0.4,0.1c0.1,0.1,0.1,0.3,0.2,0.4c0.1,0.2,0.2,0.2,0.4,0.2C54.1,18.2,54.3,18.2,54.7,18.2"/>
	<path class="st2" d="M59.3,17c1.1-0.1,2.2-0.9,3.5,0.5c-0.2-0.1-0.5-0.1-0.6,0c-1.4,1.1-3,0.7-3.9-0.6C58.6,16.7,59,17,59.3,17"/>
	<path class="st2" d="M64.2,21c1.8-0.9,3.7-1.7,4.5-3.9c0.1-0.4,0.5,0.7,0.5,0.7c1,2.8-1,5.5-0.6,8.4c-0.6-0.4-1.4-0.7-2.1-0.7
		c-2.5-0.1-3.1,1.5-3.3,1.3c-0.7-0.7-2.7-1.3-2.5-1.2C59.5,24.5,62.9,21.7,64.2,21"/>
	<path class="st2" d="M59.1,39.5c0.3,0.4-0.1-0.2,0.2,0.4c1.3-0.6,2.7-1.2,4.2-0.6c-0.7-3,1.5-3.7,1.7-4.2c0.3-0.7-1.2-2.1-2.3-1.7
		c-1.4,0.5-0.8,2.3-1.1,3.5c-0.1,0.7-1,1.2-1.7,0.9c-1.2-0.4-1.6-1.5-1.9-2.7c-0.2-0.8-1.8-0.9-2.1-0.2c-1,1.9,0.6-0.2,0.5,1.2
		c0,0.2-1.1,0.1-1.4,0.9c-0.2,0.6,0.4,1,1.1,1.2c0.1,0-0.1-0.3,0-0.4c0.1,0,0.6,0.2,0.6,0.3c-0.7,0.4-0.8,1.3,0.4,1.7
		c0,0-0.1-0.3,0-0.4C58.2,38.8,59.2,39.5,59.1,39.5"/>
	<path class="st2" d="M39.1,58.3c1.1,0.5,1.5,0,2.9-0.3c0.2,0,1,0.5,1.3,0.8C41.8,59.1,40,60.3,39.1,58.3"/>
	<path class="st2" d="M38.5,59.5c-0.1-0.1-0.2-0.1-0.3-0.1c-0.1,0-0.2-0.1-0.3-0.1c0,0-0.2,0-0.2-0.1c0,0.1,0.1,0.2,0,0.3
		c-0.1,0.1-0.2,0.1-0.3,0.2c0,0.1-0.1,0.1-0.1,0.2c0,0.1-0.1,0.3-0.1,0.4c0,0.1,0,0.2,0,0.3c0,0,0.1,0.2,0.1,0.2
		c0,0,0.2,0.2,0.2,0.2c0.2,0.2,0,0.1,0.3,0.3c0.1,0.1-0.1,0.3-0.2,0.3c-0.9-0.2-1-1.2-1.8-1.5c-0.6-0.2-1.4,0.2-1.5,1.1
		c0.2-0.1,0.4,0,0.4,0.2c0.2,0.9,1.5,0.4,1.5,1c0,0.4-1-0.1-1.3,0.2c-0.5,0.3-0.6,1.3-0.1,1.9c0.5-0.4,1,0.2,1.5-0.1
		c0.3-0.2,0.4-0.5,0.8-0.7c1-0.4,1.3,0.5,1.1,1.4c0.5-0.2,1.8-0.5,2.1-0.6c0.5-0.1,0.5-1.3,1.2-1.8c-0.9,0-2-0.4-2.3-1.3
		c0-0.1,0-0.2,0-0.3c0-0.3,0-0.7-0.1-1c0,0,0-0.1-0.1-0.1c0,0-0.1-0.1-0.1-0.1c-0.1-0.1-0.2-0.2-0.3-0.3
		C38.6,59.6,38.5,59.5,38.5,59.5"/>
	<path class="st2" d="M31.9,65.7c0.4,0.8-1.5-0.5-2.3,0.7c-0.2,0.4-0.1,1.2-0.1,1.6c0.4-0.4,0.9,0.4,1.7-0.4
		c0.1,0.1,0.2,0.1,0.1,0.3c-0.3,0.3-0.5,0.7-0.3,1.1c0.1,0.2,0.8,0.7,0.8,0.7c0.1-0.5,0.9,0,1.1-1c0.1-0.4,0.2-1.1,0.8-0.8
		c0.5,0.2,0.6,0.8,0.5,1.4c0.9-0.3,2.3-1.1,3.2-0.5c1.2,0.9,3.2,1.2,4.6,1.7c-0.9-0.6-1.2-2.3-1.1-3.4c-2.2,0.4-4.5,0.4-6.6-0.6
		c-0.6-0.3-0.5-0.9-0.7-1.4c-0.2-0.6-0.9-1.1-1.6-1.1c-0.4,0-1.3,0.8-1.1,0.8c-0.1,0-0.1,0.1-0.1,0.2c0.2-0.1,0.4,0,0.5,0.2
		c0.1,0.1,0.1,0.3,0.2,0.4C31.6,65.5,31.8,65.5,31.9,65.7"/>
	<path class="st2" d="M37.2,77.7c0.4-0.5,0.8-0.2,1-0.2c0.4,0,0.4,0.6,0.4,1c1.8-0.8,3.4-2.1,5.5-1.6c-1.2-1.3-0.8-3.9,0.9-4.3
		c0,0-1.1-0.2-1.2-0.3c-1.5-0.9-3.3-1.8-4.3,0.1c-0.5,1,0.4,1.8,1.1,2.6c0.1,0.1-0.1,0.2-0.2,0.3c-1.6,0.4-4.6,0.7-4.7-1.8
		c0-0.2-0.6-0.4-1-0.4c-1.2,0-1.2,1.6-1,1.4c0.3-0.2,1.1-0.1,1,0.5c-0.1,0.6-1.2-0.3-1.6,0.3c-0.4,0.5-0.4,1.3-0.1,1.8
		c-0.1-0.2,0.2-0.3,0.3-0.4c1.2-0.2,1.3,0.2,0.9,1.4c0,0.1,0.4,0.8,0.6,0.9c0,0,0-0.2,0-0.2c0-0.1,0.1-0.1,0.2-0.1
		c0.1,0,0.3,0,0.4-0.1c0.1,0,0.1-0.1,0.2-0.1c0.1-0.1,0.2-0.1,0.2-0.2c0.3-0.4,0.5-0.8,1-0.9C36.9,77.4,37,77.5,37.2,77.7"/>
	<path class="st2" d="M50,83.3c1.1-1.1,2-2.6,3.2-3.7c-1.3-0.8-3-1.6-3.1-3.3c0-0.1,0.2-0.2,0.2-0.2c1.8,1,4.3,1.1,5.7-0.8
		c1.1-1.5,1.5-4,3.6-4.1c-0.7-1.3,0.1-2.9,1.2-3.6c-0.4-0.1-0.9-0.5-1.3-0.4c-0.5,0.1-0.8,0.8-1.4,0.9c0.9-3.2-0.9-7.6-4.4-7.6
		c-0.7,0-1.5,0.5-1.7,1.3c-0.2,0.7-0.3,1.5,0.2,2.1c1.2,1.4,2,2.9,1.6,4.7c0.8-0.7,1.6-1.7,1.6-2.9c0-0.3,0.5-0.1,0.6-0.2
		c1-1.4-0.6-2.3-1.4-3.2c-0.2-0.2,0.4-0.6,0.4-0.6c3,0.9,3.3,4.6,2,7c-0.3-0.4-1.6-0.3-2.1-0.4c1.4,0.7,1,0.8,1,1
		c-0.1,0.4-1.4,0.2-1.6,0.5c-0.4,0.5-0.7,0.8-0.8,2.6c0.6-0.6,1.4-1.6,2.2-1.2c1.8,0.9-0.1,4-1.8,4.5c-1.4,0.4-2.8,0-3.6-1.3
		c-1.3-1.8-0.4-4-1.3-5.8c-0.8,0.2-0.6,1.2-1,1c-1.4-0.6-2.2-2.1-3.2-3.4c-0.4,0.1-0.6,0.5-1,0.5c-0.6,0-1.7-0.2-2,0.1
		c-0.3,0.3-0.5,2.9,2,3.8c1.7,0.6,3,1.2,4.1,2.5c-0.7,0.1-1-0.3-1.5-0.3c-0.6,0-0.9,0.2-1.4,0.4c-0.4,0.2-0.9,1-0.8,1.7
		c0.4,3.1,4,3.1,5.7,5c0.3,0.3-0.4,1.7-1.1,2.2c-0.6,0.5-2-0.7-1.7-1.7c0.2-0.8-1.7-1.3-2.4-0.4c0.3,0,0.3,0.1,0.3,0.3
		c-0.1,0.7,0.8,0.8,0.8,1.1c0,0.5-0.5-0.2-0.8-0.3c-0.8-0.2-1.5,0.1-2,0.7c-0.1,0.2-0.4,0.5-0.3,0.8c0.6-0.3,0.9,0.6,1.4,0.3
		c0.3-0.2,0.6-0.5,1-0.4c0.2,0,0.3,0.3,0.2,0.3c-1.1,0.7-1.9,1.6-1.1,2.7c0-0.3,0.2-0.4,0.4-0.5c0.3-0.1,0.7,0.1,1,0
		c0.5-0.2,0.2-0.7,0.4-1c0.3-0.6,1.3-1.5,1.9-0.8c0.1,0.1,0,0.6-0.3,0.6c0.3,0,0.6,0.3,0.9,0.2c0.1,0,0.2,0,0.2,0
		c0.1,0,0.1,0,0.2-0.1c0.1-0.1,0.3-0.3,0.3-0.5c0.2,0,0.5,0,0.7-0.2C49.8,83.5,50,83.3,50,83.3"/>
	<path class="st2" d="M44.9,61.1c2-0.6,4.2-1.6,4.7-3.8c0.6,0.4,0.8,1.2,0.8,1.7c0,2.7-1.2,5.1-0.6,8c0.1,0.3,0.7,1.3,0.4,1.2
		c-0.3-0.1-1-0.8-1.4-0.5c-0.5,0.4-0.4,1-0.7,0.8c-0.9-0.5-1.8-1.3-2.2-2.3c-0.2-0.4-0.1-1.2-0.2-1.1c-0.7,0.7-2,0.9-3,1
		c0.2-0.2,0.4-1,0.4-1.2c-0.8-0.4-1.9,0.9-1.9,0.8c0-0.4,0.1-0.6,0.1-0.7C41.8,63.4,42.9,61.7,44.9,61.1"/>
	<path class="st2" d="M30.2,14.4c0.5,0,0.9-0.3,1.2-0.7c0,0.3,0.4,0.7,0.2,1c-0.2,0.4-0.7,0.6-0.8,1c-0.2,0.7,0.4,1.4,0,2.2
		c-1.3,2.1-4,1.4-5.9,1.9c0.1-0.2,0-0.6-0.2-0.7c0.8,0.1,2-0.1,2.2-0.7c0.3-0.8,0.4-1.4,0-2c-0.6-1.1-1.9-0.6-2.8-0.2
		c-0.1-0.7,0.5-1.1,0.8-1.1c1-0.3,1.9-0.7,2.9-1C28.6,13.8,29.3,14.5,30.2,14.4 M28.8,15.5c0.1,0,0.1-0.1,0.1-0.1
		c-0.7-1-1.6-0.9-1.9,0C26.7,16,28.1,15.8,28.8,15.5"/>
	<path class="st2" d="M66.8,18.5c-0.3,0.2-0.7,0.2-1,0.4c-0.2,0.1-0.4,0.3-0.6,0.4c-0.1,0.1-0.4,0.2-0.5,0.2c-0.3,0.1-0.2,0-0.5,0.1
		c-0.2,0-0.2,0-0.4,0c-0.2,0-0.6,0-0.8,0c-0.4,0-0.4,0-0.8,0c-0.2,0-0.4-0.1-0.6-0.2c-0.1,0-0.3-0.1-0.4-0.1c0-0.1,0-0.3,0.1-0.4
		c0.1-0.1,0.2,0,0.4,0c0,0,0.3,0,0.3,0c0.1,0,0.1,0,0.2,0c0.1,0,0.2,0,0.3-0.1c0.1-0.1,0.2-0.1,0.3-0.2c0,0,0.1-0.1,0.1-0.1
		c0.1-0.1,0.2-0.1,0.2-0.2c0.2-0.2,0.4-0.5,0.4-0.8c0-0.2,0-0.5,0-0.7c0,0,0-0.1,0-0.1c0-0.2-0.1-0.4-0.2-0.5c-0.6-1-1.9,0-2.8-0.1
		c0-0.2,0-0.6,0.1-0.7c0.6-0.8,1.6-0.4,2.2-0.8c1.7-1.3,2.2-0.4,4,0.1c0.5,0.2,1.3-0.2,1.8-0.4c0.1-0.1,0.1,0.8,0.1,0.9
		c-0.2,0.6-0.8,0.5-1,1.1c-0.3,0.8-0.4,1.8-1.2,2.2 M65.5,15.1C65.6,15.1,65.5,15.2,65.5,15.1c-0.8-0.4-1.8-0.9-2.2,0.1
		C63.1,16,64.8,15.5,65.5,15.1"/>
	<path class="st2" d="M47.4,55.5c0.8,0.2,1.7,0.2,2.2-0.5c0.3,1.1-0.7,1.2-0.9,1.8c-0.3,0.8-0.3,1.6-1,2c-1.6,0.8-3.5,1.8-5.3,2
		c0-0.2-0.1-0.6,0.2-0.6c0.6,0,1.1-0.5,1.3-0.9c0.2-0.5,0-1.8-0.5-2c-0.5-0.3-1,0.2-1.5,0.4c-0.2-0.5,0.6-1.5,2-1.4
		c0,0,0.7-0.8,0.6-0.7C45.2,55,46.2,55.3,47.4,55.5 M45,56.9c0.3,0.1,1.2-0.4,1.6-0.6c0.1,0,0.1-0.1,0.2-0.2c0,0,0,0,0,0
		c-0.3-0.1-0.5-0.1-0.8-0.1c-0.2,0-0.3-0.2-0.5-0.2c-0.1,0-0.1,0-0.2,0c-0.1,0-0.1,0.1-0.2,0.1c-0.1,0-0.2,0-0.3,0.1
		c-0.1,0.1-0.2,0.2-0.2,0.3c0,0.1,0,0.3,0.1,0.4C44.8,56.9,44.9,56.9,45,56.9"/>
	<path class="st2" d="M71.8,48c0-0.3,0.6-1,0.7-1.6c0.1-2,1.2-2.9,1.3-5c0-0.5-2.3-1.1-2.4-2.2c0-0.6-0.2-1.4,0.3-1.4
		c0.8,0,1.5-0.1,2-0.6c2.4-2.1,0.4-4.9,0.1-7.4c-0.1-0.6,1-1.7,0.9-2.1c-0.2-2.1-0.6-4.1,0.2-6.2c-0.6,0.5-0.8,1.4-1.3,1.9
		c-0.2,0.2-0.4-0.3-0.3-0.3c0.3-1.8,1-3.5,1.9-5.2c1-2.1,0.5-3.8-1.4-4.4c-1.7-0.6-3.4,1-3.6,2.7c-0.2,1.5,0.3,3.3,0.7,4.5
		c0.1,0.4,0,0.8,0.1,1.1c0.3-1.2,0.3-2.5,0.3-3.9c0-0.3,0.3-0.8,0.6-0.8c1.1-0.3,1.7,0.5,1.6,1.1c-0.2,2-0.6,3.5-1.1,5.4
		c-0.5,2.2,0.3,4.4,0.5,6.6c-0.9-0.5-1.8-0.5-2.1,0.8c-0.2,0.7,0.5,1.5,0.7,2.1c0-0.9,0.8-2,1.6-1.5c1,0.6,1,3.7,0.8,4.1
		c-0.5,0.9-1.2,1.5-2.3,1.2c-0.6-0.2-0.4-1.1-0.7-1.4c-1.9-2-2.8-4.3-3-7.1c0-0.4,0.2-1.4,0.1-1.5c-2.5-1-3.7,0-4.7,1.5
		c-0.2-0.4-1.1-1.1-1.2-0.9c-0.5,0.9-0.3,2.5,0.4,3.1c1.9,1.7,3.9,2.8,4.9,5.2c-1.2,0.1-2.3,0.5-2.7,1.7c-0.5,1.3-0.3,3,1,3.5
		c1.1,0.4,3,0,3.4,0c1.2,0.2,2.5,1.1,2.3,2.2c0,0.1-0.5,2.6-1.6,2c-0.6-0.3-0.3-1.7-1.2-2c-1.2-0.3-1.5,1.4-1.4,1.3
		c0.4-0.4,0.7,0.2,1.4,0.7c-2.6-0.6-1.8,1.8-1.7,1.5c0.1-0.4,0.6,0,1.5,0c0,0-0.2,0.2-0.2,0.2c-0.1,0.2-0.2,0.4-0.3,0.6
		c-0.1,0.1,0,0.2,0,0.4c0,0.1,0.1,0.2,0.1,0.3c0,0,0,0,0.1,0.1c0,0,0,0.1,0.1,0.1c0.1,0-0.1-0.2,0.1-0.2c0,0,0.1,0,0.2,0
		c0.1,0,0.2,0.1,0.2,0.1c0.1,0,0.1,0,0.2,0c0.2,0,0.2,0,0.4,0c0.1,0,0.3-0.1,0.4-0.2c-0.2,0.1,0.2-0.2,0.2-0.1
		c0.2-0.3,0.3-0.2,0.3-0.3c0.3-0.5,0.5-0.6,1.1-0.5c0.1,0,0.2,0.1,0.2,0.2c0,0.1,0.2,0.4,0.1,0.3C71.6,47.6,71.8,47.7,71.8,48"/>
	<path class="st2" d="M53.2,24.3C53,24.2,53,24,52.9,23.9c0,0-0.1-0.1-0.1-0.1c-0.1-0.1-0.1-0.1-0.1-0.2c-0.1-0.4-0.1-0.8,0.3-1
		c0,0,0,0,0,0c0,0,0.1-0.1,0.1-0.1c0,0,0.1,0,0-0.1c0,0,0,0,0,0c0.1-0.1,0.1-0.2-0.1-0.3c0.1,0,0.2,0,0.3,0c0,0,0.1,0,0.1,0
		c0.4,0.1,0.9,0.2,1,0.6l0.1,0.2c0.4,1,0.3,3.4,2.6,4c1.2,0.3,2.5,0.7,3.7,0.7c-0.3,1.2-0.3,2.8,0.7,3.7c-1.4-0.8-2.4-0.6-3.6-1.8
		c-0.6-0.5-1.8-1.2-2.4-1.1c-0.3,0,0.4-0.8-0.2-1c-0.4-0.1-1.4-0.1-1.5,0.2c-0.8,1.2-1.7,1.2-2,1.5c0.3-0.3-1.3-1.6,0.7-2.4
		c0.2-0.1,0.3-0.5,0-0.6c-0.4-0.2-0.7,0.1-1.1,0.3c-0.5,0.3-0.6-0.7-1.3-0.4c-0.1-2.1,1.7-2.3,2.9-1c0.1,0.1,0.4,0,0.3-0.1
		L53.2,24.3z"/>
	<path d="M9.9,9.8l0,0.7c0,1.6,0.1,3.1,0.1,4.7c0.4,20.2,0.8,39.3,12.8,57.7c5,7.6,12.6,13.9,22,18.2l0.3,0.1l0.3-0.1
		c9.4-4.4,17-10.7,22-18.2c12-18.3,12.4-37.4,12.8-57.7c0-1.6,0.1-3.1,0.1-4.7l0-0.7H9.9z M17.5,59.4l27.7-21.9l27.6,21.8
		c-0.7,1.8-1.5,3.6-2.3,5.4l-25.3-20l-25.4,20C19,63,18.2,61.2,17.5,59.4z M66.3,72.1c-4.8,7.3-12.1,13.4-21.1,17.6
		C36.1,85.5,28.8,79.4,24,72.1c-0.8-1.2-1.5-2.4-2.2-3.7l23.5-18.5l23.4,18.4C67.9,69.6,67.1,70.8,66.3,72.1z M78.9,15.1
		c-0.3,13.9-0.6,27.3-4.7,40.2l-29-22.9l-29.1,23c-4.1-12.9-4.4-26.4-4.7-40.3c0-1.3-0.1-2.7-0.1-4H79C79,12.5,79,13.8,78.9,15.1z"
		/>
</g>
</svg>
